<?xml version="1.0" encoding="UTF-8"?>
<!DOCTYPE svg PUBLIC "-//W3C//DTD SVG 1.1//EN" "http://www.w3.org/Graphics/SVG/1.1/DTD/svg11.dtd">
<svg xmlns="http://www.w3.org/2000/svg" version="1.1" width="175px" height="77px" style="shape-rendering:geometricPrecision; text-rendering:geometricPrecision; image-rendering:optimizeQuality; fill-rule:evenodd; clip-rule:evenodd" xmlns:xlink="http://www.w3.org/1999/xlink">
<g><path style="opacity:0.913" fill="#f4f6f6" d="M 31.5,-0.5 C 37.5,-0.5 43.5,-0.5 49.5,-0.5C 61.4461,2.93467 70.2795,10.268 76,21.5C 82.3959,12.4259 90.5626,10.4259 100.5,15.5C 103.138,13.3967 106.138,12.0634 109.5,11.5C 114.182,13.2337 115.682,16.567 114,21.5C 112.859,23.6089 111.359,25.4422 109.5,27C 114.5,25.5685 118.834,26.7351 122.5,30.5C 124.131,28.7026 126.131,27.5359 128.5,27C 131.85,27.4992 135.183,27.3325 138.5,26.5C 142.4,27.3983 145.066,29.7317 146.5,33.5C 149.028,31.1262 152.028,30.1262 155.5,30.5C 156.248,32.5841 156.248,34.5841 155.5,36.5C 156,36.8333 156.5,37.1667 157,37.5C 160.526,37.1007 164.026,36.7673 167.5,36.5C 171.721,36.7053 173.054,38.7053 171.5,42.5C 172.917,45.0923 173.917,47.759 174.5,50.5C 174.5,53.5 174.5,56.5 174.5,59.5C 171.937,62.37 168.77,64.37 165,65.5C 158.308,65.5898 151.641,65.5898 145,65.5C 143.874,66.9436 142.374,67.6102 140.5,67.5C 135.283,68.3046 129.949,68.3046 124.5,67.5C 121.322,69.5865 117.988,69.9198 114.5,68.5C 109.655,74.7268 103.322,76.8935 95.5,75C 92.3333,73.1667 89.8333,70.6667 88,67.5C 85.4939,61.1304 83.6606,54.4638 82.5,47.5C 81.5,47.5 80.5,47.5 79.5,47.5C 79.1279,54.8373 78.6279,62.1706 78,69.5C 76.1917,71.3959 74.025,71.8959 71.5,71C 69.8333,69.8333 68.1667,68.6667 66.5,67.5C 61.1729,71.328 55.5063,74.328 49.5,76.5C 43.1667,76.5 36.8333,76.5 30.5,76.5C 24.7364,74.7844 19.7364,71.7844 15.5,67.5C 18.5184,67.3354 21.5184,67.502 24.5,68C 26.441,69.9028 28.7743,70.7361 31.5,70.5C 32.209,71.404 33.209,71.7373 34.5,71.5C 36.134,72.1611 37.9674,72.4944 40,72.5C 43.1498,72.6397 45.9831,71.973 48.5,70.5C 51.4686,71.3287 54.4686,71.4954 57.5,71C 58.3366,69.9887 58.67,68.8221 58.5,67.5C 60.437,66.0686 62.2703,64.4019 64,62.5C 64.435,57.816 64.935,53.1493 65.5,48.5C 66.7729,46.2872 67.7729,43.9538 68.5,41.5C 68.5,39.5 68.5,37.5 68.5,35.5C 70.8083,32.2119 71.975,28.5453 72,24.5C 63.0355,7.93703 49.2022,1.43703 30.5,5C 14.694,11.1236 6.69396,22.6236 6.5,39.5C 4.87669,40.7794 3.21002,42.1128 1.5,43.5C 2.61079,45.5522 4.27746,46.8855 6.5,47.5C 7.5,49.1667 8.83333,50.5 10.5,51.5C 10.631,52.2389 10.4643,52.9056 10,53.5C 7.93273,50.93 5.43273,48.93 2.5,47.5C 1.69194,47.8076 1.02527,48.3076 0.5,49C 3.36945,50.5963 6.03612,52.4297 8.5,54.5C 8.5,56.1667 8.5,57.8333 8.5,59.5C 6.46992,55.8065 3.46992,53.1399 -0.5,51.5C -0.5,48.5 -0.5,45.5 -0.5,42.5C 0.679355,21.1534 11.346,6.82008 31.5,-0.5 Z M 108.5,28.5 C 108.167,29.5 107.5,30.1667 106.5,30.5C 106.5,29.1667 107.167,28.5 108.5,28.5 Z"/></g>
<g><path style="opacity:1" fill="#3db1e9" d="M 68.5,35.5 C 68.7809,28.9197 66.7809,23.2531 62.5,18.5C 58.4421,13.1056 53.1088,9.77228 46.5,8.5C 45.7375,7.73209 44.7375,7.23209 43.5,7C 39.5,6.33333 35.5,6.33333 31.5,7C 29.4156,7.69724 27.7489,8.8639 26.5,10.5C 20.7386,12.3182 17.5719,16.3182 17,22.5C 16.5026,25.146 16.3359,27.8127 16.5,30.5C 17.4977,34.5055 19.4977,37.8388 22.5,40.5C 22.8076,42.924 22.4742,45.2573 21.5,47.5C 20.8243,46.3984 20.1577,45.3984 19.5,44.5C 19.1667,44.5 18.8333,44.5 18.5,44.5C 16.9287,41.2559 14.5954,38.5892 11.5,36.5C 9.63964,37.2599 7.97297,38.2599 6.5,39.5C 6.69396,22.6236 14.694,11.1236 30.5,5C 49.2022,1.43703 63.0355,7.93703 72,24.5C 71.975,28.5453 70.8083,32.2119 68.5,35.5 Z"/></g>
<g><path style="opacity:1" fill="#b47b4a" d="M 46.5,8.5 C 53.1088,9.77228 58.4421,13.1056 62.5,18.5C 61.9569,18.56 61.6236,18.8933 61.5,19.5C 62.1667,20.5 62.8333,21.5 63.5,22.5C 60.7213,24.2222 57.7213,25.3888 54.5,26C 56.7844,27.2617 59.1177,28.4283 61.5,29.5C 54.012,30.6254 47.3453,28.4588 41.5,23C 44.9431,22.7787 45.2764,21.7787 42.5,20C 45.8022,18.3489 49.1356,16.6822 52.5,15C 49.7236,13.2213 50.0569,12.2213 53.5,12C 51.0748,10.7874 48.7415,9.62073 46.5,8.5 Z"/></g>
<g><path style="opacity:1" fill="#4f3221" d="M 26.5,10.5 C 27.8333,10.5 29.1667,10.5 30.5,10.5C 30.856,13.776 29.856,16.4427 27.5,18.5C 23.6847,21.1274 21.6847,24.7941 21.5,29.5C 20.6043,30.5063 19.9377,30.5063 19.5,29.5C 20.2603,25.9734 21.5936,22.64 23.5,19.5C 22.8333,18.1667 22.1667,16.8333 21.5,15.5C 23.3936,14.0546 25.0603,12.3879 26.5,10.5 Z"/></g>
<g><path style="opacity:1" fill="#815830" d="M 46.5,8.5 C 48.7415,9.62073 51.0748,10.7874 53.5,12C 50.0569,12.2213 49.7236,13.2213 52.5,15C 49.1356,16.6822 45.8022,18.3489 42.5,20C 45.2764,21.7787 44.9431,22.7787 41.5,23C 47.3453,28.4588 54.012,30.6254 61.5,29.5C 65.0933,31.1693 65.0933,32.336 61.5,33C 64.481,35.4639 66.8144,38.2972 68.5,41.5C 67.7729,43.9538 66.7729,46.2872 65.5,48.5C 62.8151,52.1831 59.4818,55.1831 55.5,57.5C 55.0742,56.4721 55.0742,55.1388 55.5,53.5C 61.7498,50.3338 64.2498,45.3338 63,38.5C 60.4537,35.8144 57.287,34.8144 53.5,35.5C 52.267,33.2036 50.267,31.8702 47.5,31.5C 41.9017,27.7369 37.0683,23.0703 33,17.5C 33.1472,23.7897 31.3138,24.123 27.5,18.5C 29.856,16.4427 30.856,13.776 30.5,10.5C 29.1667,10.5 27.8333,10.5 26.5,10.5C 27.7489,8.8639 29.4156,7.69724 31.5,7C 35.5,6.33333 39.5,6.33333 43.5,7C 44.7375,7.23209 45.7375,7.73209 46.5,8.5 Z"/></g>
<g><path style="opacity:1" fill="#b17446" d="M 26.5,10.5 C 25.0603,12.3879 23.3936,14.0546 21.5,15.5C 22.1667,16.8333 22.8333,18.1667 23.5,19.5C 21.5936,22.64 20.2603,25.9734 19.5,29.5C 18.609,30.1098 17.609,30.4431 16.5,30.5C 16.3359,27.8127 16.5026,25.146 17,22.5C 17.5719,16.3182 20.7386,12.3182 26.5,10.5 Z"/></g>
<g><path style="opacity:1" fill="#ae774d" d="M 47.5,31.5 C 46.2789,32.4646 44.9456,32.298 43.5,31C 40.0506,28.9555 37.0506,26.4555 34.5,23.5C 33.5197,24.9814 32.353,26.3147 31,27.5C 30.3083,28.4368 30.475,29.1034 31.5,29.5C 31.5,29.8333 31.5,30.1667 31.5,30.5C 30.5384,32.9856 29.7051,32.9856 29,30.5C 27.7475,33.0135 27.2475,35.6802 27.5,38.5C 26.6809,34.7438 24.6809,31.7438 21.5,29.5C 21.6847,24.7941 23.6847,21.1274 27.5,18.5C 31.3138,24.123 33.1472,23.7897 33,17.5C 37.0683,23.0703 41.9017,27.7369 47.5,31.5 Z"/></g>
<g><path style="opacity:1" fill="#774e36" d="M 62.5,18.5 C 66.7809,23.2531 68.7809,28.9197 68.5,35.5C 68.5,37.5 68.5,39.5 68.5,41.5C 66.8144,38.2972 64.481,35.4639 61.5,33C 65.0933,32.336 65.0933,31.1693 61.5,29.5C 59.1177,28.4283 56.7844,27.2617 54.5,26C 57.7213,25.3888 60.7213,24.2222 63.5,22.5C 62.8333,21.5 62.1667,20.5 61.5,19.5C 61.6236,18.8933 61.9569,18.56 62.5,18.5 Z"/></g>
<g><path style="opacity:1" fill="#5e3f1e" d="M 31.5,30.5 C 31.5,30.1667 31.5,29.8333 31.5,29.5C 35.3817,27.7054 38.7151,28.5387 41.5,32C 39.3006,31.2547 36.9673,30.4213 34.5,29.5C 33.4163,29.685 32.4163,30.0183 31.5,30.5 Z"/></g>
<g><path style="opacity:1" fill="#1e3a3d" d="M 109.5,19.5 C 107.612,22.8991 105.112,25.8991 102,28.5C 100.038,33.0055 99.3712,37.6722 100,42.5C 101.414,43.4132 102.914,43.4132 104.5,42.5C 102.593,45.3324 99.9268,46.1657 96.5,45C 94.8787,42.834 94.0454,40.334 94,37.5C 89.8962,41.5989 89.3962,46.2656 92.5,51.5C 91.1387,53.0284 89.972,54.6951 89,56.5C 87.1015,52.3795 86.2681,48.0462 86.5,43.5C 82.9853,43.2879 79.652,43.2879 76.5,43.5C 75.1106,51.4273 74.1106,59.4273 73.5,67.5C 71.8513,66.3523 70.3513,65.019 69,63.5C 67.6308,48.9767 70.9642,35.6434 79,23.5C 84.0598,17.4344 90.2264,15.9344 97.5,19C 92.3565,24.0962 90.1898,30.2629 91,37.5C 92.1545,36.2567 93.4878,35.2567 95,34.5C 97.7453,28.675 100.745,23.0084 104,17.5C 106.041,16.5769 108.208,16.2436 110.5,16.5C 110.737,17.791 110.404,18.791 109.5,19.5 Z"/></g>
<g><path style="opacity:1" fill="#f4f6f6" d="M 87.5,20.5 C 88.9778,20.238 90.3112,20.5713 91.5,21.5C 88.4295,27.1139 86.5961,33.1139 86,39.5C 78.5161,40.7964 76.5161,37.7964 80,30.5C 81.9474,26.7238 84.4474,23.3904 87.5,20.5 Z"/></g>
<g><path style="opacity:1" fill="#b1bcbd" d="M 109.5,19.5 C 108.206,20.2899 107.039,21.2899 106,22.5C 106.027,20.5826 106.861,18.916 108.5,17.5C 109.298,17.9569 109.631,18.6236 109.5,19.5 Z"/></g>
<g><path style="opacity:1" fill="#86593c" d="M 19.5,29.5 C 19.9377,30.5063 20.6043,30.5063 21.5,29.5C 24.6809,31.7438 26.6809,34.7438 27.5,38.5C 28.2026,40.7157 29.5359,42.549 31.5,44C 30.4232,44.4696 29.4232,44.3029 28.5,43.5C 27.1439,41.4618 25.4773,41.1285 23.5,42.5C 23.6716,41.5084 23.3382,40.8417 22.5,40.5C 19.4977,37.8388 17.4977,34.5055 16.5,30.5C 17.609,30.4431 18.609,30.1098 19.5,29.5 Z"/></g>
<g><path style="opacity:1" fill="#22383b" d="M 124.5,35.5 C 125.828,31.746 128.494,30.5793 132.5,32C 133,32.5 133.5,33 134,33.5C 135.789,31.771 137.956,31.1043 140.5,31.5C 140.526,35.3669 139.359,36.0336 137,33.5C 136.228,33.6448 135.561,33.9781 135,34.5C 133.684,37.6883 133.184,41.0217 133.5,44.5C 137.719,44.4715 141.219,42.8049 144,39.5C 144.167,39.8333 144.333,40.1667 144.5,40.5C 140.57,46.3181 135.57,47.6515 129.5,44.5C 127.74,47.0212 125.407,47.8545 122.5,47C 121.378,43.0551 122.378,42.5551 125.5,45.5C 126.478,45.0233 127.311,44.3567 128,43.5C 129.043,40.2432 129.543,36.9099 129.5,33.5C 127.486,33.3915 125.82,34.0582 124.5,35.5 Z"/></g>
<g><path style="opacity:1" fill="#142224" d="M 124.5,35.5 C 124.573,37.0269 123.906,38.0269 122.5,38.5C 122.427,36.9731 123.094,35.9731 124.5,35.5 Z"/></g>
<g><path style="opacity:1" fill="#eec186" d="M 47.5,31.5 C 50.267,31.8702 52.267,33.2036 53.5,35.5C 52.6324,37.4802 53.2991,39.1469 55.5,40.5C 56.8524,39.4825 57.8524,38.1492 58.5,36.5C 59.6517,39.1062 59.8184,41.7728 59,44.5C 56.2171,48.9507 53.0504,53.1174 49.5,57C 47.5273,57.4955 45.5273,57.6621 43.5,57.5C 43.804,60.5219 44.304,63.5219 45,66.5C 46.0391,67.7101 47.2058,68.7101 48.5,69.5C 48.5,69.8333 48.5,70.1667 48.5,70.5C 45.9831,71.973 43.1498,72.6397 40,72.5C 37.9674,72.4944 36.134,72.1611 34.5,71.5C 35.6235,65.248 35.7902,58.9147 35,52.5C 32.9633,50.2941 30.7966,48.2941 28.5,46.5C 28.5,45.5 28.5,44.5 28.5,43.5C 29.4232,44.3029 30.4232,44.4696 31.5,44C 29.5359,42.549 28.2026,40.7157 27.5,38.5C 27.2475,35.6802 27.7475,33.0135 29,30.5C 29.7051,32.9856 30.5384,32.9856 31.5,30.5C 32.4163,30.0183 33.4163,29.685 34.5,29.5C 36.9673,30.4213 39.3006,31.2547 41.5,32C 38.7151,28.5387 35.3817,27.7054 31.5,29.5C 30.475,29.1034 30.3083,28.4368 31,27.5C 32.353,26.3147 33.5197,24.9814 34.5,23.5C 37.0506,26.4555 40.0506,28.9555 43.5,31C 44.9456,32.298 46.2789,32.4646 47.5,31.5 Z"/></g>
<g><path style="opacity:1" fill="#bead97" d="M 34.5,34.5 C 34.2627,35.791 34.596,36.791 35.5,37.5C 36.1667,37.5 36.8333,37.5 37.5,37.5C 38.3382,37.1583 38.6716,36.4916 38.5,35.5C 39.1667,35.5 39.8333,35.5 40.5,35.5C 41.1408,36.4822 41.8075,37.4822 42.5,38.5C 42.1667,38.8333 41.8333,39.1667 41.5,39.5C 39.5,38.1667 37.5,38.1667 35.5,39.5C 34.4777,39.1445 33.811,38.4778 33.5,37.5C 32.1854,36.1054 32.5188,35.1054 34.5,34.5 Z"/></g>
<g><path style="opacity:1" fill="#678f3c" d="M 34.5,34.5 C 36.099,34.2322 37.4324,34.5655 38.5,35.5C 38.6716,36.4916 38.3382,37.1583 37.5,37.5C 36.8333,34.8333 36.1667,34.8333 35.5,37.5C 34.596,36.791 34.2627,35.791 34.5,34.5 Z"/></g>
<g><path style="opacity:1" fill="#161d1b" d="M 37.5,37.5 C 36.8333,37.5 36.1667,37.5 35.5,37.5C 36.1667,34.8333 36.8333,34.8333 37.5,37.5 Z"/></g>
<g><path style="opacity:1" fill="#493927" d="M 40.5,35.5 C 39.8333,35.5 39.1667,35.5 38.5,35.5C 37.4324,34.5655 36.099,34.2322 34.5,34.5C 32.5188,35.1054 32.1854,36.1054 33.5,37.5C 32.0047,37.5852 31.0047,36.9185 30.5,35.5C 34.0832,31.7308 37.4165,31.7308 40.5,35.5 Z"/></g>
<g><path style="opacity:1" fill="#458b1c" d="M 18.5,44.5 C 17.0384,43.5423 15.7051,42.3756 14.5,41C 12.7818,40.654 11.1151,40.154 9.5,39.5C 8.91395,39.7093 8.41395,40.0426 8,40.5C 7.56043,42.8659 7.06043,45.1992 6.5,47.5C 4.27746,46.8855 2.61079,45.5522 1.5,43.5C 3.21002,42.1128 4.87669,40.7794 6.5,39.5C 7.97297,38.2599 9.63964,37.2599 11.5,36.5C 14.5954,38.5892 16.9287,41.2559 18.5,44.5 Z"/></g>
<g><path style="opacity:1" fill="#312014" d="M 53.5,35.5 C 57.287,34.8144 60.4537,35.8144 63,38.5C 64.2498,45.3338 61.7498,50.3338 55.5,53.5C 52.8697,55.6281 50.3697,57.9614 48,60.5C 47.3333,62.8333 47.3333,65.1667 48,67.5C 48.6708,68.2524 49.5041,68.5858 50.5,68.5C 50.1583,69.3382 49.4916,69.6716 48.5,69.5C 47.2058,68.7101 46.0391,67.7101 45,66.5C 44.304,63.5219 43.804,60.5219 43.5,57.5C 45.5273,57.6621 47.5273,57.4955 49.5,57C 53.0504,53.1174 56.2171,48.9507 59,44.5C 59.8184,41.7728 59.6517,39.1062 58.5,36.5C 57.8524,38.1492 56.8524,39.4825 55.5,40.5C 53.2991,39.1469 52.6324,37.4802 53.5,35.5 Z"/></g>
<g><path style="opacity:1" fill="#98df6d" d="M 18.5,44.5 C 18.8333,44.5 19.1667,44.5 19.5,44.5C 19.9629,47.4824 20.2962,50.4824 20.5,53.5C 19.8999,52.0998 18.8999,51.0998 17.5,50.5C 17.9899,48.0516 17.1566,46.385 15,45.5C 11.2338,46.9328 10.7338,48.9328 13.5,51.5C 13.5,52.5 13.5,53.5 13.5,54.5C 12.7281,53.3065 11.7281,52.3065 10.5,51.5C 8.83333,50.5 7.5,49.1667 6.5,47.5C 7.06043,45.1992 7.56043,42.8659 8,40.5C 8.41395,40.0426 8.91395,39.7093 9.5,39.5C 11.1151,40.154 12.7818,40.654 14.5,41C 15.7051,42.3756 17.0384,43.5423 18.5,44.5 Z"/></g>
<g><path style="opacity:1" fill="#1e373a" d="M 122.5,38.5 C 117.956,47.3314 111.956,48.6647 104.5,42.5C 105.983,37.012 109.316,33.012 114.5,30.5C 118.267,31.4096 119.267,33.5762 117.5,37C 115.259,38.522 112.926,39.8553 110.5,41C 112.315,43.2695 114.648,43.9362 117.5,43C 119.037,41.2927 120.704,39.7927 122.5,38.5 Z"/></g>
<g><path style="opacity:1" fill="#e4e8e8" d="M 112.5,32.5 C 113.5,32.5 114.5,32.5 115.5,32.5C 116.167,35.8332 114.833,37.8332 111.5,38.5C 110.23,36.2432 110.564,34.2432 112.5,32.5 Z"/></g>
<g><path style="opacity:1" fill="#21373a" d="M 155.5,41.5 C 156.833,41.5 158.167,41.5 159.5,41.5C 159.833,44.5 158.5,45.8333 155.5,45.5C 155.5,44.1667 155.5,42.8333 155.5,41.5 Z"/></g>
<g><path style="opacity:1" fill="#cf2621" d="M 28.5,43.5 C 28.5,44.5 28.5,45.5 28.5,46.5C 27.8333,46.5 27.5,46.8333 27.5,47.5C 24.0897,47.6162 22.7564,45.9496 23.5,42.5C 25.4773,41.1285 27.1439,41.4618 28.5,43.5 Z"/></g>
<g><path style="opacity:1" fill="#58a131" d="M 17.5,50.5 C 17.6641,53.1873 17.4974,55.854 17,58.5C 16.6667,55.5 16.3333,52.5 16,49.5C 14.187,48.3909 13.3537,49.0576 13.5,51.5C 10.7338,48.9328 11.2338,46.9328 15,45.5C 17.1566,46.385 17.9899,48.0516 17.5,50.5 Z"/></g>
<g><path style="opacity:1" fill="#f79678" d="M 51.5,49.5 C 48.8333,49.5 46.1667,49.5 43.5,49.5C 43.6107,48.8826 43.944,48.3826 44.5,48C 47.7055,47.1098 50.7055,47.4431 53.5,49C 52.9056,49.4643 52.2389,49.631 51.5,49.5 Z"/></g>
<g><path style="opacity:1" fill="#f5f4f4" d="M 42.5,50.5 C 42.5,49.8333 42.8333,49.5 43.5,49.5C 46.1667,49.5 48.8333,49.5 51.5,49.5C 51.5,50.1667 51.5,50.8333 51.5,51.5C 51.1667,51.5 50.8333,51.5 50.5,51.5C 47.7628,51.5987 45.0961,51.2653 42.5,50.5 Z"/></g>
<g><path style="opacity:1" fill="#438c20" d="M 10.5,51.5 C 11.7281,52.3065 12.7281,53.3065 13.5,54.5C 13.6567,55.8734 13.49,57.2068 13,58.5C 11.6927,56.8082 10.1927,55.4749 8.5,54.5C 6.03612,52.4297 3.36945,50.5963 0.5,49C 1.02527,48.3076 1.69194,47.8076 2.5,47.5C 5.43273,48.93 7.93273,50.93 10,53.5C 10.4643,52.9056 10.631,52.2389 10.5,51.5 Z"/></g>
<g><path style="opacity:1" fill="#573d23" d="M 22.5,40.5 C 23.3382,40.8417 23.6716,41.5084 23.5,42.5C 22.7564,45.9496 24.0897,47.6162 27.5,47.5C 24.6572,51.9684 25.3239,55.9684 29.5,59.5C 28.2905,59.9321 27.2905,60.5987 26.5,61.5C 25.1779,61.67 24.0113,61.3366 23,60.5C 22.8442,57.8091 22.0109,55.4758 20.5,53.5C 20.2962,50.4824 19.9629,47.4824 19.5,44.5C 20.1577,45.3984 20.8243,46.3984 21.5,47.5C 22.4742,45.2573 22.8076,42.924 22.5,40.5 Z"/></g>
<g><path style="opacity:1" fill="#332b2a" d="M 42.5,51.5 C 42.5,51.1667 42.5,50.8333 42.5,50.5C 45.0961,51.2653 47.7628,51.5987 50.5,51.5C 47.9549,54.0748 45.2882,54.0748 42.5,51.5 Z"/></g>
<g><path style="opacity:1" fill="#f89077" d="M 42.5,51.5 C 45.2882,54.0748 47.9549,54.0748 50.5,51.5C 50.8333,51.5 51.1667,51.5 51.5,51.5C 48.4437,58.1425 45.4437,58.1425 42.5,51.5 Z"/></g>
<g><path style="opacity:1" fill="#37b5ee" d="M 65.5,48.5 C 64.935,53.1493 64.435,57.816 64,62.5C 62.2703,64.4019 60.437,66.0686 58.5,67.5C 57.3734,66.8783 56.3734,66.045 55.5,65C 53.8876,64.2797 52.3876,64.4464 51,65.5C 50.8333,65 50.6667,64.5 50.5,64C 51.9852,61.683 53.6519,59.5164 55.5,57.5C 59.4818,55.1831 62.8151,52.1831 65.5,48.5 Z"/></g>
<g><path style="opacity:1" fill="#9f6d40" d="M 28.5,46.5 C 30.7966,48.2941 32.9633,50.2941 35,52.5C 35.7902,58.9147 35.6235,65.248 34.5,71.5C 33.209,71.7373 32.209,71.404 31.5,70.5C 32.6491,70.2089 33.3158,69.3756 33.5,68C 32.8257,64.8198 31.4924,61.9864 29.5,59.5C 25.3239,55.9684 24.6572,51.9684 27.5,47.5C 27.5,46.8333 27.8333,46.5 28.5,46.5 Z"/></g>
<g><path style="opacity:1" fill="#1d383b" d="M 152.5,58.5 C 154.299,55.4954 154.966,52.162 154.5,48.5C 155.833,48.5 157.167,48.5 158.5,48.5C 157.447,51.8515 157.447,55.1849 158.5,58.5C 158.833,58.3333 159.167,58.1667 159.5,58C 161.592,55.1977 162.259,52.1977 161.5,49C 162.791,46.6292 163.791,44.1292 164.5,41.5C 165.167,41.1667 165.833,40.8333 166.5,40.5C 167.119,43.0318 168.119,45.3651 169.5,47.5C 166.417,50.0719 165.084,53.4052 165.5,57.5C 172.177,54.3253 172.844,55.1586 167.5,60C 165.193,60.7786 163.193,60.2786 161.5,58.5C 159.754,60.8541 157.421,61.8541 154.5,61.5C 154.715,59.8212 154.048,58.8212 152.5,58.5 Z"/></g>
<g><path style="opacity:1" fill="#1e383b" d="M 152.5,58.5 C 150.8,63.289 148.467,63.6224 145.5,59.5C 142.71,64.0162 139.71,64.3496 136.5,60.5C 132.346,65.3694 128.013,65.7028 123.5,61.5C 123.753,57.3136 125.419,53.8136 128.5,51C 130.167,50.3333 131.833,50.3333 133.5,51C 134.022,51.5613 134.355,52.228 134.5,53C 133.037,55.6312 131.037,57.7979 128.5,59.5C 131.215,62.2104 133.715,61.8771 136,58.5C 136.771,53.6133 139.438,50.28 144,48.5C 144.772,48.6448 145.439,48.9781 146,49.5C 146.695,45.4669 147.528,41.4669 148.5,37.5C 149.478,37.0233 150.311,36.3567 151,35.5C 151.165,42.0257 150.665,48.5257 149.5,55C 149.833,56.5 150.167,58 150.5,59.5C 151.183,59.1373 151.85,58.8039 152.5,58.5 Z"/></g>
<g><path style="opacity:1" fill="#e3e7e7" d="M 129.5,51.5 C 132.144,53.6601 131.811,55.6601 128.5,57.5C 127.23,55.2432 127.564,53.2432 129.5,51.5 Z"/></g>
<g><path style="opacity:1" fill="#eef0f0" d="M 142.5,50.5 C 143.5,50.5 144.5,50.5 145.5,50.5C 146.143,54.4006 145.143,57.734 142.5,60.5C 140.01,57.3178 140.01,53.9845 142.5,50.5 Z"/></g>
<g><path style="opacity:0.96" fill="#eecd91" d="M 17.5,50.5 C 18.8999,51.0998 19.8999,52.0998 20.5,53.5C 22.0109,55.4758 22.8442,57.8091 23,60.5C 24.0113,61.3366 25.1779,61.67 26.5,61.5C 29.4053,63.756 31.072,66.756 31.5,70.5C 28.7743,70.7361 26.441,69.9028 24.5,68C 21.5184,67.502 18.5184,67.3354 15.5,67.5C 12.8996,66.0812 10.3996,64.4146 8,62.5C 7.53042,61.4232 7.69708,60.4232 8.5,59.5C 8.5,57.8333 8.5,56.1667 8.5,54.5C 10.1927,55.4749 11.6927,56.8082 13,58.5C 13.49,57.2068 13.6567,55.8734 13.5,54.5C 13.5,53.5 13.5,52.5 13.5,51.5C 13.3537,49.0576 14.187,48.3909 16,49.5C 16.3333,52.5 16.6667,55.5 17,58.5C 17.4974,55.854 17.6641,53.1873 17.5,50.5 Z"/></g>
<g><path style="opacity:1" fill="#624332" d="M 55.5,53.5 C 55.0742,55.1388 55.0742,56.4721 55.5,57.5C 53.6519,59.5164 51.9852,61.683 50.5,64C 50.6667,64.5 50.8333,65 51,65.5C 52.3876,64.4464 53.8876,64.2797 55.5,65C 56.3734,66.045 57.3734,66.8783 58.5,67.5C 58.67,68.8221 58.3366,69.9887 57.5,71C 54.4686,71.4954 51.4686,71.3287 48.5,70.5C 48.5,70.1667 48.5,69.8333 48.5,69.5C 49.4916,69.6716 50.1583,69.3382 50.5,68.5C 49.5041,68.5858 48.6708,68.2524 48,67.5C 47.3333,65.1667 47.3333,62.8333 48,60.5C 50.3697,57.9614 52.8697,55.6281 55.5,53.5 Z"/></g>
<g><path style="opacity:1" fill="#241811" d="M 29.5,59.5 C 31.4924,61.9864 32.8257,64.8198 33.5,68C 33.3158,69.3756 32.6491,70.2089 31.5,70.5C 31.072,66.756 29.4053,63.756 26.5,61.5C 27.2905,60.5987 28.2905,59.9321 29.5,59.5 Z"/></g>
<g><path style="opacity:1" fill="#1c3639" d="M 123.5,61.5 C 122.351,64.1533 120.351,65.32 117.5,65C 116.755,62.4291 116.421,59.9291 116.5,57.5C 114.426,63.7387 110.426,68.2387 104.5,71C 94.6667,72.5 90.5,68.3333 92,58.5C 94.1704,53.1572 98.0038,49.8239 103.5,48.5C 105.374,48.3898 106.874,49.0564 108,50.5C 109.971,56.8277 107.805,59.9943 101.5,60C 101.043,59.586 100.709,59.086 100.5,58.5C 104.916,57.1056 106.582,54.1056 105.5,49.5C 101.077,49.7445 98.2441,52.0778 97,56.5C 96.3333,59.5 96.3333,62.5 97,65.5C 101.849,70.8812 106.516,70.5479 111,64.5C 111.97,62.7262 112.804,60.8928 113.5,59C 111.473,55.1765 112.473,53.0098 116.5,52.5C 116.281,53.675 116.614,54.675 117.5,55.5C 118.892,54.3947 120.059,53.0614 121,51.5C 120.905,54.32 120.405,57.1533 119.5,60C 120.158,62.4997 121.491,62.9997 123.5,61.5 Z"/></g>
<g><path style="opacity:1" fill="#eabf90" d="M 50.5,68.5 C 50.4701,67.5028 50.9701,66.8361 52,66.5C 53.6303,67.7131 55.4636,68.5464 57.5,69C 55.0367,70.9704 52.7034,70.8037 50.5,68.5 Z"/></g>
</svg>
