<svg width="117" height="46" viewBox="0 0 117 46" fill="none" xmlns="http://www.w3.org/2000/svg">
<path d="M96.6029 25.8404C96.6029 29.4819 99.5744 31.7543 102.721 31.7543C105.984 31.7543 108.839 29.4819 108.751 26.1317C108.839 22.665 105.896 20.3927 102.517 20.3927C99.3705 20.4218 96.7195 22.4902 96.6029 25.8404ZM64.3243 37.6973H56.8081V10.7498H64.4117L71.2286 21.2084L77.9582 10.7498H85.5618V37.7264H78.0456V23.2185L71.2286 33.1818L64.3243 23.2185V37.6973ZM38.6295 34.3471L26.8892 10.7498H35.1919L42.4167 25.083L42.7081 24.3838L46.9614 10.7498H55.3515L46.8448 34.0557C44.1647 41.8632 39.7365 45.9126 31.8417 46V38.1925C35.8037 38.1925 37.9595 37.1146 38.6587 34.4344V34.3471H38.6295ZM7.80748 37.6973H0V10.7498H25.3743V37.7264H17.4794V17.9747H7.80748V37.6973ZM103.129 39.0956C95.1172 39.0956 88.4167 32.7739 88.4167 24.0925C88.4167 15.411 92.1748 9.26409 100.973 5.33122C102.342 4.63204 104.527 3.84547 106.304 2.27232C107.003 1.68967 107.79 0.699177 108.168 0L114.694 4.0494C113.208 8.0114 109.45 9.46802 105.809 10.9538C102.342 12.2356 99.0792 13.6339 97.7974 16.7802L98.0013 16.8676C99.8658 15.178 102.459 14.3914 105.022 14.3914C111.14 14.3914 116.879 19.2274 116.675 26.2483C116.471 35.0462 109.538 39.0956 103.129 39.0956Z" fill="#E60C2A"/>
</svg>
