<?xml version="1.0" encoding="UTF-8"?>
<!DOCTYPE svg PUBLIC "-//W3C//DTD SVG 1.1//EN" "http://www.w3.org/Graphics/SVG/1.1/DTD/svg11.dtd">
<svg xmlns="http://www.w3.org/2000/svg" version="1.1" width="403px" height="130px" style="shape-rendering:geometricPrecision; text-rendering:geometricPrecision; image-rendering:optimizeQuality; fill-rule:evenodd; clip-rule:evenodd" xmlns:xlink="http://www.w3.org/1999/xlink">
<g><path style="opacity:0.902" fill="#f26422" d="M 52.5,27.5 C 50.8415,28.1814 49.1749,29.0147 47.5,30C 48.9255,31.7141 48.5922,33.0475 46.5,34C 47.756,34.4169 48.4226,35.2502 48.5,36.5C 33.9122,36.0818 25.2455,43.0818 22.5,57.5C 22.8457,58.8492 23.179,60.1825 23.5,61.5C 20.5448,62.1587 17.5448,62.4921 14.5,62.5C 14.391,56.5357 14.891,50.869 16,45.5C 23.9723,31.0974 36.139,25.0974 52.5,27.5 Z"/></g>
<g><path style="opacity:0.967" fill="#fedc16" d="M 78.5,27.5 C 78.2162,34.9389 76.5495,41.9389 73.5,48.5C 72.3429,44.0243 70.0095,40.3577 66.5,37.5C 64.3603,34.9387 62.027,32.6054 59.5,30.5C 61.8421,30.4959 63.8421,29.6625 65.5,28C 69.8206,27.501 74.1539,27.3343 78.5,27.5 Z"/></g>
<g><path style="opacity:0.918" fill="#f05323" d="M 52.5,27.5 C 54.6869,28.758 57.0202,29.758 59.5,30.5C 62.027,32.6054 64.3603,34.9387 66.5,37.5C 65.1652,39.4531 63.8318,41.4531 62.5,43.5C 59.883,40.853 56.883,38.6863 53.5,37C 52.0715,36.4209 50.7382,36.5876 49.5,37.5C 49.5,36.8333 49.1667,36.5 48.5,36.5C 48.4226,35.2502 47.756,34.4169 46.5,34C 48.5922,33.0475 48.9255,31.7141 47.5,30C 49.1749,29.0147 50.8415,28.1814 52.5,27.5 Z"/></g>
<g><path style="opacity:1" fill="#fec51b" d="M 78.5,27.5 C 81.5184,27.3354 84.5184,27.502 87.5,28C 88.056,28.3826 88.3893,28.8826 88.5,29.5C 87.37,40.7607 83.2033,50.7607 76,59.5C 75.79,57.9419 75.29,56.6085 74.5,55.5C 74.702,53.0504 74.3686,50.717 73.5,48.5C 76.5495,41.9389 78.2162,34.9389 78.5,27.5 Z"/></g>
<g><path style="opacity:1" fill="#fbae20" d="M 88.5,29.5 C 90.8185,29.9925 92.8185,30.9925 94.5,32.5C 92.9863,48.0279 86.3197,60.8612 74.5,71C 73.184,71.5281 72.5173,71.0281 72.5,69.5C 73.1495,67.5648 73.4828,65.5648 73.5,63.5C 74.4731,61.0521 74.8064,58.3854 74.5,55.5C 75.29,56.6085 75.79,57.9419 76,59.5C 83.2033,50.7607 87.37,40.7607 88.5,29.5 Z"/></g>
<g><path style="opacity:1" fill="#f9a021" d="M 94.5,32.5 C 96.153,32.6596 97.4863,33.3263 98.5,34.5C 96.5228,54.9061 86.5228,70.4061 68.5,81C 66.5643,81.813 64.5643,82.313 62.5,82.5C 66.5714,78.6688 69.9047,74.3354 72.5,69.5C 72.5173,71.0281 73.184,71.5281 74.5,71C 86.3197,60.8612 92.9863,48.0279 94.5,32.5 Z"/></g>
<g><path style="opacity:0.982" fill="#fedb16" d="M 62.5,43.5 C 64.4607,45.7982 65.4607,48.4649 65.5,51.5C 66.3033,56.0794 64.6366,59.2461 60.5,61C 53.6661,64.8894 46.3327,67.0561 38.5,67.5C 38.2532,56.0063 41.9199,46.0063 49.5,37.5C 50.7382,36.5876 52.0715,36.4209 53.5,37C 56.883,38.6863 59.883,40.853 62.5,43.5 Z"/></g>
<g><path style="opacity:1" fill="#f79520" d="M 98.5,34.5 C 100.833,36.1667 102.833,38.1667 104.5,40.5C 97.287,67.7109 80.287,85.3776 53.5,93.5C 51.5,92.1667 49.8333,90.5 48.5,88.5C 53.0885,86.5449 57.7552,84.5449 62.5,82.5C 64.5643,82.313 66.5643,81.813 68.5,81C 86.5228,70.4061 96.5228,54.9061 98.5,34.5 Z"/></g>
<g><path style="opacity:0.997" fill="#a0a0a0" d="M 366.5,41.5 C 368.467,41.2606 370.301,41.5939 372,42.5C 373.289,45.3508 373.789,48.3508 373.5,51.5C 379.291,50.4888 384.124,52.1555 388,56.5C 388.667,63.1667 388.667,69.8333 388,76.5C 386.333,77.8333 384.667,77.8333 383,76.5C 381.768,71.2793 381.101,65.9459 381,60.5C 379.135,58.3268 376.969,57.9934 374.5,59.5C 373.789,64.8527 373.122,70.1861 372.5,75.5C 370.287,78.0801 368.12,78.0801 366,75.5C 365.19,64.0905 365.357,52.7572 366.5,41.5 Z"/></g>
<g><path style="opacity:0.998" fill="#f68821" d="M 104.5,40.5 C 106.262,41.2623 107.262,42.5956 107.5,44.5C 107.833,45.8333 108.167,47.1667 108.5,48.5C 101.727,67.1053 89.7271,81.272 72.5,91C 68.4379,92.4485 64.6046,94.2818 61,96.5C 59.9887,95.6634 58.8221,95.33 57.5,95.5C 55.9382,95.2671 54.6049,94.6005 53.5,93.5C 80.287,85.3776 97.287,67.7109 104.5,40.5 Z"/></g>
<g><path style="opacity:1" fill="#ed3f25" d="M 66.5,37.5 C 70.0095,40.3577 72.3429,44.0243 73.5,48.5C 74.3686,50.717 74.702,53.0504 74.5,55.5C 74.8064,58.3854 74.4731,61.0521 73.5,63.5C 73.8885,58.3722 73.3885,53.3722 72,48.5C 74.5062,57.6915 72.1729,65.3581 65,71.5C 64.3292,70.7476 63.4959,70.4142 62.5,70.5C 63.6005,69.3951 64.2671,68.0618 64.5,66.5C 66.6651,61.5359 66.9985,56.5359 65.5,51.5C 65.4607,48.4649 64.4607,45.7982 62.5,43.5C 63.8318,41.4531 65.1652,39.4531 66.5,37.5 Z"/></g>
<g><path style="opacity:0.994" fill="#f58021" d="M 108.5,48.5 C 110.918,50.8779 111.085,53.5446 109,56.5C 103.59,69.1588 95.4231,79.6588 84.5,88C 78.0302,91.8885 71.6968,95.7218 65.5,99.5C 62.5152,98.6743 59.8485,97.341 57.5,95.5C 58.8221,95.33 59.9887,95.6634 61,96.5C 64.6046,94.2818 68.4379,92.4485 72.5,91C 89.7271,81.272 101.727,67.1053 108.5,48.5 Z"/></g>
<g><path style="opacity:0.997" fill="#9e9f9f" d="M 347.5,50.5 C 351.206,50.9253 354.539,52.2587 357.5,54.5C 358.76,56.3529 358.76,58.1862 357.5,60C 353.777,59.9603 350.111,59.6269 346.5,59C 349.786,60.3279 353.119,61.6612 356.5,63C 360.698,67.632 360.364,71.9654 355.5,76C 350.348,78.1218 345.348,77.7885 340.5,75C 338.604,73.1917 338.104,71.025 339,68.5C 339.893,67.9186 340.893,67.5852 342,67.5C 344.316,68.467 346.649,69.467 349,70.5C 350.067,69.8095 351.234,69.3095 352.5,69C 348.464,67.5401 344.464,65.8734 340.5,64C 337.576,59.7508 338.243,56.0841 342.5,53C 344.315,52.2432 345.981,51.4098 347.5,50.5 Z"/></g>
<g><path style="opacity:0.997" fill="#9f9f9f" d="M 134.5,51.5 C 139.018,51.7417 143.684,51.9084 148.5,52C 149.931,52.4652 151.097,53.2986 152,54.5C 157.04,50.7185 162.206,50.5518 167.5,54C 168.211,55.2547 169.044,56.4214 170,57.5C 170.667,63.8333 170.667,70.1667 170,76.5C 167.733,77.9348 165.733,77.6015 164,75.5C 163.667,70.5 163.333,65.5 163,60.5C 160.756,58.0062 158.423,58.0062 156,60.5C 155.667,65.5 155.333,70.5 155,75.5C 153.062,77.9784 150.895,78.1451 148.5,76C 147.854,70.5522 147.188,65.0522 146.5,59.5C 144.356,58.0465 142.523,58.3799 141,60.5C 140.829,65.8642 140.329,71.1975 139.5,76.5C 136.527,78.2177 134.36,77.5511 133,74.5C 132.333,67.8333 132.333,61.1667 133,54.5C 133.513,53.4734 134.013,52.4734 134.5,51.5 Z"/></g>
<g><path style="opacity:0.994" fill="#989999" d="M 181.5,51.5 C 183.792,51.2436 185.959,51.5769 188,52.5C 188.667,60.5 188.667,68.5 188,76.5C 185.408,77.9817 183.075,77.6483 181,75.5C 180.23,67.4515 180.397,59.4515 181.5,51.5 Z"/></g>
<g><path style="opacity:0.998" fill="#9b9c9c" d="M 217.5,57.5 C 216.167,58.1667 215.167,59.1667 214.5,60.5C 212.095,60.1336 209.762,59.4669 207.5,58.5C 201.111,60.5608 200.111,64.0608 204.5,69C 207.934,69.8911 211.101,69.3911 214,67.5C 217.911,69.313 218.411,71.813 215.5,75C 208.058,79.0905 201.558,77.9238 196,71.5C 191.874,60.0736 195.707,53.4069 207.5,51.5C 210.795,51.2952 213.795,52.1285 216.5,54C 217.337,55.0113 217.67,56.1779 217.5,57.5 Z"/></g>
<g><path style="opacity:0.998" fill="#9e9e9e" d="M 226.5,51.5 C 231.463,52.2411 236.463,52.4077 241.5,52C 243.299,56.6225 241.633,58.9558 236.5,59C 235.667,59.8333 234.833,60.6667 234,61.5C 232.776,66.3859 232.109,71.3859 232,76.5C 229.67,78.0317 227.67,77.6983 226,75.5C 225.2,67.4211 225.367,59.4211 226.5,51.5 Z"/></g>
<g><path style="opacity:0.998" fill="#a0a1a1" d="M 254.5,51.5 C 268.49,50.6486 273.99,56.9819 271,70.5C 265.932,77.8683 259.432,79.3683 251.5,75C 245.081,69.1731 244.248,62.6731 249,55.5C 250.812,54.0229 252.645,52.6896 254.5,51.5 Z M 257.5,58.5 C 263.33,58.1605 265.83,60.8272 265,66.5C 261.61,70.0324 257.943,70.3658 254,67.5C 252.665,63.3919 253.832,60.3919 257.5,58.5 Z"/></g>
<g><path style="opacity:0.998" fill="#999a9a" d="M 285.5,51.5 C 288.85,51.335 292.183,51.5017 295.5,52C 300.215,53.6135 301.215,56.2801 298.5,60C 295.695,60.4415 293.028,59.9415 290.5,58.5C 283.881,60.4329 282.881,63.9329 287.5,69C 290.853,69.7468 294.02,69.2468 297,67.5C 300.072,68.4473 301.072,70.4473 300,73.5C 291.757,79.4693 284.423,78.4693 278,70.5C 275.125,61.9473 277.625,55.6139 285.5,51.5 Z"/></g>
<g><path style="opacity:0.998" fill="#999999" d="M 313.5,51.5 C 319.295,51.7801 324.962,52.1134 330.5,52.5C 331.633,60.1171 331.8,67.7837 331,75.5C 328.667,78.1667 326.333,78.1667 324,75.5C 310.179,79.3581 303.846,74.0247 305,59.5C 307.098,55.8972 309.932,53.2305 313.5,51.5 Z M 315.5,58.5 C 323.365,58.8381 325.365,62.3381 321.5,69C 315.172,70.9712 312.006,68.8045 312,62.5C 312.69,60.6498 313.856,59.3164 315.5,58.5 Z"/></g>
<g><path style="opacity:0.086" fill="#292b2a" d="M 217.5,57.5 C 217.5,59.5 216.5,60.5 214.5,60.5C 215.167,59.1667 216.167,58.1667 217.5,57.5 Z"/></g>
<g><path style="opacity:0.985" fill="#fecc1a" d="M 65.5,51.5 C 66.9985,56.5359 66.6651,61.5359 64.5,66.5C 63.7784,66.0825 63.2784,65.4158 63,64.5C 55.6803,68.6621 47.847,71.3288 39.5,72.5C 39.634,70.7085 39.3007,69.0418 38.5,67.5C 46.3327,67.0561 53.6661,64.8894 60.5,61C 64.6366,59.2461 66.3033,56.0794 65.5,51.5 Z"/></g>
<g><path style="opacity:0.977" fill="#f37521" d="M 107.5,44.5 C 111.668,49.6688 113.668,55.6688 113.5,62.5C 108.56,71.6239 102.227,79.7906 94.5,87C 87.8659,92.1241 81.1992,96.9575 74.5,101.5C 71.1625,101.935 68.1625,101.268 65.5,99.5C 71.6968,95.7218 78.0302,91.8885 84.5,88C 95.4231,79.6588 103.59,69.1588 109,56.5C 111.085,53.5446 110.918,50.8779 108.5,48.5C 108.167,47.1667 107.833,45.8333 107.5,44.5 Z"/></g>
<g><path style="opacity:1" fill="#febd1d" d="M 64.5,66.5 C 64.2671,68.0618 63.6005,69.3951 62.5,70.5C 57.2757,77.9071 50.2757,80.5737 41.5,78.5C 41.0293,76.4214 40.3627,74.4214 39.5,72.5C 47.847,71.3288 55.6803,68.6621 63,64.5C 63.2784,65.4158 63.7784,66.0825 64.5,66.5 Z"/></g>
<g><path style="opacity:0.991" fill="#ef4d23" d="M 23.5,61.5 C 23.4914,63.3084 23.9914,64.9751 25,66.5C 27.3347,69.6653 29.8347,72.6653 32.5,75.5C 29.2448,75.4696 25.9115,76.1362 22.5,77.5C 20.9826,77.4894 19.8159,76.8228 19,75.5C 16.3979,71.5262 14.8979,67.1929 14.5,62.5C 17.5448,62.4921 20.5448,62.1587 23.5,61.5 Z"/></g>
<g><path style="opacity:0.988" fill="#ec3026" d="M 73.5,63.5 C 73.4828,65.5648 73.1495,67.5648 72.5,69.5C 69.9047,74.3354 66.5714,78.6688 62.5,82.5C 57.7552,84.5449 53.0885,86.5449 48.5,88.5C 41.0882,88.3544 34.0882,86.521 27.5,83C 25.6266,81.2962 23.9599,79.4628 22.5,77.5C 25.9115,76.1362 29.2448,75.4696 32.5,75.5C 35.4262,76.6976 38.4262,77.6976 41.5,78.5C 50.2757,80.5737 57.2757,77.9071 62.5,70.5C 63.4959,70.4142 64.3292,70.7476 65,71.5C 72.1729,65.3581 74.5062,57.6915 72,48.5C 73.3885,53.3722 73.8885,58.3722 73.5,63.5 Z"/></g>
<g><path style="opacity:0.893" fill="#f26922" d="M 113.5,62.5 C 112.215,87.1187 99.2147,100.119 74.5,101.5C 81.1992,96.9575 87.8659,92.1241 94.5,87C 102.227,79.7906 108.56,71.6239 113.5,62.5 Z"/></g>
<g><path style="opacity:0.995" fill="#ed3725" d="M 25.5,88.5 C 31.7649,88.3634 34.2649,91.3634 33,97.5C 31.3088,101.213 28.4755,102.379 24.5,101C 19.1651,96.473 19.4984,92.3063 25.5,88.5 Z"/></g>
</svg>
