<svg width="138" height="64" viewBox="0 0 138 64" fill="none" xmlns="http://www.w3.org/2000/svg">
<path d="M7.71556 6.21224L30.8109 9.86134V21.3292L19.0175 20.9483V29.2134L30.8109 28.9691V37.49L19.0175 38.4256V56.0395L7.71556 57.8684V6.21224ZM34.8187 10.4974L44.285 11.9978V52.0858L34.8187 53.5404V10.4974ZM52.714 13.3011L65.4524 29.0411L65.4702 15.3343L73.6349 16.6202V47.4125L68.3521 48.2593L57.9438 36.1939V49.916L48.2727 51.4222L48.2549 12.6077L52.7132 13.3026L52.714 13.3011ZM0 64L80.5075 51.1241V12.8941L0 0.393238V64Z" fill="#1F1F33"/>
<path d="M100.754 14.2396L106.544 21.7457L114.032 10.834L132.081 6.52551L113.759 31.8462L132.081 57.3291L113.57 52.7888L106.45 42.0398L100.85 49.8237L89.4055 47.0301L99.5212 32.0323L89.1836 16.9742L100.755 14.2403L100.754 14.2396ZM84.5257 51.0805L138 63.5835V0L84.5257 12.9369V51.0805Z" fill="#1F1F33"/>
<path d="M89.4041 47.0701L100.849 49.8637L106.45 42.0805L113.569 52.8295L132.081 57.3705L113.759 31.887L132.081 6.56696L114.033 10.8754L106.545 21.7857L100.754 14.2803L89.1821 16.9735L99.5205 32.0723L89.4041 47.0701Z" fill="#FECB00"/>
<path d="M57.9438 49.916V36.1939L68.3521 48.2593L73.6349 47.4125V16.6202L65.4717 15.3343L65.4524 29.0411L52.714 13.3011L48.2556 12.6069L48.2727 51.4222L57.9438 49.916Z" fill="#FECB00"/>
<path d="M19.0167 38.4248L30.8109 37.49V28.9691L19.0175 29.2134V20.9483L30.8116 21.3285L30.8109 9.86134L7.71556 6.21224V57.8684L19.0167 56.0388V38.4248Z" fill="#FECB00"/>
<path d="M44.285 11.9978L34.8187 10.4974V53.5418L44.285 52.0858V11.9978Z" fill="#FECB00"/>
</svg>
