<?xml version="1.0" encoding="UTF-8"?>
<!DOCTYPE svg PUBLIC "-//W3C//DTD SVG 1.1//EN" "http://www.w3.org/Graphics/SVG/1.1/DTD/svg11.dtd">
<svg xmlns="http://www.w3.org/2000/svg" version="1.1" width="309px" height="67px" style="shape-rendering:geometricPrecision; text-rendering:geometricPrecision; image-rendering:optimizeQuality; fill-rule:evenodd; clip-rule:evenodd" xmlns:xlink="http://www.w3.org/1999/xlink">
<g><path style="opacity:0.963" fill="#0d70b5" d="M 60.5,19.5 C 59.1667,19.5 57.8333,19.5 56.5,19.5C 55.9396,17.1992 55.4396,14.8659 55,12.5C 54.5026,15.146 54.3359,17.8127 54.5,20.5C 47.7597,16.4699 41.0931,12.4699 34.5,8.5C 40.1671,1.89312 47.1671,0.0597902 55.5,3C 57.6667,3.83333 59.1667,5.33333 60,7.5C 60.4988,11.4862 60.6655,15.4862 60.5,19.5 Z"/></g>
<g><path style="opacity:1" fill="#ebebe9" d="M 34.5,8.5 C 41.0931,12.4699 47.7597,16.4699 54.5,20.5C 55.1667,20.1667 55.8333,19.8333 56.5,19.5C 57.8333,19.5 59.1667,19.5 60.5,19.5C 65.0403,24.1144 64.0403,27.1144 57.5,28.5C 54.2877,27.7704 51.2877,27.7704 48.5,28.5C 41.6386,24.2366 34.6386,20.2366 27.5,16.5C 27.7899,11.8847 30.1233,9.21804 34.5,8.5 Z"/></g>
<g><path style="opacity:0.897" fill="#2aace3" d="M 0.5,16.5 C 8.5,16.5 16.5,16.5 24.5,16.5C 24.5,21.5 24.5,26.5 24.5,31.5C 16.5,31.5 8.5,31.5 0.5,31.5C 0.5,26.5 0.5,21.5 0.5,16.5 Z"/></g>
<g><path style="opacity:0.976" fill="#724393" d="M 27.5,16.5 C 34.6386,20.2366 41.6386,24.2366 48.5,28.5C 48.5,29.5 48.5,30.5 48.5,31.5C 40.8333,31.5 33.1667,31.5 25.5,31.5C 24.8917,26.0557 25.5583,21.0557 27.5,16.5 Z"/></g>
<g><path style="opacity:0.855" fill="#2bace3" d="M 65.5,26.5 C 71.5,26.5 77.5,26.5 83.5,26.5C 83.5,28.5 83.5,30.5 83.5,32.5C 79.5,32.5 75.5,32.5 71.5,32.5C 71.5,34.1667 71.5,35.8333 71.5,37.5C 82.7089,36.1987 86.8756,40.8654 84,51.5C 82.1127,53.886 79.6127,55.0527 76.5,55C 72.577,55.7927 68.7436,55.626 65,54.5C 64.1954,45.0891 64.362,35.7557 65.5,26.5 Z M 71.5,43.5 C 74.5959,42.9066 76.9292,43.9066 78.5,46.5C 76.9375,49.0289 74.6041,50.0289 71.5,49.5C 71.5,47.5 71.5,45.5 71.5,43.5 Z"/></g>
<g><path style="opacity:0.796" fill="#29abe0" d="M 89.5,25.5 C 94.3276,25.3852 95.6609,27.5519 93.5,32C 87.3601,32.8076 86.0268,30.6409 89.5,25.5 Z"/></g>
<g><path style="opacity:0.936" fill="#704192" d="M 180.5,26.5 C 187.5,26.5 194.5,26.5 201.5,26.5C 201.5,36.1667 201.5,45.8333 201.5,55.5C 199.5,55.5 197.5,55.5 195.5,55.5C 195.5,47.8333 195.5,40.1667 195.5,32.5C 192.5,32.5 189.5,32.5 186.5,32.5C 186.666,39.8409 186.5,47.1742 186,54.5C 183.959,55.4231 181.792,55.7564 179.5,55.5C 179.194,45.7504 179.527,36.0838 180.5,26.5 Z"/></g>
<g><path style="opacity:0.82" fill="#2aace3" d="M 0.5,32.5 C 4.16667,32.5 7.83333,32.5 11.5,32.5C 11.5,37.5 11.5,42.5 11.5,47.5C 7.83333,47.5 4.16667,47.5 0.5,47.5C 0.5,42.5 0.5,37.5 0.5,32.5 Z"/></g>
<g><path style="opacity:0.911" fill="#2aace3" d="M 12.5,32.5 C 20.5,32.5 28.5,32.5 36.5,32.5C 36.5,37.5 36.5,42.5 36.5,47.5C 28.5,47.5 20.5,47.5 12.5,47.5C 12.5,42.5 12.5,37.5 12.5,32.5 Z"/></g>
<g><path style="opacity:0.89" fill="#2aace3" d="M 37.5,32.5 C 41.1667,32.5 44.8333,32.5 48.5,32.5C 48.5,37.5 48.5,42.5 48.5,47.5C 44.8333,47.5 41.1667,47.5 37.5,47.5C 37.5,42.5 37.5,37.5 37.5,32.5 Z"/></g>
<g><path style="opacity:0.86" fill="#2cade2" d="M 100.5,33.5 C 104.584,33.0431 108.417,33.7098 112,35.5C 112.777,38.4294 112.61,41.2628 111.5,44C 115.5,47.3333 115.5,50.6667 111.5,54C 107.235,55.7594 102.902,55.9261 98.5,54.5C 97.5481,52.9547 97.2148,51.288 97.5,49.5C 100.946,50.7069 104.279,50.5402 107.5,49C 105.331,46.7969 102.665,45.9635 99.5,46.5C 99.5,45.1667 99.5,43.8333 99.5,42.5C 101.401,42.5668 103.234,42.2335 105,41.5C 106.829,39.8084 106.329,38.8084 103.5,38.5C 101.675,39.6511 99.6746,40.3178 97.5,40.5C 97.5,38.5 97.5,36.5 97.5,34.5C 98.791,34.7373 99.791,34.404 100.5,33.5 Z"/></g>
<g><path style="opacity:0.848" fill="#2bade3" d="M 144.5,33.5 C 154.598,32.0484 159.265,36.3818 158.5,46.5C 154.116,46.1744 149.783,46.5078 145.5,47.5C 146.337,49.5053 147.837,50.5053 150,50.5C 152.462,49.8405 154.962,49.5072 157.5,49.5C 158.035,52.2385 157.035,54.0718 154.5,55C 139.949,57.4211 135.116,51.5877 140,37.5C 141.397,35.9297 142.897,34.5964 144.5,33.5 Z M 147.5,38.5 C 149.09,38.6282 150.423,39.2949 151.5,40.5C 149.579,41.641 147.579,41.8077 145.5,41C 146.381,40.2917 147.047,39.4584 147.5,38.5 Z"/></g>
<g><path style="opacity:0.863" fill="#2cace2" d="M 166.5,33.5 C 169.881,33.4595 173.214,33.7929 176.5,34.5C 176.5,36.5 176.5,38.5 176.5,40.5C 174.453,40.4889 172.453,40.1556 170.5,39.5C 166.123,41.8435 165.457,45.0101 168.5,49C 171.14,49.839 173.473,49.339 175.5,47.5C 176.474,49.7427 176.808,52.076 176.5,54.5C 163.378,57.8789 158.211,52.8789 161,39.5C 162.36,36.9774 164.193,34.9774 166.5,33.5 Z"/></g>
<g><path style="opacity:0.893" fill="#714192" d="M 211.5,33.5 C 224.025,32.4965 228.525,38.1631 225,50.5C 224.044,51.5786 223.211,52.7453 222.5,54C 208.318,58.1523 202.818,52.9857 206,38.5C 207.412,36.2488 209.246,34.5821 211.5,33.5 Z M 213.5,39.5 C 218.828,39.9726 220.495,42.806 218.5,48C 214.79,51.3285 212.457,50.3285 211.5,45C 212.077,43.0999 212.744,41.2666 213.5,39.5 Z"/></g>
<g><path style="opacity:0.883" fill="#714193" d="M 231.5,33.5 C 235.839,32.8461 239.673,33.8461 243,36.5C 243.957,39.3788 243.457,41.8788 241.5,44C 245.867,48.5018 245.201,52.1685 239.5,55C 235.428,55.9559 231.595,55.4559 228,53.5C 227.51,52.2068 227.343,50.8734 227.5,49.5C 230.738,50.3949 233.905,50.3949 237,49.5C 237.617,48.5509 237.451,47.7175 236.5,47C 234.19,46.5034 231.857,46.3367 229.5,46.5C 229.33,45.1779 229.663,44.0113 230.5,43C 233.177,42.7506 235.51,41.7506 237.5,40C 234.823,38.152 232.156,38.3187 229.5,40.5C 228.534,38.604 228.201,36.604 228.5,34.5C 229.791,34.7373 230.791,34.404 231.5,33.5 Z"/></g>
<g><path style="opacity:0.911" fill="#704292" d="M 308.5,37.5 C 308.5,43.5 308.5,49.5 308.5,55.5C 303.581,55.0618 298.581,54.8951 293.5,55C 289.5,51 289.5,47 293.5,43C 296.146,42.5026 298.813,42.3359 301.5,42.5C 301.853,40.3652 301.02,39.0319 299,38.5C 296.681,39.8713 294.181,40.5379 291.5,40.5C 290.944,37.1048 292.277,34.9381 295.5,34C 298.5,33.3333 301.5,33.3333 304.5,34C 306.35,34.6897 307.684,35.8564 308.5,37.5 Z M 298.5,46.5 C 299.5,46.5 300.5,46.5 301.5,46.5C 301.352,50.4909 299.686,51.3243 296.5,49C 297.381,48.2917 298.047,47.4584 298.5,46.5 Z"/></g>
<g><path style="opacity:0.838" fill="#2bade4" d="M 89.5,33.5 C 91.1439,33.2865 92.6439,33.6198 94,34.5C 94.4996,41.4921 94.6663,48.4921 94.5,55.5C 92.2075,55.7564 90.0408,55.4231 88,54.5C 86.9317,47.2258 87.4317,40.2258 89.5,33.5 Z"/></g>
<g><path style="opacity:0.858" fill="#2aace3" d="M 117.5,33.5 C 119.167,33.5 120.833,33.5 122.5,33.5C 122.5,36.1667 122.5,38.8333 122.5,41.5C 124.833,41.5 127.167,41.5 129.5,41.5C 129.337,39.1432 129.503,36.8098 130,34.5C 131.667,33.1667 133.333,33.1667 135,34.5C 135.5,41.4921 135.666,48.4921 135.5,55.5C 133.5,55.5 131.5,55.5 129.5,55.5C 129.5,52.8333 129.5,50.1667 129.5,47.5C 127.167,47.5 124.833,47.5 122.5,47.5C 122.5,50.1667 122.5,52.8333 122.5,55.5C 120.5,55.5 118.5,55.5 116.5,55.5C 116.203,48.0796 116.536,40.7463 117.5,33.5 Z"/></g>
<g><path style="opacity:0.895" fill="#714192" d="M 247.5,33.5 C 249.467,33.2606 251.301,33.5939 253,34.5C 253.333,37.5 253.667,40.5 254,43.5C 256.045,40.5767 258.212,37.7433 260.5,35C 262.11,33.5053 263.776,33.3387 265.5,34.5C 266.497,41.4684 266.83,48.4684 266.5,55.5C 264.5,55.5 262.5,55.5 260.5,55.5C 260.665,51.8183 260.499,48.1516 260,44.5C 258.114,48.4402 255.614,51.9402 252.5,55C 250.866,55.4935 249.199,55.6602 247.5,55.5C 247.5,48.1667 247.5,40.8333 247.5,33.5 Z"/></g>
<g><path style="opacity:0.857" fill="#704192" d="M 272.5,33.5 C 274.144,33.2865 275.644,33.6198 277,34.5C 277.186,36.9005 277.686,39.2338 278.5,41.5C 280.069,39.0119 281.736,36.5119 283.5,34C 285.809,33.2438 287.809,33.7438 289.5,35.5C 288.479,38.7527 286.812,41.586 284.5,44C 287.406,47.3106 289.073,51.144 289.5,55.5C 287.473,55.6621 285.473,55.4955 283.5,55C 282.04,51.9113 280.207,49.0779 278,46.5C 277.667,49.1667 277.333,51.8333 277,54.5C 275,55.8333 273,55.8333 271,54.5C 269.932,47.2258 270.432,40.2258 272.5,33.5 Z"/></g>
<g><path style="opacity:0.941" fill="#2aace3" d="M 0.5,49.5 C 8.5,49.5 16.5,49.5 24.5,49.5C 24.5,54.5 24.5,59.5 24.5,64.5C 16.5,64.5 8.5,64.5 0.5,64.5C 0.5,59.5 0.5,54.5 0.5,49.5 Z"/></g>
<g><path style="opacity:0.946" fill="#2aace3" d="M 25.5,49.5 C 33.1667,49.5 40.8333,49.5 48.5,49.5C 48.5,54.5 48.5,59.5 48.5,64.5C 40.8333,64.5 33.1667,64.5 25.5,64.5C 25.5,59.5 25.5,54.5 25.5,49.5 Z"/></g>
</svg>
