<svg width="106" height="26" viewBox="0 0 106 26" fill="none" xmlns="http://www.w3.org/2000/svg">
<path d="M0.5 7.84188V6.013H9.36177V7.84188H6.11928V14.663H3.7425V7.84188H0.5ZM10.4064 6.013H15.3937C16.2636 6.013 16.9762 6.23541 17.5306 6.67994C18.085 7.12475 18.3621 7.69777 18.3621 8.39705C18.3621 9.13859 18.0601 9.73573 17.4551 10.1888C18.2887 10.6333 18.7055 11.3051 18.7055 12.2026C18.7055 12.9271 18.4169 13.5189 17.8398 13.9756C17.2627 14.4332 16.5159 14.661 15.6006 14.661H10.4074V6.013H10.4064ZM12.7832 7.84188V9.39901H14.9676C15.2427 9.39901 15.4692 9.32468 15.6482 9.1766C15.8271 9.02881 15.9161 8.83902 15.9161 8.60839C15.9161 8.39449 15.8271 8.21294 15.6482 8.06401C15.4692 7.91621 15.2427 7.84188 14.9676 7.84188H12.7832ZM12.7832 11.1533V12.8341H15.2427C15.5354 12.8341 15.7785 12.7541 15.9709 12.5932C16.1632 12.4324 16.2594 12.2287 16.2594 11.9813C16.2594 11.7422 16.1632 11.545 15.9709 11.3879C15.7785 11.2316 15.5354 11.1533 15.2427 11.1533H12.7832ZM28.5354 7.08729C29.4921 7.92727 29.9708 9.01121 29.9708 10.3374C29.9708 11.6639 29.4921 12.7467 28.5354 13.5875C27.5787 14.4287 26.3396 14.8482 24.8192 14.8482C23.3081 14.8482 22.0732 14.4275 21.1164 13.5875C20.1597 12.7476 19.6808 11.6639 19.6808 10.3374C19.6808 9.01121 20.1597 7.9284 21.1164 7.08729C22.0732 6.24732 23.3081 5.8269 24.8192 5.8269C26.3396 5.82804 27.5787 6.24732 28.5354 7.08729ZM22.8747 12.185C23.3743 12.6585 24.0217 12.8956 24.8192 12.8956C25.6166 12.8956 26.2661 12.6565 26.7698 12.1785C27.2736 11.7002 27.5259 11.0872 27.5259 10.3374C27.5259 9.58793 27.2736 8.97377 26.7698 8.49662C26.2661 8.01862 25.6156 7.78033 24.8192 7.78033C24.0228 7.78033 23.3743 8.01777 22.8747 8.49123C22.3752 8.96469 22.1259 9.58028 22.1259 10.3386C22.1259 11.0966 22.3752 11.7116 22.8747 12.185ZM30.7538 14.663L33.0345 11.4259C32.4118 11.2202 31.9215 10.8863 31.5648 10.4251C31.208 9.96353 31.029 9.42397 31.029 8.8064C31.029 7.98231 31.3404 7.31169 31.963 6.79256C32.5857 6.27342 33.3966 6.01385 34.3947 6.01385H39.3954V14.6638H37.0185V11.6231H35.3978L33.5569 14.663H30.7538ZM33.7906 8.11337C33.5702 8.29492 33.4607 8.52555 33.4607 8.80555C33.4607 9.09376 33.5702 9.33121 33.7906 9.51617C34.01 9.70141 34.2902 9.79445 34.6284 9.79445H37.0197V7.84188H34.6284C34.2902 7.84188 34.0108 7.93209 33.7906 8.11337Z" fill="url(#paint0_linear_4600_27199)"/>
<path d="M41.1172 5.53931H50.3657V15.3093H48.8519V6.85161H42.6309V15.3093H41.1172V5.53931Z" fill="white"/>
<path d="M61.0163 6.78826C61.9602 7.72355 62.4327 8.936 62.4327 10.4248C62.4327 11.9135 61.9602 13.126 61.0163 14.061C60.0725 14.996 58.8503 15.4635 57.3501 15.4635C55.8406 15.4635 54.6144 14.996 53.6706 14.061C52.7264 13.126 52.2539 11.9135 52.2539 10.4248C52.2539 8.936 52.7264 7.72355 53.6706 6.78826C54.6144 5.85325 55.8417 5.38574 57.3501 5.38574C58.8503 5.38574 60.0725 5.85325 61.0163 6.78826ZM54.7954 13.0408C55.4527 13.7152 56.3049 14.0525 57.3501 14.0525C58.3956 14.0525 59.2454 13.7152 59.8989 13.0408C60.5512 12.3663 60.8783 11.4942 60.8783 10.4236C60.8783 9.3445 60.55 8.46736 59.8927 7.79276C59.235 7.11817 58.3882 6.78088 57.3512 6.78088C56.3049 6.78088 55.4527 7.11817 54.7962 7.79276C54.1388 8.46736 53.8106 9.3445 53.8106 10.4236C53.8094 11.4942 54.1377 12.3663 54.7954 13.0408Z" fill="white"/>
<path d="M64.0293 14.3878V12.7969C64.7883 13.6343 65.8899 14.0536 67.3348 14.0536C68.1774 14.0536 68.8599 13.9075 69.3826 13.6144C69.9053 13.3211 70.1676 12.9231 70.1676 12.4207C70.1676 12.0017 70.0055 11.6528 69.6815 11.3745C69.3575 11.0948 68.9499 10.9552 68.4596 10.9552H66.4042V9.68491H68.2651C68.728 9.68491 69.1097 9.55272 69.4108 9.28692C69.712 9.02196 69.8624 8.69317 69.8624 8.30226C69.8624 7.82738 69.6313 7.45547 69.1684 7.18541C68.7052 6.91534 68.0896 6.78088 67.321 6.78088C65.9235 6.78088 64.8487 7.20441 64.0993 8.0512V6.46061C64.9972 5.74403 66.1355 5.38574 67.5155 5.38574C68.7009 5.38574 69.6471 5.62942 70.3558 6.11792C71.0646 6.6067 71.418 7.27902 71.418 8.13517C71.418 9.0662 71.0197 9.77739 70.224 10.2713C70.6965 10.4855 71.0646 10.7967 71.3279 11.2063C71.5916 11.6159 71.7242 12.0803 71.7242 12.6014C71.7242 13.4947 71.3426 14.1954 70.5785 14.7018C69.8142 15.2093 68.7941 15.4623 67.5166 15.4623C66.1073 15.4623 64.9449 15.1041 64.0293 14.3878Z" fill="white"/>
<path d="M73.6523 15.3093V5.53931H75.1661V12.6994L82.3041 5.60966H83.1653V15.3101H81.6515V8.20591L74.4991 15.3101H73.6523V15.3093Z" fill="white"/>
<path d="M85.4992 5.53931H87.0126V9.62827H88.7491L91.8319 5.53931H93.7064L90.0119 10.3122L94.0386 15.3093H92.1362L88.7336 10.9542H87.0118V15.3093H85.498V5.53931H85.4992Z" fill="white"/>
<path d="M99.6069 5.53931H100.301L105.217 15.3093H103.537L102.565 13.2994H97.3435L96.3714 15.3093H94.6914L99.6069 5.53931ZM97.9823 11.9735H101.927L99.9549 7.89783L97.9823 11.9735Z" fill="white"/>
<path d="M14.4277 19.119V18.4351H18.5204V19.119H16.8645V22.9118H16.0815V19.119H14.4277Z" fill="white"/>
<path d="M19.1816 18.4351H21.3393C21.7334 18.4351 22.0564 18.5474 22.3063 18.7712C22.5561 18.995 22.6816 19.2818 22.6816 19.6316C22.6816 20.0498 22.5143 20.3692 22.1787 20.591C22.3867 20.6929 22.5498 20.839 22.669 21.029C22.7882 21.2191 22.8467 21.4336 22.8467 21.6721C22.8467 22.0387 22.716 22.3371 22.4557 22.5671C22.1944 22.7972 21.8567 22.913 21.4407 22.913H19.1816V18.4351ZM19.9646 19.119V20.302H21.2118C21.4072 20.302 21.5661 20.2464 21.6895 20.136C21.8129 20.0245 21.8745 19.8818 21.8745 19.7074C21.8745 19.5372 21.8129 19.3965 21.6895 19.285C21.5661 19.1735 21.4072 19.119 21.2118 19.119H19.9646ZM19.9646 20.9618V22.2279H21.333C21.541 22.2279 21.7114 22.168 21.8453 22.0491C21.979 21.9294 22.046 21.7782 22.046 21.5953C22.046 21.4126 21.979 21.2602 21.8453 21.1414C21.7114 21.0217 21.541 20.9618 21.333 20.9618H19.9646Z" fill="white"/>
<path d="M24.451 18.4351V22.913H23.668V18.4351H24.451Z" fill="white"/>
<path d="M25.4297 22.9125V18.4346H26.2127V21.5687L29.3822 18.4727H29.8276V22.9117H29.0447V19.8153L25.875 22.9117H25.4297V22.9125ZM27.1483 17.3411C27.1483 17.4693 27.1932 17.5742 27.2821 17.6574C27.3709 17.7402 27.488 17.7825 27.6323 17.7825C27.7766 17.7825 27.8947 17.7402 27.9856 17.6574C28.0766 17.5742 28.1226 17.4682 28.1226 17.3411H28.6254C28.6254 17.6185 28.5334 17.8454 28.3484 18.0219C28.1634 18.1983 27.9271 18.2877 27.6386 18.2877C27.3459 18.2877 27.1065 18.1995 26.9194 18.0219C26.7322 17.8443 26.6392 17.6174 26.6392 17.3411H27.1483Z" fill="white"/>
<path d="M32.4297 22.913V18.4351H33.2127V20.3031H36.0008V18.4351H36.79V22.913H36.0008V20.987H33.2127V22.913H32.4297Z" fill="white"/>
<path d="M39.6293 18.4351H39.992L42.2385 22.913H41.3666L40.959 22.0619H38.6623L38.2544 22.913H37.3828L39.6293 18.4351ZM38.9925 21.378H40.6285L39.8142 19.6694L38.9925 21.378Z" fill="white"/>
<path d="M42.5176 23.9361V22.2278H43.0014C43.1843 22.0868 43.3161 21.7926 43.3996 21.3452C43.4823 20.8976 43.5241 20.2083 43.5241 19.2786V18.4338H46.9801V22.2266H47.6169V23.935H46.8339V22.9117H43.3014V23.935H42.5176V23.9361ZM46.1962 22.2278V19.1189H44.2673V19.3941C44.2673 20.7631 44.1358 21.7075 43.8721 22.2278H46.1962Z" fill="white"/>
<path d="M49.0603 18.4351V22.913H48.2773V18.4351H49.0603Z" fill="white"/>
<path d="M50.0391 22.9125V18.4346H50.822V21.5687L53.9915 18.4727H54.4369V22.9117H53.6539V19.8153L50.4845 22.9117H50.0391V22.9125ZM51.7577 17.3411C51.7577 17.4693 51.8026 17.5742 51.8915 17.6574C51.9804 17.7402 52.0973 17.7825 52.2418 17.7825C52.386 17.7825 52.504 17.7402 52.5949 17.6574C52.6861 17.5742 52.7321 17.4682 52.7321 17.3411H53.2337C53.2337 17.6185 53.1416 17.8454 52.9568 18.0219C52.7716 18.1983 52.5354 18.2877 52.2469 18.2877C51.9542 18.2877 51.7148 18.1995 51.5277 18.0219C51.3406 17.8443 51.2474 17.6174 51.2474 17.3411H51.7577Z" fill="white"/>
<path d="M55.4297 22.913V18.4351H56.2127V20.3031H59.0005V18.4351H59.79V22.913H59.0005V20.987H56.2127V22.913H55.4297Z" fill="white"/>
<path d="M60.7617 22.913V18.4351H61.5447V21.5692L64.7142 18.4728H65.1596V22.9118H64.3766V19.8154L61.2068 22.9118H60.7617V22.913Z" fill="white"/>
<path d="M66.1504 22.9125V18.4346H66.9334V21.5687L70.1029 18.4727H70.5483V22.9117H69.7653V19.8153L66.5958 22.9117H66.1504V22.9125ZM67.8691 17.3411C67.8691 17.4693 67.9139 17.5742 68.0029 17.6574C68.0915 17.7402 68.2086 17.7825 68.3529 17.7825C68.4971 17.7825 68.6154 17.7402 68.7062 17.6574C68.7971 17.5742 68.8431 17.4682 68.8431 17.3411H69.3461C69.3461 17.6185 69.2541 17.8454 69.0689 18.0219C68.8841 18.1983 68.6478 18.2877 68.3593 18.2877C68.0666 18.2877 67.827 18.1995 67.6401 18.0219C67.453 17.8443 67.3599 17.6174 67.3599 17.3411H67.8691Z" fill="white"/>
<path d="M72.834 23.9361V22.2278H73.3181C73.501 22.0868 73.6328 21.7926 73.7163 21.3452C73.799 20.8976 73.8408 20.2083 73.8408 19.2786V18.4338H77.2968V22.2266H77.9333V23.935H77.1503V22.9117H73.6181V23.935H72.834V23.9361ZM76.5127 22.2278V19.1189H74.584V19.3941C74.584 20.7631 74.4522 21.7075 74.1888 22.2278H76.5127Z" fill="white"/>
<path d="M78.5918 22.913V18.4351H80.597C81.0381 18.4351 81.3977 18.5621 81.6757 18.8152C81.9538 19.0685 82.0929 19.3965 82.0929 19.7976C82.0929 20.2032 81.9538 20.532 81.6757 20.7862C81.3977 21.0407 81.0381 21.1666 80.597 21.1666H79.3748V22.913H78.5918ZM80.527 20.4815C80.7516 20.4815 80.9345 20.4174 81.0745 20.2895C81.2148 20.1612 81.2848 19.9973 81.2848 19.7967C81.2848 19.5959 81.2137 19.433 81.0714 19.3071C80.9295 19.1809 80.7485 19.1179 80.527 19.1179H79.3748V20.4807H80.527V20.4815Z" fill="white"/>
<path d="M83.2574 18.4351L84.6571 20.9167L85.9868 18.4351H86.8838L84.8087 22.151C84.5118 22.6931 84.1166 22.9632 83.6252 22.9632C83.409 22.9632 83.2114 22.9161 83.0336 22.8225V22.189C83.1527 22.2656 83.2949 22.3045 83.4601 22.3045C83.7612 22.3045 83.9986 22.1405 84.173 21.8117L84.262 21.6457L82.3457 18.4351H83.2574Z" fill="white"/>
<path d="M90.679 18.435V19.1189H88.2674V22.9117H87.4844V18.4338H90.679V18.435Z" fill="white"/>
<path d="M33.8416 3.93867C33.8416 3.93867 33.7137 3.7478 33.8569 3.52326C34.0002 3.2987 34.2789 3.09984 34.3788 2.87861C34.4787 2.65735 34.4101 2.54302 34.6767 2.22703C34.9433 1.91111 36.051 0.425912 37.3611 0.352844C38.6712 0.279775 40.3966 0.836086 41.2616 2.01093C42.1266 3.18577 42.145 3.91518 42.2725 4.445C42.4 4.97482 42.7455 6.61618 42.7455 6.61618L42.3936 6.52756L42.113 6.5576C42.113 6.5576 42.0966 6.54081 41.8626 6.56193C41.6288 6.58308 41.5407 6.70213 41.5407 6.70213L41.2647 6.7676L40.3634 5.2674L40.4092 6.06059L40.1791 5.83914C40.1791 5.83914 39.7943 5.56344 39.5719 5.53793C39.3495 5.5124 39.2512 5.47008 39.2512 5.47008C39.2512 5.47008 39.26 5.17708 38.8978 5.0949C38.5356 5.01272 37.9483 5.13825 37.6338 4.9487C37.3194 4.75915 37.0254 4.50621 37.0254 4.50621L36.8583 4.56809L36.4749 4.39502L35.6687 4.23887C35.6687 4.23887 35.3194 3.98732 35.1302 3.93389C34.941 3.88045 34.768 3.84479 34.768 3.84479L34.9032 4.1339C34.9031 4.13377 33.9957 3.88286 33.8416 3.93867Z" fill="#B5292A"/>
<path d="M34.9827 4.16006C34.9827 4.16006 34.5075 3.94202 34.1549 3.95954C33.8022 3.97706 32.8523 4.05636 32.8523 4.05636L32.9828 4.36633C32.9828 4.36633 32.6469 4.75549 32.5878 4.877C32.5286 4.99851 32.6568 5.10971 32.6568 5.10971C32.6568 5.10971 32.4961 5.76532 32.6231 5.86346C32.75 5.9616 32.7505 5.94271 32.7505 5.94271C32.7505 5.94271 32.87 6.58685 33.1653 6.69381C33.4607 6.80079 33.541 6.79191 33.541 6.79191C33.541 6.79191 33.9085 7.14243 34.3072 7.17924C34.7058 7.21611 35.0286 7.14877 35.0286 7.14877C35.0286 7.14877 35.5656 7.24071 35.7488 7.24389C35.9321 7.24707 36.2593 7.2252 36.6493 7.37901C37.0393 7.53289 37.3999 7.62993 37.3999 7.62993C37.3999 7.62993 37.6862 7.95241 37.8344 7.96946C37.9826 7.98643 38.0621 7.95862 38.0621 7.95862C38.0621 7.95862 38.3821 8.22055 38.6634 8.211C38.9447 8.20145 39.0433 8.18927 39.0433 8.18927L39.5112 8.40224C39.5112 8.40224 39.2197 8.70247 39.554 8.71311C39.8883 8.72371 40.1205 8.63699 40.2495 8.4799C40.3784 8.32278 40.4554 8.18184 40.4554 8.18184C40.4554 8.18184 40.6364 8.30678 40.6828 8.16984C40.7292 8.03289 40.9158 7.24477 40.806 6.9253C40.6963 6.60585 40.4164 6.38672 40.4164 6.38672C40.4164 6.38672 40.2111 5.72626 39.917 5.64382C39.623 5.56142 39.294 5.48108 39.294 5.48108C39.294 5.48108 39.2219 5.03492 38.6408 5.06603C38.0598 5.09706 37.5921 4.95375 37.4027 4.74405C37.2134 4.53434 36.8866 4.50055 36.8866 4.50055L36.8417 4.61742C36.8417 4.61742 36.8024 4.45882 36.4742 4.39522C36.1459 4.33162 35.7153 4.24816 35.7153 4.24816C35.7153 4.24816 35.2012 3.9295 34.9842 3.88719C34.7673 3.84488 34.7534 3.85664 34.7915 3.89694C34.8296 3.93722 34.9827 4.16006 34.9827 4.16006Z" fill="white"/>
<path d="M42.7765 6.77156C42.7765 6.77156 43.3035 6.96857 43.348 7.26014C43.3924 7.5517 43.4265 7.71775 43.4265 7.71775C43.4265 7.71775 43.3423 8.55185 42.9951 8.76613C42.6479 8.9804 42.4505 8.92493 42.4505 8.92493C42.4505 8.92493 42.1429 9.15908 41.8448 8.99372C41.5466 8.82828 41.5082 8.77694 41.5082 8.77694C41.5082 8.77694 41.1079 8.83255 41.0453 8.5297C40.9827 8.22684 41.0059 8.2544 41.0059 8.2544C41.0059 8.2544 40.8316 7.97769 40.8468 7.75416C40.862 7.53062 41.0331 7.42193 41.0331 7.42193C41.0331 7.42193 41.0604 6.95597 41.2557 6.81341C41.4511 6.67084 41.643 6.67568 41.643 6.67568C41.643 6.67568 41.7582 6.52099 41.9262 6.49756C42.0942 6.47405 42.1834 6.51078 42.1834 6.51078C42.1834 6.51078 42.6395 6.55788 42.6908 6.62444C42.7422 6.69084 42.7765 6.77156 42.7765 6.77156Z" fill="white"/>
<path opacity="0.2" d="M34.55 2.39988C34.55 2.39988 34.6074 2.63313 34.8001 2.78749C34.9928 2.94184 35.1445 3.04349 34.8358 3.10202C34.527 3.16062 34.1338 3.31933 34.162 3.45585C34.1903 3.59229 34.792 3.89675 34.792 3.89675C34.792 3.89675 34.9075 4.1439 34.9028 4.13388C34.8981 4.12395 34.5777 3.96325 34.3665 3.96127C34.1554 3.95929 33.8718 3.9486 33.8718 3.9486C33.8718 3.9486 33.6985 3.72083 33.8566 3.52335C34.0146 3.32585 34.5605 2.78141 34.55 2.39988Z" fill="black"/>
<path opacity="0.2" d="M41.9918 6.44902C41.9918 6.44902 41.7234 6.36036 41.4357 6.10002C41.1481 5.83968 40.6335 5.14672 40.2261 4.58494C39.8186 4.02313 39.5829 3.52925 39.5829 3.52925C39.5829 3.52925 39.5637 3.91464 39.4541 4.06377C39.3445 4.21291 38.9698 4.23078 38.9698 4.23078C38.9698 4.23078 39.3761 4.7062 39.4798 4.90653C39.5834 5.10686 39.295 5.40983 39.295 5.40983C39.295 5.40983 39.2829 5.48256 39.3169 5.49124C39.3509 5.49991 39.8367 5.57497 39.938 5.66909C40.0395 5.76331 40.4335 6.16975 40.4335 6.16975L40.4223 5.3657L41.2246 6.75483L41.6431 6.6757L41.9918 6.44902Z" fill="black"/>
<path opacity="0.2" d="M32.5874 5.79459C32.5874 5.79459 32.6759 5.29438 32.8793 5.15081C33.0826 5.00724 33.0235 5.33737 33.1944 5.53077C33.3653 5.72426 33.9556 5.651 33.9556 5.651C33.9556 5.651 34.1654 6.02168 34.8304 6.18338C35.4953 6.345 35.9172 6.23511 35.9172 6.23511C35.9172 6.23511 36.4422 6.65032 36.9854 6.76391C37.5286 6.8775 38.0438 6.75057 38.0438 6.75057C38.0438 6.75057 38.1315 7.15971 38.5266 7.26951C38.9216 7.37931 39.2319 7.20702 39.2319 7.20702C39.2319 7.20702 39.369 7.6377 39.7364 7.65073C40.1037 7.66375 40.2212 7.51715 40.3938 7.58156C40.5663 7.64594 40.7669 7.86385 40.7255 8.0167C40.684 8.16955 40.6153 8.23201 40.6153 8.23201L40.4577 8.17313C40.4577 8.17313 40.2017 8.58337 39.8979 8.68261C39.5939 8.7819 39.3595 8.70432 39.3871 8.64187C39.4147 8.57941 39.5284 8.37466 39.5284 8.37466L39.0056 8.22236C39.0056 8.22236 38.3848 8.17097 38.2453 8.10125C38.1058 8.03152 38.0389 7.95125 38.0389 7.95125C38.0389 7.95125 37.7762 7.98531 37.6448 7.86379C37.5134 7.74227 37.4277 7.63321 37.4277 7.63321C37.4277 7.63321 36.3839 7.27277 36.2719 7.26564C36.1599 7.25856 35.453 7.2155 35.2993 7.19159C35.1456 7.16759 35.0298 7.14851 35.0298 7.14851C35.0298 7.14851 34.5761 7.31553 34.0004 7.04465C33.4247 6.77377 33.5122 6.73317 33.5122 6.73317C33.5122 6.73317 33.2489 6.93843 32.9955 6.53833C32.742 6.13824 32.7703 5.92781 32.7703 5.92781C32.7703 5.92781 32.598 5.87304 32.5874 5.79459Z" fill="black"/>
<path opacity="0.2" d="M43.4061 7.61184C43.4061 7.61184 43.2848 8.0396 43.0762 8.19632C42.8675 8.3531 42.4363 8.19915 42.4363 8.19915C42.4363 8.19915 42.2628 8.3491 41.8912 8.27547C41.5196 8.20183 41.533 7.95581 41.533 7.95581C41.533 7.95581 41.5258 8.08037 41.2681 7.96018C41.0104 7.83999 40.9874 7.49006 40.9874 7.49006C40.9874 7.49006 40.8056 7.7091 40.8548 7.90154C40.904 8.09398 41.0058 8.25455 41.0058 8.25455C41.0058 8.25455 40.9583 8.65541 41.2053 8.73363C41.4524 8.81188 41.5375 8.80324 41.5375 8.80324C41.5375 8.80324 41.7069 8.932 41.9793 8.99269C42.2516 9.05336 42.4763 8.93343 42.4763 8.93343C42.4763 8.93343 42.9729 8.85815 43.1894 8.54741C43.4057 8.23664 43.4061 7.61184 43.4061 7.61184Z" fill="black"/>
<path d="M43.4382 7.46126C43.468 7.29244 43.3928 7.14191 43.2881 7.01515C43.181 6.88541 43.0423 6.74608 42.8704 6.71331C42.8563 6.7106 42.8417 6.70879 42.8269 6.70764C42.8288 6.69111 42.8258 6.67577 42.8207 6.66095C42.8329 6.64366 42.8381 6.62208 42.8297 6.59768C42.3322 5.1601 42.4411 3.60502 41.5505 2.29643C40.816 1.21718 39.4234 0.432841 38.1324 0.292743C36.78 0.146041 35.7192 0.830665 34.8629 1.81737C34.6967 2.00891 34.4585 2.22881 34.3694 2.46774C34.3403 2.54569 34.3473 2.62299 34.3247 2.70195C34.2541 2.94704 34.1337 3.09007 33.9377 3.2491C33.6841 3.45492 33.5501 3.64279 33.7364 3.9045C33.447 3.9346 33.1631 3.97201 32.8637 3.9684C32.8453 3.96819 32.8256 3.97641 32.8159 3.99286C32.7199 4.15647 32.8011 4.246 32.9479 4.32107C32.7994 4.41552 32.6746 4.57978 32.6021 4.71403C32.5442 4.82129 32.4478 5.03443 32.6078 5.10944C32.6114 5.11112 32.6147 5.11043 32.6181 5.11085C32.4732 5.49975 32.4358 5.99914 32.6984 5.96305C32.6939 6.09418 32.7292 6.22694 32.8059 6.37182C32.9465 6.63706 33.1927 6.84472 33.5041 6.84322C33.5077 6.84324 33.5105 6.84212 33.5136 6.84138C33.924 7.2129 34.5538 7.33517 35.0852 7.20837C35.4725 7.32937 35.9375 7.25714 36.3429 7.34722C36.6766 7.42136 36.9932 7.6 37.3142 7.66592C37.4824 7.88495 37.7458 8.00646 38.0159 8.01797C38.2801 8.23699 38.6862 8.30241 39.0392 8.25869C39.0429 8.26428 39.0481 8.26956 39.055 8.27414C39.1724 8.35262 39.2982 8.40291 39.4361 8.43192C39.3742 8.51597 39.3222 8.61274 39.3549 8.68226C39.4026 8.78366 39.6941 8.77195 39.7787 8.76282C40.0806 8.73025 40.3656 8.52929 40.4985 8.25541C40.5181 8.28287 40.5348 8.28852 40.6088 8.32722C40.6417 8.3444 40.6748 8.33304 40.6894 8.29879C40.7346 8.19321 40.7752 8.07538 40.8086 7.95108C40.8329 8.07306 40.8882 8.1877 40.9713 8.27117C40.9456 8.37698 40.9537 8.50334 40.9802 8.57128C41.0491 8.74805 41.291 8.8605 41.476 8.84372C41.7092 9.12732 42.2884 9.26144 42.5415 8.99823C42.776 9.008 43.0369 8.86606 43.1816 8.70498C43.4218 8.43761 43.5791 7.88666 43.42 7.53664C43.4279 7.51049 43.4341 7.48475 43.4382 7.46126ZM34.4391 2.95569C34.5233 2.65146 34.5535 2.40599 34.7617 2.15035C34.959 1.90802 35.1654 1.67163 35.388 1.45201C36.3637 0.488981 37.6196 0.156138 38.9335 0.597766C40.2221 1.0309 41.372 1.93542 41.8944 3.19922C42.3345 4.26387 42.2597 5.42992 42.6186 6.51059C42.5356 6.48017 42.4493 6.46235 42.4035 6.45583C42.3173 6.44355 42.2399 6.45195 42.1705 6.4753C42.07 6.34586 41.7957 6.47534 41.6926 6.54546C41.6655 6.56385 41.6394 6.58598 41.6142 6.60953C41.4845 6.59808 41.381 6.61984 41.3 6.66708C41.0485 6.16831 40.7845 5.67178 40.4376 5.23174C40.2458 4.98844 40.0219 4.7696 39.877 4.49252C39.7159 4.18443 39.6841 3.85605 39.6043 3.5245C39.5986 3.50099 39.5606 3.50251 39.5608 3.52828C39.564 3.95196 39.6444 4.36096 39.8504 4.7238C39.5905 4.50732 39.2883 4.33514 39.0032 4.21656C38.977 4.20565 38.9628 4.24372 38.9828 4.25913C39.5807 4.71892 40.3588 5.15376 40.3605 5.96643C40.2821 5.84015 40.1683 5.73052 40.0536 5.65329C39.849 5.51545 39.6057 5.47906 39.3589 5.4553C39.309 5.0609 38.8715 4.98953 38.528 4.97447C38.3645 4.96729 38.1901 5.01271 38.029 4.98335C37.7833 4.93853 37.5925 4.81751 37.392 4.68225C37.2454 4.5833 37.097 4.45745 36.9144 4.44719C36.9024 4.44649 36.8886 4.45283 36.8824 4.46357C36.8657 4.49258 36.8542 4.51134 36.8467 4.52594C36.7372 4.4299 36.6091 4.35623 36.4656 4.3226C36.3714 4.30058 36.2743 4.29903 36.1789 4.2854C36.0063 4.2608 35.8476 4.20265 35.6823 4.15463C35.3992 3.95182 35.0764 3.83188 34.6966 3.78674C34.6627 3.78275 34.6569 3.83241 34.6865 3.84351C34.6922 3.84569 34.6978 3.84751 34.7034 3.8496C34.735 3.90916 34.7813 3.96185 34.8243 4.01616C34.7397 3.97721 34.6601 3.94549 34.6471 3.94139C34.459 3.88268 34.2657 3.86452 34.0693 3.87606C34.0194 3.87901 33.9699 3.88264 33.9207 3.88688C33.6376 3.54191 34.3602 3.2404 34.4391 2.95569ZM40.5387 8.15543C40.5601 8.09011 40.5738 8.02185 40.5765 7.9513C40.5793 7.88161 40.4712 7.85809 40.4527 7.92909C40.3753 8.22657 40.249 8.47257 39.9494 8.60135C39.872 8.63458 39.4886 8.74882 39.4337 8.63694C39.4181 8.60516 39.5719 8.3611 39.591 8.31406C39.5992 8.29379 39.5688 8.27267 39.5539 8.28999C39.5426 8.30302 39.5277 8.32007 39.5117 8.33851C39.5049 8.32862 39.495 8.32058 39.479 8.31762C39.3822 8.29967 39.2884 8.27014 39.1986 8.23075C39.2316 8.22313 39.2641 8.21491 39.2953 8.20531C39.388 8.17684 39.356 8.02823 39.2626 8.05716C39.0522 8.12239 38.8426 8.15707 38.6215 8.13852C38.4576 8.12475 38.3212 8.07015 38.1801 8.01185C38.3291 7.99329 38.4745 7.94063 38.6006 7.85071C38.6313 7.8289 38.5999 7.79001 38.5711 7.79299C38.3709 7.81386 38.1847 7.91082 37.9784 7.90183C37.7855 7.89341 37.6398 7.79274 37.4923 7.68957C37.6565 7.69801 37.8229 7.66757 37.9944 7.56806C38.0399 7.54164 38.0054 7.47558 37.9574 7.49584C37.3807 7.73994 36.9086 7.33842 36.3639 7.23113C35.7556 7.11137 35.1321 7.31449 34.6334 6.83158C34.6111 6.80999 34.5801 6.83869 34.5979 6.86332C34.6925 6.99384 34.804 7.08165 34.9258 7.14331C34.2337 7.22542 33.7533 6.93418 33.2647 6.43115C33.244 6.40983 33.2077 6.43341 33.2214 6.46082C33.2738 6.56564 33.3402 6.65883 33.4157 6.74285C33.1705 6.67671 33.0012 6.48524 32.8952 6.25131C32.7916 6.02301 32.8228 5.81823 32.8656 5.58018C32.8692 5.5601 32.838 5.55198 32.8284 5.56819C32.7724 5.66185 32.7357 5.75147 32.7157 5.84042C32.5542 5.87971 32.6734 5.2603 32.6794 5.23732C32.7331 5.03215 32.8271 4.88685 32.9445 4.71523C32.9588 4.6943 32.9346 4.67243 32.9138 4.68101C32.8208 4.71939 32.7287 4.85266 32.6554 5.01948C32.6514 5.01345 32.6468 5.00686 32.641 4.99841C32.6356 4.99054 32.627 4.98645 32.6186 4.98611C32.5991 4.87495 32.7845 4.63609 32.8283 4.58457C32.9316 4.46289 33.0771 4.38834 33.179 4.2691C33.1867 4.26009 33.1777 4.2441 33.1664 4.2445C33.1074 4.24664 33.0501 4.26448 32.9954 4.29239C32.8836 4.09954 32.9108 4.03775 33.0774 4.10742C33.1645 4.11496 33.2515 4.11467 33.3386 4.1065C33.4546 4.0994 33.5694 4.0784 33.6843 4.06245C34.1558 3.99716 34.5591 4.03904 34.9758 4.26422C34.9887 4.27722 35.0029 4.28767 35.0197 4.29284C35.0251 4.2945 35.0301 4.29479 35.035 4.29416C35.1243 4.33892 35.1804 4.18939 35.0891 4.16943C35.0802 4.16754 35.0668 4.16207 35.0552 4.16218C35.03 4.10633 34.9842 4.0506 34.9575 4.01433C34.9317 3.97933 34.9017 3.94143 34.869 3.90638C35.0663 3.96999 35.2616 4.02611 35.4437 4.13948C35.6527 4.26961 35.7883 4.46312 35.98 4.61057C36.0426 4.65866 36.1166 4.56527 36.0679 4.50848C36.0084 4.43921 35.9462 4.37711 35.8827 4.31821C35.9895 4.36142 36.1026 4.39102 36.2183 4.41684C36.3728 4.45126 36.4946 4.45447 36.635 4.54563C36.7509 4.6209 36.8449 4.73334 36.9522 4.82103C37.0097 4.868 37.0679 4.78084 37.0309 4.72959C36.9976 4.68341 36.961 4.63923 36.9216 4.59773C37.0183 4.51246 37.4305 4.85351 37.4485 4.86624C37.5738 4.95463 37.696 5.03903 37.8445 5.08323C38.1943 5.18729 39.084 4.93888 39.2174 5.44252C39.0669 5.42903 38.9176 5.41397 38.7775 5.37714C38.7624 5.37317 38.7518 5.39324 38.7654 5.40238C39.0355 5.58318 39.3396 5.53806 39.6448 5.61391C40.032 5.71021 40.1641 5.94481 40.3394 6.23553C40.3393 6.2383 40.3393 6.24103 40.3395 6.24372C40.255 6.2071 40.16 6.17999 40.0522 6.16542C39.9787 6.1555 39.9655 6.26568 40.03 6.28929C40.3883 6.42032 40.6753 6.63008 40.7555 7.02804C40.7962 7.22991 40.7717 7.45729 40.7432 7.65977C40.736 7.70942 40.7022 8.219 40.5387 8.15543ZM40.892 7.48246C40.9311 7.01626 40.8334 6.54774 40.4669 6.31095C40.4778 6.30191 40.4872 6.29004 40.4919 6.27126C40.5456 6.05628 40.5416 5.85227 40.4945 5.66123C40.7306 6.01474 40.9521 6.37469 41.1577 6.76461C41.1616 6.77202 41.167 6.77656 41.1719 6.78209C41.0592 6.9306 41.0204 7.1517 41.012 7.36592C41.0098 7.36697 41.0077 7.36715 41.0055 7.36858C40.9596 7.39975 40.9224 7.43884 40.892 7.48246ZM43.1378 8.50358C42.9239 8.81321 42.6549 8.82673 42.3131 8.79974C42.2526 8.79498 42.24 8.87078 42.2797 8.90332C42.3063 8.92504 42.3348 8.94171 42.3643 8.95569C42.2204 8.98556 42.0883 8.9851 41.9258 8.93937C41.8157 8.90845 41.6784 8.86699 41.6029 8.77616C41.5488 8.71087 41.5503 8.64089 41.4819 8.58998C41.4704 8.58143 41.4503 8.58287 41.4401 8.59309C41.4319 8.60133 41.4237 8.60957 41.4156 8.61782C41.3969 8.63654 41.3832 8.66523 41.3915 8.69238C41.3987 8.71585 41.4085 8.73865 41.4201 8.76093C41.3206 8.7242 41.2156 8.70622 41.1381 8.61806C41.0569 8.52572 41.0222 8.26266 41.1581 8.19211C41.2131 8.16344 41.1797 8.08809 41.1231 8.09502C41.0702 8.10148 41.0321 8.1352 41.0056 8.18219C40.9495 8.08881 40.9092 7.99246 40.9068 7.8761C40.904 7.74215 40.9459 7.64675 41.0114 7.55114C41.0117 7.56363 41.0119 7.5765 41.0123 7.58875C41.0141 7.63488 41.0802 7.63871 41.0846 7.59186C41.103 7.39368 41.1036 7.17779 41.1835 6.99252C41.2511 6.83606 41.36 6.78525 41.4922 6.76064C41.4428 6.84589 41.415 6.94173 41.4268 7.03689C41.4287 7.0527 41.4527 7.05621 41.4604 7.04306C41.5265 6.93035 41.5787 6.82267 41.6655 6.73613C41.6855 6.73117 41.6977 6.71877 41.7026 6.70298C41.726 6.68357 41.7509 6.66502 41.7797 6.64851C41.8504 6.60827 41.9237 6.58927 42.0021 6.57811C41.9463 6.6321 41.9005 6.70097 41.8665 6.78284C41.8603 6.7977 41.8826 6.8128 41.8936 6.80046C41.9992 6.68171 42.1262 6.58362 42.2922 6.58818C42.4315 6.592 42.5734 6.63487 42.665 6.73547C42.6294 6.75366 42.5996 6.78108 42.5809 6.82017C42.576 6.8306 42.5867 6.84309 42.5969 6.84323C42.7169 6.84505 42.8167 6.82571 42.9277 6.88877C43.0217 6.94217 43.1048 7.0353 43.173 7.11836C43.2542 7.21729 43.3034 7.32635 43.3074 7.45576C43.3112 7.57792 43.2417 7.6574 43.214 7.76764C43.2098 7.78419 43.2249 7.7954 43.24 7.7898C43.2922 7.77048 43.3324 7.72632 43.3634 7.67363C43.3839 7.95579 43.2877 8.28645 43.1378 8.50358Z" fill="#2F2F2F"/>
<defs>
<linearGradient id="paint0_linear_4600_27199" x1="0.623484" y1="-8.50036" x2="32.9075" y2="27.3961" gradientUnits="userSpaceOnUse">
<stop offset="0.0644" stop-color="#E40040"/>
<stop offset="0.1277" stop-color="#E6163B"/>
<stop offset="0.3757" stop-color="#EF6826"/>
<stop offset="0.5956" stop-color="#F6A916"/>
<stop offset="0.7793" stop-color="#FBD70B"/>
<stop offset="0.9196" stop-color="#FEF404"/>
<stop offset="1" stop-color="#FFFF01"/>
</linearGradient>
</defs>
</svg>
