<svg xmlns="http://www.w3.org/2000/svg" xmlns:xlink="http://www.w3.org/1999/xlink" width="2000" zoomAndPan="magnify" viewBox="0 0 1500 374.999991" height="500" preserveAspectRatio="xMidYMid meet" version="1.0"><defs><clipPath id="d6f3ec2221"><path d="M 329.765625 95.972656 L 826 95.972656 L 826 285.59375 L 329.765625 285.59375 Z M 329.765625 95.972656 " clip-rule="nonzero"/></clipPath><clipPath id="9a805fb032"><path d="M 793.800781 255.691406 C 785.828125 258.390625 775.976562 260.148438 766.476562 260.148438 C 746.425781 260.148438 741.382812 257.097656 741.382812 238.804688 C 741.382812 221.566406 748.066406 219.457031 766.710938 219.457031 C 776.5625 219.457031 786.296875 220.160156 793.800781 221.800781 Z M 766.828125 142.058594 C 747.480469 142.058594 726.839844 145.578125 712.652344 149.328125 L 718.75 176.652344 C 730.007812 172.664062 744.898438 169.96875 759.910156 169.96875 C 788.289062 169.96875 793.917969 175.714844 793.917969 199.519531 C 782.308594 197.058594 771.753906 195.765625 760.144531 195.765625 C 728.484375 195.765625 706.789062 201.984375 706.789062 240.328125 C 706.789062 275.746094 721.210938 285.59375 764.132812 285.59375 C 783.128906 285.59375 808.460938 281.609375 825.582031 275.042969 L 825.582031 194.828125 C 825.582031 154.371094 807.289062 142.058594 766.828125 142.058594 M 556.683594 281.84375 L 515.875 281.84375 C 502.738281 234.464844 487.730469 187.675781 472.015625 146.046875 L 507.078125 146.046875 C 518.21875 175.832031 529.476562 213.007812 538.039062 247.835938 C 547.417969 220.628906 561.84375 170.320312 567.472656 146.046875 L 599.722656 146.046875 C 608.515625 172.429688 620.828125 218.753906 627.28125 247.835938 C 639.59375 213.945312 650.734375 179.820312 658.824219 146.046875 L 692.480469 146.046875 C 680.167969 190.019531 663.632812 238.804688 646.042969 281.84375 L 604.882812 281.84375 C 599.605469 254.402344 589.402344 212.300781 583.070312 190.84375 C 576.382812 219.222656 565.125 257.214844 556.683594 281.84375 M 464.980469 95.972656 L 464.980469 126.460938 L 365.066406 126.460938 L 365.066406 169.382812 L 436.480469 169.382812 L 436.480469 199.519531 L 365.066406 199.519531 L 365.066406 251.46875 L 464.980469 251.46875 L 464.980469 281.84375 L 329.765625 281.84375 L 329.765625 95.972656 Z M 464.980469 95.972656 " clip-rule="nonzero"/></clipPath><clipPath id="edb776ac1b"><path d="M 928 89.40625 L 1491.828125 89.40625 L 1491.828125 285.59375 L 928 285.59375 Z M 928 89.40625 " clip-rule="nonzero"/></clipPath><clipPath id="896f019e61"><path d="M 1491.320312 203.742188 L 1491.320312 281.84375 L 1458.25 281.84375 L 1458.25 206.320312 C 1458.25 183.921875 1452.386719 171.960938 1430.925781 171.960938 C 1417.320312 171.960938 1404.773438 175.832031 1404.773438 183.921875 L 1404.773438 281.84375 L 1371.703125 281.84375 L 1371.703125 89.40625 L 1404.773438 89.40625 L 1404.773438 151.441406 C 1413.6875 146.984375 1428.34375 142.058594 1442.183594 142.058594 C 1473.84375 142.058594 1491.320312 152.964844 1491.320312 203.742188 M 1330.777344 175.480469 C 1320.105469 171.960938 1304.742188 169.03125 1291.257812 169.03125 C 1275.074219 169.03125 1266.75 170.671875 1266.75 184.863281 C 1266.75 194.242188 1272.613281 197.410156 1294.773438 199.519531 C 1327.609375 203.039062 1342.152344 213.125 1342.152344 240.328125 C 1342.152344 275.394531 1318.582031 285.59375 1283.871094 285.59375 C 1269.445312 285.59375 1247.984375 282.898438 1235.320312 278.324219 L 1242.238281 252.292969 C 1252.089844 255.691406 1268.976562 258.625 1282.695312 258.625 C 1300.875 258.625 1309.316406 256.160156 1309.316406 242.089844 C 1309.316406 232.589844 1304.039062 228.015625 1280.234375 225.90625 C 1250.332031 223.441406 1234.265625 215.234375 1234.265625 187.207031 C 1234.265625 152.144531 1258.070312 142.292969 1292.546875 142.292969 C 1306.621094 142.292969 1324.5625 145.105469 1338.164062 149.679688 Z M 1172.582031 255.691406 C 1164.722656 258.390625 1154.875 260.148438 1145.257812 260.148438 C 1125.203125 260.148438 1120.277344 257.097656 1120.277344 238.804688 C 1120.277344 221.566406 1126.964844 219.457031 1145.609375 219.457031 C 1155.460938 219.457031 1165.191406 220.160156 1172.582031 221.800781 Z M 1204.476562 194.828125 C 1204.476562 154.371094 1186.066406 142.058594 1145.726562 142.058594 C 1126.257812 142.058594 1105.621094 145.578125 1091.546875 149.328125 L 1097.644531 176.652344 C 1108.902344 172.664062 1123.679688 169.96875 1138.691406 169.96875 C 1167.1875 169.96875 1172.699219 175.714844 1172.699219 199.519531 C 1161.207031 197.058594 1150.535156 195.765625 1139.042969 195.765625 C 1107.378906 195.765625 1085.566406 201.984375 1085.566406 240.328125 C 1085.566406 275.746094 1099.992188 285.59375 1143.027344 285.59375 C 1162.027344 285.59375 1187.355469 281.609375 1204.476562 275.042969 Z M 1015.792969 91.515625 C 1032.914062 91.515625 1054.84375 94.328125 1069.265625 98.433594 L 1061.527344 129.394531 C 1051.910156 125.875 1034.4375 123.414062 1022.007812 123.414062 C 981.316406 123.414062 966.1875 130.449219 966.1875 187.441406 C 966.1875 244.550781 981.316406 253.347656 1022.007812 253.347656 C 1034.671875 253.347656 1051.910156 250.882812 1061.527344 247.367188 L 1069.265625 278.910156 C 1054.84375 282.898438 1032.914062 285.59375 1015.792969 285.59375 C 956.804688 285.59375 928.542969 262.84375 928.542969 187.207031 C 928.425781 111.214844 956.804688 91.515625 1015.792969 91.515625 " clip-rule="nonzero"/></clipPath><clipPath id="cfea101f20"><path d="M 8.679688 45.90625 L 150.769531 45.90625 L 150.769531 329 L 8.679688 329 Z M 8.679688 45.90625 " clip-rule="nonzero"/></clipPath><clipPath id="a9c98ebf1f"><path d="M 37.050781 201.417969 L 81.195312 201.417969 C 87.171875 234.132812 115.785156 258.9375 150.210938 259.015625 L 150.210938 231.65625 C 126.558594 231.574219 107.40625 212.375 107.40625 188.695312 C 107.40625 165.019531 126.558594 145.820312 150.210938 145.738281 L 150.210938 118.386719 C 115.617188 118.453125 86.894531 143.507812 81.109375 176.460938 L 37.371094 176.460938 C 44.230469 120.222656 92.128906 76.652344 150.21875 76.625 L 150.21875 45.90625 C 72.039062 45.941406 8.679688 109.316406 8.679688 187.5 C 8.679688 265.683594 72.039062 329.058594 150.21875 329.09375 L 150.21875 304.132812 C 91.148438 304.105469 42.605469 259.042969 37.058594 201.417969 " clip-rule="nonzero"/></clipPath><clipPath id="42535ef477"><path d="M 159.578125 73.855469 L 273 73.855469 L 273 176.972656 L 159.578125 176.972656 Z M 159.578125 73.855469 " clip-rule="nonzero"/></clipPath><clipPath id="5d8615b844"><path d="M 159.578125 73.855469 C 218.648438 73.882812 267.1875 118.945312 272.738281 176.570312 L 228.59375 176.570312 " clip-rule="nonzero"/></clipPath><clipPath id="4cca4d26a4"><path d="M 159.578125 201.53125 L 272.671875 201.53125 L 272.671875 301.367188 L 159.578125 301.367188 Z M 159.578125 201.53125 " clip-rule="nonzero"/></clipPath><clipPath id="df175f29bc"><path d="M 228.679688 201.53125 L 272.425781 201.53125 C 265.558594 257.769531 217.664062 301.332031 159.578125 301.363281 " clip-rule="nonzero"/></clipPath></defs><g clip-path="url(#d6f3ec2221)"><g clip-path="url(#9a805fb032)"><path fill="#2c8b57" d="M 329.765625 95.972656 L 825.308594 95.972656 L 825.308594 285.59375 L 329.765625 285.59375 Z M 329.765625 95.972656 " fill-opacity="1" fill-rule="nonzero"/></g></g><g clip-path="url(#edb776ac1b)"><g clip-path="url(#896f019e61)"><path fill="#2c8b57" d="M 928.542969 89.40625 L 1491.0625 89.40625 L 1491.0625 285.59375 L 928.542969 285.59375 Z M 928.542969 89.40625 " fill-opacity="1" fill-rule="nonzero"/></g></g><g clip-path="url(#cfea101f20)"><g clip-path="url(#a9c98ebf1f)"><path fill="#2c8b57" d="M 8.679688 45.90625 L 150.214844 45.90625 L 150.214844 328.972656 L 8.679688 328.972656 Z M 8.679688 45.90625 " fill-opacity="1" fill-rule="nonzero"/></g></g><g clip-path="url(#42535ef477)"><g clip-path="url(#5d8615b844)"><path fill="#a09f9c" d="M 159.578125 73.855469 L 272.722656 73.855469 L 272.722656 176.570312 L 159.578125 176.570312 Z M 159.578125 73.855469 " fill-opacity="1" fill-rule="nonzero"/></g></g><g clip-path="url(#4cca4d26a4)"><g clip-path="url(#df175f29bc)"><path fill="#a09f9c" d="M 159.578125 201.53125 L 272.28125 201.53125 L 272.28125 301.367188 L 159.578125 301.367188 Z M 159.578125 201.53125 " fill-opacity="1" fill-rule="nonzero"/></g></g></svg>