<svg width="142" height="40" viewBox="0 0 142 40" fill="none" xmlns="http://www.w3.org/2000/svg">
<g clip-path="url(#clip0)">
<path d="M124.633 29.8243L132.273 11.9175H124.94V7.02832H140.128V9.22847L132.641 26.8908H141.999L140.005 32.0856H124.633V29.8243Z" fill="white"/>
<path d="M115.121 7.02832H121.564V32.0856H115.121V7.02832Z" fill="white"/>
<path d="M93.3984 7.02832H102.419C104.322 7.02832 105.917 7.27278 107.267 7.7617C108.617 8.25063 109.63 9.01457 110.335 10.023C111.041 11.0314 111.409 12.3148 111.409 13.9038C111.409 14.7289 111.256 15.4928 110.98 16.1651C110.673 16.8373 110.274 17.4179 109.783 17.9069C109.292 18.3958 108.709 18.7625 108.034 19.0375C108.525 19.1597 109.047 19.3736 109.538 19.6486C110.029 19.9237 110.489 20.3209 110.888 20.8098C111.287 21.2988 111.624 21.9099 111.869 22.6127C112.115 23.3156 112.238 24.1712 112.238 25.1796C112.238 26.2185 112.023 27.1658 111.655 27.9909C111.256 28.8159 110.734 29.5493 110.059 30.1605C109.384 30.7716 108.617 31.23 107.727 31.5661C106.868 31.9023 105.917 32.0551 104.966 32.0551H93.4598V7.02832H93.3984ZM102.419 27.1353C103.401 27.1353 104.137 26.8908 104.69 26.4324C105.242 25.9741 105.518 25.3018 105.518 24.4462C105.518 23.8045 105.395 23.285 105.15 22.8878C104.904 22.4905 104.598 22.2155 104.168 22.0321C103.739 21.8488 103.278 21.7571 102.695 21.7571H101.008L102.112 17.5707H102.419C103.064 17.5707 103.585 17.4179 103.953 17.1429C104.322 16.8679 104.567 16.5012 104.72 16.0734C104.874 15.615 104.935 15.1567 104.935 14.6372C104.935 14.1483 104.843 13.6899 104.628 13.2621C104.414 12.8648 104.045 12.5287 103.493 12.2842C102.971 12.0398 102.235 11.9175 101.284 11.9175H99.8725V27.1353H102.419Z" fill="white"/>
<path d="M78.4864 23.8044L71.0918 6.99768H78.2716L82.1069 16.8678L86.0036 6.99768H92.3243L84.9604 23.8655V32.0855H78.4864V23.8044Z" fill="white"/>
<path d="M47.4961 7.02832H53.4179L59.309 16.104L64.6785 7.02832H70.0173V32.0856H63.5432V17.5096L59.309 24.4768H57.3146L53.4179 18.1513V32.0856H47.4961V7.02832Z" fill="white"/>
<path fill-rule="evenodd" clip-rule="evenodd" d="M3.4668 3.63642C4.78616 3.30029 6.16688 3.11694 7.57829 3.11694C16.5377 3.11694 23.8095 10.3591 23.8095 19.282C23.8095 20.3515 23.7174 21.3904 23.5027 22.3988C13.5614 20.871 5.61459 13.3538 3.4668 3.63642Z" fill="#006B17"/>
<path fill-rule="evenodd" clip-rule="evenodd" d="M7.60933 35.447C4.84788 35.447 2.27053 34.7747 0 33.5524V6.3866C3.00691 16.5929 11.5674 24.3851 22.2143 26.2796C19.6063 31.6884 14.0527 35.447 7.60933 35.447Z" fill="#006B17"/>
<path fill-rule="evenodd" clip-rule="evenodd" d="M20.7109 21.7876V4.98088C22.9815 3.78913 25.5588 3.0863 28.3203 3.0863C36.1137 3.0863 42.6185 8.55613 44.1833 15.8289C39.7956 20.0458 33.8432 22.6432 27.2464 22.6432C24.9758 22.6738 22.7974 22.3682 20.7109 21.7876Z" fill="#00AB26"/>
<path fill-rule="evenodd" clip-rule="evenodd" d="M28.3203 35.4469C25.5588 35.4469 22.9815 34.7746 20.7109 33.5523V25.974C22.7974 26.4629 25.0065 26.7379 27.2464 26.7379C33.7204 26.7379 39.6729 24.5683 44.4594 20.9625C43.631 29.0909 36.7274 35.4469 28.3203 35.4469Z" fill="#00AB26"/>
<path fill-rule="evenodd" clip-rule="evenodd" d="M129.174 2.41406C124.786 4.40031 119.908 5.28648 115.029 4.88923V0.91673C118.19 1.22231 121.35 0.886173 124.357 0L129.174 2.41406Z" fill="#00AB26"/>
<path d="M47.6813 39.0527C47.5893 39.0527 47.5586 38.9916 47.5586 38.9V35.5692C47.5586 35.4775 47.5893 35.4164 47.6813 35.4164H47.9268C48.0188 35.4164 48.0495 35.4775 48.0495 35.5692V37.0054H48.1416C48.3257 37.0054 48.4791 36.9443 48.6018 36.8526C48.7245 36.7609 48.8166 36.6387 48.9086 36.4859L49.553 35.5386C49.5837 35.4775 49.645 35.4469 49.7064 35.4469H49.9825C50.0746 35.4469 50.1053 35.5081 50.0132 35.5997L49.2462 36.6998C49.1541 36.822 49.0621 36.9443 48.9393 37.0359C48.8166 37.1276 48.7552 37.1887 48.7245 37.1887C48.8166 37.2193 48.9086 37.2498 49.0007 37.311C49.0927 37.3721 49.2155 37.5249 49.3689 37.7388L50.0439 38.8388C50.1053 38.9611 50.1053 38.9916 50.0132 38.9916H49.7371C49.6757 38.9916 49.6143 38.9611 49.5837 38.9L49.0314 37.9832C48.9086 37.7999 48.7859 37.6471 48.6325 37.5249C48.4791 37.4026 48.3257 37.3415 48.1416 37.3415H47.9882V38.8388C47.9882 38.9305 47.9575 38.9916 47.8654 38.9916H47.6813V39.0527Z" fill="white"/>
<path d="M53.2048 39.0527C53.1127 39.0527 53.082 38.9916 53.082 38.9V35.5692C53.082 35.4775 53.1127 35.4164 53.2048 35.4164H54.2787C54.8616 35.4164 55.2298 35.5081 55.4446 35.6914C55.6594 35.8747 55.7514 36.1498 55.7514 36.4859C55.7514 36.822 55.6594 37.0971 55.4446 37.2804C55.2298 37.4637 54.8616 37.5554 54.2787 37.5554H53.573V38.8694C53.573 38.9611 53.5423 39.0222 53.4502 39.0222H53.2048V39.0527ZM53.573 37.1887H54.2787C54.6468 37.1887 54.8923 37.1276 55.0457 37.0359C55.1685 36.9443 55.2605 36.7609 55.2605 36.5165C55.2605 36.272 55.1991 36.1192 55.0457 35.997C54.923 35.9053 54.6468 35.8442 54.2787 35.8442H53.573V37.1887Z" fill="white"/>
<path d="M58.9411 39.0527C58.849 39.0527 58.8184 38.9916 58.8184 38.9V35.5692C58.8184 35.4775 58.849 35.4164 58.9411 35.4164H61.1503C61.2423 35.4164 61.3037 35.4469 61.3037 35.5386V35.722C61.3037 35.7831 61.2423 35.8442 61.1503 35.8442H59.3093V36.9748H60.9968C61.0889 36.9748 61.1503 37.0054 61.1503 37.0971V37.2804C61.1503 37.3415 61.0889 37.4026 60.9968 37.4026H59.3093V38.6555H61.2423C61.3344 38.6555 61.3957 38.6861 61.3957 38.7777V38.9611C61.3957 39.0222 61.3344 39.0833 61.2423 39.0833H58.9411V39.0527Z" fill="white"/>
<path d="M64.2502 40C64.1889 40 64.1582 39.9694 64.1582 39.8777V38.8082C64.1582 38.7165 64.1889 38.6554 64.2809 38.6554H64.4957C64.7719 38.3193 64.956 37.922 64.9866 37.5248C65.0173 37.097 65.048 36.6997 65.048 36.3025V35.6302C65.048 35.5385 65.0787 35.4774 65.1707 35.4774H67.1037C67.1958 35.4774 67.2265 35.5385 67.2265 35.6302V38.686H67.564C67.656 38.686 67.6867 38.7471 67.6867 38.8388V39.9083C67.6867 40 67.656 40.0305 67.5947 40.0305H67.3799C67.3185 40.0305 67.2878 40 67.2878 39.9083V39.1138H64.5878V39.9083C64.5878 40 64.5571 40.0305 64.4957 40.0305H64.2502V40ZM64.9866 38.6554H66.7662V35.8747H65.4776V36.4247C65.4776 37.1886 65.4162 37.7387 65.3241 38.0443C65.2014 38.3498 65.0787 38.5637 64.9866 38.6554Z" fill="white"/>
<path d="M70.8161 39.0527C70.724 39.0527 70.6934 38.9916 70.6934 38.9V35.5692C70.6934 35.4775 70.724 35.4164 70.8161 35.4164H71.0616C71.1536 35.4164 71.1843 35.4775 71.1843 35.5692V38.1971C71.1843 38.2582 71.1843 38.3194 71.1843 38.411L72.8105 35.5692C72.8718 35.4775 72.9332 35.4469 73.0559 35.4469H73.3628C73.4548 35.4469 73.4855 35.5081 73.4855 35.5997V38.9305C73.4855 39.0222 73.4548 39.0833 73.3628 39.0833H73.1173C73.0253 39.0833 72.9946 39.0222 72.9946 38.9305V36.3026C72.9946 36.2414 72.9946 36.1803 72.9946 36.0886L71.3684 38.9305C71.307 39.0222 71.2457 39.0527 71.1229 39.0527H70.8161Z" fill="white"/>
<path d="M76.5851 35.8747C76.493 35.8747 76.4316 35.8442 76.4316 35.7525V35.5386C76.4316 35.4775 76.493 35.4164 76.5851 35.4164H79.3465C79.4386 35.4164 79.4999 35.4469 79.4999 35.5386V35.7525C79.4999 35.8136 79.4386 35.8747 79.3465 35.8747H78.2112V38.9C78.2112 38.9916 78.1806 39.0527 78.0885 39.0527H77.843C77.751 39.0527 77.7203 38.9916 77.7203 38.9V35.8747H76.5851Z" fill="white"/>
<path d="M82.5368 39.0527C82.4447 39.0527 82.4141 38.9916 82.4141 38.9V35.5692C82.4141 35.4775 82.4447 35.4164 82.5368 35.4164H82.7822C82.8743 35.4164 82.905 35.4775 82.905 35.5692V38.1971C82.905 38.2582 82.905 38.3194 82.905 38.411L84.5312 35.5692C84.5925 35.4775 84.6539 35.4469 84.7766 35.4469H85.0835C85.1755 35.4469 85.2062 35.5081 85.2062 35.5997V38.9305C85.2062 39.0222 85.1755 39.0833 85.0835 39.0833H84.838C84.7459 39.0833 84.7153 39.0222 84.7153 38.9305V36.3026C84.7153 36.2414 84.7153 36.1803 84.7153 36.0886L83.0891 38.9305C83.0277 39.0222 82.9663 39.0527 82.8436 39.0527H82.5368Z" fill="white"/>
<path d="M93.7966 39.0527C93.7045 39.0527 93.6738 38.9916 93.6738 38.9V35.5692C93.6738 35.4775 93.7045 35.4164 93.7966 35.4164H94.042C94.1341 35.4164 94.1648 35.4775 94.1648 35.5692V36.9443H95.9444V35.5692C95.9444 35.4775 95.975 35.4164 96.0671 35.4164H96.3126C96.4046 35.4164 96.4353 35.4775 96.4353 35.5692V38.9C96.4353 38.9916 96.4046 39.0527 96.3126 39.0527H96.0671C95.975 39.0527 95.9444 38.9916 95.9444 38.9V37.3721H94.1648V38.9C94.1648 38.9916 94.1341 39.0527 94.042 39.0527H93.7966Z" fill="white"/>
<path d="M99.443 39.0527C99.351 39.0527 99.3509 38.9916 99.3816 38.8999L100.64 35.5997C100.67 35.508 100.732 35.4469 100.793 35.4469H101.161C101.223 35.4469 101.284 35.508 101.315 35.5997L102.573 38.8999C102.603 39.0222 102.603 39.0527 102.511 39.0527H102.296C102.204 39.0527 102.174 39.0221 102.143 38.9305L101.836 38.1054H100.149L99.8419 38.9305C99.8112 39.0221 99.7498 39.0527 99.6885 39.0527H99.443ZM100.302 37.7082H101.652L101.253 36.6998C101.223 36.6081 101.161 36.5164 101.131 36.3942C101.1 36.272 101.038 36.1192 100.977 35.9053C100.916 36.1192 100.854 36.272 100.824 36.3942C100.793 36.5164 100.732 36.6081 100.701 36.6998L100.302 37.7082Z" fill="white"/>
<path d="M110.857 39.0527C110.765 39.0527 110.734 38.9916 110.734 38.9V35.5692C110.734 35.4775 110.765 35.4164 110.857 35.4164H113.036C113.128 35.4164 113.189 35.4469 113.189 35.5386V35.722C113.189 35.7831 113.128 35.8442 113.036 35.8442H111.225V36.9443H111.992C112.575 36.9443 112.944 37.0359 113.158 37.2193C113.373 37.4026 113.465 37.6777 113.465 37.9832C113.465 38.2888 113.373 38.5638 113.158 38.7472C112.944 38.9305 112.545 39.0222 111.992 39.0222H110.857V39.0527ZM111.195 38.6555H111.87C112.238 38.6555 112.483 38.5944 112.667 38.5027C112.821 38.411 112.913 38.2277 112.913 38.0138C112.913 37.7999 112.821 37.6165 112.667 37.5249C112.483 37.4332 112.238 37.3721 111.87 37.3721H111.195V38.6555Z" fill="white"/>
<path d="M116.656 39.0527C116.564 39.0527 116.533 38.9916 116.533 38.9V35.5692C116.533 35.4775 116.564 35.4164 116.656 35.4164H116.901C116.993 35.4164 117.024 35.4775 117.024 35.5692V38.9C117.024 38.9916 116.993 39.0527 116.901 39.0527H116.656Z" fill="white"/>
<path d="M120.185 38.6861C120.124 38.5944 120.093 38.5333 120.155 38.5027L120.339 38.3194C120.4 38.2582 120.461 38.2888 120.553 38.3499C120.553 38.3805 120.645 38.4416 120.799 38.5638C120.952 38.6861 121.167 38.7472 121.413 38.7472C121.689 38.7472 121.934 38.6861 122.088 38.5944C122.241 38.5027 122.333 38.2888 122.333 38.0138C122.333 37.7999 122.272 37.6165 122.118 37.5249C121.965 37.4332 121.781 37.3721 121.566 37.3721H121.106C121.014 37.3721 120.952 37.3415 120.952 37.2498V37.0665C120.952 37.0054 121.014 36.9443 121.106 36.9443H121.443C121.719 36.9443 121.903 36.8831 122.057 36.7609C122.18 36.6387 122.241 36.4859 122.241 36.3026C122.241 36.1192 122.18 35.9664 122.026 35.8747C121.903 35.7831 121.689 35.7525 121.443 35.7525C121.259 35.7525 121.106 35.7831 120.952 35.8442C120.799 35.9053 120.676 35.997 120.615 36.0581C120.553 36.1498 120.492 36.1498 120.431 36.0886L120.277 35.9053C120.216 35.8442 120.247 35.7831 120.339 35.6914C120.492 35.5692 120.645 35.4775 120.86 35.4164C121.075 35.3553 121.259 35.3247 121.474 35.3247C121.934 35.3247 122.272 35.4164 122.456 35.5997C122.64 35.7831 122.732 35.997 122.732 36.272C122.732 36.4859 122.671 36.6692 122.548 36.7915C122.425 36.9443 122.241 37.0359 122.057 37.0971C122.272 37.1276 122.456 37.1887 122.64 37.3415C122.793 37.4943 122.885 37.7082 122.885 38.0138C122.885 38.3499 122.763 38.6249 122.517 38.8083C122.272 38.9916 121.903 39.0833 121.443 39.0833C121.136 39.0833 120.86 39.0222 120.676 38.9305C120.4 38.8694 120.277 38.7777 120.185 38.6861Z" fill="white"/>
<path d="M126.076 39.0527C125.984 39.0527 125.953 38.9916 125.953 38.9V35.5692C125.953 35.4775 125.984 35.4164 126.076 35.4164H126.321C126.413 35.4164 126.444 35.4775 126.444 35.5692V36.9443H128.224V35.5692C128.224 35.4775 128.254 35.4164 128.346 35.4164H128.592C128.684 35.4164 128.715 35.4775 128.715 35.5692V38.9C128.715 38.9916 128.684 39.0527 128.592 39.0527H128.346C128.254 39.0527 128.224 38.9916 128.224 38.9V37.3721H126.444V38.9C126.444 38.9916 126.413 39.0527 126.321 39.0527H126.076Z" fill="white"/>
<path d="M132.09 39.0527C131.997 39.0527 131.967 38.9916 131.967 38.9V35.5692C131.967 35.4775 131.997 35.4164 132.09 35.4164H134.299C134.391 35.4164 134.452 35.4469 134.452 35.5386V35.722C134.452 35.7831 134.391 35.8442 134.299 35.8442H132.458V36.9748H134.145C134.237 36.9748 134.299 37.0054 134.299 37.0971V37.2804C134.299 37.3415 134.237 37.4026 134.145 37.4026H132.458V38.6555H134.391C134.483 38.6555 134.544 38.6861 134.544 38.7777V38.9611C134.544 39.0222 134.483 39.0833 134.391 39.0833H132.09V39.0527Z" fill="white"/>
<path d="M137.398 37.2498C137.398 36.6692 137.552 36.2108 137.828 35.8747C138.135 35.5385 138.534 35.3857 139.086 35.3857C139.393 35.3857 139.669 35.4469 139.884 35.5385C140.099 35.6608 140.252 35.783 140.344 35.9969C140.405 36.0886 140.375 36.1497 140.313 36.2108L140.099 36.333C140.037 36.3636 139.976 36.333 139.914 36.2414C139.853 36.1497 139.761 36.0275 139.638 35.9358C139.516 35.8441 139.331 35.783 139.086 35.783C138.656 35.783 138.35 35.9052 138.166 36.1802C137.981 36.4553 137.889 36.822 137.889 37.2803C137.889 37.7387 137.981 38.1054 138.166 38.3804C138.35 38.6554 138.656 38.7776 139.086 38.7776C139.331 38.7776 139.516 38.7165 139.669 38.6249C139.822 38.5026 139.914 38.411 139.976 38.2887C140.037 38.1971 140.099 38.1665 140.16 38.1971L140.375 38.3193C140.436 38.3498 140.436 38.411 140.405 38.5332C140.313 38.7165 140.129 38.8999 139.914 39.0221C139.7 39.1443 139.393 39.2055 139.055 39.2055C138.503 39.2055 138.073 39.0527 137.797 38.7165C137.552 38.3193 137.398 37.8609 137.398 37.2498Z" fill="white"/>
</g>
<defs>
<clipPath id="clip0">
<rect width="142" height="40" fill="white"/>
</clipPath>
</defs>
</svg>
