<?xml version="1.0" encoding="UTF-8"?>
<!DOCTYPE svg PUBLIC "-//W3C//DTD SVG 1.1//EN" "http://www.w3.org/Graphics/SVG/1.1/DTD/svg11.dtd">
<svg xmlns="http://www.w3.org/2000/svg" version="1.1" width="600px" height="300px" style="shape-rendering:geometricPrecision; text-rendering:geometricPrecision; image-rendering:optimizeQuality; fill-rule:evenodd; clip-rule:evenodd" xmlns:xlink="http://www.w3.org/1999/xlink">
<g><path style="opacity:0.991" fill="#fdfdfd" d="M 281.5,-0.5 C 293.5,-0.5 305.5,-0.5 317.5,-0.5C 376.77,9.26184 417.936,41.9285 441,97.5C 461.214,162.818 446.381,218.651 396.5,265C 373.279,283.61 346.946,295.11 317.5,299.5C 305.5,299.5 293.5,299.5 281.5,299.5C 222.23,289.738 181.064,257.071 158,201.5C 137.786,136.182 152.619,80.3487 202.5,34C 225.721,15.3901 252.054,3.89015 281.5,-0.5 Z"/></g>
<g><path style="opacity:1" fill="#ff9f0f" d="M 288.5,12.5 C 321.762,10.7568 352.096,19.2568 379.5,38C 382.458,42.0344 381.458,44.0344 376.5,44C 337.629,17.448 295.962,12.1147 251.5,28C 193.184,55.4197 165.684,101.586 169,166.5C 164.453,168.303 162.453,166.637 163,161.5C 160.628,99.3926 186.794,53.8926 241.5,25C 256.636,18.4786 272.302,14.312 288.5,12.5 Z"/></g>
<g><path style="opacity:1" fill="#ff365c" d="M 239.5,50.5 C 243.138,49.7366 244.638,51.0699 244,54.5C 236.883,59.2825 230.05,64.4492 223.5,70C 220.333,70.8333 219.167,69.6667 220,66.5C 226.108,60.5464 232.608,55.2131 239.5,50.5 Z"/></g>
<g><path style="opacity:1" fill="#1b8eef" d="M 395.5,54.5 C 399.302,55.7786 402.469,58.1119 405,61.5C 437.727,103.654 445.061,149.987 427,200.5C 405.249,250.147 367.416,278.647 313.5,286C 264.622,289.636 224.455,272.803 193,235.5C 181.215,220.599 173.215,203.932 169,185.5C 170.814,184.24 172.647,184.24 174.5,185.5C 191.153,234.989 224.819,265.822 275.5,278C 323.643,285.287 364.476,271.453 398,236.5C 430.532,196.345 438.532,151.679 422,102.5C 415.791,86.6402 406.791,72.6402 395,60.5C 394.322,58.4024 394.489,56.4024 395.5,54.5 Z"/></g>
<g><path style="opacity:1" fill="#1f1f1f" d="M 203.5,111.5 C 209.176,111.334 214.843,111.501 220.5,112C 227.774,113.717 230.607,118.217 229,125.5C 227.755,129.742 224.922,132.242 220.5,133C 216.848,133.499 213.182,133.665 209.5,133.5C 209.5,136.5 209.5,139.5 209.5,142.5C 207.5,142.5 205.5,142.5 203.5,142.5C 203.5,132.167 203.5,121.833 203.5,111.5 Z"/></g>
<g><path style="opacity:1" fill="#1d1d1d" d="M 235.5,111.5 C 241.176,111.334 246.843,111.501 252.5,112C 260.087,114.003 262.92,118.836 261,126.5C 259.518,128.98 257.685,131.147 255.5,133C 257.494,135.983 259.494,138.983 261.5,142C 256.22,142.27 252.554,139.77 250.5,134.5C 247.572,133.516 244.572,133.183 241.5,133.5C 241.5,136.5 241.5,139.5 241.5,142.5C 239.5,142.5 237.5,142.5 235.5,142.5C 235.5,132.167 235.5,121.833 235.5,111.5 Z"/></g>
<g><path style="opacity:1" fill="#1b1b1b" d="M 277.5,111.5 C 296.299,110.452 302.799,118.785 297,136.5C 291.331,142.212 284.497,144.045 276.5,142C 267.823,137.81 264.657,130.976 267,121.5C 269.106,116.557 272.606,113.224 277.5,111.5 Z"/></g>
<g><path style="opacity:1" fill="#191919" d="M 310.5,111.5 C 314.846,111.334 319.179,111.501 323.5,112C 326.922,113.406 327.255,115.239 324.5,117.5C 320.701,115.578 316.701,115.078 312.5,116C 309.141,118.034 308.808,120.368 311.5,123C 315.776,124.486 320.109,125.819 324.5,127C 330.148,132.784 329.481,137.784 322.5,142C 317.833,142.667 313.167,142.667 308.5,142C 304.511,140.951 303.678,138.784 306,135.5C 310.441,138.331 315.274,139.164 320.5,138C 324.808,134.241 324.141,131.575 318.5,130C 314.006,129.337 309.839,127.837 306,125.5C 302.973,119.263 304.473,114.596 310.5,111.5 Z"/></g>
<g><path style="opacity:1" fill="#222222" d="M 330.5,111.5 C 339.167,111.5 347.833,111.5 356.5,111.5C 356.5,113.167 356.5,114.833 356.5,116.5C 353.167,116.5 349.833,116.5 346.5,116.5C 346.5,125.167 346.5,133.833 346.5,142.5C 344.5,142.5 342.5,142.5 340.5,142.5C 340.5,133.833 340.5,125.167 340.5,116.5C 337.167,116.5 333.833,116.5 330.5,116.5C 330.5,114.833 330.5,113.167 330.5,111.5 Z"/></g>
<g><path style="opacity:1" fill="#1d1d1d" d="M 369.5,111.5 C 386.492,109.654 393.658,116.988 391,133.5C 387.783,139.697 382.616,142.697 375.5,142.5C 362.719,141.97 357.219,135.303 359,122.5C 361.357,117.645 364.857,113.979 369.5,111.5 Z"/></g>
<g><path style="opacity:1" fill="#f2f2f2" d="M 208.5,116.5 C 212.514,116.334 216.514,116.501 220.5,117C 222.954,117.943 223.954,119.776 223.5,122.5C 223.674,124.693 223.007,126.527 221.5,128C 217.179,128.499 212.846,128.666 208.5,128.5C 208.5,124.5 208.5,120.5 208.5,116.5 Z"/></g>
<g><path style="opacity:1" fill="#f2f2f2" d="M 241.5,116.5 C 245.514,116.334 249.514,116.501 253.5,117C 257.5,120.667 257.5,124.333 253.5,128C 249.605,129.266 245.605,129.766 241.5,129.5C 241.5,125.167 241.5,120.833 241.5,116.5 Z"/></g>
<g><path style="opacity:1" fill="#f5f5f5" d="M 279.5,115.5 C 292.694,115.888 296.861,122.221 292,134.5C 283.267,141.016 276.6,139.349 272,129.5C 271.416,126.743 271.75,124.077 273,121.5C 275.063,119.266 277.229,117.266 279.5,115.5 Z"/></g>
<g><path style="opacity:1" fill="#f6f6f6" d="M 372.5,115.5 C 384.725,115.893 388.892,121.893 385,133.5C 377.532,140.65 370.866,139.983 365,131.5C 362.965,123.907 365.465,118.573 372.5,115.5 Z"/></g>
<g><path style="opacity:1" fill="#1a1a1a" d="M 222.5,166.5 C 226.514,166.334 230.514,166.501 234.5,167C 240.495,168.504 241.329,171.004 237,174.5C 229.631,168.561 223.298,169.561 218,177.5C 216.319,188.818 221.152,193.984 232.5,193C 234.286,192.215 235.786,191.049 237,189.5C 241.329,192.996 240.495,195.496 234.5,197C 215.774,199.283 208.94,191.449 214,173.5C 216.441,170.546 219.275,168.213 222.5,166.5 Z"/></g>
<g><path style="opacity:1" fill="#202020" d="M 246.5,166.5 C 252.509,166.334 258.509,166.501 264.5,167C 271.358,169.549 273.858,174.383 272,181.5C 270.691,183.976 268.858,185.976 266.5,187.5C 268.375,190.751 270.375,193.918 272.5,197C 270.5,197.667 268.5,197.667 266.5,197C 265.205,194.242 263.539,191.742 261.5,189.5C 258.572,188.516 255.572,188.183 252.5,188.5C 252.5,191.5 252.5,194.5 252.5,197.5C 250.5,197.5 248.5,197.5 246.5,197.5C 246.5,187.167 246.5,176.833 246.5,166.5 Z"/></g>
<g><path style="opacity:1" fill="#1e1e1e" d="M 285.5,192.5 C 290.975,193.489 296.642,193.822 302.5,193.5C 302.5,194.833 302.5,196.167 302.5,197.5C 294.833,197.5 287.167,197.5 279.5,197.5C 279.5,187.167 279.5,176.833 279.5,166.5C 287.167,166.5 294.833,166.5 302.5,166.5C 302.5,167.833 302.5,169.167 302.5,170.5C 296.833,170.5 291.167,170.5 285.5,170.5C 285.5,173.5 285.5,176.5 285.5,179.5C 290.5,179.5 295.5,179.5 300.5,179.5C 300.5,181.167 300.5,182.833 300.5,184.5C 295.5,184.5 290.5,184.5 285.5,184.5C 285.5,187.167 285.5,189.833 285.5,192.5 Z"/></g>
<g><path style="opacity:1" fill="#1e1e1e" d="M 309.5,166.5 C 316.906,166.152 324.239,166.652 331.5,168C 340.703,173.399 342.87,180.899 338,190.5C 335.659,193.835 332.493,196.002 328.5,197C 322.175,197.5 315.842,197.666 309.5,197.5C 309.5,187.167 309.5,176.833 309.5,166.5 Z"/></g>
<g><path style="opacity:1" fill="#262626" d="M 346.5,166.5 C 348.5,166.5 350.5,166.5 352.5,166.5C 352.5,176.833 352.5,187.167 352.5,197.5C 350.5,197.5 348.5,197.5 346.5,197.5C 346.5,187.167 346.5,176.833 346.5,166.5 Z"/></g>
<g><path style="opacity:1" fill="#1e1e1e" d="M 357.5,166.5 C 366.167,166.5 374.833,166.5 383.5,166.5C 383.5,167.833 383.5,169.167 383.5,170.5C 380.167,170.5 376.833,170.5 373.5,170.5C 373.5,179.5 373.5,188.5 373.5,197.5C 371.5,197.5 369.5,197.5 367.5,197.5C 367.5,188.833 367.5,180.167 367.5,171.5C 364.375,170.521 361.042,170.187 357.5,170.5C 357.5,169.167 357.5,167.833 357.5,166.5 Z"/></g>
<g><path style="opacity:1" fill="#8d8d8d" d="M 357.5,166.5 C 357.5,167.833 357.5,169.167 357.5,170.5C 361.042,170.187 364.375,170.521 367.5,171.5C 363.833,171.5 360.167,171.5 356.5,171.5C 356.216,169.585 356.549,167.919 357.5,166.5 Z"/></g>
<g><path style="opacity:1" fill="#f6f6f6" d="M 252.5,171.5 C 256.514,171.334 260.514,171.501 264.5,172C 268.5,175.667 268.5,179.333 264.5,183C 260.514,183.499 256.514,183.666 252.5,183.5C 252.5,179.5 252.5,175.5 252.5,171.5 Z"/></g>
<g><path style="opacity:1" fill="#f8f8f8" d="M 315.5,171.5 C 320.628,171.112 325.628,171.612 330.5,173C 335.833,179 335.833,185 330.5,191C 325.742,193.144 320.742,193.977 315.5,193.5C 315.5,186.167 315.5,178.833 315.5,171.5 Z"/></g>
<g><path style="opacity:1" fill="#a4a4a4" d="M 285.5,192.5 C 291.5,192.5 297.5,192.5 303.5,192.5C 303.784,194.415 303.451,196.081 302.5,197.5C 302.5,196.167 302.5,194.833 302.5,193.5C 296.642,193.822 290.975,193.489 285.5,192.5 Z"/></g>
<g><path style="opacity:1" fill="#29cdf0" d="M 381.5,222.5 C 385.071,222.408 386.238,224.074 385,227.5C 368.471,245.925 348.137,256.925 324,260.5C 323.289,258.633 323.789,257.133 325.5,256C 347.819,250.684 366.486,239.518 381.5,222.5 Z"/></g>
</svg>
