<svg width="599" height="142" viewBox="0 0 599 142" fill="none" xmlns="http://www.w3.org/2000/svg">
<g clip-path="url(#clip0_1516_5281)">
<path d="M22.8818 0H17.7304V141.579H22.8818V0Z" fill="#19FF19"/>
<path d="M79.667 73.828C79.667 79.8449 80.3259 84.3576 81.7036 87.3661C83.0813 90.3746 85.1179 92.7212 87.8733 94.3458C90.6287 96.0305 94.043 96.8729 98.1761 96.8729C102.249 96.8729 105.664 96.0305 108.419 94.3458C111.114 92.661 113.151 90.3746 114.529 87.4263C115.906 84.478 116.565 80.0856 116.565 74.2492V53.4907H111.055V73.2263C111.055 78.5212 110.755 81.9508 110.216 83.6356C109.437 86.0424 107.94 87.9678 105.843 89.4119C103.747 90.8559 101.171 91.6381 98.1761 91.6381C95.1811 91.6381 92.5455 90.9161 90.3891 89.4119C88.2327 87.9076 86.7352 85.8619 85.9565 83.2746C85.4174 81.4695 85.1778 78.1602 85.1778 73.3466V53.4907H79.7868V73.828H79.667ZM164.306 111.253H169.697V88.5093C171.973 91.2771 174.489 93.383 177.304 94.7669C180.119 96.1508 183.174 96.8729 186.529 96.8729C192.459 96.8729 197.55 94.7068 201.803 90.3746C205.996 86.0424 208.152 80.7475 208.152 74.55C208.152 68.4729 206.056 63.2381 201.743 58.9059C197.49 54.5737 192.399 52.4076 186.409 52.4076C182.994 52.4076 179.88 53.1297 177.064 54.6339C174.309 56.1381 171.793 58.3042 169.697 61.2525V53.4907H164.306V111.253ZM194.316 59.8686C196.891 61.3729 198.868 63.4788 200.425 66.1263C201.923 68.8339 202.702 71.6619 202.702 74.6703C202.702 77.6788 201.923 80.5068 200.425 83.2144C198.928 85.922 196.891 88.028 194.316 89.5924C191.74 91.0966 189.044 91.8788 186.109 91.8788C183.174 91.8788 180.359 91.0966 177.663 89.6525C175.028 88.1483 172.931 86.1025 171.554 83.5754C170.116 80.9881 169.397 78.1 169.397 74.911C169.397 70.0373 171.014 65.9458 174.189 62.6364C177.364 59.3271 181.317 57.7025 186.049 57.7025C188.984 57.6424 191.74 58.3644 194.316 59.8686ZM284.765 87.7271C283.327 88.9907 281.59 89.9534 279.613 90.7356C277.577 91.4576 275.48 91.8788 273.384 91.8788C268.951 91.8788 265.177 90.3144 262.182 87.1856C259.187 84.0568 257.57 80.0254 257.51 75.0915H295.427C295.367 69.3153 293.809 64.5017 290.755 60.6508C286.442 55.1754 280.751 52.4678 273.563 52.4678C266.615 52.4678 261.044 55.1153 256.851 60.4703C253.557 64.6822 251.939 69.4356 251.939 74.7907C251.939 80.5068 253.856 85.6212 257.75 90.1339C261.643 94.6466 266.974 96.9331 273.863 96.9331C276.978 96.9331 279.733 96.4517 282.189 95.489C284.645 94.5263 286.861 93.1424 288.838 91.3373C290.814 89.5322 292.552 87.1254 294.049 84.1771L289.497 81.7703C287.76 84.478 286.202 86.5237 284.765 87.7271ZM257.989 70.3381C259.127 66.4271 260.745 63.539 262.901 61.6136C265.896 58.9661 269.43 57.5822 273.563 57.5822C276.079 57.5822 278.475 58.1237 280.751 59.1466C283.027 60.2297 284.824 61.6136 286.262 63.3585C287.64 65.1034 288.718 67.3898 289.437 70.3381H257.989ZM339.094 95.7898H344.605V81.4695C344.605 74.1288 344.964 69.2551 345.623 66.8483C346.521 63.7195 347.779 61.3729 349.457 59.9288C351.134 58.4246 352.871 57.7025 354.668 57.7025C355.447 57.7025 356.405 57.9432 357.543 58.4246L360.358 53.8517C358.681 52.889 357.064 52.4076 355.566 52.4076C353.59 52.4076 351.673 53.0093 349.816 54.2127C347.959 55.4161 346.222 57.2212 344.605 59.6881V53.4907H339.094V95.7898Z" fill="#606060"/>
<path d="M38.6355 80.5068C38.6355 77.0771 37.5573 73.8881 35.4608 71.0602C33.9633 69.0144 30.3094 66.4271 24.559 63.2381V69.3152C27.6139 71.1203 29.7703 72.8051 31.0282 74.4297C32.4658 76.2949 33.1846 78.4008 33.1846 80.6271C33.1846 82.9136 32.2262 84.9593 30.3693 86.8246C28.8718 88.3288 26.8951 89.3517 24.559 89.8932V95.5491C26.7753 95.1881 28.5723 94.6466 30.0099 93.9246C32.6455 92.6008 34.742 90.7356 36.2994 88.389C37.8568 85.9822 38.6355 83.3347 38.6355 80.5068ZM30.3693 48.4966L34.5024 45.1271C32.8851 42.7805 31.148 41.0356 29.351 39.8322C27.9733 38.9297 26.356 38.2678 24.559 37.7864V43.4424C26.7753 44.4051 28.752 46.0297 30.3693 48.4966ZM16.0532 37.3652C13.7171 37.7864 11.6805 38.4483 10.0632 39.4712C8.0865 40.7347 6.4692 42.3593 5.3311 44.3449C4.193 46.3305 3.594 48.4966 3.594 50.8432C3.594 53.25 4.1331 55.3559 5.2113 57.2212C6.2895 59.0864 7.9068 60.711 10.1231 62.2153C11.0216 62.8169 13.0582 63.9 16.1131 65.4042V59.3873C13.8369 58.1839 12.0998 56.8602 10.9617 55.4763C9.8835 54.1525 9.3444 52.5881 9.3444 50.7229C9.3444 49.2788 9.7038 47.9551 10.3627 46.7517C11.0216 45.5483 11.98 44.5856 13.178 43.8636C13.9567 43.3822 14.975 43.0814 16.1131 42.8407V37.3652H16.0532ZM4.1331 82.372L0 85.561C1.198 87.5466 2.7554 89.3517 4.5524 90.8559C6.3494 92.3602 8.2662 93.5034 10.183 94.2856C11.7404 94.8873 13.7171 95.3085 16.0532 95.6093V90.1339C11.3211 89.2313 7.3677 86.6441 4.1331 82.372Z" fill="#606060"/>
<path d="M399.413 37.3653C398.515 38.2678 398.095 39.2907 398.095 40.5542C398.095 41.7576 398.515 42.8407 399.413 43.6831C400.312 44.5856 401.33 45.0068 402.528 45.0068C403.786 45.0068 404.804 44.5856 405.703 43.6831C406.601 42.7805 407.021 41.7576 407.021 40.5542C407.021 39.2907 406.601 38.2678 405.703 37.3653C404.804 36.4627 403.786 36.0415 402.528 36.0415C401.33 36.0415 400.312 36.4627 399.413 37.3653ZM399.833 95.7898H405.224V53.4907H399.833V95.7898ZM451.526 73.828C451.526 79.8449 452.185 84.3576 453.563 87.3661C454.941 90.3746 456.977 92.7212 459.733 94.3458C462.488 96.0305 465.902 96.8729 470.035 96.8729C474.109 96.8729 477.523 96.0305 480.278 94.3458C482.974 92.661 485.01 90.3746 486.388 87.4263C487.766 84.478 488.425 80.0856 488.425 74.2492V53.4907H482.794V73.2263C482.794 78.5212 482.494 81.9509 481.955 83.6356C481.177 86.0424 479.679 87.9678 477.583 89.4119C475.486 90.8559 472.911 91.6381 469.916 91.6381C466.921 91.6381 464.285 90.8559 462.129 89.4119C459.972 87.9076 458.475 85.8619 457.696 83.2746C457.157 81.4695 456.917 78.1602 456.917 73.3466V53.4907H451.526V73.828ZM536.045 95.7898H541.436V77.8593C541.436 72.5644 541.975 68.6534 542.993 66.0661C544.012 63.4788 545.629 61.4331 547.845 59.9288C550.002 58.4246 552.338 57.6424 554.854 57.6424C557.01 57.6424 558.867 58.1839 560.484 59.267C562.042 60.35 563.18 61.8542 563.779 63.6593C564.438 65.4644 564.737 68.9542 564.737 74.0686V95.7297H570.128V79.1831C570.128 73.1059 570.607 68.7737 571.626 66.1864C572.644 63.5992 574.201 61.4932 576.418 59.989C578.574 58.4246 580.97 57.6424 583.606 57.6424C585.762 57.6424 587.619 58.1839 589.176 59.2068C590.734 60.2297 591.812 61.6136 592.471 63.2983C593.13 64.9831 593.429 68.1119 593.429 72.6246V95.7297H598.94V72.6246C598.94 67.3297 598.401 63.3585 597.323 60.711C596.245 58.0636 594.567 56.0178 592.351 54.5136C590.135 53.0093 587.559 52.2873 584.624 52.2873C581.509 52.2873 578.574 53.1297 575.879 54.8746C573.183 56.6195 570.907 59.1466 569.11 62.4559C568.271 59.989 567.253 58.0636 566.115 56.7398C564.977 55.4161 563.479 54.3331 561.622 53.5508C559.765 52.7686 557.849 52.3475 555.812 52.3475C552.817 52.3475 549.882 53.1898 547.187 54.8144C545.21 56.078 543.233 58.0034 541.376 60.711V53.4907H535.985V95.7898H536.045Z" fill="#606060"/>
</g>
<defs>
<clipPath id="clip0_1516_5281">
<rect width="599" height="142" fill="white"/>
</clipPath>
</defs>
</svg>
