<?xml version="1.0" encoding="UTF-8"?>
<!DOCTYPE svg PUBLIC "-//W3C//DTD SVG 1.1//EN" "http://www.w3.org/Graphics/SVG/1.1/DTD/svg11.dtd">
<svg xmlns="http://www.w3.org/2000/svg" version="1.1" width="600px" height="158px" style="shape-rendering:geometricPrecision; text-rendering:geometricPrecision; image-rendering:optimizeQuality; fill-rule:evenodd; clip-rule:evenodd" xmlns:xlink="http://www.w3.org/1999/xlink">
<g><path style="opacity:1" fill="#89b537" d="M 223.5,102.5 C 234.11,99.6016 242.61,93.6016 249,84.5C 249.944,81.6529 249.444,79.1529 247.5,77C 242.833,76.3333 238.167,76.3333 233.5,77C 230.845,78.115 228.179,78.7816 225.5,79C 227.373,77.2962 229.04,75.4628 230.5,73.5C 236.531,69.1 243.365,66.7666 251,66.5C 257.324,67.299 263.491,68.4657 269.5,70C 276.542,63.4188 281.709,55.5855 285,46.5C 288.914,71.1719 280.414,90.3385 259.5,104C 244.232,111.394 228.566,112.394 212.5,107C 216.295,105.644 219.962,104.144 223.5,102.5 Z"/></g>
<g><path style="opacity:1" fill="#88b437" d="M 262.5,47.5 C 271.991,47.4927 275.824,52.1594 274,61.5C 270.746,66.2227 266.246,67.7227 260.5,66C 255.847,63.0579 254.347,58.8912 256,53.5C 257.436,50.5581 259.603,48.5581 262.5,47.5 Z"/></g>
<g><path style="opacity:1" fill="#88b537" d="M 552.5,55.5 C 561.008,55.8329 564.175,60.1662 562,68.5C 559.045,72.2765 555.212,73.4432 550.5,72C 545.465,68.9867 544.298,64.8201 547,59.5C 548.5,57.5313 550.333,56.198 552.5,55.5 Z M 557.5,60.5 C 555.167,60.5 552.833,60.5 550.5,60.5C 552.916,57.9659 555.25,57.9659 557.5,60.5 Z M 550.5,60.5 C 550.5,63.1667 550.5,65.8333 550.5,68.5C 547.833,65.8333 547.833,63.1667 550.5,60.5 Z M 557.5,60.5 C 560.679,62.4961 561.012,64.8294 558.5,67.5C 557.526,65.2573 557.192,62.924 557.5,60.5 Z M 550.5,68.5 C 551.5,68.5 552.5,68.5 553.5,68.5C 553.351,67.448 553.517,66.448 554,65.5C 554.5,67.3333 555.667,68.5 557.5,69C 555.003,70.7429 552.67,70.5763 550.5,68.5 Z"/></g>
<g><path style="opacity:1" fill="#88b437" d="M 62.5,56.5 C 66.7675,56.203 70.9341,56.5363 75,57.5C 75.4995,63.4908 75.6662,69.4908 75.5,75.5C 78.9705,76.1252 81.8038,75.1252 84,72.5C 85.4532,67.1802 87.2866,62.0136 89.5,57C 93.4862,56.5012 97.4862,56.3345 101.5,56.5C 101.096,62.4468 99.5965,68.1135 97,73.5C 95.0616,76.1059 92.5616,77.9392 89.5,79C 94.2083,80.3782 97.7083,83.2115 100,87.5C 101.167,91.6667 102.333,95.8333 103.5,100C 103.355,100.772 103.022,101.439 102.5,102C 98.8333,102.667 95.1667,102.667 91.5,102C 88.9879,97.1439 87.1545,91.9773 86,86.5C 83.2503,83.2475 79.917,82.2475 76,83.5C 75.6667,89.5 75.3333,95.5 75,101.5C 71,102.833 67,102.833 63,101.5C 62.5001,86.5037 62.3334,71.5037 62.5,56.5 Z"/></g>
<g><path style="opacity:1" fill="#88b438" d="M 109.5,56.5 C 113.5,56.5 117.5,56.5 121.5,56.5C 121.333,68.8378 121.5,81.1712 122,93.5C 126.192,95.239 130.692,96.0723 135.5,96C 137.62,97.5227 137.953,99.3561 136.5,101.5C 127.273,102.817 118.107,102.817 109,101.5C 108.184,86.4255 108.351,71.4255 109.5,56.5 Z"/></g>
<g><path style="opacity:1" fill="#88b437" d="M 132.5,56.5 C 144.505,56.3335 156.505,56.5001 168.5,57C 169.406,58.6995 169.739,60.5328 169.5,62.5C 165.5,62.5 161.5,62.5 157.5,62.5C 157.667,75.1711 157.5,87.8377 157,100.5C 156.5,101 156,101.5 155.5,102C 152.167,102.667 148.833,102.667 145.5,102C 144.677,89.5755 144.177,77.0755 144,64.5C 143.5,64 143,63.5 142.5,63C 139.5,62.6667 136.5,62.3333 133.5,62C 132.594,60.3005 132.261,58.4672 132.5,56.5 Z"/></g>
<g><path style="opacity:1" fill="#88b437" d="M 307.5,56.5 C 316.506,56.3336 325.506,56.5002 334.5,57C 340.754,59.8084 342.421,64.1417 339.5,70C 335.705,70.8372 332.039,70.5039 328.5,69C 328.194,60.3086 323.861,57.642 315.5,61C 314.874,61.7504 314.374,62.5838 314,63.5C 313.333,74.1667 313.333,84.8333 314,95.5C 317.257,98.4285 321.091,99.2618 325.5,98C 326,97.5 326.5,97 327,96.5C 327.256,93.443 327.756,90.443 328.5,87.5C 332.459,86.3401 336.459,86.1735 340.5,87C 342.423,92.5669 341.09,97.2336 336.5,101C 327.242,102.584 317.909,102.917 308.5,102C 303.664,100.181 300.831,96.6814 300,91.5C 299.333,83.5 299.333,75.5 300,67.5C 301.043,62.7207 303.543,59.054 307.5,56.5 Z"/></g>
<g><path style="opacity:1" fill="#88b537" d="M 347.5,56.5 C 358.838,56.3335 370.172,56.5001 381.5,57C 388.33,61.1614 390.164,66.9947 387,74.5C 385.127,76.7089 382.96,78.5422 380.5,80C 382.624,81.1217 384.457,82.6217 386,84.5C 386.965,89.4925 387.798,94.4925 388.5,99.5C 388.023,100.478 387.357,101.311 386.5,102C 383.167,102.667 379.833,102.667 376.5,102C 376,101.5 375.5,101 375,100.5C 374.324,95.0748 373.324,89.7414 372,84.5C 368.452,82.4677 364.786,82.1343 361,83.5C 360.912,89.6098 360.245,95.6098 359,101.5C 355,102.833 351,102.833 347,101.5C 346.184,86.4255 346.351,71.4255 347.5,56.5 Z M 361.5,62.5 C 365.308,62.1632 368.974,62.6632 372.5,64C 375.167,67.6667 375.167,71.3333 372.5,75C 368.514,75.4988 364.514,75.6655 360.5,75.5C 360.231,71.0685 360.564,66.7352 361.5,62.5 Z"/></g>
<g><path style="opacity:1" fill="#88b537" d="M 393.5,56.5 C 405.081,56.1789 416.581,56.5122 428,57.5C 428.72,59.1124 428.554,60.6124 427.5,62C 420.833,62.3333 414.167,62.6667 407.5,63C 406.536,67.0659 406.203,71.2325 406.5,75.5C 412.842,75.3338 419.175,75.5005 425.5,76C 428.473,77.2242 429.14,79.2242 427.5,82C 420.833,82.3333 414.167,82.6667 407.5,83C 406.536,87.0659 406.203,91.2325 406.5,95.5C 413.175,95.3337 419.842,95.5004 426.5,96C 428.698,97.67 429.032,99.67 427.5,102C 416.152,102.832 404.819,102.666 393.5,101.5C 392.168,86.4703 392.168,71.4703 393.5,56.5 Z"/></g>
<g><path style="opacity:1" fill="#88b437" d="M 434.5,56.5 C 443.839,56.3335 453.173,56.5002 462.5,57C 472.351,61.191 476.685,68.691 475.5,79.5C 476.237,90.5534 471.57,98.0534 461.5,102C 452.833,102.667 444.167,102.667 435.5,102C 435,101.5 434.5,101 434,100.5C 433.2,85.7887 433.367,71.122 434.5,56.5 Z M 449.5,59.5 C 455.706,58.1779 459.539,60.5112 461,66.5C 462.94,75.1623 462.94,83.829 461,92.5C 460.654,94.8477 459.487,96.6811 457.5,98C 454.24,98.7835 451.073,98.6168 448,97.5C 447.833,91.3333 447.667,85.1667 447.5,79C 447.54,72.2613 448.207,65.7613 449.5,59.5 Z"/></g>
<g><path style="opacity:1" fill="#89b437" d="M 481.5,56.5 C 485.767,56.203 489.934,56.5363 494,57.5C 494.667,71.8333 494.667,86.1667 494,100.5C 493.5,101 493,101.5 492.5,102C 489.167,102.667 485.833,102.667 482.5,102C 482,101.5 481.5,101 481,100.5C 480.185,85.7588 480.351,71.0921 481.5,56.5 Z"/></g>
<g><path style="opacity:1" fill="#88b537" d="M 499.5,56.5 C 511.505,56.3335 523.505,56.5001 535.5,57C 536.406,58.6995 536.739,60.5328 536.5,62.5C 532.167,62.5 527.833,62.5 523.5,62.5C 523.667,75.5043 523.5,88.5043 523,101.5C 519.591,102.622 516.091,102.789 512.5,102C 512,101.5 511.5,101 511,100.5C 510.667,88.1667 510.333,75.8333 510,63.5C 506.589,62.7069 503.089,62.2069 499.5,62C 498.248,60.1722 498.248,58.3388 499.5,56.5 Z"/></g>
<g><path style="opacity:1" fill="#f9c700" d="M 230.5,73.5 C 229.04,75.4628 227.373,77.2962 225.5,79C 228.179,78.7816 230.845,78.115 233.5,77C 238.167,76.3333 242.833,76.3333 247.5,77C 249.444,79.1529 249.944,81.6529 249,84.5C 242.61,93.6016 234.11,99.6016 223.5,102.5C 199.862,103.487 182.195,93.8203 170.5,73.5C 171.333,73.1667 172.167,72.8333 173,72.5C 187.203,76.8627 201.703,78.696 216.5,78C 221.288,76.7926 225.955,75.2926 230.5,73.5 Z"/></g>
</svg>
