<?xml version="1.0" encoding="UTF-8"?>
<!DOCTYPE svg PUBLIC "-//W3C//DTD SVG 1.1//EN" "http://www.w3.org/Graphics/SVG/1.1/DTD/svg11.dtd">
<svg xmlns="http://www.w3.org/2000/svg" version="1.1" width="3000px" height="1150px" style="shape-rendering:geometricPrecision; text-rendering:geometricPrecision; image-rendering:optimizeQuality; fill-rule:evenodd; clip-rule:evenodd" xmlns:xlink="http://www.w3.org/1999/xlink">
<g><path style="opacity:0.004" fill="#bb1507" d="M 230.5,129.5 C 308.188,131.31 385.854,133.81 463.5,137C 533.971,145.983 593.137,176.483 641,228.5C 687.943,286.904 706.943,353.57 698,428.5C 687.607,509.184 647.774,570.351 578.5,612C 541.772,633.798 502.106,646.798 459.5,651C 420.16,651.041 380.827,650.708 341.5,650C 341,650.5 340.5,651 340,651.5C 338.69,683.168 337.356,714.835 336,746.5C 333.402,793.763 308.569,819.263 261.5,823C 236.896,824.889 212.562,823.222 188.5,818C 162.159,812.318 144.659,796.818 136,771.5C 131.918,753.037 130.584,734.37 132,715.5C 138.884,549.162 145.884,382.828 153,216.5C 153.129,196.983 157.796,178.65 167,161.5C 176.397,147.041 189.564,137.874 206.5,134C 214.58,132.156 222.58,130.656 230.5,129.5 Z M 461.5,341.5 C 495.939,359.127 505.939,386.127 491.5,422.5C 480.854,437.172 466.521,446.338 448.5,450C 415.483,450.387 382.483,449.72 349.5,448C 348.667,447.167 347.833,446.333 347,445.5C 347.805,409.167 349.138,372.834 351,336.5C 351.5,336 352,335.5 352.5,335C 382.18,334.813 411.846,335.48 441.5,337C 448.325,337.873 454.992,339.373 461.5,341.5 Z"/></g>
<g><path style="opacity:0.02" fill="#d20069" d="M 296.5,133.5 C 286.721,135.415 276.721,135.915 266.5,135C 272.5,134.667 278.5,134.333 284.5,134C 273.163,133.53 261.829,133.697 250.5,134.5C 244.26,134.667 238.26,134 232.5,132.5C 253.84,131.414 275.173,131.747 296.5,133.5 Z"/></g>
<g><path style="opacity:0.936" fill="#ca0057" d="M 232.5,132.5 C 238.26,134 244.26,134.667 250.5,134.5C 261.829,133.697 273.163,133.53 284.5,134C 278.5,134.333 272.5,134.667 266.5,135C 276.721,135.915 286.721,135.415 296.5,133.5C 345.166,134.933 393.833,136.433 442.5,138C 471.051,138.208 498.718,143.208 525.5,153C 569.294,170.175 607.461,196.008 640,230.5C 691.999,295.615 708.832,370.448 690.5,455C 674.827,526.083 634.493,579.416 569.5,615C 543.098,628.607 516.098,638.607 488.5,645C 476.497,646.667 464.497,648.167 452.5,649.5C 451.391,648.71 450.058,648.21 448.5,648C 444,647.833 439.5,647.667 435,647.5C 428.586,647.289 422.419,647.955 416.5,649.5C 390.533,647.71 364.533,647.377 338.5,648.5C 336.599,679.448 335.099,710.448 334,741.5C 332.461,793.031 306.627,819.531 256.5,821C 245.167,821.667 233.833,821.667 222.5,821C 214.842,820.573 207.342,819.407 200,817.5C 196.728,818.434 193.728,817.767 191,815.5C 174.859,813.073 160.859,805.407 149,792.5C 143.971,785.274 140.137,777.441 137.5,769C 134.964,754.6 133.631,739.767 133.5,724.5C 134.163,726.042 134.83,727.709 135.5,729.5C 135.833,728.833 136.167,728.167 136.5,727.5C 135.402,720.197 135.235,712.864 136,705.5C 136.333,710.833 136.667,716.167 137,721.5C 137.167,718.167 137.333,714.833 137.5,711.5C 137.5,696.833 137.5,682.167 137.5,667.5C 137.667,664.167 137.833,660.833 138,657.5C 138.333,662.833 138.667,668.167 139,673.5C 139.5,663.494 139.333,653.494 138.5,643.5C 138.667,640.167 138.833,636.833 139,633.5C 139.333,638.833 139.667,644.167 140,649.5C 140.5,639.494 140.333,629.494 139.5,619.5C 139.667,616.167 139.833,612.833 140,609.5C 140.333,614.833 140.667,620.167 141,625.5C 141.5,615.494 141.333,605.494 140.5,595.5C 140.667,592.167 140.833,588.833 141,585.5C 141.333,590.833 141.667,596.167 142,601.5C 142.5,591.494 142.333,581.494 141.5,571.5C 141.667,568.167 141.833,564.833 142,561.5C 142.333,566.833 142.667,572.167 143,577.5C 143.5,567.494 143.333,557.494 142.5,547.5C 142.667,544.167 142.833,540.833 143,537.5C 143.333,542.833 143.667,548.167 144,553.5C 144.167,550.167 144.333,546.833 144.5,543.5C 143.667,533.506 143.5,523.506 144,513.5C 144.333,518.833 144.667,524.167 145,529.5C 145.5,519.494 145.333,509.494 144.5,499.5C 144.667,496.167 144.833,492.833 145,489.5C 145.333,494.833 145.667,500.167 146,505.5C 146.517,495.66 146.35,485.827 145.5,476C 145.667,472.833 145.833,469.667 146,466.5C 146.333,471.5 146.667,476.5 147,481.5C 147.517,471.66 147.35,461.827 146.5,452C 146.667,448.833 146.833,445.667 147,442.5C 147.333,447.833 147.667,453.167 148,458.5C 148.5,448.494 148.333,438.494 147.5,428.5C 147.667,425.167 147.833,421.833 148,418.5C 148.333,423.833 148.667,429.167 149,434.5C 149.5,424.494 149.333,414.494 148.5,404.5C 148.667,401.167 148.833,397.833 149,394.5C 149.333,399.833 149.667,405.167 150,410.5C 150.517,400.66 150.35,390.827 149.5,381C 149.667,377.833 149.833,374.667 150,371.5C 150.333,376.5 150.667,381.5 151,386.5C 151.517,376.66 151.35,366.827 150.5,357C 150.667,353.833 150.833,350.667 151,347.5C 151.333,352.833 151.667,358.167 152,363.5C 152.5,353.494 152.333,343.494 151.5,333.5C 151.667,330.167 151.833,326.833 152,323.5C 152.333,328.833 152.667,334.167 153,339.5C 153.517,329.66 153.35,319.827 152.5,310C 152.667,306.833 152.833,303.667 153,300.5C 153.333,305.5 153.667,310.5 154,315.5C 154.517,305.66 154.35,295.827 153.5,286C 153.667,282.833 153.833,279.667 154,276.5C 154.333,281.833 154.667,287.167 155,292.5C 155.5,282.494 155.333,272.494 154.5,262.5C 154.667,259.167 154.833,255.833 155,252.5C 155.333,257.833 155.667,263.167 156,268.5C 156.889,258.945 156.389,249.611 154.5,240.5C 154.523,223.744 155.69,207.078 158,190.5C 163.924,162.42 180.424,144.087 207.5,135.5C 208.086,135.709 208.586,136.043 209,136.5C 210.826,134.926 212.993,134.093 215.5,134C 221.161,133.367 226.828,132.867 232.5,132.5 Z M 461.5,341.5 C 495.939,359.127 505.939,386.127 491.5,422.5C 480.854,437.172 466.521,446.338 448.5,450C 415.483,450.387 382.483,449.72 349.5,448C 348.667,447.167 347.833,446.333 347,445.5C 347.805,409.167 349.138,372.834 351,336.5C 351.5,336 352,335.5 352.5,335C 382.18,334.813 411.846,335.48 441.5,337C 448.325,337.873 454.992,339.373 461.5,341.5 Z"/></g>
<g><path style="opacity:0.004" fill="#b61507" d="M 2328.5,645.5 C 2331.05,645.332 2331.72,644.332 2330.5,642.5C 2312.59,621.372 2309.76,598.372 2322,573.5C 2330.6,565.042 2340.77,562.542 2352.5,566C 2358.72,568.942 2365.05,571.609 2371.5,574C 2376.96,575.224 2381.96,574.391 2386.5,571.5C 2387.49,571.328 2388.16,571.662 2388.5,572.5C 2383.88,576.212 2378.55,577.378 2372.5,576C 2364.59,574.542 2357.26,571.709 2350.5,567.5C 2334.74,565.139 2323.9,571.472 2318,586.5C 2315.31,599.605 2316.48,612.272 2321.5,624.5C 2325.31,631.957 2329.97,638.791 2335.5,645C 2335.36,645.772 2335.02,646.439 2334.5,647C 2327.92,647.187 2321.42,647.687 2315,648.5C 2312.67,647.833 2310.33,647.167 2308,646.5C 2302.28,556.529 2296.94,466.529 2292,376.5C 2291.07,371.201 2290.4,365.867 2290,360.5C 2288.71,359.146 2288.54,357.812 2289.5,356.5C 2285.64,340.395 2277.97,326.562 2266.5,315C 2253.54,305.292 2238.87,300.458 2222.5,300.5C 2208.84,299.186 2195.17,299.186 2181.5,300.5C 2168.06,300.592 2155.4,302.926 2143.5,307.5C 2142.51,307.672 2141.84,307.338 2141.5,306.5C 2153.57,301.582 2166.24,298.749 2179.5,298C 2197.2,297.119 2214.86,297.453 2232.5,299C 2261.78,302.945 2280.61,319.112 2289,347.5C 2291.6,357.004 2293.26,366.671 2294,376.5C 2299.22,465.509 2304.55,554.509 2310,643.5C 2310.96,644.894 2312.29,645.561 2314,645.5C 2318.82,644.402 2323.66,644.402 2328.5,645.5 Z"/></g>
<g><path style="opacity:0.02" fill="#cb0069" d="M 154.5,240.5 C 156.389,249.611 156.889,258.945 156,268.5C 155.667,263.167 155.333,257.833 155,252.5C 154.833,255.833 154.667,259.167 154.5,262.5C 155.333,272.494 155.5,282.494 155,292.5C 154.667,287.167 154.333,281.833 154,276.5C 153.833,279.667 153.667,282.833 153.5,286C 154.35,295.827 154.517,305.66 154,315.5C 153.667,310.5 153.333,305.5 153,300.5C 152.833,303.667 152.667,306.833 152.5,310C 153.35,319.827 153.517,329.66 153,339.5C 152.667,334.167 152.333,328.833 152,323.5C 151.833,326.833 151.667,330.167 151.5,333.5C 152.333,343.494 152.5,353.494 152,363.5C 151.667,358.167 151.333,352.833 151,347.5C 150.833,350.667 150.667,353.833 150.5,357C 151.35,366.827 151.517,376.66 151,386.5C 150.667,381.5 150.333,376.5 150,371.5C 149.833,374.667 149.667,377.833 149.5,381C 150.35,390.827 150.517,400.66 150,410.5C 149.667,405.167 149.333,399.833 149,394.5C 148.833,397.833 148.667,401.167 148.5,404.5C 149.333,414.494 149.5,424.494 149,434.5C 148.667,429.167 148.333,423.833 148,418.5C 147.833,421.833 147.667,425.167 147.5,428.5C 148.333,438.494 148.5,448.494 148,458.5C 147.667,453.167 147.333,447.833 147,442.5C 146.833,445.667 146.667,448.833 146.5,452C 147.35,461.827 147.517,471.66 147,481.5C 146.667,476.5 146.333,471.5 146,466.5C 145.833,469.667 145.667,472.833 145.5,476C 146.35,485.827 146.517,495.66 146,505.5C 145.667,500.167 145.333,494.833 145,489.5C 144.833,492.833 144.667,496.167 144.5,499.5C 145.333,509.494 145.5,519.494 145,529.5C 144.667,524.167 144.333,518.833 144,513.5C 143.5,523.506 143.667,533.506 144.5,543.5C 144.333,546.833 144.167,550.167 144,553.5C 143.667,548.167 143.333,542.833 143,537.5C 142.833,540.833 142.667,544.167 142.5,547.5C 143.333,557.494 143.5,567.494 143,577.5C 142.667,572.167 142.333,566.833 142,561.5C 141.833,564.833 141.667,568.167 141.5,571.5C 142.333,581.494 142.5,591.494 142,601.5C 141.667,596.167 141.333,590.833 141,585.5C 140.833,588.833 140.667,592.167 140.5,595.5C 141.333,605.494 141.5,615.494 141,625.5C 140.667,620.167 140.333,614.833 140,609.5C 139.833,612.833 139.667,616.167 139.5,619.5C 140.333,629.494 140.5,639.494 140,649.5C 139.667,644.167 139.333,638.833 139,633.5C 138.833,636.833 138.667,640.167 138.5,643.5C 139.333,653.494 139.5,663.494 139,673.5C 138.667,668.167 138.333,662.833 138,657.5C 137.833,660.833 137.667,664.167 137.5,667.5C 137.5,682.167 137.5,696.833 137.5,711.5C 137.333,714.833 137.167,718.167 137,721.5C 136.667,716.167 136.333,710.833 136,705.5C 135.235,712.864 135.402,720.197 136.5,727.5C 136.167,728.167 135.833,728.833 135.5,729.5C 134.83,727.709 134.163,726.042 133.5,724.5C 140.444,563.171 147.444,401.837 154.5,240.5 Z"/></g>
<g><path style="opacity:0.02" fill="#d5ff67" d="M 2222.5,300.5 C 2216.07,302.025 2209.4,302.692 2202.5,302.5C 2195.27,302.667 2188.27,302.001 2181.5,300.5C 2195.17,299.186 2208.84,299.186 2222.5,300.5 Z"/></g>
<g><path style="opacity:0.004" fill="#ab1407" d="M 2141.5,306.5 C 2141.84,307.338 2142.51,307.672 2143.5,307.5C 2130.01,313.145 2119.01,321.979 2110.5,334C 2109.67,334.167 2108.83,334.333 2108,334.5C 2096.6,329.22 2085.1,324.053 2073.5,319C 2001.61,300.057 1937.94,315.224 1882.5,364.5C 1873.5,372.833 1864.83,381.5 1856.5,390.5C 1818.5,432.777 1797.17,482.443 1792.5,539.5C 1792.48,541.565 1792.15,543.565 1791.5,545.5C 1791.5,553.167 1791.5,560.833 1791.5,568.5C 1791.83,570.5 1792.17,572.5 1792.5,574.5C 1798.31,646.291 1828.97,704.791 1884.5,750C 1946.39,802.378 2016.06,816.045 2093.5,791C 2100.29,788.106 2106.95,784.94 2113.5,781.5C 2114.48,781.977 2115.31,782.643 2116,783.5C 2114.73,795.057 2110.39,805.39 2103,814.5C 2088.33,832.284 2069.49,839.451 2046.5,836C 2032.25,835.022 2018.59,831.688 2005.5,826C 1992.06,818.65 1978.73,811.317 1965.5,804C 1940.96,794.509 1918.63,798.175 1898.5,815C 1887.26,826.239 1876.76,838.072 1867,850.5C 1847.96,876.06 1842.96,904.06 1852,934.5C 1862.98,951.814 1877.48,965.314 1895.5,975C 1907.44,981.467 1919.44,987.634 1931.5,993.5C 1930.51,993.328 1929.84,993.662 1929.5,994.5C 1901.76,984.221 1877.59,968.555 1857,947.5C 1846.8,933.519 1842.8,917.852 1845,900.5C 1846.95,881.307 1853.62,863.974 1865,848.5C 1877.83,831.667 1892.67,816.833 1909.5,804C 1927.71,795.18 1946.38,794.18 1965.5,801C 1974.66,806.081 1983.66,811.415 1992.5,817C 2019.89,832.733 2048.89,837.066 2079.5,830C 2096.26,821.664 2107.26,808.497 2112.5,790.5C 2113.6,789.399 2113.76,788.066 2113,786.5C 2111.71,785.209 2110.54,785.209 2109.5,786.5C 2031.47,819.329 1958.8,810.163 1891.5,759C 1803.3,688.4 1772.46,597.9 1799,487.5C 1809.94,451.605 1827.61,419.605 1852,391.5C 1869.42,371.728 1888.92,354.562 1910.5,340C 1974.67,300.344 2040.33,297.511 2107.5,331.5C 2113.6,325.569 2119.94,319.736 2126.5,314C 2131.24,310.962 2136.24,308.462 2141.5,306.5 Z"/></g>
<g><path style="opacity:0.934" fill="#c90057" d="M 2553.5,282.5 C 2554.61,283.29 2555.94,283.79 2557.5,284C 2567.17,284.667 2576.83,284.667 2586.5,284C 2588.06,283.79 2589.39,283.29 2590.5,282.5C 2672.57,289.62 2741.4,323.287 2797,383.5C 2828.29,421.08 2849.29,464.08 2860,512.5C 2874.15,607.436 2845.98,686.603 2775.5,750C 2715.75,798.304 2646.25,823.804 2567,826.5C 2517.15,826.571 2471.32,812.738 2429.5,785C 2427.5,784.333 2425.5,784.333 2423.5,785C 2404.29,793.799 2384.79,794.633 2365,787.5C 2348.3,777.388 2343.63,763.388 2351,745.5C 2355,740.167 2359.67,735.5 2365,731.5C 2365.67,730.5 2365.67,729.5 2365,728.5C 2353.19,723.278 2341.35,717.945 2329.5,712.5C 2323.52,708.673 2318.02,704.34 2313,699.5C 2311.09,700.818 2310.26,702.652 2310.5,705C 2311.92,722.476 2312.92,739.976 2313.5,757.5C 2312.66,760.326 2311.99,763.326 2311.5,766.5C 2311.83,767.167 2312.17,767.833 2312.5,768.5C 2313.17,766.709 2313.84,765.042 2314.5,763.5C 2314.5,770.5 2314.5,777.5 2314.5,784.5C 2313.84,783.282 2313.17,781.949 2312.5,780.5C 2312.17,781 2311.83,781.5 2311.5,782C 2312.04,784.996 2312.7,787.829 2313.5,790.5C 2309.49,858.345 2281.16,913.845 2228.5,957C 2159.2,1011.3 2080.2,1029.63 1991.5,1012C 1971,1007.33 1951,1001.17 1931.5,993.5C 1919.44,987.634 1907.44,981.467 1895.5,975C 1877.48,965.314 1862.98,951.814 1852,934.5C 1842.96,904.06 1847.96,876.06 1867,850.5C 1876.76,838.072 1887.26,826.239 1898.5,815C 1918.63,798.175 1940.96,794.509 1965.5,804C 1978.73,811.317 1992.06,818.65 2005.5,826C 2018.59,831.688 2032.25,835.022 2046.5,836C 2069.49,839.451 2088.33,832.284 2103,814.5C 2110.39,805.39 2114.73,795.057 2116,783.5C 2115.31,782.643 2114.48,781.977 2113.5,781.5C 2106.95,784.94 2100.29,788.106 2093.5,791C 2016.06,816.045 1946.39,802.378 1884.5,750C 1828.97,704.791 1798.31,646.291 1792.5,574.5C 1795.17,562.833 1795.17,551.167 1792.5,539.5C 1797.17,482.443 1818.5,432.777 1856.5,390.5C 1865.41,383.093 1873.91,375.093 1882,366.5C 1882.46,365.906 1882.63,365.239 1882.5,364.5C 1937.94,315.224 2001.61,300.057 2073.5,319C 2085.1,324.053 2096.6,329.22 2108,334.5C 2108.83,334.333 2109.67,334.167 2110.5,334C 2119.01,321.979 2130.01,313.145 2143.5,307.5C 2155.4,302.926 2168.06,300.592 2181.5,300.5C 2188.27,302.001 2195.27,302.667 2202.5,302.5C 2209.4,302.692 2216.07,302.025 2222.5,300.5C 2238.87,300.458 2253.54,305.292 2266.5,315C 2277.97,326.562 2285.64,340.395 2289.5,356.5C 2288.54,357.812 2288.71,359.146 2290,360.5C 2290.4,365.867 2291.07,371.201 2292,376.5C 2296.94,466.529 2302.28,556.529 2308,646.5C 2310.33,647.167 2312.67,647.833 2315,648.5C 2321.42,647.687 2327.92,647.187 2334.5,647C 2335.02,646.439 2335.36,645.772 2335.5,645C 2329.97,638.791 2325.31,631.957 2321.5,624.5C 2316.48,612.272 2315.31,599.605 2318,586.5C 2323.9,571.472 2334.74,565.139 2350.5,567.5C 2357.26,571.709 2364.59,574.542 2372.5,576C 2378.55,577.378 2383.88,576.212 2388.5,572.5C 2397.3,564.874 2405.96,557.04 2414.5,549C 2429.32,538.088 2444.32,527.421 2459.5,517C 2473.77,505.496 2480.27,490.663 2479,472.5C 2474.29,461.281 2466.79,452.281 2456.5,445.5C 2454.93,444.691 2453.26,444.357 2451.5,444.5C 2448.96,442.41 2446.12,440.743 2443,439.5C 2437.31,439.468 2431.48,439.635 2425.5,440C 2422.52,440.705 2419.86,441.871 2417.5,443.5C 2415.35,443.372 2413.35,443.872 2411.5,445C 2398.37,454.46 2386.87,465.627 2377,478.5C 2368.61,491.562 2359.44,504.062 2349.5,516C 2339.77,521.955 2330.1,521.955 2320.5,516C 2314.85,507.684 2313.02,498.517 2315,488.5C 2333.5,415.714 2374,358.881 2436.5,318C 2443.56,314.139 2450.56,310.305 2457.5,306.5C 2488.08,292.856 2520.08,284.856 2553.5,282.5 Z M 2066.5,505.5 C 2093.9,520.961 2103.73,543.961 2096,574.5C 2083.53,601.567 2062.53,612.901 2033,608.5C 2013.49,602.993 1999.49,590.993 1991,572.5C 1984.89,545.345 1993.39,524.012 2016.5,508.5C 2018.82,508.008 2020.82,507.008 2022.5,505.5C 2037.19,500.275 2051.85,500.275 2066.5,505.5 Z"/></g>
<g><path style="opacity:0.004" fill="#a81407" d="M 2455.5,305.5 C 2455.84,306.338 2456.51,306.672 2457.5,306.5C 2450.56,310.305 2443.56,314.139 2436.5,318C 2374,358.881 2333.5,415.714 2315,488.5C 2313.02,498.517 2314.85,507.684 2320.5,516C 2330.1,521.955 2339.77,521.955 2349.5,516C 2359.44,504.062 2368.61,491.562 2377,478.5C 2386.87,465.627 2398.37,454.46 2411.5,445C 2413.35,443.872 2415.35,443.372 2417.5,443.5C 2418.17,443.5 2418.83,443.5 2419.5,443.5C 2402.71,452.783 2388.88,465.45 2378,481.5C 2371,491.833 2364,502.167 2357,512.5C 2346.72,524.037 2334.55,526.537 2320.5,520C 2313.77,514.04 2310.77,506.54 2311.5,497.5C 2313.5,480.167 2318,463.5 2325,447.5C 2348.11,393.066 2384.27,349.566 2433.5,317C 2440.73,312.886 2448.06,309.053 2455.5,305.5 Z"/></g>
<g><path style="opacity:0.004" fill="#bb1407" d="M 1481.5,531.5 C 1481.5,531.167 1481.5,530.833 1481.5,530.5C 1481.95,529.542 1482.62,528.708 1483.5,528C 1504.53,519.167 1525.53,519.334 1546.5,528.5C 1559.86,536.456 1567.86,547.79 1570.5,562.5C 1572.37,563.797 1572.7,565.297 1571.5,567C 1572.13,569.135 1572.63,571.302 1573,573.5C 1574.42,624.498 1575.75,675.498 1577,726.5C 1577.3,743.543 1578.97,760.209 1582,776.5C 1584.47,783.589 1587.14,790.589 1590,797.5C 1597.75,808.199 1607.08,815.532 1618,819.5C 1631.91,825.316 1646.41,828.649 1661.5,829.5C 1669.5,829.5 1677.5,829.5 1685.5,829.5C 1698.49,828.165 1711.16,826.499 1723.5,824.5C 1732.93,821.27 1742.27,817.104 1751.5,812C 1757.58,806.595 1762.91,800.595 1767.5,794C 1767.17,793.667 1766.83,793.333 1766.5,793C 1770.7,785.753 1773.53,777.919 1775,769.5C 1776.36,760.549 1777.2,751.549 1777.5,742.5C 1775.47,682.161 1773.3,621.828 1771,561.5C 1766.05,486.77 1735.88,424.604 1680.5,375C 1653.35,353.926 1623.35,339.093 1590.5,330.5C 1589.91,330.709 1589.41,331.043 1589,331.5C 1587.6,329.473 1585.94,329.14 1584,330.5C 1550.87,322.902 1518.37,324.402 1486.5,335C 1482,337.413 1477.34,339.58 1472.5,341.5C 1472.16,340.662 1471.49,340.328 1470.5,340.5C 1492.76,328.809 1516.6,323.142 1542,323.5C 1610.32,324.499 1666.66,350.832 1711,402.5C 1751.71,451.943 1772.71,508.943 1774,573.5C 1776.33,634.824 1778,696.158 1779,757.5C 1777.11,795.707 1757.61,818.873 1720.5,827C 1693.61,832.125 1666.61,832.792 1639.5,829C 1618.5,825.928 1601.66,816.094 1589,799.5C 1582.38,787.316 1578.38,774.316 1577,760.5C 1575.98,751.193 1575.32,741.86 1575,732.5C 1573.73,681.165 1572.4,629.832 1571,578.5C 1567.58,539.18 1546.08,521.014 1506.5,524C 1497.66,525.006 1489.32,527.506 1481.5,531.5 Z"/></g>
<g><path style="opacity:0.004" fill="#c91306" d="M 1470.5,340.5 C 1471.49,340.328 1472.16,340.662 1472.5,341.5C 1461.63,347.86 1451.13,354.86 1441,362.5C 1434.19,354.024 1426.36,346.524 1417.5,340C 1409.54,336.346 1401.2,333.679 1392.5,332C 1380.03,330.536 1367.53,329.369 1355,328.5C 1341.81,329.369 1328.64,330.536 1315.5,332C 1301.6,334.883 1288.6,340.549 1276.5,349C 1266.87,358.808 1260.37,369.974 1257,382.5C 1254.95,392.394 1254.12,402.394 1254.5,412.5C 1253.17,417.167 1253.17,421.833 1254.5,426.5C 1254.83,489.833 1255.17,553.167 1255.5,616.5C 1255.99,618.806 1256.33,621.139 1256.5,623.5C 1256.07,672.86 1256.91,722.193 1259,771.5C 1261.72,784.991 1266.38,797.658 1273,809.5C 1289.72,825.752 1309.89,834.252 1333.5,835C 1357.06,837.713 1380.4,836.379 1403.5,831C 1433.77,823.219 1450.77,803.719 1454.5,772.5C 1455.48,769.038 1455.81,765.371 1455.5,761.5C 1456.1,755.2 1456.44,748.867 1456.5,742.5C 1455.39,700.84 1454.73,659.173 1454.5,617.5C 1453.38,601.865 1453.21,586.199 1454,570.5C 1455.21,565.469 1456.54,560.469 1458,555.5C 1462.6,544.716 1470.43,536.382 1481.5,530.5C 1481.5,530.833 1481.5,531.167 1481.5,531.5C 1461.05,546.107 1452.39,566.107 1455.5,591.5C 1456.98,648.829 1457.81,706.162 1458,763.5C 1454.95,806.885 1431.78,831.052 1388.5,836C 1361.31,840.005 1334.31,839.005 1307.5,833C 1282.31,826.473 1266.47,810.64 1260,785.5C 1258.02,777.951 1256.68,770.284 1256,762.5C 1254.36,648.165 1252.86,533.832 1251.5,419.5C 1250.23,397.841 1254.73,377.507 1265,358.5C 1276.44,343.357 1291.6,334.19 1310.5,331C 1340.91,324.761 1371.25,325.095 1401.5,332C 1409.78,333.98 1417.45,337.313 1424.5,342C 1430.12,347.423 1435.62,352.923 1441,358.5C 1450.45,351.893 1460.28,345.893 1470.5,340.5 Z"/></g>
<g><path style="opacity:0.004" fill="#b71307" d="M 1104.5,328.5 C 1123.94,328.007 1143.27,329.174 1162.5,332C 1194.55,337.712 1213.71,356.546 1220,388.5C 1222.02,402.078 1223.02,415.745 1223,429.5C 1223.56,532.837 1224.39,636.17 1225.5,739.5C 1226.44,759.74 1223.61,779.407 1217,798.5C 1210.11,813.726 1198.94,824.56 1183.5,831C 1166.15,836.812 1148.32,839.645 1130,839.5C 1110.9,839.526 1092.07,837.359 1073.5,833C 1066.82,831.161 1060.49,828.494 1054.5,825C 1048.66,820.486 1042.82,815.986 1037,811.5C 1005.77,830.641 971.773,839.641 935,838.5C 881.979,837.943 835.479,820.443 795.5,786C 710.653,712.446 681.819,620.946 709,511.5C 719.623,476.236 736.957,444.903 761,417.5C 771.5,407 782,396.5 792.5,386C 821.269,360.279 854.603,342.946 892.5,334C 943.589,322.737 991.256,330.903 1035.5,358.5C 1040.65,354.522 1045.65,350.355 1050.5,346C 1067.16,335.835 1085.16,330.001 1104.5,328.5 Z"/></g>
<g><path style="opacity:0.004" fill="#c31407" d="M 463.5,341.5 C 462.833,341.5 462.167,341.5 461.5,341.5C 454.992,339.373 448.325,337.873 441.5,337C 411.846,335.48 382.18,334.813 352.5,335C 352,335.5 351.5,336 351,336.5C 349.138,372.834 347.805,409.167 347,445.5C 347.833,446.333 348.667,447.167 349.5,448C 382.483,449.72 415.483,450.387 448.5,450C 466.521,446.338 480.854,437.172 491.5,422.5C 492.338,422.842 492.672,423.508 492.5,424.5C 488.41,430.095 483.744,435.261 478.5,440C 469.441,445.32 460.274,449.487 451,452.5C 417.266,452.689 383.433,451.856 349.5,450C 347.671,449.727 346.171,448.893 345,447.5C 345.529,409.812 346.863,372.145 349,334.5C 349.5,334 350,333.5 350.5,333C 380.855,332.521 411.188,333.188 441.5,335C 445.616,335.325 449.616,336.159 453.5,337.5C 454.086,337.291 454.586,336.957 455,336.5C 458.191,337.803 461.024,339.47 463.5,341.5 Z"/></g>
<g><path style="opacity:0.02" fill="#b70062" d="M 926.5,331.5 C 933.167,334.167 939.833,334.167 946.5,331.5C 948.117,332.038 949.784,332.371 951.5,332.5C 941.5,335.167 931.5,335.167 921.5,332.5C 923.216,332.371 924.883,332.038 926.5,331.5 Z"/></g>
<g><path style="opacity:0.008" fill="#ff0074" d="M 926.5,331.5 C 933.167,331.5 939.833,331.5 946.5,331.5C 939.833,334.167 933.167,334.167 926.5,331.5 Z"/></g>
<g><path style="opacity:0.925" fill="#ca0057" d="M 1685.5,829.5 C 1681.78,828.003 1677.78,827.337 1673.5,827.5C 1669.22,827.337 1665.22,828.003 1661.5,829.5C 1646.41,828.649 1631.91,825.316 1618,819.5C 1607.08,815.532 1597.75,808.199 1590,797.5C 1587.14,790.589 1584.47,783.589 1582,776.5C 1578.97,760.209 1577.3,743.543 1577,726.5C 1575.75,675.498 1574.42,624.498 1573,573.5C 1572.63,571.302 1572.13,569.135 1571.5,567C 1572.7,565.297 1572.37,563.797 1570.5,562.5C 1567.86,547.79 1559.86,536.456 1546.5,528.5C 1525.53,519.334 1504.53,519.167 1483.5,528C 1482.62,528.708 1481.95,529.542 1481.5,530.5C 1470.43,536.382 1462.6,544.716 1458,555.5C 1456.54,560.469 1455.21,565.469 1454,570.5C 1453.21,586.199 1453.38,601.865 1454.5,617.5C 1453.31,651.328 1452.64,685.328 1452.5,719.5C 1450.88,720.841 1449.88,722.674 1449.5,725C 1450.91,726.413 1451.91,728.08 1452.5,730C 1452.48,738.504 1452.48,747.004 1452.5,755.5C 1449.5,758.043 1449.17,760.709 1451.5,763.5C 1452.3,761.922 1452.8,760.256 1453,758.5C 1453.83,763.137 1454.33,767.804 1454.5,772.5C 1450.77,803.719 1433.77,823.219 1403.5,831C 1380.4,836.379 1357.06,837.713 1333.5,835C 1309.89,834.252 1289.72,825.752 1273,809.5C 1266.38,797.658 1261.72,784.991 1259,771.5C 1256.91,722.193 1256.07,672.86 1256.5,623.5C 1257.32,621.031 1257.82,618.365 1258,615.5C 1258.33,588.167 1258.67,560.833 1259,533.5C 1259.33,559.833 1259.67,586.167 1260,612.5C 1260.33,611.167 1260.67,609.833 1261,608.5C 1261.8,583.153 1261.63,557.82 1260.5,532.5C 1259.44,528.88 1258.61,525.214 1258,521.5C 1257.67,551.5 1257.33,581.5 1257,611.5C 1256.8,613.382 1256.3,615.048 1255.5,616.5C 1255.17,553.167 1254.83,489.833 1254.5,426.5C 1254.68,421.206 1255.18,421.206 1256,426.5C 1256.67,419.5 1256.67,412.5 1256,405.5C 1255.67,409.167 1255.33,412.833 1255,416.5C 1254.51,415.207 1254.34,413.873 1254.5,412.5C 1254.12,402.394 1254.95,392.394 1257,382.5C 1260.37,369.974 1266.87,358.808 1276.5,349C 1288.6,340.549 1301.6,334.883 1315.5,332C 1328.64,330.536 1341.81,329.369 1355,328.5C 1367.53,329.369 1380.03,330.536 1392.5,332C 1401.2,333.679 1409.54,336.346 1417.5,340C 1426.36,346.524 1434.19,354.024 1441,362.5C 1451.13,354.86 1461.63,347.86 1472.5,341.5C 1477.34,339.58 1482,337.413 1486.5,335C 1518.37,324.402 1550.87,322.902 1584,330.5C 1585.94,329.14 1587.6,329.473 1589,331.5C 1589.41,331.043 1589.91,330.709 1590.5,330.5C 1623.35,339.093 1653.35,353.926 1680.5,375C 1735.88,424.604 1766.05,486.77 1771,561.5C 1773.3,621.828 1775.47,682.161 1777.5,742.5C 1777.2,751.549 1776.36,760.549 1775,769.5C 1773.53,777.919 1770.7,785.753 1766.5,793C 1766.83,793.333 1767.17,793.667 1767.5,794C 1762.91,800.595 1757.58,806.595 1751.5,812C 1742.27,817.104 1732.93,821.27 1723.5,824.5C 1711.16,826.499 1698.49,828.165 1685.5,829.5 Z"/></g>
<g><path style="opacity:0.954" fill="#ca0057" d="M 952.5,835.5 C 946.908,834.007 941.074,833.341 935,833.5C 928.926,833.341 923.092,834.007 917.5,835.5C 891.853,833.478 868.02,826.811 846,815.5C 796.204,790.058 757.204,752.058 729,701.5C 689.598,619.556 691.598,538.222 735,457.5C 743.843,442.827 754.009,429.161 765.5,416.5C 774.412,409.093 782.912,401.093 791,392.5C 791.464,391.906 791.631,391.239 791.5,390.5C 828.109,356.537 871.443,337.204 921.5,332.5C 931.5,335.167 941.5,335.167 951.5,332.5C 982.197,335.12 1010.36,344.787 1036,361.5C 1036.83,361.333 1037.67,361.167 1038.5,361C 1052.94,344.954 1070.61,335.62 1091.5,333C 1118.74,329.35 1145.74,330.684 1172.5,337C 1195.16,343.324 1209.16,357.657 1214.5,380C 1217.77,388.742 1219.6,397.908 1220,407.5C 1221.4,518.33 1222.57,629.163 1223.5,740C 1224.82,765.059 1219.66,788.559 1208,810.5C 1197.63,821.44 1185.13,828.94 1170.5,833C 1134.78,839.53 1099.45,837.863 1064.5,828C 1058.61,824.659 1052.61,820.659 1046.5,816C 1044.6,814.185 1042.93,812.185 1041.5,810C 1040.13,809.125 1038.63,808.625 1037,808.5C 1017.52,820.849 996.688,829.016 974.5,833C 967.217,834.327 959.884,835.16 952.5,835.5 Z"/></g>
<g><path style="opacity:0.004" fill="#a71608" d="M 461.5,341.5 C 462.167,341.5 462.833,341.5 463.5,341.5C 466.049,341.387 468.382,342.054 470.5,343.5C 478.074,348.569 484.908,354.569 491,361.5C 496.337,369.344 499.17,378.01 499.5,387.5C 499.5,391.833 499.5,396.167 499.5,400.5C 499.566,409.291 497.233,417.291 492.5,424.5C 492.672,423.508 492.338,422.842 491.5,422.5C 505.939,386.127 495.939,359.127 461.5,341.5 Z"/></g>
<g><path style="opacity:0.012" fill="#9cff39" d="M 1882.5,364.5 C 1882.63,365.239 1882.46,365.906 1882,366.5C 1873.91,375.093 1865.41,383.093 1856.5,390.5C 1864.83,381.5 1873.5,372.833 1882.5,364.5 Z"/></g>
<g><path style="opacity:0.012" fill="#a3ff67" d="M 499.5,400.5 C 499.5,396.167 499.5,391.833 499.5,387.5C 500.151,386.909 500.818,386.243 501.5,385.5C 501.833,386.167 502.167,386.833 502.5,387.5C 501.167,391.833 501.167,396.167 502.5,400.5C 502.167,401.167 501.833,401.833 501.5,402.5C 500.818,401.757 500.151,401.091 499.5,400.5 Z"/></g>
<g><path style="opacity:0.012" fill="#9cff39" d="M 791.5,390.5 C 791.631,391.239 791.464,391.906 791,392.5C 782.912,401.093 774.412,409.093 765.5,416.5C 773.833,407.5 782.5,398.833 791.5,390.5 Z"/></g>
<g><path style="opacity:0.016" fill="#b60037" d="M 1254.5,426.5 C 1253.17,421.833 1253.17,417.167 1254.5,412.5C 1254.34,413.873 1254.51,415.207 1255,416.5C 1255.33,412.833 1255.67,409.167 1256,405.5C 1256.67,412.5 1256.67,419.5 1256,426.5C 1255.18,421.206 1254.68,421.206 1254.5,426.5 Z"/></g>
<g><path style="opacity:0.004" fill="#b51809" d="M 2451.5,444.5 C 2450.83,444.5 2450.17,444.5 2449.5,444.5C 2439.6,440.974 2429.6,440.64 2419.5,443.5C 2418.83,443.5 2418.17,443.5 2417.5,443.5C 2419.86,441.871 2422.52,440.705 2425.5,440C 2431.48,439.635 2437.31,439.468 2443,439.5C 2446.12,440.743 2448.96,442.41 2451.5,444.5 Z"/></g>
<g><path style="opacity:0.004" fill="#a91508" d="M 2449.5,444.5 C 2450.17,444.5 2450.83,444.5 2451.5,444.5C 2453.26,444.357 2454.93,444.691 2456.5,445.5C 2466.79,452.281 2474.29,461.281 2479,472.5C 2480.27,490.663 2473.77,505.496 2459.5,517C 2444.32,527.421 2429.32,538.088 2414.5,549C 2405.96,557.04 2397.3,564.874 2388.5,572.5C 2388.16,571.662 2387.49,571.328 2386.5,571.5C 2397.04,560.458 2408.38,550.291 2420.5,541C 2434.34,531.579 2448.01,521.912 2461.5,512C 2486.14,484.408 2482.14,461.908 2449.5,444.5 Z"/></g>
<g><path style="opacity:0.004" fill="#bf1808" d="M 2068.5,505.5 C 2067.83,505.5 2067.17,505.5 2066.5,505.5C 2051.85,500.275 2037.19,500.275 2022.5,505.5C 2021.76,505.631 2021.09,505.464 2020.5,505C 2036.74,497.577 2052.74,497.743 2068.5,505.5 Z"/></g>
<g><path style="opacity:0.004" fill="#a51508" d="M 2066.5,505.5 C 2067.17,505.5 2067.83,505.5 2068.5,505.5C 2069.98,505.238 2071.31,505.571 2072.5,506.5C 2089.15,517.457 2098.98,532.79 2102,552.5C 2102.41,571.182 2095.58,586.682 2081.5,599C 2056.9,616.923 2032.24,616.923 2007.5,599C 1982.71,576.806 1979.21,551.639 1997,523.5C 2002.43,517.232 2008.6,511.899 2015.5,507.5C 2016.11,507.624 2016.44,507.957 2016.5,508.5C 1993.39,524.012 1984.89,545.345 1991,572.5C 1999.49,590.993 2013.49,602.993 2033,608.5C 2062.53,612.901 2083.53,601.567 2096,574.5C 2103.73,543.961 2093.9,520.961 2066.5,505.5 Z"/></g>
<g><path style="opacity:0.035" fill="#c30059" d="M 1256.5,623.5 C 1256.33,621.139 1255.99,618.806 1255.5,616.5C 1256.3,615.048 1256.8,613.382 1257,611.5C 1257.33,581.5 1257.67,551.5 1258,521.5C 1258.61,525.214 1259.44,528.88 1260.5,532.5C 1261.63,557.82 1261.8,583.153 1261,608.5C 1260.67,609.833 1260.33,611.167 1260,612.5C 1259.67,586.167 1259.33,559.833 1259,533.5C 1258.67,560.833 1258.33,588.167 1258,615.5C 1257.82,618.365 1257.32,621.031 1256.5,623.5 Z"/></g>
<g><path style="opacity:0.008" fill="#ff0073" d="M 1791.5,545.5 C 1792.98,549.054 1793.65,552.888 1793.5,557C 1793.65,561.112 1792.98,564.946 1791.5,568.5C 1791.5,560.833 1791.5,553.167 1791.5,545.5 Z"/></g>
<g><path style="opacity:0.012" fill="#adff61" d="M 1792.5,539.5 C 1795.17,551.167 1795.17,562.833 1792.5,574.5C 1792.17,572.5 1791.83,570.5 1791.5,568.5C 1792.98,564.946 1793.65,561.112 1793.5,557C 1793.65,552.888 1792.98,549.054 1791.5,545.5C 1792.15,543.565 1792.48,541.565 1792.5,539.5 Z"/></g>
<g><path style="opacity:0.004" fill="#000000" d="M 2330.5,642.5 C 2331.72,644.332 2331.05,645.332 2328.5,645.5C 2329.17,644.5 2329.83,643.5 2330.5,642.5 Z"/></g>
<g><path style="opacity:0.008" fill="#ff0073" d="M 452.5,649.5 C 440.5,649.5 428.5,649.5 416.5,649.5C 422.419,647.955 428.586,647.289 435,647.5C 439.5,647.667 444,647.833 448.5,648C 450.058,648.21 451.391,648.71 452.5,649.5 Z"/></g>
<g><path style="opacity:0.004" fill="#af1407" d="M 2317.5,706.5 C 2315.97,704.123 2314.47,704.123 2313,706.5C 2312.22,708.387 2312.39,710.054 2313.5,711.5C 2315.74,738.458 2316.57,765.458 2316,792.5C 2311.56,856.536 2285.4,909.703 2237.5,952C 2170.12,1009.27 2092.46,1030.94 2004.5,1017C 1978.39,1012.79 1953.39,1005.29 1929.5,994.5C 1929.84,993.662 1930.51,993.328 1931.5,993.5C 1951,1001.17 1971,1007.33 1991.5,1012C 2080.2,1029.63 2159.2,1011.3 2228.5,957C 2281.16,913.845 2309.49,858.345 2313.5,790.5C 2313.83,788.5 2314.17,786.5 2314.5,784.5C 2314.5,777.5 2314.5,770.5 2314.5,763.5C 2314.17,761.5 2313.83,759.5 2313.5,757.5C 2312.92,739.976 2311.92,722.476 2310.5,705C 2310.26,702.652 2311.09,700.818 2313,699.5C 2318.02,704.34 2323.52,708.673 2329.5,712.5C 2341.35,717.945 2353.19,723.278 2365,728.5C 2365.67,729.5 2365.67,730.5 2365,731.5C 2359.67,735.5 2355,740.167 2351,745.5C 2343.63,763.388 2348.3,777.388 2365,787.5C 2384.79,794.633 2404.29,793.799 2423.5,785C 2425.5,784.333 2427.5,784.333 2429.5,785C 2471.32,812.738 2517.15,826.571 2567,826.5C 2646.25,823.804 2715.75,798.304 2775.5,750C 2845.98,686.603 2874.15,607.436 2860,512.5C 2849.29,464.08 2828.29,421.08 2797,383.5C 2741.4,323.287 2672.57,289.62 2590.5,282.5C 2578.17,282.5 2565.83,282.5 2553.5,282.5C 2520.08,284.856 2488.08,292.856 2457.5,306.5C 2456.51,306.672 2455.84,306.338 2455.5,305.5C 2500.77,284.398 2548.44,276.231 2598.5,281C 2677.75,289.706 2744.25,323.206 2798,381.5C 2847.14,438.571 2869.8,504.904 2866,580.5C 2861.23,630.163 2843.57,674.496 2813,713.5C 2765.95,769.465 2706.45,805.298 2634.5,821C 2577.53,834.279 2521.86,830.279 2467.5,809C 2454.19,803.015 2441.52,796.015 2429.5,788C 2427.17,787.333 2424.83,787.333 2422.5,788C 2403.36,796.649 2384.03,797.316 2364.5,790C 2345.6,779.706 2340.1,764.539 2348,744.5C 2351.7,740.465 2355.7,736.798 2360,733.5C 2360.98,732.241 2361.32,730.908 2361,729.5C 2351.15,725.162 2341.32,720.662 2331.5,716C 2326.63,713.071 2321.96,709.904 2317.5,706.5 Z"/></g>
<g><path style="opacity:0.008" fill="#ff0072" d="M 2553.5,282.5 C 2565.83,282.5 2578.17,282.5 2590.5,282.5C 2589.39,283.29 2588.06,283.79 2586.5,284C 2576.83,284.667 2567.17,284.667 2557.5,284C 2555.94,283.79 2554.61,283.29 2553.5,282.5 Z"/></g>
<g><path style="opacity:0.004" fill="#000000" d="M 2317.5,706.5 C 2314.09,706.384 2312.76,708.05 2313.5,711.5C 2312.39,710.054 2312.22,708.387 2313,706.5C 2314.47,704.123 2315.97,704.123 2317.5,706.5 Z"/></g>
<g><path style="opacity:0.024" fill="#d9004f" d="M 1455.5,761.5 C 1455.81,765.371 1455.48,769.038 1454.5,772.5C 1454.33,767.804 1453.83,763.137 1453,758.5C 1452.8,760.256 1452.3,761.922 1451.5,763.5C 1449.17,760.709 1449.5,758.043 1452.5,755.5C 1452.48,747.004 1452.48,738.504 1452.5,730C 1451.91,728.08 1450.91,726.413 1449.5,725C 1449.88,722.674 1450.88,720.841 1452.5,719.5C 1453.42,710.525 1453.92,696.858 1454,678.5C 1454.68,699.839 1454.51,721.173 1453.5,742.5C 1453.36,749.065 1454.03,755.399 1455.5,761.5 Z"/></g>
<g><path style="opacity:0.02" fill="#db006e" d="M 1454.5,617.5 C 1454.73,659.173 1455.39,700.84 1456.5,742.5C 1456.44,748.867 1456.1,755.2 1455.5,761.5C 1454.03,755.399 1453.36,749.065 1453.5,742.5C 1454.51,721.173 1454.68,699.839 1454,678.5C 1453.92,696.858 1453.42,710.525 1452.5,719.5C 1452.64,685.328 1453.31,651.328 1454.5,617.5 Z"/></g>
<g><path style="opacity:0.012" fill="#a3ff5f" d="M 2313.5,757.5 C 2313.83,759.5 2314.17,761.5 2314.5,763.5C 2313.84,765.042 2313.17,766.709 2312.5,768.5C 2312.17,767.833 2311.83,767.167 2311.5,766.5C 2311.99,763.326 2312.66,760.326 2313.5,757.5 Z"/></g>
<g><path style="opacity:0.012" fill="#a3ff5f" d="M 2314.5,784.5 C 2314.17,786.5 2313.83,788.5 2313.5,790.5C 2312.7,787.829 2312.04,784.996 2311.5,782C 2311.83,781.5 2312.17,781 2312.5,780.5C 2313.17,781.949 2313.84,783.282 2314.5,784.5 Z"/></g>
<g><path style="opacity:0.004" fill="#000000" d="M 2109.5,786.5 C 2110.54,785.209 2111.71,785.209 2113,786.5C 2113.76,788.066 2113.6,789.399 2112.5,790.5C 2112.91,788.027 2111.91,786.694 2109.5,786.5 Z"/></g>
<g><path style="opacity:0.008" fill="#ff0073" d="M 1685.5,829.5 C 1677.5,829.5 1669.5,829.5 1661.5,829.5C 1665.22,828.003 1669.22,827.337 1673.5,827.5C 1677.78,827.337 1681.78,828.003 1685.5,829.5 Z"/></g>
<g><path style="opacity:0.02" fill="#b80062" d="M 952.5,835.5 C 950.784,835.629 949.117,835.962 947.5,836.5C 943.609,834.993 939.442,834.326 935,834.5C 930.558,834.326 926.391,834.993 922.5,836.5C 920.883,835.962 919.216,835.629 917.5,835.5C 923.092,834.007 928.926,833.341 935,833.5C 941.074,833.341 946.908,834.007 952.5,835.5 Z"/></g>
<g><path style="opacity:0.008" fill="#ff0073" d="M 947.5,836.5 C 939.167,836.5 930.833,836.5 922.5,836.5C 926.391,834.993 930.558,834.326 935,834.5C 939.442,834.326 943.609,834.993 947.5,836.5 Z"/></g>
</svg>
