<?xml version="1.0" encoding="UTF-8"?>
<!DOCTYPE svg PUBLIC "-//W3C//DTD SVG 1.1//EN" "http://www.w3.org/Graphics/SVG/1.1/DTD/svg11.dtd">
<svg xmlns="http://www.w3.org/2000/svg" version="1.1" width="512px" height="512px" style="shape-rendering:geometricPrecision; text-rendering:geometricPrecision; image-rendering:optimizeQuality; fill-rule:evenodd; clip-rule:evenodd" xmlns:xlink="http://www.w3.org/1999/xlink">
<g><path style="opacity:0.998" fill="#fee500" d="M 78.5,-0.5 C 196.5,-0.5 314.5,-0.5 432.5,-0.5C 478.5,6.16667 504.833,32.5 511.5,78.5C 511.5,196.5 511.5,314.5 511.5,432.5C 504.833,478.5 478.5,504.833 432.5,511.5C 314.5,511.5 196.5,511.5 78.5,511.5C 32.5,504.833 6.16667,478.5 -0.5,432.5C -0.5,314.5 -0.5,196.5 -0.5,78.5C 6.16667,32.5 32.5,6.16667 78.5,-0.5 Z"/></g>
<g><path style="opacity:1" fill="#2b2d33" d="M 359.5,84.5 C 382.213,83.4391 400.713,91.7725 415,109.5C 430.61,128.327 438.276,149.994 438,174.5C 433.5,170 429,165.5 424.5,161C 423.833,160.333 423.167,160.333 422.5,161C 402.333,181.167 382.167,201.333 362,221.5C 357,216.5 352,211.5 347,206.5C 346.667,192.5 346.333,178.5 346,164.5C 340.333,170.167 334.667,175.833 329,181.5C 328.667,198.167 328.333,214.833 328,231.5C 319.985,239.348 312.152,247.348 304.5,255.5C 344.486,295.986 384.653,336.32 425,376.5C 425.667,377.167 425.667,377.833 425,378.5C 409.319,394.347 393.486,410.014 377.5,425.5C 336.833,385.167 296.167,344.833 255.5,304.5C 215.014,344.486 174.68,384.653 134.5,425C 133.833,425.667 133.167,425.667 132.5,425C 116.653,409.319 100.986,393.486 85.5,377.5C 125.833,336.833 166.167,296.167 206.5,255.5C 198.848,247.348 191.015,239.348 183,231.5C 182.667,214.833 182.333,198.167 182,181.5C 176.333,175.833 170.667,170.167 165,164.5C 164.667,178.5 164.333,192.5 164,206.5C 159.685,211.982 154.851,216.982 149.5,221.5C 129.014,201.514 108.68,181.347 88.5,161C 87.8333,160.333 87.1667,160.333 86.5,161C 82,165.5 77.5,170 73,174.5C 73.606,140.117 87.7727,112.95 115.5,93C 134.14,83.0324 152.807,83.0324 171.5,93C 193.972,114.471 216.139,136.305 238,158.5C 238.667,159.167 238.667,159.833 238,160.5C 233.667,164.833 229.333,169.167 225,173.5C 224.333,174.5 224.333,175.5 225,176.5C 235.014,186.681 245.181,196.681 255.5,206.5C 266.319,196.181 276.986,185.681 287.5,175C 282.667,170.167 277.833,165.333 273,160.5C 272.333,159.833 272.333,159.167 273,158.5C 294.5,137 316,115.5 337.5,94C 344.475,89.7398 351.809,86.5731 359.5,84.5 Z"/></g>
</svg>
