<?xml version="1.0" encoding="UTF-8"?>
<!DOCTYPE svg PUBLIC "-//W3C//DTD SVG 1.1//EN" "http://www.w3.org/Graphics/SVG/1.1/DTD/svg11.dtd">
<svg xmlns="http://www.w3.org/2000/svg" version="1.1" width="300px" height="168px" style="shape-rendering:geometricPrecision; text-rendering:geometricPrecision; image-rendering:optimizeQuality; fill-rule:evenodd; clip-rule:evenodd" xmlns:xlink="http://www.w3.org/1999/xlink">
<g><path style="opacity:0.545" fill="#c7c9ce" d="M 171.5,4.5 C 173.966,3.36594 176.633,3.19927 179.5,4C 181.426,4.42244 182.426,5.5891 182.5,7.5C 179.238,5.12034 175.571,4.12034 171.5,4.5 Z"/></g>
<g><path style="opacity:0.635" fill="#d1d3d7" d="M 131.5,6.5 C 126.474,3.52272 121.808,3.85605 117.5,7.5C 116.549,8.91866 116.216,10.5853 116.5,12.5C 114.96,8.95684 115.96,6.12351 119.5,4C 122.5,3.33333 125.5,3.33333 128.5,4C 129.942,4.37675 130.942,5.21009 131.5,6.5 Z"/></g>
<g><path style="opacity:1" fill="#687492" d="M 171.5,4.5 C 175.571,4.12034 179.238,5.12034 182.5,7.5C 184.319,14.1887 181.652,17.0221 174.5,16C 170.699,13.3572 166.699,13.1905 162.5,15.5C 161.596,14.791 161.263,13.791 161.5,12.5C 163.833,10.8333 165.833,8.83333 167.5,6.5C 168.287,4.89578 169.62,4.22911 171.5,4.5 Z"/></g>
<g><path style="opacity:1" fill="#58668a" d="M 131.5,6.5 C 131.973,7.90632 132.973,8.57298 134.5,8.5C 134.703,10.0443 135.37,11.3777 136.5,12.5C 134.612,13.2394 132.612,13.2394 130.5,12.5C 128.97,12.6399 127.97,13.3065 127.5,14.5C 127.167,14.5 126.833,14.5 126.5,14.5C 120.174,16.1589 117.174,13.8256 117.5,7.5C 121.808,3.85605 126.474,3.52272 131.5,6.5 Z"/></g>
<g><path style="opacity:0.055" fill="#d5d6d8" d="M 131.5,6.5 C 133.027,6.42702 134.027,7.09368 134.5,8.5C 132.973,8.57298 131.973,7.90632 131.5,6.5 Z"/></g>
<g><path style="opacity:0.553" fill="#ccced1" d="M 167.5,6.5 C 165.833,8.83333 163.833,10.8333 161.5,12.5C 162.5,9.5 164.5,7.5 167.5,6.5 Z"/></g>
<g><path style="opacity:1" fill="#999ead" d="M 134.5,8.5 C 137.849,10.7807 139.183,13.7807 138.5,17.5C 135.209,14.6179 131.542,13.6179 127.5,14.5C 127.97,13.3065 128.97,12.6399 130.5,12.5C 132.612,13.2394 134.612,13.2394 136.5,12.5C 135.37,11.3777 134.703,10.0443 134.5,8.5 Z"/></g>
<g><path style="opacity:0.953" fill="#9398a7" d="M 117.5,7.5 C 117.174,13.8256 120.174,16.1589 126.5,14.5C 126.631,15.2389 126.464,15.9056 126,16.5C 123.024,16.4967 119.857,16.1633 116.5,15.5C 116.5,14.5 116.5,13.5 116.5,12.5C 116.216,10.5853 116.549,8.91866 117.5,7.5 Z"/></g>
<g><path style="opacity:0.098" fill="#dddedf" d="M 161.5,12.5 C 161.263,13.791 161.596,14.791 162.5,15.5C 162.026,18.6862 160.693,19.1862 158.5,17C 159.053,15.1222 160.053,13.6222 161.5,12.5 Z"/></g>
<g><path style="opacity:0.055" fill="#c1c4ca" d="M 172.5,24.5 C 165.984,22.2428 159.317,20.5761 152.5,19.5C 146.149,20.1017 139.816,20.7683 133.5,21.5C 135.562,20.2237 137.896,19.3903 140.5,19C 151.964,17.0471 162.63,18.8804 172.5,24.5 Z"/></g>
<g><path style="opacity:1" fill="#5d6a8b" d="M 172.5,24.5 C 176.051,26.1108 179.051,28.4442 181.5,31.5C 181.859,33.371 182.859,34.871 184.5,36C 188.021,37.6738 191.687,38.8404 195.5,39.5C 199.646,41.0735 203.313,43.4068 206.5,46.5C 207.08,48.7488 208.413,50.4154 210.5,51.5C 214.336,54.6783 217.002,58.6783 218.5,63.5C 220.459,70.0074 221.792,76.6741 222.5,83.5C 222.11,87.9968 221.11,92.3302 219.5,96.5C 218.738,98.2624 217.404,99.2624 215.5,99.5C 211.64,99.8084 207.974,100.475 204.5,101.5C 201.183,101.219 198.017,101.219 195,101.5C 192.491,99.65 189.658,98.3166 186.5,97.5C 182.118,101.212 177.452,104.546 172.5,107.5C 169.759,107.707 167.426,108.707 165.5,110.5C 164.895,112.481 163.895,112.815 162.5,111.5C 152.801,111.725 143.134,111.392 133.5,110.5C 130.515,109.674 127.849,108.341 125.5,106.5C 122.129,103.129 118.463,100.129 114.5,97.5C 111.626,97.6234 109.126,98.6234 107,100.5C 106.617,99.944 106.117,99.6107 105.5,99.5C 102.246,99.2069 99.2457,99.8736 96.5,101.5C 90.974,102.432 85.6407,101.598 80.5,99C 80.8333,98.6667 81.1667,98.3333 81.5,98C 80.244,97.5831 79.5774,96.7498 79.5,95.5C 77.1914,86.9741 76.8581,78.3075 78.5,69.5C 80.951,66.2597 82.6176,62.5931 83.5,58.5C 86.7831,52.2166 91.4497,47.2166 97.5,43.5C 99.0481,43.8212 99.7148,44.8212 99.5,46.5C 87.4451,57.492 82.6118,71.1587 85,87.5C 86.8333,90.6667 89.3333,93.1667 92.5,95C 99.0757,95.9259 105.409,95.2592 111.5,93C 100.014,75.6704 99.6809,58.1704 110.5,40.5C 109.3,39.7084 107.967,39.7084 106.5,40.5C 108.165,38.4594 110.832,36.9594 114.5,36C 116.546,33.0973 119.213,31.264 122.5,30.5C 122.721,28.3364 123.721,26.6697 125.5,25.5C 125.842,24.6618 126.508,24.3284 127.5,24.5C 129.819,24.0075 131.819,23.0075 133.5,21.5C 139.816,20.7683 146.149,20.1017 152.5,19.5C 159.317,20.5761 165.984,22.2428 172.5,24.5 Z"/></g>
<g><path style="opacity:0.165" fill="#cbcdcf" d="M 133.5,21.5 C 131.819,23.0075 129.819,24.0075 127.5,24.5C 128.911,22.461 130.911,21.461 133.5,21.5 Z"/></g>
<g><path style="opacity:1" fill="#f3cd41" d="M 179.5,86.5 C 177.28,82.3205 175.947,77.6538 175.5,72.5C 183.231,48.6224 174.897,33.9557 150.5,28.5C 135.738,29.0805 125.905,36.4138 121,50.5C 119.708,58.5705 120.875,66.2372 124.5,73.5C 123.612,78.0726 122.279,82.406 120.5,86.5C 116.088,81.6751 113.254,76.0085 112,69.5C 109.919,41.9756 122.586,26.9756 150,24.5C 167.148,25.3006 179.148,33.6339 186,49.5C 189.651,63.0249 187.484,75.3582 179.5,86.5 Z"/></g>
<g><path style="opacity:1" fill="#596686" d="M 175.5,72.5 C 165.141,86.1144 151.808,89.9477 135.5,84C 131.305,80.9702 127.639,77.4702 124.5,73.5C 120.875,66.2372 119.708,58.5705 121,50.5C 125.905,36.4138 135.738,29.0805 150.5,28.5C 174.897,33.9557 183.231,48.6224 175.5,72.5 Z"/></g>
<g><path style="opacity:0.91" fill="#a0a5b0" d="M 181.5,31.5 C 182.962,32.4577 184.295,33.6244 185.5,35C 189.229,35.8445 192.563,37.3445 195.5,39.5C 191.687,38.8404 188.021,37.6738 184.5,36C 182.859,34.871 181.859,33.371 181.5,31.5 Z"/></g>
<g><path style="opacity:1" fill="#f5ce40" d="M 168.5,59.5 C 166.166,56.1711 163.166,53.5044 159.5,51.5C 158.828,50.0508 158.161,48.7175 157.5,47.5C 155.34,40.8847 151.007,39.0514 144.5,42C 143.117,43.2708 142.117,44.7708 141.5,46.5C 139.001,51.6785 135.334,56.0118 130.5,59.5C 127.602,44.2769 133.769,35.6102 149,33.5C 164.902,35.2244 171.402,43.8911 168.5,59.5 Z"/></g>
<g><path style="opacity:0.995" fill="#f1f1f1" d="M 99.5,46.5 C 101.858,44.4707 104.192,42.4707 106.5,40.5C 107.967,39.7084 109.3,39.7084 110.5,40.5C 99.6809,58.1704 100.014,75.6704 111.5,93C 105.409,95.2592 99.0757,95.9259 92.5,95C 89.3333,93.1667 86.8333,90.6667 85,87.5C 82.6118,71.1587 87.4451,57.492 99.5,46.5 Z"/></g>
<g><path style="opacity:1" fill="#596686" d="M 157.5,47.5 C 157.028,55.1238 153.028,57.9571 145.5,56C 142.38,53.5923 141.047,50.4257 141.5,46.5C 142.117,44.7708 143.117,43.2708 144.5,42C 151.007,39.0514 155.34,40.8847 157.5,47.5 Z"/></g>
<g><path style="opacity:0.995" fill="#f1f1f2" d="M 188.5,39.5 C 205.012,47.3241 213.679,60.4908 214.5,79C 215.527,90.1656 210.527,95.6656 199.5,95.5C 195.81,95.308 192.143,94.9747 188.5,94.5C 189.781,89.9377 191.614,85.6043 194,81.5C 198.319,66.6166 196.485,52.6166 188.5,39.5 Z"/></g>
<g><path style="opacity:1" fill="#7e869e" d="M 125.5,25.5 C 123.721,26.6697 122.721,28.3364 122.5,30.5C 119.213,31.264 116.546,33.0973 114.5,36C 110.832,36.9594 108.165,38.4594 106.5,40.5C 104.192,42.4707 101.858,44.4707 99.5,46.5C 99.7148,44.8212 99.0481,43.8212 97.5,43.5C 102.041,39.3934 107.374,36.56 113.5,35C 115.684,32.9835 117.684,30.8169 119.5,28.5C 121.243,26.9617 123.243,25.9617 125.5,25.5 Z"/></g>
<g><path style="opacity:0.635" fill="#c0c2c7" d="M 206.5,46.5 C 208.587,47.5846 209.92,49.2512 210.5,51.5C 208.413,50.4154 207.08,48.7488 206.5,46.5 Z"/></g>
<g><path style="opacity:1" fill="#dfba3c" d="M 141.5,46.5 C 141.047,50.4257 142.38,53.5923 145.5,56C 153.028,57.9571 157.028,55.1238 157.5,47.5C 158.161,48.7175 158.828,50.0508 159.5,51.5C 163.166,53.5044 166.166,56.1711 168.5,59.5C 161.237,73.9588 150.57,77.1255 136.5,69C 133.881,66.2161 131.881,63.0494 130.5,59.5C 135.334,56.0118 139.001,51.6785 141.5,46.5 Z"/></g>
<g><path style="opacity:0.635" fill="#c3c5cc" d="M 83.5,58.5 C 82.6176,62.5931 80.951,66.2597 78.5,69.5C 78.9077,65.1425 80.5743,61.4758 83.5,58.5 Z"/></g>
<g><path style="opacity:1" fill="#deba3c" d="M 175.5,72.5 C 175.947,77.6538 177.28,82.3205 179.5,86.5C 166.344,100.72 150.678,104.22 132.5,97C 127.377,94.6322 123.377,91.1322 120.5,86.5C 122.279,82.406 123.612,78.0726 124.5,73.5C 127.639,77.4702 131.305,80.9702 135.5,84C 151.808,89.9477 165.141,86.1144 175.5,72.5 Z"/></g>
<g><path style="opacity:0.722" fill="#c0c3ca" d="M 78.5,69.5 C 76.8581,78.3075 77.1914,86.9741 79.5,95.5C 78.0665,94.1667 76.7332,92.6667 75.5,91C 75.5343,86.9737 75.701,82.807 76,78.5C 76.2037,75.2026 77.037,72.2026 78.5,69.5 Z"/></g>
<g><path style="opacity:0.012" fill="#d4d5d8" d="M 218.5,63.5 C 222.873,71.5466 224.373,80.2133 223,89.5C 222.478,92.2813 221.311,94.6146 219.5,96.5C 221.11,92.3302 222.11,87.9968 222.5,83.5C 221.792,76.6741 220.459,70.0074 218.5,63.5 Z"/></g>
<g><path style="opacity:0.91" fill="#959aa6" d="M 114.5,97.5 C 118.463,100.129 122.129,103.129 125.5,106.5C 120.957,104.628 117.29,101.628 114.5,97.5 Z"/></g>
<g><path style="opacity:0.251" fill="#afb1b6" d="M 105.5,99.5 C 105.217,100.289 104.717,100.956 104,101.5C 101.582,102.21 99.0823,102.21 96.5,101.5C 99.2457,99.8736 102.246,99.2069 105.5,99.5 Z"/></g>
<g><path style="opacity:0.525" fill="#979ba5" d="M 215.5,99.5 C 214.531,100.309 213.698,101.309 213,102.5C 210.048,101.903 207.215,101.57 204.5,101.5C 207.974,100.475 211.64,99.8084 215.5,99.5 Z"/></g>
<g><path style="opacity:0.337" fill="#c0c2c7" d="M 172.5,107.5 C 170.574,109.293 168.241,110.293 165.5,110.5C 167.426,108.707 169.759,107.707 172.5,107.5 Z"/></g>
<g><path style="opacity:0.981" fill="#8b91a2" d="M 133.5,110.5 C 143.134,111.392 152.801,111.725 162.5,111.5C 156.844,112.982 151.011,113.982 145,114.5C 141.002,113.383 137.168,112.05 133.5,110.5 Z"/></g>
<g><path style="opacity:0.635" fill="#c2c5cd" d="M 41.5,138.5 C 48.3134,137.509 55.3134,137.175 62.5,137.5C 62.8919,140.722 62.3919,143.722 61,146.5C 57.6064,145.544 54.1064,145.211 50.5,145.5C 53.9619,144.518 57.6286,144.185 61.5,144.5C 61.5,142.5 61.5,140.5 61.5,138.5C 55.1667,138.5 48.8333,138.5 42.5,138.5C 42.1667,138.5 41.8333,138.5 41.5,138.5 Z"/></g>
<g><path style="opacity:0.659" fill="#9195a1" d="M 135.5,138.5 C 128.259,137.136 122.259,139.136 117.5,144.5C 119.787,139.104 123.954,136.771 130,137.5C 132.033,137.506 133.866,137.839 135.5,138.5 Z"/></g>
<g><path style="opacity:1" fill="#5c698c" d="M 135.5,138.5 C 136.492,138.328 137.158,138.662 137.5,139.5C 139.534,141.753 140.534,144.42 140.5,147.5C 137.583,147.635 134.916,146.968 132.5,145.5C 130.379,145.325 128.379,145.659 126.5,146.5C 125.883,146.611 125.383,146.944 125,147.5C 124.833,149 124.667,150.5 124.5,152C 124.569,153.986 125.235,155.486 126.5,156.5C 127.148,158.586 128.648,159.586 131,159.5C 132.871,159.291 134.038,158.291 134.5,156.5C 136.743,155.526 139.076,155.192 141.5,155.5C 141.122,157.921 140.455,160.254 139.5,162.5C 137.326,162.75 135.659,163.75 134.5,165.5C 134.167,165.5 133.833,165.5 133.5,165.5C 128.295,165.702 123.629,164.369 119.5,161.5C 118.607,158.18 117.273,155.18 115.5,152.5C 115.833,151.833 116.167,151.167 116.5,150.5C 117.451,149.081 117.784,147.415 117.5,145.5C 117.5,145.167 117.5,144.833 117.5,144.5C 122.259,139.136 128.259,137.136 135.5,138.5 Z"/></g>
<g><path style="opacity:0.707" fill="#d0d2d6" d="M 171.5,140.5 C 165.301,138.817 158.968,138.151 152.5,138.5C 152.5,147.5 152.5,156.5 152.5,165.5C 154.833,165.5 157.167,165.5 159.5,165.5C 156.77,166.817 153.937,166.817 151,165.5C 150.333,156.5 150.333,147.5 151,138.5C 156.75,137.359 162.584,137.193 168.5,138C 169.942,138.377 170.942,139.21 171.5,140.5 Z"/></g>
<g><path style="opacity:0.055" fill="#f4f3ef" d="M 183.5,137.5 C 183.173,146.682 183.507,155.682 184.5,164.5C 190.31,165.49 196.31,165.823 202.5,165.5C 196.099,166.826 189.599,166.826 183,165.5C 182.176,155.991 182.342,146.657 183.5,137.5 Z"/></g>
<g><path style="opacity:0.608" fill="#b1b3b8" d="M 248.5,137.5 C 248.5,146.5 248.5,155.5 248.5,164.5C 250.833,164.5 253.167,164.5 255.5,164.5C 255.5,155.5 255.5,146.5 255.5,137.5C 256.658,146.657 256.824,155.991 256,165.5C 252.722,166.943 249.556,166.776 246.5,165C 247.833,156.333 247.833,147.667 246.5,139C 247.044,138.283 247.711,137.783 248.5,137.5 Z"/></g>
<g><path style="opacity:1" fill="#5d6a8c" d="M 23.5,137.5 C 25.8984,137.259 27.8984,137.926 29.5,139.5C 30.3242,142.764 30.6576,146.098 30.5,149.5C 29.3424,150.95 29.8424,151.95 32,152.5C 34.1171,156.066 33.9505,159.4 31.5,162.5C 24.6768,164.335 17.6768,165.002 10.5,164.5C 10.5,155.833 10.5,147.167 10.5,138.5C 15.0323,138.818 19.3656,138.485 23.5,137.5 Z M 22.5,145.5 C 22.5,146.167 22.5,146.833 22.5,147.5C 18.5,146.833 18.5,146.167 22.5,145.5 Z M 22.5,158.5 C 21.5,158.5 20.5,158.5 19.5,158.5C 19.5,157.167 19.5,155.833 19.5,154.5C 22.9536,154.267 23.9536,155.6 22.5,158.5 Z"/></g>
<g><path style="opacity:0.951" fill="#596789" d="M 42.5,138.5 C 48.8333,138.5 55.1667,138.5 61.5,138.5C 61.5,140.5 61.5,142.5 61.5,144.5C 57.6286,144.185 53.9619,144.518 50.5,145.5C 53.3373,147.402 56.6707,148.069 60.5,147.5C 60.5,149.833 60.5,152.167 60.5,154.5C 56.9581,154.187 53.6248,154.521 50.5,155.5C 50.5,156.5 50.5,157.5 50.5,158.5C 54.1667,158.5 57.8333,158.5 61.5,158.5C 61.5,160.5 61.5,162.5 61.5,164.5C 55.1667,164.5 48.8333,164.5 42.5,164.5C 42.5,155.833 42.5,147.167 42.5,138.5 Z"/></g>
<g><path style="opacity:0.956" fill="#586689" d="M 72.5,138.5 C 78.8333,138.5 85.1667,138.5 91.5,138.5C 91.5,140.5 91.5,142.5 91.5,144.5C 87.5,144.5 83.5,144.5 79.5,144.5C 79.238,145.978 79.5713,147.311 80.5,148.5C 81.1067,148.376 81.44,148.043 81.5,147.5C 84.8333,147.5 88.1667,147.5 91.5,147.5C 91.5,149.833 91.5,152.167 91.5,154.5C 87.5,154.5 83.5,154.5 79.5,154.5C 79.1568,156.483 79.8235,157.817 81.5,158.5C 85.1667,158.5 88.8333,158.5 92.5,158.5C 92.5,160.5 92.5,162.5 92.5,164.5C 85.8333,164.5 79.1667,164.5 72.5,164.5C 72.5,155.833 72.5,147.167 72.5,138.5 Z"/></g>
<g><path style="opacity:1" fill="#5e6b8c" d="M 171.5,140.5 C 173.392,145.951 172.725,150.951 169.5,155.5C 169.624,156.107 169.957,156.44 170.5,156.5C 172.588,158.336 173.921,160.669 174.5,163.5C 173.666,164.748 172.333,165.415 170.5,165.5C 169.167,165.167 167.833,164.833 166.5,164.5C 165.333,162.167 164.167,159.833 163,157.5C 162.023,156.226 161.189,156.226 160.5,157.5C 160.806,160.385 160.473,163.052 159.5,165.5C 157.167,165.5 154.833,165.5 152.5,165.5C 152.5,156.5 152.5,147.5 152.5,138.5C 158.968,138.151 165.301,138.817 171.5,140.5 Z M 160.5,145.5 C 161.833,145.5 163.167,145.5 164.5,145.5C 164.5,146.833 164.5,148.167 164.5,149.5C 163.167,149.5 161.833,149.5 160.5,149.5C 160.5,148.167 160.5,146.833 160.5,145.5 Z"/></g>
<g><path style="opacity:0.955" fill="#59678a" d="M 192.5,147.5 C 196.042,147.187 199.375,147.521 202.5,148.5C 202.5,150.5 202.5,152.5 202.5,154.5C 198.833,154.5 195.167,154.5 191.5,154.5C 191.232,156.099 191.566,157.432 192.5,158.5C 195.833,158.5 199.167,158.5 202.5,158.5C 202.5,160.5 202.5,162.5 202.5,164.5C 196.5,164.5 190.5,164.5 184.5,164.5C 184.5,155.833 184.5,147.167 184.5,138.5C 190.833,138.5 197.167,138.5 203.5,138.5C 203.5,140.5 203.5,142.5 203.5,144.5C 199.5,144.5 195.5,144.5 191.5,144.5C 191.16,146.548 191.493,147.548 192.5,147.5 Z"/></g>
<g><path style="opacity:0.729" fill="#b2b6c1" d="M 225.5,137.5 C 222.038,138.482 218.371,138.815 214.5,138.5C 214.5,147.167 214.5,155.833 214.5,164.5C 218.833,164.5 223.167,164.5 227.5,164.5C 223.03,165.486 218.363,165.819 213.5,165.5C 212.506,156.348 212.173,147.015 212.5,137.5C 216.833,137.5 221.167,137.5 225.5,137.5 Z"/></g>
<g><path style="opacity:1" fill="#5e6b8d" d="M 225.5,137.5 C 233.036,138.036 237.369,142.036 238.5,149.5C 237.419,152.627 236.753,155.96 236.5,159.5C 234.832,161.34 233.332,163.34 232,165.5C 231.617,164.944 231.117,164.611 230.5,164.5C 229.5,164.5 228.5,164.5 227.5,164.5C 223.167,164.5 218.833,164.5 214.5,164.5C 214.5,155.833 214.5,147.167 214.5,138.5C 218.371,138.815 222.038,138.482 225.5,137.5 Z M 228.5,156.5 C 226.621,157.341 224.621,157.675 222.5,157.5C 222.5,153.5 222.5,149.5 222.5,145.5C 226.93,145.43 229.263,147.597 229.5,152C 228.62,153.356 228.286,154.856 228.5,156.5 Z"/></g>
<g><path style="opacity:1" fill="#576589" d="M 248.5,137.5 C 250.833,137.5 253.167,137.5 255.5,137.5C 255.5,146.5 255.5,155.5 255.5,164.5C 253.167,164.5 250.833,164.5 248.5,164.5C 248.5,155.5 248.5,146.5 248.5,137.5 Z"/></g>
<g><path style="opacity:0.984" fill="#8f95a5" d="M 29.5,139.5 C 32.9795,142.552 33.3128,145.886 30.5,149.5C 30.6576,146.098 30.3242,142.764 29.5,139.5 Z"/></g>
<g><path style="opacity:0.812" fill="#939aac" d="M 22.5,148.5 C 21.0813,149.451 19.4147,149.784 17.5,149.5C 17.5,147.5 17.5,145.5 17.5,143.5C 20.8806,142.888 23.2139,144.054 24.5,147C 24.1639,148.03 23.4972,148.53 22.5,148.5 Z M 22.5,145.5 C 22.5,146.167 22.5,146.833 22.5,147.5C 18.5,146.833 18.5,146.167 22.5,145.5 Z"/></g>
<g><path style="opacity:0.165" fill="#cccdd1" d="M 71.5,138.5 C 78.3134,137.509 85.3134,137.175 92.5,137.5C 92.5,140.167 92.5,142.833 92.5,145.5C 88.351,144.92 84.6843,145.586 81.5,147.5C 81.44,148.043 81.1067,148.376 80.5,148.5C 79.5713,147.311 79.238,145.978 79.5,144.5C 83.5,144.5 87.5,144.5 91.5,144.5C 91.5,142.5 91.5,140.5 91.5,138.5C 85.1667,138.5 78.8333,138.5 72.5,138.5C 72.1667,138.5 71.8333,138.5 71.5,138.5 Z"/></g>
<g><path style="opacity:0.165" fill="#bdc0c7" d="M 183.5,137.5 C 190.5,137.5 197.5,137.5 204.5,137.5C 204.892,140.722 204.392,143.722 203,146.5C 201.262,145.873 199.429,145.54 197.5,145.5C 195.36,145.556 193.694,146.223 192.5,147.5C 191.493,147.548 191.16,146.548 191.5,144.5C 195.5,144.5 199.5,144.5 203.5,144.5C 203.5,142.5 203.5,140.5 203.5,138.5C 197.167,138.5 190.833,138.5 184.5,138.5C 184.5,147.167 184.5,155.833 184.5,164.5C 183.507,155.682 183.173,146.682 183.5,137.5 Z"/></g>
<g><path style="opacity:0.502" fill="#c8cacf" d="M 280.5,166.5 C 280.5,159.167 280.5,151.833 280.5,144.5C 283.167,144.5 285.833,144.5 288.5,144.5C 288.5,142.5 288.5,140.5 288.5,138.5C 280.833,138.5 273.167,138.5 265.5,138.5C 265.5,140.5 265.5,142.5 265.5,144.5C 268.167,144.5 270.833,144.5 273.5,144.5C 273.5,151.5 273.5,158.5 273.5,165.5C 275.735,165.205 277.735,165.539 279.5,166.5C 277.167,166.5 274.833,166.5 272.5,166.5C 272.286,159.393 272.286,152.559 272.5,146C 269.854,145.503 267.187,145.336 264.5,145.5C 263.629,142.728 263.629,140.062 264.5,137.5C 272.833,137.5 281.167,137.5 289.5,137.5C 289.665,140.518 289.498,143.518 289,146.5C 286.619,145.565 284.119,145.232 281.5,145.5C 281.825,152.687 281.491,159.687 280.5,166.5 Z"/></g>
<g><path style="opacity:1" fill="#5a688b" d="M 280.5,166.5 C 280.167,166.5 279.833,166.5 279.5,166.5C 277.735,165.539 275.735,165.205 273.5,165.5C 273.5,158.5 273.5,151.5 273.5,144.5C 270.833,144.5 268.167,144.5 265.5,144.5C 265.5,142.5 265.5,140.5 265.5,138.5C 273.167,138.5 280.833,138.5 288.5,138.5C 288.5,140.5 288.5,142.5 288.5,144.5C 285.833,144.5 283.167,144.5 280.5,144.5C 280.5,151.833 280.5,159.167 280.5,166.5 Z"/></g>
<g><path style="opacity:1" fill="#9398a8" d="M 171.5,140.5 C 173.828,142.166 174.828,144.499 174.5,147.5C 174.512,151.139 173.179,154.139 170.5,156.5C 169.957,156.44 169.624,156.107 169.5,155.5C 172.725,150.951 173.392,145.951 171.5,140.5 Z"/></g>
<g><path style="opacity:0.055" fill="#ecebe8" d="M 22.5,145.5 C 18.5,146.167 18.5,146.833 22.5,147.5C 22.5,147.833 22.5,148.167 22.5,148.5C 21.1667,148.5 19.8333,148.5 18.5,148.5C 18.5,147.167 18.5,145.833 18.5,144.5C 20.099,144.232 21.4324,144.566 22.5,145.5 Z"/></g>
<g><path style="opacity:0.933" fill="#939aab" d="M 137.5,139.5 C 139.833,139.833 141.167,141.167 141.5,143.5C 141.5,145.167 141.5,146.833 141.5,148.5C 138.833,148.5 136.167,148.5 133.5,148.5C 133.443,147.391 133.11,146.391 132.5,145.5C 134.916,146.968 137.583,147.635 140.5,147.5C 140.534,144.42 139.534,141.753 137.5,139.5 Z"/></g>
<g><path style="opacity:0.729" fill="#b2b5be" d="M 117.5,145.5 C 117.784,147.415 117.451,149.081 116.5,150.5C 115.322,148.662 115.655,146.995 117.5,145.5 Z"/></g>
<g><path style="opacity:0.38" fill="#b8bbc2" d="M 126.5,146.5 C 125.167,149.833 125.167,153.167 126.5,156.5C 125.235,155.486 124.569,153.986 124.5,152C 124.667,150.5 124.833,149 125,147.5C 125.383,146.944 125.883,146.611 126.5,146.5 Z"/></g>
<g><path style="opacity:0.165" fill="#d8d8d9" d="M 141.5,143.5 C 143.996,146.099 143.83,148.433 141,150.5C 138.393,149.877 135.893,149.21 133.5,148.5C 136.167,148.5 138.833,148.5 141.5,148.5C 141.5,146.833 141.5,145.167 141.5,143.5 Z"/></g>
<g><path style="opacity:0.553" fill="#c1c4ca" d="M 228.5,156.5 C 228.286,154.856 228.62,153.356 229.5,152C 229.263,147.597 226.93,145.43 222.5,145.5C 222.5,149.5 222.5,153.5 222.5,157.5C 221.515,153.366 221.182,149.032 221.5,144.5C 230.51,144.811 232.843,148.811 228.5,156.5 Z"/></g>
<g><path style="opacity:0.427" fill="#bfc2c8" d="M 60.5,147.5 C 61.6378,150.304 61.8045,153.304 61,156.5C 57.6064,155.544 54.1064,155.211 50.5,155.5C 53.6248,154.521 56.9581,154.187 60.5,154.5C 60.5,152.167 60.5,149.833 60.5,147.5 Z"/></g>
<g><path style="opacity:0.427" fill="#c7c9ce" d="M 91.5,154.5 C 88.3752,155.479 85.0419,155.813 81.5,155.5C 81.5,156.5 81.5,157.5 81.5,158.5C 79.8235,157.817 79.1568,156.483 79.5,154.5C 83.5,154.5 87.5,154.5 91.5,154.5 Z"/></g>
<g><path style="opacity:0.427" fill="#b8babd" d="M 202.5,148.5 C 203.468,150.607 203.802,152.941 203.5,155.5C 199.833,155.5 196.167,155.5 192.5,155.5C 192.5,156.5 192.5,157.5 192.5,158.5C 191.566,157.432 191.232,156.099 191.5,154.5C 195.167,154.5 198.833,154.5 202.5,154.5C 202.5,152.5 202.5,150.5 202.5,148.5 Z"/></g>
<g><path style="opacity:0.502" fill="#b5b7bd" d="M 238.5,149.5 C 238.841,153.16 238.175,156.493 236.5,159.5C 236.753,155.96 237.419,152.627 238.5,149.5 Z"/></g>
<g><path style="opacity:0.502" fill="#cdcfd2" d="M 22.5,158.5 C 23.9536,155.6 22.9536,154.267 19.5,154.5C 19.5,155.833 19.5,157.167 19.5,158.5C 18.5489,157.081 18.2155,155.415 18.5,153.5C 20.4672,153.261 22.3005,153.594 24,154.5C 24.8442,156.463 24.3442,157.796 22.5,158.5 Z M 22.5,158.5 C 21.5,158.5 20.5,158.5 19.5,158.5C 19.5,157.167 19.5,155.833 19.5,154.5C 22.9536,154.267 23.9536,155.6 22.5,158.5 Z"/></g>
<g><path style="opacity:0.427" fill="#c2c4ca" d="M 115.5,152.5 C 117.273,155.18 118.607,158.18 119.5,161.5C 118.067,160.167 116.733,158.667 115.5,157C 115.966,155.701 115.966,154.201 115.5,152.5 Z"/></g>
<g><path style="opacity:1" fill="#a3a7b4" d="M 139.5,162.5 C 140.455,160.254 141.122,157.921 141.5,155.5C 139.076,155.192 136.743,155.526 134.5,156.5C 134.038,158.291 132.871,159.291 131,159.5C 128.648,159.586 127.148,158.586 126.5,156.5C 127.577,157.018 128.744,157.352 130,157.5C 132.419,155.699 135.252,154.699 138.5,154.5C 140.167,154.833 141.833,155.167 143.5,155.5C 142.9,158.349 141.567,160.682 139.5,162.5 Z"/></g>
<g><path style="opacity:0.353" fill="#d6d7d9" d="M 139.5,162.5 C 138.167,163.933 136.667,165.267 135,166.5C 134.601,166.272 134.435,165.938 134.5,165.5C 135.659,163.75 137.326,162.75 139.5,162.5 Z"/></g>
<g><path style="opacity:0.729" fill="#c6c9d0" d="M 23.5,137.5 C 19.3656,138.485 15.0323,138.818 10.5,138.5C 10.5,147.167 10.5,155.833 10.5,164.5C 17.6768,165.002 24.6768,164.335 31.5,162.5C 30.2511,164.136 28.5844,165.303 26.5,166C 20.6429,166.676 15.1429,166.509 10,165.5C 9.50021,156.173 9.33355,146.839 9.5,137.5C 14.1667,137.5 18.8333,137.5 23.5,137.5 Z"/></g>
<g><path style="opacity:0.729" fill="#aaaeb7" d="M 41.5,138.5 C 41.8333,138.5 42.1667,138.5 42.5,138.5C 42.5,147.167 42.5,155.833 42.5,164.5C 48.8333,164.5 55.1667,164.5 61.5,164.5C 61.5,162.5 61.5,160.5 61.5,158.5C 62.4731,160.948 62.8064,163.615 62.5,166.5C 55.5778,166.812 48.7445,166.479 42,165.5C 41.5002,156.506 41.3336,147.506 41.5,138.5 Z"/></g>
<g><path style="opacity:0.729" fill="#a3a6af" d="M 71.5,138.5 C 71.8333,138.5 72.1667,138.5 72.5,138.5C 72.5,147.167 72.5,155.833 72.5,164.5C 79.1667,164.5 85.8333,164.5 92.5,164.5C 92.3893,165.117 92.056,165.617 91.5,166C 84.392,166.924 77.392,166.591 70.5,165C 71.4586,155.943 71.792,147.109 71.5,138.5 Z"/></g>
<g><path style="opacity:0.729" fill="#9ea3b1" d="M 202.5,158.5 C 203.725,159.152 204.392,160.319 204.5,162C 204.392,163.681 203.725,164.848 202.5,165.5C 196.31,165.823 190.31,165.49 184.5,164.5C 190.5,164.5 196.5,164.5 202.5,164.5C 202.5,162.5 202.5,160.5 202.5,158.5 Z"/></g>
<g><path style="opacity:0.235" fill="#d4d6d9" d="M 119.5,161.5 C 123.629,164.369 128.295,165.702 133.5,165.5C 127.906,167.546 123.24,166.213 119.5,161.5 Z"/></g>
<g><path style="opacity:0.012" fill="#e0e1e1" d="M 160.5,157.5 C 161.189,156.226 162.023,156.226 163,157.5C 164.167,159.833 165.333,162.167 166.5,164.5C 167.833,164.833 169.167,165.167 170.5,165.5C 172.333,165.415 173.666,164.748 174.5,163.5C 175.404,164.209 175.737,165.209 175.5,166.5C 172.15,166.665 168.817,166.498 165.5,166C 164.286,162.806 162.62,159.972 160.5,157.5 Z"/></g>
<g><path style="opacity:0.012" fill="#f9f8f7" d="M 227.5,164.5 C 228.5,164.5 229.5,164.5 230.5,164.5C 230.082,165.222 229.416,165.722 228.5,166C 223.316,166.816 218.316,166.65 213.5,165.5C 218.363,165.819 223.03,165.486 227.5,164.5 Z"/></g>
</svg>
