<svg width="184" height="40" viewBox="0 0 184 40" fill="none" xmlns="http://www.w3.org/2000/svg">
<path d="M32.0834 40H7.91668C3.47223 40 0 36.4262 0 32.165V7.6976C0 3.43643 3.47223 0 7.91668 0H32.0834C36.3889 0 40 3.43643 40 7.83506V32.3024C40 36.4262 36.3889 40 32.0834 40Z" fill="url(#paint0_linear_3120_11838)"/>
<path fill-rule="evenodd" clip-rule="evenodd" d="M7.50038 25V17.5H15.0004V25H22.5V32.5H7.5V25H7.50038Z" fill="#FEFEF9"/>
<path fill-rule="evenodd" clip-rule="evenodd" d="M32.4996 15L32.4996 22.5L24.9996 22.5L24.9996 15L17.5 15L17.5 7.50003L32.5 7.50003L32.5 15L32.4996 15Z" fill="#FEFEF9"/>
<path fill-rule="evenodd" clip-rule="evenodd" d="M52.9727 7.02734L56.4127 10.4501H67.9533V32.9734H71.5043V10.4501H86.4854L83.2673 7.02734H52.9727Z" fill="white"/>
<path d="M115.499 10.3887C120.26 10.3887 124.134 14.0651 124.134 18.5819V21.4181C124.134 25.9349 120.26 29.6113 115.499 29.6113H102.989H100.442L102.989 32.9727H115.388C122.031 32.9727 127.566 27.8256 127.566 21.4181V18.5819C127.566 12.2794 122.142 7.02734 115.388 7.02734H102.989C96.3461 7.02734 90.8105 12.1744 90.8105 18.5819V22.2584H94.3533V18.5819C94.3533 14.0651 98.2281 10.3887 102.989 10.3887H115.499Z" fill="white"/>
<path fill-rule="evenodd" clip-rule="evenodd" d="M137.302 24.7331H156.713C162.666 24.7331 166.484 21.2552 166.484 15.8802C166.484 10.5053 162.666 7.02734 156.713 7.02734H131.891L134.923 10.3999H156.713C162.104 10.3999 162.89 13.8778 162.89 15.8802C162.89 17.8827 162.104 21.3606 156.713 21.3606H133.8V21.3788H133.708V32.9718H137.302V24.7331Z" fill="white"/>
<path fill-rule="evenodd" clip-rule="evenodd" d="M183.781 7.02734V32.9727H180.217V12.7498L176.915 16.9908L174.051 14.9745L180.214 7.05911L180.217 7.06159V7.02734H183.781Z" fill="white"/>
<defs>
<linearGradient id="paint0_linear_3120_11838" x1="-1.88236" y1="64.9999" x2="42.0957" y2="64.8553" gradientUnits="userSpaceOnUse">
<stop stop-color="#408E9B"/>
<stop offset="1" stop-color="#4AB6DA"/>
</linearGradient>
</defs>
</svg>
