<?xml version="1.0" encoding="UTF-8"?>
<!DOCTYPE svg PUBLIC "-//W3C//DTD SVG 1.1//EN" "http://www.w3.org/Graphics/SVG/1.1/DTD/svg11.dtd">
<svg xmlns="http://www.w3.org/2000/svg" version="1.1" width="792px" height="171px" style="shape-rendering:geometricPrecision; text-rendering:geometricPrecision; image-rendering:optimizeQuality; fill-rule:evenodd; clip-rule:evenodd" xmlns:xlink="http://www.w3.org/1999/xlink">
<g><path style="opacity:1" fill="#f90000" d="M 233.5,6.5 C 246.5,6.5 259.5,6.5 272.5,6.5C 272.333,38.5017 272.5,70.5017 273,102.5C 275.04,121.535 285.707,131.202 305,131.5C 315.874,131.548 324.874,127.548 332,119.5C 333.725,116.326 335.058,112.993 336,109.5C 337.444,75.195 337.944,40.8617 337.5,6.5C 350.5,6.5 363.5,6.5 376.5,6.5C 376.667,42.8349 376.5,79.1682 376,115.5C 371.541,140.295 357.041,155.795 332.5,162C 306.819,168.212 282.152,165.545 258.5,154C 244.956,145.095 236.789,132.595 234,116.5C 233.5,79.8348 233.333,43.1682 233.5,6.5 Z"/></g>
<g><path style="opacity:1" fill="#f90000" d="M 8.5,9.5 C 26.6102,14.8334 42.4435,24.5001 56,38.5C 64.2025,49.5647 70.8692,61.5647 76,74.5C 77.1353,89.9488 77.6353,105.449 77.5,121C 77.496,135.406 77.1626,149.74 76.5,164C 44.7292,155.582 22.8958,135.749 11,104.5C 10,101.833 9,99.1667 8,96.5C 7.18307,67.4579 7.34973,38.4579 8.5,9.5 Z"/></g>
<g><path style="opacity:1" fill="#f90000" d="M 155.5,9.5 C 156.573,10.6579 157.739,10.6579 159,9.5C 159.945,9.90536 160.612,10.572 161,11.5C 161.667,39.8333 161.667,68.1667 161,96.5C 154.894,115.897 144.394,132.397 129.5,146C 120.262,152.45 110.595,158.117 100.5,163C 97.9234,164.25 95.2567,164.584 92.5,164C 91.8374,149.74 91.504,135.406 91.5,121C 91.3647,105.449 91.8647,89.9488 93,74.5C 98.1308,61.5647 104.798,49.5647 113,38.5C 116.867,34.2984 121.033,30.4651 125.5,27C 135.399,20.8877 145.399,15.0544 155.5,9.5 Z"/></g>
<g><path style="opacity:1" fill="#f90000" d="M 473.5,44.5 C 485.279,43.87 496.279,46.37 506.5,52C 514.79,58.8492 519.29,67.6826 520,78.5C 520.5,106.498 520.667,134.498 520.5,162.5C 507.167,162.5 493.833,162.5 480.5,162.5C 480.667,136.831 480.5,111.165 480,85.5C 477.32,77.4678 471.653,73.8011 463,74.5C 454.54,75.1483 447.04,78.1483 440.5,83.5C 439.5,109.825 439.167,136.158 439.5,162.5C 426.167,162.5 412.833,162.5 399.5,162.5C 399.5,124.167 399.5,85.8333 399.5,47.5C 411.833,47.5 424.167,47.5 436.5,47.5C 436.804,50.5219 437.304,53.5219 438,56.5C 449.014,49.7736 460.847,45.7736 473.5,44.5 Z"/></g>
<g><path style="opacity:1" fill="#f90000" d="M 591.5,44.5 C 640.399,45.083 661.399,69.7496 654.5,118.5C 627.833,118.5 601.167,118.5 574.5,118.5C 577.778,129.265 585.111,135.098 596.5,136C 614.171,138.458 631.504,136.958 648.5,131.5C 648.817,140.418 648.484,149.251 647.5,158C 622.365,166.832 597.032,167.499 571.5,160C 547.254,149.873 535.587,131.539 536.5,105C 536.677,68.0006 555.011,47.8339 591.5,44.5 Z M 589.5,72.5 C 595.176,72.3339 600.843,72.5006 606.5,73C 617.068,76.2913 621.402,83.458 619.5,94.5C 604.167,94.5 588.833,94.5 573.5,94.5C 573.178,82.8497 578.511,75.5163 589.5,72.5 Z"/></g>
<g><path style="opacity:1" fill="#f90000" d="M 658.5,47.5 C 673.182,47.1674 687.848,47.5007 702.5,48.5C 708.815,57.4758 715.481,66.1425 722.5,74.5C 729.277,65.7947 735.943,56.9614 742.5,48C 757.167,47.3333 771.833,47.3333 786.5,48C 772.5,66.6667 758.5,85.3333 744.5,104C 759.167,123.333 773.833,142.667 788.5,162C 773.489,162.833 758.489,162.666 743.5,161.5C 736.525,152.024 729.358,142.691 722,133.5C 715.218,143.283 708.051,152.783 700.5,162C 685.833,162.667 671.167,162.667 656.5,162C 671.167,142.667 685.833,123.333 700.5,104C 686.116,85.3749 672.116,66.5416 658.5,47.5 Z"/></g>
</svg>
