<?xml version="1.0" encoding="UTF-8"?>
<svg version="1.1" xmlns="http://www.w3.org/2000/svg" width="334" height="96">
<path d="M0 0 C1.02287109 0.56267578 1.02287109 0.56267578 2.06640625 1.13671875 C4.12335132 2.33100588 4.12335132 2.33100588 6.52734375 3.01953125 C10.15856637 4.21424469 12.43954185 5.23350694 14.61328125 8.45703125 C18.24864047 16.98950668 17.92177815 25.84692244 15.0234375 34.5625 C11.43855576 42.57340891 6.49213158 48.06311628 -1.703125 51.40234375 C-9.47440008 53.47915002 -18.16686816 53.56390529 -25.5 50.0625 C-32.58232055 45.87163925 -38.11661364 39.66041957 -40.6875 31.75 C-40.7803125 30.5125 -40.7803125 30.5125 -40.875 29.25 C-40.978125 28.05375 -41.08125 26.8575 -41.1875 25.625 C-41.10096846 19.11041084 -38.46860554 13.00816344 -35.25 7.4375 C-25.87444429 -1.19788026 -12.1441729 -5.49071647 0 0 Z " fill="#FAE62B" transform="translate(57.875,23.75)"/>
<path d="M0 0 C2.97 0 5.94 0 9 0 C9 13.86 9 27.72 9 42 C5.33333333 42 1.66666667 42 -2 42 C-3.21429688 42.10441406 -3.21429688 42.10441406 -4.453125 42.2109375 C-9.58758185 42.51212072 -13.06839987 42.59605405 -17.125 39.1875 C-20.5647497 35.85472816 -21.16435721 32.82107953 -21.25 28.125 C-21.17565016 22.44136758 -19.76004994 19.81033708 -15.8125 15.75 C-12.29155518 13.55918989 -9.14764797 12.76433818 -5 13 C-3.35 13.66 -1.7 14.32 0 15 C0 10.05 0 5.1 0 0 Z M-11.4375 23.125 C-13.24870485 25.91225693 -13.24870485 25.91225693 -13 29.125 C-12.1925204 32.02189293 -12.1925204 32.02189293 -10.3125 33.9375 C-7.16096578 35.38550221 -5.29050737 34.929926 -2 34 C0.4282022 32.00442887 0.4282022 32.00442887 0.3125 28.0625 C0.2339218 25.51564191 0.13665953 24.24295027 -1.125 22 C-5.17093489 19.84216806 -8.0180448 20.14393649 -11.4375 23.125 Z " fill="#283055" transform="translate(285,24)"/>
<path d="M0 0 C3.10521047 2.469369 3.74605738 4.87689894 4.6875 8.6875 C4.93886719 9.68136719 5.19023438 10.67523438 5.44921875 11.69921875 C5.63097656 12.45847656 5.81273437 13.21773437 6 14 C4.26250893 15.73749107 1.98951518 15.294321 -0.375 15.375 C-5.67310209 15.32689791 -5.67310209 15.32689791 -8.1875 12.8125 C-8.99087428 10.03158904 -9.24644508 7.87519259 -9 5 C-10.65 5 -12.3 5 -14 5 C-13.505 6.485 -13.505 6.485 -13 8 C-12.76811378 10.72331488 -12.86906632 13.25039269 -13 16 C-15.49475413 18.49475413 -17.34696473 18.81981066 -20.75 19.6875 C-22.28914063 20.09548828 -22.28914063 20.09548828 -23.859375 20.51171875 C-27.24006686 21.03732383 -29.69676186 20.85213969 -33 20 C-35.16898181 17.14088761 -35 15.71556422 -35 12 C-35.60328125 12.49371094 -36.2065625 12.98742188 -36.828125 13.49609375 C-37.62734375 14.13675781 -38.4265625 14.77742188 -39.25 15.4375 C-40.03890625 16.07558594 -40.8278125 16.71367188 -41.640625 17.37109375 C-43.86247492 18.90505305 -45.36743482 19.57130246 -48 20 C-47.34311888 14.16105668 -44.32051954 11.30878967 -40.171875 7.3828125 C-29.62885862 -0.5374338 -12.77616698 -2.66331441 0 0 Z " fill="#303655" transform="translate(69,29)"/>
<path d="M0 0 C1.65625 1.2890625 1.65625 1.2890625 4.09375 3.9140625 C4.09375 4.9040625 4.09375 5.8940625 4.09375 6.9140625 C2.09375 8.6015625 2.09375 8.6015625 0.09375 9.9140625 C-3.78125 8.0390625 -3.78125 8.0390625 -4.90625 6.9140625 C-6.90583364 6.87325467 -8.90670254 6.87151894 -10.90625 6.9140625 C-11.23625 8.2340625 -11.56625 9.5540625 -11.90625 10.9140625 C-11.101875 11.1409375 -10.2975 11.3678125 -9.46875 11.6015625 C-3.86188501 13.6672496 1.71883163 15.85168494 5.09375 20.9140625 C5.85954737 27.58743955 5.85954737 27.58743955 4.04296875 30.734375 C2.26626621 32.90415332 0.61866118 34.65160691 -1.90625 35.9140625 C-7.54289961 36.42878649 -12.36109372 36.70019464 -17.46875 34.1015625 C-18.273125 33.3796875 -19.0775 32.6578125 -19.90625 31.9140625 C-20.525 31.3778125 -21.14375 30.8415625 -21.78125 30.2890625 C-22.90625 28.9140625 -22.90625 28.9140625 -22.90625 26.9140625 C-20.65625 25.1640625 -20.65625 25.1640625 -17.90625 23.9140625 C-15.78125 24.6015625 -15.78125 24.6015625 -13.90625 25.9140625 C-10.4710452 28.20419903 -8.920919 28.09249223 -4.90625 27.9140625 C-4.57625 26.2640625 -4.24625 24.6140625 -3.90625 22.9140625 C-4.73125 22.6871875 -5.55625 22.4603125 -6.40625 22.2265625 C-11.77012255 20.21511029 -18.28979305 17.31050496 -20.90625 11.9140625 C-21.33996102 8.51665952 -21.10296024 6.4116237 -19.84375 3.2265625 C-14.8521501 -2.73115351 -6.72205783 -3.82936901 0 0 Z " fill="#283055" transform="translate(105.90625,30.0859375)"/>
<path d="M0 0 C2.66582349 2.13781014 4.02838812 3.65547686 5.1171875 6.921875 C5.1171875 9.891875 5.1171875 12.861875 5.1171875 15.921875 C-0.8228125 16.251875 -6.7628125 16.581875 -12.8828125 16.921875 C-12.8828125 17.581875 -12.8828125 18.241875 -12.8828125 18.921875 C-11.29957562 18.949068 -9.71620188 18.96835806 -8.1328125 18.984375 C-7.25109375 18.99597656 -6.369375 19.00757812 -5.4609375 19.01953125 C-3.1009287 18.93013698 -1.13782726 18.59100321 1.1171875 17.921875 C4.1171875 21.671875 4.1171875 21.671875 4.1171875 23.921875 C-1.50962584 27.67308389 -7.26953392 27.73832915 -13.8828125 26.921875 C-18.33692614 24.8120317 -21.07572699 22.53998242 -22.8828125 17.921875 C-23.57110856 12.8488781 -23.47689438 9.08882154 -21.1328125 4.484375 C-15.5706895 -1.85026508 -7.84983532 -4.49492645 0 0 Z M-12.1953125 6.234375 C-12.7521875 6.79125 -13.3090625 7.348125 -13.8828125 7.921875 C-13.8828125 8.581875 -13.8828125 9.241875 -13.8828125 9.921875 C-10.2528125 9.921875 -6.6228125 9.921875 -2.8828125 9.921875 C-4.37983026 5.81491573 -4.37983026 5.81491573 -7.2578125 4.984375 C-9.94525917 4.69531276 -9.94525917 4.69531276 -12.1953125 6.234375 Z " fill="#283055" transform="translate(254.8828125,39.078125)"/>
<path d="M0 0 C3.18473393 2.73042096 4.74799106 4.37668379 5.39648438 8.55395508 C5.4918753 11.50980539 5.43640417 14.42036216 5.3125 17.375 C5.28994141 18.39722656 5.26738281 19.41945313 5.24414062 20.47265625 C5.18548082 22.98329581 5.10345928 25.49087379 5 28 C2.36 28 -0.28 28 -3 28 C-3.06058594 26.72382812 -3.12117188 25.44765625 -3.18359375 24.1328125 C-3.26799568 22.46352984 -3.35264386 20.79425963 -3.4375 19.125 C-3.47681641 18.28324219 -3.51613281 17.44148438 -3.55664062 16.57421875 C-3.59853516 15.76855469 -3.64042969 14.96289062 -3.68359375 14.1328125 C-3.72025146 13.38918457 -3.75690918 12.64555664 -3.79467773 11.87939453 C-3.89955865 9.91135688 -3.89955865 9.91135688 -5 8 C-7.31 8 -9.62 8 -12 8 C-12.33 14.6 -12.66 21.2 -13 28 C-15.64 28 -18.28 28 -21 28 C-21 18.76 -21 9.52 -21 0 C-17.7 0 -14.4 0 -11 0 C-7.22869715 -1.25710095 -3.70253542 -1.45795809 0 0 Z " fill="#283055" transform="translate(170,38)"/>
<path d="M0 0 C2.97 0 5.94 0 9 0 C9.33 6.27 9.66 12.54 10 19 C12.31 19.33 14.62 19.66 17 20 C17.33 13.4 17.66 6.8 18 0 C20.97 0 23.94 0 27 0 C27.05447822 2.52113092 27.09389852 5.0410585 27.125 7.5625 C27.14175781 8.26697266 27.15851563 8.97144531 27.17578125 9.69726562 C27.23258157 15.86010048 26.62278018 21.04434183 22.5625 25.9375 C18.22941731 29.17130309 13.13514731 28.70559276 8 28 C4.47930504 26.67973939 3.40996597 25.63529835 1.38671875 22.5 C-0.43172398 17.91035299 -0.33080995 14.0048874 -0.1875 9.125 C-0.17396484 8.24585938 -0.16042969 7.36671875 -0.14648438 6.4609375 C-0.11136623 4.30702448 -0.05756694 2.15342996 0 0 Z " fill="#283055" transform="translate(116,38)"/>
<path d="M0 0 C2.5625 2.125 2.5625 2.125 3.5625 5.125 C-1.1875 9.125 -1.1875 9.125 -3.4375 9.125 C-3.829375 8.609375 -4.22125 8.09375 -4.625 7.5625 C-6.5273438 5.72215512 -6.5273438 5.72215512 -10.0625 6.375 C-13.26013935 6.76868085 -13.26013935 6.76868085 -14.4375 8.125 C-14.76210261 12.15583011 -14.76210261 12.15583011 -14.4375 16.125 C-11.62743012 18.44851206 -11.62743012 18.44851206 -8.5 17.875 C-5.84223321 17.22411834 -3.79232933 16.48355538 -1.4375 15.125 C0.2125 16.775 1.8625 18.425 3.5625 20.125 C0.7036541 23.50729655 -1.90246036 25.77851362 -6.29296875 26.76953125 C-12.00871254 27.08103566 -15.68601853 26.56487642 -20.125 22.8125 C-23.50802847 19.47149673 -24.3489856 17.18717281 -24.75 12.375 C-24.67975359 7.60702498 -23.2287518 4.97240114 -20.4375 1.125 C-13.89336213 -3.7831034 -7.11841409 -3.88277132 0 0 Z " fill="#283055" transform="translate(204.4375,39.875)"/>
<path d="M0 0 C2.64 0 5.28 0 8 0 C8 2.31 8 4.62 8 7 C10.64 7 13.28 7 16 7 C16 9.31 16 11.62 16 14 C13.36 14 10.72 14 8 14 C8.14084796 15.79206547 8.28783701 17.58364917 8.4375 19.375 C8.51871094 20.37273438 8.59992188 21.37046875 8.68359375 22.3984375 C8.84965626 24.97927613 8.84965626 24.97927613 10 27 C12.32156597 27.40729228 14.6568787 27.74438677 17 28 C17 30.31 17 32.62 17 35 C15.25034642 35.05429959 13.50020213 35.09292823 11.75 35.125 C10.77546875 35.14820313 9.8009375 35.17140625 8.796875 35.1953125 C5.89741737 34.99283641 4.3655583 34.66426446 2 33 C-0.66718221 29.47730651 -0.22872098 25.47064591 -0.125 21.25 C-0.11597656 20.55261719 -0.10695313 19.85523437 -0.09765625 19.13671875 C-0.07419888 17.42433042 -0.03833104 15.71211996 0 14 C-1.32 14 -2.64 14 -4 14 C-4 11.69 -4 9.38 -4 7 C-2.68 7 -1.36 7 0 7 C0 4.69 0 2.38 0 0 Z " fill="#283055" transform="translate(317,31)"/>
<path d="M0 0 C6 0 12 0 18 0 C18 2.31 18 4.62 18 7 C16.865625 7.28875 15.73125 7.5775 14.5625 7.875 C13.386875 8.24625 12.21125 8.6175 11 9 C9.3501993 12.29960141 9.61741639 15.99127884 9.4375 19.625 C9.39431641 20.42679688 9.35113281 21.22859375 9.30664062 22.0546875 C9.20048543 24.0362511 9.09973145 26.01810271 9 28 C6.03 28 3.06 28 0 28 C0 18.76 0 9.52 0 0 Z " fill="#283055" transform="translate(212,38)"/>
<path d="M0 0 C2.97 0 5.94 0 9 0 C9 9.24 9 18.48 9 28 C6.03 28 3.06 28 0 28 C0 18.76 0 9.52 0 0 Z " fill="#283055" transform="translate(300,38)"/>
<path d="M0 0 C3.5 -0.3125 3.5 -0.3125 7 0 C9 2 9 2 9.375 4.4375 C9 7 9 7 7.375 8.9375 C5 10 5 10 1.75 9.1875 C0.38875 8.5996875 0.38875 8.5996875 -1 8 C-1.625 5.6875 -1.625 5.6875 -2 3 C-1.34 2.01 -0.68 1.02 0 0 Z " fill="#283055" transform="translate(301,24)"/>
<path d="M0 0 C0.515625 0.639375 1.03125 1.27875 1.5625 1.9375 C4.65935623 4.55791681 7.02067623 4.69389817 11 5 C10.34 6.65 9.68 8.3 9 10 C2.53851907 11.34106208 2.53851907 11.34106208 0.125 9.8125 C-1.08035336 7.87054181 -1.6130131 6.24452405 -2 4 C-1.34 3.67 -0.68 3.34 0 3 C0 2.01 0 1.02 0 0 Z " fill="#3F4459" transform="translate(36,39)"/>
<path d="M0 0 C-0.33 4.29 -0.66 8.58 -1 13 C-1.66 13 -2.32 13 -3 13 C-4.98 9.37 -6.96 5.74 -9 2 C-3.375 0 -3.375 0 0 0 Z " fill="#FFDC1B" transform="translate(56,79)"/>
<path d="M0 0 C3.63 1.98 7.26 3.96 11 6 C9 10 9 10 6 12 C5.01 12 4.02 12 3 12 C2.49440092 10.56445975 1.9957251 9.1264798 1.5 7.6875 C1.2215625 6.88699219 0.943125 6.08648437 0.65625 5.26171875 C0 3 0 3 0 0 Z " fill="#FFDD1B" transform="translate(17,13)"/>
<path d="M0 0 C5.625 2.25 5.625 2.25 8 6 C6.3811004 7.03048037 4.75467511 8.04914678 3.125 9.0625 C2.22007813 9.63097656 1.31515625 10.19945313 0.3828125 10.78515625 C-0.40351563 11.18605469 -1.18984375 11.58695313 -2 12 C-2.66 11.67 -3.32 11.34 -4 11 C-2.68 7.37 -1.36 3.74 0 0 Z " fill="#FFDC1B" transform="translate(20,71)"/>
<path d="M0 0 C0.66 0.33 1.32 0.66 2 1 C2.4140625 3.72265625 2.4140625 3.72265625 2.625 7.0625 C2.69976562 8.16722656 2.77453125 9.27195312 2.8515625 10.41015625 C2.90054688 11.26480469 2.94953125 12.11945312 3 13 C-1.455 12.01 -1.455 12.01 -6 11 C-4.54955729 6.89041233 -2.48889248 3.56741255 0 0 Z " fill="#FFDC1B" transform="translate(54,5)"/>
<path d="M0 0 C-1.5885342 4.28904235 -4.43127368 6.32345526 -8 9 C-8.66 9 -9.32 9 -10 9 C-13 3.25 -13 3.25 -13 1 C-8.61414671 0.29826347 -4.44209357 -0.10834375 0 0 Z " fill="#FFDC1B" transform="translate(85,29)"/>
<path d="M0 0 C3.21043882 1.38188453 5.04936365 2.92421903 7.25 5.625 C7.77078125 6.25664063 8.2915625 6.88828125 8.828125 7.5390625 C9.40820312 8.26222656 9.40820312 8.26222656 10 9 C5.48382401 9.07654536 1.40914783 9.10228696 -3 8 C-1.125 2.25 -1.125 2.25 0 0 Z " fill="#FFDC1B" transform="translate(75,59)"/>
<path d="M0 0 C0 2.97 0 5.94 0 9 C-3.96 7.68 -7.92 6.36 -12 5 C-12 4.34 -12 3.68 -12 3 C-10.56445975 2.49440092 -9.1264798 1.9957251 -7.6875 1.5 C-6.88699219 1.2215625 -6.08648437 0.943125 -5.26171875 0.65625 C-3 0 -3 0 0 0 Z " fill="#FFDD1B" transform="translate(12,44)"/>
<path d="M0 0 C1.32 0 2.64 0 4 0 C4.33278764 6.81598387 4.24201565 11.92122066 1 18 C0.67 18 0.34 18 0 18 C0 12.06 0 6.12 0 0 Z " fill="#FFDC17" transform="translate(70,44)"/>
<path d="M0 0 C3.3 0 6.6 0 10 0 C9.67 1.32 9.34 2.64 9 4 C6.75 4.75 6.75 4.75 4 5 C1.6875 3.125 1.6875 3.125 0 1 C0 0.67 0 0.34 0 0 Z " fill="#959590" transform="translate(53,52)"/>
<path d="M0 0 C0.515625 0.639375 1.03125 1.27875 1.5625 1.9375 C4.65935623 4.55791681 7.02067623 4.69389817 11 5 C10.67 5.66 10.34 6.32 10 7 C7.36 7 4.72 7 2 7 C0.5393715 4.35261084 0 3.10551666 0 0 Z " fill="#8188AE" transform="translate(36,39)"/>
<path d="M0 0 C-0.66 1.32 -1.32 2.64 -2 4 C-4.97 3.505 -4.97 3.505 -8 3 C-7.67 2.34 -7.34 1.68 -7 1 C-4.61370553 0.38812962 -2.46459429 0 0 0 Z " fill="#3C4054" transform="translate(63,53)"/>
<path d="M0 0 C0.7425 0.45375 1.485 0.9075 2.25 1.375 C4.46930578 2.68640796 6.67967822 3.88280803 9 5 C6.36 5 3.72 5 1 5 C0.67 3.35 0.34 1.7 0 0 Z " fill="#7A80A2" transform="translate(62,37)"/>
</svg>
