<?xml version="1.0" encoding="UTF-8"?>
<!DOCTYPE svg PUBLIC "-//W3C//DTD SVG 1.1//EN" "http://www.w3.org/Graphics/SVG/1.1/DTD/svg11.dtd">
<svg xmlns="http://www.w3.org/2000/svg" version="1.1" width="135px" height="146px" style="shape-rendering:geometricPrecision; text-rendering:geometricPrecision; image-rendering:optimizeQuality; fill-rule:evenodd; clip-rule:evenodd" xmlns:xlink="http://www.w3.org/1999/xlink">
<g><path style="opacity:0.936" fill="#0f6e6e" d="M 64.5,14.5 C 81.6604,12.5404 97.3271,16.3738 111.5,26C 129.652,43.7513 134.152,64.5847 125,88.5C 108.752,121.38 82.2515,136.213 45.5,133C 20.7566,126.362 8.42325,110.196 8.5,84.5C 9.5,84.5 10.5,84.5 11.5,84.5C 14.6585,105.818 26.9919,115.318 48.5,113C 71.6378,107.197 84.9712,92.5308 88.5,69C 87.0855,51.752 77.7522,42.252 60.5,40.5C 57.0408,40.8911 53.7074,41.7245 50.5,43C 53.6667,45.5 56.8333,48 60,50.5C 60.4828,51.448 60.6495,52.448 60.5,53.5C 48.1583,54.2884 35.9917,54.6217 24,54.5C 22.5,54 21,53.5 19.5,53C 18.9186,52.1074 18.5852,51.1074 18.5,50C 20.3503,41.9321 22.3503,33.9321 24.5,26C 27.7417,25.0145 30.4083,25.8478 32.5,28.5C 42.294,21.6855 52.9606,17.0188 64.5,14.5 Z M 100.5,63.5 C 105.482,64.0534 110.482,64.3867 115.5,64.5C 111.221,74.3863 105.888,83.7197 99.5,92.5C 98.5923,91.21 98.759,89.8767 100,88.5C 104.064,82.7638 107.73,76.7638 111,70.5C 111.494,68.8659 111.66,67.1992 111.5,65.5C 107.081,66.931 102.748,66.7643 98.5,65C 99.4158,64.7216 100.082,64.2216 100.5,63.5 Z"/></g>
<g><path style="opacity:0.806" fill="#0e6b6b" d="M 31.5,61.5 C 35.8461,61.3343 40.1794,61.501 44.5,62C 48.8608,64.2258 50.3608,67.7258 49,72.5C 45.8588,79.6412 40.6922,84.8079 33.5,88C 37.5,88.3333 41.5,88.6667 45.5,89C 46.7468,90.4579 46.7468,91.9579 45.5,93.5C 36.6071,94.816 27.7737,94.816 19,93.5C 18.3333,92.1667 18.3333,90.8333 19,89.5C 24.5692,84.9652 30.4025,80.7986 36.5,77C 38.2095,75.0843 39.5428,72.9176 40.5,70.5C 39.8333,69.1667 38.8333,68.1667 37.5,67.5C 33.6358,69.1978 30.9691,72.0311 29.5,76C 23.1162,76.4304 21.2829,73.597 24,67.5C 26.1337,64.8474 28.6337,62.8474 31.5,61.5 Z"/></g>
<g><path style="opacity:0.796" fill="#0f6a6a" d="M 64.5,61.5 C 66.8568,61.3367 69.1902,61.5034 71.5,62C 71.9574,62.414 72.2907,62.914 72.5,63.5C 68.8923,69.772 64.8923,75.772 60.5,81.5C 62.0745,82.6309 63.7412,82.7975 65.5,82C 66.6532,79.3843 67.6532,76.7176 68.5,74C 74.9579,71.8382 77.2912,73.8382 75.5,80C 76.7862,81.9938 78.1195,83.9938 79.5,86C 78.3136,88.4307 76.3136,89.5973 73.5,89.5C 72.667,95.3347 69.8337,96.6681 65,93.5C 64.51,92.2068 64.3433,90.8734 64.5,89.5C 59.8215,89.6658 55.1548,89.4992 50.5,89C 48.1208,86.7731 47.9541,84.2731 50,81.5C 54.6646,74.6752 59.4979,68.0085 64.5,61.5 Z"/></g>
</svg>
