<?xml version="1.0" encoding="UTF-8"?>
<!DOCTYPE svg PUBLIC "-//W3C//DTD SVG 1.1//EN" "http://www.w3.org/Graphics/SVG/1.1/DTD/svg11.dtd">
<svg xmlns="http://www.w3.org/2000/svg" version="1.1" width="300px" height="118px" style="shape-rendering:geometricPrecision; text-rendering:geometricPrecision; image-rendering:optimizeQuality; fill-rule:evenodd; clip-rule:evenodd" xmlns:xlink="http://www.w3.org/1999/xlink">
<g><path style="opacity:1" fill="#9c9ea0" d="M 110.5,42.5 C 112.592,42.5614 114.092,43.5614 115,45.5C 115.667,46.5 115.667,47.5 115,48.5C 110.703,50.5788 106.203,52.0788 101.5,53C 99.2031,54.2633 98.3698,56.0966 99,58.5C 111.391,53.8848 117.391,58.2181 117,71.5C 114.009,80.58 107.843,83.7467 98.5,81C 92.0194,77.5481 89.0194,72.0481 89.5,64.5C 89.1906,57.2446 91.8573,51.4113 97.5,47C 102.02,45.679 106.353,44.179 110.5,42.5 Z M 101.5,63.5 C 107.326,63.157 109.826,65.8236 109,71.5C 104.142,75.3916 100.308,74.3916 97.5,68.5C 98.1598,66.1853 99.4931,64.5186 101.5,63.5 Z"/></g>
<g><path style="opacity:0.562" fill="#65b386" d="M 148.5,44.5 C 153.82,44.4263 155.82,47.0929 154.5,52.5C 156.5,52.5 158.5,52.5 160.5,52.5C 160.329,58.5209 158.829,64.1876 156,69.5C 155.035,71.2603 153.868,71.5937 152.5,70.5C 154.853,66.1088 156.187,61.4421 156.5,56.5C 153.753,56.1866 151.086,56.52 148.5,57.5C 147.059,65.3799 142.892,71.3799 136,75.5C 135.5,75 135,74.5 134.5,74C 141.611,68.6113 145.111,61.4446 145,52.5C 146.707,51.8617 148.54,51.8617 150.5,52.5C 150.657,51.1266 150.49,49.7932 150,48.5C 147.48,49.2066 144.98,50.04 142.5,51C 143.724,57.9947 141.724,63.9947 136.5,69C 135.833,69.6667 135.167,69.6667 134.5,69C 136.041,67.4207 137.208,65.5873 138,63.5C 139.664,58.2075 139.997,52.8742 139,47.5C 142.313,46.6802 145.479,45.6802 148.5,44.5 Z"/></g>
<g><path style="opacity:0.747" fill="#65b386" d="M 299.5,45.5 C 299.5,47.5 299.5,49.5 299.5,51.5C 295.53,54.6755 292.863,53.8421 291.5,49C 292.627,44.5936 295.294,43.427 299.5,45.5 Z"/></g>
<g><path style="opacity:0.841" fill="#66b386" d="M 163.5,45.5 C 172.167,45.5 180.833,45.5 189.5,45.5C 189.5,47.8333 189.5,50.1667 189.5,52.5C 183.167,52.5 176.833,52.5 170.5,52.5C 170.5,62.1667 170.5,71.8333 170.5,81.5C 167.813,81.6641 165.146,81.4974 162.5,81C 163.488,69.2473 163.821,57.4139 163.5,45.5 Z"/></g>
<g><path style="opacity:1" fill="#a2a3a5" d="M -0.5,44.5 C 8.83333,44.5 18.1667,44.5 27.5,44.5C 27.5,47.1667 27.5,49.8333 27.5,52.5C 24.1667,52.5 20.8333,52.5 17.5,52.5C 17.6665,61.8393 17.4998,71.1726 17,80.5C 14.6667,81.8333 12.3333,81.8333 10,80.5C 9.50021,71.1726 9.33355,61.8393 9.5,52.5C 6.16667,52.5 2.83333,52.5 -0.5,52.5C -0.5,49.8333 -0.5,47.1667 -0.5,44.5 Z"/></g>
<g><path style="opacity:1" fill="#97989a" d="M 133.5,58.5 C 132.518,57.8592 131.518,57.1925 130.5,56.5C 129.893,56.6236 129.56,56.9569 129.5,57.5C 129.5,57.8333 129.5,58.1667 129.5,58.5C 129.167,58.5 128.833,58.5 128.5,58.5C 127.833,58.5 127.5,58.8333 127.5,59.5C 126.833,59.5 126.5,59.8333 126.5,60.5C 125.833,60.5 125.5,60.8333 125.5,61.5C 123.896,62.287 123.229,63.6203 123.5,65.5C 122.167,67.1667 122.167,68.8333 123.5,70.5C 123.5,71.5 123.5,72.5 123.5,73.5C 122.833,74.1667 122.167,74.8333 121.5,75.5C 116.408,66.2548 118.408,58.7548 127.5,53C 130.726,51.8011 134.059,51.3011 137.5,51.5C 137.933,54.9811 136.599,57.3144 133.5,58.5 Z"/></g>
<g><path style="opacity:0.076" fill="#171d25" d="M 30.5,54.5 C 29.8902,55.391 29.5569,56.391 29.5,57.5C 28.1148,56.0527 28.4482,55.0527 30.5,54.5 Z"/></g>
<g><path style="opacity:0.789" fill="#65b386" d="M 200.5,54.5 C 210.466,53.7963 215.8,58.463 216.5,68.5C 214.397,81.2994 207.563,84.9661 196,79.5C 195.501,83.4862 195.334,87.4862 195.5,91.5C 192.833,91.5 190.167,91.5 187.5,91.5C 187.5,79.5 187.5,67.5 187.5,55.5C 190.711,55.012 193.544,55.6787 196,57.5C 197.652,56.6006 199.152,55.6006 200.5,54.5 Z M 200.5,61.5 C 208.896,63.1166 210.563,67.2832 205.5,74C 198.17,75.6662 195.003,72.8329 196,65.5C 197.397,63.9297 198.897,62.5964 200.5,61.5 Z"/></g>
<g><path style="opacity:0.799" fill="#65b386" d="M 227.5,54.5 C 243.06,53.5517 248.893,60.5517 245,75.5C 239.492,82.7962 232.658,84.2962 224.5,80C 217.93,74.1749 216.763,67.3416 221,59.5C 222.965,57.4497 225.132,55.783 227.5,54.5 Z M 231.5,61.5 C 238.103,62.3515 240.27,66.0181 238,72.5C 229.33,76.6669 225.664,74.0003 227,64.5C 228.409,63.2189 229.909,62.2189 231.5,61.5 Z"/></g>
<g><path style="opacity:1" fill="#a0a1a3" d="M 72.5,53.5 C 83.3786,54.5514 88.212,60.5514 87,71.5C 82.8945,82.0121 76.2278,84.3454 67,78.5C 66.6667,82.8333 66.3333,87.1667 66,91.5C 63.5676,90.7071 61.2342,90.3737 59,90.5C 58.3333,78.8333 58.3333,67.1667 59,55.5C 61.3806,54.565 63.8806,54.2317 66.5,54.5C 66.3505,55.552 66.5172,56.552 67,57.5C 68.4998,55.5313 70.3331,54.198 72.5,53.5 Z M 70.5,61.5 C 78.8448,61.6908 81.1781,65.5241 77.5,73C 69.9505,75.9838 66.4505,73.4838 67,65.5C 67.6897,63.6498 68.8564,62.3164 70.5,61.5 Z"/></g>
<g><path style="opacity:0.797" fill="#65b386" d="M 249.5,55.5 C 252.167,55.5 254.833,55.5 257.5,55.5C 257.5,61.8333 257.5,68.1667 257.5,74.5C 259.833,74.5 262.167,74.5 264.5,74.5C 264.334,68.4908 264.501,62.4908 265,56.5C 267.381,55.565 269.881,55.2317 272.5,55.5C 272.5,61.8333 272.5,68.1667 272.5,74.5C 275.167,74.5 277.833,74.5 280.5,74.5C 280.5,68.1667 280.5,61.8333 280.5,55.5C 283.119,55.2317 285.619,55.565 288,56.5C 288.815,64.7457 288.648,72.9124 287.5,81C 274.838,81.4999 262.171,81.6666 249.5,81.5C 249.5,72.8333 249.5,64.1667 249.5,55.5 Z"/></g>
<g><path style="opacity:0.76" fill="#65b386" d="M 299.5,55.5 C 299.5,64.1667 299.5,72.8333 299.5,81.5C 296.833,81.5 294.167,81.5 291.5,81.5C 291.5,72.8333 291.5,64.1667 291.5,55.5C 294.167,55.5 296.833,55.5 299.5,55.5 Z"/></g>
<g><path style="opacity:1" fill="#9d9ea0" d="M 30.5,54.5 C 32.604,54.2011 34.604,54.5344 36.5,55.5C 38.3333,60.5 40.1667,65.5 42,70.5C 44.1957,65.5797 46.1957,60.5797 48,55.5C 50.3806,54.565 52.8806,54.2317 55.5,54.5C 52.031,66.4471 47.6977,78.1138 42.5,89.5C 39.9135,90.48 37.2469,90.8134 34.5,90.5C 35.194,86.9175 36.194,83.4175 37.5,80C 34.9668,72.4374 32.3001,64.9374 29.5,57.5C 29.5569,56.391 29.8902,55.391 30.5,54.5 Z"/></g>
<g><path style="opacity:0.175" fill="#171d25" d="M 140.5,80.5 C 140.167,79.8333 139.833,79.1667 139.5,78.5C 140.962,77.5423 142.295,76.3756 143.5,75C 144.332,74.3123 144.998,74.479 145.5,75.5C 144.145,77.5212 142.479,79.1879 140.5,80.5 Z"/></g>
<g><path style="opacity:0.89" fill="#a6a7a9" d="M 129.5,57.5 C 129.56,56.9569 129.893,56.6236 130.5,56.5C 131.518,57.1925 132.518,57.8592 133.5,58.5C 124.658,64.2095 124.325,70.3762 132.5,77C 131.5,77.3333 130.5,77.6667 129.5,78C 132.699,79.2745 136.033,79.4412 139.5,78.5C 139.833,79.1667 140.167,79.8333 140.5,80.5C 132.654,84.3746 126.32,82.7079 121.5,75.5C 122.167,74.8333 122.833,74.1667 123.5,73.5C 124.167,73.8333 124.833,74.1667 125.5,74.5C 125.34,72.847 124.674,71.5137 123.5,70.5C 123.5,68.8333 123.5,67.1667 123.5,65.5C 124.674,64.4863 125.34,63.153 125.5,61.5C 126.167,61.5 126.5,61.1667 126.5,60.5C 127.167,60.5 127.5,60.1667 127.5,59.5C 128.167,59.5 128.5,59.1667 128.5,58.5C 128.833,58.5 129.167,58.5 129.5,58.5C 130.833,58.1667 130.833,57.8333 129.5,57.5 Z M 125.5,74.5 C 126.627,75.1217 127.627,75.955 128.5,77C 126.511,77.5192 125.511,76.6859 125.5,74.5 Z"/></g>
</svg>
