<svg width="120" height="24" viewBox="0 0 120 24" fill="none" xmlns="http://www.w3.org/2000/svg">
<g clip-path="url(#clip0_1393_59467)">
<path d="M36.0949 0.235352H32.748V22.955H36.0949V0.235352Z" fill="#00C8FA"/>
<path d="M42.3117 6.28418H38.9648V22.9548H42.3117V6.28418Z" fill="#00C8FA"/>
<path d="M58.6154 6.28436V7.76329C58.0058 7.28698 57.3388 6.89165 56.6192 6.5892C55.5386 6.13433 54.3935 5.90332 53.2126 5.90332C52.0316 5.90332 50.8865 6.13433 49.8059 6.5892C48.7636 7.0274 47.8289 7.65612 47.0256 8.45631C46.2224 9.2565 45.5913 10.1877 45.1514 11.226C44.6948 12.3025 44.4629 13.4432 44.4629 14.6197C44.4629 15.7962 44.6948 16.9369 45.1514 18.0133C45.5913 19.0517 46.2224 19.9829 47.0256 20.7831C47.8289 21.5832 48.7636 22.212 49.8059 22.6502C50.8865 23.105 52.0316 23.336 53.2126 23.336C54.3935 23.336 55.5386 23.105 56.6192 22.6502C57.3388 22.3477 58.0058 21.9548 58.6154 21.4761V22.955H61.9622V6.28436H58.6154ZM57.0328 18.4254C56.012 19.4423 54.6565 20.0019 53.2126 20.0019C51.7686 20.0019 50.4131 19.4423 49.3923 18.4254C48.3716 17.4084 47.8098 16.0581 47.8098 14.6197C47.8098 13.1812 48.3716 11.8309 49.3923 10.814C50.4131 9.7971 51.7686 9.23745 53.2126 9.23745C54.6565 9.23745 56.012 9.7971 57.0328 10.814C58.0536 11.8309 58.6154 13.1812 58.6154 14.6197C58.6154 16.0581 58.0536 17.4084 57.0328 18.4254Z" fill="#00C8FA"/>
<path d="M29.8781 0.235352H26.5312V22.955H29.8781V0.235352Z" fill="#00C8FA"/>
<path d="M20.3179 0.235352V2.06618C19.6654 1.63764 18.9005 1.33528 18.0615 1.17815C16.864 0.951971 15.5231 1.01149 14.0746 1.35195C12.6332 1.6924 11.1656 2.29474 9.70758 3.14469C8.19934 4.02558 6.76997 5.13265 5.46011 6.43733C4.15025 7.742 3.03878 9.16572 2.15439 10.668C1.30107 12.1203 0.696339 13.5821 0.354533 15.0177C0.0127272 16.4605 -0.0470288 17.7961 0.180045 18.9889C0.411899 20.2126 0.954486 21.2768 1.74805 22.0673C2.54161 22.8577 3.61005 23.3981 4.83864 23.6291C5.3143 23.7195 5.81387 23.7648 6.33255 23.7648C7.11894 23.7648 7.95314 23.6624 8.82558 23.4553C10.2669 23.1148 11.7345 22.5125 13.1926 21.6625C14.7008 20.7816 16.1302 19.6746 17.44 18.3699C18.5467 17.2676 19.5124 16.0796 20.3179 14.8296V22.9481H23.6643V0.235352H20.3179ZM19.2877 9.02049C19.0272 10.118 18.5324 11.3037 17.8559 12.4536C17.1174 13.7107 16.1804 14.9082 15.0713 16.0105C13.9622 17.1152 12.7623 18.0461 11.5003 18.7841C10.3482 19.4579 9.15544 19.9507 8.05353 20.2102C6.28714 20.6269 4.85298 20.4436 4.1144 19.7079C3.37581 18.9722 3.19415 17.5437 3.61005 15.7843C3.87059 14.6868 4.36537 13.5011 5.04181 12.3512C5.7804 11.0942 6.71738 9.89662 7.82646 8.79431C8.93553 7.68962 10.1354 6.75873 11.3975 6.02069C12.5496 5.34692 13.7423 4.8541 14.8442 4.59459C15.4657 4.44698 16.0465 4.37556 16.5724 4.37556C17.5357 4.37556 18.3077 4.62078 18.7858 5.09694C19.522 5.83022 19.706 7.26108 19.2877 9.02049Z" fill="#00C8FA"/>
<path d="M81.2732 11.4906C80.8429 10.4761 80.2261 9.56396 79.4396 8.78044C78.6531 7.99692 77.7399 7.38249 76.7191 6.95381C75.6624 6.50847 74.5412 6.28223 73.3865 6.28223C72.2319 6.28223 71.1107 6.50847 70.054 6.95381C69.3799 7.23721 68.7511 7.60397 68.175 8.04455V6.28223H64.8281V14.8081V22.9529H68.175V14.8081C68.175 13.422 68.7177 12.1169 69.7026 11.1381C70.6875 10.157 71.9952 9.61635 73.3865 9.61635C74.7779 9.61635 76.088 10.157 77.0705 11.1381C78.0554 12.1193 78.5981 13.422 78.5981 14.8081V22.9529H81.945V14.8081C81.9474 13.6602 81.7203 12.5432 81.2732 11.4906Z" fill="#00C8FA"/>
<path d="M40.6371 4.04578C41.6933 4.04578 42.5496 3.19279 42.5496 2.14057C42.5496 1.08835 41.6933 0.235352 40.6371 0.235352C39.5809 0.235352 38.7246 1.08835 38.7246 2.14057C38.7246 3.19279 39.5809 4.04578 40.6371 4.04578Z" fill="#00C8FA"/>
<path d="M118.878 16.2867C118.986 15.7366 119.038 15.1793 119.038 14.6197C119.038 14.06 118.986 13.5027 118.878 12.9526C118.096 8.93499 114.549 5.90332 110.289 5.90332C106.029 5.90332 102.481 8.93499 101.699 12.9526C101.592 13.5027 101.539 14.06 101.539 14.6197C101.539 15.1793 101.592 15.7366 101.699 16.2867C102.481 20.3044 106.029 23.336 110.289 23.336C113.308 23.336 115.971 21.8119 117.542 19.4947L114.632 17.8204C114.472 18.0348 114.298 18.2372 114.109 18.4254C113.609 18.9255 113.014 19.3232 112.357 19.5947C111.699 19.8662 110.999 20.0043 110.289 20.0019C109.579 20.0043 108.876 19.8662 108.221 19.5947C107.566 19.3232 106.971 18.9255 106.469 18.4254C105.866 17.8276 105.412 17.0941 105.149 16.2867H118.878ZM106.466 10.814C106.966 10.3139 107.561 9.91618 108.218 9.64469C108.873 9.37319 109.576 9.23507 110.286 9.23745C110.996 9.23507 111.699 9.37319 112.354 9.64469C113.009 9.91618 113.605 10.3139 114.107 10.814C114.709 11.4118 115.163 12.1453 115.426 12.9526H105.147C105.412 12.1453 105.864 11.4118 106.466 10.814Z" fill="#00C8FA"/>
<path d="M97.2028 17.8204C97.0425 18.0348 96.8679 18.2372 96.6789 18.4254C96.1789 18.9279 95.5832 19.3232 94.9252 19.5947C94.2697 19.8662 93.564 20.0043 92.8558 20.0019C92.1453 20.0043 91.4419 19.8662 90.7864 19.5947C90.1309 19.3232 89.5352 18.9255 89.0328 18.4254C88.5304 17.9276 88.1308 17.3346 87.8581 16.6797C87.5853 16.0272 87.4466 15.327 87.449 14.6197C87.4466 13.9124 87.5853 13.2122 87.8581 12.5597C88.1308 11.9071 88.528 11.3141 89.0328 10.814C89.5328 10.3139 90.1285 9.91618 90.7864 9.64469C91.4419 9.37319 92.1477 9.23507 92.8558 9.23745C93.5664 9.23507 94.2697 9.37319 94.9252 9.64469C95.5808 9.91618 96.1765 10.3139 96.6789 10.814C96.8679 11.0022 97.0425 11.2046 97.2028 11.4189L100.114 9.74471C98.5426 7.42749 95.8774 5.90332 92.8558 5.90332C88.0208 5.90332 84.0996 9.80663 84.0996 14.6197C84.0996 19.4327 88.0208 23.336 92.8558 23.336C95.8774 23.336 98.5426 21.8119 100.117 19.4947L97.2028 17.8204Z" fill="#00C8FA"/>
</g>
<defs>
<clipPath id="clip0_1393_59467">
<rect width="120" height="23.5294" fill="white" transform="translate(0 0.235352)"/>
</clipPath>
</defs>
</svg>
