<?xml version="1.0" encoding="UTF-8"?>
<!DOCTYPE svg PUBLIC "-//W3C//DTD SVG 1.1//EN" "http://www.w3.org/Graphics/SVG/1.1/DTD/svg11.dtd">
<svg xmlns="http://www.w3.org/2000/svg" version="1.1" width="792px" height="397px" style="shape-rendering:geometricPrecision; text-rendering:geometricPrecision; image-rendering:optimizeQuality; fill-rule:evenodd; clip-rule:evenodd" xmlns:xlink="http://www.w3.org/1999/xlink">
<g><path style="opacity:0.988" fill="#ffc417" d="M 35.5,99.5 C 275.834,99.3333 516.167,99.5 756.5,100C 762.667,102.167 766.833,106.333 769,112.5C 769.667,170.167 769.667,227.833 769,285.5C 766.5,291.333 762.333,295.5 756.5,298C 516.167,298.667 275.833,298.667 35.5,298C 29.3333,295.833 25.1667,291.667 23,285.5C 22.3333,227.833 22.3333,170.167 23,112.5C 25.3531,106.315 29.5198,101.982 35.5,99.5 Z"/></g>
<g><path style="opacity:1" fill="#fffefe" d="M 39.5,106.5 C 276.834,106.333 514.167,106.5 751.5,107C 755.843,108.01 759.01,110.51 761,114.5C 761.667,170.833 761.667,227.167 761,283.5C 759.5,286.333 757.333,288.5 754.5,290C 515.5,290.667 276.5,290.667 37.5,290C 33.5095,288.01 31.0095,284.843 30,280.5C 29.3333,226.167 29.3333,171.833 30,117.5C 31.5992,112.406 34.7658,108.739 39.5,106.5 Z"/></g>
<g><path style="opacity:0.999" fill="#182024" d="M 618.5,134.5 C 631.64,132.812 637.807,138.479 637,151.5C 633.351,159.505 627.184,162.339 618.5,160C 611.241,156.307 608.741,150.474 611,142.5C 612.69,138.979 615.19,136.312 618.5,134.5 Z"/></g>
<g><path style="opacity:0.999" fill="#182024" d="M 566.5,135.5 C 572.842,135.334 579.175,135.5 585.5,136C 586,136.5 586.5,137 587,137.5C 587.667,178.167 587.667,218.833 587,259.5C 586.5,260 586,260.5 585.5,261C 579.5,261.667 573.5,261.667 567.5,261C 566.333,260.5 565.5,259.667 565,258.5C 564.86,255.957 564.194,253.623 563,251.5C 550.475,263.176 535.975,266.343 519.5,261C 497.306,250.117 488.139,232.284 492,207.5C 499.322,178.093 517.822,166.26 547.5,172C 553.553,173.774 558.72,176.941 563,181.5C 564.317,167.32 564.983,152.987 565,138.5C 565.513,137.473 566.013,136.473 566.5,135.5 Z"/></g>
<g><path style="opacity:0.999" fill="#ffc307" d="M 82.5,137.5 C 105.169,137.333 127.836,137.5 150.5,138C 151.701,138.903 152.535,140.069 153,141.5C 153.667,145.833 153.667,150.167 153,154.5C 152.5,156.333 151.333,157.5 149.5,158C 134.259,158.175 119.092,158.675 104,159.5C 103.182,169.411 103.349,179.244 104.5,189C 118.5,189.333 132.5,189.667 146.5,190C 147.78,192.894 148.446,196.061 148.5,199.5C 148.446,202.939 147.78,206.106 146.5,209C 132.259,209.176 118.092,209.676 104,210.5C 103.667,226.167 103.333,241.833 103,257.5C 102.25,258.126 101.416,258.626 100.5,259C 94.5,259.667 88.5,259.667 82.5,259C 81.6667,258.167 80.8333,257.333 80,256.5C 79.3333,217.833 79.3333,179.167 80,140.5C 81.045,139.627 81.8783,138.627 82.5,137.5 Z"/></g>
<g><path style="opacity:1" fill="#182024" d="M 233.5,138.5 C 254.161,135.781 271.994,141.448 287,155.5C 291.696,161.556 295.363,168.223 298,175.5C 298.743,177.441 298.576,179.274 297.5,181C 290.5,181.667 283.5,181.667 276.5,181C 263.501,157.934 245.501,152.934 222.5,166C 208.416,178.923 203.583,194.757 208,213.5C 219.637,241.164 239.47,249.331 267.5,238C 273.456,234.378 278.456,229.711 282.5,224C 283.609,223.362 284.775,222.862 286,222.5C 289.841,224.089 293.174,226.422 296,229.5C 296.743,232.783 296.076,235.783 294,238.5C 277.57,259.759 256.07,267.592 229.5,262C 199.434,252.907 183.767,232.573 182.5,201C 184.014,167.336 201.014,146.502 233.5,138.5 Z"/></g>
<g><path style="opacity:1" fill="#182024" d="M 683.5,146.5 C 685.17,146.751 686.67,147.418 688,148.5C 688.333,156.167 688.667,163.833 689,171.5C 695.667,172.167 702.333,172.833 709,173.5C 709.807,179.416 709.641,185.25 708.5,191C 701.919,191.187 695.419,191.687 689,192.5C 688.333,206.833 688.333,221.167 689,235.5C 690.167,239.333 692.667,241.833 696.5,243C 700.5,243.333 704.5,243.667 708.5,244C 709,244.5 709.5,245 710,245.5C 710.667,250.167 710.667,254.833 710,259.5C 707.656,261.774 704.822,262.941 701.5,263C 690.173,265.074 680.34,262.24 672,254.5C 668.32,249.458 666.32,243.792 666,237.5C 665.667,222.5 665.333,207.5 665,192.5C 660.586,191.697 656.086,191.197 651.5,191C 649.035,185.269 648.868,179.436 651,173.5C 655.667,172.833 660.333,172.167 665,171.5C 665.333,165.167 665.667,158.833 666,152.5C 666.833,151.667 667.667,150.833 668.5,150C 673.702,149.131 678.702,147.964 683.5,146.5 Z"/></g>
<g><path style="opacity:1" fill="#182024" d="M 366.5,169.5 C 369.245,169.945 371.745,170.945 374,172.5C 374.772,177.904 374.439,183.238 373,188.5C 372.5,189 372,189.5 371.5,190C 358.195,188.064 349.028,193.231 344,205.5C 342.721,223.448 342.054,241.448 342,259.5C 341.5,260 341,260.5 340.5,261C 334.5,261.667 328.5,261.667 322.5,261C 321.333,260.5 320.5,259.667 320,258.5C 319.333,230.833 319.333,203.167 320,175.5C 320.374,174.584 320.874,173.75 321.5,173C 328.192,172.169 334.858,172.336 341.5,173.5C 342.014,176.644 342.847,179.644 344,182.5C 349.544,174.649 357.044,170.315 366.5,169.5 Z"/></g>
<g><path style="opacity:0.999" fill="#182024" d="M 430.5,169.5 C 454.878,170.099 470.378,182.099 477,205.5C 477.667,210.833 477.667,216.167 477,221.5C 476.25,222.126 475.416,222.626 474.5,223C 451.352,223.01 428.352,223.677 405.5,225C 411.575,241.21 423.242,247.876 440.5,245C 443.893,244.202 447.226,243.202 450.5,242C 454.491,239.422 458.657,237.255 463,235.5C 466.529,237.015 469.529,239.348 472,242.5C 472.667,244.167 472.667,245.833 472,247.5C 454.713,263.191 434.879,267.358 412.5,260C 389.167,249.17 379.667,231.004 384,205.5C 391.232,182.763 406.732,170.763 430.5,169.5 Z"/></g>
<g><path style="opacity:1" fill="#182024" d="M 613.5,172.5 C 620.175,172.334 626.842,172.5 633.5,173C 634.126,173.75 634.626,174.584 635,175.5C 635.667,203.167 635.667,230.833 635,258.5C 634.5,259.667 633.667,260.5 632.5,261C 626.5,261.667 620.5,261.667 614.5,261C 614,260.5 613.5,260 613,259.5C 612.183,230.458 612.35,201.458 613.5,172.5 Z"/></g>
<g><path style="opacity:1" fill="#fefffe" d="M 424.5,188.5 C 439.248,186.369 449.248,192.203 454.5,206C 438.986,207.649 423.319,207.982 407.5,207C 407.043,206.586 406.709,206.086 406.5,205.5C 409.972,197.024 415.972,191.357 424.5,188.5 Z"/></g>
<g><path style="opacity:1" fill="#fefffe" d="M 532.5,190.5 C 555.447,189.613 565.947,200.613 564,223.5C 557.906,240.92 546.072,246.754 528.5,241C 513.596,230.379 510.43,216.879 519,200.5C 522.802,196.037 527.302,192.703 532.5,190.5 Z"/></g>
</svg>
