<svg width="300" height="100" viewBox="0 0 300 100" fill="none" xmlns="http://www.w3.org/2000/svg">
<rect width="300" height="100" fill="white"/>
<g clip-path="url(#clip0_16_13)">
<path d="M41 37.6155H76.5738V73.0001L41 37.6155Z" fill="#94CD00"/>
<path d="M51.6721 27H87.2459V62.3846L51.6721 27Z" fill="#377EF0"/>
<path d="M106.776 31.4584V35.563H115.029V39.6322H106.776V46.0368H101.475V27.3538H116.167V31.423H106.776V31.4584Z" fill="#292929"/>
<path d="M126.839 41.0476H123.958V46.0015H118.658V27.3538H127.231C128.938 27.3538 130.397 27.6368 131.642 28.203C132.887 28.7691 133.848 29.5476 134.523 30.6091C135.199 31.6353 135.555 32.8738 135.555 34.2538C135.555 35.6338 135.235 36.7661 134.595 37.7922C133.954 38.8184 133.065 39.5615 131.891 40.163L135.946 46.0015H130.29L126.875 41.0476H126.839ZM129.365 32.2368C128.796 31.7415 127.978 31.5291 126.911 31.5291H123.958V36.9784H126.911C128.013 36.9784 128.832 36.7307 129.365 36.2707C129.899 35.8107 130.183 35.1384 130.183 34.2538C130.183 33.3691 129.899 32.6968 129.365 32.2368Z" fill="#292929"/>
<path d="M153.484 41.9322V46.0015H138.437V27.3538H153.129V31.423H143.666V34.5722H151.99V38.4999H143.666V41.8968H153.449L153.484 41.9322Z" fill="#292929"/>
<path d="M171.485 41.9322V46.0015H156.437V27.3538H171.129V31.423H161.666V34.5722H169.99V38.4999H161.666V41.8968H171.449L171.485 41.9322Z" fill="#292929"/>
<path d="M176.607 45.8246C175.184 45.4708 174.01 44.94 173.121 44.3385L174.864 40.4462C175.718 41.0123 176.678 41.4369 177.781 41.7908C178.884 42.1446 179.987 42.2862 181.054 42.2862C183.082 42.2862 184.113 41.7908 184.113 40.7646C184.113 39.7385 183.829 39.8446 183.224 39.5969C182.619 39.3492 181.73 39.0662 180.414 38.7831C178.991 38.5 177.817 38.1462 176.892 37.7923C175.967 37.4385 175.149 36.9077 174.437 36.1292C173.761 35.3508 173.406 34.3246 173.406 33.0508C173.406 31.7769 173.726 30.8923 174.33 29.9723C174.971 29.0523 175.896 28.3446 177.141 27.8138C178.386 27.2831 179.916 27 181.73 27C183.544 27 184.184 27.1415 185.358 27.4246C186.568 27.7077 187.6 28.0969 188.524 28.6277L186.888 32.5554C185.109 31.6 183.366 31.1046 181.694 31.1046C180.022 31.1046 179.88 31.2462 179.382 31.5646C178.884 31.8831 178.67 32.2723 178.67 32.7677C178.67 33.2631 178.955 33.6523 179.524 33.9C180.093 34.1477 181.018 34.3954 182.299 34.6785C183.722 34.9969 184.896 35.3154 185.856 35.6692C186.817 36.0231 187.599 36.5538 188.275 37.3323C188.951 38.0754 189.307 39.1015 189.307 40.4108C189.307 41.72 188.987 42.5338 188.382 43.4538C187.742 44.3738 186.817 45.0815 185.572 45.6123C184.327 46.1431 182.797 46.4262 181.018 46.4262C179.24 46.4262 178.03 46.2492 176.607 45.86V45.8246Z" fill="#292929"/>
<path d="M195.461 31.5645H189.698V27.3538H206.489V31.5291H200.762V45.9661H195.461V31.5645Z" fill="#292929"/>
<path d="M218.193 39.3138V46.0015H212.892V39.243L205.742 27.3538H211.327L215.774 34.7491L220.221 27.3538H225.379L218.193 39.3138Z" fill="#292929"/>
<path d="M226.624 27.3538H231.924V41.7907H240.853V45.9661H226.624V27.3538Z" fill="#292929"/>
<path d="M258 41.9322V46.0015H242.952V27.3538H257.644V31.423H248.182V34.5722H256.506V38.4999H248.182V41.8968H257.964L258 41.9322Z" fill="#292929"/>
<path d="M106.491 71.7615C104.926 70.9476 103.717 69.7799 102.827 68.3292C101.938 66.843 101.475 65.1799 101.475 63.3399C101.475 61.4999 101.902 59.8015 102.827 58.3507C103.752 56.8999 104.962 55.7322 106.491 54.9184C108.057 54.1045 109.8 53.6799 111.792 53.6799C113.784 53.6799 115.029 53.963 116.416 54.5999C117.804 55.2369 118.942 56.0861 119.831 57.2184L116.452 60.2615C115.242 58.8107 113.748 58.0676 112.041 58.0676C110.333 58.0676 110.12 58.2799 109.337 58.7399C108.555 59.1999 107.914 59.8015 107.487 60.6153C107.06 61.4292 106.847 62.3492 106.847 63.4107C106.847 64.4722 107.06 65.3922 107.487 66.2061C107.914 67.0199 108.555 67.6569 109.337 68.0815C110.12 68.5061 111.045 68.7538 112.041 68.7538C113.784 68.7538 115.242 68.0107 116.452 66.5599L119.831 69.603C118.907 70.7353 117.768 71.6199 116.416 72.2215C115.029 72.823 113.499 73.1415 111.792 73.1415C110.084 73.1415 108.057 72.7169 106.491 71.903V71.7615Z" fill="#292929"/>
<path d="M130.361 67.6567H127.48V72.6106H122.179V53.9629H130.753C132.46 53.9629 133.919 54.246 135.164 54.8121C136.409 55.3783 137.369 56.1567 138.045 57.2183C138.721 58.2444 139.077 59.4829 139.077 60.8629C139.077 62.2429 138.757 63.3752 138.116 64.4014C137.476 65.4275 136.587 66.206 135.413 66.7721L139.468 72.646H133.776L130.361 67.6921V67.6567ZM132.887 58.846C132.318 58.386 131.5 58.1383 130.432 58.1383H127.48V63.5875H130.432C131.535 63.5875 132.353 63.3398 132.887 62.8798C133.421 62.4198 133.705 61.7475 133.705 60.8629C133.705 59.9783 133.421 59.306 132.887 58.846Z" fill="#292929"/>
<path d="M157.042 68.5414V72.6106H141.994V53.9629H156.686V58.0321H147.223V61.1814H155.548V65.109H147.223V68.506H157.006L157.042 68.5414Z" fill="#292929"/>
<path d="M159.994 53.9983H168.852C170.915 53.9983 172.73 54.3875 174.33 55.1306C175.931 55.909 177.141 56.9706 178.03 58.386C178.92 59.8014 179.346 61.429 179.346 63.3044C179.346 65.1798 178.92 66.8429 178.03 68.2229C177.141 69.6029 175.931 70.6998 174.33 71.4783C172.73 72.2567 170.915 72.6106 168.852 72.6106H159.994V53.9629V53.9983ZM168.639 68.4352C170.24 68.4352 171.52 67.9752 172.516 67.0906C173.477 66.1706 173.975 64.9321 173.975 63.3398C173.975 61.7475 173.477 60.4737 172.516 59.589C171.556 58.7044 170.24 58.2444 168.639 58.2444H165.295V68.4706H168.639V68.4352Z" fill="#292929"/>
<path d="M182.086 53.9983H187.386V72.646H182.086V53.9983Z" fill="#292929"/>
<path d="M195.141 58.1737H189.378V53.9983H206.169V58.1737H200.442V72.6106H195.141V58.1737Z" fill="#292929"/>
</g>
<defs>
<clipPath id="clip0_16_13">
<rect width="217" height="46" fill="white" transform="translate(41 27)"/>
</clipPath>
</defs>
</svg>
