<svg viewBox="0 0 72 72" fill="none" xmlns="http://www.w3.org/2000/svg">
<path d="M64 38.5C64 33.81 51.46 30 36 30C20.54 30 8 33.81 8 38.5C8 41.31 12.5 43.8 19.42 45.35L16.57 56H24.84L27.36 46.59C25.73 46.43 24.17 46.22 22.69 45.98C18.59 44.88 16 43.28 16 41.5C16 38.19 24.95 35.5 36 35.5C47.05 35.5 56 38.19 56 41.5C56 43.28 53.41 44.88 49.31 45.98C47.83 46.22 46.27 46.43 44.64 46.59L47.16 56H55.43L52.58 45.35C59.5 43.8 64 41.31 64 38.5Z" fill="url(#paint0_linear_11699_9449)"/>
<path d="M48 43C48 41.34 42.63 40 36 40C29.37 40 24 41.34 24 43C24 44.38 27.72 45.54 32.78 45.89L29 60H43L39.22 45.89C44.28 45.54 48 44.38 48 43Z" fill="url(#paint1_linear_11699_9449)"/>
<path d="M34.09 21.47C34.62 19.51 37.39 19.51 37.92 21.47L39.42 27.06C42.42 27.18 45.27 27.45 47.9 27.84L45.63 19.38C42.99 9.54 29.03 9.54 26.39 19.38L24.12 27.84C26.75 27.44 29.6 27.18 32.6 27.06L34.09 21.47Z" fill="url(#paint2_linear_11699_9449)"/>
<defs>
<linearGradient id="paint0_linear_11699_9449" x1="8" y1="43.0002" x2="64" y2="43.0002" gradientUnits="userSpaceOnUse">
<stop stop-color="#0474F1"/>
<stop offset="0.5" stop-color="#1AA2E2"/>
<stop offset="1" stop-color="#41C4F4"/>
</linearGradient>
<linearGradient id="paint1_linear_11699_9449" x1="24" y1="50.0001" x2="48" y2="50.0001" gradientUnits="userSpaceOnUse">
<stop stop-color="#0474F1"/>
<stop offset="0.5" stop-color="#1AA2E2"/>
<stop offset="1" stop-color="#41C4F4"/>
</linearGradient>
<linearGradient id="paint2_linear_11699_9449" x1="24.1119" y1="19.923" x2="47.8881" y2="19.923" gradientUnits="userSpaceOnUse">
<stop stop-color="#0474F1"/>
<stop offset="0.5" stop-color="#1AA2E2"/>
<stop offset="1" stop-color="#41C4F4"/>
</linearGradient>
</defs>
</svg>
