<?xml version="1.0" encoding="UTF-8"?>
<!DOCTYPE svg PUBLIC "-//W3C//DTD SVG 1.1//EN" "http://www.w3.org/Graphics/SVG/1.1/DTD/svg11.dtd">
<svg xmlns="http://www.w3.org/2000/svg" version="1.1" width="300px" height="130px" style="shape-rendering:geometricPrecision; text-rendering:geometricPrecision; image-rendering:optimizeQuality; fill-rule:evenodd; clip-rule:evenodd" xmlns:xlink="http://www.w3.org/1999/xlink">
<g><path style="opacity:0.996" fill="#248b4e" d="M 67.5,-0.5 C 72.1667,-0.5 76.8333,-0.5 81.5,-0.5C 84.47,0.65323 87.1367,2.3199 89.5,4.5C 89.6107,5.11742 89.944,5.61742 90.5,6C 88.8042,8.58748 87.8042,11.4208 87.5,14.5C 86.9202,16.7488 85.5869,18.4154 83.5,19.5C 79.0733,22.38 74.4066,24.7134 69.5,26.5C 61.234,28.0804 54.234,25.9138 48.5,20C 51.2683,9.73593 57.6016,2.90259 67.5,-0.5 Z"/></g>
<g><path style="opacity:0.016" fill="#7fbb98" d="M 89.5,4.5 C 90.4972,4.47008 91.1639,4.97008 91.5,6C 91.1277,9.40395 89.7944,12.2373 87.5,14.5C 87.8042,11.4208 88.8042,8.58748 90.5,6C 89.944,5.61742 89.6107,5.11742 89.5,4.5 Z"/></g>
<g><path style="opacity:0.988" fill="#fedd47" d="M 42.5,14.5 C 42.9116,17.8025 44.245,20.4691 46.5,22.5C 47.4345,23.5676 47.7678,24.901 47.5,26.5C 45.9519,26.1788 45.2852,25.1788 45.5,23.5C 44.5,23.5 43.5,23.5 42.5,23.5C 42.7678,25.099 42.4345,26.4324 41.5,27.5C 40.3563,20.3387 37.023,14.3387 31.5,9.5C 32.5,8.16667 33.5,6.83333 34.5,5.5C 38.3272,7.50096 40.9939,10.501 42.5,14.5 Z"/></g>
<g><path style="opacity:0.467" fill="#ffea8a" d="M 42.5,14.5 C 44.7705,16.6123 46.1039,19.279 46.5,22.5C 44.245,20.4691 42.9116,17.8025 42.5,14.5 Z"/></g>
<g><path style="opacity:0.004" fill="#5ba87b" d="M 83.5,19.5 C 79.9633,23.9351 75.2966,26.2685 69.5,26.5C 74.4066,24.7134 79.0733,22.38 83.5,19.5 Z"/></g>
<g><path style="opacity:0.982" fill="#feda2c" d="M 47.5,26.5 C 47.5,27.8333 47.5,29.1667 47.5,30.5C 50.3878,29.9898 52.7211,30.6565 54.5,32.5C 54.8294,35.8267 56.1627,38.4934 58.5,40.5C 59.0787,43.3311 60.412,45.6644 62.5,47.5C 62.4142,48.4959 62.7476,49.3292 63.5,50C 61.9419,50.21 60.6085,50.71 59.5,51.5C 48.7166,52.277 39.0499,55.9436 30.5,62.5C 30.5654,62.0618 30.3988,61.7284 30,61.5C 28.1978,62.7893 27.0312,64.4559 26.5,66.5C 26.5,66.8333 26.5,67.1667 26.5,67.5C 25.1667,67.5 24.5,68.1667 24.5,69.5C 22.3136,70.8233 20.8136,72.8233 20,75.5C 19.2599,76.7494 19.4265,77.7494 20.5,78.5C 20.1667,79.8333 19.8333,81.1667 19.5,82.5C 16.8333,83.1667 16.8333,83.8333 19.5,84.5C 19.1667,85.1667 18.8333,85.8333 18.5,86.5C 15.8333,87.5 15.8333,88.5 18.5,89.5C 18.2307,93.9315 18.564,98.2648 19.5,102.5C 16.8333,103.167 16.8333,103.833 19.5,104.5C 19.5,104.833 19.5,105.167 19.5,105.5C 18.4017,106.601 18.235,107.934 19,109.5C 20.1392,112.823 21.9725,115.49 24.5,117.5C 24.427,119.027 25.0937,120.027 26.5,120.5C 30.0225,123.75 33.6892,126.75 37.5,129.5C 29.5,129.5 21.5,129.5 13.5,129.5C 9.04021,119.585 4.37354,109.918 -0.5,100.5C -0.5,98.8333 -0.5,97.1667 -0.5,95.5C 11.8786,74.424 24.0452,53.0907 36,31.5C 37.6995,30.5939 39.5328,30.2606 41.5,30.5C 41.5,29.5 41.5,28.5 41.5,27.5C 42.4345,26.4324 42.7678,25.099 42.5,23.5C 43.5,23.5 44.5,23.5 45.5,23.5C 45.2852,25.1788 45.9519,26.1788 47.5,26.5 Z"/></g>
<g><path style="opacity:0.757" fill="#ffe87f" d="M 54.5,32.5 C 56.341,34.8485 57.6743,37.5152 58.5,40.5C 56.1627,38.4934 54.8294,35.8267 54.5,32.5 Z"/></g>
<g><path style="opacity:0.233" fill="#feea8a" d="M 58.5,40.5 C 60.588,42.3356 61.9213,44.6689 62.5,47.5C 60.412,45.6644 59.0787,43.3311 58.5,40.5 Z"/></g>
<g><path style="opacity:0.118" fill="#fee97f" d="M 62.5,47.5 C 64.1042,48.287 64.7709,49.6203 64.5,51.5C 62.8333,51.5 61.1667,51.5 59.5,51.5C 60.6085,50.71 61.9419,50.21 63.5,50C 62.7476,49.3292 62.4142,48.4959 62.5,47.5 Z"/></g>
<g><path style="opacity:0.998" fill="#fed928" d="M 73.5,67.5 C 73.427,69.0269 74.0937,70.0269 75.5,70.5C 76.6737,71.5137 77.3404,72.847 77.5,74.5C 77.427,76.0269 78.0937,77.0269 79.5,77.5C 82.5307,81.8871 85.1974,86.5537 87.5,91.5C 88.1667,94.5 88.8333,97.5 89.5,100.5C 89.6716,101.492 89.3382,102.158 88.5,102.5C 86.8958,103.287 86.2291,104.62 86.5,106.5C 86.3964,108.703 85.7298,110.703 84.5,112.5C 81.5795,114.662 79.9129,117.662 79.5,121.5C 79.38,122.586 78.7133,123.253 77.5,123.5C 63.5325,127.623 50.5325,125.789 38.5,118C 33.7806,112.015 31.1139,105.182 30.5,97.5C 44.8372,97.6666 59.1705,97.4999 73.5,97C 71.1707,94.1745 69.5041,91.0078 68.5,87.5C 56.011,86.5046 43.3443,86.1713 30.5,86.5C 35.6135,65.5723 48.9468,57.4056 70.5,62C 72.16,63.4877 73.16,65.321 73.5,67.5 Z"/></g>
<g><path style="opacity:0.035" fill="#fde671" d="M 30.5,62.5 C 29.5,64.1667 28.1667,65.5 26.5,66.5C 27.0312,64.4559 28.1978,62.7893 30,61.5C 30.3988,61.7284 30.5654,62.0618 30.5,62.5 Z"/></g>
<g><path style="opacity:0.024" fill="#fef0ab" d="M 26.5,67.5 C 26.1667,68.5 25.5,69.1667 24.5,69.5C 24.5,68.1667 25.1667,67.5 26.5,67.5 Z"/></g>
<g><path style="opacity:0.141" fill="#fff0ae" d="M 73.5,67.5 C 74.9063,67.9731 75.573,68.9731 75.5,70.5C 74.0937,70.0269 73.427,69.0269 73.5,67.5 Z"/></g>
<g><path style="opacity:0.035" fill="#feeb90" d="M 24.5,69.5 C 23.1614,72.5029 21.8281,75.5029 20.5,78.5C 19.4265,77.7494 19.2599,76.7494 20,75.5C 20.8136,72.8233 22.3136,70.8233 24.5,69.5 Z"/></g>
<g><path style="opacity:0.706" fill="#429a66" d="M 136.5,74.5 C 128.167,74.5 119.833,74.5 111.5,74.5C 115.276,73.1752 119.443,72.5085 124,72.5C 128.557,72.5085 132.724,73.1752 136.5,74.5 Z"/></g>
<g><path style="opacity:0.695" fill="#449b68" d="M 163.5,73.5 C 157.021,74.4907 150.354,74.824 143.5,74.5C 146.087,73.1836 149.087,72.517 152.5,72.5C 156.217,72.5759 159.883,72.9093 163.5,73.5 Z"/></g>
<g><path style="opacity:0.735" fill="#21884b" d="M 163.5,73.5 C 164.167,73.5 164.833,73.5 165.5,73.5C 165.539,74.5832 165.873,75.5832 166.5,76.5C 165.675,77.3857 164.675,77.719 163.5,77.5C 159.116,77.1744 154.783,77.5078 150.5,78.5C 150.624,79.1067 150.957,79.44 151.5,79.5C 151.5,84.1667 151.5,88.8333 151.5,93.5C 155.833,93.5 160.167,93.5 164.5,93.5C 164.56,94.0431 164.893,94.3764 165.5,94.5C 167.332,93.7515 168.999,92.7515 170.5,91.5C 170.376,92.6105 170.709,93.9438 171.5,95.5C 171.389,96.1174 171.056,96.6174 170.5,97C 166.886,97.9358 163.22,98.4358 159.5,98.5C 150.675,94.9832 147.341,97.9832 149.5,107.5C 147.5,107.5 145.5,107.5 143.5,107.5C 143.5,96.5 143.5,85.5 143.5,74.5C 150.354,74.824 157.021,74.4907 163.5,73.5 Z"/></g>
<g><path style="opacity:0.751" fill="#23884c" d="M 111.5,74.5 C 119.833,74.5 128.167,74.5 136.5,74.5C 136.5,75.8333 136.5,77.1667 136.5,78.5C 130.5,78.5 124.5,78.5 118.5,78.5C 118.5,88.1667 118.5,97.8333 118.5,107.5C 116.167,107.5 113.833,107.5 111.5,107.5C 111.5,96.5 111.5,85.5 111.5,74.5 Z"/></g>
<g><path style="opacity:0.97" fill="#37925a" d="M 165.5,73.5 C 175.803,75.5973 179.636,81.5973 177,91.5C 175.549,93.4641 173.716,94.7974 171.5,95.5C 170.709,93.9438 170.376,92.6105 170.5,91.5C 168.999,92.7515 167.332,93.7515 165.5,94.5C 164.893,94.3764 164.56,94.0431 164.5,93.5C 171.537,90.6096 172.87,86.1096 168.5,80C 166.846,79.3923 165.179,78.8923 163.5,78.5C 163.5,78.1667 163.5,77.8333 163.5,77.5C 164.675,77.719 165.675,77.3857 166.5,76.5C 165.873,75.5832 165.539,74.5832 165.5,73.5 Z"/></g>
<g><path style="opacity:0.746" fill="#24894d" d="M 238.5,72.5 C 238.5,82.5 238.5,92.5 238.5,102.5C 244.268,102.834 249.268,102.5 253.5,101.5C 253.5,91.8333 253.5,82.1667 253.5,72.5C 255.5,72.5 257.5,72.5 259.5,72.5C 259.5,82.5 259.5,92.5 259.5,102.5C 264.544,102.827 269.544,102.494 274.5,101.5C 274.376,100.893 274.043,100.56 273.5,100.5C 273.334,91.4938 273.5,82.4938 274,73.5C 276.041,72.5769 278.208,72.2436 280.5,72.5C 280.5,84.1667 280.5,95.8333 280.5,107.5C 264.5,107.5 248.5,107.5 232.5,107.5C 232.333,96.1618 232.5,84.8284 233,73.5C 234.699,72.5939 236.533,72.2606 238.5,72.5 Z"/></g>
<g><path style="opacity:0.408" fill="#7ebb97" d="M 238.5,72.5 C 239.494,81.9856 239.827,91.6522 239.5,101.5C 244.167,101.5 248.833,101.5 253.5,101.5C 249.268,102.5 244.268,102.834 238.5,102.5C 238.5,92.5 238.5,82.5 238.5,72.5 Z"/></g>
<g><path style="opacity:0.086" fill="#90c3a5" d="M 259.5,72.5 C 260.494,81.9856 260.827,91.6522 260.5,101.5C 265.032,101.818 269.366,101.485 273.5,100.5C 274.043,100.56 274.376,100.893 274.5,101.5C 269.544,102.494 264.544,102.827 259.5,102.5C 259.5,92.5 259.5,82.5 259.5,72.5 Z"/></g>
<g><path style="opacity:0.793" fill="#1b8648" d="M 299.5,73.5 C 299.5,84.8333 299.5,96.1667 299.5,107.5C 297.167,107.5 294.833,107.5 292.5,107.5C 292.5,96.1667 292.5,84.8333 292.5,73.5C 294.833,73.5 297.167,73.5 299.5,73.5 Z"/></g>
<g><path style="opacity:0.106" fill="#fef0ae" d="M 77.5,74.5 C 78.9063,74.9731 79.573,75.9731 79.5,77.5C 78.0937,77.0269 77.427,76.0269 77.5,74.5 Z"/></g>
<g><path style="opacity:0.952" fill="#359058" d="M 187.5,102.5 C 186.674,99.5152 185.341,96.8485 183.5,94.5C 182.527,92.0521 182.194,89.3854 182.5,86.5C 184.559,84.7396 185.892,82.4062 186.5,79.5C 186.414,78.5041 186.748,77.6708 187.5,77C 198.089,69.5572 208.589,69.7239 219,77.5C 224.534,85.2559 224.868,93.2559 220,101.5C 213.463,108.042 205.629,110.209 196.5,108C 192.8,107.157 189.8,105.324 187.5,102.5 Z M 212.5,79.5 C 214.361,81.8877 215.694,84.5544 216.5,87.5C 216.5,89.5 216.5,91.5 216.5,93.5C 215.42,95.9962 214.086,98.3295 212.5,100.5C 204.537,105.148 197.37,104.148 191,97.5C 187.015,85.4525 191.182,78.4525 203.5,76.5C 206.692,77.0449 209.692,78.0449 212.5,79.5 Z"/></g>
<g><path style="opacity:0.1" fill="#b5d7c3" d="M 163.5,77.5 C 163.5,77.8333 163.5,78.1667 163.5,78.5C 159.298,78.1832 155.298,78.5166 151.5,79.5C 150.957,79.44 150.624,79.1067 150.5,78.5C 154.783,77.5078 159.116,77.1744 163.5,77.5 Z"/></g>
<g><path style="opacity:0.329" fill="#7eba96" d="M 186.5,79.5 C 185.892,82.4062 184.559,84.7396 182.5,86.5C 183.095,83.6829 184.428,81.3495 186.5,79.5 Z"/></g>
<g><path style="opacity:0.008" fill="#fff1a9" d="M 19.5,82.5 C 19.5,83.1667 19.5,83.8333 19.5,84.5C 16.8333,83.8333 16.8333,83.1667 19.5,82.5 Z"/></g>
<g><path style="opacity:0.004" fill="#91c4a6" d="M 212.5,79.5 C 213.496,79.4142 214.329,79.7476 215,80.5C 216.554,82.8962 217.054,85.2295 216.5,87.5C 215.694,84.5544 214.361,81.8877 212.5,79.5 Z"/></g>
<g><path style="opacity:0.663" fill="#fee362" d="M 30.5,86.5 C 43.3443,86.1713 56.011,86.5046 68.5,87.5C 56.1164,87.1866 43.783,87.5199 31.5,88.5C 30.7025,88.0431 30.3691,87.3764 30.5,86.5 Z"/></g>
<g><path style="opacity:0.463" fill="#ffea8c" d="M 18.5,86.5 C 18.5,87.5 18.5,88.5 18.5,89.5C 15.8333,88.5 15.8333,87.5 18.5,86.5 Z"/></g>
<g><path style="opacity:0.196" fill="#ffec94" d="M 87.5,91.5 C 88.2323,92.8083 89.0656,94.1416 90,95.5C 90.7796,97.3869 90.6129,99.0536 89.5,100.5C 88.8333,97.5 88.1667,94.5 87.5,91.5 Z"/></g>
<g><path style="opacity:0.188" fill="#84bd9b" d="M 183.5,94.5 C 185.341,96.8485 186.674,99.5152 187.5,102.5C 185.127,100.421 183.794,97.7541 183.5,94.5 Z"/></g>
<g><path style="opacity:0.231" fill="#9ccaaf" d="M 216.5,93.5 C 216.862,96.483 215.695,99.1496 213,101.5C 212.601,101.272 212.435,100.938 212.5,100.5C 214.086,98.3295 215.42,95.9962 216.5,93.5 Z"/></g>
<g><path style="opacity:0.45" fill="#5ba879" d="M 159.5,98.5 C 156.833,98.5 154.167,98.5 151.5,98.5C 152.055,102.012 151.388,105.012 149.5,107.5C 147.341,97.9832 150.675,94.9832 159.5,98.5 Z"/></g>
<g><path style="opacity:0.286" fill="#ffefa4" d="M 19.5,102.5 C 19.5,103.167 19.5,103.833 19.5,104.5C 16.8333,103.833 16.8333,103.167 19.5,102.5 Z"/></g>
<g><path style="opacity:0.298" fill="#feea86" d="M 88.5,102.5 C 88.7709,104.38 88.1042,105.713 86.5,106.5C 86.2291,104.62 86.8958,103.287 88.5,102.5 Z"/></g>
<g><path style="opacity:0.043" fill="#feea8a" d="M 19.5,105.5 C 20.785,109.696 22.4517,113.696 24.5,117.5C 21.9725,115.49 20.1392,112.823 19,109.5C 18.235,107.934 18.4017,106.601 19.5,105.5 Z"/></g>
<g><path style="opacity:0.188" fill="#ffed9a" d="M 84.5,112.5 C 83.0713,115.696 81.4046,118.696 79.5,121.5C 79.9129,117.662 81.5795,114.662 84.5,112.5 Z"/></g>
<g><path style="opacity:0.075" fill="#fff3b7" d="M 24.5,117.5 C 25.9063,117.973 26.573,118.973 26.5,120.5C 25.0937,120.027 24.427,119.027 24.5,117.5 Z"/></g>
</svg>
