<?xml version="1.0" encoding="UTF-8"?>
<!DOCTYPE svg PUBLIC "-//W3C//DTD SVG 1.1//EN" "http://www.w3.org/Graphics/SVG/1.1/DTD/svg11.dtd">
<svg xmlns="http://www.w3.org/2000/svg" version="1.1" width="1096px" height="451px" style="shape-rendering:geometricPrecision; text-rendering:geometricPrecision; image-rendering:optimizeQuality; fill-rule:evenodd; clip-rule:evenodd" xmlns:xlink="http://www.w3.org/1999/xlink">
<g><path style="opacity:0.978" fill="#404a9f" d="M 321.5,-0.5 C 331.167,-0.5 340.833,-0.5 350.5,-0.5C 355.966,2.14364 359.466,6.47697 361,12.5C 361.333,80.5 361.667,148.5 362,216.5C 369.044,255.211 391.877,278.377 430.5,286C 435.757,288.256 439.257,292.09 441,297.5C 441.5,307.161 441.666,316.828 441.5,326.5C 387.902,323.978 350.402,298.311 329,249.5C 325.406,239.792 323.073,229.792 322,219.5C 321.5,146.167 321.333,72.8341 321.5,-0.5 Z"/></g>
<g><path style="opacity:0.976" fill="#404a9f" d="M -0.5,275.5 C -0.5,271.5 -0.5,267.5 -0.5,263.5C 10.9102,263.067 22.2436,263.567 33.5,265C 37.9582,267.74 41.1248,271.573 43,276.5C 47.0239,281.592 52.1906,284.759 58.5,286C 113.5,286.667 168.5,286.667 223.5,286C 241.804,281.216 248.638,269.716 244,251.5C 240.777,245.277 235.943,240.777 229.5,238C 170.833,225.333 112.167,212.667 53.5,200C 24.7255,193.39 6.72555,175.89 -0.5,147.5C -0.5,139.5 -0.5,131.5 -0.5,123.5C 6.05747,97.2448 22.3908,80.4114 48.5,73C 109.13,71.3524 169.797,71.019 230.5,72C 262.851,79.848 280.185,100.348 282.5,133.5C 270.757,133.936 259.09,133.436 247.5,132C 243.212,129.708 240.378,126.208 239,121.5C 235.685,117.182 231.519,114.015 226.5,112C 170.5,111.333 114.5,111.333 58.5,112C 39.6429,119.573 34.8096,132.406 44,150.5C 46.5366,153.372 49.3699,155.872 52.5,158C 113.349,171.97 174.349,185.303 235.5,198C 261.776,205.276 278.276,222.109 285,248.5C 289.536,279.59 278.37,303.09 251.5,319C 242.953,323.053 233.953,325.387 224.5,326C 166.145,326.964 107.811,326.63 49.5,325C 22.9857,318.318 6.31898,301.818 -0.5,275.5 Z"/></g>
<g><path style="opacity:0.976" fill="#404a9f" d="M 559.5,71.5 C 600.168,71.3333 640.835,71.5 681.5,72C 720.826,78.5679 747.659,100.401 762,137.5C 763.843,143.383 765.177,149.383 766,155.5C 766.667,184.167 766.667,212.833 766,241.5C 760.141,277.023 740.975,302.523 708.5,318C 700.477,321.423 692.143,323.756 683.5,325C 645.187,326.596 606.854,326.929 568.5,326C 527.487,323.422 498.321,303.589 481,266.5C 477.411,257.478 475.078,248.145 474,238.5C 473.333,212.167 473.333,185.833 474,159.5C 481.772,109.896 510.272,80.5627 559.5,71.5 Z M 561.5,111.5 C 600.501,111.333 639.501,111.5 678.5,112C 704.333,117.833 720.167,133.667 726,159.5C 726.667,185.833 726.667,212.167 726,238.5C 719.941,265.226 703.441,281.059 676.5,286C 639.167,286.667 601.833,286.667 564.5,286C 536.339,280.506 519.506,263.673 514,235.5C 513.055,209.131 513.389,182.798 515,156.5C 521.533,132.132 537.033,117.132 561.5,111.5 Z"/></g>
<g><path style="opacity:0.977" fill="#404a9f" d="M 1095.5,208.5 C 1095.5,289.167 1095.5,369.833 1095.5,450.5C 1087.17,450.5 1078.83,450.5 1070.5,450.5C 1062.06,448.556 1057.23,443.222 1056,434.5C 1055.67,360.5 1055.33,286.5 1055,212.5C 1049.31,175.17 1030.47,146.67 998.5,127C 984.803,119.151 970.136,114.151 954.5,112C 919.168,111.5 883.835,111.333 848.5,111.5C 848.333,161.501 848.5,211.501 849,261.5C 851.541,273.708 858.707,281.875 870.5,286C 873.106,287.938 874.939,290.438 876,293.5C 877.431,304.422 877.931,315.422 877.5,326.5C 844.262,324.415 822.096,307.749 811,276.5C 810.147,272.531 809.481,268.531 809,264.5C 808.333,208.5 808.333,152.5 809,96.5C 811.645,83.856 819.145,75.6893 831.5,72C 872.833,71.3333 914.167,71.3333 955.5,72C 1016.67,80.1917 1059.84,112.358 1085,168.5C 1089.78,181.639 1093.28,194.972 1095.5,208.5 Z"/></g>
<g><path style="opacity:0.959" fill="#404a9f" d="M 958.5,178.5 C 990.61,172.777 1003.94,185.944 998.5,218C 965.489,224.823 952.156,211.656 958.5,178.5 Z"/></g>
<g><path style="opacity:0.92" fill="#404a9f" d="M 51.5,450.5 C 45.5,450.5 39.5,450.5 33.5,450.5C 14.9278,442.346 8.42782,428.346 14,408.5C 22.1318,393.355 34.6318,387.855 51.5,392C 59.0817,393.941 64.4151,398.441 67.5,405.5C 65.5302,408.46 62.8636,410.793 59.5,412.5C 48.8549,401.031 38.0215,400.698 27,411.5C 21.733,429.16 28.233,437.994 46.5,438C 51.7818,436.54 56.1152,433.707 59.5,429.5C 65.8872,430.992 68.0539,434.658 66,440.5C 62.0225,445.226 57.1892,448.559 51.5,450.5 Z"/></g>
<g><path style="opacity:0.939" fill="#404a9f" d="M 234.5,450.5 C 230.833,450.5 227.167,450.5 223.5,450.5C 222.828,449.733 221.995,449.066 221,448.5C 219.215,443.81 217.049,439.31 214.5,435C 209.177,434.501 203.844,434.334 198.5,434.5C 198.782,439.927 198.449,445.26 197.5,450.5C 193.833,450.5 190.167,450.5 186.5,450.5C 185.347,431.24 185.18,411.907 186,392.5C 197.09,391.347 208.257,391.18 219.5,392C 236.309,398.08 240.809,409.247 233,425.5C 230.982,427.35 229.149,429.35 227.5,431.5C 230,436.5 232.5,441.5 235,446.5C 235.579,447.928 235.412,449.262 234.5,450.5 Z M 198.5,404.5 C 205.175,404.334 211.842,404.5 218.5,405C 225.797,412.517 224.63,418.35 215,422.5C 209.593,421.527 204.093,421.193 198.5,421.5C 198.5,415.833 198.5,410.167 198.5,404.5 Z"/></g>
<g><path style="opacity:0.955" fill="#404a9f" d="M 356.5,391.5 C 371.504,391.333 386.504,391.5 401.5,392C 402.833,395.667 402.833,399.333 401.5,403C 390.505,403.5 379.505,403.667 368.5,403.5C 368.5,406.833 368.5,410.167 368.5,413.5C 378.172,413.334 387.839,413.5 397.5,414C 398.833,417.667 398.833,421.333 397.5,425C 387.839,425.5 378.172,425.666 368.5,425.5C 368.5,429.5 368.5,433.5 368.5,437.5C 380.081,437.179 391.581,437.512 403,438.5C 403.789,442.091 403.622,445.591 402.5,449C 386.926,449.824 371.426,449.657 356,448.5C 355.18,429.427 355.347,410.427 356.5,391.5 Z"/></g>
<g><path style="opacity:0.926" fill="#404a9f" d="M 550.5,450.5 C 541.833,450.5 533.167,450.5 524.5,450.5C 524.217,449.711 523.717,449.044 523,448.5C 522.333,429.833 522.333,411.167 523,392.5C 533.09,391.348 543.256,391.181 553.5,392C 571.653,396.846 579.487,408.68 577,427.5C 572.963,440.704 564.13,448.371 550.5,450.5 Z M 535.5,404.5 C 541.509,404.334 547.509,404.501 553.5,405C 563.451,410.498 566.284,418.665 562,429.5C 559.688,433.58 556.188,436.08 551.5,437C 546.177,437.499 540.844,437.666 535.5,437.5C 535.5,426.5 535.5,415.5 535.5,404.5 Z"/></g>
<g><path style="opacity:0.955" fill="#404a9f" d="M 696.5,391.5 C 700.437,391.207 704.27,391.54 708,392.5C 708.5,411.497 708.667,430.497 708.5,449.5C 704.167,449.5 699.833,449.5 695.5,449.5C 695.18,430.091 695.513,410.757 696.5,391.5 Z"/></g>
<g><path style="opacity:0.948" fill="#404a9f" d="M 825.5,391.5 C 842.503,391.333 859.503,391.5 876.5,392C 877.833,396 877.833,400 876.5,404C 870.175,404.5 863.842,404.666 857.5,404.5C 857.5,419.5 857.5,434.5 857.5,449.5C 853.167,449.5 848.833,449.5 844.5,449.5C 844.5,434.5 844.5,419.5 844.5,404.5C 838.158,404.666 831.825,404.5 825.5,404C 824.197,399.834 824.197,395.667 825.5,391.5 Z"/></g>
</svg>
