<?xml version="1.0" standalone="no"?>
<!DOCTYPE svg PUBLIC "-//W3C//DTD SVG 20010904//EN"
 "http://www.w3.org/TR/2001/REC-SVG-20010904/DTD/svg10.dtd">
<svg version="1.0" xmlns="http://www.w3.org/2000/svg"
 width="300.000000pt" height="155.000000pt" viewBox="0 0 300.000000 155.000000"
 preserveAspectRatio="xMidYMid meet">
<metadata>
Created by potrace 1.16, written by Peter Selinger 2001-2019
</metadata>
<g transform="translate(0.000000,155.000000) scale(0.100000,-0.100000)"
fill="#000000" stroke="none">
<path d="M1650 820 l0 -131 -31 23 c-60 45 -154 20 -188 -48 -20 -38 -18 -122
3 -162 16 -31 61 -62 90 -62 8 0 22 -7 30 -16 14 -13 16 -13 16 -1 0 8 8 17
18 20 9 4 27 14 40 23 20 15 22 15 22 0 0 -11 9 -16 26 -16 22 0 25 3 20 23
-3 12 -6 124 -6 250 0 220 -1 227 -20 227 -19 0 -20 -7 -20 -130z m-56 -134
c26 -11 37 -24 48 -57 27 -79 -13 -149 -84 -149 -56 0 -114 63 -78 85 6 3 9
14 9 23 -1 15 -2 15 -6 0 -6 -24 -23 -23 -23 1 0 41 23 83 54 97 39 17 40 17
80 0z"/>
<path d="M585 890 c-132 -57 -180 -252 -89 -359 14 -17 23 -34 20 -39 -3 -5 1
-9 8 -9 8 0 33 -9 57 -20 72 -33 99 -36 172 -13 65 20 67 22 67 55 0 36 -14
53 -26 34 -4 -8 -3 -9 4 -5 7 4 12 2 12 -3 0 -18 -72 -43 -125 -44 -54 0 -125
27 -125 48 0 7 -7 15 -14 18 -31 12 -49 68 -43 132 12 152 154 229 282 154
l35 -21 0 30 c0 26 -6 32 -41 46 -52 21 -140 19 -194 -4z"/>
<path d="M1932 780 c2 -42 0 -50 -14 -50 -22 0 -24 -29 -3 -44 11 -8 15 -38
16 -123 1 -112 2 -113 25 -113 24 0 24 0 24 120 l0 120 25 0 c18 0 25 5 25 20
0 15 -7 20 -25 20 -23 0 -25 3 -25 50 0 47 -1 50 -26 50 -25 0 -26 -2 -22 -50z"/>
<path d="M980 721 c-18 -12 -24 -13 -28 -3 -2 6 -12 12 -23 12 -18 0 -19 -9
-19 -140 0 -133 1 -140 20 -140 18 0 20 7 20 78 0 83 12 141 32 154 7 4 25 8
39 8 22 0 39 15 39 35 0 11 -61 8 -80 -4z"/>
<path d="M1182 730 c-40 -9 -78 -43 -87 -77 -5 -22 -8 -23 -23 -11 -15 12 -16
11 -3 -5 9 -11 12 -32 9 -62 -3 -25 -2 -42 3 -39 5 3 9 -1 9 -9 0 -8 9 -26 21
-41 18 -23 19 -25 2 -19 -10 3 -15 3 -11 -2 4 -4 15 -8 25 -9 10 -1 37 -8 60
-15 38 -13 45 -12 87 9 46 22 72 52 61 70 -10 16 -25 12 -43 -11 -32 -38 -148
-34 -125 5 3 6 3 8 -2 4 -13 -12 -35 12 -35 38 0 24 1 24 110 24 87 0 110 3
110 14 0 98 -73 157 -168 136z"/>
</g>
</svg>
