<svg width="270" height="63" viewBox="0 0 270 63" fill="none" xmlns="http://www.w3.org/2000/svg">
<path d="M0 36.0641V21.7102H8.595V27.2948L17.8875 18.032L8.595 8.74688V14.309H0V0H30.06V8.56746H20.565L30.06 18.032L20.565 27.4742H30.06V36.0641H0Z" fill="#7DD6EA"/>
<path d="M8.4375 55.3519C7.8975 55.1052 7.2225 54.9706 6.39 54.9706H2.7V53.311H9.2475V51.27H0V55.9799V61.0486H6.39C7.155 61.0486 7.8075 60.914 8.3475 60.6673C8.8875 60.4206 9.2925 60.0618 9.585 59.6132C9.8775 59.1646 10.0125 58.6264 10.0125 58.0208C10.0125 57.4153 9.8775 56.877 9.63 56.4284C9.36 55.9575 8.955 55.5986 8.4375 55.3519ZM6.975 58.7609C6.75 58.9628 6.435 59.0525 6.03 59.0525H2.7V56.8097H6.03C6.4125 56.8097 6.7275 56.8994 6.975 57.1013C7.2 57.3031 7.3125 57.5723 7.3125 57.9311C7.3125 58.29 7.2 58.5815 6.975 58.7609Z" fill="white"/>
<path d="M14.0174 51.2476H11.3174V61.0261H14.0174V51.2476Z" fill="white"/>
<path d="M16.2001 58.8058C15.8851 58.8058 15.5251 58.7386 15.1426 58.5816V60.8244C15.4126 60.9589 15.7051 61.0711 16.0426 61.1384C16.3801 61.2056 16.6951 61.2505 17.0326 61.2505C21.1051 61.2505 20.8126 53.6699 20.8126 53.6699H24.4126V61.0486H27.1351V51.2701H18.0901C18.0901 51.2476 18.2701 58.8058 16.2001 58.8058Z" fill="white"/>
<path d="M36.5625 54.7015C35.955 54.4099 35.2575 54.2753 34.425 54.2753H31.6575V51.2476H28.9575V61.0261H34.425C35.2575 61.0261 35.9775 60.8916 36.5625 60.6C37.17 60.3309 37.62 59.9272 37.935 59.4113C38.25 58.8955 38.4075 58.3124 38.4075 57.6395C38.4075 56.9667 38.25 56.3611 37.935 55.8677C37.62 55.3743 37.17 54.993 36.5625 54.7015ZM35.3025 58.5815C35.055 58.8058 34.7175 58.9179 34.2675 58.9179H31.6575V56.4284H34.2675C34.7175 56.4284 35.055 56.5405 35.3025 56.7648C35.55 56.9891 35.685 57.2807 35.685 57.6844C35.685 58.0432 35.55 58.3572 35.3025 58.5815Z" fill="white"/>
<path d="M52.8526 58.6488H48.9376V51.2476H46.2151V58.6488H42.3001V51.2476H39.6001V61.0486H55.5526V51.2476H52.8526V58.6488Z" fill="white"/>
<path d="M59.805 57.1237H65.7675V55.1724H59.805V53.4455H66.15V51.2476H57.0825V56.1593V61.0486H66.2175V58.8506H59.805V57.1237Z" fill="white"/>
<path d="M73.6426 54.5221C73.3501 54.3651 73.0351 54.2754 72.6751 54.2754C72.3151 54.2754 72.0001 54.3651 71.7301 54.5221C71.4376 54.6791 71.2126 54.9034 71.0551 55.1949C70.8976 55.4865 70.8076 55.8005 70.8076 56.1593C70.8076 56.5182 70.8976 56.8322 71.0551 57.1013C71.2126 57.3929 71.4376 57.6172 71.7301 57.7741C72.0226 57.9311 72.3376 58.0209 72.6751 58.0209C73.0351 58.0209 73.3501 57.9311 73.6426 57.7741C73.9351 57.6172 74.1601 57.3929 74.3176 57.1013C74.4751 56.8097 74.5651 56.4958 74.5651 56.1593C74.5651 55.8005 74.4751 55.4865 74.3176 55.1949C74.1601 54.9034 73.9351 54.6791 73.6426 54.5221Z" fill="white"/>
<path d="M87.1423 54.8809H82.1248V51.2476H79.4248V61.0486H82.1248V57.2807H87.1423V61.0486H89.8648V51.2476H87.1423V54.8809Z" fill="white"/>
<path d="M95.2651 51.2476L90.8101 61.0261H93.7126L94.5226 59.1422H99.6076L100.418 61.0261H103.32L98.8651 51.2476H95.2651ZM95.4451 56.9891L97.0426 53.3109L98.6401 56.9891H95.4451Z" fill="white"/>
<path d="M115.2 51.2476H106.695L105.412 58.6488H103.545V62.9998H106.087V61.0261H114.322V62.9998H116.865V58.6488H115.2V51.2476ZM108.9 53.6249H112.477V58.6936H108.022L108.9 53.6249Z" fill="white"/>
<path d="M126.383 51.6963C125.505 51.2702 124.493 51.0684 123.323 51.0684C122.153 51.0684 121.14 51.2702 120.263 51.6963C119.385 52.1225 118.71 52.728 118.215 53.4906C117.72 54.2531 117.495 55.1502 117.495 56.1595C117.495 57.1688 117.743 58.0659 118.215 58.8284C118.71 59.591 119.385 60.1965 120.263 60.6226C121.14 61.0488 122.153 61.2506 123.323 61.2506C124.493 61.2506 125.505 61.0488 126.383 60.6226C127.26 60.1965 127.935 59.591 128.43 58.8284C128.925 58.0659 129.173 57.1688 129.173 56.1595C129.173 55.1502 128.925 54.2531 128.43 53.4906C127.935 52.7056 127.26 52.1225 126.383 51.6963ZM126.045 57.5949C125.798 57.9986 125.438 58.3126 124.988 58.5144C124.515 58.7387 123.975 58.8508 123.345 58.8508C122.715 58.8508 122.175 58.7387 121.703 58.5144C121.23 58.2901 120.893 57.9986 120.623 57.5949C120.375 57.1912 120.24 56.7202 120.24 56.1595C120.24 55.5988 120.375 55.1278 120.623 54.7241C120.87 54.3204 121.23 54.0064 121.703 53.8046C122.175 53.5803 122.715 53.4681 123.345 53.4681C123.975 53.4681 124.538 53.5803 124.988 53.8046C125.46 54.0288 125.798 54.3204 126.045 54.7241C126.293 55.1278 126.428 55.5988 126.428 56.1595C126.405 56.6978 126.293 57.1912 126.045 57.5949Z" fill="white"/>
<path d="M139.185 56.092C138.983 56.0023 138.78 55.935 138.533 55.8902C138.623 55.8453 138.713 55.8005 138.78 55.7556C139.208 55.5089 139.5 55.1725 139.703 54.8136C139.905 54.4324 139.995 54.0511 139.995 53.6474C139.995 52.9073 139.748 52.3241 139.23 51.898C138.735 51.4719 138.015 51.27 137.115 51.27H130.118V56.0247V61.0486H137.363C138.083 61.0486 138.69 60.9364 139.185 60.6897C139.68 60.443 140.04 60.129 140.288 59.7029C140.535 59.2992 140.648 58.8282 140.648 58.29C140.648 57.7965 140.535 57.348 140.288 56.9891C140.04 56.6079 139.68 56.2939 139.185 56.092ZM136.98 53.4007C137.16 53.5801 137.25 53.7819 137.25 54.0511C137.25 54.3651 137.138 54.6342 136.935 54.8136C136.71 54.993 136.463 55.1052 136.148 55.1052H132.863V53.154H136.193C136.53 53.154 136.778 53.2437 136.98 53.4007ZM137.565 58.8731C137.34 59.0749 137.048 59.1646 136.643 59.1646H132.84V56.9667H136.485C136.958 56.9667 137.295 57.0788 137.543 57.2807C137.768 57.4825 137.903 57.7517 137.903 58.0881C137.903 58.4021 137.79 58.6712 137.565 58.8731Z" fill="white"/>
<path d="M155.25 58.6488H151.335V51.2476H148.613V58.6488H144.698V51.2476H141.998V61.0486H157.95V51.2476H155.25V58.6488Z" fill="white"/>
<path d="M162.157 57.1237H168.165V55.1724H162.157V53.4455H168.547V51.2476H159.48V56.1593V61.0486H168.592V58.8506H162.157V57.1237Z" fill="white"/>
<path d="M176.04 54.5221C175.748 54.3651 175.433 54.2754 175.073 54.2754C174.713 54.2754 174.398 54.3651 174.128 54.5221C173.835 54.6791 173.61 54.9034 173.453 55.1949C173.295 55.4865 173.205 55.8005 173.205 56.1593C173.205 56.5182 173.295 56.8322 173.453 57.1013C173.61 57.3929 173.835 57.6172 174.128 57.7741C174.42 57.9311 174.735 58.0209 175.073 58.0209C175.433 58.0209 175.748 57.9311 176.04 57.7741C176.333 57.6172 176.558 57.3929 176.715 57.1013C176.873 56.8097 176.963 56.4958 176.963 56.1593C176.963 55.8005 176.873 55.4865 176.715 55.1949C176.558 54.9034 176.333 54.6791 176.04 54.5221Z" fill="white"/>
<path d="M189.562 56.1146C189.427 56.0698 189.292 56.0474 189.135 56.0249C189.292 55.9801 189.427 55.9352 189.562 55.8904C190.125 55.6661 190.552 55.3745 190.822 55.0157C191.092 54.6568 191.227 54.2531 191.227 53.8046C191.227 53.2663 191.025 52.7729 190.642 52.3692C190.26 51.9655 189.72 51.6291 189.022 51.4048C188.325 51.1805 187.515 51.0684 186.57 51.0684C185.49 51.0684 184.567 51.2254 183.802 51.5393C183.037 51.8533 182.452 52.257 182.047 52.7953C181.642 53.3111 181.417 53.8943 181.35 54.5447H184.05C184.117 54.0961 184.365 53.7597 184.747 53.513C185.152 53.2663 185.692 53.1542 186.412 53.1542C186.84 53.1542 187.2 53.199 187.515 53.2887C187.807 53.3784 188.055 53.4906 188.212 53.6476C188.37 53.8046 188.46 54.0064 188.46 54.2307C188.46 54.4325 188.392 54.612 188.235 54.769C188.1 54.926 187.875 55.0381 187.582 55.1278C187.29 55.2175 186.93 55.2624 186.48 55.2624H184.725V57.0566H186.525C187.29 57.0566 187.852 57.1239 188.19 57.2809C188.527 57.4379 188.685 57.6846 188.685 58.021C188.685 58.4023 188.482 58.7163 188.1 58.8957C187.717 59.0976 187.155 59.1873 186.435 59.1873C185.67 59.1873 185.062 59.0527 184.635 58.806C184.207 58.5593 183.96 58.2004 183.892 57.7294H181.17C181.215 58.4471 181.44 59.0751 181.867 59.591C182.295 60.1292 182.902 60.5329 183.69 60.8245C184.477 61.1161 185.377 61.2506 186.412 61.2506C187.492 61.2506 188.415 61.1161 189.157 60.8694C189.9 60.6002 190.485 60.2414 190.867 59.7928C191.25 59.3443 191.452 58.806 191.452 58.2229C191.452 57.6846 191.295 57.236 190.957 56.8772C190.665 56.5183 190.192 56.2716 189.562 56.1146Z" fill="white"/>
<path d="M200.543 51.6737C199.935 51.4046 199.238 51.2476 198.405 51.2476H192.893V61.0261H195.593V57.9759H198.383C199.193 57.9759 199.913 57.8414 200.52 57.5498C201.128 57.2807 201.578 56.877 201.893 56.3611C202.208 55.8453 202.365 55.2622 202.365 54.5893C202.365 53.9165 202.208 53.3109 201.893 52.8175C201.6 52.3465 201.15 51.9428 200.543 51.6737ZM199.283 55.5089C199.035 55.7331 198.698 55.8229 198.27 55.8229H195.638V53.4006H198.27C198.698 53.4006 199.058 53.5128 199.283 53.7146C199.508 53.9165 199.643 54.2305 199.643 54.6117C199.643 55.0154 199.53 55.307 199.283 55.5089Z" fill="white"/>
<path d="M208.215 56.3387L205.29 51.2476H202.297L206.73 58.8955L205.492 61.0486H208.417L214.065 51.2476H211.117L208.215 56.3387Z" fill="white"/>
<path d="M222.03 55.2398C221.67 55.3743 221.31 55.4865 220.95 55.5537C220.477 55.6435 220.005 55.7107 219.577 55.7107C218.835 55.7107 218.272 55.5313 217.89 55.1949C217.507 54.8585 217.327 54.3202 217.327 53.6474V51.27H214.627V53.8717C214.627 55.2398 214.987 56.2939 215.73 57.0116C216.472 57.7293 217.53 58.1105 218.925 58.1105C219.577 58.1105 220.207 58.0433 220.837 57.9087C221.265 57.819 221.67 57.6844 222.052 57.5274V61.071H224.775V51.2924H222.052V55.2398H222.03Z" fill="white"/>
<path d="M234.293 54.8809H229.298V51.2476H226.575V61.0486H229.298V57.2807H234.293V61.0486H237.015V51.2476H234.293V54.8809Z" fill="white"/>
<path d="M241.56 51.2476H238.86V61.0261H241.56V51.2476Z" fill="white"/>
<path d="M256.635 58.6488H252.72V51.2476H250.02V58.6488H246.105V51.2476H243.405V61.0486H259.357V51.2476H256.635V58.6488Z" fill="white"/>
<path d="M263.588 58.8506V57.1237H269.573V55.1724H263.588V53.4455H270V51.2476H260.888V56.1593V61.0486H270V58.8506H263.588Z" fill="white"/>
<path d="M73.0127 12.1559H57.6002V0H45.1577V36.0641H57.6002V23.1232H73.0127V36.0641H85.4552V0H73.0127V12.1559Z" fill="white"/>
<path d="M103.95 29.9861H120.803L123.278 36.0416H136.53L120.668 0H104.085L88.2227 36.0641H101.475L103.95 29.9861ZM107.978 20.1403L112.365 9.37487L116.753 20.1403H107.978Z" fill="white"/>
<path d="M181.08 17.6508C180.473 17.4041 179.82 17.1798 179.123 17.0004C179.303 16.9106 179.483 16.8209 179.663 16.7088C181.26 15.7668 182.408 14.6006 183.105 13.2325C183.803 11.8644 184.163 10.3841 184.163 8.81417C184.163 6.05554 183.218 3.90246 181.328 2.35493C179.415 0.784977 176.805 0 173.453 0H147.015V17.5386V36.0417H174.465C177.165 36.0417 179.415 35.5931 181.215 34.696C183.015 33.7989 184.365 32.5653 185.243 30.9954C186.12 29.4254 186.57 27.6536 186.57 25.7024C186.57 23.8184 186.12 22.1812 185.198 20.8131C184.275 19.4674 182.903 18.4133 181.08 17.6508ZM170.753 8.94874C171.27 9.41972 171.518 10.0477 171.518 10.7654C171.518 11.5728 171.225 12.2232 170.663 12.7391C170.1 13.2549 169.403 13.5016 168.57 13.5016H159.12V8.23104H168.57C169.515 8.23104 170.235 8.45532 170.753 8.94874ZM173.025 27.0032C172.418 27.5639 171.585 27.8555 170.528 27.8555H159.075L159.12 21.5981H170.415C171.563 21.5981 172.44 21.9121 173.048 22.5176C173.633 23.1232 173.948 23.8633 173.948 24.738C173.925 25.68 173.633 26.4425 173.025 27.0032Z" fill="white"/>
<path d="M205.83 11.0345C207.158 10.4066 208.755 10.0926 210.623 10.0926C212.288 10.0926 213.75 10.3168 214.988 10.7654C216.225 11.214 217.238 11.8419 218.003 12.6942C218.768 13.5465 219.308 14.5557 219.6 15.7444H232.088C231.705 12.6045 230.558 9.84585 228.69 7.49092C226.8 5.13599 224.325 3.2969 221.243 1.99608C218.16 0.650409 214.628 0 210.645 0C206.325 0 202.568 0.740121 199.35 2.24279C196.133 3.74546 193.635 5.85368 191.858 8.54503C190.08 11.2588 189.18 14.3987 189.18 18.0096C189.18 21.6205 190.08 24.7828 191.858 27.4742C193.635 30.188 196.133 32.2738 199.35 33.7764C202.568 35.2791 206.325 36.0192 210.645 36.0192C214.628 36.0192 218.16 35.3688 221.265 34.0456C224.348 32.7223 226.845 30.9057 228.713 28.5507C230.603 26.1958 231.728 23.4372 232.11 20.2973H219.6C219.308 21.5532 218.79 22.6073 218.003 23.4372C217.238 24.2894 216.225 24.895 214.988 25.3211C213.75 25.7248 212.288 25.9491 210.623 25.9491C208.755 25.9491 207.158 25.6351 205.83 24.9847C204.503 24.3343 203.468 23.4372 202.77 22.2485C202.073 21.0822 201.713 19.6469 201.713 18.0096C201.713 16.3724 202.073 14.937 202.77 13.7483C203.49 12.5596 204.503 11.6625 205.83 11.0345Z" fill="white"/>
<path d="M248.153 26.2407V22.3158H268.223V13.7483H248.153V9.801H270V0H237.623V18.032V36.0641H270V26.2407H248.153Z" fill="white"/>
</svg>
