<?xml version="1.0" encoding="UTF-8"?>
<!DOCTYPE svg PUBLIC "-//W3C//DTD SVG 1.1//EN" "http://www.w3.org/Graphics/SVG/1.1/DTD/svg11.dtd">
<svg xmlns="http://www.w3.org/2000/svg" version="1.1" width="1200px" height="206px" style="shape-rendering:geometricPrecision; text-rendering:geometricPrecision; image-rendering:optimizeQuality; fill-rule:evenodd; clip-rule:evenodd" xmlns:xlink="http://www.w3.org/1999/xlink">
<g><path style="opacity:0.995" fill="#3cad2b" d="M 0.5,-0.5 C 28.1667,-0.5 55.8333,-0.5 83.5,-0.5C 88.1667,12.5 92.8333,25.5 97.5,38.5C 84.4517,74.9314 71.1184,111.265 57.5,147.5C 57.1667,147.5 56.8333,147.5 56.5,147.5C 37.8333,98.1667 19.1667,48.8333 0.5,-0.5 Z"/></g>
<g><path style="opacity:0.991" fill="#915efe" d="M 98.5,38.5 C 125.5,38.5 152.5,38.5 179.5,38.5C 179.477,40.9267 178.977,43.26 178,45.5C 165.1,80.0498 151.933,114.383 138.5,148.5C 138.672,147.508 138.338,146.842 137.5,146.5C 124.49,110.485 111.49,74.4846 98.5,38.5 Z"/></g>
<g><path style="opacity:1" fill="#2c6089" d="M 97.5,38.5 C 97.8333,38.5 98.1667,38.5 98.5,38.5C 111.49,74.4846 124.49,110.485 137.5,146.5C 111.005,147.498 84.3386,147.831 57.5,147.5C 71.1184,111.265 84.4517,74.9314 97.5,38.5 Z"/></g>
<g><path style="opacity:0.984" fill="#3dae2b" d="M 260.5,43.5 C 277.394,43.1832 291.56,49.1832 303,61.5C 319.793,44.0117 339.627,39.5117 362.5,48C 378.157,54.9904 387.99,66.8238 392,83.5C 393.445,105.455 393.945,127.455 393.5,149.5C 384.833,149.5 376.167,149.5 367.5,149.5C 367.953,128.78 367.453,108.113 366,87.5C 358.975,72.4047 347.475,67.2381 331.5,72C 324.091,75.739 319.257,81.5723 317,89.5C 316.5,109.497 316.333,129.497 316.5,149.5C 307.5,149.5 298.5,149.5 289.5,149.5C 289.667,129.831 289.5,110.164 289,90.5C 283.803,74.6502 272.97,68.1502 256.5,71C 247.599,74.2349 241.766,80.4016 239,89.5C 238.5,109.497 238.333,129.497 238.5,149.5C 229.833,149.5 221.167,149.5 212.5,149.5C 212.333,128.497 212.5,107.497 213,86.5C 219.243,61.4174 235.077,47.0841 260.5,43.5 Z"/></g>
<g><path style="opacity:0.983" fill="#3cae2a" d="M 451.5,43.5 C 475.183,42.4231 493.35,51.7564 506,71.5C 516.186,93.4029 514.186,114.07 500,133.5C 481.73,152.299 460.23,157.132 435.5,148C 407.275,131.676 398.108,107.842 408,76.5C 417.016,58.0947 431.516,47.0947 451.5,43.5 Z M 455.5,68.5 C 474.263,69.4293 484.263,79.2627 485.5,98C 483.204,120.632 470.87,129.966 448.5,126C 436.727,120.469 430.727,111.135 430.5,98C 431.512,81.7381 439.845,71.9047 455.5,68.5 Z"/></g>
<g><path style="opacity:0.984" fill="#3cae2b" d="M 571.5,43.5 C 600.581,44.1118 618.748,58.4451 626,86.5C 626.5,107.497 626.667,128.497 626.5,149.5C 617.833,149.5 609.167,149.5 600.5,149.5C 600.667,129.497 600.5,109.497 600,89.5C 594.244,74.3729 583.411,68.2062 567.5,71C 558.138,74.3603 552.305,80.8603 550,90.5C 549.5,110.164 549.333,129.831 549.5,149.5C 540.833,149.5 532.167,149.5 523.5,149.5C 523.333,128.831 523.5,108.164 524,87.5C 529.798,61.8641 545.632,47.1974 571.5,43.5 Z"/></g>
<g><path style="opacity:0.98" fill="#3cae2b" d="M 683.5,43.5 C 725.192,43.1917 745.858,63.8584 745.5,105.5C 718.167,105.5 690.833,105.5 663.5,105.5C 668.498,123.847 680.498,131.347 699.5,128C 706.278,126.552 712.111,123.385 717,118.5C 724.424,122.128 731.924,125.628 739.5,129C 728.377,145.146 712.877,152.979 693,152.5C 658.526,150.859 640.026,132.859 637.5,98.5C 637.748,72.8115 649.748,55.3115 673.5,46C 676.991,45.262 680.325,44.4287 683.5,43.5 Z M 686.5,66.5 C 701.16,64.8279 711.826,70.4945 718.5,83.5C 700.833,84.8333 683.167,84.8333 665.5,83.5C 669.893,74.4241 676.893,68.7574 686.5,66.5 Z"/></g>
<g><path style="opacity:0.979" fill="#3cae2b" d="M 1017.5,43.5 C 1049.86,41.7347 1070.02,56.4014 1078,87.5C 1078.83,93.4771 1079.33,99.4771 1079.5,105.5C 1051.83,105.167 1024.16,105.5 996.5,106.5C 1002.36,124.439 1014.69,131.606 1033.5,128C 1039.77,125.901 1045.43,122.734 1050.5,118.5C 1057.38,122.106 1064.38,125.439 1071.5,128.5C 1072.52,129.002 1072.69,129.668 1072,130.5C 1058.02,147.835 1039.85,155.001 1017.5,152C 987.502,146.831 971.835,128.998 970.5,98.5C 972.285,68.0635 987.952,49.7302 1017.5,43.5 Z M 1019.5,66.5 C 1030.16,65.1199 1039.33,68.1199 1047,75.5C 1049.06,78.2857 1050.56,81.2857 1051.5,84.5C 1033.83,84.6666 1016.16,84.4999 998.5,84C 1002.7,74.6191 1009.7,68.7858 1019.5,66.5 Z"/></g>
<g><path style="opacity:0.983" fill="#3cae2b" d="M 1136.5,43.5 C 1170.86,42.7095 1191.36,59.0428 1198,92.5C 1199.25,115.828 1190.09,133.661 1170.5,146C 1139.58,159.234 1114.75,152.067 1096,124.5C 1083.78,95.5487 1089.95,71.382 1114.5,52C 1121.43,47.8619 1128.76,45.0286 1136.5,43.5 Z M 1140.5,68.5 C 1162.04,69.5404 1172.2,80.8738 1171,102.5C 1167.54,120.477 1156.71,128.644 1138.5,127C 1121.28,121.413 1114.11,109.58 1117,91.5C 1120.13,78.869 1127.96,71.2023 1140.5,68.5 Z"/></g>
<g><path style="opacity:0.982" fill="#3cae2b" d="M 756.5,46.5 C 765.167,46.5 773.833,46.5 782.5,46.5C 782.333,66.1695 782.5,85.8362 783,105.5C 786.43,118.259 794.763,125.259 808,126.5C 820.78,125.386 829.113,118.72 833,106.5C 833.5,86.5028 833.667,66.5028 833.5,46.5C 842.167,46.5 850.833,46.5 859.5,46.5C 859.667,84.5015 859.5,122.501 859,160.5C 852.465,186.864 835.632,201.198 808.5,203.5C 807.502,194.525 807.168,185.525 807.5,176.5C 826.062,174.943 834.396,164.943 832.5,146.5C 801.763,158.755 777.93,150.755 761,122.5C 759.259,117.946 757.926,113.279 757,108.5C 756.5,87.836 756.333,67.1694 756.5,46.5 Z"/></g>
<g><path style="opacity:0.984" fill="#3cae2b" d="M 866.5,47.5 C 875.675,46.1778 885.008,46.1778 894.5,47.5C 902.576,66.6476 910.909,85.6476 919.5,104.5C 928.151,85.7152 936.318,66.7152 944,47.5C 953.107,46.1834 962.273,46.1834 971.5,47.5C 957.362,81.2485 943.028,114.915 928.5,148.5C 922.278,149.809 916.111,149.809 910,148.5C 895.768,114.609 881.268,80.9424 866.5,47.5 Z"/></g>
<g><path style="opacity:0.898" fill="#3d767f" d="M 137.5,146.5 C 138.338,146.842 138.672,147.508 138.5,148.5C 110.995,148.831 83.6616,148.498 56.5,147.5C 56.8333,147.5 57.1667,147.5 57.5,147.5C 84.3386,147.831 111.005,147.498 137.5,146.5 Z"/></g>
</svg>
