<?xml version="1.0" encoding="UTF-8"?>
<!DOCTYPE svg PUBLIC "-//W3C//DTD SVG 1.1//EN" "http://www.w3.org/Graphics/SVG/1.1/DTD/svg11.dtd">
<svg xmlns="http://www.w3.org/2000/svg" version="1.1" width="900px" height="300px" style="shape-rendering:geometricPrecision; text-rendering:geometricPrecision; image-rendering:optimizeQuality; fill-rule:evenodd; clip-rule:evenodd" xmlns:xlink="http://www.w3.org/1999/xlink">
<g><path style="opacity:0.906" fill="#70bb3d" d="M 145.5,-0.5 C 196.5,-0.5 247.5,-0.5 298.5,-0.5C 299.504,0.682751 300.338,2.01608 301,3.5C 301.83,50.4041 301.664,97.2375 300.5,144C 327.5,144.333 354.5,144.667 381.5,145C 382,145.5 382.5,146 383,146.5C 383.828,197.571 383.662,248.571 382.5,299.5C 290.5,299.5 198.5,299.5 106.5,299.5C 101.261,296.276 96.2612,292.609 91.5,288.5C 89.5065,293.489 86.1731,297.156 81.5,299.5C 57.5,299.5 33.5,299.5 9.5,299.5C 5.83333,296.5 2.5,293.167 -0.5,289.5C -0.5,252.833 -0.5,216.167 -0.5,179.5C 2.77415,174.73 7.10748,171.23 12.5,169C 34.8333,168.333 57.1667,168.333 79.5,169C 82.9514,170.463 85.7847,172.629 88,175.5C 96.1667,167.333 104.333,159.167 112.5,151C 102.272,114.922 92.2716,78.7556 82.5,42.5C 83.343,39.623 85.0097,37.4563 87.5,36C 105.789,30.8443 124.123,25.8443 142.5,21C 143.312,14.9149 143.812,8.7482 144,2.5C 144.513,1.47344 145.013,0.473444 145.5,-0.5 Z M 156.5,12.5 C 200.167,12.5 243.833,12.5 287.5,12.5C 287.5,56.5 287.5,100.5 287.5,144.5C 275.167,144.5 262.833,144.5 250.5,144.5C 245.111,125.798 232.777,118.298 213.5,122C 202.929,126.06 196.595,133.56 194.5,144.5C 189.833,144.5 185.167,144.5 180.5,144.5C 180.333,117.831 180.5,91.1646 181,64.5C 189.803,61.5978 196.136,55.9311 200,47.5C 200.49,46.2068 200.657,44.8734 200.5,43.5C 215.17,43.3334 229.837,43.5001 244.5,44C 246.982,54.1621 253.482,60.9954 264,64.5C 264.333,71.5 264.667,78.5 265,85.5C 269.075,89.4101 273.075,89.4101 277,85.5C 277.667,75.1667 277.667,64.8333 277,54.5C 271.852,52.3835 266.685,50.2168 261.5,48C 257.603,44.3694 255.77,39.8694 256,34.5C 255.535,33.0692 254.701,31.9025 253.5,31C 233.256,29.3575 212.923,29.0241 192.5,30C 191.333,31.1667 190.167,32.3333 189,33.5C 188.483,45.3505 182.316,51.5172 170.5,52C 168.951,53.214 167.785,54.714 167,56.5C 166.5,85.8314 166.333,115.165 166.5,144.5C 163.167,144.5 159.833,144.5 156.5,144.5C 156.5,100.5 156.5,56.5 156.5,12.5 Z M 142.5,34.5 C 143.491,41.3134 143.825,48.3134 143.5,55.5C 140.495,55.253 137.995,56.253 136,58.5C 136.36,65.5686 135.027,72.2352 132,78.5C 127.686,80.8095 123.686,83.4761 120,86.5C 119.849,90.9131 120.516,95.2464 122,99.5C 125.94,114.428 130.106,129.262 134.5,144C 131.167,144.667 127.833,144.667 124.5,144C 115.446,111.618 106.779,79.1178 98.5,46.5C 113.434,43.102 128.101,39.102 142.5,34.5 Z M 142.5,85.5 C 143.66,98.3268 143.827,111.327 143,124.5C 140.266,114.133 137.433,103.799 134.5,93.5C 136.359,91.8076 138.359,90.3076 140.5,89C 141.823,88.1841 142.489,87.0174 142.5,85.5 Z M 217.5,134.5 C 226.375,133.174 233.042,136.34 237.5,144C 227.5,144.667 217.5,144.667 207.5,144C 210.072,139.926 213.405,136.759 217.5,134.5 Z M 210.5,158.5 C 263.997,157.501 317.664,157.168 371.5,157.5C 371.5,163.167 371.5,168.833 371.5,174.5C 317.832,174.667 264.166,174.5 210.5,174C 213.147,168.729 213.147,163.562 210.5,158.5 Z M 123.5,158.5 C 147.169,158.333 170.836,158.5 194.5,159C 200.339,164.958 199.672,169.958 192.5,174C 171.5,174.333 150.5,174.667 129.5,175C 125.346,179.399 125.679,183.399 130.5,187C 168.5,187.333 206.5,187.667 244.5,188C 245.766,188.309 246.933,188.809 248,189.5C 250.903,195.003 249.737,199.169 244.5,202C 223.167,202.333 201.833,202.667 180.5,203C 176.5,207 176.5,211 180.5,215C 207.5,215.333 234.5,215.667 261.5,216C 266.085,216.418 268.419,218.918 268.5,223.5C 267.995,226.188 266.662,228.355 264.5,230C 236.833,230.333 209.167,230.667 181.5,231C 177.708,233.053 176.542,236.219 178,240.5C 178.652,242.723 180.152,243.89 182.5,244C 206.254,244.02 229.921,244.686 253.5,246C 254.167,246.667 254.833,247.333 255.5,248C 255.421,250.305 255.254,252.805 255,255.5C 253.442,257.768 251.276,258.934 248.5,259C 225.833,259.333 203.167,259.667 180.5,260C 179.692,260.308 179.025,260.808 178.5,261.5C 176.441,266.033 177.441,269.533 181.5,272C 198.167,272.333 214.833,272.667 231.5,273C 236.602,276.553 237.269,280.72 233.5,285.5C 232.5,286 231.5,286.5 230.5,287C 191.833,287.667 153.167,287.667 114.5,287C 111.126,286.479 108.126,285.146 105.5,283C 100.833,278.667 96.1667,274.333 91.5,270C 92.8333,243.667 92.8333,217.333 91.5,191C 103.038,180.962 113.705,170.129 123.5,158.5 Z M 15.5,181.5 C 23.5,181.5 31.5,181.5 39.5,181.5C 39.3334,204.836 39.5,228.169 40,251.5C 43.9247,255.41 47.9247,255.41 52,251.5C 52.5,228.169 52.6666,204.836 52.5,181.5C 60.5069,181.334 68.5069,181.5 76.5,182C 77.7014,182.903 78.5348,184.069 79,185.5C 79.6667,217.833 79.6667,250.167 79,282.5C 78.8898,284.848 77.7231,286.348 75.5,287C 55.5,287.667 35.5,287.667 15.5,287C 14.6667,286.167 13.8333,285.333 13,284.5C 12.3333,251.167 12.3333,217.833 13,184.5C 13.6979,183.309 14.5313,182.309 15.5,181.5 Z M 277.5,205.5 C 308.833,205.5 340.167,205.5 371.5,205.5C 371.5,232.833 371.5,260.167 371.5,287.5C 330.165,287.667 288.832,287.5 247.5,287C 250.167,282.333 250.167,277.667 247.5,273C 264.787,270.24 271.454,260.407 267.5,243.5C 281.618,236.273 285.118,225.607 278,211.5C 277.505,209.527 277.338,207.527 277.5,205.5 Z"/></g>
<g><path style="opacity:0.97" fill="#566d73" d="M 522.5,75.5 C 540.764,75.654 558.097,79.8207 574.5,88C 575.488,100.086 575.822,112.253 575.5,124.5C 573.143,124.663 570.81,124.497 568.5,124C 559.544,115.687 549.211,109.687 537.5,106C 511.632,102.556 495.466,113.389 489,138.5C 485.679,154.252 487.679,169.252 495,183.5C 506.892,199.02 522.392,204.186 541.5,199C 551.439,195.699 560.106,190.365 567.5,183C 570.014,181.748 572.68,181.248 575.5,181.5C 575.832,193.518 575.499,205.518 574.5,217.5C 553.432,228.456 531.098,232.289 507.5,229C 475.762,223.927 456.262,205.76 449,174.5C 443.645,148.617 447.979,124.617 462,102.5C 478.144,84.3421 498.31,75.3421 522.5,75.5 Z"/></g>
<g><path style="opacity:0.982" fill="#566d73" d="M 612.5,78.5 C 625.5,78.5 638.5,78.5 651.5,78.5C 651.5,118.5 651.5,158.5 651.5,198.5C 674.167,198.5 696.833,198.5 719.5,198.5C 719.5,207.833 719.5,217.167 719.5,226.5C 683.833,226.5 648.167,226.5 612.5,226.5C 612.5,177.167 612.5,127.833 612.5,78.5 Z"/></g>
<g><path style="opacity:0.97" fill="#566d73" d="M 732.5,78.5 C 747.17,78.3334 761.837,78.5001 776.5,79C 787,97.5 797.5,116 808,134.5C 818.294,116.08 828.46,97.5802 838.5,79C 852.496,78.5001 866.496,78.3334 880.5,78.5C 863.363,109.162 845.53,139.495 827,169.5C 826.5,188.497 826.333,207.497 826.5,226.5C 813.5,226.5 800.5,226.5 787.5,226.5C 787.667,207.83 787.5,189.164 787,170.5C 768.558,139.943 750.392,109.276 732.5,78.5 Z"/></g>
<g><path style="opacity:0.796" fill="#a7b1b4" d="M 820.5,252.5 C 822.288,252.215 823.955,252.548 825.5,253.5C 826.212,255.046 827.378,256.046 829,256.5C 831.006,255.12 833.006,253.786 835,252.5C 835.833,252.833 836.667,253.167 837.5,253.5C 836.149,257.695 833.315,259.695 829,259.5C 823.65,260.089 820.816,257.756 820.5,252.5 Z"/></g>
<g><path style="opacity:0.879" fill="#70bb3d" d="M 331.5,256.5 C 335.576,256.121 339.243,257.121 342.5,259.5C 350.911,254.692 357.744,256.359 363,264.5C 365.104,274.656 361.104,280.323 351,281.5C 348.145,281.554 345.478,280.888 343,279.5C 331.474,284.653 324.307,281.153 321.5,269C 322.371,262.712 325.704,258.545 331.5,256.5 Z"/></g>
<g><path style="opacity:0.842" fill="#a7b1b4" d="M 679.5,260.5 C 694.424,259.592 700.924,266.592 699,281.5C 696.457,291.81 689.957,295.643 679.5,293C 672.402,290.158 669.069,284.824 669.5,277C 669.193,269.087 672.526,263.587 679.5,260.5 Z M 682.5,264.5 C 690.349,264.85 694.349,269.017 694.5,277C 692.831,289.095 686.998,291.928 677,285.5C 672.482,276.585 674.316,269.585 682.5,264.5 Z"/></g>
<g><path style="opacity:0.824" fill="#a7b1b4" d="M 450.5,261.5 C 452.167,261.5 453.833,261.5 455.5,261.5C 454.066,278.823 457.399,279.323 465.5,263C 468.351,261.711 471.351,261.211 474.5,261.5C 474.5,262.833 474.5,264.167 474.5,265.5C 472.345,265.372 470.345,265.872 468.5,267C 467.268,270.798 465.268,274.131 462.5,277C 466.8,282.301 471.466,287.301 476.5,292C 474.167,292.667 471.833,292.667 469.5,292C 465.465,288.3 461.798,284.3 458.5,280C 457.552,279.517 456.552,279.351 455.5,279.5C 455.5,283.833 455.5,288.167 455.5,292.5C 453.833,292.5 452.167,292.5 450.5,292.5C 450.5,282.167 450.5,271.833 450.5,261.5 Z"/></g>
<g><path style="opacity:0.88" fill="#a7b1b4" d="M 485.5,261.5 C 490.511,261.334 495.511,261.501 500.5,262C 506.092,264.402 507.925,268.569 506,274.5C 505.215,276.286 504.049,277.786 502.5,279C 498.605,280.266 494.605,280.766 490.5,280.5C 490.5,284.5 490.5,288.5 490.5,292.5C 488.833,292.5 487.167,292.5 485.5,292.5C 485.5,282.167 485.5,271.833 485.5,261.5 Z M 490.5,265.5 C 493.607,265.351 496.607,265.851 499.5,267C 502.034,269.587 502.034,272.253 499.5,275C 496.607,276.149 493.607,276.649 490.5,276.5C 490.5,272.833 490.5,269.167 490.5,265.5 Z"/></g>
<g><path style="opacity:0.951" fill="#a7b1b4" d="M 515.5,261.5 C 522.5,261.5 529.5,261.5 536.5,261.5C 536.5,262.833 536.5,264.167 536.5,265.5C 531.167,265.5 525.833,265.5 520.5,265.5C 520.5,268.167 520.5,270.833 520.5,273.5C 525.833,273.5 531.167,273.5 536.5,273.5C 536.5,274.833 536.5,276.167 536.5,277.5C 531.167,277.5 525.833,277.5 520.5,277.5C 520.5,281.167 520.5,284.833 520.5,288.5C 525.833,288.5 531.167,288.5 536.5,288.5C 536.5,289.833 536.5,291.167 536.5,292.5C 529.5,292.5 522.5,292.5 515.5,292.5C 515.5,282.167 515.5,271.833 515.5,261.5 Z"/></g>
<g><path style="opacity:0.874" fill="#a7b1b4" d="M 574.5,299.5 C 572.833,299.5 571.167,299.5 569.5,299.5C 569.5,297.167 569.5,294.833 569.5,292.5C 562.5,292.5 555.5,292.5 548.5,292.5C 548.5,294.833 548.5,297.167 548.5,299.5C 546.833,299.5 545.167,299.5 543.5,299.5C 542.691,294.462 543.857,290.128 547,286.5C 550.367,278.499 551.867,270.166 551.5,261.5C 558.167,261.5 564.833,261.5 571.5,261.5C 571.5,270.5 571.5,279.5 571.5,288.5C 572.5,288.5 573.5,288.5 574.5,288.5C 574.5,292.167 574.5,295.833 574.5,299.5 Z M 556.5,265.5 C 559.833,265.5 563.167,265.5 566.5,265.5C 566.5,273.167 566.5,280.833 566.5,288.5C 561.456,288.827 556.456,288.494 551.5,287.5C 554.879,280.564 556.545,273.231 556.5,265.5 Z"/></g>
<g><path style="opacity:0.816" fill="#a7b1b4" d="M 584.5,261.5 C 586.167,261.5 587.833,261.5 589.5,261.5C 589.334,268.841 589.5,276.174 590,283.5C 594.083,276.332 598.416,269.332 603,262.5C 605.041,261.577 607.208,261.244 609.5,261.5C 609.5,271.833 609.5,282.167 609.5,292.5C 607.833,292.5 606.167,292.5 604.5,292.5C 604.666,284.826 604.5,277.159 604,269.5C 599.333,276.833 594.667,284.167 590,291.5C 588.301,292.406 586.467,292.739 584.5,292.5C 584.5,282.167 584.5,271.833 584.5,261.5 Z"/></g>
<g><path style="opacity:0.912" fill="#a7b1b4" d="M 616.5,261.5 C 625.5,261.5 634.5,261.5 643.5,261.5C 643.5,262.833 643.5,264.167 643.5,265.5C 639.833,265.5 636.167,265.5 632.5,265.5C 632.5,274.5 632.5,283.5 632.5,292.5C 630.833,292.5 629.167,292.5 627.5,292.5C 627.5,283.5 627.5,274.5 627.5,265.5C 623.833,265.5 620.167,265.5 616.5,265.5C 616.5,264.167 616.5,262.833 616.5,261.5 Z"/></g>
<g><path style="opacity:0.884" fill="#a7b1b4" d="M 709.5,261.5 C 711.167,261.5 712.833,261.5 714.5,261.5C 714.5,265.5 714.5,269.5 714.5,273.5C 719.5,273.5 724.5,273.5 729.5,273.5C 729.5,269.5 729.5,265.5 729.5,261.5C 731.167,261.5 732.833,261.5 734.5,261.5C 734.5,271.833 734.5,282.167 734.5,292.5C 732.833,292.5 731.167,292.5 729.5,292.5C 729.5,287.5 729.5,282.5 729.5,277.5C 724.5,277.5 719.5,277.5 714.5,277.5C 714.5,282.5 714.5,287.5 714.5,292.5C 712.833,292.5 711.167,292.5 709.5,292.5C 709.5,282.167 709.5,271.833 709.5,261.5 Z"/></g>
<g><path style="opacity:0.861" fill="#a7b1b4" d="M 750.5,261.5 C 757.167,261.5 763.833,261.5 770.5,261.5C 770.5,271.833 770.5,282.167 770.5,292.5C 768.833,292.5 767.167,292.5 765.5,292.5C 765.5,283.5 765.5,274.5 765.5,265.5C 761.833,265.5 758.167,265.5 754.5,265.5C 754.788,272.563 754.288,279.563 753,286.5C 751.058,291.283 747.558,293.283 742.5,292.5C 742.5,291.167 742.5,289.833 742.5,288.5C 745.292,288.548 747.125,287.215 748,284.5C 749.054,276.816 749.888,269.149 750.5,261.5 Z"/></g>
<g><path style="opacity:0.842" fill="#a7b1b4" d="M 789.5,261.5 C 792.119,261.232 794.619,261.565 797,262.5C 800.402,272.205 803.902,281.872 807.5,291.5C 805.926,292.631 804.259,292.798 802.5,292C 801.5,289.667 800.5,287.333 799.5,285C 795.129,284.172 790.795,284.339 786.5,285.5C 785.423,287.729 784.756,290.063 784.5,292.5C 782.473,292.662 780.473,292.495 778.5,292C 782.464,281.941 786.131,271.774 789.5,261.5 Z M 792.5,266.5 C 794.687,270.895 796.354,275.562 797.5,280.5C 794.428,280.817 791.428,280.484 788.5,279.5C 790.242,275.275 791.576,270.941 792.5,266.5 Z"/></g>
<g><path style="opacity:0.782" fill="#a7b1b4" d="M 816.5,261.5 C 818.167,261.5 819.833,261.5 821.5,261.5C 821.334,268.841 821.5,276.174 822,283.5C 826.083,276.332 830.416,269.332 835,262.5C 837.041,261.577 839.208,261.244 841.5,261.5C 841.5,271.833 841.5,282.167 841.5,292.5C 839.5,292.5 837.5,292.5 835.5,292.5C 835.666,285.159 835.5,277.826 835,270.5C 830.917,277.668 826.584,284.668 822,291.5C 820.301,292.406 818.467,292.739 816.5,292.5C 816.5,282.167 816.5,271.833 816.5,261.5 Z"/></g>
<g><path style="opacity:0.884" fill="#a7b1b4" d="M 853.5,261.5 C 855.167,261.5 856.833,261.5 858.5,261.5C 858.5,265.5 858.5,269.5 858.5,273.5C 863.5,273.5 868.5,273.5 873.5,273.5C 873.5,269.5 873.5,265.5 873.5,261.5C 875.167,261.5 876.833,261.5 878.5,261.5C 878.5,271.833 878.5,282.167 878.5,292.5C 876.833,292.5 875.167,292.5 873.5,292.5C 873.5,287.5 873.5,282.5 873.5,277.5C 868.5,277.5 863.5,277.5 858.5,277.5C 858.5,282.5 858.5,287.5 858.5,292.5C 856.833,292.5 855.167,292.5 853.5,292.5C 853.5,282.167 853.5,271.833 853.5,261.5 Z"/></g>
</svg>
