<svg width="200" height="36" viewBox="0 0 200 36" fill="none" xmlns="http://www.w3.org/2000/svg">
<path d="M57.002 20.3579V0.265625H60.9479L66.6677 8.66275L72.3883 0.265625H76.3335V20.3579H72.7637V5.51209L66.6498 14.4007L60.535 5.51209V20.3752H57.002V20.3579Z" fill="#003764"/>
<path d="M79.3257 0.254883H83.6292L88.8652 8.41452L94.0824 0.254883H98.3859L90.6577 11.729V20.3471H87.0897V11.729L79.3257 0.254883Z" fill="#003764"/>
<path d="M101.148 14.6265C100.772 13.3879 100.593 11.9326 100.593 10.2927C100.593 8.65195 100.771 7.1958 101.148 5.95808C101.524 4.71862 102.01 3.71838 102.601 2.96864C103.192 2.22149 103.91 1.62083 104.752 1.16579C105.594 0.691671 106.421 0.383106 107.208 0.237491C108.014 0.0736742 108.875 0 109.808 0C111.834 0 113.825 0.400441 115.797 1.18399V4.573C113.913 3.69931 112.031 3.24253 110.112 3.24253C109.217 3.24253 108.462 3.31534 107.835 3.47916C107.208 3.64384 106.58 3.9524 105.989 4.40745C105.379 4.86423 104.932 5.59317 104.607 6.57521C104.285 7.55984 104.143 8.7993 104.143 10.2754C104.143 11.7679 104.303 13.0048 104.607 13.9721C104.913 14.955 105.379 15.6657 105.989 16.1407C106.598 16.5966 107.208 16.9061 107.835 17.069C108.462 17.2328 109.236 17.3056 110.112 17.3056C112.014 17.3056 113.913 16.8697 115.797 15.9752V19.346C113.825 20.1469 111.817 20.5482 109.808 20.5482C108.875 20.5482 108.014 20.4754 107.208 20.3098C106.402 20.1469 105.594 19.8374 104.752 19.3824C103.91 18.91 103.192 18.3093 102.601 17.5795C102.009 16.8679 101.524 15.8668 101.148 14.6265Z" fill="#0055B8"/>
<path d="M119.973 20.3471V0.254883H127.577C129.89 0.254883 131.701 0.819141 132.974 1.92945C134.265 3.04063 134.91 4.645 134.91 6.72088C134.91 9.78226 133.458 11.7663 130.572 12.6608L135.771 20.348H131.468L126.752 13.2614H123.561V20.348H119.973V20.3471ZM123.543 9.94521H127.488C128.688 9.94521 129.639 9.72852 130.319 9.28994C131.001 8.85569 131.342 8.03314 131.342 6.81449C131.342 5.57503 131.001 4.73687 130.319 4.31823C129.639 3.88139 128.689 3.68117 127.488 3.68117H123.543V9.94521Z" fill="#0055B8"/>
<path d="M139.341 20.3471V0.254883H152.502V3.49655H142.91V8.57747H151.228V11.9847H142.91V17.0682H152.502V20.3081H139.341V20.3471Z" fill="#0055B8"/>
<path d="M156.769 20.3471V0.254883H163.6C166.666 0.254883 168.98 1.11037 170.577 2.82395C172.154 4.53579 172.959 7.03117 172.959 10.3283C172.959 13.6064 172.172 16.1026 170.594 17.7945C169.016 19.5081 166.685 20.3645 163.618 20.3645H156.769V20.3471H156.769ZM160.32 17.1055H163.582C165.644 17.1055 167.114 16.575 168.011 15.5202C168.907 14.4627 169.374 12.7327 169.374 10.3292C169.374 7.90833 168.926 6.15748 168.011 5.10004C167.113 4.04607 165.625 3.51562 163.582 3.51562H160.32V17.1055Z" fill="#0055B8"/>
<path d="M177.316 20.3471V0.254883H180.885V20.3471H177.316Z" fill="#0055B8"/>
<path d="M183.791 3.87879V0.254883H200V3.87879H193.653V20.3471H190.084V3.87879H183.791Z" fill="#0055B8"/>
<path d="M34.4473 1.76967C33.7486 0.79573 32.2034 0 31.014 0H2.16287C0.972629 0 0 0.983747 0 2.18759V5.65387H37.2374L34.4473 1.76967Z" fill="#003764"/>
<path d="M44.4758 15.73L39.9236 9.39355H0V32.8119C0 34.0166 0.97263 34.9995 2.16287 34.9995H31.0149C32.2043 34.9995 33.7496 34.202 34.4482 33.2298L44.4776 19.2684C45.1744 18.2954 45.1744 16.703 44.4758 15.73ZM7.55638 30.2046H5.85516C4.91337 30.2046 4.15306 29.4303 4.15306 28.4813C4.15306 27.5314 4.91337 26.7579 5.85516 26.7579H7.55638C8.49818 26.7579 9.25849 27.5305 9.25849 28.4813C9.25849 29.4303 8.49818 30.2046 7.55638 30.2046ZM20.819 30.2046H13.6001C12.6592 30.2046 11.8989 29.4303 11.8989 28.4813C11.8989 27.5314 12.6583 26.7579 13.6001 26.7579H20.819C21.76 26.7579 22.5203 27.5305 22.5203 28.4813C22.5203 29.4303 21.7608 30.2046 20.819 30.2046ZM21.1723 21.5968H5.85516C4.91337 21.5968 4.15306 20.8243 4.15306 19.8744C4.15306 18.9245 4.91337 18.151 5.85516 18.151H21.1723C22.1141 18.151 22.8744 18.9245 22.8744 19.8744C22.8735 20.8243 22.1141 21.5968 21.1723 21.5968Z" fill="#0055B8"/>
<path d="M58.771 30.5347C58.771 31.021 58.8501 31.3887 59.0083 31.6377C59.1694 31.8867 59.4302 32.0112 59.7905 32.0112C60.1479 32.0112 60.4043 31.8882 60.5596 31.6421C60.7178 31.3931 60.7969 31.0239 60.7969 30.5347C60.7969 30.0483 60.7178 29.6836 60.5596 29.4404C60.4014 29.1973 60.1421 29.0757 59.7817 29.0757C59.4243 29.0757 59.1665 29.1973 59.0083 29.4404C58.8501 29.6807 58.771 30.0454 58.771 30.5347ZM62.168 30.5347C62.168 31.3345 61.957 31.96 61.5352 32.4111C61.1133 32.8623 60.5259 33.0879 59.7729 33.0879C59.3013 33.0879 58.8853 32.9854 58.5249 32.7803C58.1646 32.5723 57.8877 32.2749 57.6943 31.8882C57.501 31.5015 57.4043 31.0503 57.4043 30.5347C57.4043 29.7319 57.6138 29.1079 58.0327 28.6626C58.4517 28.2173 59.0405 27.9946 59.7993 27.9946C60.271 27.9946 60.687 28.0972 61.0474 28.3022C61.4077 28.5073 61.6846 28.8018 61.8779 29.1855C62.0713 29.5693 62.168 30.019 62.168 30.5347Z" fill="#003764"/>
<path d="M65.3157 28.0869V29.9766H67.1878V28.0869H68.5281V33H67.1878V30.9741H65.3157V33H63.9754V28.0869H65.3157Z" fill="#003764"/>
<path d="M75.0333 33H73.693V29.0933H72.4581C72.3644 30.1919 72.2501 31.0122 72.1153 31.5542C71.9806 32.0933 71.8004 32.4844 71.5748 32.7275C71.3521 32.9678 71.0592 33.0879 70.6959 33.0879C70.3854 33.0879 70.1305 33.041 69.9312 32.9473V31.875C70.0748 31.9336 70.2184 31.9629 70.3619 31.9629C70.5289 31.9629 70.6681 31.8428 70.7794 31.6025C70.8937 31.3623 70.9947 30.9624 71.0826 30.4028C71.1734 29.8403 71.2511 29.0684 71.3155 28.0869H75.0333V33Z" fill="#003764"/>
<path d="M80.2641 33L80.0048 32.332H79.9696C79.744 32.6162 79.5111 32.814 79.2709 32.9253C79.0336 33.0337 78.723 33.0879 78.3393 33.0879C77.8676 33.0879 77.4955 32.9531 77.223 32.6836C76.9535 32.4141 76.8188 32.0303 76.8188 31.5322C76.8188 31.0107 77.0004 30.627 77.3637 30.3809C77.7299 30.1318 78.2807 29.9941 79.016 29.9678L79.8686 29.9414V29.7261C79.8686 29.228 79.6137 28.979 79.1039 28.979C78.7113 28.979 78.2499 29.0977 77.7196 29.335L77.2758 28.4297C77.8412 28.1338 78.4682 27.9858 79.1566 27.9858C79.8158 27.9858 80.3212 28.1294 80.6728 28.4165C81.0243 28.7036 81.2001 29.1401 81.2001 29.7261V33H80.2641ZM79.8686 30.7236L79.35 30.7412C78.9604 30.7529 78.6703 30.8232 78.4799 30.9521C78.2895 31.0811 78.1942 31.2773 78.1942 31.541C78.1942 31.9189 78.411 32.1079 78.8446 32.1079C79.1552 32.1079 79.4027 32.0186 79.5873 31.8398C79.7748 31.6611 79.8686 31.4238 79.8686 31.1279V30.7236Z" fill="#003764"/>
<path d="M84.5808 28.0869V30.0293C84.5808 30.2344 84.5471 30.7354 84.4797 31.5322L86.7473 28.0869H88.3601V33H87.0637V31.04C87.0637 30.6914 87.093 30.1992 87.1516 29.5635L84.8928 33H83.2844V28.0869H84.5808ZM87.9646 25.9731C87.9089 26.521 87.7023 26.9209 87.3449 27.1729C86.9875 27.4219 86.4719 27.5464 85.798 27.5464C85.1037 27.5464 84.5896 27.4263 84.2556 27.186C83.9245 26.9458 83.7385 26.5415 83.6975 25.9731H84.8972C84.9177 26.2749 84.9924 26.4873 85.1213 26.6104C85.2531 26.7305 85.4875 26.7905 85.8244 26.7905C86.1203 26.7905 86.34 26.7246 86.4836 26.5928C86.6301 26.458 86.7194 26.2515 86.7517 25.9731H87.9646Z" fill="#003764"/>
<path d="M91.811 28.0869V29.9766H93.6831V28.0869H95.0234V33H93.6831V30.9741H91.811V33H90.4707V28.0869H91.811Z" fill="#003764"/>
<path d="M103.389 28.0869H104.865L102.919 30.4424L105.037 33H103.516L101.508 30.5083V33H100.168V28.0869H101.508V30.4731L103.389 28.0869Z" fill="#003764"/>
<path d="M109.138 33.0879C108.561 33.0879 108.108 32.8784 107.78 32.4595H107.71C107.757 32.8696 107.78 33.1069 107.78 33.1714V35.1621H106.44V28.0869H107.53L107.719 28.7241H107.78C108.094 28.2378 108.558 27.9946 109.173 27.9946C109.753 27.9946 110.207 28.2188 110.536 28.667C110.864 29.1152 111.028 29.7378 111.028 30.5347C111.028 31.0591 110.95 31.5146 110.795 31.9014C110.642 32.2881 110.424 32.5825 110.14 32.7847C109.856 32.9868 109.522 33.0879 109.138 33.0879ZM108.743 29.0669C108.412 29.0669 108.17 29.1694 108.017 29.3745C107.865 29.5767 107.786 29.9121 107.78 30.3809V30.5259C107.78 31.0532 107.858 31.4312 108.013 31.6597C108.171 31.8882 108.42 32.0024 108.76 32.0024C109.361 32.0024 109.661 31.5073 109.661 30.5171C109.661 30.0337 109.586 29.6719 109.437 29.4316C109.29 29.1885 109.059 29.0669 108.743 29.0669Z" fill="#003764"/>
<path d="M114.87 28.9482C114.586 28.9482 114.363 29.0391 114.202 29.2207C114.041 29.3994 113.948 29.6543 113.925 29.9854H115.806C115.8 29.6543 115.714 29.3994 115.547 29.2207C115.38 29.0391 115.154 28.9482 114.87 28.9482ZM115.059 33.0879C114.268 33.0879 113.65 32.8696 113.204 32.4331C112.759 31.9966 112.536 31.3784 112.536 30.5786C112.536 29.7554 112.741 29.1196 113.152 28.6714C113.565 28.2202 114.134 27.9946 114.861 27.9946C115.555 27.9946 116.096 28.1924 116.483 28.5879C116.869 28.9834 117.063 29.5298 117.063 30.2271V30.8774H113.894C113.909 31.2583 114.022 31.5557 114.233 31.7695C114.444 31.9834 114.739 32.0903 115.12 32.0903C115.416 32.0903 115.696 32.0596 115.96 31.998C116.223 31.9365 116.499 31.8384 116.786 31.7036V32.7407C116.551 32.8579 116.301 32.9443 116.034 33C115.768 33.0586 115.443 33.0879 115.059 33.0879Z" fill="#003764"/>
<path d="M121.929 32.02V29.0933H120.922C120.849 29.6382 120.748 30.1553 120.619 30.6445C120.493 31.1338 120.317 31.5923 120.092 32.02H121.929ZM123.99 34.7622H122.786V33H119.481V34.7622H118.277V32.02H118.69C118.971 31.5835 119.207 31.0327 119.397 30.3677C119.588 29.7026 119.721 28.9424 119.797 28.0869H123.269V32.02H123.99V34.7622Z" fill="#003764"/>
<path d="M126.825 28.0869V30.0293C126.825 30.2344 126.792 30.7354 126.724 31.5322L128.992 28.0869H130.605V33H129.308V31.04C129.308 30.6914 129.338 30.1992 129.396 29.5635L127.137 33H125.529V28.0869H126.825Z" fill="#003764"/>
<path d="M136.78 28.0869V29.0933H135.172V33H133.832V29.0933H132.219V28.0869H136.78Z" fill="#003764"/>
<path d="M139.695 28.0869V30.0293C139.695 30.2344 139.662 30.7354 139.594 31.5322L141.862 28.0869H143.475V33H142.178V31.04C142.178 30.6914 142.207 30.1992 142.266 29.5635L140.007 33H138.399V28.0869H139.695Z" fill="#003764"/>
<path d="M149.963 28.0869V29.9766H151.835V28.0869H153.176V33H151.835V30.9741H149.963V33H148.623V28.0869H149.963Z" fill="#003764"/>
<path d="M158.402 33L158.143 32.332H158.108C157.882 32.6162 157.649 32.814 157.409 32.9253C157.172 33.0337 156.861 33.0879 156.477 33.0879C156.006 33.0879 155.634 32.9531 155.361 32.6836C155.092 32.4141 154.957 32.0303 154.957 31.5322C154.957 31.0107 155.138 30.627 155.502 30.3809C155.868 30.1318 156.419 29.9941 157.154 29.9678L158.007 29.9414V29.7261C158.007 29.228 157.752 28.979 157.242 28.979C156.849 28.979 156.388 29.0977 155.858 29.335L155.414 28.4297C155.979 28.1338 156.606 27.9858 157.295 27.9858C157.954 27.9858 158.459 28.1294 158.811 28.4165C159.162 28.7036 159.338 29.1401 159.338 29.7261V33H158.402ZM158.007 30.7236L157.488 30.7412C157.098 30.7529 156.808 30.8232 156.618 30.9521C156.428 31.0811 156.332 31.2773 156.332 31.541C156.332 31.9189 156.549 32.1079 156.983 32.1079C157.293 32.1079 157.541 32.0186 157.725 31.8398C157.913 31.6611 158.007 31.4238 158.007 31.1279V30.7236Z" fill="#003764"/>
<path d="M167.682 28.0869H169.158L167.211 30.4424L169.329 33H167.809L165.801 30.5083V33H164.46V28.0869H165.801V30.4731L167.682 28.0869Z" fill="#003764"/>
<path d="M173.853 33L173.593 32.332H173.558C173.333 32.6162 173.1 32.814 172.86 32.9253C172.622 33.0337 172.312 33.0879 171.928 33.0879C171.456 33.0879 171.084 32.9531 170.812 32.6836C170.542 32.4141 170.407 32.0303 170.407 31.5322C170.407 31.0107 170.589 30.627 170.952 30.3809C171.319 30.1318 171.869 29.9941 172.605 29.9678L173.457 29.9414V29.7261C173.457 29.228 173.202 28.979 172.693 28.979C172.3 28.979 171.839 29.0977 171.308 29.335L170.864 28.4297C171.43 28.1338 172.057 27.9858 172.745 27.9858C173.404 27.9858 173.91 28.1294 174.261 28.4165C174.613 28.7036 174.789 29.1401 174.789 29.7261V33H173.853ZM173.457 30.7236L172.939 30.7412C172.549 30.7529 172.259 30.8232 172.069 30.9521C171.878 31.0811 171.783 31.2773 171.783 31.541C171.783 31.9189 172 32.1079 172.433 32.1079C172.744 32.1079 172.991 32.0186 173.176 31.8398C173.363 31.6611 173.457 31.4238 173.457 31.1279V30.7236Z" fill="#003764"/>
<path d="M179.571 33.0879C178.994 33.0879 178.542 32.8784 178.213 32.4595H178.143C178.19 32.8696 178.213 33.1069 178.213 33.1714V35.1621H176.873V28.0869H177.963L178.152 28.7241H178.213C178.527 28.2378 178.991 27.9946 179.606 27.9946C180.187 27.9946 180.641 28.2188 180.969 28.667C181.297 29.1152 181.461 29.7378 181.461 30.5347C181.461 31.0591 181.383 31.5146 181.228 31.9014C181.076 32.2881 180.857 32.5825 180.573 32.7847C180.289 32.9868 179.955 33.0879 179.571 33.0879ZM179.176 29.0669C178.845 29.0669 178.603 29.1694 178.451 29.3745C178.298 29.5767 178.219 29.9121 178.213 30.3809V30.5259C178.213 31.0532 178.291 31.4312 178.446 31.6597C178.604 31.8882 178.854 32.0024 179.193 32.0024C179.794 32.0024 180.094 31.5073 180.094 30.5171C180.094 30.0337 180.02 29.6719 179.87 29.4316C179.724 29.1885 179.492 29.0669 179.176 29.0669Z" fill="#003764"/>
<path d="M187.333 28.0869V29.0933H185.725V33H184.385V29.0933H182.772V28.0869H187.333Z" fill="#003764"/>
<path d="M192.173 28.0869H193.65L191.703 30.4424L193.821 33H192.3L190.292 30.5083V33H188.952V28.0869H190.292V30.4731L192.173 28.0869Z" fill="#003764"/>
<path d="M194.521 28.0869H195.989L196.916 30.8511C196.995 31.0913 197.049 31.3755 197.079 31.7036H197.105C197.137 31.4019 197.2 31.1177 197.294 30.8511L198.204 28.0869H199.641L197.562 33.6284C197.371 34.1411 197.099 34.5249 196.745 34.7798C196.393 35.0347 195.981 35.1621 195.51 35.1621C195.278 35.1621 195.051 35.1372 194.829 35.0874V34.0239C194.99 34.062 195.165 34.0811 195.356 34.0811C195.593 34.0811 195.8 34.0078 195.975 33.8613C196.154 33.7178 196.293 33.4995 196.393 33.2065L196.472 32.9648L194.521 28.0869Z" fill="#003764"/>
</svg>
