<svg width="450" height="230" viewBox="0 0 450 230" fill="none" xmlns="http://www.w3.org/2000/svg">
<path fill-rule="evenodd" clip-rule="evenodd" d="M432.03 110.615L432.003 110.586C431.994 110.579 431.987 110.57 431.98 110.561C433.074 104.605 432.874 98.2766 431.357 91.7799C427.891 76.9738 420.755 68.8876 414.79 63.5125C414.525 62.3834 414.131 60.7332 413.624 58.7498C411.014 48.4526 409.665 45.4516 409.165 44.3971C407.03 39.8386 405.963 37.5611 404.118 37.1086C403.004 36.8345 400.852 36.893 390.417 47.4269C388.493 49.3695 386.606 51.3471 384.758 53.3586L383.718 53.4057C378.031 53.662 373.918 53.8469 365.263 56.326C364.915 56.4188 356.816 58.57 348.839 64.0193C344.843 62.8881 340.873 61.6738 336.932 60.3772C329.421 57.9069 327.503 56.6087 325.734 57.6709C322.056 59.8731 323.383 68.6019 324.044 73.2264C324.762 78.213 326.266 83.0549 328.502 87.5791C327.714 91.0074 327.231 94.4943 327.057 98.0007C326.738 104.45 325.113 122.02 337.559 134.851C341.642 139.061 349.707 146.163 361.526 149.076C367.227 150.476 371.692 150.388 375.549 150.31C379.332 150.234 391.458 149.68 405.609 142.728C411.38 139.891 417.251 137.005 422.93 130.587C432.011 120.304 432.04 110.628 432.03 110.615Z" fill="#FECE00"/>
<path fill-rule="evenodd" clip-rule="evenodd" d="M392.263 102.649C392.427 102.623 392.585 102.565 392.726 102.478C392.867 102.392 392.99 102.279 393.087 102.146L393.127 102.092C393.603 101.473 397.929 96.1306 407.517 92.8014C407.809 92.6862 408.055 92.4802 408.217 92.2151C408.379 91.95 408.447 91.6406 408.412 91.3346C408.397 91.0227 408.281 90.7242 408.081 90.4826C407.88 90.2411 407.606 90.069 407.298 89.9913C407.136 89.959 406.258 89.8041 404.815 90.0373C401.649 90.5491 396.688 92.7314 391.019 100.225L390.956 100.301C390.739 100.613 390.644 100.992 390.689 101.366C390.733 101.741 390.915 102.086 391.2 102.338C391.342 102.464 391.511 102.558 391.695 102.612C391.879 102.666 392.073 102.678 392.263 102.649Z" fill="#17191A"/>
<path fill-rule="evenodd" clip-rule="evenodd" d="M392.264 102.649C391.269 102.85 390.403 101.73 390.696 100.768C390.823 100.278 391.204 99.9495 391.466 99.5592C391.757 99.1827 392.042 98.796 392.35 98.4349C393.521 96.9223 394.813 95.5035 396.215 94.1922C398.996 91.6187 402.518 89.3979 406.615 89.3913C406.872 89.4084 407.118 89.4272 407.405 89.4871C407.728 89.5603 408.024 89.7172 408.263 89.9416C408.739 90.3848 408.964 91.0405 408.893 91.6635C408.863 91.9802 408.751 92.2847 408.568 92.5482C408.385 92.8116 408.136 93.0254 407.846 93.1694L406.472 93.6661C404.704 94.296 402.958 95.0104 401.281 95.8783C399.593 96.7405 397.988 97.7513 396.485 98.8982C395.738 99.4865 395.024 100.115 394.348 100.782C394.01 101.114 393.686 101.46 393.375 101.818C393.086 102.179 392.766 102.605 392.264 102.649ZM392.264 102.649C392.766 102.586 393.065 102.168 393.345 101.793C393.647 101.425 393.963 101.068 394.294 100.724C394.955 100.038 395.655 99.3894 396.392 98.7815C397.84 97.5377 399.391 96.4138 401.027 95.4212C402.662 94.4319 404.38 93.5611 406.153 92.8277L407.444 92.3225C407.584 92.2466 407.703 92.1369 407.788 92.004C407.873 91.871 407.922 91.7191 407.931 91.5627C407.945 91.4017 407.921 91.24 407.862 91.0897C407.802 90.9394 407.709 90.8045 407.589 90.6952C407.479 90.5972 407.344 90.5304 407.198 90.5019C406.993 90.4665 406.784 90.4463 406.575 90.4414C404.803 90.369 402.972 90.8847 401.303 91.645C399.599 92.4242 398.003 93.4169 396.557 94.5983C395.081 95.7913 393.714 97.1077 392.47 98.5326C392.153 98.8842 391.855 99.2583 391.56 99.6319C391.284 100.01 390.895 100.333 390.77 100.785C390.468 101.691 391.263 102.818 392.264 102.649ZM397.052 116.934C396.3 116.957 395.726 117.639 395.806 118.435C395.991 121.313 394.903 122.793 392.396 123.245C391.746 123.361 391.082 123.372 390.431 123.277C388.15 123.001 386.273 121.708 386.273 121.708C385.393 121.118 384.155 120.285 383.439 118.68C383.245 118.244 383.104 117.788 383.018 117.32C385.587 114.546 386.373 112.932 385.904 112.158C384.772 110.291 375.898 112.64 375.82 114.912C375.781 116.017 377.828 117.067 380.38 117.958C380.535 118.248 380.713 118.674 380.789 119.214C380.837 119.58 380.946 120.837 379.449 122.957C378.148 124.805 376.878 126.343 375.043 126.672C373.154 127.014 371.032 125.984 370.66 125.096C370.356 124.368 369.591 124.012 368.92 124.278C368.213 124.597 367.896 125.414 368.166 126.183C368.666 127.424 369.59 128.453 370.781 129.096C371.971 129.74 373.355 129.958 374.697 129.713C375.048 129.664 375.395 129.611 375.772 129.47C376.957 129.168 377.811 128.532 378.542 127.868C379.94 129.858 382.263 130.834 384.488 130.375C386.666 129.925 388.404 128.183 388.978 125.878C389.383 126.006 389.918 126.144 390.55 126.214C391.212 126.286 391.962 126.278 392.854 126.123C396.793 125.465 398.795 122.654 398.477 118.304C398.437 117.498 397.789 116.87 397.052 116.934Z" fill="#17191A"/>
<path fill-rule="evenodd" clip-rule="evenodd" d="M426.125 122.959C418.972 135.152 405.313 143.644 386.626 147.564C369.164 151.196 352.933 147.45 342.169 137.299C332.659 128.267 328.096 114.766 329.039 98.2737C329.2 95.3363 329.691 92.4774 330.522 89.7759L330.509 89.6938C330.542 89.6445 330.536 89.6053 330.569 89.556C330.562 89.5132 330.592 89.468 330.585 89.4252L330.558 89.2574C330.551 89.2146 330.581 89.1695 330.574 89.1266L330.554 89.0017C330.54 88.9161 330.497 88.8827 330.491 88.8435L330.477 88.7578C330.477 88.7578 330.407 88.5531 330.267 88.1949C328.91 84.6349 327.683 80.6291 326.325 75.099C325.91 73.4083 325.599 71.8325 325.367 70.3247C325.11 68.6669 324.812 66.7963 324.768 64.4925C324.697 60.6479 324.662 58.7235 325.835 57.8601C326.991 57.0068 328.82 57.6085 332.424 58.9487C335.69 60.164 338.001 61.4164 339.352 62.1357C341.238 63.1419 341.619 63.3257 343.523 64.2778C345.723 65.3725 347.553 66.2156 348.779 66.7682C350.274 65.3291 351.962 63.9284 353.858 62.6113C365.88 54.245 379.191 54.4231 386.585 55.2679C387.234 54.1962 388.193 52.7229 389.494 51.0587C389.494 51.0587 390.095 50.2878 390.753 49.5223C396.299 43.0743 400.845 37.7914 403.979 38.7716C406.405 39.5295 407.846 43.9804 409.278 48.3963C409.706 49.7076 409.978 50.6928 410.522 52.7874C411.218 55.4729 412.115 58.9643 413.164 63.1197C413.156 63.1905 413.155 63.2618 413.161 63.3326L413.191 63.5438L413.238 63.8328C413.281 63.8698 413.288 63.9126 413.295 63.9519C413.302 63.9947 413.349 64.031 413.356 64.0739C413.369 64.156 413.412 64.1929 413.419 64.2322C413.466 64.2685 413.472 64.3113 413.519 64.3441C413.526 64.3869 413.569 64.4239 413.616 64.4567L413.705 64.5264C419.881 70.0725 426.71 77.7396 430.114 92.4165C432.699 103.505 431.309 114.039 426.125 122.959ZM433.398 111.046C434.52 104.965 434.302 98.456 432.748 91.7784C429.173 76.5286 421.883 68.2548 415.791 62.6951C414.534 58.6043 413.358 54.4894 412.264 50.3527C410.478 44.8076 409.663 40.7388 406.951 37.2403C406.219 36.2966 405.662 35.7896 404.897 35.5399C403.184 34.9817 401.434 36.0482 400.538 36.6105C395.682 39.651 385.999 51.228 385.147 52.2483L384.121 52.2859C383.824 52.2974 383.311 52.318 382.684 52.3497C376.185 52.6932 366.641 53.1919 357.05 57.8144C354.993 58.806 351.952 60.4657 348.509 63.1314C347.332 62.6075 333.131 56.3368 327.577 55.4253C324.965 54.9942 323.88 55.6895 323.412 56.0985C322.528 56.8784 322.33 58.0127 322.248 58.612C321.247 65.75 323.691 75.737 323.691 75.737C324.826 80.3304 326.195 84.8636 327.793 89.3197C327.007 92.1668 326.521 95.0837 326.344 98.0244C325.462 113.438 329.189 126.437 337.1 135.892C341.292 140.22 349.536 147.527 361.565 150.541C367.391 151.999 371.937 151.905 375.891 151.822C379.732 151.758 392.096 151.214 406.532 144.087C413.147 140.828 418.872 137.984 424.192 131.613C430.632 123.893 432.66 115.552 433.398 111.046Z" fill="#17191A"/>
<path fill-rule="evenodd" clip-rule="evenodd" d="M335.967 78.5573C334.616 79.8485 334.287 79.7808 334.099 79.771C333.602 79.7488 332.846 79.3765 330.907 74.8963C330.566 74.1054 329.267 71.2282 328.461 67.0262C328.046 64.874 328.087 64.0909 328.521 63.6766C329.086 63.1423 330.048 63.3602 331.022 63.646C331.022 63.646 337.236 65.4506 341.848 70.0849C342.053 70.2934 342.445 70.7061 342.48 71.2681C342.524 71.9568 341.956 72.4477 341.653 72.8629C340.863 73.9427 340.101 74.758 338.75 76.0677C336.603 78.1468 337.606 76.9959 335.967 78.5573Z" fill="#FD0007"/>
<path fill-rule="evenodd" clip-rule="evenodd" d="M403.425 61.0149C405.189 61.6409 405.461 61.445 405.629 61.359C406.073 61.1358 406.609 60.4878 406.529 55.6104C406.514 54.7501 406.511 51.596 405.512 47.4351C405.003 45.3031 404.642 44.606 404.075 44.4054C403.34 44.1485 402.552 44.7403 401.783 45.3984C401.783 45.3984 396.86 49.5813 394.567 55.6902C394.465 55.9643 394.278 56.5007 394.478 57.0274C394.722 57.6734 395.443 57.8893 395.89 58.1441C397.056 58.8062 398.087 59.2386 399.86 59.8811C402.675 60.9005 401.286 60.2606 403.425 61.0149Z" fill="#FD0007"/>
<path fill-rule="evenodd" clip-rule="evenodd" d="M364.188 109.735C364.032 109.793 363.867 109.82 363.701 109.815C363.535 109.809 363.372 109.772 363.222 109.704L363.161 109.677C362.44 109.377 356.052 106.871 346.076 108.722C345.766 108.768 345.45 108.712 345.177 108.563C344.904 108.413 344.691 108.178 344.57 107.896C344.43 107.615 344.384 107.297 344.44 106.988C344.496 106.679 344.649 106.395 344.879 106.176C345.004 106.068 345.689 105.495 347.061 104.981C350.066 103.862 355.453 103.302 364.076 107.01L364.165 107.047C364.508 107.213 364.778 107.496 364.923 107.844C365.069 108.192 365.08 108.58 364.956 108.937C364.896 109.117 364.795 109.282 364.663 109.42C364.53 109.558 364.368 109.666 364.188 109.735Z" fill="#17191A"/>
<path fill-rule="evenodd" clip-rule="evenodd" d="M364.191 109.734C365.145 109.386 365.281 108.009 364.573 107.376C364.242 107.042 363.746 106.953 363.318 106.759C362.878 106.585 362.438 106.403 361.987 106.253C360.201 105.63 358.362 105.164 356.49 104.859C354.65 104.547 352.775 104.473 350.913 104.64C349.089 104.807 347.237 105.263 345.737 106.209C345.553 106.319 345.364 106.445 345.223 106.567C345.111 106.665 345.027 106.789 344.979 106.928C344.928 107.083 344.913 107.246 344.936 107.406C344.959 107.566 345.018 107.718 345.109 107.852C345.195 107.983 345.312 108.09 345.452 108.164C345.591 108.237 345.748 108.275 345.906 108.273L347.276 108.073C349.182 107.831 351.1 107.737 353.011 107.787C354.925 107.833 356.83 108.053 358.695 108.414C359.634 108.581 360.563 108.797 361.474 109.067C361.934 109.206 362.384 109.353 362.827 109.526C363.257 109.713 363.726 109.93 364.191 109.734ZM364.191 109.734C363.732 109.944 363.241 109.73 362.814 109.561C362.367 109.403 361.914 109.263 361.456 109.14C360.54 108.895 359.61 108.703 358.67 108.565C356.799 108.311 354.906 108.225 353.017 108.31C351.136 108.398 349.264 108.615 347.412 108.96L345.971 109.207C345.649 109.226 345.327 109.163 345.038 109.024C344.748 108.886 344.5 108.676 344.318 108.416C344.131 108.157 344.007 107.86 343.955 107.547C343.903 107.234 343.925 106.912 344.018 106.608C344.118 106.299 344.296 106.013 344.544 105.79C344.763 105.594 344.965 105.455 345.185 105.313C348.746 103.287 352.901 103.477 356.593 104.337C358.464 104.767 360.271 105.398 362.039 106.109C362.487 106.271 362.919 106.465 363.36 106.65C363.783 106.86 364.277 106.955 364.628 107.324C365.353 108.012 365.157 109.413 364.191 109.734Z" fill="#17191A"/>
<path d="M403.634 61.0194C405.407 61.6008 405.676 61.3925 405.837 61.3041C406.278 61.0717 406.799 60.4053 406.616 55.5276C406.581 54.6617 406.513 51.5087 405.429 47.37C404.877 45.2473 404.504 44.5605 403.928 44.3752C403.19 44.1356 402.418 44.751 401.66 45.4301C401.66 45.4301 396.839 49.7433 394.675 55.9268C394.58 56.1984 394.406 56.7392 394.614 57.2658C394.875 57.9049 395.594 58.0999 396.049 58.345C397.228 58.9784 398.261 59.3791 400.051 59.976C402.878 60.9254 401.482 60.316 403.634 61.0194Z" stroke="#17191A" stroke-width="4"/>
<path d="M335.697 78.7614C334.318 80.0179 333.987 79.9382 333.804 79.9237C333.306 79.8924 332.558 79.4976 330.727 74.9731C330.405 74.1688 329.175 71.2644 328.469 67.0448C328.103 64.8821 328.162 64.1029 328.612 63.698C329.187 63.1771 330.143 63.4224 331.112 63.7316C331.112 63.7316 337.278 65.6913 341.785 70.4458C341.982 70.6549 342.363 71.0769 342.388 71.6427C342.412 72.3323 341.836 72.8049 341.522 73.2148C340.705 74.2756 339.927 75.0643 338.538 76.3422C336.348 78.3662 337.372 77.2385 335.697 78.7614Z" stroke="#17191A" stroke-width="4"/>
<path fill-rule="evenodd" clip-rule="evenodd" d="M60.7509 146.02L45.8416 146.02L45.8416 85.9632L23.3896 85.9632L23.3896 70.9332L83.1659 70.9332L83.1659 85.9632L60.7556 85.9632L60.7509 146.02ZM110.308 102.83C109.68 102.592 109.023 102.433 108.354 102.355C107.688 102.285 107.019 102.25 106.349 102.251C104.462 102.241 102.591 102.607 100.853 103.327C99.1559 104.027 97.6287 105.069 96.3713 106.385C95.098 107.714 94.1025 109.311 93.3709 111.179C92.6144 113.199 92.244 115.338 92.2781 117.489C92.2878 118.762 92.4008 120.032 92.6162 121.288C92.7365 121.966 92.8847 122.622 93.0607 123.246C93.2135 123.831 93.4406 124.395 93.7367 124.924L110.313 102.83L110.308 102.83ZM103.016 132.301C103.571 132.478 104.127 132.591 104.683 132.645C105.238 132.69 105.794 132.722 106.349 132.722C107.738 132.722 109.077 132.532 110.359 132.148C111.646 131.763 112.855 131.211 113.985 130.497C115.118 129.776 116.135 128.895 117.004 127.882C117.895 126.847 118.625 125.688 119.17 124.445L129.589 134.975C126.992 138.693 123.517 141.746 119.458 143.876C115.428 145.987 110.923 147.085 106.349 147.069C102.543 147.094 98.7737 146.347 95.2785 144.875C91.8663 143.442 88.781 141.359 86.2033 138.747C83.5637 136.049 81.4863 132.875 80.0868 129.402C78.5912 125.784 77.8457 121.817 77.8457 117.489C77.8457 113.056 78.5866 109.008 80.0868 105.34C81.5777 101.676 83.6196 98.5553 86.2079 95.9681C88.79 93.3903 91.8741 91.3433 95.2785 89.948C98.7802 88.5069 102.545 87.776 106.345 87.7995C110.939 87.8112 115.46 88.9265 119.509 91.0471C123.591 93.1894 127.085 96.2613 129.695 100.003L103.016 132.301ZM151.064 146.024L136.835 146.024L137.363 87.4513L144.965 95.3891C147.23 93.3123 149.873 91.6692 152.758 90.545C155.648 89.4137 158.734 88.8363 161.847 88.8443C165.251 88.8443 168.469 89.5002 171.492 90.8073C174.511 92.119 177.15 93.9147 179.41 96.1988C184.107 100.977 186.723 107.35 186.707 113.974L186.707 146.024L172.478 146.024L172.478 113.979C172.494 111.145 171.372 108.419 169.353 106.385C168.386 105.411 167.237 104.628 165.968 104.078C164.67 103.519 163.266 103.235 161.847 103.246C160.42 103.24 159.007 103.515 157.691 104.054C156.376 104.594 155.184 105.386 154.189 106.385C152.171 108.42 151.049 111.146 151.064 113.979L151.064 146.024ZM236.524 117.489C236.524 115.535 236.153 113.644 235.403 111.808C234.685 110.023 233.654 108.375 232.356 106.936C231.085 105.536 229.555 104.382 227.847 103.535C226.145 102.683 224.258 102.243 222.346 102.251C220.401 102.251 218.572 102.585 216.85 103.246C215.155 103.893 213.626 104.893 212.368 106.177C211.099 107.47 210.099 109.071 209.372 110.971C208.645 112.871 208.279 115.046 208.279 117.484C208.279 119.827 208.64 121.93 209.372 123.798C210.104 125.666 211.099 127.263 212.368 128.588C213.636 129.913 215.132 130.94 216.85 131.65C218.572 132.369 220.401 132.727 222.35 132.727C224.295 132.727 226.129 132.297 227.847 131.442C229.569 130.583 231.069 129.452 232.356 128.041C233.639 126.625 234.653 125.001 235.403 123.169C236.153 121.333 236.524 119.447 236.524 117.489ZM250.854 138.955C250.803 140.741 250.65 145.35 248.613 150.054C247.178 153.426 245.099 156.501 242.487 159.114C239.893 161.702 236.816 163.78 233.421 165.238C229.934 166.747 226.159 167.514 222.346 167.49L215.211 167.386L215.211 153.094L222.244 153.198C224.466 153.198 226.365 152.908 227.925 152.334C230.798 151.318 233.147 149.238 234.463 146.544C235.111 145.255 235.621 143.894 236.005 142.465C235.449 143.369 234.648 144.111 233.607 144.69C232.51 145.29 231.346 145.765 230.139 146.106C228.845 146.475 227.52 146.728 226.18 146.861C224.906 146.997 223.627 147.068 222.346 147.074C218.555 147.098 214.795 146.403 211.275 145.029C207.816 143.672 204.793 141.727 202.209 139.195C199.616 136.662 197.579 133.563 196.083 129.895C194.592 126.232 193.847 122.098 193.847 117.489C193.847 113.264 194.588 109.338 196.083 105.706C197.491 102.213 199.57 99.0146 202.209 96.2847C204.78 93.6428 207.861 91.5244 211.275 90.052C214.762 88.5449 218.537 87.7772 222.35 87.7995C224.156 87.7995 225.944 88.0257 227.717 88.478C229.49 88.9303 231.208 89.5635 232.875 90.3686C234.542 91.1692 236.135 92.1145 237.644 93.1955C239.154 94.272 240.57 95.4434 241.89 96.7008L251.313 87.8538C251.396 113.4 251.049 132.27 250.854 138.955ZM301.3 117.489C301.3 115.182 300.93 113.101 300.18 111.233C299.488 109.452 298.454 107.817 297.133 106.416C295.869 105.088 294.333 104.035 292.623 103.327C290.886 102.606 289.015 102.24 287.127 102.251C285.183 102.251 283.349 102.612 281.627 103.327C279.924 104.032 278.395 105.085 277.145 106.416C275.84 107.82 274.823 109.455 274.149 111.233C273.395 113.235 273.025 115.356 273.056 117.489C273.056 119.651 273.422 121.659 274.149 123.509C274.88 125.363 275.876 126.969 277.145 128.33C278.413 129.687 279.909 130.764 281.627 131.546C283.349 132.329 285.183 132.722 287.127 132.722C289 132.733 290.855 132.367 292.577 131.646C294.298 130.925 295.849 129.866 297.133 128.534C298.42 127.209 299.434 125.603 300.18 123.721C300.946 121.73 301.326 119.616 301.3 117.489ZM315.631 117.489C315.631 121.677 314.89 125.58 313.39 129.19C311.988 132.665 309.918 135.846 307.292 138.561C304.725 141.197 301.652 143.315 298.249 144.794C294.752 146.322 290.959 147.1 287.127 147.074C283.312 147.097 279.537 146.319 276.056 144.794C272.646 143.311 269.564 141.194 266.981 138.561C264.344 135.85 262.265 132.669 260.86 129.19C259.347 125.467 258.587 121.494 258.624 117.489C258.624 113.232 259.364 109.284 260.86 105.656C262.263 102.166 264.343 98.9729 266.986 96.253C269.565 93.6262 272.647 91.5194 276.056 90.052C279.541 88.5458 283.312 87.7781 287.123 87.7995C291.086 87.7995 294.795 88.5051 298.249 89.9208C301.655 91.2994 304.733 93.3487 307.292 95.941C309.932 98.6454 312.004 101.829 313.39 105.313C314.886 108.963 315.631 113.02 315.631 117.489Z" fill="#FE0002"/>
</svg>
