<?xml version="1.0" encoding="utf-8"?>
<!-- Generator: Adobe Illustrator 25.2.3, SVG Export Plug-In . SVG Version: 6.00 Build 0)  -->
<svg version="1.1" id="Слой_1" xmlns="http://www.w3.org/2000/svg" xmlns:xlink="http://www.w3.org/1999/xlink" x="0px" y="0px"
	 viewBox="0 0 80 74" style="enable-background:new 0 0 80 74;" xml:space="preserve">
<style type="text/css">
	.st0{fill:#FFCE00;}
	.st1{fill:#FF0000;}
	.st2{fill:#FFCE00;stroke:#FFFFFF;stroke-width:0.053;stroke-miterlimit:10;}
	.st3{fill:#FF0000;stroke:#000000;stroke-width:1.0878;stroke-miterlimit:10;}
	.st4{fill:#FFCE00;stroke:#000000;stroke-width:1.6431;stroke-miterlimit:10;}
	.st5{fill:#FFF100;stroke:#000000;stroke-width:1.5354;stroke-miterlimit:10;}
	.st6{fill:none;stroke:#000000;stroke-width:1.7548;stroke-linecap:round;stroke-linejoin:round;stroke-miterlimit:10;}
</style>
<g>
	<path class="st0" d="M11.89,51.91c-0.29,0.09-0.53,0.27-1.07,0.93C10.22,53.57,9.96,54,9.96,54c-2.12,3.54-2.07,3.4-2.35,3.96
		c-0.92,1.83-1.48,3.28-1.92,4.42c-0.59,1.53-0.96,2.52-1.28,3.96c-0.22,0.97-0.43,2.78-0.43,2.79c0,0.39,0,0.78,0,1.16
		c0.93,0,1.85,0,2.78,0c1,0,1.99,0,2.99,0h3.84c0.61,0,1.26,0,2.56,0c2.42,0,2.62-0.02,2.78-0.23c0.6-0.82-1.05-2.29-1.07-5.35
		c-0.01-0.91,0.13-1.82,0.21-2.33c0.27-1.73,0.64-3.26,0.64-3.26c0.27-1.11,0.41-1.46,0.21-1.86c-0.22-0.45-0.61-0.41-1.5-0.93
		c-0.85-0.5-1.4-1.08-1.71-1.4c-0.6-0.62-0.51-0.72-1.5-1.86c-0.58-0.67-0.95-1.03-1.5-1.16C12.58,51.87,12.26,51.79,11.89,51.91z"
		/>
	<path class="st1" d="M19.78,58.34c-0.21,0.11-0.55,0.4-0.88,4.46c-0.08,1-0.21,2.8,0.22,4.93c0.14,0.68,0.24,0.94,0.44,1.17
		c0.52,0.6,1.24,0.49,3.95,0.47c0.95-0.01,1.9,0,2.85,0c0.66,0,1.32,0,1.97,0c0.8,0,1.61,0,2.41,0c0.88,0,1.75,0,2.63,0
		c1.61,0,3.22,0,4.83,0c1.17,0,2.34,0,3.51,0c3.43-0.01,3.38-0.02,4.17,0c2.19,0.07,2.07,0.19,4.17,0.23c0.06,0,0.01,0,3.73,0
		c1.46,0,2.19,0,2.19,0c0.82,0.1,1.17,0.25,1.54,0c0.26-0.18,0.36-0.46,0.66-1.64c0.24-0.99,0.37-1.48,0.44-1.88
		c0.27-1.52,0.41-2.28,0.44-3.29c0.02-0.68-0.02-0.64-0.22-3.29c-0.17-2.3-0.16-2.64-0.44-2.82c-0.56-0.35-1.25,0.62-3.29,1.64
		c-0.65,0.33-1.75,0.69-3.95,1.41c-1.43,0.47-2.15,0.71-3.07,0.94c-1.08,0.27-2.02,0.45-3.73,0.7c-2.79,0.42-4.19,0.63-5.48,0.7
		c-3.3,0.2-5.8-0.15-8.12-0.47c-2.65-0.37-3.98-0.55-5.26-1.17c-0.27-0.13-1.45-0.72-3.07-1.41C20.45,58.21,20.09,58.17,19.78,58.34
		z"/>
	<g>
		<g>
			<path d="M4.8,69.85C5.17,62.78,8.49,56.42,14,52c0.83-0.66-0.34-1.82-1.16-1.16c-5.86,4.7-9.28,11.52-9.67,19.01
				C3.1,70.91,4.75,70.9,4.8,69.85L4.8,69.85z"/>
		</g>
	</g>
	<g>
		<g>
			<path d="M19.31,57.13c-1.81,3.88-2.19,8.11-1.1,12.26c0.27,1.02,1.86,0.59,1.59-0.44c-0.98-3.7-0.69-7.51,0.93-10.99
				C21.17,57.01,19.75,56.17,19.31,57.13L19.31,57.13z"/>
		</g>
	</g>
	<g id="Морда_1_">
		<path class="st2" d="M67.1,45.31C67.1,45.31,67.1,45.31,67.1,45.31c0,0-0.01-0.01-0.01-0.02c0-0.01-0.01-0.01-0.01-0.02
			c1.14-3.17,1.59-6.66,1.33-10.35c-0.59-8.42-3.81-13.49-6.63-16.97c-0.05-0.64-0.12-1.58-0.22-2.71c-0.52-5.88-1-7.64-1.18-8.26
			c-0.77-2.69-1.16-4.03-2.14-4.44c-0.59-0.25-1.78-0.41-8.49,4.44c-1.51,1.09-2.76,2.05-3.66,2.75l-0.58-0.07
			c-3.17-0.36-5.45-0.63-10.45-0.03c-0.2,0.02-4.87,0.48-9.76,2.76c-1.46-0.68-3.64-1.71-6.25-3.05c-3.93-2.02-4.83-2.79-5.9-2.36
			c-2.23,0.88-2.31,5.67-2.36,8.26c-0.07,3.61,0.64,6.5,1.18,8.26c-0.54,1.33-1.22,3.23-1.73,5.59C9.5,32.6,7.04,42.09,12.77,50.23
			c1.88,2.67,5.7,7.28,11.97,9.92c3.02,1.27,5.5,1.62,7.63,1.92c2.1,0.29,8.84,1.06,17.28-1.49c3.44-1.04,6.94-2.1,10.65-5.12
			C66.23,50.62,67.11,45.32,67.1,45.31z"/>
		<g>
			<path d="M45.85,37.43c0.18,0,0.36-0.07,0.5-0.2l0.03-0.02c0.32-0.3,3.18-2.84,8.77-3.82c0.34-0.06,0.6-0.36,0.63-0.72
				c0.03-0.37-0.17-0.71-0.5-0.83c-0.09-0.03-0.56-0.2-1.38-0.2c-1.79,0-4.73,0.76-8.53,4.36l-0.04,0.04
				c-0.3,0.3-0.33,0.81-0.05,1.14C45.44,37.34,45.65,37.43,45.85,37.43z"/>
			<path d="M45.85,37.43c0.28,0.01,0.48-0.19,0.67-0.37c0.2-0.18,0.41-0.34,0.62-0.5c0.43-0.32,0.87-0.61,1.33-0.88
				c0.91-0.55,1.87-1.04,2.86-1.43c0.99-0.4,2.02-0.72,3.06-0.97l0.76-0.16c0.16-0.05,0.29-0.2,0.34-0.37c0.05-0.18,0-0.37-0.11-0.5
				c-0.05-0.07-0.12-0.11-0.2-0.14c-0.1-0.03-0.22-0.06-0.34-0.09c-0.97-0.2-2.03-0.08-3.02,0.19c-1,0.26-1.97,0.68-2.88,1.2
				c-0.92,0.52-1.79,1.12-2.61,1.79c-0.21,0.17-0.4,0.34-0.6,0.52c-0.19,0.19-0.43,0.33-0.54,0.57
				C44.95,36.74,45.29,37.43,45.85,37.43z M45.85,37.43c-0.57,0.02-0.94-0.67-0.7-1.17c0.11-0.26,0.35-0.4,0.53-0.6
				c0.19-0.18,0.39-0.37,0.59-0.54c0.79-0.71,1.61-1.39,2.51-1.98c1.77-1.17,3.91-2.07,6.17-1.71c0.14,0.03,0.28,0.07,0.43,0.12
				c0.17,0.07,0.32,0.18,0.43,0.33c0.22,0.28,0.29,0.66,0.19,1c-0.09,0.34-0.36,0.63-0.71,0.73l-0.8,0.15
				c-1.03,0.19-2.06,0.42-3.06,0.75c-1,0.33-1.99,0.73-2.92,1.23c-0.46,0.26-0.92,0.53-1.35,0.84c-0.22,0.15-0.43,0.31-0.63,0.48
				C46.35,37.24,46.14,37.44,45.85,37.43z"/>
		</g>
		<path d="M47.22,45.68c-0.42-0.05-0.79,0.27-0.82,0.71c-0.16,1.59-0.89,2.31-2.31,2.33c-0.47,0.01-0.82-0.08-1.09-0.16
			c-1.23-0.35-2.16-1.23-2.16-1.23c-0.43-0.4-1.04-0.97-1.29-1.91c-0.09-0.32-0.11-0.6-0.11-0.78c1.67-1.29,2.24-2.11,2.05-2.57
			c-0.46-1.12-5.57-0.62-5.82,0.62c-0.12,0.6,0.92,1.36,2.25,2.07c0.06,0.17,0.12,0.42,0.11,0.73c-0.01,0.2-0.06,0.9-1.07,1.93
			c-0.88,0.9-1.72,1.63-2.76,1.65c-1.07,0.02-2.15-0.73-2.28-1.25c-0.1-0.42-0.49-0.69-0.89-0.6c-0.42,0.11-0.67,0.53-0.58,0.98
			c0.18,0.89,1.1,2.48,3.29,2.51c0.2,0,0.39,0.01,0.61-0.04c0.68-0.06,1.21-0.33,1.67-0.63c0.59,1.21,1.79,1.95,3.06,1.9
			c1.24-0.05,2.36-0.85,2.88-2.07c0.21,0.11,0.49,0.23,0.84,0.32c0.36,0.1,0.78,0.16,1.28,0.15c2.23-0.01,3.59-1.38,3.8-3.79
			C47.94,46.11,47.64,45.71,47.22,45.68z"/>
		<path d="M67.82,45.67c1.16-3.24,1.62-6.82,1.36-10.62c-0.61-8.68-3.9-13.86-6.77-17.45c-0.43-3.07-0.69-5.47-0.85-7.08
			c0-0.01,0,0.02,0,0c-0.49-3.2-0.58-5.5-1.76-7.66c-0.32-0.58-0.58-0.91-0.98-1.11c-0.9-0.46-1.96-0.03-2.5,0.2
			c-2.95,1.24-9.33,6.73-9.9,7.21l-0.57-0.07C45.68,9.07,45.4,9.04,45.05,9c-3.62-0.39-8.94-0.96-14.64,0.73
			c-1.23,0.36-3.05,1-5.19,2.16c-0.6-0.39-7.89-5.09-10.87-6.08c-1.4-0.47-2.07-0.18-2.36,0c-0.56,0.35-0.77,0.95-0.87,1.28
			c-1.19,3.82-0.73,9.52-0.73,9.52c0.27,3.35,0.74,6.04,0.96,7.33c0.03,0.2,0.06,0.36,0.09,0.48c-0.68,1.45-1.2,3.02-1.58,4.64
			C8,37.42,8.9,44.87,12.42,50.76c1.93,2.74,5.83,7.48,12.2,10.2c3.09,1.31,5.61,1.66,7.8,1.97c2.12,0.3,9,1.1,17.61-1.52
			c3.94-1.2,7.36-2.25,10.87-5.28C65.15,52.47,67.01,48.07,67.82,45.67z M62.74,51.56c-5.04,6.05-13.34,9.5-24.01,9.99
			c-9.97,0.45-18.6-3.05-23.64-9.57c-4.45-5.79-5.76-13.6-3.77-22.56c0.35-1.59,0.88-3.12,1.58-4.53c0-0.02,0-0.02,0-0.05
			c0.02-0.02,0.02-0.05,0.04-0.07c0-0.02,0.02-0.05,0.02-0.07v-0.09c0-0.02,0.02-0.05,0.02-0.07v-0.07c0-0.05-0.02-0.07-0.02-0.09
			c0-0.02,0-0.02,0-0.05c0,0-0.02-0.12-0.07-0.33c-0.43-2.07-0.75-4.38-1.01-7.53c-0.08-0.97-0.11-1.86-0.1-2.7
			c0.01-0.93,0.01-1.98,0.19-3.25c0.3-2.11,0.46-3.17,1.18-3.54c0.72-0.37,1.67,0.13,3.54,1.18c1.7,0.96,2.86,1.85,3.54,2.36
			c0.95,0.72,1.15,0.85,2.11,1.54c1.12,0.8,2.05,1.42,2.68,1.83c0.95-0.65,2.01-1.27,3.18-1.83c7.39-3.52,14.72-2.24,18.73-1.13
			c0.45-0.53,1.11-1.25,1.98-2.05c0,0,0.4-0.37,0.83-0.73c3.64-3.04,6.62-5.54,8.26-4.72c1.27,0.63,1.67,3.2,2.07,5.75
			c0.12,0.76,0.18,1.32,0.29,2.52c0.14,1.53,0.33,3.53,0.54,5.9c-0.01,0.03-0.02,0.07-0.02,0.12c0,0.04,0,0.08,0,0.12V18
			c0.02,0.02,0.02,0.05,0.02,0.07c0,0.02,0.02,0.05,0.02,0.07c0,0.05,0.02,0.07,0.02,0.09c0.02,0.02,0.02,0.05,0.04,0.07
			c0,0.02,0.02,0.05,0.04,0.07c0.02,0.02,0.02,0.02,0.04,0.05c2.91,3.59,6,8.39,6.57,16.74C68.11,41.47,66.4,47.13,62.74,51.56z"/>
		<path class="st3" d="M16.91,19.23c-0.86,0.59-1.04,0.52-1.14,0.5c-0.27-0.05-0.66-0.33-1.33-2.95c-0.12-0.47-0.58-2.16-0.65-4.53
			c-0.04-1.22,0.06-1.64,0.33-1.83c0.36-0.24,0.87-0.04,1.38,0.2c0,0,3.27,1.54,5.4,4.49c0.09,0.13,0.27,0.39,0.24,0.7
			c-0.04,0.38-0.39,0.6-0.6,0.8c-0.53,0.52-1.02,0.9-1.89,1.5C17.3,19.06,17.95,18.52,16.91,19.23z"/>
		<g>
			<path d="M29.72,38.82c-0.17,0.03-0.36,0-0.53-0.1l-0.03-0.02c-0.37-0.23-3.68-2.17-9.35-2.04c-0.34,0.01-0.66-0.23-0.76-0.59
				c-0.1-0.35,0.03-0.73,0.33-0.91c0.08-0.05,0.51-0.3,1.31-0.46c1.76-0.35,4.78-0.18,9.22,2.62l0.05,0.03
				c0.36,0.24,0.48,0.73,0.27,1.11C30.1,38.65,29.92,38.78,29.72,38.82z"/>
			<path d="M29.72,38.82c-0.27,0.07-0.52-0.08-0.74-0.22c-0.23-0.13-0.47-0.24-0.71-0.35c-0.48-0.22-0.98-0.4-1.49-0.56
				c-1.01-0.31-2.05-0.51-3.1-0.64c-1.05-0.13-2.1-0.16-3.15-0.14l-0.82,0.01c-0.37-0.03-0.69-0.27-0.84-0.58
				c-0.16-0.31-0.17-0.7,0-1.02c0.08-0.16,0.21-0.3,0.36-0.4c0.14-0.09,0.26-0.15,0.4-0.2c2.15-0.79,4.43-0.32,6.39,0.48
				c1,0.4,1.94,0.91,2.85,1.45c0.23,0.13,0.46,0.27,0.68,0.41c0.21,0.15,0.48,0.25,0.64,0.48C30.51,37.98,30.28,38.73,29.72,38.82z
				 M29.72,38.82c0.56-0.11,0.76-0.85,0.42-1.26c-0.15-0.21-0.42-0.3-0.64-0.45c-0.23-0.13-0.46-0.27-0.69-0.39
				c-0.93-0.5-1.91-0.92-2.91-1.25c-1-0.33-2.03-0.55-3.06-0.61c-1.02-0.07-2.08,0.02-3,0.4c-0.11,0.04-0.23,0.1-0.32,0.15
				c-0.07,0.04-0.13,0.1-0.17,0.18c-0.08,0.15-0.09,0.35-0.01,0.52c0.08,0.16,0.23,0.28,0.4,0.3l0.77,0.01
				c1.07,0.04,2.14,0.16,3.19,0.35c1.05,0.2,2.08,0.49,3.08,0.85c0.5,0.17,1,0.37,1.48,0.6c0.24,0.11,0.48,0.24,0.71,0.37
				C29.2,38.72,29.44,38.89,29.72,38.82z"/>
		</g>
	</g>
	<g id="Лапа_1_">
		<g>
			<path class="st0" d="M73.73,69.85c-0.12-0.57-0.74-3.45-0.84-6.13c-0.02-0.45-0.07-1.78,0.1-3.34c0.04-0.36,0.08-0.65,0.11-0.9
				c0.5-3.47,1.5-3.27,1.61-5.66c0.13-2.78-1.13-5.27-1.75-6.55c-0.31-0.64-0.64-1.19-0.99-1.71c-1.58-2.41-4.19-4.22-6.95-4.07
				c-2.45,0.13-4.66,1.79-6.09,3.92c-0.51,0.76-0.93,1.51-1.29,2.28c-0.47,1.02-1.34,2.88-1.44,4.96c-0.02,0.36-0.11,0.82,0.07,1.34
				c0.26,0.75,0.82,1.07,1.22,1.43c0.75,0.69,0.94,1.88,1.32,4.25c0.33,2.09,0.24,3.64,0.22,4.03c-0.1,1.48-0.36,2.58-0.44,2.91
				c-0.31,1.25-0.73,2.26-1.1,3.01"/>
			<g>
				<path d="M74.53,69.63c-0.76-3.62-1.35-7.73-0.35-11.39c0.67-2.43,1.58-3.59,1.25-6.26c-0.57-4.64-4.03-10.52-9.04-11.23
					c-5.68-0.8-9.8,5.24-10.77,10.17c-0.65,3.32,0.56,3.47,1.88,6.21c1.66,3.44,0.71,8.77-0.71,12.07c-0.41,0.96,1,1.8,1.42,0.83
					c1.5-3.49,1.93-6.82,1.4-10.58c-0.25-1.75-0.84-3.01-1.46-4.53c-1.77-4.3,0.22-8.74,3.99-11.27c4.6-3.08,8.72,0.81,10.54,4.93
					c1.56,3.53,0.86,5.81-0.09,9.21c-1.1,3.94-0.48,8.33,0.35,12.26C73.16,71.1,74.74,70.66,74.53,69.63L74.53,69.63z"/>
			</g>
		</g>
		<path id="XMLID_4_" class="st4" d="M60.74,53.99c-0.59,0.74-1.99,2.09-4.14,1.05C54.46,54,51.13,47.58,58,42.6
			c4.43-3.21,19.54-3.02,18.9,8.15c-0.12,2.08-1.6,4.64-4.01,4.51c-2.41-0.13-3.54-1.63-3.54-1.63L60.74,53.99z"/>
		<g id="XMLID_1_">
			<path class="st0" d="M60.68,49.62c-1.46,7.09,5.16,8.13,6.91,6.7c2.78-2.28,1.87-7.02,1.87-7.02"/>
			<path d="M60.68,49.62c-0.08,1.67,0.14,3.34,0.97,4.58c0.83,1.22,2.25,1.95,3.72,2c0.71,0.04,1.48-0.06,1.9-0.44
				c0.57-0.44,0.99-1.06,1.33-1.74c0.63-1.4,0.85-3.05,0.87-4.72c0.52,1.6,0.63,3.38,0.09,5.09c-0.27,0.86-0.77,1.67-1.47,2.31
				c-0.15,0.17-0.44,0.33-0.66,0.45c-0.24,0.08-0.48,0.21-0.71,0.24c-0.48,0.11-0.95,0.15-1.41,0.12c-0.93-0.07-1.84-0.32-2.64-0.79
				c-0.79-0.49-1.47-1.18-1.89-2C59.92,53.04,60.07,51.16,60.68,49.62z"/>
		</g>
	</g>
	<circle id="Колокольчик_1_" class="st5" cx="40.06" cy="64.91" r="5.15"/>
	<path class="st6" d="M4.09,69.96c23.1,0,46.21,0,69.31,0C50.3,69.96,27.2,69.96,4.09,69.96z"/>
	<path d="M39.4,9.72"/>
	<path class="st3" d="M55.85,15.61c0.93,0.48,1.09,0.38,1.19,0.35c0.26-0.09,0.61-0.41,0.94-3.1c0.06-0.48,0.3-2.21,0.07-4.58
		c-0.12-1.21-0.26-1.62-0.56-1.77c-0.39-0.2-0.87,0.07-1.35,0.38c0,0-3.05,1.94-4.79,5.14c-0.08,0.14-0.22,0.42-0.15,0.73
		c0.09,0.38,0.47,0.55,0.69,0.72c0.59,0.45,1.13,0.76,2.06,1.25C55.44,15.49,54.72,15.03,55.85,15.61z"/>
</g>
</svg>
