<svg xmlns="http://www.w3.org/2000/svg" width="207.273" height="42.444"><path fill="#1a1718" d="M0 .853h39.582v40.393H0z"/><g fill="#ffc200"><path d="M31.689 32.947h-7.932v-7.932h7.932z"/><path d="M23.758 9.152l-7.932 7.932-7.932 7.932v7.931h7.932l7.932-7.932 7.932-7.932V9.151z"/><path d="M15.826 17.084H7.894V9.152h7.932z"/></g><path d="M67 18.426l4.995 7.511c.953 1.411.8 1.83-.992 1.83h-1.449a3.42 3.42 0 01-3.432-1.868l-4.652-7.092h-3.469v6.751c0 1.716-.419 2.211-2.211 2.211h-.686c-1.792 0-2.211-.5-2.211-2.211v-18c0-3.2 1.373-4.575 4.576-4.575h6.253c5.6 0 8.426 2.631 8.426 7.931-.002 4.118-1.72 6.635-5.148 7.512zM59.145 7.75a1.011 1.011 0 00-1.144 1.144v5.148h5.719c2.211 0 3.317-1.03 3.317-3.127 0-2.135-.915-3.165-3.317-3.165zm33.971 10.218c-.191 1.716-.686 2.1-2.479 2.1h-9.684v.572c0 1.982 1.487 2.9 4.995 2.9a23.2 23.2 0 004.613-.533c1.64-.343 2.021.038 2.021 1.83v.419c0 1.678-.343 2.059-2.021 2.478a17.9 17.9 0 01-4.652.5c-6.825 0-9.951-2.516-9.951-8.35v-3.05c0-5.72 2.974-8.579 8.884-8.579q8.35 0 8.35 8.236c0 .528-.038 1.019-.076 1.477zm-12.163-1.949h7.511v-.572c0-1.944-1.258-2.9-3.774-2.9-2.479 0-3.737.953-3.737 2.9zm21.618 2.635c0 3.012 1.372 4.8 5.757 4.8a15.319 15.319 0 004.117-.572c1.678-.458 2.135-.076 2.135 1.716v.305c0 1.716-.419 2.135-2.1 2.745a13.726 13.726 0 01-4.384.572c-7.169 0-10.79-2.86-10.79-9.57v-6.1c0-6.253 3.621-9.952 10.828-9.952a12.2 12.2 0 014.308.648c1.716.648 2.135 1.067 2.135 2.745v.305c0 1.792-.534 2.212-2.211 1.716a14.839 14.839 0 00-4.232-.648c-3.928 0-5.567 1.639-5.567 5.185zm20.891 6.977c0 1.716-.419 2.136-2.135 2.136h-.725c-1.716 0-2.135-.419-2.135-2.136V15.184c0-4.537 2.745-6.939 7.93-6.939h.419c1.487 0 1.944.648 1.944 2.441v.419c0 1.678-.381 1.945-1.944 1.83h-.419c-2.326 0-2.936.763-2.936 2.631zm24.593-7.663c-.191 1.716-.686 2.1-2.479 2.1h-9.684v.572c0 1.982 1.487 2.9 4.995 2.9a23.2 23.2 0 004.613-.533c1.64-.343 2.021.038 2.021 1.83v.419c0 1.678-.343 2.059-2.021 2.478a17.892 17.892 0 01-4.651.5c-6.825 0-9.952-2.516-9.952-8.35v-3.05c0-5.72 2.974-8.579 8.884-8.579q8.351 0 8.35 8.236c.004.528-.038 1.019-.076 1.477zm-12.163-1.949h7.511v-.572c0-1.944-1.258-2.9-3.775-2.9-2.479 0-3.737.953-3.737 2.9zm34.16 3.855c0 5.681-3.622 8.35-9.074 8.35-6.062 0-9.113-2.783-9.113-8.35v-3.05c0-5.491 2.784-8.579 8.007-8.579 2.4 0 4.156.725 5.224 2.173V3.212c0-1.716.419-2.135 2.135-2.135h.686c1.716 0 2.135.419 2.135 2.135zm-13.192-.114c0 2.708.762 3.775 4.079 3.775 3.241 0 4.157-1.144 4.157-3.775v-3.05c0-2.631-.915-3.775-4.157-3.775s-4.079 1.144-4.079 3.775zM175.312.887a2.966 2.966 0 110 4.194 2.923 2.923 0 010-4.194zm-.381 9.952c0-1.716.419-2.135 2.135-2.135h.686c1.716 0 2.136.419 2.136 2.135v14.793c0 1.716-.42 2.135-2.136 2.135h-.686c-1.715 0-2.135-.419-2.135-2.135zm8.503.494c0-1.525.381-1.982 1.868-2.288l1.564-.343.458-3.012c.19-1.563.648-1.944 2.288-1.944h.229c1.639 0 1.983.343 1.983 1.983v2.974h4.346c1.716 0 2.135.419 2.135 2.135v.419c0 1.716-.42 2.135-2.135 2.135h-4.346v7.55c0 1.716.8 2.554 2.4 2.554a13.7 13.7 0 002.669-.228c1.716-.306 2.1-.114 2.1 1.563v.419c0 1.716-.457 2.364-2.1 2.707a12.366 12.366 0 01-2.669.229c-4.919 0-7.359-2.441-7.359-7.283v-7.511h-1.531c-1.525 0-1.906-.381-1.906-1.907z" fill="#262626"/><path d="M53.199 40.374h.111a.645.645 0 00.526-.249 2.071 2.071 0 00.312-.913 12.218 12.218 0 00.111-1.88v-1.209h3.729v4.251h.751v2.07h-1.106v-1.193h-3.326v1.193h-1.108zm3.556.008v-3.39h-1.39v.632a5.253 5.253 0 01-.514 2.758zm6.215.893a4.254 4.254 0 01-.747-.19 1.317 1.317 0 01-.656-.462 1.271 1.271 0 01-.237-.778v-2.244a1.354 1.354 0 01.17-.68 1.335 1.335 0 01.439-.474 2.328 2.328 0 01.585-.253 3.253 3.253 0 01.648-.126c.184-.016.379-.023.585-.023a6.311 6.311 0 01.632.027 4.071 4.071 0 01.6.115 2.4 2.4 0 01.625.268 1.3 1.3 0 01.411.443 1.359 1.359 0 01.173.7v2.244a1.21 1.21 0 01-.225.735 1.379 1.379 0 01-.62.466 4.263 4.263 0 01-1.6.285 5.2 5.2 0 01-.783-.053zm1.241-.842a2.181 2.181 0 00.367-.075.537.537 0 00.289-.186.527.527 0 00.1-.328v-2.252a.539.539 0 00-.293-.518 2.034 2.034 0 00-.908-.154 2.082 2.082 0 00-.908.151.535.535 0 00-.293.521v2.252a.509.509 0 00.1.328.558.558 0 00.3.186 2.162 2.162 0 00.367.075 4.872 4.872 0 00.877 0zm6.605.865a4.211 4.211 0 01-.6-.119 2.05 2.05 0 01-.6-.249 1.225 1.225 0 01-.4-.431 1.252 1.252 0 01-.166-.656v-2.252q0-1.549 2.378-1.549a10.263 10.263 0 011.628.173v.925a6.977 6.977 0 00-1.612-.222c-.2 0-.347.006-.454.016a1.381 1.381 0 00-.336.079.532.532 0 00-.371.561v2.181q0 .7 1.272.7a7.308 7.308 0 001.533-.229v.932a8.2 8.2 0 01-1.66.174 5.5 5.5 0 01-.612-.034zM77.046 37h-1.58v-.877h4.385V37h-1.573v4.251h-1.232zm5.547 4.251v-.9q.166.039.328.071a1.618 1.618 0 00.312.031.644.644 0 00.375-.106.851.851 0 00.265-.328l.111-.229-1.983-3.666h1.288l1.288 2.576h.031l1.02-2.576h1.241l-1.857 4.117a1.891 1.891 0 01-.64.83 1.941 1.941 0 01-1.09.261 3.666 3.666 0 01-.689-.081zm6.724-5.128h4.52v5.128h-1.233v-4.259H90.55v4.259h-1.233zm7.601 0h1.229v2.054h2.181v-2.054h1.232v5.128h-1.232v-2.2h-2.181v2.2h-1.233zm7.728 0h3.912V37h-2.679v1.177h2.418v.877h-2.418v1.319h2.758v.878h-3.991zm10.588 0h1.233v2.021a1.07 1.07 0 00.561-.13 1.712 1.712 0 00.466-.5l.964-1.391h1.383l-1.106 1.541a3.262 3.262 0 01-.462.541 1.681 1.681 0 01-.517.3v.015a1.454 1.454 0 01.66.34 2.769 2.769 0 01.517.711l.909 1.676h-1.383l-.84-1.503a2.049 2.049 0 00-.32-.454.8.8 0 00-.344-.209 1.8 1.8 0 00-.49-.055v2.228h-1.233zm7.151 0h2.055a5.434 5.434 0 011.189.1 1.1 1.1 0 01.64.36 1.129 1.129 0 01.2.715v.972a1.273 1.273 0 01-.217.79 1.2 1.2 0 01-.687.4 5.416 5.416 0 01-1.268.118h-.68v1.667h-1.233zm2.015 2.616a1.442 1.442 0 00.679-.115.415.415 0 00.2-.391v-.822a.321.321 0 00-.19-.332 2.05 2.05 0 00-.7-.079h-.767v1.739zm4.915-2.616h3.915V37h-2.679v1.177h2.418v.877h-2.418v1.319h2.758v.878h-3.99zm6.361 4.251h.111a.646.646 0 00.526-.249 2.072 2.072 0 00.312-.913 12.15 12.15 0 00.111-1.88v-1.209h3.729v4.251h.751v2.07h-1.102v-1.193h-3.327v1.193h-1.106zm3.556.008v-3.39h-1.391v.632a5.259 5.259 0 01-.514 2.758zm4.685-4.259h1.232v3.508l2.213-3.508h1.233v5.128h-1.233v-3.564l-2.213 3.564h-1.232zm8.945.877h-1.58v-.877h4.385V37h-1.572v4.251h-1.233zm5.546 4.251v-.9q.166.039.328.071a1.616 1.616 0 00.312.031.646.646 0 00.376-.106.849.849 0 00.265-.328l.111-.229-1.983-3.666h1.288l1.288 2.576h.031l1.019-2.576h1.244l-1.857 4.117a1.89 1.89 0 01-.64.83 1.94 1.94 0 01-1.09.261 3.67 3.67 0 01-.692-.081zm6.725-5.128h2.079a4.641 4.641 0 011.133.107.97.97 0 01.565.34 1.11 1.11 0 01.166.652v.632a.6.6 0 01-.17.4.879.879 0 01-.4.261v.04a.956.956 0 01.549.257.665.665 0 01.249.5v.79a.918.918 0 01-.5.885 3.467 3.467 0 01-1.541.261h-2.134zm2.079 2.086a1.463 1.463 0 00.434-.048.307.307 0 00.193-.154.734.734 0 00.052-.312v-.251a.607.607 0 00-.047-.273.288.288 0 00-.194-.13 1.932 1.932 0 00-.462-.04h-.822v1.209zm.031 2.164a1.432 1.432 0 00.64-.1.349.349 0 00.19-.332v-.411a.494.494 0 00-.146-.4.843.843 0 00-.517-.118h-1.043v1.367zm6.241-4.25h1.5l1.849 5.128h-1.249l-.456-1.351h-1.873l-.45 1.351h-1.217zm1.375 2.955l-.647-1.928h-.032l-.648 1.928zm4.52-2.955h1.232v2.054h2.181v-2.054h1.233v5.128h-1.233v-2.2h-2.181v2.2h-1.232zm7.728 0h1.233v2.054h2.181v-2.054h1.232v5.128h-1.232v-2.2h-2.181v2.2h-1.233zm8.676 3.137a1.212 1.212 0 01-.743-.316.989.989 0 01-.245-.719v-1.019a.874.874 0 01.458-.834 3.293 3.293 0 011.485-.249h2.268v5.128h-1.233v-1.9h-.727l-1.2 1.9h-1.406zm1.991-.719V37h-1.019a1.148 1.148 0 00-.581.107.424.424 0 00-.17.391v.482a.523.523 0 00.158.447 1.083 1.083 0 00.593.114z" fill="#47484a"/><path d="M202.455 2.536h-1.261v3.431h-.852V2.536h-1.244v-.687h3.354zm1.593-.687l1.058 2.987 1.052-2.987h1.115v4.118h-.852V4.841l.085-1.943-1.112 3.069h-.583l-1.109-3.066.085 1.94v1.126h-.849V1.849z" fill="#1a1818"/></svg>