<?xml version="1.0" encoding="UTF-8"?>
<!DOCTYPE svg PUBLIC "-//W3C//DTD SVG 1.1//EN" "http://www.w3.org/Graphics/SVG/1.1/DTD/svg11.dtd">
<svg xmlns="http://www.w3.org/2000/svg" version="1.1" width="300px" height="100px" style="shape-rendering:geometricPrecision; text-rendering:geometricPrecision; image-rendering:optimizeQuality; fill-rule:evenodd; clip-rule:evenodd" xmlns:xlink="http://www.w3.org/1999/xlink">
<g><path style="opacity:0.998" fill="#ffe02d" d="M 121.5,-0.5 C 128.5,-0.5 135.5,-0.5 142.5,-0.5C 127.434,10.5838 116.434,24.9171 109.5,42.5C 88.4064,36.2331 67.2397,35.8998 46,41.5C 45.8333,41 45.6667,40.5 45.5,40C 66.1337,17.8476 91.4671,4.34764 121.5,-0.5 Z"/></g>
<g><path style="opacity:0.999" fill="#ff831e" d="M 143.5,-0.5 C 150.5,-0.5 157.5,-0.5 164.5,-0.5C 194.813,4.48921 220.48,18.1559 241.5,40.5C 241.333,40.8333 241.167,41.1667 241,41.5C 219.101,35.9216 197.268,36.255 175.5,42.5C 173.544,33.5883 169.711,25.5883 164,18.5C 157.525,11.5153 150.692,5.18195 143.5,-0.5 Z"/></g>
<g><path style="opacity:1" fill="#a0a0a0" d="M 156.5,46.5 C 155.821,64.0687 155.154,81.7353 154.5,99.5C 152.167,99.5 149.833,99.5 147.5,99.5C 147.826,81.5899 147.492,63.7566 146.5,46C 149.426,45.7822 152.26,45.2822 155,44.5C 155.717,45.0442 156.217,45.7109 156.5,46.5 Z"/></g>
<g><path style="opacity:0.051" fill="#686868" d="M 156.5,46.5 C 156.5,64.1667 156.5,81.8333 156.5,99.5C 155.833,99.5 155.167,99.5 154.5,99.5C 155.154,81.7353 155.821,64.0687 156.5,46.5 Z"/></g>
<g><path style="opacity:0.078" fill="#2a2a2a" d="M 175.5,45.5 C 175.181,63.5766 175.514,81.5766 176.5,99.5C 175.833,99.5 175.167,99.5 174.5,99.5C 174.17,81.3256 174.503,63.3256 175.5,45.5 Z"/></g>
<g><path style="opacity:1" fill="#9b9b9b" d="M 68.5,99.5 C 65.1667,99.5 61.8333,99.5 58.5,99.5C 55.7187,94.7742 53.052,89.9408 50.5,85C 39.5,84.3333 28.5,84.3333 17.5,85C 14.948,89.9408 12.2813,94.7742 9.5,99.5C 6.16667,99.5 2.83333,99.5 -0.5,99.5C -0.5,99.1667 -0.5,98.8333 -0.5,98.5C 9.89248,80.7246 20.0591,62.7246 30,44.5C 32.6667,45.8333 35.3333,45.8333 38,44.5C 48.1788,62.8605 58.3455,81.1938 68.5,99.5 Z M 33.5,54.5 C 38.0591,61.942 42.3925,69.6087 46.5,77.5C 38.1667,78.8333 29.8333,78.8333 21.5,77.5C 25.7679,69.964 29.7679,62.2973 33.5,54.5 Z"/></g>
<g><path style="opacity:1" fill="#9d9d9d" d="M 107.5,99.5 C 104.5,99.5 101.5,99.5 98.5,99.5C 89.4468,81.7289 80.1135,64.0622 70.5,46.5C 70.8076,45.6919 71.3076,45.0253 72,44.5C 74.8003,45.1253 77.6336,45.792 80.5,46.5C 87.9122,60.9922 95.5788,75.3256 103.5,89.5C 111.971,75.1902 119.804,60.5235 127,45.5C 129.893,45.6826 132.893,45.3493 136,44.5C 136.5,45 137,45.5 137.5,46C 127.361,63.7797 117.361,81.6131 107.5,99.5 Z"/></g>
<g><path style="opacity:1" fill="#9c9c9c" d="M 227.5,99.5 C 223.833,99.5 220.167,99.5 216.5,99.5C 212.169,91.9884 206.836,85.1551 200.5,79C 195.028,76.9852 189.362,76.1519 183.5,76.5C 183.5,84.1667 183.5,91.8333 183.5,99.5C 181.167,99.5 178.833,99.5 176.5,99.5C 175.514,81.5766 175.181,63.5766 175.5,45.5C 175.435,45.0618 175.601,44.7284 176,44.5C 185.756,45.3202 195.59,45.8202 205.5,46C 219.813,47.928 224.313,55.428 219,68.5C 215.195,71.3194 211.029,73.4861 206.5,75C 214.797,82.125 221.797,90.2917 227.5,99.5 Z M 183.5,51.5 C 191.238,51.1439 198.905,51.6439 206.5,53C 212.45,55.4767 213.95,59.6434 211,65.5C 209.421,67.0412 207.587,68.2078 205.5,69C 198.254,70.3905 190.921,70.8905 183.5,70.5C 183.5,64.1667 183.5,57.8333 183.5,51.5 Z"/></g>
<g><path style="opacity:1" fill="#9b9b9b" d="M 299.5,97.5 C 299.5,98.1667 299.5,98.8333 299.5,99.5C 296.167,99.5 292.833,99.5 289.5,99.5C 287.238,94.4799 284.572,89.6466 281.5,85C 270.485,84.1676 259.485,84.3342 248.5,85.5C 245.628,89.9099 243.295,94.5765 241.5,99.5C 238.167,99.5 234.833,99.5 231.5,99.5C 240.888,81.7273 250.555,64.0606 260.5,46.5C 263.833,45.1667 267.167,45.1667 270.5,46.5C 279.941,63.7251 289.608,80.7251 299.5,97.5 Z M 264.5,54.5 C 269.518,62.022 274.185,69.8553 278.5,78C 269.833,78.6667 261.167,78.6667 252.5,78C 256.654,70.1914 260.654,62.3581 264.5,54.5 Z"/></g>
</svg>
