<?xml version="1.0" encoding="UTF-8"?>
<!DOCTYPE svg PUBLIC "-//W3C//DTD SVG 1.1//EN" "http://www.w3.org/Graphics/SVG/1.1/DTD/svg11.dtd">
<svg xmlns="http://www.w3.org/2000/svg" version="1.1" width="400px" height="200px" style="shape-rendering:geometricPrecision; text-rendering:geometricPrecision; image-rendering:optimizeQuality; fill-rule:evenodd; clip-rule:evenodd" xmlns:xlink="http://www.w3.org/1999/xlink">
<g><path style="opacity:0.929" fill="#d12020" d="M 91.5,52.5 C 105.004,50.8729 117.004,54.2063 127.5,62.5C 123.5,67.1667 119.167,71.5 114.5,75.5C 104.368,68.8784 94.2012,68.8784 84,75.5C 79.6513,71.3184 75.4846,66.9851 71.5,62.5C 77.3316,57.4481 83.9983,54.1148 91.5,52.5 Z"/></g>
<g><path style="opacity:0.937" fill="#d12020" d="M 62.5,70.5 C 67.3429,74.5095 71.6762,79.0095 75.5,84C 70.1667,94 70.1667,104 75.5,114C 71.7138,118.789 67.5471,123.289 63,127.5C 53.5862,114.901 50.9195,100.901 55,85.5C 56.4636,79.9173 58.9636,74.9173 62.5,70.5 Z"/></g>
<g><path style="opacity:0.917" fill="#d12020" d="M 134.5,70.5 C 138.161,72.7598 140.661,76.0931 142,80.5C 146.667,92.8333 146.667,105.167 142,117.5C 140.566,121.382 138.4,124.715 135.5,127.5C 131.015,123.515 126.682,119.349 122.5,115C 129.128,104.466 129.128,93.9661 122.5,83.5C 126.522,79.1465 130.522,74.8131 134.5,70.5 Z"/></g>
<g><path style="opacity:0.831" fill="#d12120" d="M 166.5,81.5 C 170.911,81.021 175.078,81.6876 179,83.5C 179.743,85.4406 179.576,87.2739 178.5,89C 176.254,88.5721 173.921,88.0721 171.5,87.5C 167.647,87.7195 166.647,89.5529 168.5,93C 172.419,94.5403 175.919,96.7069 179,99.5C 181.845,105.976 180.678,111.476 175.5,116C 170.56,117.041 165.894,116.374 161.5,114C 158.807,110.88 159.307,108.38 163,106.5C 166.093,109.482 169.593,110.482 173.5,109.5C 173.66,107.801 173.494,106.134 173,104.5C 170.252,102.542 167.418,100.709 164.5,99C 158.755,92.3887 159.421,86.5554 166.5,81.5 Z"/></g>
<g><path style="opacity:0.838" fill="#d12120" d="M 189.5,81.5 C 196.115,80.0554 200.615,82.3887 203,88.5C 203.901,96.5788 203.568,104.579 202,112.5C 196,117.833 190,117.833 184,112.5C 182.432,104.579 182.099,96.5788 183,88.5C 184.018,84.9853 186.185,82.652 189.5,81.5 Z M 191.5,87.5 C 193.39,87.2965 194.89,87.9632 196,89.5C 196.667,95.8333 196.667,102.167 196,108.5C 194,111.167 192,111.167 190,108.5C 189.333,102.167 189.333,95.8333 190,89.5C 190.717,88.9558 191.217,88.2891 191.5,87.5 Z"/></g>
<g><path style="opacity:0.834" fill="#d12120" d="M 212.5,81.5 C 215.85,81.335 219.183,81.5017 222.5,82C 226.319,84.1457 226.485,86.6457 223,89.5C 219.058,86.5237 215.558,86.8571 212.5,90.5C 216.536,93.9426 220.703,97.276 225,100.5C 228.125,113.043 223.291,118.21 210.5,116C 204.933,113.592 204.266,110.425 208.5,106.5C 210.67,108.086 213.004,109.42 215.5,110.5C 219.934,109.03 220.601,106.53 217.5,103C 211.157,101.194 207.157,97.1941 205.5,91C 206.048,86.3615 208.382,83.1949 212.5,81.5 Z"/></g>
<g><path style="opacity:1" fill="#e1e1e1" d="M 235.5,81.5 C 239.308,81.1632 242.974,81.6632 246.5,83C 248.93,85.3046 249.93,88.1379 249.5,91.5C 248.167,91.5 246.833,91.5 245.5,91.5C 245,85.6829 242,84.0162 236.5,86.5C 235.365,94.4508 235.198,102.451 236,110.5C 237.913,112.187 240.08,112.687 242.5,112C 244.057,109.704 245.724,107.538 247.5,105.5C 249.446,107.044 249.946,109.044 249,111.5C 245.235,116.667 240.401,117.833 234.5,115C 232.513,113.681 231.346,111.848 231,109.5C 230.333,102.5 230.333,95.5 231,88.5C 231.904,85.7666 233.404,83.4333 235.5,81.5 Z"/></g>
<g><path style="opacity:0.999" fill="#e8e8e8" d="M 254.5,80.5 C 258.56,80.4847 262.56,80.9847 266.5,82C 268.667,82.8333 270.167,84.3333 271,86.5C 272.942,92.8897 271.109,97.7231 265.5,101C 268.15,105.629 269.983,110.462 271,115.5C 270,116.833 269,116.833 268,115.5C 265.56,110.953 263.393,106.287 261.5,101.5C 260.311,100.571 258.978,100.238 257.5,100.5C 257.666,105.179 257.499,109.845 257,114.5C 256.047,116.592 254.714,116.925 253,115.5C 252.333,104.5 252.333,93.5 253,82.5C 253.717,81.9558 254.217,81.2891 254.5,80.5 Z M 257.5,85.5 C 266.603,84.2216 269.27,87.7216 265.5,96C 262.854,96.4974 260.187,96.6641 257.5,96.5C 257.5,92.8333 257.5,89.1667 257.5,85.5 Z"/></g>
<g><path style="opacity:1" fill="#e9e9e9" d="M 276.5,80.5 C 281.511,80.3341 286.511,80.5007 291.5,81C 293.592,81.9525 293.925,83.2859 292.5,85C 288.179,85.499 283.846,85.6657 279.5,85.5C 279.5,89.1667 279.5,92.8333 279.5,96.5C 281.527,96.3379 283.527,96.5045 285.5,97C 286.337,98.0113 286.67,99.1779 286.5,100.5C 284.167,100.5 281.833,100.5 279.5,100.5C 279.5,104.5 279.5,108.5 279.5,112.5C 283.846,112.334 288.179,112.501 292.5,113C 293.833,114 293.833,115 292.5,116C 286.584,116.807 280.75,116.641 275,115.5C 274.333,104.5 274.333,93.5 275,82.5C 275.717,81.9558 276.217,81.2891 276.5,80.5 Z"/></g>
<g><path style="opacity:1" fill="#d2d2d2" d="M 298.5,80.5 C 302.247,80.3924 305.914,80.8924 309.5,82C 311.667,82.8333 313.167,84.3333 314,86.5C 314.667,94.5 314.667,102.5 314,110.5C 312.833,113 311,114.833 308.5,116C 304.245,116.796 300.079,116.629 296,115.5C 295.333,104.5 295.333,93.5 296,82.5C 296.995,81.9341 297.828,81.2674 298.5,80.5 Z M 300.5,85.5 C 303.448,85.2229 306.281,85.5562 309,86.5C 310.097,90.3844 310.597,94.3844 310.5,98.5C 312.935,107.699 309.601,112.366 300.5,112.5C 300.5,103.5 300.5,94.5 300.5,85.5 Z"/></g>
<g><path style="opacity:1" fill="#e7e7e7" d="M 319.5,81.5 C 320.833,81.5 322.167,81.5 323.5,81.5C 323.667,92.8382 323.5,104.172 323,115.5C 322,116.833 321,116.833 320,115.5C 319.5,104.172 319.333,92.8382 319.5,81.5 Z"/></g>
<g><path style="opacity:1" fill="#e9e9e9" d="M 327.5,80.5 C 332.844,80.334 338.177,80.5006 343.5,81C 346.763,81.8695 347.096,83.2028 344.5,85C 342.527,85.4955 340.527,85.6621 338.5,85.5C 338.666,95.1724 338.5,104.839 338,114.5C 337.047,116.592 335.714,116.925 334,115.5C 333.5,105.506 333.334,95.5056 333.5,85.5C 330.518,85.8956 327.851,85.2289 325.5,83.5C 326.193,82.4822 326.859,81.4822 327.5,80.5 Z"/></g>
<g><path style="opacity:0.923" fill="#d12120" d="M 83.5,122.5 C 93.8195,127.831 104.153,127.831 114.5,122.5C 119.167,126.5 123.5,130.833 127.5,135.5C 115.425,145.373 101.758,148.206 86.5,144C 80.5535,142.697 75.5535,139.864 71.5,135.5C 75.5219,131.146 79.5219,126.813 83.5,122.5 Z"/></g>
</svg>
