<svg width="156" height="35" viewBox="0 0 156 35" fill="none" xmlns="http://www.w3.org/2000/svg">
<path d="M13.3551 21.2947H16.5777L16.566 8.78906H21.1495L21.1579 21.2947H24.3806L24.3679 8.81406H28.9523L28.9649 24.6779L8.7791 24.6903L8.74219 8.78991H13.3266L13.3551 21.2947Z" fill="white"/>
<path d="M30.1914 14.1152H36.6368C39.2847 14.1152 41.0709 14.8711 41.0709 16.805C41.0709 18.1678 40.0221 18.912 39.0103 19.0602C40.0842 19.3207 41.4585 19.866 41.4711 21.6509C41.4711 23.807 39.4852 24.6478 37.0613 24.6478H30.2191L30.1914 14.1152ZM34.2632 18.2543H35.8497C36.7869 18.2543 37.1242 18.0312 37.1242 17.4493C37.1242 16.7425 36.7617 16.5194 35.8497 16.5194H34.2632V18.2543ZM34.2632 22.2327H35.8497C36.8616 22.2327 37.4237 22.1337 37.4237 21.3412C37.4237 20.5486 36.8742 20.3738 35.8497 20.3738H34.2632V22.2327Z" fill="white"/>
<path d="M46.4556 19.8792L50.0533 14.1035H54.2877L54.2995 24.6385H50.2529V19.0734L46.6301 24.6385H42.4208L42.4082 14.1035H46.4556V19.8792Z" fill="white"/>
<path d="M73.3729 17.2988L76.0711 14.0763H80.9928L77.0704 18.1663L81.5172 24.6113H76.4487L74.1758 20.8651L73.3888 21.646V24.5955H69.1669L69.1543 14.0605H73.3762L73.3729 17.2988Z" fill="white"/>
<path d="M86.0266 13.7812C89.7745 13.7812 92.0851 15.9623 92.0851 19.2465C92.0851 23.1017 89.4498 24.9233 86.0518 24.9233C82.6538 24.9233 80.0059 23.0767 80.0059 19.4821C80.0185 15.8142 82.4298 13.7812 86.0266 13.7812ZM84.2404 19.2465C84.2404 21.2303 84.9904 22.0977 86.0644 22.0977C87.2012 22.0977 87.8884 21.2303 87.8884 19.2465C87.8884 17.6981 87.1761 16.5942 86.1021 16.5942C84.6406 16.5942 84.2286 18.0569 84.2404 19.2465Z" fill="white"/>
<path d="M103.039 8.76172V12.418H97.6047L97.6172 24.5888H92.8349L92.8223 8.77168L103.039 8.76172Z" fill="#5BC4F1"/>
<path d="M117.617 13.7559C121.364 13.7559 123.675 15.937 123.675 19.222C123.675 23.0763 121.039 24.8978 117.641 24.8978C114.243 24.8978 111.609 23.0514 111.596 19.4576C111.596 15.7888 114.032 13.7559 117.617 13.7559ZM115.831 19.222C115.831 21.2049 116.58 22.0724 117.654 22.0724C118.791 22.0724 119.478 21.2049 119.478 19.222C119.478 17.6727 118.766 16.5697 117.692 16.5697C116.243 16.5697 115.831 18.0473 115.831 19.222Z" fill="#5BC4F1"/>
<path d="M128.483 21.5265H131.143V14.0508H135.191V21.524H137.839V14.0508H141.898L141.91 24.5851L124.448 24.5975L124.436 14.0625H128.483V21.5265Z" fill="#5BC4F1"/>
<path d="M103.476 26.2896V23.5624C104.188 24.4423 105.038 24.9135 106.199 24.9135C108.572 24.9135 111.158 23.4017 111.158 19.2618C111.158 16.3622 109.621 13.7715 106.411 13.7715C105.2 13.7715 103.676 14.3543 103.089 15.6429H103.051V14.0688H99.2695L99.2821 26.2771L103.476 26.2896ZM105.087 16.8201C106.199 16.8201 106.933 17.6384 106.933 19.3117C106.933 20.7619 106.221 21.7034 105.109 21.7034C103.997 21.7034 103.385 20.6994 103.385 19.2376C103.381 17.834 104.075 16.8176 105.087 16.8176V16.8201Z" fill="#5BC4F1"/>
<path d="M58.8086 26.3118V24.6243H64.5793V26.2976H68.4271V22.2101H67.2525V14.0918L57.0475 14.1043V17.1653C57.0475 19.3098 56.7849 20.884 55.961 22.2343H54.9609V26.3243L58.8086 26.3118ZM60.8944 17.475V16.5076H63.0431V22.2218H59.9077C60.6947 21.0938 60.8944 19.1849 60.8944 17.475Z" fill="white"/>
<path d="M147.132 24.5753H142.922L142.91 14.041H147.119L147.132 24.5753Z" fill="#5BC4F1"/>
<path d="M147.207 10.8191C147.207 11.2457 147.08 11.6627 146.841 12.0174C146.602 12.3722 146.262 12.6486 145.865 12.8119C145.468 12.9751 145.031 13.0178 144.609 12.9346C144.187 12.8514 143.8 12.646 143.496 12.3443C143.192 12.0426 142.985 11.6583 142.901 11.2399C142.817 10.8215 142.86 10.3878 143.025 9.99367C143.189 9.59954 143.468 9.26264 143.826 9.02563C144.183 8.78862 144.603 8.66211 145.033 8.66211C145.61 8.66255 146.162 8.88994 146.57 9.29436C146.977 9.69877 147.207 10.2472 147.207 10.8191Z" fill="#5BC4F1"/>
</svg>
