<?xml version="1.0" standalone="no"?>
<!DOCTYPE svg PUBLIC "-//W3C//DTD SVG 20010904//EN"
 "http://www.w3.org/TR/2001/REC-SVG-20010904/DTD/svg10.dtd">
<svg version="1.0" xmlns="http://www.w3.org/2000/svg"
 width="114.000000pt" height="40.000000pt" viewBox="0 0 114.000000 40.000000"
 preserveAspectRatio="xMidYMid meet">
<metadata>
Created by potrace 1.16, written by Peter Selinger 2001-2019
</metadata>
<g transform="translate(0.000000,40.000000) scale(0.100000,-0.100000)"
fill="#000000" stroke="none">
<path d="M64 361 c-54 -23 -81 -103 -50 -146 8 -11 42 -33 77 -50 48 -22 65
-36 67 -53 5 -32 -15 -52 -49 -52 -26 0 -29 -4 -29 -30 0 -28 3 -30 35 -30 43
0 90 23 105 49 16 31 12 87 -9 112 -10 13 -47 37 -82 54 -71 33 -83 59 -38 84
23 13 29 12 59 -2 43 -22 45 -22 58 7 9 21 8 27 -15 42 -31 20 -99 28 -129 15z"/>
<path d="M322 217 c-36 -20 -55 -57 -55 -104 0 -55 40 -100 96 -110 35 -5 37
-4 37 21 0 19 -5 26 -18 26 -21 0 -52 29 -52 48 0 7 15 12 36 12 28 0 35 3 32
18 -2 11 -14 18 -36 20 -33 3 -33 4 -16 23 9 10 25 19 36 19 11 0 18 7 18 20
0 15 -7 20 -27 20 -16 -1 -38 -6 -51 -13z"/>
</g>
</svg>
