<?xml version="1.0" encoding="UTF-8"?>
<!DOCTYPE svg PUBLIC "-//W3C//DTD SVG 1.1//EN" "http://www.w3.org/Graphics/SVG/1.1/DTD/svg11.dtd">
<svg xmlns="http://www.w3.org/2000/svg" version="1.1" width="793px" height="392px" style="shape-rendering:geometricPrecision; text-rendering:geometricPrecision; image-rendering:optimizeQuality; fill-rule:evenodd; clip-rule:evenodd" xmlns:xlink="http://www.w3.org/1999/xlink">
<g><path style="opacity:0.834" fill="#feae1b" d="M 651.5,88.5 C 654.119,88.2317 656.619,88.565 659,89.5C 659.667,106.5 659.667,123.5 659,140.5C 656.959,141.423 654.792,141.756 652.5,141.5C 653.187,135.401 651.854,134.901 648.5,140C 634.212,144.239 627.212,138.739 627.5,123.5C 626.87,109.962 633.203,103.795 646.5,105C 648.286,105.785 649.786,106.951 651,108.5C 651.5,101.842 651.666,95.175 651.5,88.5 Z M 640.5,110.5 C 644.695,110.681 648.195,112.347 651,115.5C 651.667,120.5 651.667,125.5 651,130.5C 647.167,135.692 642.501,136.692 637,133.5C 634.164,127.307 633.831,120.974 636,114.5C 637.397,112.93 638.897,111.596 640.5,110.5 Z"/></g>
<g><path style="opacity:0.745" fill="#feae1b" d="M 670.5,90.5 C 674.459,89.5778 676.792,91.0778 677.5,95C 676.156,99.1702 673.489,100.337 669.5,98.5C 668.121,95.533 668.454,92.8663 670.5,90.5 Z"/></g>
<g><path style="opacity:0.823" fill="#feae1b" d="M 689.5,95.5 C 691.467,95.2606 693.301,95.5939 695,96.5C 695.497,99.146 695.664,101.813 695.5,104.5C 698.187,104.336 700.854,104.503 703.5,105C 706.167,107 706.167,109 703.5,111C 700.854,111.497 698.187,111.664 695.5,111.5C 695.169,119.196 695.503,126.862 696.5,134.5C 698.833,135.833 701.167,135.833 703.5,134.5C 706.119,136.577 706.119,138.743 703.5,141C 697.456,143.318 692.622,141.818 689,136.5C 688.5,128.173 688.334,119.84 688.5,111.5C 685.115,112.21 682.781,111.044 681.5,108C 682.781,104.956 685.115,103.79 688.5,104.5C 688.264,101.391 688.597,98.3915 689.5,95.5 Z"/></g>
<g><path style="opacity:0.945" fill="#ff8611" d="M 490.5,103.5 C 490.5,110.5 490.5,117.5 490.5,124.5C 488.95,125.441 487.284,126.107 485.5,126.5C 485.5,119.167 485.5,111.833 485.5,104.5C 487.042,103.699 488.708,103.366 490.5,103.5 Z"/></g>
<g><path style="opacity:0.943" fill="#ff8c13" d="M 490.5,103.5 C 491.833,103.5 493.167,103.5 494.5,103.5C 494.5,110.167 494.5,116.833 494.5,123.5C 493.292,124.234 491.959,124.567 490.5,124.5C 490.5,117.5 490.5,110.5 490.5,103.5 Z"/></g>
<g><path style="opacity:0.958" fill="#ff9215" d="M 494.5,103.5 C 496.167,103.5 497.833,103.5 499.5,103.5C 499.5,110.167 499.5,116.833 499.5,123.5C 497.833,123.5 496.167,123.5 494.5,123.5C 494.5,116.833 494.5,110.167 494.5,103.5 Z"/></g>
<g><path style="opacity:0.937" fill="#ff9916" d="M 499.5,103.5 C 501.292,103.366 502.958,103.699 504.5,104.5C 504.5,111.167 504.5,117.833 504.5,124.5C 502.784,124.371 501.117,124.038 499.5,123.5C 499.5,116.833 499.5,110.167 499.5,103.5 Z"/></g>
<g><path style="opacity:0.941" fill="#fe3e00" d="M 389.5,104.5 C 394.179,104.334 398.845,104.501 403.5,105C 405.329,105.273 406.829,106.107 408,107.5C 408.833,171.503 408.667,235.503 407.5,299.5C 401.68,301.522 395.68,302.022 389.5,301C 387.671,300.727 386.171,299.893 385,298.5C 384.333,234.833 384.333,171.167 385,107.5C 386.409,106.219 387.909,105.219 389.5,104.5 Z"/></g>
<g><path style="opacity:0.951" fill="#ff7f10" d="M 485.5,104.5 C 485.5,111.833 485.5,119.167 485.5,126.5C 483.733,128.938 482.399,131.605 481.5,134.5C 480.506,125.014 480.173,115.348 480.5,105.5C 482.117,104.962 483.784,104.629 485.5,104.5 Z"/></g>
<g><path style="opacity:0.934" fill="#ff9f18" d="M 504.5,104.5 C 505.959,104.433 507.292,104.766 508.5,105.5C 508.5,112.167 508.5,118.833 508.5,125.5C 507.041,125.567 505.708,125.234 504.5,124.5C 504.5,117.833 504.5,111.167 504.5,104.5 Z"/></g>
<g><path style="opacity:0.841" fill="#feae1b" d="M 541.5,104.5 C 546.267,104.191 550.934,104.691 555.5,106C 558.933,108.621 559.266,111.454 556.5,114.5C 545.491,106.943 539.491,109.776 538.5,123C 537.557,129.942 540.39,134.109 547,135.5C 551.025,134.564 554.858,133.23 558.5,131.5C 559.536,136.624 557.536,139.79 552.5,141C 542.806,143.902 535.973,140.735 532,131.5C 531.333,126.167 531.333,120.833 532,115.5C 533.599,110.406 536.766,106.739 541.5,104.5 Z"/></g>
<g><path style="opacity:0.839" fill="#feae1b" d="M 566.5,104.5 C 570.162,103.637 572.328,104.97 573,108.5C 576.447,104.601 580.614,103.601 585.5,105.5C 586.854,108.067 586.52,110.401 584.5,112.5C 578.982,110.177 575.149,111.844 573,117.5C 572.5,125.493 572.334,133.493 572.5,141.5C 570.167,141.5 567.833,141.5 565.5,141.5C 565.187,129.087 565.521,116.753 566.5,104.5 Z"/></g>
<g><path style="opacity:0.846" fill="#feae1b" d="M 600.5,104.5 C 614.802,102.969 621.302,109.303 620,123.5C 612.253,124.482 604.42,124.815 596.5,124.5C 595.886,132.055 599.386,136.055 607,136.5C 611.216,135.558 615.383,134.558 619.5,133.5C 619.896,136.044 619.229,138.211 617.5,140C 598.37,146.178 588.87,139.345 589,119.5C 589.727,111.958 593.561,106.958 600.5,104.5 Z M 601.5,110.5 C 608.979,108.988 612.979,111.988 613.5,119.5C 607.833,119.5 602.167,119.5 596.5,119.5C 596.498,115.454 598.164,112.454 601.5,110.5 Z"/></g>
<g><path style="opacity:0.752" fill="#feae1b" d="M 670.5,104.5 C 672.467,104.261 674.301,104.594 676,105.5C 676.667,117.167 676.667,128.833 676,140.5C 673.667,141.833 671.333,141.833 669,140.5C 668.833,134.667 668.667,128.833 668.5,123C 668.543,116.593 669.21,110.426 670.5,104.5 Z"/></g>
<g><path style="opacity:0.78" fill="#ff790e" d="M 480.5,105.5 C 480.173,115.348 480.506,125.014 481.5,134.5C 480.852,136.086 480.352,137.753 480,139.5C 479.819,148.411 479.319,157.245 478.5,166C 479.094,166.464 479.761,166.631 480.5,166.5C 480.5,173.167 480.5,179.833 480.5,186.5C 479.761,186.369 479.094,186.536 478.5,187C 479.663,223.762 479.829,260.595 479,297.5C 478.623,298.942 477.79,299.942 476.5,300.5C 476.5,236.167 476.5,171.833 476.5,107.5C 477.514,106.326 478.847,105.66 480.5,105.5 Z"/></g>
<g><path style="opacity:0.943" fill="#ffa519" d="M 508.5,105.5 C 510.553,105.402 512.22,106.069 513.5,107.5C 513.5,114.167 513.5,120.833 513.5,127.5C 511.597,127.204 509.93,126.537 508.5,125.5C 508.5,118.833 508.5,112.167 508.5,105.5 Z"/></g>
<g><path style="opacity:0.995" fill="#ff730d" d="M 476.5,107.5 C 476.5,171.833 476.5,236.167 476.5,300.5C 474.883,301.038 473.216,301.371 471.5,301.5C 471.5,237.5 471.5,173.5 471.5,109.5C 473.05,108.559 474.716,107.893 476.5,107.5 Z"/></g>
<g><path style="opacity:0.815" fill="#ffab1b" d="M 513.5,107.5 C 515.411,107.574 516.578,108.574 517,110.5C 519,115.833 519,121.167 517,126.5C 515.989,127.337 514.822,127.67 513.5,127.5C 513.5,120.833 513.5,114.167 513.5,107.5 Z"/></g>
<g><path style="opacity:0.993" fill="#ff6d0b" d="M 471.5,109.5 C 471.5,173.5 471.5,237.5 471.5,301.5C 470.167,301.5 468.833,301.5 467.5,301.5C 467.5,238.833 467.5,176.167 467.5,113.5C 468.5,111.833 469.833,110.5 471.5,109.5 Z"/></g>
<g><path style="opacity:0.993" fill="#ff670a" d="M 467.5,113.5 C 467.5,176.167 467.5,238.833 467.5,301.5C 465.5,301.5 463.5,301.5 461.5,301.5C 461.517,240.959 461.517,180.625 461.5,120.5C 462.8,117.568 464.8,115.234 467.5,113.5 Z"/></g>
<g><path style="opacity:0.955" fill="#fe3e00" d="M 154.5,115.5 C 169.619,114.464 183.952,117.297 197.5,124C 199.96,125.458 202.127,127.291 204,129.5C 204.667,135.5 204.667,141.5 204,147.5C 203.196,148.804 202.029,149.471 200.5,149.5C 192.222,144.862 183.555,141.029 174.5,138C 163.678,135.644 153.345,136.978 143.5,142C 135.284,148.984 132.451,157.817 135,168.5C 137.326,174.821 141.16,179.987 146.5,184C 160.918,192.07 175.584,199.737 190.5,207C 213.889,223.012 220.722,244.512 211,271.5C 202.485,288.846 188.652,299.013 169.5,302C 158.833,302.667 148.167,302.667 137.5,302C 135.899,301.727 134.399,301.227 133,300.5C 132.333,292.833 132.333,285.167 133,277.5C 146.413,282.609 159.913,282.775 173.5,278C 183.744,272.41 189.077,263.743 189.5,252C 188.807,242.281 184.474,234.614 176.5,229C 162.958,221.729 149.292,214.729 135.5,208C 107.3,188.914 101.467,164.414 118,134.5C 127.903,123.707 140.07,117.374 154.5,115.5 Z"/></g>
<g><path style="opacity:0.986" fill="#ff6008" d="M 461.5,120.5 C 461.517,180.625 461.517,240.959 461.5,301.5C 459.847,301.34 458.514,300.674 457.5,299.5C 457.5,244.167 457.5,188.833 457.5,133.5C 458.032,128.905 459.365,124.571 461.5,120.5 Z"/></g>
<g><path style="opacity:0.884" fill="#ff5b07" d="M 457.5,133.5 C 457.5,188.833 457.5,244.167 457.5,299.5C 456.167,261.833 454.833,224.167 453.5,186.5C 453.5,179.833 453.5,173.167 453.5,166.5C 454.987,155.66 456.321,144.66 457.5,133.5 Z"/></g>
<g><path style="opacity:0.951" fill="#fe3e00" d="M 288.5,163.5 C 317.135,160.718 336.969,172.385 348,198.5C 351.13,209.645 352.13,220.978 351,232.5C 349.878,234.624 348.378,236.457 346.5,238C 318.169,238.5 289.835,238.667 261.5,238.5C 260.838,272.003 277.171,286.837 310.5,283C 321.441,281.241 331.941,278.075 342,273.5C 344.44,274.274 345.773,275.94 346,278.5C 346.696,282.905 346.363,287.239 345,291.5C 343.269,293.617 341.102,295.117 338.5,296C 320.34,302.224 301.673,304.224 282.5,302C 256.127,295.957 241.293,279.457 238,252.5C 233.55,228.051 237.883,205.384 251,184.5C 260.877,172.649 273.377,165.649 288.5,163.5 Z M 293.5,182.5 C 317.228,183.904 328.561,196.571 327.5,220.5C 305.5,220.5 283.5,220.5 261.5,220.5C 261.93,198.869 272.597,186.203 293.5,182.5 Z"/></g>
<g><path style="opacity:0.953" fill="#feae1b" d="M 643.5,163.5 C 677.287,161.291 697.787,176.624 705,209.5C 705.667,217.833 705.667,226.167 705,234.5C 703.786,236.049 702.286,237.215 700.5,238C 672.169,238.5 643.835,238.667 615.5,238.5C 616.669,275.146 635.336,289.646 671.5,282C 679.819,279.893 687.986,277.393 696,274.5C 697.658,274.675 698.991,275.342 700,276.5C 700.667,281.167 700.667,285.833 700,290.5C 697.517,293.505 694.35,295.672 690.5,297C 684.362,299.412 678.028,301.079 671.5,302C 619.242,309.563 592.575,287.063 591.5,234.5C 590.214,210.153 598.547,189.987 616.5,174C 624.876,168.602 633.876,165.102 643.5,163.5 Z M 648.5,182.5 C 672.011,184.02 683.344,196.687 682.5,220.5C 660.157,220.833 637.823,220.5 615.5,219.5C 617.206,198.478 628.206,186.145 648.5,182.5 Z"/></g>
<g><path style="opacity:0.943" fill="#feae1b" d="M 541.5,165.5 C 545.182,165.335 548.848,165.501 552.5,166C 554.676,166.163 556.509,166.996 558,168.5C 558.667,212.167 558.667,255.833 558,299.5C 550.93,301.97 543.763,302.136 536.5,300C 535.874,299.25 535.374,298.416 535,297.5C 534.333,254.833 534.333,212.167 535,169.5C 536.748,167.372 538.915,166.039 541.5,165.5 Z"/></g>
<g><path style="opacity:0.926" fill="#ff4000" d="M 438.5,166.5 C 438.5,173.167 438.5,179.833 438.5,186.5C 434.243,184.655 432.576,181.321 433.5,176.5C 433.507,173.408 434.007,170.408 435,167.5C 436.011,166.663 437.178,166.33 438.5,166.5 Z"/></g>
<g><path style="opacity:0.959" fill="#ff4702" d="M 438.5,166.5 C 440.167,166.5 441.833,166.5 443.5,166.5C 443.5,173.167 443.5,179.833 443.5,186.5C 441.833,186.5 440.167,186.5 438.5,186.5C 438.5,179.833 438.5,173.167 438.5,166.5 Z"/></g>
<g><path style="opacity:0.959" fill="#ff4e03" d="M 443.5,166.5 C 445.167,166.5 446.833,166.5 448.5,166.5C 448.5,173.167 448.5,179.833 448.5,186.5C 446.833,186.5 445.167,186.5 443.5,186.5C 443.5,179.833 443.5,173.167 443.5,166.5 Z"/></g>
<g><path style="opacity:0.959" fill="#ff5405" d="M 448.5,166.5 C 450.167,166.5 451.833,166.5 453.5,166.5C 453.5,173.167 453.5,179.833 453.5,186.5C 451.833,186.5 450.167,186.5 448.5,186.5C 448.5,179.833 448.5,173.167 448.5,166.5 Z"/></g>
<g><path style="opacity:0.959" fill="#ff7f10" d="M 480.5,166.5 C 482.167,166.5 483.833,166.5 485.5,166.5C 485.5,173.167 485.5,179.833 485.5,186.5C 483.833,186.5 482.167,186.5 480.5,186.5C 480.5,179.833 480.5,173.167 480.5,166.5 Z"/></g>
<g><path style="opacity:0.959" fill="#ff8611" d="M 485.5,166.5 C 487.167,166.5 488.833,166.5 490.5,166.5C 490.5,173.167 490.5,179.833 490.5,186.5C 488.833,186.5 487.167,186.5 485.5,186.5C 485.5,179.833 485.5,173.167 485.5,166.5 Z"/></g>
<g><path style="opacity:0.959" fill="#ff8c13" d="M 490.5,166.5 C 491.833,166.5 493.167,166.5 494.5,166.5C 494.5,173.167 494.5,179.833 494.5,186.5C 493.167,186.5 491.833,186.5 490.5,186.5C 490.5,179.833 490.5,173.167 490.5,166.5 Z"/></g>
<g><path style="opacity:0.959" fill="#ff9215" d="M 494.5,166.5 C 496.167,166.5 497.833,166.5 499.5,166.5C 499.5,173.167 499.5,179.833 499.5,186.5C 497.833,186.5 496.167,186.5 494.5,186.5C 494.5,179.833 494.5,173.167 494.5,166.5 Z"/></g>
<g><path style="opacity:0.959" fill="#ff9916" d="M 499.5,166.5 C 501.167,166.5 502.833,166.5 504.5,166.5C 504.5,173.167 504.5,179.833 504.5,186.5C 502.833,186.5 501.167,186.5 499.5,186.5C 499.5,179.833 499.5,173.167 499.5,166.5 Z"/></g>
<g><path style="opacity:0.957" fill="#ff9f18" d="M 504.5,166.5 C 506.099,166.232 507.432,166.566 508.5,167.5C 508.5,173.5 508.5,179.5 508.5,185.5C 507.432,186.434 506.099,186.768 504.5,186.5C 504.5,179.833 504.5,173.167 504.5,166.5 Z"/></g>
<g><path style="opacity:0.697" fill="#ffa319" d="M 508.5,167.5 C 511.808,172.796 512.308,178.462 510,184.5C 509.617,185.056 509.117,185.389 508.5,185.5C 508.5,179.5 508.5,173.5 508.5,167.5 Z"/></g>
<g><path style="opacity:0.945" fill="#fe3e00" d="M 99.5,216.5 C 112.967,215.232 120.967,221.232 123.5,234.5C 119.302,251.433 109.302,256.266 93.5,249C 85.7664,241.397 84.5997,232.897 90,223.5C 92.529,220.115 95.6956,217.782 99.5,216.5 Z"/></g>
<g><path style="opacity:0.94" fill="#fe3e00" d="M 103.5,265.5 C 115.357,266.357 122.024,272.69 123.5,284.5C 119.328,301.419 109.328,306.253 93.5,299C 83.9279,288.705 84.2613,278.705 94.5,269C 97.4588,267.396 100.459,266.229 103.5,265.5 Z"/></g>
</svg>
