<?xml version="1.0" encoding="UTF-8"?> <svg xmlns="http://www.w3.org/2000/svg" width="323" height="180" viewBox="0 0 323 180" fill="none"><rect width="323" height="178.582" transform="translate(0 0.581726)" fill="white"></rect><path d="M214.552 70.8013C211.386 70.8013 209.429 69.0992 209.429 66.1082V62.0717C209.429 59.1051 211.386 57.403 214.552 57.403C217.862 57.403 219.761 59.1051 219.848 62.0717H217.056C216.969 60.4425 216.135 59.6644 214.581 59.6644C213.113 59.6644 212.25 60.4425 212.25 62.0717V66.1082C212.25 67.7374 213.113 68.5399 214.581 68.5399C216.135 68.5399 216.998 67.7374 217.085 66.1082H219.876C219.79 69.0992 217.775 70.8013 214.552 70.8013Z" fill="#FFAF15"></path><path d="M227.848 57.4942C228.481 57.4942 228.999 57.5428 229.431 57.6887V60.0231C228.884 59.8285 228.309 59.7313 227.56 59.7313C225.661 59.7313 224.452 60.8498 224.452 62.9167V70.6007H221.661V57.786H223.647L223.963 59.3422C224.769 58.175 226.064 57.4942 227.848 57.4942Z" fill="#FFAF15"></path><path d="M238.671 66.5216H241.492C241.204 69.245 239.276 70.8013 236.052 70.8013C232.886 70.8013 230.901 69.0505 230.901 65.9867V62.169C230.901 59.1295 232.915 57.403 236.109 57.403C239.391 57.403 241.434 59.1295 241.434 62.169V65.014H233.692V65.9867C233.692 67.7374 234.584 68.5399 236.109 68.5399C237.751 68.5399 238.441 67.9076 238.671 66.5216ZM236.138 59.6158C234.613 59.6158 233.692 60.3939 233.692 62.1447V63.2389H238.671V62.1447C238.671 60.3939 237.751 59.6158 236.138 59.6158Z" fill="#FFAF15"></path><path d="M252.331 52H255.036V70.5338H253.022L252.82 69.3423C252.072 70.1691 250.777 70.8256 249.395 70.8256C246.547 70.8256 244.589 68.9775 244.589 65.8407V62.3148C244.589 59.2267 246.46 57.4029 249.395 57.4029C250.489 57.4029 251.583 57.792 252.331 58.4486V52ZM252.331 65.865V62.3148C252.331 60.6614 251.381 59.64 249.856 59.64C248.245 59.64 247.409 60.4668 247.409 62.3148V65.8407C247.409 67.7374 248.33 68.5885 249.856 68.5885C251.295 68.5885 252.331 67.7131 252.331 65.865Z" fill="#FFAF15"></path><path d="M260.124 55.5792C259.088 55.5792 258.369 54.947 258.369 54.0959C258.369 53.2205 259.088 52.5883 260.124 52.5883C261.16 52.5883 261.909 53.2205 261.909 54.0959C261.909 54.9226 261.16 55.5792 260.124 55.5792ZM258.742 70.5338V57.719H261.534V70.5338H258.742Z" fill="#FFAF15"></path><path d="M270.869 68.4668H271.79V70.6796H270.725C267.703 70.6796 265.919 69.0504 265.919 66.3999V59.8588H263.789V57.719H265.919V54.6794H268.681V57.719H271.502V59.8588H268.681V66.4243C268.681 67.8103 269.372 68.4668 270.869 68.4668Z" fill="#FFAF15"></path><path d="M77.1095 126.848C71.4731 126.848 66.7667 126.259 66.7667 126.259V118.317C70.2965 119.199 70.8819 119.494 76.7678 119.494C82.6537 119.494 87.0628 114.414 87.0628 109.331C87.0628 95.4641 58.2363 97.4327 58.2363 77.022C58.2363 67.8555 64.4135 60.6638 77.0145 60.6638C80.0382 60.6638 83.7364 60.0897 92.0494 64.6128C92.2373 64.7152 92.3579 64.915 92.3579 65.1293V71.7721C92.3579 72.2094 91.8952 72.4929 91.5034 72.2985C83.977 68.5649 81.9589 68.0176 77.0145 68.0176C71.6033 68.0176 67.355 72.4841 67.355 77.022C67.355 89.4557 97.6523 88.6079 96.4757 109.331C95.9411 118.755 89.5456 126.848 77.1095 126.848Z" fill="url(#paint0_linear_6317_21334)"></path><path fill-rule="evenodd" clip-rule="evenodd" d="M108.064 86.3524C111.302 81.202 116.894 77.1362 125.597 77.1362C134.077 77.1362 139.473 80.9911 142.395 86.1676C145.148 91.0462 145.52 96.733 145.051 100.625C144.775 102.924 142.817 104.492 140.68 104.492H111.949C112.226 107.357 112.886 110.469 114.304 113.142C116.218 116.748 119.625 119.82 126.547 120.082C128.052 120.078 132.257 119.932 139.16 117.128C141.116 116.333 143.347 117.275 144.142 119.231C144.937 121.188 143.995 123.418 142.039 124.213C133.987 127.484 128.762 127.73 126.48 127.73H126.413L126.346 127.728C116.546 127.384 110.703 122.669 107.549 116.727C104.564 111.103 104.125 104.67 104.125 100.668C104.125 96.9742 104.974 91.2688 108.064 86.3524ZM112.141 96.844H137.557C137.455 94.5562 136.924 92.0332 135.734 89.9266C134.183 87.1774 131.346 84.784 125.597 84.784C119.71 84.784 116.479 87.3364 114.539 90.4222C113.282 92.4226 112.535 94.7236 112.141 96.844Z" fill="url(#paint1_linear_6317_21334)"></path><path fill-rule="evenodd" clip-rule="evenodd" d="M234.842 86.3524C238.08 81.202 243.672 77.1362 252.375 77.1362C260.855 77.1362 266.251 80.9911 269.172 86.1676C271.926 91.0462 272.297 96.733 271.829 100.625C271.552 102.924 269.594 104.492 267.458 104.492H238.727C239.004 107.357 239.664 110.469 241.082 113.142C242.996 116.748 246.403 119.82 253.325 120.082C254.83 120.078 259.035 119.932 265.938 117.128C267.894 116.333 270.124 117.275 270.92 119.231C271.715 121.188 270.772 123.418 268.816 124.213C260.764 127.484 255.54 127.73 253.258 127.73H253.191L253.123 127.728C243.324 127.384 237.481 122.669 234.327 116.727C231.342 111.103 230.902 104.67 230.902 100.668C230.902 96.9742 231.751 91.2688 234.842 86.3524ZM238.918 96.844H264.334C264.232 94.5562 263.701 92.0332 262.512 89.9266C260.96 87.1774 258.124 84.784 252.375 84.784C246.488 84.784 243.256 87.3364 241.317 90.4222C240.06 92.4226 239.313 94.7236 238.918 96.844Z" fill="url(#paint2_linear_6317_21334)"></path><path d="M157.07 57.3057V125.925C160.731 127.596 164.479 126.621 165.895 125.925V57.3057C162.235 55.3963 158.486 56.5101 157.07 57.3057Z" fill="url(#paint3_linear_6317_21334)"></path><path d="M210.605 79.3186V125.636C214.266 126.764 218.014 126.107 219.43 125.636V79.3186C215.77 78.0297 212.022 78.7816 210.605 79.3186Z" fill="url(#paint4_linear_6317_21334)"></path><path d="M182.367 85.3726V125.637C186.028 126.764 189.775 126.107 191.192 125.637V85.3726H201.487C201.977 84.196 202.664 81.2542 201.487 78.9011H191.192V71.8415C191.094 67.6253 193.251 60.2519 202.664 64.4877C203.056 64.6838 204.193 64.8407 204.428 63.8994V58.8989C203.938 57.8203 200.957 55.5455 194.133 56.2515C187.309 56.9574 183.838 62.4287 183.25 64.7819C182.759 66.1545 182.367 70.6649 182.367 78.9011H175.307C174.817 80.1757 174.131 83.2546 175.307 85.3726H182.367Z" fill="url(#paint5_linear_6317_21334)"></path><path d="M63.5309 103.022C63.5309 106.758 60.502 109.787 56.7654 109.787C53.029 109.787 50 106.758 50 103.022C50 99.2848 53.029 96.256 56.7654 96.256C60.502 96.256 63.5309 99.2848 63.5309 103.022Z" fill="url(#paint6_linear_6317_21334)"></path><path d="M63.5309 120.671C63.5309 124.407 60.502 127.436 56.7654 127.436C53.029 127.436 50 124.407 50 120.671C50 116.934 53.029 113.905 56.7654 113.905C60.502 113.905 63.5309 116.934 63.5309 120.671Z" fill="url(#paint7_linear_6317_21334)"></path><defs><linearGradient id="paint0_linear_6317_21334" x1="50.0001" y1="92.0045" x2="271.79" y2="92.0045" gradientUnits="userSpaceOnUse"><stop offset="0.4375" stop-color="#FF3C00"></stop><stop offset="0.807292" stop-color="#FFAF15"></stop></linearGradient><linearGradient id="paint1_linear_6317_21334" x1="50.0007" y1="92.0044" x2="271.79" y2="92.0044" gradientUnits="userSpaceOnUse"><stop offset="0.4375" stop-color="#FF3C00"></stop><stop offset="0.807292" stop-color="#FFAF15"></stop></linearGradient><linearGradient id="paint2_linear_6317_21334" x1="49.9993" y1="92.0044" x2="271.789" y2="92.0044" gradientUnits="userSpaceOnUse"><stop offset="0.4375" stop-color="#FF3C00"></stop><stop offset="0.807292" stop-color="#FFAF15"></stop></linearGradient><linearGradient id="paint3_linear_6317_21334" x1="49.9993" y1="92.0043" x2="271.789" y2="92.0043" gradientUnits="userSpaceOnUse"><stop offset="0.4375" stop-color="#FF3C00"></stop><stop offset="0.807292" stop-color="#FFAF15"></stop></linearGradient><linearGradient id="paint4_linear_6317_21334" x1="49.9992" y1="92.0044" x2="271.789" y2="92.0044" gradientUnits="userSpaceOnUse"><stop offset="0.4375" stop-color="#FF3C00"></stop><stop offset="0.807292" stop-color="#FFAF15"></stop></linearGradient><linearGradient id="paint5_linear_6317_21334" x1="49.9992" y1="92.0044" x2="271.789" y2="92.0044" gradientUnits="userSpaceOnUse"><stop offset="0.4375" stop-color="#FF3C00"></stop><stop offset="0.807292" stop-color="#FFAF15"></stop></linearGradient><linearGradient id="paint6_linear_6317_21334" x1="50" y1="92.0044" x2="271.79" y2="92.0044" gradientUnits="userSpaceOnUse"><stop offset="0.4375" stop-color="#FF3C00"></stop><stop offset="0.807292" stop-color="#FFAF15"></stop></linearGradient><linearGradient id="paint7_linear_6317_21334" x1="50" y1="92.0045" x2="271.79" y2="92.0045" gradientUnits="userSpaceOnUse"><stop offset="0.4375" stop-color="#FF3C00"></stop><stop offset="0.807292" stop-color="#FFAF15"></stop></linearGradient></defs></svg> 