<?xml version="1.0" encoding="UTF-8"?>
<!DOCTYPE svg PUBLIC "-//W3C//DTD SVG 1.1//EN" "http://www.w3.org/Graphics/SVG/1.1/DTD/svg11.dtd">
<svg xmlns="http://www.w3.org/2000/svg" version="1.1" width="500px" height="125px" style="shape-rendering:geometricPrecision; text-rendering:geometricPrecision; image-rendering:optimizeQuality; fill-rule:evenodd; clip-rule:evenodd" xmlns:xlink="http://www.w3.org/1999/xlink">
<g><path style="opacity:0.747" fill="#145b38" d="M 71.5,19.5 C 57.1375,19.2358 42.8042,19.5692 28.5,20.5C 30.1484,19.0735 32.1484,18.2401 34.5,18C 45.1667,17.3333 55.8333,17.3333 66.5,18C 68.3817,18.1981 70.0484,18.6981 71.5,19.5 Z"/></g>
<g><path style="opacity:1" fill="#0aac60" d="M 71.5,19.5 C 71.3893,20.1174 71.056,20.6174 70.5,21C 72.5183,21.5046 74.5183,22.0046 76.5,22.5C 76.427,24.0269 77.0937,25.0269 78.5,25.5C 79.1667,25.5 79.5,25.8333 79.5,26.5C 80.1621,30.4659 80.4955,34.4659 80.5,38.5C 79.5013,41.9961 77.168,44.9961 73.5,47.5C 72.5,47.8333 71.8333,48.5 71.5,49.5C 71.1667,49.5 70.8333,49.5 70.5,49.5C 57.5753,48.3537 44.5753,48.187 31.5,49C 27.3619,50.9779 24.0286,53.8112 21.5,57.5C 21.2145,47.1148 21.5478,36.7815 22.5,26.5C 22.3284,25.5084 22.6618,24.8417 23.5,24.5C 24.5,24.1667 25.1667,23.5 25.5,22.5C 25.9731,21.0937 26.9731,20.427 28.5,20.5C 42.8042,19.5692 57.1375,19.2358 71.5,19.5 Z"/></g>
<g><path style="opacity:0.994" fill="#126d42" d="M 71.5,19.5 C 73.674,19.7497 75.3406,20.7497 76.5,22.5C 74.5183,22.0046 72.5183,21.5046 70.5,21C 71.056,20.6174 71.3893,20.1174 71.5,19.5 Z"/></g>
<g><path style="opacity:0.031" fill="#031412" d="M 25.5,22.5 C 25.1667,23.5 24.5,24.1667 23.5,24.5C 23.5,23.1667 24.1667,22.5 25.5,22.5 Z"/></g>
<g><path style="opacity:0.396" fill="#114931" d="M 76.5,22.5 C 77.9063,22.9731 78.573,23.9731 78.5,25.5C 77.0937,25.0269 76.427,24.0269 76.5,22.5 Z"/></g>
<g><path style="opacity:0.129" fill="#0c261c" d="M 79.5,26.5 C 80.9256,28.6789 81.5922,31.1789 81.5,34C 81.4915,35.7067 81.1582,37.2067 80.5,38.5C 80.4955,34.4659 80.1621,30.4659 79.5,26.5 Z"/></g>
<g><path style="opacity:1" fill="#10615b" d="M 185.5,38.5 C 184.502,43.1641 182.502,47.1641 179.5,50.5C 172.556,52.1055 168.223,49.2721 166.5,42C 168.839,32.2215 174.506,29.5548 183.5,34C 184.582,35.3297 185.249,36.8297 185.5,38.5 Z"/></g>
<g><path style="opacity:0.315" fill="#0f5331" d="M 22.5,26.5 C 21.5478,36.7815 21.2145,47.1148 21.5,57.5C 21.5,58.8333 21.5,60.1667 21.5,61.5C 21.1667,61.5 20.8333,61.5 20.5,61.5C 20.744,52.6403 20.4107,44.1403 19.5,36C 20.2822,33.2595 20.7822,30.4262 21,27.5C 21.3826,26.944 21.8826,26.6107 22.5,26.5 Z"/></g>
<g><path style="opacity:0.232" fill="#09312c" d="M 125.5,36.5 C 137.322,35.5049 149.322,35.1716 161.5,35.5C 161.768,37.099 161.434,38.4324 160.5,39.5C 160.5,38.5 160.5,37.5 160.5,36.5C 148.833,36.5 137.167,36.5 125.5,36.5 Z"/></g>
<g><path style="opacity:0.509" fill="#123833" d="M 424.5,55.5 C 424.149,48.9347 423.149,42.6014 421.5,36.5C 423.477,33.8849 424.81,34.3849 425.5,38C 425.652,44.1816 425.319,50.015 424.5,55.5 Z"/></g>
<g><path style="opacity:1" fill="#106761" d="M 125.5,36.5 C 137.167,36.5 148.833,36.5 160.5,36.5C 160.5,37.5 160.5,38.5 160.5,39.5C 160.743,42.8826 160.076,46.0492 158.5,49C 151.167,49.3333 143.833,49.6667 136.5,50C 133.771,50.5661 131.771,52.0661 130.5,54.5C 129.517,58.2984 129.183,62.2984 129.5,66.5C 137.833,66.5 146.167,66.5 154.5,66.5C 155.148,67.9794 155.481,69.4794 155.5,71C 154.915,72.3024 154.249,73.469 153.5,74.5C 152.566,75.5676 152.232,76.901 152.5,78.5C 144.833,78.5 137.167,78.5 129.5,78.5C 129.5,82.8333 129.5,87.1667 129.5,91.5C 129.5,92.1667 129.5,92.8333 129.5,93.5C 128.515,97.6344 128.182,101.968 128.5,106.5C 124.5,106.5 120.5,106.5 116.5,106.5C 116.5,85.8333 116.5,65.1667 116.5,44.5C 118.233,40.4351 121.233,37.7684 125.5,36.5 Z"/></g>
<g><path style="opacity:0.639" fill="#10453e" d="M 252.5,35.5 C 256.634,34.5151 260.968,34.1818 265.5,34.5C 265.888,41.3636 265.888,48.3636 265.5,55.5C 266.005,56.9185 267.005,57.5852 268.5,57.5C 267.855,58.8118 266.855,59.8118 265.5,60.5C 264.502,52.1932 264.169,43.8599 264.5,35.5C 260.5,35.5 256.5,35.5 252.5,35.5 Z"/></g>
<g><path style="opacity:1" fill="#0f3d37" d="M 185.5,38.5 C 187.309,42.9205 186.309,46.7539 182.5,50C 181.552,50.4828 180.552,50.6495 179.5,50.5C 182.502,47.1641 184.502,43.1641 185.5,38.5 Z"/></g>
<g><path style="opacity:1" fill="#10645d" d="M 421.5,36.5 C 423.149,42.6014 424.149,48.9347 424.5,55.5C 428.846,55.3343 433.179,55.501 437.5,56C 438.82,59.6013 438.82,63.1013 437.5,66.5C 432.833,66.5 428.167,66.5 423.5,66.5C 423.174,75.0168 423.507,83.3501 424.5,91.5C 425.143,93.0764 426.143,94.4097 427.5,95.5C 429.321,97.8575 431.655,98.1908 434.5,96.5C 436.663,102.834 434.496,106.501 428,107.5C 424.731,106.707 421.564,105.707 418.5,104.5C 418.798,100.347 416.798,98.347 412.5,98.5C 411.691,96.7078 411.191,94.7078 411,92.5C 410.333,75.8333 410.333,59.1667 411,42.5C 414.311,40.0969 417.811,38.0969 421.5,36.5 Z"/></g>
<g><path style="opacity:0.004" fill="#021512" d="M 73.5,47.5 C 73.5,48.1667 73.5,48.8333 73.5,49.5C 72.8333,49.5 72.1667,49.5 71.5,49.5C 71.8333,48.5 72.5,47.8333 73.5,47.5 Z"/></g>
<g><path style="opacity:0.317" fill="#0f433e" d="M 116.5,44.5 C 116.5,65.1667 116.5,85.8333 116.5,106.5C 120.5,106.5 124.5,106.5 128.5,106.5C 128.182,101.968 128.515,97.6344 129.5,93.5C 129.467,97.9204 129.633,102.254 130,106.5C 128.559,107.26 127.059,107.926 125.5,108.5C 122.073,107.953 118.739,107.62 115.5,107.5C 115.169,86.3267 115.503,65.3267 116.5,44.5 Z"/></g>
<g><path style="opacity:1" fill="#78c9a1" d="M 70.5,49.5 C 61.6718,59.1614 52.3385,68.328 42.5,77C 32.4569,80.3088 25.4569,77.1422 21.5,67.5C 21.5,65.5 21.5,63.5 21.5,61.5C 21.5,60.1667 21.5,58.8333 21.5,57.5C 24.0286,53.8112 27.3619,50.9779 31.5,49C 44.5753,48.187 57.5753,48.3537 70.5,49.5 Z"/></g>
<g><path style="opacity:0.847" fill="#537846" d="M 75.5,51.5 C 77.5869,52.5846 78.9202,54.2512 79.5,56.5C 77.4131,55.4154 76.0798,53.7488 75.5,51.5 Z"/></g>
<g><path style="opacity:0.771" fill="#11413b" d="M 214.5,57.5 C 212.854,59.8122 210.854,61.8122 208.5,63.5C 207.526,61.2573 207.192,58.924 207.5,56.5C 203.833,56.5 200.167,56.5 196.5,56.5C 196.5,73.1667 196.5,89.8333 196.5,106.5C 198.099,106.232 199.432,106.566 200.5,107.5C 199.194,107.879 197.861,108.212 196.5,108.5C 195.719,107.271 195.219,105.938 195,104.5C 194.785,86.9766 194.952,70.6433 195.5,55.5C 199.833,55.5 204.167,55.5 208.5,55.5C 209.256,57.6133 209.423,59.6133 209,61.5C 210.451,59.5359 212.284,58.2026 214.5,57.5 Z"/></g>
<g><path style="opacity:1" fill="#106761" d="M 239.5,64.5 C 239.5,78.5 239.5,92.5 239.5,106.5C 235.5,106.5 231.5,106.5 227.5,106.5C 227.829,93.9887 227.495,81.6554 226.5,69.5C 220.784,64.6843 215.951,65.6843 212,72.5C 210.573,74.7053 210.073,76.8719 210.5,79C 209.711,81.267 209.044,83.6003 208.5,86C 209.942,93.5442 209.775,101.044 208,108.5C 205.859,107.925 203.359,107.592 200.5,107.5C 199.432,106.566 198.099,106.232 196.5,106.5C 196.5,89.8333 196.5,73.1667 196.5,56.5C 200.167,56.5 203.833,56.5 207.5,56.5C 207.192,58.924 207.526,61.2573 208.5,63.5C 210.854,61.8122 212.854,59.8122 214.5,57.5C 215.6,56.4415 216.934,55.6082 218.5,55C 226.181,52.9993 232.681,54.8327 238,60.5C 238.791,61.745 239.291,63.0783 239.5,64.5 Z"/></g>
<g><path style="opacity:1" fill="#10625c" d="M 252.5,35.5 C 256.5,35.5 260.5,35.5 264.5,35.5C 264.169,43.8599 264.502,52.1932 265.5,60.5C 266.855,59.8118 267.855,58.8118 268.5,57.5C 276.656,53.2776 284.656,53.7776 292.5,59C 298.916,65.0731 301.916,72.5731 301.5,81.5C 302.223,92.2192 297.889,100.719 288.5,107C 280.563,109.624 273.063,108.79 266,104.5C 265.536,105.094 265.369,105.761 265.5,106.5C 261.766,106.323 258.099,106.656 254.5,107.5C 253.5,107.5 252.5,107.5 251.5,107.5C 251.169,83.3275 251.502,59.3275 252.5,35.5 Z M 274.5,66.5 C 283.462,67.3886 287.462,72.3886 286.5,81.5C 287.02,93.1556 281.687,97.6556 270.5,95C 263.423,87.5776 262.59,79.4109 268,70.5C 270.013,68.7518 272.18,67.4185 274.5,66.5 Z"/></g>
<g><path style="opacity:1" fill="#10655f" d="M 356.5,75.5 C 356.5,78.8333 356.5,82.1667 356.5,85.5C 344.988,85.1719 333.654,85.5052 322.5,86.5C 325.165,95.0008 330.832,98.0008 339.5,95.5C 341.436,94.741 343.269,93.741 345,92.5C 347.184,95.4566 348.351,95.1233 348.5,91.5C 353.696,91.2283 355.196,93.2283 353,97.5C 352.275,95.842 351.108,95.342 349.5,96C 350.357,96.6891 351.023,97.5224 351.5,98.5C 350.471,98.2964 349.471,98.7964 348.5,100C 349.337,101.011 349.67,102.178 349.5,103.5C 338.422,110.328 327.422,110.161 316.5,103C 307.918,93.3771 305.918,82.7105 310.5,71C 310.167,70.6667 309.833,70.3333 309.5,70C 318.802,54.8899 331.469,51.2232 347.5,59C 352.995,63.157 355.995,68.657 356.5,75.5 Z M 329.5,67.5 C 336.695,65.9162 341.029,68.5829 342.5,75.5C 335.745,76.1229 329.412,75.4563 323.5,73.5C 325.167,71.1667 327.167,69.1667 329.5,67.5 Z"/></g>
<g><path style="opacity:1" fill="#106963" d="M 384.5,72.5 C 384.672,73.4916 384.338,74.1583 383.5,74.5C 381.87,76.0261 381.037,78.0261 381,80.5C 380.5,89.1603 380.334,97.8269 380.5,106.5C 376.5,106.5 372.5,106.5 368.5,106.5C 368.5,90.5 368.5,74.5 368.5,58.5C 371.833,58.5 375.167,58.5 378.5,58.5C 378.5,60.8333 378.5,63.1667 378.5,65.5C 380.331,66.0522 381.997,66.0522 383.5,65.5C 384.474,67.7427 384.808,70.076 384.5,72.5 Z"/></g>
<g><path style="opacity:0.999" fill="#105f58" d="M 401.5,55.5 C 400.992,59.7359 399.992,63.7359 398.5,67.5C 392.602,66.3018 387.935,67.9684 384.5,72.5C 384.808,70.076 384.474,67.7427 383.5,65.5C 381.997,66.0522 380.331,66.0522 378.5,65.5C 378.5,63.1667 378.5,60.8333 378.5,58.5C 375.167,58.5 371.833,58.5 368.5,58.5C 368.5,74.5 368.5,90.5 368.5,106.5C 372.5,106.5 376.5,106.5 380.5,106.5C 379.791,107.404 378.791,107.737 377.5,107.5C 374.167,107.5 370.833,107.5 367.5,107.5C 367.585,90.7952 367.252,73.9619 366.5,57C 371.309,55.5585 376.309,55.0585 381.5,55.5C 381.34,57.1992 381.506,58.8659 382,60.5C 387.593,54.7812 394.093,53.1146 401.5,55.5 Z"/></g>
<g><path style="opacity:0.537" fill="#0f332d" d="M 401.5,55.5 C 402.767,59.6249 402.1,63.9583 399.5,68.5C 398.893,68.3764 398.56,68.0431 398.5,67.5C 399.992,63.7359 400.992,59.7359 401.5,55.5 Z"/></g>
<g><path style="opacity:0.004" fill="#000806" d="M 130.5,54.5 C 130.5,58.1667 130.5,61.8333 130.5,65.5C 138.684,65.1743 146.684,65.5076 154.5,66.5C 146.167,66.5 137.833,66.5 129.5,66.5C 129.183,62.2984 129.517,58.2984 130.5,54.5 Z"/></g>
<g><path style="opacity:0.986" fill="#113732" d="M 329.5,67.5 C 327.167,69.1667 325.167,71.1667 323.5,73.5C 324.15,71.5648 324.483,69.5648 324.5,67.5C 326.167,67.5 327.833,67.5 329.5,67.5 Z"/></g>
<g><path style="opacity:0.505" fill="#123b36" d="M 437.5,66.5 C 437.189,67.4778 436.522,68.1445 435.5,68.5C 432.131,67.8185 428.631,67.8185 425,68.5C 424.618,75.4303 424.451,83.0969 424.5,91.5C 423.507,83.3501 423.174,75.0168 423.5,66.5C 428.167,66.5 432.833,66.5 437.5,66.5 Z"/></g>
<g><path style="opacity:0.303" fill="#4d6d3f" d="M 20.5,61.5 C 20.8333,61.5 21.1667,61.5 21.5,61.5C 21.5,63.5 21.5,65.5 21.5,67.5C 21.5,77.5 21.5,87.5 21.5,97.5C 20.8212,88.4317 20.1545,79.265 19.5,70C 19.9553,67.4497 20.2886,64.6163 20.5,61.5 Z"/></g>
<g><path style="opacity:0.231" fill="#0e3f39" d="M 239.5,64.5 C 240.175,78.2354 240.841,92.0687 241.5,106C 240.667,106.833 239.833,107.667 239,108.5C 235.186,107.553 231.186,107.219 227,107.5C 226.823,95.2577 226.323,83.091 225.5,71C 226.056,70.6174 226.389,70.1174 226.5,69.5C 227.495,81.6554 227.829,93.9887 227.5,106.5C 231.5,106.5 235.5,106.5 239.5,106.5C 239.5,92.5 239.5,78.5 239.5,64.5 Z"/></g>
<g><path style="opacity:0.993" fill="#648f4e" d="M 80.5,59.5 C 82.1266,64.4266 81.2933,69.0933 78,73.5C 74.583,76.762 71.083,79.762 67.5,82.5C 67.3398,80.8008 67.5065,79.1341 68,77.5C 68.6667,78.1667 69.3333,78.8333 70,79.5C 70.3333,77.5 70.6667,75.5 71,73.5C 72.0113,74.3366 73.1779,74.67 74.5,74.5C 75.164,71.9854 76.4974,69.8187 78.5,68C 78.1667,67.6667 77.8333,67.3333 77.5,67C 78.448,66.5172 79.448,66.3505 80.5,66.5C 80.5,64.1667 80.5,61.8333 80.5,59.5 Z"/></g>
<g><path style="opacity:0.61" fill="#123a34" d="M 169.5,55.5 C 174.167,55.5 178.833,55.5 183.5,55.5C 183.239,72.9927 183.572,89.9927 184.5,106.5C 184.192,107.308 183.692,107.975 183,108.5C 178.635,107.738 174.302,107.404 170,107.5C 169.5,90.1699 169.333,72.8365 169.5,55.5 Z"/></g>
<g><path style="opacity:1" fill="#0f6a63" d="M 170.5,56.5 C 174.5,56.5 178.5,56.5 182.5,56.5C 182.5,73.1667 182.5,89.8333 182.5,106.5C 178.5,106.5 174.5,106.5 170.5,106.5C 170.5,89.8333 170.5,73.1667 170.5,56.5 Z"/></g>
<g><path style="opacity:0.272" fill="#0d2e27" d="M 153.5,74.5 C 154.363,75.9403 154.363,77.2736 153.5,78.5C 152.009,79.2436 150.509,79.9103 149,80.5C 143.341,79.9174 137.175,79.5841 130.5,79.5C 130.817,83.7016 130.483,87.7016 129.5,91.5C 129.5,87.1667 129.5,82.8333 129.5,78.5C 137.167,78.5 144.833,78.5 152.5,78.5C 152.232,76.901 152.566,75.5676 153.5,74.5 Z"/></g>
<g><path style="opacity:0.234" fill="#0a352e" d="M 356.5,75.5 C 357.482,78.9619 357.815,82.6286 357.5,86.5C 345.833,86.5 334.167,86.5 322.5,86.5C 333.654,85.5052 344.988,85.1719 356.5,85.5C 356.5,82.1667 356.5,78.8333 356.5,75.5 Z"/></g>
<g><path style="opacity:1" fill="#567945" d="M 66.5,84.5 C 64.5,87.1667 62.1667,89.5 59.5,91.5C 59.5,90.1667 59.5,88.8333 59.5,87.5C 60.5,87.5 61.5,87.5 62.5,87.5C 62.5,86.5 62.5,85.5 62.5,84.5C 63.8333,84.5 65.1667,84.5 66.5,84.5 Z"/></g>
<g><path style="opacity:0.05" fill="#091a17" d="M 383.5,74.5 C 381.676,85.7253 381.009,97.0587 381.5,108.5C 379.901,108.768 378.568,108.434 377.5,107.5C 378.791,107.737 379.791,107.404 380.5,106.5C 380.334,97.8269 380.5,89.1603 381,80.5C 381.037,78.0261 381.87,76.0261 383.5,74.5 Z"/></g>
<g><path style="opacity:1" fill="#93d269" d="M 70.5,49.5 C 70.8333,49.5 71.1667,49.5 71.5,49.5C 72.1667,49.5 72.8333,49.5 73.5,49.5C 74.5,49.8333 75.1667,50.5 75.5,51.5C 76.0798,53.7488 77.4131,55.4154 79.5,56.5C 80.404,57.209 80.7373,58.209 80.5,59.5C 80.5,61.8333 80.5,64.1667 80.5,66.5C 79.448,66.3505 78.448,66.5172 77.5,67C 77.8333,67.3333 78.1667,67.6667 78.5,68C 76.4974,69.8187 75.164,71.9854 74.5,74.5C 73.1779,74.67 72.0113,74.3366 71,73.5C 70.6667,75.5 70.3333,77.5 70,79.5C 69.3333,78.8333 68.6667,78.1667 68,77.5C 67.5065,79.1341 67.3398,80.8008 67.5,82.5C 67.6716,83.4916 67.3382,84.1583 66.5,84.5C 65.1667,84.5 63.8333,84.5 62.5,84.5C 62.5,85.5 62.5,86.5 62.5,87.5C 61.5,87.5 60.5,87.5 59.5,87.5C 59.5,88.8333 59.5,90.1667 59.5,91.5C 57.5,94.1667 55.1667,96.5 52.5,98.5C 51.5,98.8333 50.8333,99.5 50.5,100.5C 49.1667,101.833 47.8333,103.167 46.5,104.5C 44.9731,104.427 43.9731,105.094 43.5,106.5C 39.3987,108.604 35.0654,108.937 30.5,107.5C 30.0269,106.094 29.0269,105.427 27.5,105.5C 26.1182,103.451 24.4516,101.785 22.5,100.5C 21.596,99.791 21.2627,98.791 21.5,97.5C 21.5,87.5 21.5,77.5 21.5,67.5C 25.4569,77.1422 32.4569,80.3088 42.5,77C 52.3385,68.328 61.6718,59.1614 70.5,49.5 Z"/></g>
<g><path style="opacity:1" fill="#114e47" d="M 349.5,103.5 C 349.67,102.178 349.337,101.011 348.5,100C 349.471,98.7964 350.471,98.2964 351.5,98.5C 351.023,97.5224 350.357,96.6891 349.5,96C 351.108,95.342 352.275,95.842 353,97.5C 355.196,93.2283 353.696,91.2283 348.5,91.5C 348.351,95.1233 347.184,95.4566 345,92.5C 343.269,93.741 341.436,94.741 339.5,95.5C 341.606,92.9454 343.94,90.6121 346.5,88.5C 350.477,89.8217 354.144,91.6551 357.5,94C 355.344,97.6507 352.678,100.817 349.5,103.5 Z"/></g>
<g><path style="opacity:1" fill="#0e9f59" d="M 469.5,93.5 C 469.664,96.1873 469.497,98.854 469,101.5C 468.107,100.289 467.274,100.289 466.5,101.5C 467.246,102.736 467.579,104.07 467.5,105.5C 467.158,106.338 466.492,106.672 465.5,106.5C 462.833,106.5 460.167,106.5 457.5,106.5C 457.167,106.5 456.833,106.5 456.5,106.5C 456.167,105.5 455.5,104.833 454.5,104.5C 450.513,100.155 450.513,95.6549 454.5,91C 460.405,87.0949 465.405,87.9283 469.5,93.5 Z"/></g>
<g><path style="opacity:0.004" fill="#000a08" d="M 52.5,98.5 C 52.5,99.8333 51.8333,100.5 50.5,100.5C 50.8333,99.5 51.5,98.8333 52.5,98.5 Z"/></g>
<g><path style="opacity:1" fill="#104c46" d="M 427.5,95.5 C 430.49,95.9993 433.49,96.3327 436.5,96.5C 437.654,99.4518 438.654,102.452 439.5,105.5C 438.91,106.799 437.91,107.632 436.5,108C 425.939,110.767 417.939,107.6 412.5,98.5C 416.798,98.347 418.798,100.347 418.5,104.5C 421.564,105.707 424.731,106.707 428,107.5C 434.496,106.501 436.663,102.834 434.5,96.5C 431.655,98.1908 429.321,97.8575 427.5,95.5 Z"/></g>
<g><path style="opacity:0.997" fill="#147747" d="M 469.5,93.5 C 470.216,95.5563 470.883,97.723 471.5,100C 470.512,102.167 469.179,104 467.5,105.5C 467.579,104.07 467.246,102.736 466.5,101.5C 467.274,100.289 468.107,100.289 469,101.5C 469.497,98.854 469.664,96.1873 469.5,93.5 Z"/></g>
<g><path style="opacity:0.408" fill="#395435" d="M 22.5,100.5 C 24.4516,101.785 26.1182,103.451 27.5,105.5C 24.856,104.856 23.1894,103.189 22.5,100.5 Z"/></g>
<g><path style="opacity:0.008" fill="#122118" d="M 46.5,104.5 C 46.0269,105.906 45.0269,106.573 43.5,106.5C 43.9731,105.094 44.9731,104.427 46.5,104.5 Z"/></g>
<g><path style="opacity:0.004" fill="#081a16" d="M 454.5,104.5 C 455.5,104.833 456.167,105.5 456.5,106.5C 455.167,106.5 454.5,105.833 454.5,104.5 Z"/></g>
<g><path style="opacity:0.145" fill="#1c3526" d="M 27.5,105.5 C 29.0269,105.427 30.0269,106.094 30.5,107.5C 28.9731,107.573 27.9731,106.906 27.5,105.5 Z"/></g>
<g><path style="opacity:0.424" fill="#10332f" d="M 265.5,106.5 C 265.189,107.478 264.522,108.145 263.5,108.5C 260.515,107.832 257.515,107.499 254.5,107.5C 258.099,106.656 261.766,106.323 265.5,106.5 Z"/></g>
<g><path style="opacity:0.494" fill="#145a39" d="M 457.5,106.5 C 460.167,106.5 462.833,106.5 465.5,106.5C 462.833,109.167 460.167,109.167 457.5,106.5 Z"/></g>
</svg>
