<svg xmlns="http://www.w3.org/2000/svg" width="194" height="41" viewBox="0 0 194 41" fill="none">
    <g clip-path="url(#clip0_209_847)">
        <path d="M67.0452 15.6453C65.3288 14.8347 63.021 14.1178 61.0558 14.1178C57.1541 14.1178 53.8439 16.2794 53.8439 20.1991C53.8439 24.1872 57.183 26.5577 61.0558 26.5577C63.295 26.5187 65.5109 26.0971 67.6078 25.3112L68.978 30.4233C67.1065 31.4501 63.6124 32.2246 61.0449 32.2246C52.6503 32.2246 47.7534 27.0188 47.7534 20.336C47.7534 13.491 53.1804 8.83276 61.0449 8.83276C63.6608 8.85333 66.2512 9.34894 68.6896 10.2954L67.0452 15.6453Z"
              fill="#10716B"/>
        <path d="M84.5163 19.4175C86.2652 19.4175 87.1703 18.3583 87.1703 17.047C87.1703 15.8653 86.2977 14.6476 84.5163 14.6476H78.0581V19.4175H84.5163ZM72.2886 9.62915H84.5163C89.8531 9.62915 93.2535 12.8103 93.2535 17.0181C93.2535 20.0119 91.1946 22.505 88.0754 23.5966L90.3508 25.9959C91.0395 26.7417 91.7571 27.1163 92.6009 27.1163C93.2163 27.0991 93.825 26.9835 94.4038 26.7741L94.8726 31.3242C93.6007 31.8502 92.2455 32.1466 90.87 32.1996C88.9048 32.1996 87.3759 31.2305 85.8758 29.3175L81.6027 23.9856H78.0761V31.4503H72.3066L72.2886 9.62915Z"
              fill="#10716B"/>
        <path d="M97.4653 9.62915H116.469V14.68H102.925V17.9548H115.25V22.8184H102.925V26.4318H116.966V31.4503H97.4653V9.62915Z"
              fill="#10716B"/>
        <path d="M137.621 20.2605C137.621 16.4886 134.47 14.68 130.6 14.68H126.356V26.4318H130.6C134.502 26.4318 137.621 24 137.621 20.2605ZM120.583 31.4503V9.62915H130.6C137.56 9.62915 143.704 13.556 143.704 20.2893C143.704 26.4931 138.09 31.4575 130.6 31.4575L120.583 31.4503Z"
              fill="#10716B"/>
        <path d="M166.108 20.2604C166.108 16.2362 162.863 14.0566 158.896 14.0566C154.93 14.0566 151.684 16.2362 151.684 20.2604C151.684 24.2845 154.93 26.9937 158.896 26.9937C162.863 26.9937 166.108 24.3133 166.108 20.2604ZM145.608 20.2892C145.608 13.1848 151.739 8.85083 158.9 8.85083C166.061 8.85083 172.191 13.174 172.191 20.2892C172.191 26.9 166.667 32.2283 158.9 32.2283C151.133 32.2283 145.608 26.9 145.608 20.2892Z"
              fill="#10716B"/>
        <path d="M191.627 15.3033C189.33 14.3416 186.879 13.8033 184.39 13.7145C182.331 13.7145 180.459 14.2441 180.459 15.7068C180.459 17.6738 183.921 17.7351 186.698 18.4196C190.506 19.3563 194 20.8838 194 25.2177C194 29.4256 189.132 32.2933 183.734 32.2933C180.928 32.2933 176.121 31.544 174.25 30.5172L175.609 25.6825C178.232 26.5288 180.967 26.9804 183.723 27.0227C186.186 27.0227 187.935 26.2769 187.935 24.9656C187.935 23.5245 185.439 23.0345 182.94 22.6599C178.79 22.0366 174.391 20.4154 174.391 15.8329C174.391 11.625 178.949 8.75732 184.376 8.75732C187.433 8.75732 191.054 9.38058 193.268 10.2236L191.627 15.3033Z"
              fill="#10716B"/>
        <path d="M37.1919 10.2235C37.0797 10.0395 36.9103 9.89722 36.7096 9.81838C36.5089 9.73954 36.2879 9.72846 36.0803 9.78684C35.8728 9.84522 35.69 9.96985 35.5599 10.1417C35.4299 10.3136 35.3597 10.5232 35.36 10.7387V25.441C35.36 26.343 35.0014 27.208 34.363 27.8458C33.7246 28.4836 32.8588 28.8419 31.956 28.8419C31.0532 28.8419 30.1874 28.4836 29.549 27.8458C28.9106 27.208 28.552 26.343 28.552 25.441V19.122C28.5524 18.9298 28.4956 18.7418 28.3888 18.5819C28.2821 18.4221 28.1301 18.2976 27.9523 18.2242C27.7745 18.1508 27.5789 18.1319 27.3903 18.1699C27.2017 18.2079 27.0287 18.301 26.8933 18.4375L17.6332 27.7034C16.1908 29.1445 13.9443 29.2346 12.6173 27.9088C11.2903 26.583 11.3769 24.335 12.8229 22.8939L22.0829 13.6424C22.218 13.5062 22.3097 13.3331 22.3466 13.1449C22.3835 12.9568 22.364 12.7619 22.2904 12.5849C22.2168 12.4078 22.0925 12.2564 21.933 12.1497C21.7736 12.043 21.5861 11.9858 21.3942 11.9852H15.0694C14.6088 11.9852 14.153 11.8918 13.7297 11.7106C13.3064 11.5294 12.9243 11.2641 12.6067 10.931C12.289 10.5978 12.0425 10.2036 11.8819 9.77236C11.7213 9.3411 11.6501 8.88176 11.6726 8.42218C11.7288 7.53757 12.1226 6.70823 12.7726 6.10501C13.4227 5.50179 14.2796 5.17065 15.1667 5.17981H29.7852C30.002 5.18149 30.2133 5.1119 30.3866 4.98177C30.5598 4.85164 30.6855 4.66819 30.7441 4.4597C30.8027 4.25121 30.7911 4.02924 30.711 3.828C30.6309 3.62676 30.4868 3.45742 30.3009 3.34607C26.1088 0.837605 21.1434 -0.0530988 16.3397 0.84168C11.536 1.73646 7.22547 4.35498 4.21979 8.20416C1.21411 12.0533 -0.279319 16.8676 0.0207235 21.7404C0.320766 26.6131 2.39358 31.2082 5.84883 34.6602C9.30409 38.1123 13.9034 40.1832 18.7806 40.483C23.6579 40.7828 28.4766 39.2907 32.3293 36.2878C36.182 33.2849 38.8029 28.9783 39.6986 24.179C40.5942 19.3798 39.7026 14.4189 37.1919 10.2307"
              fill="#10716B"/>
        <path d="M26.8931 18.4374L17.633 27.7034C16.9563 28.3891 16.0463 28.7954 15.0836 28.8418C14.6302 28.8661 14.1766 28.7957 13.7519 28.635C13.3273 28.4743 12.9408 28.227 12.6171 27.9088C12.2979 27.5851 12.0496 27.1984 11.8882 26.7735C11.7267 26.3486 11.6557 25.8948 11.6796 25.441C11.7256 24.4783 12.1339 23.5686 12.8227 22.8939L22.0828 13.6423C22.2178 13.5061 22.3095 13.3331 22.3465 13.1449C22.3834 12.9568 22.3638 12.7619 22.2902 12.5848C22.2166 12.4078 22.0923 12.2564 21.9328 12.1497C21.7734 12.043 21.5859 11.9857 21.394 11.9851H15.0692C14.6085 11.9852 14.1526 11.8918 13.729 11.7106C13.3055 11.5294 12.9232 11.2642 12.6053 10.9311C12.2874 10.598 12.0405 10.2039 11.8795 9.7726C11.7185 9.34133 11.6468 8.8819 11.6688 8.42214C11.7166 7.66077 12.0164 6.93688 12.521 6.3643C13.0256 5.79171 13.7063 5.40292 14.4562 5.25903C0.688664 6.95947 -4.77074 23.8594 5.7442 34.5304L6.15889 34.9447C16.8469 45.223 33.5893 39.7506 35.2841 26.075C35.1394 26.8235 34.7499 27.5028 34.1769 28.0062C33.6038 28.5096 32.8797 28.8086 32.1181 28.8563C31.6579 28.8777 31.1981 28.8057 30.7664 28.6447C30.3348 28.4837 29.9403 28.2371 29.6067 27.9196C29.2731 27.6021 29.0073 27.2204 28.8254 26.7975C28.6435 26.3746 28.5492 25.9193 28.5482 25.459V19.1256C28.5483 18.9331 28.4913 18.7449 28.3843 18.5848C28.2773 18.4248 28.1252 18.3 27.9473 18.2263C27.7693 18.1527 27.5734 18.1334 27.3845 18.171C27.1956 18.2086 27.022 18.3013 26.8859 18.4374"
              fill="#3F9496"/>
        <path d="M8.79124 37.0704L8.7083 37.0164H8.69028C8.37295 36.7966 8.05923 36.5696 7.75273 36.3283L7.44983 36.0905C7.34886 36.0076 7.2515 35.932 7.15414 35.8455L6.85845 35.5933L6.55195 35.3231L6.28871 35.0745C6.24184 35.0313 6.19496 34.9917 6.14808 34.9448L5.88845 34.6891L5.81994 34.6206C5.74061 34.5414 5.65767 34.4621 5.57834 34.3792L5.44853 34.2423C5.3692 34.1559 5.28265 34.0658 5.20332 33.9757C5.12399 33.8857 5.01942 33.774 4.92927 33.6695C4.83912 33.565 4.75979 33.475 4.68046 33.3777C4.60113 33.2804 4.51459 33.1796 4.43526 33.0787C4.35593 32.9778 4.27299 32.8805 4.19726 32.7797C3.95566 32.4734 3.72849 32.16 3.50853 31.8394C3.48328 31.807 3.46525 31.7745 3.44001 31.7385C-2.32951 23.0922 2.1599 13.0048 15.0656 11.9961H21.3904C21.5831 11.996 21.7714 12.053 21.9316 12.1598C22.0919 12.2667 22.2167 12.4187 22.2905 12.5965C22.3642 12.7743 22.3835 12.97 22.3459 13.1587C22.3083 13.3475 22.2154 13.5209 22.0792 13.6569L12.8191 22.9085C12.1318 23.5842 11.7238 24.4933 11.676 25.4555C11.6524 25.9088 11.7236 26.362 11.885 26.7863C12.0464 27.2105 12.2945 27.5966 12.6135 27.9197C13.9405 29.2491 16.187 29.1554 17.6294 27.7144L26.8895 18.4628C27.0257 18.3267 27.1992 18.2339 27.3881 18.1963C27.5771 18.1588 27.7729 18.178 27.9509 18.2517C28.1289 18.3254 28.281 18.4501 28.3879 18.6102C28.4949 18.7703 28.552 18.9585 28.5518 19.1509V25.1745C28.5518 25.2706 28.5518 25.3679 28.5518 25.4663C27.5314 38.3565 17.4311 42.8382 8.79124 37.0776"
              fill="#55BECA"/>
    </g>
    <defs>
        <clipPath id="clip0_209_847">
            <rect width="194" height="40" fill="white" transform="translate(0 0.5)"/>
        </clipPath>
    </defs>
</svg>