<svg width="159" height="42" viewBox="0 0 159 42" fill="none" xmlns="http://www.w3.org/2000/svg">
<path d="M51.871 19.216H51.2544C49.8734 19.216 48.6611 19.0789 47.6175 18.8046C46.5845 18.5303 45.778 18.1928 45.1982 17.7919C44.6185 17.3805 44.1494 16.8952 43.791 16.3361C43.4325 15.777 43.2006 15.2601 43.0952 14.7853C42.9898 14.3106 42.9371 13.8148 42.9371 13.2979V12.839C42.9371 12.3115 42.9845 11.8157 43.0794 11.3516C43.1848 10.8874 43.4115 10.381 43.7593 9.83247C44.1072 9.27336 44.5658 8.79865 45.135 8.40832C45.7148 8.00745 46.5265 7.67515 47.5701 7.41142C48.6242 7.13714 49.8523 7 51.2544 7H51.871C52.8514 7 53.7474 7.0633 54.5591 7.18989C55.3814 7.31648 56.0666 7.47999 56.6147 7.68043C57.1734 7.88086 57.6636 8.12349 58.0853 8.40832C58.5175 8.68261 58.8548 8.96216 59.0973 9.24699C59.3397 9.53182 59.5347 9.83775 59.6823 10.1648C59.8404 10.4813 59.9406 10.7661 59.9828 11.0193C60.0355 11.2724 60.0618 11.5204 60.0618 11.763V11.9687H55.3972C55.0388 10.7661 53.7474 10.1648 51.5232 10.1648C48.8983 10.1648 47.5859 11.0826 47.5859 12.9181V13.108C47.5859 13.4561 47.6439 13.7884 47.7598 14.1049C47.8863 14.4214 48.0866 14.7326 48.3607 15.0385C48.6453 15.3445 49.0565 15.5871 49.5941 15.7664C50.1422 15.9458 50.7905 16.0354 51.539 16.0354C52.1926 16.0354 52.7671 15.9774 53.2625 15.8614C53.758 15.7348 54.1322 15.5976 54.3852 15.45C54.6382 15.3023 54.849 15.1176 55.0177 14.8961C55.1864 14.6746 55.2865 14.5163 55.3181 14.4214C55.3498 14.3265 55.3814 14.221 55.413 14.1049H60.0618V14.3581C60.0618 14.7168 60.0091 15.086 59.9037 15.4658C59.7983 15.835 59.5664 16.257 59.208 16.7317C58.8495 17.1959 58.3857 17.6073 57.8165 17.9659C57.2578 18.3141 56.4619 18.6095 55.4288 18.8521C54.4063 19.0947 53.2204 19.216 51.871 19.216Z" fill="#3C3C3C"/>
<path d="M65.3111 7.22153V18.9945H61.0102V7.22153H65.3111Z" fill="#3C3C3C"/>
<path d="M70.8702 7.22153V9.76918H66.5692V7.22153H70.8702ZM70.8702 10.4813V18.9945H66.5692V10.4813H70.8702Z" fill="#3C3C3C"/>
<path d="M76.4292 18.9945H72.1282V7.22153H76.4292V13.8043L79.3386 10.4813H83.9716L80.5087 14.2473L84.4776 18.9945H79.5916L76.4292 15.1651V18.9945Z" fill="#3C3C3C"/>
<path d="M95.7941 19.216H95.1774C93.7965 19.216 92.5842 19.0789 91.5406 18.8046C90.5075 18.5303 89.7011 18.1928 89.1213 17.7919C88.5415 17.3805 88.0724 16.8952 87.714 16.3361C87.3556 15.777 87.1237 15.2601 87.0183 14.7854C86.9129 14.3106 86.8602 13.8148 86.8602 13.2979V12.839C86.8602 12.3116 86.9076 11.8157 87.0025 11.3516C87.1079 10.8874 87.3345 10.381 87.6824 9.83247C88.0303 9.27336 88.4888 8.79865 89.0581 8.40833C89.6378 8.00745 90.4495 7.67515 91.4932 7.41142C92.5473 7.13714 93.7754 7 95.1774 7H95.7941C96.7745 7 97.6705 7.0633 98.4822 7.18989C99.3044 7.31648 99.9896 7.47999 100.538 7.68043C101.097 7.88086 101.587 8.1235 102.008 8.40833C102.441 8.68261 102.778 8.96216 103.02 9.24699C103.263 9.53182 103.458 9.83775 103.605 10.1648C103.764 10.4813 103.864 10.7661 103.906 11.0193C103.959 11.2724 103.985 11.5204 103.985 11.763V11.9687H99.3203C98.9618 10.7661 97.6705 10.1648 95.4462 10.1648C92.8214 10.1648 91.509 11.0826 91.509 12.9181V13.108C91.509 13.4561 91.567 13.7884 91.6829 14.1049C91.8094 14.4214 92.0097 14.7326 92.2838 15.0385C92.5684 15.3445 92.9795 15.5871 93.5171 15.7664C94.0653 15.9458 94.7136 16.0354 95.462 16.0354C96.1156 16.0354 96.6901 15.9774 97.1856 15.8614C97.681 15.7348 98.0553 15.5976 98.3083 15.45C98.5613 15.3023 98.7721 15.1177 98.9408 14.8961C99.1094 14.6746 99.2096 14.5163 99.2412 14.4214C99.2728 14.3265 99.3044 14.221 99.3361 14.1049H103.985V14.3581C103.985 14.7168 103.932 15.086 103.827 15.4658C103.721 15.835 103.489 16.257 103.131 16.7317C102.773 17.1959 102.309 17.6073 101.74 17.966C101.181 18.3141 100.385 18.6095 99.3519 18.8521C98.3293 19.0947 97.1434 19.216 95.7941 19.216Z" fill="#3C3C3C"/>
<path d="M109.203 10.4813V12.0478C109.361 11.8157 109.556 11.5889 109.788 11.3674C110.03 11.1353 110.425 10.898 110.974 10.6553C111.522 10.4127 112.117 10.2914 112.76 10.2914H112.95C113.625 10.2914 114.205 10.4021 114.689 10.6237C115.174 10.8347 115.543 11.13 115.796 11.5098C116.049 11.879 116.234 12.2746 116.35 12.6966C116.466 13.108 116.524 13.5616 116.524 14.0575V14.9119H112.349V14.6113C112.349 14.0944 112.223 13.6777 111.97 13.3612C111.727 13.0342 111.343 12.8707 110.815 12.8707C110.32 12.8707 109.93 13.0394 109.645 13.377C109.371 13.7146 109.234 14.1577 109.234 14.7062V18.9945H104.933V10.4813H109.203Z" fill="#3C3C3C"/>
<path d="M123.814 12.3326C122.412 12.3326 121.595 12.7599 121.363 13.6144H126.265C126.085 12.7599 125.268 12.3326 123.814 12.3326ZM130.534 15.893V15.9247C130.534 16.2095 130.497 16.4785 130.423 16.7317C130.35 16.9849 130.181 17.275 129.917 17.602C129.654 17.9185 129.306 18.1928 128.874 18.4248C128.441 18.6464 127.825 18.8363 127.024 18.9945C126.233 19.1527 125.311 19.2319 124.257 19.2319H123.418C122.417 19.2319 121.532 19.1422 120.762 18.9629C119.992 18.7835 119.381 18.5514 118.928 18.2666C118.474 17.9818 118.106 17.6442 117.821 17.2539C117.536 16.853 117.341 16.4627 117.236 16.0829C117.141 15.6926 117.094 15.2812 117.094 14.8486V14.5322C117.094 11.6733 119.186 10.2439 123.371 10.2439H124.241C125.01 10.2439 125.706 10.2966 126.328 10.4021C126.96 10.4971 127.493 10.6289 127.925 10.7977C128.357 10.9665 128.731 11.1775 129.048 11.4307C129.374 11.6839 129.633 11.9423 129.822 12.2061C130.012 12.4592 130.165 12.7493 130.281 13.0764C130.397 13.3928 130.471 13.6935 130.502 13.9783C130.545 14.2526 130.566 14.5533 130.566 14.8803V15.355H121.315C121.463 16.3994 122.322 16.9216 123.893 16.9216H123.909C124.288 16.9216 124.625 16.8899 124.921 16.8266C125.226 16.7633 125.458 16.6948 125.616 16.6209C125.785 16.5365 125.922 16.4416 126.027 16.3361C126.133 16.2306 126.201 16.1462 126.233 16.0829C126.265 16.0091 126.286 15.9458 126.296 15.893H130.534Z" fill="#3C3C3C"/>
<path d="M140.633 14.7379V14.6588C140.633 14.1418 140.396 13.6882 139.922 13.2979C139.458 12.897 138.804 12.6966 137.961 12.6966H137.882C137.028 12.6966 136.417 12.8865 136.048 13.2663C135.679 13.6355 135.494 14.0997 135.494 14.6588V14.7379C135.494 15.2759 135.689 15.7453 136.079 16.1462C136.48 16.5471 137.086 16.7475 137.898 16.7475H137.961C138.815 16.7475 139.474 16.5471 139.937 16.1462C140.401 15.7348 140.633 15.2653 140.633 14.7379ZM140.633 7.22153H144.934V18.9945H140.649V17.7602C140.544 17.8763 140.407 17.9976 140.238 18.1242C140.08 18.2402 139.837 18.3879 139.511 18.5673C139.194 18.736 138.778 18.8785 138.261 18.9945C137.745 19.1 137.176 19.1527 136.554 19.1527H136.285C134.546 19.1527 133.249 18.7466 132.395 17.9343C131.552 17.122 131.13 16.0935 131.13 14.8486V14.5163C131.13 13.9467 131.22 13.4245 131.399 12.9498C131.589 12.4645 131.873 12.0214 132.253 11.6206C132.632 11.2197 133.154 10.9032 133.818 10.6711C134.482 10.4391 135.262 10.323 136.158 10.323H136.459C138.156 10.323 139.547 10.7344 140.633 11.5573V7.22153Z" fill="#3C3C3C"/>
<path d="M150.494 7.22153V9.76918H146.193V7.22153H150.494ZM150.494 10.4813V18.9945H146.193V10.4813H150.494Z" fill="#3C3C3C"/>
<path d="M158.852 18.9945H155.215C153.708 18.9945 152.954 18.1875 152.954 16.5735V13.0922H151.326V10.4813H152.954V7.9969H157.224V10.4813H158.852V13.0922H157.224V15.6082C157.224 15.8825 157.266 16.0776 157.35 16.1937C157.445 16.2992 157.64 16.3519 157.935 16.3519H158.852V18.9945Z" fill="#3C3C3C"/>
<path d="M49.2971 25.6H50.1371V34H49.2971V30.076H44.7371V34H43.8971V25.6H44.7371V29.284H49.2971V25.6ZM57.0933 28H57.8853V34H57.0933V32.824C56.5413 33.704 55.7333 34.144 54.6693 34.144C53.8133 34.144 53.0813 33.84 52.4733 33.232C51.8733 32.624 51.5733 31.88 51.5733 31C51.5733 30.12 51.8733 29.376 52.4733 28.768C53.0813 28.16 53.8133 27.856 54.6693 27.856C55.7333 27.856 56.5413 28.296 57.0933 29.176V28ZM53.0493 32.692C53.5053 33.148 54.0653 33.376 54.7293 33.376C55.3933 33.376 55.9533 33.148 56.4093 32.692C56.8653 32.228 57.0933 31.664 57.0933 31C57.0933 30.336 56.8653 29.776 56.4093 29.32C55.9533 28.856 55.3933 28.624 54.7293 28.624C54.0653 28.624 53.5053 28.856 53.0493 29.32C52.5933 29.776 52.3653 30.336 52.3653 31C52.3653 31.664 52.5933 32.228 53.0493 32.692ZM64.4102 34H63.3542L60.3542 31.108V34H59.5622V28H60.3542V30.652L63.2102 28H64.2902L61.1942 30.88L64.4102 34ZM70.4119 28V34H69.6199V28.768H66.9079V31.444C66.9079 32.444 66.7159 33.132 66.3319 33.508C65.9559 33.884 65.4359 34.048 64.7719 34V33.256C65.2279 33.304 65.5639 33.196 65.7799 32.932C66.0039 32.668 66.1159 32.172 66.1159 31.444V28H70.4119ZM76.4576 28H77.1296V34H76.3376V29.38L72.7616 34H72.0896V28H72.8816V32.62L76.4576 28ZM82.6924 28H83.4844V34H82.6924V31.72C82.2284 31.96 81.6564 32.08 80.9764 32.08C80.1924 32.08 79.5924 31.9 79.1764 31.54C78.7684 31.172 78.5644 30.632 78.5644 29.92V28H79.3564V29.92C79.3564 30.424 79.4884 30.788 79.7524 31.012C80.0164 31.228 80.4164 31.336 80.9524 31.336C81.5764 31.336 82.1564 31.22 82.6924 30.988V28ZM90.9637 34.144C90.0597 34.144 89.3077 33.844 88.7077 33.244C88.1077 32.636 87.8077 31.888 87.8077 31C87.8077 30.112 88.1077 29.368 88.7077 28.768C89.3077 28.16 90.0597 27.856 90.9637 27.856C91.5557 27.856 92.0877 28 92.5597 28.288C93.0317 28.568 93.3757 28.948 93.5917 29.428L92.9437 29.8C92.7837 29.44 92.5237 29.156 92.1637 28.948C91.8117 28.732 91.4117 28.624 90.9637 28.624C90.2997 28.624 89.7397 28.856 89.2837 29.32C88.8277 29.776 88.5997 30.336 88.5997 31C88.5997 31.664 88.8277 32.228 89.2837 32.692C89.7397 33.148 90.2997 33.376 90.9637 33.376C91.4117 33.376 91.8117 33.272 92.1637 33.064C92.5157 32.848 92.7917 32.56 92.9917 32.2L93.6517 32.584C93.4037 33.064 93.0397 33.444 92.5597 33.724C92.0797 34.004 91.5477 34.144 90.9637 34.144ZM99.7582 33.244C99.1502 33.844 98.4062 34.144 97.5262 34.144C96.6462 34.144 95.8982 33.844 95.2822 33.244C94.6742 32.636 94.3702 31.888 94.3702 31C94.3702 30.112 94.6742 29.368 95.2822 28.768C95.8982 28.16 96.6462 27.856 97.5262 27.856C98.4062 27.856 99.1502 28.16 99.7582 28.768C100.374 29.368 100.682 30.112 100.682 31C100.682 31.888 100.374 32.636 99.7582 33.244ZM95.8462 32.692C96.3022 33.148 96.8622 33.376 97.5262 33.376C98.1902 33.376 98.7502 33.148 99.2062 32.692C99.6622 32.228 99.8902 31.664 99.8902 31C99.8902 30.336 99.6622 29.776 99.2062 29.32C98.7502 28.856 98.1902 28.624 97.5262 28.624C96.8622 28.624 96.3022 28.856 95.8462 29.32C95.3902 29.776 95.1622 30.336 95.1622 31C95.1622 31.664 95.3902 32.228 95.8462 32.692ZM104.672 34.144C103.808 34.144 103.088 33.86 102.512 33.292C101.936 32.716 101.648 31.972 101.648 31.06C101.648 30.036 101.8 29.252 102.104 28.708C102.408 28.156 103.024 27.656 103.952 27.208C104.128 27.12 104.36 27.016 104.648 26.896C104.944 26.776 105.164 26.68 105.308 26.608C105.46 26.536 105.624 26.444 105.8 26.332C105.976 26.212 106.108 26.08 106.196 25.936C106.284 25.792 106.34 25.62 106.364 25.42L106.988 25.78C106.956 25.972 106.892 26.152 106.796 26.32C106.7 26.488 106.6 26.624 106.496 26.728C106.4 26.832 106.244 26.948 106.028 27.076C105.82 27.196 105.656 27.284 105.536 27.34C105.424 27.388 105.224 27.472 104.936 27.592C104.656 27.712 104.468 27.792 104.372 27.832C103.812 28.072 103.4 28.324 103.136 28.588C102.872 28.844 102.684 29.18 102.572 29.596C102.844 29.236 103.188 28.972 103.604 28.804C104.028 28.628 104.44 28.54 104.84 28.54C105.64 28.54 106.3 28.804 106.82 29.332C107.348 29.852 107.612 30.52 107.612 31.336C107.612 32.144 107.332 32.816 106.772 33.352C106.22 33.88 105.52 34.144 104.672 34.144ZM104.672 33.352C105.296 33.352 105.808 33.164 106.208 32.788C106.616 32.404 106.82 31.92 106.82 31.336C106.82 30.744 106.628 30.26 106.244 29.884C105.868 29.5 105.364 29.308 104.732 29.308C104.164 29.308 103.648 29.488 103.184 29.848C102.72 30.2 102.488 30.672 102.488 31.264C102.488 31.872 102.696 32.372 103.112 32.764C103.536 33.156 104.056 33.352 104.672 33.352ZM109.62 26.56C109.508 26.672 109.372 26.728 109.212 26.728C109.052 26.728 108.916 26.672 108.804 26.56C108.692 26.448 108.636 26.312 108.636 26.152C108.636 25.992 108.692 25.856 108.804 25.744C108.916 25.632 109.052 25.576 109.212 25.576C109.372 25.576 109.508 25.632 109.62 25.744C109.732 25.856 109.788 25.992 109.788 26.152C109.788 26.312 109.732 26.448 109.62 26.56ZM108.816 34V28H109.608V34H108.816ZM118.129 28V28.768L115.081 28.768V34H114.289V28H118.129ZM122.309 27.856C123.165 27.856 123.893 28.16 124.493 28.768C125.101 29.376 125.405 30.12 125.405 31C125.405 31.88 125.101 32.624 124.493 33.232C123.893 33.84 123.165 34.144 122.309 34.144C121.245 34.144 120.437 33.704 119.885 32.824V36.4H119.093V28H119.885V29.176C120.437 28.296 121.245 27.856 122.309 27.856ZM120.569 32.692C121.025 33.148 121.585 33.376 122.249 33.376C122.913 33.376 123.473 33.148 123.929 32.692C124.385 32.228 124.613 31.664 124.613 31C124.613 30.336 124.385 29.776 123.929 29.32C123.473 28.856 122.913 28.624 122.249 28.624C121.585 28.624 121.025 28.856 120.569 29.32C120.113 29.776 119.885 30.336 119.885 31C119.885 31.664 120.113 32.228 120.569 32.692ZM131.75 33.244C131.142 33.844 130.398 34.144 129.518 34.144C128.638 34.144 127.89 33.844 127.274 33.244C126.666 32.636 126.362 31.888 126.362 31C126.362 30.112 126.666 29.368 127.274 28.768C127.89 28.16 128.638 27.856 129.518 27.856C130.398 27.856 131.142 28.16 131.75 28.768C132.366 29.368 132.674 30.112 132.674 31C132.674 31.888 132.366 32.636 131.75 33.244ZM127.838 32.692C128.294 33.148 128.854 33.376 129.518 33.376C130.182 33.376 130.742 33.148 131.198 32.692C131.654 32.228 131.882 31.664 131.882 31C131.882 30.336 131.654 29.776 131.198 29.32C130.742 28.856 130.182 28.624 129.518 28.624C128.854 28.624 128.294 28.856 127.838 29.32C127.382 29.776 127.154 30.336 127.154 31C127.154 31.664 127.382 32.228 127.838 32.692ZM141.248 28H142.04V34H134V28H134.792V33.232H137.624V28H138.416V33.232H141.248V28ZM146.487 27.856C147.375 27.856 148.091 28.172 148.635 28.804C149.187 29.428 149.463 30.168 149.463 31.024C149.463 31.112 149.455 31.236 149.439 31.396L144.171 31.396C144.251 32.004 144.507 32.488 144.939 32.848C145.379 33.2 145.919 33.376 146.559 33.376C147.015 33.376 147.407 33.284 147.735 33.1C148.071 32.908 148.323 32.66 148.491 32.356L149.187 32.764C148.923 33.188 148.563 33.524 148.107 33.772C147.651 34.02 147.131 34.144 146.547 34.144C145.603 34.144 144.835 33.848 144.243 33.256C143.651 32.664 143.355 31.912 143.355 31C143.355 30.104 143.647 29.356 144.231 28.756C144.815 28.156 145.567 27.856 146.487 27.856ZM146.487 28.624C145.863 28.624 145.339 28.812 144.915 29.188C144.499 29.556 144.251 30.036 144.171 30.628L148.647 30.628C148.567 29.996 148.323 29.504 147.915 29.152C147.507 28.8 147.031 28.624 146.487 28.624ZM151.682 27.04V26.344H154.802V27.04H151.682ZM155.09 28H155.762V34H154.97V29.38L151.394 34H150.722V28H151.514V32.62L155.09 28Z" fill="#4F4F4F" fill-opacity="0.7"/>
<path d="M35.9422 24.6606C35.9422 34.2369 28.1129 42 18.455 42C8.7971 42 0.967812 34.2369 0.967812 24.6606C0.967812 15.0842 8.7971 0 18.455 0C28.1129 0 35.9422 15.0842 35.9422 24.6606Z" fill="#EE5E40"/>
<path d="M26.9488 25.5C26.9488 30.1944 23.146 34 18.455 34C13.764 34 9.96123 30.1944 9.96123 25.5C9.96123 20.8056 13.764 17 18.455 17C23.146 17 26.9488 20.8056 26.9488 25.5Z" fill="white"/>
</svg>
