<svg xmlns="http://www.w3.org/2000/svg" xmlns:xlink="http://www.w3.org/1999/xlink" viewBox="0 0 631.287 161.794">
    <defs>
        <radialGradient id="a" cx="0.925" cy="0.444" r="0.921" gradientTransform="translate(0 0.116) scale(1 0.739)" gradientUnits="objectBoundingBox">
            <stop offset="0" stop-color="#fff"/>
            <stop offset="0.578" stop-color="#fff" stop-opacity="0.749"/>
            <stop offset="1" stop-color="#fff" stop-opacity="0.098"/>
        </radialGradient>
    </defs>
    <g transform="translate(-11.977 -42.857)">
        <g transform="translate(7 68)">
            <path d="M83.709,7.647c3.787,8.047,2.648,47.777-30.56,70.27C69.894,54.355,69.872,28.042,60.875,7.591,71.4,4.664,81.626,3.221,83.709,7.647Z" transform="translate(51.682 46.233) rotate(-60)" fill="#fff" opacity="0.601"/>
            <path d="M34.331,19.39c4.695,6.329,6.882-3.2,9.366-4.129,16.279,37.461-14,67.282-27.932,70.546-9.944,2.4-22.5,11.57-37.955-5.982-22.256-28.028-13.975-49.519-1.8-62.88S18.455-.44,34.331,19.39Z" transform="translate(51.682 44.233) rotate(-60)" opacity="0.696" fill="url(#a)"/>
            <path d="M-5410.7-46.441a71.154,71.154,0,0,1-7.4-.388,70.09,70.09,0,0,1-22.466-6.24,69.986,69.986,0,0,1-19.762-13.859,69.564,69.564,0,0,1-19.158-35.513,70.076,70.076,0,0,1-1.162-19.761,69.783,69.783,0,0,1,4.449-19.386l-.009-.021-.173-.427c-1.281-3.189-3.516-10.466-6.885-27.019-2.022-9.938-3.5-18.546-3.514-18.628a3.961,3.961,0,0,1,.694-3.449,4.024,4.024,0,0,1,3.159-1.57,4.078,4.078,0,0,1,1.032.135c.09.014,9.113,1.455,19.347,3.419,17.147,3.29,24.547,5.507,27.736,6.788l.307.124a70.4,70.4,0,0,1,23.845-4.14,70.949,70.949,0,0,1,13.407,1.28,70.378,70.378,0,0,1,13.008,3.841,69.769,69.769,0,0,1,23.22,15.366,69.486,69.486,0,0,1,15.42,23.14,69.777,69.777,0,0,1,3.855,12.963,70.216,70.216,0,0,1,1.285,13.361,70.248,70.248,0,0,1-1.286,13.366,69.835,69.835,0,0,1-3.856,12.968,69.545,69.545,0,0,1-15.428,23.151,69.815,69.815,0,0,1-23.235,15.374,70.441,70.441,0,0,1-13.015,3.843A70.98,70.98,0,0,1-5410.7-46.441Zm-56.193-128.835a2.009,2.009,0,0,0-1.577.784,1.982,1.982,0,0,0-.349,1.727l0,.012c.257,1.045,6.326,25.7,9.523,35.389a52.916,52.916,0,0,0-4.008,15.077,53.2,53.2,0,0,0,.522,15.486,52.582,52.582,0,0,0,14.635,27.9,52.727,52.727,0,0,0,14.9,10.483,52.69,52.69,0,0,0,16.942,4.716,53.5,53.5,0,0,0,5.564.292A52.85,52.85,0,0,0-5390.78-67.3a52.713,52.713,0,0,0,17.546-11.652,52.722,52.722,0,0,0,11.646-17.528,52.817,52.817,0,0,0,3.891-19.934,52.75,52.75,0,0,0-3.866-19.929,52.549,52.549,0,0,0-11.624-17.515,52.557,52.557,0,0,0-17.5-11.618,52.757,52.757,0,0,0-19.912-3.873,52.852,52.852,0,0,0-19.548,3.723c-10-3.289-35.964-9.519-36.225-9.581A2.038,2.038,0,0,0-5466.889-175.276Z" transform="translate(5491.889 183.092)" fill="#fff"/>
        </g>
        <path d="M-2213.067,1829.012a28.362,28.362,0,0,1-9.421-5.637,25.507,25.507,0,0,1-6.243-8.938,30.561,30.561,0,0,1-2.251-12.013,31.1,31.1,0,0,1,2.251-12.013,27.523,27.523,0,0,1,6.186-9.221,27.685,27.685,0,0,1,9.306-5.92,31.688,31.688,0,0,1,11.619-2.109,29.888,29.888,0,0,1,10.693,1.878,23.4,23.4,0,0,1,8.494,5.579,25.9,25.9,0,0,1,5.606,9.226,37.653,37.653,0,0,1,2.025,12.922v1.821a15.265,15.265,0,0,1-.115,1.822h-42.195a13.531,13.531,0,0,0,1.56,5.411,13.875,13.875,0,0,0,3.527,4.209,17.418,17.418,0,0,0,4.971,2.792,16.685,16.685,0,0,0,5.779,1.023,18.867,18.867,0,0,0,8.788-1.878,16.443,16.443,0,0,0,5.893-5.18l9.249,7.289c-5.451,7.254-13.462,10.928-23.814,10.928A34.574,34.574,0,0,1-2213.067,1829.012Zm.753-41.9a13.484,13.484,0,0,0-4.8,9.506h28.44a16.785,16.785,0,0,0-.753-5.008,11.487,11.487,0,0,0-2.371-4.215,11.67,11.67,0,0,0-4.1-2.9,14.6,14.6,0,0,0-5.836-1.081A15.791,15.791,0,0,0-2212.313,1787.11Zm-125.941,42.811a20.663,20.663,0,0,1-6.6-2.845,16.738,16.738,0,0,1-5.012-5.238,15.176,15.176,0,0,1-1.989-8.03c0-4.081,1.166-7.374,3.469-9.788a22.523,22.523,0,0,1,8.942-5.579,50.715,50.715,0,0,1,12.124-2.566c4.4-.417,8.782-.625,13.037-.625v-1.365c0-3.4-1.245-5.951-3.7-7.573a15.724,15.724,0,0,0-8.823-2.446,19.833,19.833,0,0,0-8.313,1.822,22.423,22.423,0,0,0-6.6,4.44l-7.059-8.313a31.005,31.005,0,0,1,10.759-6.492,36.839,36.839,0,0,1,12.354-2.162,30.509,30.509,0,0,1,12.013,2.051,19.7,19.7,0,0,1,7.458,5.349,19.187,19.187,0,0,1,3.811,7.405,32.028,32.028,0,0,1,1.082,8.2v33.248h-12.749v-6.948h-.341a15.351,15.351,0,0,1-6.607,5.978,22.475,22.475,0,0,1-10.36,2.336A29.792,29.792,0,0,1-2338.255,1829.921Zm13.95-25.161a30.047,30.047,0,0,0-6.718,1.25,14.418,14.418,0,0,0-5.123,2.734,6.061,6.061,0,0,0-2.052,4.839,5.828,5.828,0,0,0,.856,3.244,6.57,6.57,0,0,0,2.219,2.11,9.925,9.925,0,0,0,3.075,1.139,17.642,17.642,0,0,0,3.417.341c4.684,0,8.282-1.263,10.7-3.757s3.642-5.946,3.642-10.249v-1.937h-3.075C-2319.523,1804.472-2321.859,1804.569-2324.3,1804.76Zm-226.141,23.605a28.912,28.912,0,0,1-9.235-6.225,29,29,0,0,1-6.226-9.235,28.937,28.937,0,0,1-2.282-11.308,28.916,28.916,0,0,1,2.282-11.3,28.993,28.993,0,0,1,6.226-9.234,28.929,28.929,0,0,1,9.235-6.226,28.851,28.851,0,0,1,11.308-2.282,28.871,28.871,0,0,1,11.309,2.282,28.965,28.965,0,0,1,9.23,6.226,28.84,28.84,0,0,1,6.225,9.234,28.841,28.841,0,0,1,2.287,11.3,28.862,28.862,0,0,1-2.287,11.308,28.843,28.843,0,0,1-6.225,9.235,28.948,28.948,0,0,1-9.23,6.225,28.871,28.871,0,0,1-11.309,2.282A28.851,28.851,0,0,1-2550.446,1828.365Zm4.861-42.1a16.568,16.568,0,0,0-5.309,3.576,16.673,16.673,0,0,0-3.576,5.3,16.63,16.63,0,0,0-1.311,6.5,16.64,16.64,0,0,0,1.311,6.5,16.658,16.658,0,0,0,3.576,5.3,16.571,16.571,0,0,0,5.309,3.577,16.519,16.519,0,0,0,6.5,1.311,16.54,16.54,0,0,0,6.5-1.311,16.543,16.543,0,0,0,5.3-3.577,16.682,16.682,0,0,0,3.581-5.3,16.644,16.644,0,0,0,1.311-6.5,16.634,16.634,0,0,0-1.311-6.5,16.7,16.7,0,0,0-3.581-5.3,16.54,16.54,0,0,0-5.3-3.576,16.541,16.541,0,0,0-6.5-1.312A16.52,16.52,0,0,0-2545.585,1786.269Zm288.8,43.142h-14.682l-22.09-54.655h14.916l1.786,4.959c3.651,11.371,10.352,30.1,11.655,33.735l.053.147c.252.735.7,1.175,1.205,1.175s.949-.439,1.2-1.175c.076-.212,8.8-24.771,12.337-36.319l.913-2.522h14.459l-21.75,54.652v0Zm-165.443,0h-13.661v-54.655h13.666v54.655Zm-46.28,0h-14.57l-22.091-54.655h14.916l.474,1.316c3.492,11.5,12.757,37.267,12.851,37.525.252.735.7,1.175,1.205,1.175s.953-.439,1.2-1.175c.08-.23,8.251-23.189,12.01-35.268l1.3-3.572h14.459l-21.749,54.652v0Zm-102.318,0H-2617v-80.617h14.349v67.865h25.325l6.5,12.744,0,.009Zm165.546,0v-80.615h14.346v67.863h25.327l6.506,12.752Zm-30.1-67.464a7.887,7.887,0,0,1-2.451-5.747,7.9,7.9,0,0,1,2.451-5.752,8.443,8.443,0,0,1,6.2-2.446,9.077,9.077,0,0,1,6.319,2.331,7.638,7.638,0,0,1,2.561,5.867,7.635,7.635,0,0,1-2.561,5.863,9.075,9.075,0,0,1-6.319,2.335A8.443,8.443,0,0,1-2435.379,1761.945Z" transform="translate(2818.066 -1653.143)" fill="#fff"/>
    </g>
</svg>
