<?xml version="1.0" encoding="UTF-8"?>
<!DOCTYPE svg PUBLIC "-//W3C//DTD SVG 1.1//EN" "http://www.w3.org/Graphics/SVG/1.1/DTD/svg11.dtd">
<svg xmlns="http://www.w3.org/2000/svg" version="1.1" width="709px" height="341px" style="shape-rendering:geometricPrecision; text-rendering:geometricPrecision; image-rendering:optimizeQuality; fill-rule:evenodd; clip-rule:evenodd" xmlns:xlink="http://www.w3.org/1999/xlink">
<g><path style="opacity:1" fill="#41d3c7" d="M 64.5,132.5 C 63.6618,132.842 63.3284,133.508 63.5,134.5C 61.6095,132.558 59.6095,130.725 57.5,129C 57.8333,128.667 58.1667,128.333 58.5,128C 92.9987,122.75 127.332,116.75 161.5,110C 181.87,73.4207 202.87,37.254 224.5,1.5C 224.459,4.10392 224.792,6.77059 225.5,9.5C 215.55,51.4664 205.217,93.2997 194.5,135C 190.848,135.499 187.182,135.665 183.5,135.5C 195.835,96.474 208.002,57.474 220,18.5C 205.069,57.1275 190.235,95.7942 175.5,134.5C 138.789,134.365 102.122,132.698 65.5,129.5C 64.5,129.667 63.5,129.833 62.5,130C 63.3805,130.708 64.0472,131.542 64.5,132.5 Z"/></g>
<g><path style="opacity:1" fill="#41d3c7" d="M 228.5,1.5 C 229.496,1.41423 230.329,1.74756 231,2.5C 249.913,36.662 269.08,70.662 288.5,104.5C 325.812,111.02 363.145,117.354 400.5,123.5C 358.496,125.833 316.496,126.833 274.5,126.5C 258.753,84.9184 243.419,43.2517 228.5,1.5 Z"/></g>
<g><path style="opacity:1" fill="#43d3c5" d="M 235.5,6.5 C 236.793,5.35521 237.959,5.68854 239,7.5C 260.254,38.3417 281.754,69.0083 303.5,99.5C 298.84,100.338 294.34,99.671 290,97.5C 271.807,67.1032 253.641,36.7699 235.5,6.5 Z"/></g>
<g><path style="opacity:1" fill="#001f19" d="M 488.5,135.5 C 490.792,135.244 492.959,135.577 495,136.5C 495.499,141.155 495.666,145.821 495.5,150.5C 484.232,150.665 479.898,156.331 482.5,167.5C 487.167,167.5 491.833,167.5 496.5,167.5C 496.5,172.167 496.5,176.833 496.5,181.5C 491.833,181.5 487.167,181.5 482.5,181.5C 482.5,202.833 482.5,224.167 482.5,245.5C 476.5,245.5 470.5,245.5 464.5,245.5C 464.5,224.167 464.5,202.833 464.5,181.5C 461.5,181.5 458.5,181.5 455.5,181.5C 455.5,176.833 455.5,172.167 455.5,167.5C 458.5,167.5 461.5,167.5 464.5,167.5C 462.401,148.964 470.401,138.298 488.5,135.5 Z"/></g>
<g><path style="opacity:1" fill="#001e18" d="M 517.5,135.5 C 528.914,135.626 533.081,141.293 530,152.5C 526.301,157.272 521.467,158.772 515.5,157C 507.121,149.009 507.788,141.842 517.5,135.5 Z"/></g>
<g><path style="opacity:1" fill="#41d4c7" d="M 145.5,314.5 C 143.596,314.738 142.262,315.738 141.5,317.5C 140.833,317.5 140.5,317.833 140.5,318.5C 139.167,318.833 139.167,319.167 140.5,319.5C 141.038,321.117 141.371,322.784 141.5,324.5C 142.5,324.5 143.5,324.5 144.5,324.5C 136.719,328.892 128.719,333.059 120.5,337C 116.173,338.221 115.34,337.054 118,333.5C 123.253,292.48 128.253,251.48 133,210.5C 109.599,185.271 86.432,159.937 63.5,134.5C 63.3284,133.508 63.6618,132.842 64.5,132.5C 65.1499,132.196 65.8165,131.863 66.5,131.5C 98.8632,146.392 130.863,161.892 162.5,178C 161.243,182.014 159.576,185.847 157.5,189.5C 134.831,176.168 112.498,162.335 90.5,148C 89.2411,147.018 87.9078,146.685 86.5,147C 107.991,162.579 129.658,177.912 151.5,193C 153.744,194.422 155.41,196.256 156.5,198.5C 143.994,243.864 131.828,289.198 120,334.5C 124.258,331.287 128.425,327.953 132.5,324.5C 132.291,323.914 131.957,323.414 131.5,323C 151.833,302 172.167,281 192.5,260C 197.155,259.501 201.821,259.334 206.5,259.5C 206.321,261.606 205.321,263.272 203.5,264.5C 183.827,280.845 164.494,297.511 145.5,314.5 Z M 80.5,142.5 C 82.0269,142.427 83.0269,143.094 83.5,144.5C 81.9731,144.573 80.9731,143.906 80.5,142.5 Z"/></g>
<g><path style="opacity:1" fill="#001f18" d="M 213.5,145.5 C 228.444,143.045 240.944,147.378 251,158.5C 253.617,163.183 255.117,168.183 255.5,173.5C 249.167,173.5 242.833,173.5 236.5,173.5C 233.364,163.252 226.364,159.086 215.5,161C 207.041,163.415 203.874,168.915 206,177.5C 207.907,181.039 210.74,183.539 214.5,185C 223.259,187.357 231.926,190.023 240.5,193C 257.74,203.152 261.24,216.986 251,234.5C 240.337,245.162 227.504,248.995 212.5,246C 197.098,243.1 188.431,233.933 186.5,218.5C 192.798,217.504 199.132,217.17 205.5,217.5C 206.209,224.422 209.876,228.922 216.5,231C 221.572,231.751 226.572,231.418 231.5,230C 238.07,226.345 240.237,220.845 238,213.5C 237.215,211.714 236.049,210.214 234.5,209C 224.196,204.42 213.529,200.753 202.5,198C 189.981,191.133 185.148,180.633 188,166.5C 192.172,154.174 200.672,147.174 213.5,145.5 Z"/></g>
<g><path style="opacity:1" fill="#001f19" d="M 270.5,146.5 C 276.5,146.5 282.5,146.5 288.5,146.5C 288.5,152.833 288.5,159.167 288.5,165.5C 294.5,165.5 300.5,165.5 306.5,165.5C 304.19,170.668 301.19,175.502 297.5,180C 294.518,180.498 291.518,180.665 288.5,180.5C 288.333,196.17 288.5,211.837 289,227.5C 290.171,228.893 291.671,229.727 293.5,230C 298.202,230.172 302.868,230.672 307.5,231.5C 310.393,235.952 312.726,240.619 314.5,245.5C 304.45,245.831 294.45,245.331 284.5,244C 276.12,241.77 271.62,236.27 271,227.5C 270.5,211.837 270.333,196.17 270.5,180.5C 267.5,180.5 264.5,180.5 261.5,180.5C 261.5,175.5 261.5,170.5 261.5,165.5C 264.5,165.5 267.5,165.5 270.5,165.5C 270.5,159.167 270.5,152.833 270.5,146.5 Z"/></g>
<g><path style="opacity:1" fill="#001f18" d="M 347.5,165.5 C 358.185,165.558 367.351,169.224 375,176.5C 375.498,173.518 375.665,170.518 375.5,167.5C 381.5,167.5 387.5,167.5 393.5,167.5C 393.5,193.5 393.5,219.5 393.5,245.5C 387.5,245.5 381.5,245.5 375.5,245.5C 377.174,236.349 375.174,234.849 369.5,241C 350.744,250.709 334.244,247.876 320,232.5C 308.262,213.683 308.929,195.349 322,177.5C 329.236,170.63 337.736,166.63 347.5,165.5 Z M 348.5,181.5 C 365.478,181.143 374.478,189.477 375.5,206.5C 373.293,226.935 362.293,234.435 342.5,229C 329.445,218.847 326.612,206.347 334,191.5C 337.664,186.314 342.498,182.981 348.5,181.5 Z"/></g>
<g><path style="opacity:1" fill="#001f18" d="M 584.5,165.5 C 600.251,165.113 611.084,172.113 617,186.5C 618.438,206.12 618.938,225.787 618.5,245.5C 612.833,245.5 607.167,245.5 601.5,245.5C 601.944,228.111 601.444,210.777 600,193.5C 597.39,185.23 591.724,181.23 583,181.5C 574.698,181.15 569.031,184.817 566,192.5C 564.555,210.111 564.055,227.777 564.5,245.5C 558.833,245.5 553.167,245.5 547.5,245.5C 547.5,219.5 547.5,193.5 547.5,167.5C 553.167,167.5 558.833,167.5 564.5,167.5C 564.337,169.857 564.503,172.19 565,174.5C 566.938,171.894 569.438,170.061 572.5,169C 576.623,167.808 580.623,166.641 584.5,165.5 Z"/></g>
<g><path style="opacity:1" fill="#001f18" d="M 408.5,167.5 C 413.833,167.5 419.167,167.5 424.5,167.5C 424.335,170.518 424.502,173.518 425,176.5C 430.661,169.121 438.161,166.121 447.5,167.5C 447.5,172.167 447.5,176.833 447.5,181.5C 437.438,181.112 430.271,185.445 426,194.5C 424.59,211.458 424.09,228.458 424.5,245.5C 419.167,245.5 413.833,245.5 408.5,245.5C 408.5,219.5 408.5,193.5 408.5,167.5 Z"/></g>
<g><path style="opacity:1" fill="#001f18" d="M 511.5,166.5 C 517.167,166.5 522.833,166.5 528.5,166.5C 528.5,192.833 528.5,219.167 528.5,245.5C 522.833,245.5 517.167,245.5 511.5,245.5C 511.5,219.167 511.5,192.833 511.5,166.5 Z"/></g>
<g><path style="opacity:1" fill="#42d4c7" d="M 162.5,201.5 C 166.139,203.655 169.806,205.822 173.5,208C 174.554,209.388 174.72,210.888 174,212.5C 158.883,248.734 143.217,284.734 127,320.5C 126.672,317.793 127.005,315.126 128,312.5C 139.43,275.382 150.93,238.382 162.5,201.5 Z"/></g>
<g><path style="opacity:1" fill="#5ccdc0" d="M 219.5,259.5 C 357.502,259.167 495.502,259.5 633.5,260.5C 627.537,261.496 621.537,261.829 615.5,261.5C 483.5,260.833 351.5,260.167 219.5,259.5 Z"/></g>
<g><path style="opacity:1" fill="#40d3c7" d="M 219.5,259.5 C 351.5,260.167 483.5,260.833 615.5,261.5C 491.358,267.66 367.024,273.16 242.5,278C 240.122,278.511 237.788,279.178 235.5,280C 205.39,295.389 175.057,310.222 144.5,324.5C 143.5,324.5 142.5,324.5 141.5,324.5C 141.371,322.784 141.038,321.117 140.5,319.5C 140.5,319.167 140.5,318.833 140.5,318.5C 141.167,318.5 141.5,318.167 141.5,317.5C 143.404,317.262 144.738,316.262 145.5,314.5C 170.494,296.663 195.16,278.33 219.5,259.5 Z"/></g>
</svg>
