<svg width="118" height="68" viewBox="0 0 118 68" fill="none" xmlns="http://www.w3.org/2000/svg">
<g clip-path="url(#clip0_15829_4815)">
<path d="M34.6895 -0.835663L23.9714 26.88L0.139282 25.5738L21.3626 22.0844L34.6895 -0.835663Z" fill="#42D8CB"/>
<path d="M70.3542 24.5362L44.6665 25.0694L34.9681 -0.696388L47.3701 20.9382L70.3542 24.5362Z" fill="#42D8CB"/>
<path d="M1.67175 26.1836L21.3152 35.4832L20.6095 37.7434L1.67175 26.1836Z" fill="#42D8CB"/>
<path d="M34.4108 1.11418L28.0372 26.88H25.9126L34.4108 1.11418Z" fill="#42D8CB"/>
<path d="M14.2101 64.3449L23.9622 41.9382L21.6469 40.5289L14.2101 64.3449Z" fill="#42D8CB"/>
<path d="M15.3247 65.0412L27.8596 52.228L30.51 52.3037L15.3246 65.0396L15.3247 65.0412Z" fill="#42D8CB"/>
<path d="M50.2928 19.777L47.9722 19.265L36.6399 0.557084L50.2928 19.777Z" fill="#42D8CB"/>
<path d="M20.2007 39.5052L12.4874 67.4089L15.7809 42.0394L0.417913 25.6265L20.2007 39.5052Z" fill="#42D8CB"/>
<path d="M118.975 52.228L37.3472 55.6543L12.2597 67.8267L33.3235 52.228H118.975Z" fill="#42D8CB"/>
<path d="M33.8003 49.3032C32.4626 49.3032 31.2586 49.0761 30.1884 48.6215C29.1182 48.1482 28.2773 47.4852 27.6658 46.6333C27.0543 45.781 26.7485 44.7869 26.7485 43.651H30.2457C30.3222 44.5029 30.6566 45.2037 31.249 45.7526C31.8606 46.3018 32.711 46.5764 33.8003 46.5764C34.9278 46.5764 35.8069 46.3111 36.4376 45.781C37.0682 45.2321 37.3835 44.5314 37.3835 43.6794C37.3835 43.0164 37.1829 42.4769 36.7816 42.0601C36.3994 41.6437 35.912 41.322 35.3196 41.0944C34.7463 40.8674 33.9436 40.6212 32.9117 40.3563C31.6121 40.0153 30.5515 39.6744 29.7298 39.3336C28.9271 38.9738 28.2391 38.4247 27.6658 37.6862C27.0925 36.9477 26.8058 35.9631 26.8058 34.7322C26.8058 33.5961 27.0925 32.602 27.6658 31.7499C28.2391 30.8978 29.0418 30.2445 30.0737 29.79C31.1057 29.3356 32.3001 29.1084 33.657 29.1084C35.5872 29.1084 37.1638 29.5912 38.3869 30.557C39.629 31.5037 40.3171 32.8103 40.4509 34.4766H36.8389C36.7816 33.7571 36.4376 33.1416 35.8069 32.6304C35.1763 32.1191 34.3449 31.8635 33.313 31.8635C32.3766 31.8635 31.6122 32.1002 31.0197 32.5736C30.4273 33.047 30.1311 33.7287 30.1311 34.6186C30.1311 35.2246 30.3126 35.7263 30.6757 36.124C31.0579 36.5027 31.5357 36.8057 32.109 37.0329C32.6824 37.2601 33.4659 37.5063 34.4596 37.7714C35.7783 38.1312 36.8485 38.4909 37.6702 38.8507C38.5111 39.2105 39.2183 39.7691 39.7914 40.5265C40.3838 41.2651 40.68 42.2592 40.68 43.5088C40.68 44.5123 40.403 45.4592 39.8487 46.3493C39.3136 47.239 38.5206 47.9589 37.4696 48.5078C36.4376 49.0379 35.2145 49.3032 33.8003 49.3032Z" fill="#00241C"/>
<path d="M47.2149 35.8592V44.6266C47.2149 45.2207 47.3482 45.652 47.6148 45.9205C47.9002 46.1696 48.3763 46.2938 49.0428 46.2938H51.0424L52.6611 49.0247H48.4717C47.0054 49.0247 45.8819 48.6797 45.1012 47.9902C44.3202 47.3003 43.93 46.1791 43.93 44.6266V35.8592H42.0732V33.1858H43.93V29.2477H47.2149V33.1858H51.0424L49.0428 35.8592H47.2149Z" fill="#00241C"/>
<path d="M52.3825 41.2245C52.3825 39.6669 52.7088 38.2877 53.3615 37.0866C54.0335 35.8857 54.9356 34.9568 56.0683 34.2999C57.2204 33.6244 58.4875 33.2866 59.8697 33.2866C61.1179 33.2866 62.2025 33.5306 63.124 34.0185C64.0648 34.4876 64.8136 35.0788 65.3705 35.7918V33.5399H68.6824V49.0496H65.3705V46.7414C64.8136 47.4734 64.0553 48.0833 63.0952 48.5713C62.1355 49.0592 61.041 49.3032 59.8122 49.3032C58.4493 49.3032 57.2011 48.9654 56.0683 48.2898C54.9356 47.5953 54.0335 46.6383 53.3615 45.4184C52.7088 44.18 52.3825 42.7822 52.3825 41.2245ZM65.3705 41.2808C65.3705 40.2111 65.14 39.2822 64.6792 38.4941C64.2378 37.7059 63.6521 37.1054 62.9226 36.6926C62.1931 36.2797 61.4056 36.0733 60.561 36.0733C59.7164 36.0733 58.9293 36.2797 58.1994 36.6926C57.4699 37.0866 56.8747 37.6778 56.414 38.4659C55.9726 39.2353 55.7519 40.1548 55.7519 41.2245C55.7519 42.2942 55.9726 43.2323 56.414 44.0395C56.8747 44.8463 57.4699 45.4655 58.1994 45.8971C58.9482 46.3098 59.7353 46.5164 60.561 46.5164C61.4056 46.5164 62.1931 46.3098 62.9226 45.8971C63.6521 45.4845 64.2378 44.8838 64.6792 44.0955C65.14 43.2887 65.3705 42.3506 65.3705 41.2808Z" fill="#00241C"/>
<path d="M75.2138 35.8101C75.6799 35.0245 76.2949 34.4166 77.0596 33.9864C77.8422 33.5375 78.7652 33.5655 79.8276 33.5655V36.1748H79.0167C77.7679 36.1748 76.8169 36.9417 76.1644 37.5777C75.5307 38.2136 75.2138 39.3172 75.2138 40.8884V49.0247H72.0259V33.5655H75.2138V35.8101Z" fill="#00241C"/>
<path d="M89.8583 36.0523H86.9356V49.0247H83.6403V36.0523H81.778V33.4182H83.6403V32.3136C83.6403 30.5197 84.118 29.2168 85.0733 28.4048C86.0474 27.574 87.5662 27.1585 89.6293 27.1585V29.8494C88.636 29.8494 87.9387 30.0382 87.5375 30.4158C87.1364 30.7746 86.9356 31.4072 86.9356 32.3136V33.4182H89.8583V36.0523Z" fill="#00241C"/>
<path d="M94.9572 31.3046C94.3814 31.3046 93.8983 31.1058 93.5082 30.7083C93.1181 30.3107 92.9232 29.8185 92.9232 29.2316C92.9232 28.6447 93.1181 28.1525 93.5082 27.7549C93.8983 27.3573 94.3814 27.1585 94.9572 27.1585C95.5143 27.1585 95.9883 27.3573 96.378 27.7549C96.7681 28.1525 96.9634 28.6447 96.9634 29.2316C96.9634 29.8185 96.7681 30.3107 96.378 30.7083C95.9883 31.1058 95.5143 31.3046 94.9572 31.3046ZM96.5176 33.3776V49.0247H93.3412V33.3776H96.5176Z" fill="#00241C"/>
<path d="M108.5 33.2866C109.734 33.2866 110.835 33.5395 111.803 34.0454C112.79 34.5513 113.559 35.3007 114.109 36.2937C114.66 37.2868 114.935 38.4858 114.935 39.8911V49.0247H111.718V40.369C111.718 38.9824 111.367 37.9238 110.665 37.1931C109.962 36.4436 109.003 36.0689 107.789 36.0689C106.574 36.0689 105.606 36.4436 104.885 37.1931C104.182 37.9238 103.831 38.9824 103.831 40.369V49.0247H100.586V33.5395H103.831V35.3101C104.363 34.6731 105.036 34.1766 105.853 33.8206C106.688 33.4646 107.57 33.2866 108.5 33.2866Z" fill="#00241C"/>
</g>
<defs>
<clipPath id="clip0_15829_4815">
<rect width="118" height="67.8268" fill="white"/>
</clipPath>
</defs>
</svg>
