<?xml version="1.0" encoding="UTF-8"?>
<!DOCTYPE svg PUBLIC "-//W3C//DTD SVG 1.1//EN" "http://www.w3.org/Graphics/SVG/1.1/DTD/svg11.dtd">
<svg xmlns="http://www.w3.org/2000/svg" version="1.1" width="300px" height="96px" style="shape-rendering:geometricPrecision; text-rendering:geometricPrecision; image-rendering:optimizeQuality; fill-rule:evenodd; clip-rule:evenodd" xmlns:xlink="http://www.w3.org/1999/xlink">
<g><path style="opacity:1" fill="#0ad67e" d="M 37.5,20.5 C 38.7899,21.0577 39.6232,22.0577 40,23.5C 40.2256,26.095 40.7256,28.595 41.5,31C 40.6832,34.3149 38.6832,36.4816 35.5,37.5C 34.8333,37.5 34.1667,37.5 33.5,37.5C 28.9739,35.6438 24.9739,32.9771 21.5,29.5C 21.5887,26.0609 22.9221,23.2276 25.5,21C 29.4862,20.5012 33.4862,20.3345 37.5,20.5 Z"/></g>
<g><path style="opacity:1" fill="#0febac" d="M 37.5,20.5 C 33.4862,20.3345 29.4862,20.5012 25.5,21C 22.9221,23.2276 21.5887,26.0609 21.5,29.5C 20.0687,30.7804 19.4021,32.4471 19.5,34.5C 16.9556,34.1043 14.7889,34.771 13,36.5C 12.3333,35.8333 11.6667,35.1667 11,34.5C 10.2825,35.4506 9.44915,35.6172 8.5,35C 6.50292,32.5084 5.50292,29.675 5.5,26.5C 10.1526,19.8477 14.9859,19.8477 20,26.5C 23.2564,19.4028 28.7564,16.9028 36.5,19C 37.056,19.3826 37.3893,19.8826 37.5,20.5 Z"/></g>
<g><path style="opacity:0.956" fill="#1c9551" d="M 73.5,43.5 C 72.1266,43.6567 70.7932,43.49 69.5,43C 66.174,37.3724 61.8406,36.2057 56.5,39.5C 52.0244,44.4801 52.6911,48.6468 58.5,52C 60.5,52.6667 62.5,52.6667 64.5,52C 66.8186,48.5356 69.8186,46.0356 73.5,44.5C 73.8333,44.5 74.1667,44.5 74.5,44.5C 75.3686,46.717 75.702,49.0504 75.5,51.5C 75.1667,51.5 74.8333,51.5 74.5,51.5C 72.8459,52.7503 71.1793,54.0837 69.5,55.5C 58.4198,59.5971 51.0865,56.2637 47.5,45.5C 50.6462,33.2865 58.3129,30.1199 70.5,36C 72.747,37.995 73.747,40.495 73.5,43.5 Z"/></g>
<g><path style="opacity:0.961" fill="#0a964e" d="M 136.5,56.5 C 135.167,56.5 133.833,56.5 132.5,56.5C 132.766,52.4295 132.433,48.4295 131.5,44.5C 129.473,42.661 127.14,42.161 124.5,43C 123.262,43.69 123.262,44.19 124.5,44.5C 122.657,48.1869 121.99,52.1869 122.5,56.5C 120.833,56.5 119.167,56.5 117.5,56.5C 117.5,49.1667 117.5,41.8333 117.5,34.5C 118.552,32.744 120.219,32.0773 122.5,32.5C 122.336,35.1873 122.503,37.854 123,40.5C 127.264,37.6551 131.264,37.9884 135,41.5C 136.388,46.3722 136.888,51.3722 136.5,56.5 Z"/></g>
<g><path style="opacity:0.934" fill="#129750" d="M 222.5,41.5 C 222.5,42.1667 222.5,42.8333 222.5,43.5C 222.167,43.5 221.833,43.5 221.5,43.5C 220.167,43.5 218.833,43.5 217.5,43.5C 217.439,40.2699 215.772,38.4365 212.5,38C 210.167,37.3333 207.833,37.3333 205.5,38C 204.944,38.3826 204.611,38.8826 204.5,39.5C 199.796,48.4794 202.463,52.6461 212.5,52C 214.605,50.8066 216.272,49.1399 217.5,47C 219.134,46.5065 220.801,46.3398 222.5,46.5C 222.51,50.5034 220.843,53.5034 217.5,55.5C 205.009,59.4409 198.009,55.1076 196.5,42.5C 198.654,36.162 203.154,33.162 210,33.5C 216.175,33.1967 220.342,35.8633 222.5,41.5 Z"/></g>
<g><path style="opacity:0.949" fill="#199651" d="M 276.5,57.5 C 274.717,56.545 272.717,55.8783 270.5,55.5C 261.656,57.9867 256.989,54.6534 256.5,45.5C 259.54,38.5611 264.373,36.8944 271,40.5C 271.287,38.1093 271.787,35.7759 272.5,33.5C 274.045,32.5481 275.712,32.2148 277.5,32.5C 277.826,41.0168 277.493,49.3501 276.5,57.5 Z M 263.5,44.5 C 268.175,43.3395 270.841,45.0061 271.5,49.5C 269.593,52.3324 266.927,53.1657 263.5,52C 262.221,49.5024 262.221,47.0024 263.5,44.5 Z"/></g>
<g><path style="opacity:1" fill="#41edc0" d="M 5.5,26.5 C 5.50292,29.675 6.50292,32.5084 8.5,35C 9.44915,35.6172 10.2825,35.4506 11,34.5C 11.6667,35.1667 12.3333,35.8333 13,36.5C 14.7889,34.771 16.9556,34.1043 19.5,34.5C 19.9195,36.0936 20.5862,37.5936 21.5,39C 19.3262,42.6611 16.9929,46.1611 14.5,49.5C 14.1667,49.5 13.8333,49.5 13.5,49.5C 13.8134,46.7531 13.48,44.0865 12.5,41.5C 11.0153,44.6629 8.68197,46.6629 5.5,47.5C 3.28947,46.8772 1.28947,45.8772 -0.5,44.5C -0.5,41.8333 -0.5,39.1667 -0.5,36.5C 6.67705,36.6948 7.67705,34.8614 2.5,31C 3.89689,29.6897 4.89689,28.1897 5.5,26.5 Z"/></g>
<g><path style="opacity:0.059" fill="#7d6d81" d="M 117.5,34.5 C 117.5,41.8333 117.5,49.1667 117.5,56.5C 119.167,56.5 120.833,56.5 122.5,56.5C 121.341,58.3769 119.674,58.8769 117.5,58C 116.62,56.6439 116.286,55.1439 116.5,53.5C 116.5,52.1667 116.5,50.8333 116.5,49.5C 116.179,44.3054 116.513,39.3054 117.5,34.5 Z"/></g>
<g><path style="opacity:0.897" fill="#1a9b53" d="M 151.5,42.5 C 148.302,41.9644 145.635,42.631 143.5,44.5C 144.388,47.0545 144.721,49.7212 144.5,52.5C 146.95,52.702 149.283,52.3686 151.5,51.5C 151.5,53.1667 151.5,54.8333 151.5,56.5C 148.15,56.665 144.817,56.4983 141.5,56C 140.944,55.6174 140.611,55.1174 140.5,54.5C 139.883,49.7305 139.216,45.0638 138.5,40.5C 138.5,40.1667 138.5,39.8333 138.5,39.5C 139.404,38.791 139.737,37.791 139.5,36.5C 140.882,34.102 142.549,33.9353 144.5,36C 144.043,36.414 143.709,36.914 143.5,37.5C 146.086,38.48 148.753,38.8134 151.5,38.5C 151.5,39.8333 151.5,41.1667 151.5,42.5 Z"/></g>
<g><path style="opacity:0.925" fill="#0b974f" d="M 299.5,38.5 C 299.5,39.8333 299.5,41.1667 299.5,42.5C 296.813,42.3359 294.146,42.5026 291.5,43C 292.056,43.3826 292.389,43.8826 292.5,44.5C 292.5,47.1667 292.5,49.8333 292.5,52.5C 294.95,52.702 297.283,52.3686 299.5,51.5C 299.5,53.1667 299.5,54.8333 299.5,56.5C 296.482,56.6646 293.482,56.498 290.5,56C 289.667,55.1667 288.833,54.3333 288,53.5C 287.825,48.9805 287.325,44.6472 286.5,40.5C 286.347,36.2015 288.347,34.2015 292.5,34.5C 292.5,35.8333 292.5,37.1667 292.5,38.5C 294.833,38.5 297.167,38.5 299.5,38.5 Z"/></g>
<g><path style="opacity:1" fill="#08e59f" d="M 21.5,29.5 C 24.9739,32.9771 28.9739,35.6438 33.5,37.5C 33.3893,38.1174 33.056,38.6174 32.5,39C 42.7968,41.8662 43.9635,46.6995 36,53.5C 33.638,49.5395 32.4714,45.2062 32.5,40.5C 29.1719,41.6463 25.8385,41.8129 22.5,41C 20.9544,43.2568 19.2877,45.4235 17.5,47.5C 17.8333,47.8333 18.1667,48.1667 18.5,48.5C 22.7732,47.2937 27.1065,46.7937 31.5,47C 30.5842,47.2784 29.9175,47.7784 29.5,48.5C 27.8828,49.038 26.2161,49.3713 24.5,49.5C 21.4824,49.7038 18.4824,50.0371 15.5,50.5C 14.8333,50.5 14.5,50.1667 14.5,49.5C 16.9929,46.1611 19.3262,42.6611 21.5,39C 20.5862,37.5936 19.9195,36.0936 19.5,34.5C 19.4021,32.4471 20.0687,30.7804 21.5,29.5 Z"/></g>
<g><path style="opacity:0.682" fill="#334749" d="M 279.5,36.5 C 281.086,37.1481 282.753,37.6481 284.5,38C 283.207,38.49 281.873,38.6567 280.5,38.5C 279.662,38.1583 279.328,37.4916 279.5,36.5 Z"/></g>
<g><path style="opacity:0.114" fill="#707069" d="M 139.5,36.5 C 139.737,37.791 139.404,38.791 138.5,39.5C 138.062,39.5654 137.728,39.3988 137.5,39C 138.066,38.0053 138.733,37.172 139.5,36.5 Z"/></g>
<g><path style="opacity:0.251" fill="#455659" d="M 221.5,43.5 C 220.054,44.6129 218.387,44.7796 216.5,44C 215.743,42.4878 214.743,41.1545 213.5,40C 210.518,39.502 207.518,39.3354 204.5,39.5C 204.611,38.8826 204.944,38.3826 205.5,38C 207.833,37.3333 210.167,37.3333 212.5,38C 215.772,38.4365 217.439,40.2699 217.5,43.5C 218.833,43.5 220.167,43.5 221.5,43.5 Z"/></g>
<g><path style="opacity:0.204" fill="#465c5d" d="M 73.5,43.5 C 73.5,43.8333 73.5,44.1667 73.5,44.5C 71.5,44.5 69.5,44.5 67.5,44.5C 67.4386,42.4078 66.4386,40.9078 64.5,40C 61.854,39.5026 59.1873,39.3359 56.5,39.5C 61.8406,36.2057 66.174,37.3724 69.5,43C 70.7932,43.49 72.1266,43.6567 73.5,43.5 Z"/></g>
<g><path style="opacity:0.928" fill="#0a974e" d="M 94.5,56.5 C 92.5082,56.6715 90.8415,56.0049 89.5,54.5C 88.8933,54.6236 88.56,54.9569 88.5,55.5C 85.5547,56.4675 82.5547,56.6342 79.5,56C 77.249,55.2525 75.9156,53.7525 75.5,51.5C 75.702,49.0504 75.3686,46.717 74.5,44.5C 77.9701,38.4452 82.8035,37.1119 89,40.5C 90.4659,38.6751 92.2992,38.1751 94.5,39C 95.8253,44.9323 95.8253,50.7657 94.5,56.5 Z M 81.5,44.5 C 86.0409,44.1472 88.7076,45.8139 89.5,49.5C 87.5935,52.3324 84.9268,53.1657 81.5,52C 78.9327,49.4612 78.9327,46.9612 81.5,44.5 Z"/></g>
<g><path style="opacity:0.926" fill="#0c954e" d="M 115.5,45.5 C 112.251,44.749 109.085,43.749 106,42.5C 104.272,42.4537 102.772,42.9537 101.5,44C 102.094,44.4643 102.761,44.631 103.5,44.5C 105.265,45.4614 107.265,45.7947 109.5,45.5C 110.708,46.2341 112.041,46.5674 113.5,46.5C 114.5,47.5 115.5,48.5 116.5,49.5C 116.5,50.8333 116.5,52.1667 116.5,53.5C 115.833,54.1667 115.167,54.8333 114.5,55.5C 110.204,56.4625 105.871,56.6292 101.5,56C 99.313,54.975 97.6464,53.475 96.5,51.5C 96.8333,50.5 97.5,49.8333 98.5,49.5C 98.5,50.1667 98.8333,50.5 99.5,50.5C 100.167,50.5 100.833,50.5 101.5,50.5C 103.998,53.2176 106.998,53.8843 110.5,52.5C 111.774,51.8106 111.774,50.9772 110.5,50C 107.167,49.6667 103.833,49.3333 100.5,49C 98.9297,47.6032 97.5964,46.1032 96.5,44.5C 97.9199,40.2808 100.92,38.2808 105.5,38.5C 111.037,37.9757 114.371,40.309 115.5,45.5 Z M 109.5,45.5 C 107.265,45.7947 105.265,45.4614 103.5,44.5C 105.672,43.5517 107.672,43.885 109.5,45.5 Z M 101.5,50.5 C 104.655,50.9896 107.655,51.6562 110.5,52.5C 106.998,53.8843 103.998,53.2176 101.5,50.5 Z"/></g>
<g><path style="opacity:0.952" fill="#09964d" d="M 172.5,57.5 C 170.81,56.8969 169.31,55.8969 168,54.5C 157.921,58.9311 153.088,55.5977 153.5,44.5C 153.088,55.5977 157.921,58.9311 168,54.5C 169.31,55.8969 170.81,56.8969 172.5,57.5 Z M 159.5,44.5 C 163.621,43.6581 166.621,44.9915 168.5,48.5C 166.562,52.1692 163.562,53.3359 159.5,52C 158.221,49.5024 158.221,47.0024 159.5,44.5 Z"/></g>
<g><path style="opacity:0.962" fill="#0b944d" d="M 195.5,43.5 C 195.819,48.3633 195.486,53.03 194.5,57.5C 193.432,56.5655 192.099,56.2322 190.5,56.5C 190.666,52.4862 190.499,48.4862 190,44.5C 187.607,41.9588 185.44,41.9588 183.5,44.5C 182.778,44.9175 182.278,45.5842 182,46.5C 181.502,49.8168 181.335,53.1501 181.5,56.5C 179.833,56.5 178.167,56.5 176.5,56.5C 176.821,50.9738 176.488,45.6405 175.5,40.5C 177.608,37.9186 179.774,37.9186 182,40.5C 187.513,37.2771 192.013,38.2771 195.5,43.5 Z"/></g>
<g><path style="opacity:0.908" fill="#189a53" d="M 238.5,42.5 C 238.5,43.1667 238.167,43.5 237.5,43.5C 234.875,42.0761 232.542,42.4094 230.5,44.5C 229.891,48.6047 229.225,52.6047 228.5,56.5C 227.167,56.5 225.833,56.5 224.5,56.5C 224.666,51.8215 224.499,47.1548 224,42.5C 223.722,41.5842 223.222,40.9175 222.5,40.5C 224.44,37.9588 226.607,37.9588 229,40.5C 231.565,38.8207 234.398,38.154 237.5,38.5C 237.232,40.099 237.566,41.4324 238.5,42.5 Z"/></g>
<g><path style="opacity:0.935" fill="#0a964f" d="M 256.5,46.5 C 256.5,47.5 256.5,48.5 256.5,49.5C 251.489,49.3341 246.489,49.5007 241.5,50C 242.416,50.2784 243.082,50.7784 243.5,51.5C 246.5,52.8333 249.5,52.8333 252.5,51.5C 253.5,51.5 254.5,51.5 255.5,51.5C 255.5,51.8333 255.5,52.1667 255.5,52.5C 255.5,53.1667 255.5,53.8333 255.5,54.5C 255.5,55.1667 255.167,55.5 254.5,55.5C 250.554,56.5269 246.554,56.6936 242.5,56C 238.345,54.1893 236.345,51.0226 236.5,46.5C 236.5,46.1667 236.5,45.8333 236.5,45.5C 236.833,44.8333 237.167,44.1667 237.5,43.5C 238.167,43.5 238.5,43.1667 238.5,42.5C 243.199,37.528 248.365,37.1946 254,41.5C 254.757,43.3146 255.59,44.9812 256.5,46.5 Z"/></g>
<g><path style="opacity:1" fill="#36efbd" d="M 33.5,37.5 C 34.1667,37.5 34.8333,37.5 35.5,37.5C 43.9155,42.0749 44.5822,47.5749 37.5,54C 35.5273,54.4955 33.5273,54.6621 31.5,54.5C 31.5,54.1667 31.5,53.8333 31.5,53.5C 31.9227,51.2188 31.256,49.5521 29.5,48.5C 29.9175,47.7784 30.5842,47.2784 31.5,47C 27.1065,46.7937 22.7732,47.2937 18.5,48.5C 18.1667,48.1667 17.8333,47.8333 17.5,47.5C 19.2877,45.4235 20.9544,43.2568 22.5,41C 25.8385,41.8129 29.1719,41.6463 32.5,40.5C 32.4714,45.2062 33.638,49.5395 36,53.5C 43.9635,46.6995 42.7968,41.8662 32.5,39C 33.056,38.6174 33.3893,38.1174 33.5,37.5 Z"/></g>
<g><path style="opacity:0.094" fill="#726777" d="M 175.5,40.5 C 176.488,45.6405 176.821,50.9738 176.5,56.5C 178.167,56.5 179.833,56.5 181.5,56.5C 180.068,58.6469 178.235,58.9802 176,57.5C 175.501,51.8431 175.334,46.1764 175.5,40.5 Z"/></g>
<g><path style="opacity:0.173" fill="#383343" d="M 280.5,39.5 C 280.5,45.1667 280.5,50.8333 280.5,56.5C 282.099,56.2322 283.432,56.5655 284.5,57.5C 283.116,58.8009 281.616,58.8009 280,57.5C 279.181,51.3188 279.347,45.3188 280.5,39.5 Z"/></g>
<g><path style="opacity:0.153" fill="#209857" d="M 284.5,57.5 C 283.432,56.5655 282.099,56.2322 280.5,56.5C 280.5,50.8333 280.5,45.1667 280.5,39.5C 280.5,39.1667 280.5,38.8333 280.5,38.5C 281.873,38.6567 283.207,38.49 284.5,38C 282.753,37.6481 281.086,37.1481 279.5,36.5C 279.062,36.5654 278.728,36.3988 278.5,36C 279.741,32.6509 281.908,31.8176 285,33.5C 285.823,41.6775 285.656,49.6775 284.5,57.5 Z"/></g>
<g><path style="opacity:0.624" fill="#276a4e" d="M 138.5,40.5 C 139.216,45.0638 139.883,49.7305 140.5,54.5C 139.833,54.5 139.167,54.5 138.5,54.5C 138.401,49.5241 138.401,44.8574 138.5,40.5 Z"/></g>
<g><path style="opacity:0.318" fill="#415655" d="M 286.5,40.5 C 287.325,44.6472 287.825,48.9805 288,53.5C 288.833,54.3333 289.667,55.1667 290.5,56C 293.482,56.498 296.482,56.6646 299.5,56.5C 299.5,56.8333 299.5,57.1667 299.5,57.5C 295.476,59.0907 291.643,58.7573 288,56.5C 286.603,51.2919 286.103,45.9586 286.5,40.5 Z"/></g>
<g><path style="opacity:0.682" fill="#395751" d="M 249.5,45.5 C 247.393,44.5318 245.059,44.1984 242.5,44.5C 243.312,43.0069 244.645,42.3402 246.5,42.5C 248.922,42.2569 250.588,43.2569 251.5,45.5C 251.03,46.463 250.363,46.463 249.5,45.5 Z"/></g>
<g><path style="opacity:0.851" fill="#385750" d="M 299.5,42.5 C 299.5,43.1667 299.5,43.8333 299.5,44.5C 297.167,44.5 294.833,44.5 292.5,44.5C 292.389,43.8826 292.056,43.3826 291.5,43C 294.146,42.5026 296.813,42.3359 299.5,42.5 Z"/></g>
<g><path style="opacity:0.11" fill="#545961" d="M 151.5,42.5 C 149.365,44.369 146.698,45.0356 143.5,44.5C 145.635,42.631 148.302,41.9644 151.5,42.5 Z"/></g>
<g><path style="opacity:0.863" fill="#364d4b" d="M 168.5,48.5 C 166.621,44.9915 163.621,43.6581 159.5,44.5C 163.061,41.6266 166.228,42.2932 169,46.5C 169.692,47.4368 169.525,48.1034 168.5,48.5 Z"/></g>
<g><path style="opacity:0.11" fill="#58686b" d="M 237.5,43.5 C 237.167,44.1667 236.833,44.8333 236.5,45.5C 234.565,44.8505 232.565,44.5172 230.5,44.5C 232.542,42.4094 234.875,42.0761 237.5,43.5 Z"/></g>
<g><path style="opacity:0.863" fill="#394e4c" d="M 271.5,49.5 C 270.841,45.0061 268.175,43.3395 263.5,44.5C 267.642,41.4374 270.975,42.4374 273.5,47.5C 273.145,48.5223 272.478,49.189 271.5,49.5 Z"/></g>
<g><path style="opacity:0.451" fill="#4a605d" d="M 89.5,49.5 C 88.7076,45.8139 86.0409,44.1472 81.5,44.5C 83.4013,42.1259 85.7346,41.9593 88.5,44C 90.5532,45.6779 90.8866,47.5112 89.5,49.5 Z"/></g>
<g><path style="opacity:1" fill="#a5f4de" d="M 13.5,49.5 C 13.1667,49.5 12.8333,49.5 12.5,49.5C 11.8826,49.6107 11.3826,49.944 11,50.5C 9.51235,48.84 7.67901,47.84 5.5,47.5C 8.68197,46.6629 11.0153,44.6629 12.5,41.5C 13.48,44.0865 13.8134,46.7531 13.5,49.5 Z"/></g>
<g><path style="opacity:0.318" fill="#425657" d="M 115.5,45.5 C 115.158,46.3382 114.492,46.6716 113.5,46.5C 112.041,46.5674 110.708,46.2341 109.5,45.5C 107.672,43.885 105.672,43.5517 103.5,44.5C 102.761,44.631 102.094,44.4643 101.5,44C 102.772,42.9537 104.272,42.4537 106,42.5C 109.085,43.749 112.251,44.749 115.5,45.5 Z"/></g>
<g><path style="opacity:0.518" fill="#3e6758" d="M 222.5,40.5 C 223.222,40.9175 223.722,41.5842 224,42.5C 224.499,47.1548 224.666,51.8215 224.5,56.5C 225.833,56.5 227.167,56.5 228.5,56.5C 227.365,58.2132 225.698,58.8799 223.5,58.5C 223.779,53.4053 223.445,48.4053 222.5,43.5C 222.5,42.8333 222.5,42.1667 222.5,41.5C 222.5,41.1667 222.5,40.8333 222.5,40.5 Z"/></g>
<g><path style="opacity:0.251" fill="#3d4f51" d="M 96.5,44.5 C 97.5964,46.1032 98.9297,47.6032 100.5,49C 103.833,49.3333 107.167,49.6667 110.5,50C 111.774,50.9772 111.774,51.8106 110.5,52.5C 107.655,51.6562 104.655,50.9896 101.5,50.5C 100.833,50.5 100.167,50.5 99.5,50.5C 98.8333,50.5 98.5,50.1667 98.5,49.5C 97.0582,48.1805 96.3915,46.5138 96.5,44.5 Z"/></g>
<g><path style="opacity:0.078" fill="#524a59" d="M 194.5,57.5 C 193.116,58.8009 191.616,58.8009 190,57.5C 189.793,53.9106 189.293,50.4106 188.5,47C 188.833,46.6667 189.167,46.3333 189.5,46C 187.655,44.872 185.655,44.372 183.5,44.5C 185.44,41.9588 187.607,41.9588 190,44.5C 190.499,48.4862 190.666,52.4862 190.5,56.5C 192.099,56.2322 193.432,56.5655 194.5,57.5 Z"/></g>
<g><path style="opacity:0.031" fill="#573f54" d="M 130.5,46.5 C 131.167,49.8333 131.833,53.1667 132.5,56.5C 133.833,56.5 135.167,56.5 136.5,56.5C 135.068,58.6469 133.235,58.9802 131,57.5C 130.501,53.8484 130.335,50.1817 130.5,46.5 Z"/></g>
<g><path style="opacity:0.765" fill="#2a5b46" d="M 132.5,56.5 C 131.833,53.1667 131.167,49.8333 130.5,46.5C 129.01,44.7202 127.01,44.0535 124.5,44.5C 123.262,44.19 123.262,43.69 124.5,43C 127.14,42.161 129.473,42.661 131.5,44.5C 132.433,48.4295 132.766,52.4295 132.5,56.5 Z"/></g>
<g><path style="opacity:0.624" fill="#3f5152" d="M 47.5,45.5 C 51.0865,56.2637 58.4198,59.5971 69.5,55.5C 58.7734,61.1419 51.1067,58.3086 46.5,47C 47.056,46.6174 47.3893,46.1174 47.5,45.5 Z"/></g>
<g><path style="opacity:1" fill="#21e7b2" d="M 29.5,48.5 C 31.256,49.5521 31.9227,51.2188 31.5,53.5C 30.1667,53.8333 30.1667,54.1667 31.5,54.5C 32.3273,61.5027 29.3273,64.0027 22.5,62C 20.8834,60.9085 19.8834,59.4085 19.5,57.5C 19.7711,56.4481 19.9378,55.1147 20,53.5C 21.6667,52.2668 23.1667,50.9335 24.5,49.5C 26.2161,49.3713 27.8828,49.038 29.5,48.5 Z"/></g>
<g><path style="opacity:0.451" fill="#3a4f4f" d="M 96.5,51.5 C 97.6464,53.475 99.313,54.975 101.5,56C 105.871,56.6292 110.204,56.4625 114.5,55.5C 113.878,56.6266 113.045,57.6266 112,58.5C 109.031,58.4806 105.865,58.3139 102.5,58C 98.9005,57.2364 96.9005,55.0698 96.5,51.5 Z"/></g>
<g><path style="opacity:0.659" fill="#4d6b67" d="M 256.5,45.5 C 256.989,54.6534 261.656,57.9867 270.5,55.5C 272.717,55.8783 274.717,56.545 276.5,57.5C 274.511,58.8866 272.678,58.5532 271,56.5C 267.715,58.3758 264.382,59.0424 261,58.5C 259.287,57.1218 257.953,55.4552 257,53.5C 256.617,54.056 256.117,54.3893 255.5,54.5C 255.5,53.8333 255.5,53.1667 255.5,52.5C 256.644,51.1507 256.644,50.8174 255.5,51.5C 254.5,51.5 253.5,51.5 252.5,51.5C 249.5,51.5 246.5,51.5 243.5,51.5C 243.082,50.7784 242.416,50.2784 241.5,50C 246.489,49.5007 251.489,49.3341 256.5,49.5C 256.5,48.5 256.5,47.5 256.5,46.5C 256.5,46.1667 256.5,45.8333 256.5,45.5 Z"/></g>
<g><path style="opacity:0.318" fill="#445758" d="M 236.5,46.5 C 236.345,51.0226 238.345,54.1893 242.5,56C 246.554,56.6936 250.554,56.5269 254.5,55.5C 250.297,58.8344 245.63,59.3344 240.5,57C 235.723,54.7012 234.389,51.2012 236.5,46.5 Z"/></g>
<g><path style="opacity:0.925" fill="#9df1da" d="M 24.5,49.5 C 23.1667,50.9335 21.6667,52.2668 20,53.5C 19.9378,55.1147 19.7711,56.4481 19.5,57.5C 18.3172,56.4955 16.9839,55.6622 15.5,55C 16.1712,54.0138 16.1712,52.8471 15.5,51.5C 15.5,51.1667 15.5,50.8333 15.5,50.5C 18.4824,50.0371 21.4824,49.7038 24.5,49.5 Z"/></g>
<g><path style="opacity:0.584" fill="#4d535a" d="M 138.5,54.5 C 139.167,54.5 139.833,54.5 140.5,54.5C 140.611,55.1174 140.944,55.6174 141.5,56C 144.817,56.4983 148.15,56.665 151.5,56.5C 151.082,57.2216 150.416,57.7216 149.5,58C 144.819,59.4811 141.152,58.3144 138.5,54.5 Z"/></g>
<g><path style="opacity:0.788" fill="#405354" d="M 74.5,51.5 C 74.8333,51.5 75.1667,51.5 75.5,51.5C 75.9156,53.7525 77.249,55.2525 79.5,56C 82.5547,56.6342 85.5547,56.4675 88.5,55.5C 84.9048,59.0914 80.9048,59.4248 76.5,56.5C 75.0499,55.1502 74.3832,53.4835 74.5,51.5 Z"/></g>
<g><path style="opacity:0.682" fill="#464750" d="M 88.5,55.5 C 88.56,54.9569 88.8933,54.6236 89.5,54.5C 90.8415,56.0049 92.5082,56.6715 94.5,56.5C 93.3646,58.2132 91.698,58.8799 89.5,58.5C 89.7373,57.209 89.404,56.209 88.5,55.5 Z"/></g>
<g><path style="opacity:0.898" fill="#495959" d="M 153.5,44.5 C 153.088,55.5977 157.921,58.9311 168,54.5C 169.31,55.8969 170.81,56.8969 172.5,57.5C 170.511,58.8866 168.678,58.5532 167,56.5C 160.184,59.8381 155.017,58.1714 151.5,51.5C 152.065,49.0479 152.732,46.7146 153.5,44.5 Z"/></g>
<g><path style="opacity:0.141" fill="#445858" d="M 195.5,43.5 C 195.5,42.8333 195.833,42.5 196.5,42.5C 198.009,55.1076 205.009,59.4409 217.5,55.5C 212.092,59.3022 206.426,59.4689 200.5,56C 198.951,54.786 197.785,53.286 197,51.5C 196.817,48.6353 196.317,45.9686 195.5,43.5 Z"/></g>
<g><path style="opacity:0.514" fill="#29bf96" d="M 76.5,65.5 C 78.5,65.5 80.5,65.5 82.5,65.5C 82.5,68.1667 82.5,70.8333 82.5,73.5C 81.5,73.5 80.5,73.5 79.5,73.5C 79.6621,71.4727 79.4955,69.4727 79,67.5C 78.654,69.2182 78.154,70.8849 77.5,72.5C 76.5,73.8333 75.5,73.8333 74.5,72.5C 75.3249,70.1987 75.9916,67.8654 76.5,65.5 Z"/></g>
<g><path style="opacity:0.588" fill="#34bf98" d="M 55.5,64.5 C 60.5728,65.8848 61.5728,68.7181 58.5,73C 52.9202,74.261 51.0868,72.0943 53,66.5C 53.9947,65.9341 54.828,65.2674 55.5,64.5 Z M 55.5,67.5 C 56.5862,67.62 57.2528,68.2867 57.5,69.5C 56.6964,71.9573 55.6964,71.9573 54.5,69.5C 54.8627,68.8165 55.1961,68.1499 55.5,67.5 Z"/></g>
<g><path style="opacity:0.51" fill="#37be97" d="M 98.5,63.5 C 100.451,63.2267 101.951,63.8934 103,65.5C 103.89,68.7055 103.557,71.7055 102,74.5C 101.333,73.8333 100.667,73.1667 100,72.5C 97.1057,73.6148 95.939,72.4481 96.5,69C 96.9209,67.0107 97.5876,65.1773 98.5,63.5 Z"/></g>
<g><path style="opacity:0.588" fill="#14b68c" d="M 136.5,65.5 C 138.467,65.2606 140.301,65.5939 142,66.5C 142.847,69.4904 141.68,70.8238 138.5,70.5C 138.719,71.675 138.386,72.675 137.5,73.5C 136.52,70.9135 136.187,68.2469 136.5,65.5 Z"/></g>
<g><path style="opacity:0.51" fill="#23bb91" d="M 247.5,65.5 C 248.5,65.5 249.5,65.5 250.5,65.5C 250.756,67.9372 251.423,70.2706 252.5,72.5C 250.956,73.6224 249.623,73.289 248.5,71.5C 247.191,73.8912 246.191,73.8912 245.5,71.5C 246.178,69.484 246.844,67.484 247.5,65.5 Z"/></g>
<g><path style="opacity:0.478" fill="#2bb68b" d="M 167.5,65.5 C 169.124,65.3601 170.29,66.0267 171,67.5C 171.689,66.6433 172.522,65.9767 173.5,65.5C 174.48,68.0865 174.813,70.7531 174.5,73.5C 172.239,72.5908 170.072,72.2575 168,72.5C 167.503,70.1902 167.337,67.8568 167.5,65.5 Z"/></g>
<g><path style="opacity:0.51" fill="#42c19d" d="M 178.5,65.5 C 180.924,65.1924 183.257,65.5258 185.5,66.5C 183.827,68.5225 183.16,70.8559 183.5,73.5C 182.5,73.5 181.5,73.5 180.5,73.5C 180.635,70.5825 179.968,67.9158 178.5,65.5 Z"/></g>
<g><path style="opacity:0.408" fill="#36a978" d="M 265.5,66.5 C 268.024,65.1997 270.691,65.1997 273.5,66.5C 272.675,67.3857 271.675,67.719 270.5,67.5C 270.852,70.0728 270.352,72.4062 269,74.5C 268.5,74 268,73.5 267.5,73C 267.833,71.3333 268.167,69.6667 268.5,68C 267.473,67.4867 266.473,66.9867 265.5,66.5 Z"/></g>
<g><path style="opacity:0.318" fill="#2cbd94" d="M 88.5,65.5 C 89.5,65.5 90.5,65.5 91.5,65.5C 91.7563,67.9372 92.4229,70.2706 93.5,72.5C 92.0013,74.8022 90.668,74.4689 89.5,71.5C 88.1914,73.8912 87.1914,73.8912 86.5,71.5C 86.9766,69.4035 87.6433,67.4035 88.5,65.5 Z"/></g>
<g><path style="opacity:0.741" fill="#2bbd93" d="M 146.5,65.5 C 148.604,65.2011 150.604,65.5344 152.5,66.5C 151.271,67.2811 149.938,67.7811 148.5,68C 152.5,69 152.5,70 148.5,71C 149.938,71.2189 151.271,71.7189 152.5,72.5C 150.5,73.8333 148.5,73.8333 146.5,72.5C 146.481,70.1385 146.481,67.8052 146.5,65.5 Z"/></g>
<g><path style="opacity:0.355" fill="#25bb93" d="M 256.5,65.5 C 258.5,65.5 260.5,65.5 262.5,65.5C 263.244,68.9496 261.91,70.6162 258.5,70.5C 258.5,71.5 258.5,72.5 258.5,73.5C 257.448,73.6495 256.448,73.4828 255.5,73C 256.435,70.6194 256.768,68.1194 256.5,65.5 Z"/></g>
<g><path style="opacity:0.549" fill="#2dbc94" d="M 286.5,65.5 C 288.124,65.3601 289.29,66.0267 290,67.5C 291.185,65.4407 292.352,65.274 293.5,67C 290.161,75.6873 287.827,75.1873 286.5,65.5 Z"/></g>
<g><path style="opacity:0.258" fill="#2cb990" d="M 108.5,65.5 C 109.859,66.0065 110.859,67.0065 111.5,68.5C 112.167,67.5 112.833,66.5 113.5,65.5C 114.655,68.4459 114.821,71.4459 114,74.5C 113.077,73.2412 112.243,71.9079 111.5,70.5C 110.614,71.325 110.281,72.325 110.5,73.5C 109.448,73.6495 108.448,73.4828 107.5,73C 108.23,70.3986 108.563,67.8986 108.5,65.5 Z"/></g>
<g><path style="opacity:0.476" fill="#2fc099" d="M 125.5,65.5 C 127.821,66.6249 130.154,66.7916 132.5,66C 131.5,67 130.5,68 129.5,69C 130.687,70.0195 131.687,71.1861 132.5,72.5C 130.204,72.3242 127.871,72.6575 125.5,73.5C 125.5,70.8333 125.5,68.1667 125.5,65.5 Z"/></g>
<g><path style="opacity:0.475" fill="#24bb8f" d="M 189.5,65.5 C 190.931,65.8807 191.764,66.8807 192,68.5C 192.589,66.1367 194.089,65.1367 196.5,65.5C 196.5,68.1667 196.5,70.8333 196.5,73.5C 194.876,73.6399 193.71,72.9733 193,71.5C 192.311,72.3567 191.478,73.0233 190.5,73.5C 189.52,70.9135 189.187,68.2469 189.5,65.5 Z"/></g>
<g><path style="opacity:0.459" fill="#44bf9a" d="M 206.5,65.5 C 207.5,65.5 208.5,65.5 209.5,65.5C 210.004,69.3354 211.004,69.3354 212.5,65.5C 213.48,68.0865 213.813,70.7531 213.5,73.5C 212.448,73.6495 211.448,73.4828 210.5,73C 211.654,72.0862 211.487,71.2529 210,70.5C 209.667,71.5 209.333,72.5 209,73.5C 208.333,74.8333 207.667,74.8333 207,73.5C 206.503,70.854 206.336,68.1873 206.5,65.5 Z"/></g>
<g><path style="opacity:0.549" fill="#3dbf9a" d="M 276.5,65.5 C 278.331,66.0522 279.997,66.0522 281.5,65.5C 282.594,66.868 282.26,68.0347 280.5,69C 281.687,70.0195 282.687,71.1861 283.5,72.5C 281.204,72.3242 278.871,72.6575 276.5,73.5C 276.5,70.8333 276.5,68.1667 276.5,65.5 Z"/></g>
<g><path style="opacity:0.859" fill="#2ece98" d="M 12.5,49.5 C 12.8333,49.5 13.1667,49.5 13.5,49.5C 13.8333,49.5 14.1667,49.5 14.5,49.5C 14.5,50.1667 14.8333,50.5 15.5,50.5C 15.5,50.8333 15.5,51.1667 15.5,51.5C 11.3227,56.5742 10.6561,62.0742 13.5,68C 16.5999,69.7553 19.9332,70.5886 23.5,70.5C 29.5859,69.9301 35.5859,68.9301 41.5,67.5C 41.6399,69.1238 40.9733,70.2904 39.5,71C 31.4035,73.2532 23.4035,73.9199 15.5,73C 8.81161,69.4408 6.64495,63.9408 9,56.5C 10.2673,54.1856 11.434,51.8522 12.5,49.5 Z"/></g>
<g><path style="opacity:0.355" fill="#23bd94" d="M 64.5,65.5 C 65.8589,66.0065 66.8589,67.0065 67.5,68.5C 66.9836,67.2418 67.6503,66.2418 69.5,65.5C 70.8333,68.1667 70.8333,70.8333 69.5,73.5C 68.1667,69.5 66.8333,69.5 65.5,73.5C 64.52,70.9135 64.1866,68.2469 64.5,65.5 Z"/></g>
<g><path style="opacity:0.51" fill="#1ebc91" d="M 219.5,65.5 C 220.822,65.33 221.989,65.6634 223,66.5C 224.345,68.8297 224.512,71.1631 223.5,73.5C 222.106,71.016 220.606,71.016 219,73.5C 218.5,73.1667 218,72.8333 217.5,72.5C 218.577,70.2706 219.244,67.9372 219.5,65.5 Z"/></g>
<g><path style="opacity:0.588" fill="#2eba8f" d="M 240.5,64.5 C 241.712,66.2637 241.379,67.9303 239.5,69.5C 242.217,73.2787 241.717,73.9454 238,71.5C 237.692,72.3081 237.192,72.9747 236.5,73.5C 235.779,71.314 235.113,69.1474 234.5,67C 236.736,66.7355 238.736,65.9021 240.5,64.5 Z"/></g>
<g><path style="opacity:0.2" fill="#1db88f" d="M 157.5,65.5 C 159.5,65.5 161.5,65.5 163.5,65.5C 163.5,68.1667 163.5,70.8333 163.5,73.5C 161.076,73.8076 158.743,73.4742 156.5,72.5C 156.469,69.9777 156.802,67.6444 157.5,65.5 Z M 159.5,67.5 C 160.586,67.62 161.253,68.2867 161.5,69.5C 161.167,70.1667 160.833,70.8333 160.5,71.5C 159.571,70.3112 159.238,68.9778 159.5,67.5 Z"/></g>
</svg>
