<svg width="169" height="29" viewBox="0 0 169 29" fill="none" xmlns="http://www.w3.org/2000/svg">
  <path d="M19.8401 4.16669C19.0753 2.75723 17.8425 1.65891 16.3544 1.06122C14.827 0.416892 12.8982 0.0947266 10.5681 0.0947266H0V28.1802H5.67539V4.75292H10.4033C12.1293 4.75292 13.363 5.14691 14.1045 5.9349C14.846 6.72288 15.2147 8.05274 15.2104 9.92447C15.2104 11.7349 14.8407 13.0986 14.1013 14.0154C13.3619 14.9323 12.1293 15.3907 10.4033 15.3907H8.55587V20.0394H10.5649C12.8887 20.0394 14.8207 19.6898 16.3607 18.9905C17.8649 18.3254 19.0953 17.1644 19.8464 15.7013C20.626 14.2056 21.0168 12.2662 21.0189 9.88327C21.021 7.50031 20.6281 5.59478 19.8401 4.16669Z" fill="#003680"/>
  <path d="M37.0981 21.0851L39.8835 28.1802H45.8473L42.5073 20.0679C40.8133 20.8403 38.957 21.1894 37.0981 21.0851ZM41.9686 17.2318C43.1646 16.6048 44.1383 15.6245 44.7572 14.4242C45.4839 13.0426 45.8473 11.3367 45.8473 9.30655C45.8473 7.00385 45.4702 5.18071 44.716 3.83713C43.9668 2.49229 42.7536 1.46615 41.3032 0.950313C39.7821 0.379922 37.8977 0.0947266 35.65 0.0947266H24.6699V28.1802H30.3453V18.7624H36.1855C38.0045 18.6918 39.7913 18.2609 41.4426 17.4948C41.62 17.4093 41.7943 17.3237 41.9686 17.2318ZM39.6364 11.8448C39.3862 12.543 38.9085 13.1368 38.2801 13.5306C37.5176 13.962 36.6486 14.1686 35.7735 14.1264H30.3453V4.75292H35.65C37.1562 4.75292 38.2664 5.13635 38.9804 5.90321C39.6945 6.67007 40.0504 7.82142 40.0483 9.35725C40.0622 10.2014 39.9226 11.041 39.6364 11.8353V11.8448Z" fill="#003680"/>
  <path d="M71.8945 6.33768C71.2424 4.36377 69.9179 2.6815 68.1521 1.58442C66.4135 0.52814 64.0495 0 61.0603 0C58.071 0 55.706 0.52814 53.9652 1.58442C52.2006 2.68206 50.8773 4.36426 50.226 6.33768C49.4718 8.43757 49.0947 11.0561 49.0947 14.1932C49.0947 17.3304 49.4718 19.9225 50.226 21.9696C50.8758 23.9168 52.2026 25.5662 53.9652 26.6183C55.7081 27.6429 58.0731 28.1541 61.0603 28.152C64.0474 28.1499 66.4114 27.6513 68.1521 26.6563C69.9187 25.6285 71.2494 23.9913 71.8945 22.052C72.6487 19.9774 73.0258 17.3579 73.0258 14.1932C73.0258 11.0286 72.6487 8.4101 71.8945 6.33768ZM66.7737 19.406C66.4737 20.8003 65.878 21.8365 64.9865 22.5146C64.095 23.1927 62.7862 23.5318 61.0603 23.5318C59.3343 23.5318 58.0256 23.1801 57.1341 22.4766C56.2426 21.7731 55.6394 20.7295 55.3247 19.3458C54.9775 17.6531 54.8181 15.9272 54.8493 14.1996C54.8184 12.4385 54.9842 10.6794 55.3437 8.95514C55.6732 7.53128 56.2838 6.45493 57.1753 5.72609C58.0668 4.99726 59.3618 4.63073 61.0603 4.62651C62.7862 4.62651 64.0876 4.99304 64.9643 5.72609C65.841 6.45915 66.4378 7.5355 66.7547 8.95514C67.0977 10.6816 67.2559 12.4396 67.2268 14.1996C67.2564 15.9461 67.1046 17.6909 66.7737 19.406Z" fill="#003680"/>
  <path d="M92.2129 23.2498C90.882 23.3702 89.6683 23.4304 88.5719 23.4304C87.4615 23.4684 86.3536 23.2997 85.3048 22.9329C84.5121 22.6315 83.8429 22.0739 83.4035 21.3485C82.9152 20.4597 82.6082 19.4827 82.5004 18.4743C82.3205 17.0376 82.2379 15.5904 82.2533 14.1425C82.2372 12.682 82.3198 11.2221 82.5004 9.7727C82.6097 8.7556 82.9245 7.77131 83.4257 6.87955C83.8651 6.15417 84.5343 5.59648 85.327 5.29513C86.3581 4.94259 87.4448 4.78046 88.5339 4.81664C89.2754 4.81664 90.0708 4.84304 90.92 4.89586C91.7693 4.94867 92.6059 5.02156 93.4297 5.11451C94.2505 5.20957 94.935 5.30781 95.4832 5.43139L95.6479 1.03938C94.993 0.880938 94.2051 0.727777 93.284 0.579898C92.365 0.434131 91.4144 0.307377 90.432 0.202806C89.4858 0.0832497 88.5337 0.0155467 87.5801 0C85.3344 0 83.4912 0.279914 82.0504 0.839743C80.6919 1.33747 79.511 2.22615 78.6566 3.39383C77.7685 4.70449 77.1859 6.19782 76.9518 7.76366C76.6101 9.86802 76.4521 11.9981 76.4796 14.1299C76.4523 16.2521 76.6103 18.3727 76.9518 20.4675C77.1859 22.0334 77.7685 23.5267 78.6566 24.8374C79.4981 25.9961 80.6651 26.8785 82.0092 27.3724C83.4204 27.9175 85.2225 28.19 87.4153 28.19C88.4019 28.19 89.4022 28.1435 90.4162 28.0506C91.4302 27.9576 92.3904 27.8372 93.2967 27.6893C94.1998 27.5436 94.9825 27.4041 95.6384 27.271L95.5149 22.9202C94.6381 23.0216 93.5375 23.1315 92.2129 23.2498Z" fill="#003680"/>
  <path d="M118.173 4.8258V0.0947266H99.502V28.1802H118.17V23.4491H105.177V16.297H112.849V11.6515H105.181V4.8258H118.173Z" fill="#003680"/>
  <path d="M148.022 0.0947266V4.90819H155.59V28.1802H161.262V4.90819H168.582V0.0947266H148.022Z" fill="#003680"/>
  <path d="M144.924 28.1583H141.188C140.32 28.1459 139.471 27.905 138.726 27.46C137.981 27.0149 137.367 26.3814 136.945 25.6232L122.083 0H125.92C126.757 0.0126663 127.576 0.246148 128.294 0.676829C129.012 1.10751 129.603 1.72012 130.008 2.45268L144.924 28.1583Z" fill="url(#paint0_linear_242_27)"/>
  <path d="M144.899 9.25611C142.772 9.25611 140.732 8.41111 139.228 6.90701C137.724 5.4029 136.879 3.3629 136.879 1.23577V0.0537956C136.879 0.0496342 136.879 0.045514 136.881 0.0416694C136.883 0.0378247 136.885 0.0343315 136.888 0.031389C136.891 0.0284464 136.894 0.0261118 136.898 0.0245193C136.902 0.0229268 136.906 0.0221077 136.91 0.0221077L144.899 0.0221077C144.907 0.0221077 144.915 0.0254462 144.921 0.031389C144.927 0.0373317 144.931 0.0453913 144.931 0.0537956V9.22759C144.931 9.23599 144.927 9.24405 144.921 9.25C144.915 9.25594 144.907 9.25928 144.899 9.25928V9.25611Z" fill="url(#paint1_linear_242_27)"/>
  <path d="M127.777 21.3042C127.029 20.5537 126.14 19.9587 125.161 19.5535C124.182 19.1483 123.133 18.941 122.073 18.9434V28.1806H130.125V26.9986C130.127 25.9417 129.921 24.8947 129.518 23.9176C129.115 22.9405 128.524 22.0524 127.777 21.3042Z" fill="url(#paint2_linear_242_27)"/>
  <defs>
    <linearGradient id="paint0_linear_242_27" x1="121.779" y1="27.2401" x2="150.861" y2="-2.5581" gradientUnits="userSpaceOnUse">
      <stop stop-color="#F69E38"/>
      <stop offset="1" stop-color="#FFE0BB"/>
    </linearGradient>
    <linearGradient id="paint1_linear_242_27" x1="145.038" y1="0.32332" x2="135.539" y2="10.7825" gradientUnits="userSpaceOnUse">
      <stop stop-color="#F69E38"/>
      <stop offset="1" stop-color="#FFE0BB"/>
    </linearGradient>
    <linearGradient id="paint2_linear_242_27" x1="121.966" y1="27.8793" x2="131.465" y2="17.4201" gradientUnits="userSpaceOnUse">
      <stop stop-color="#F69E38"/>
      <stop offset="1" stop-color="#FFE0BB"/>
    </linearGradient>
  </defs>
</svg>
