<svg width="348" height="217" viewBox="0 0 348 217" fill="none" xmlns="http://www.w3.org/2000/svg">
<path d="M125.97 192.648L137.625 161.007L81.9395 122.097H149.28L165.683 68.6484L181.655 122.097H264.939" stroke="#EF7A0E" stroke-width="6" stroke-linecap="round" stroke-linejoin="round"/>
<path d="M177.278 204.54H186.865C186.363 208.198 184.74 211.13 181.996 213.338C179.286 215.545 175.756 216.648 171.406 216.648C165.952 216.648 161.669 215.072 158.557 211.919C155.479 208.734 153.939 204.477 153.939 199.148C153.939 193.82 155.479 189.579 158.557 186.425C161.669 183.241 165.952 181.648 171.406 181.648C175.555 181.648 178.952 182.673 181.595 184.723C184.272 186.741 185.928 189.405 186.564 192.716H176.877C176.275 190.509 174.451 189.405 171.406 189.405C168.863 189.405 166.906 190.304 165.534 192.101C164.162 193.867 163.476 196.216 163.476 199.148C163.476 202.081 164.162 204.446 165.534 206.243C166.906 208.009 168.863 208.892 171.406 208.892C173.046 208.892 174.367 208.513 175.371 207.757C176.408 207 177.044 205.928 177.278 204.54Z" fill="white"/>
<path d="M193.09 182.263H210.607C214.756 182.263 217.968 183.225 220.243 185.148C222.552 187.072 223.707 189.752 223.707 193.189C223.707 197.477 221.967 200.567 218.487 202.459L223.657 216.034H214.321L209.854 204.209H202.426V216.034H193.09V182.263ZM202.426 196.878H209.352C212.564 196.878 214.17 195.712 214.17 193.378C214.17 191.076 212.564 189.925 209.352 189.925H202.426V196.878Z" fill="white"/>
<path d="M253.285 202.601H239.432V208.277H258.053V216.034H230.096V182.263H257.601V190.02H239.432V195.034H253.285V202.601Z" fill="white"/>
<path d="M263.966 182.263H279.927C285.314 182.263 289.429 183.777 292.274 186.804C295.118 189.831 296.54 193.946 296.54 199.148C296.54 204.351 295.118 208.466 292.274 211.493C289.429 214.52 285.314 216.034 279.927 216.034H263.966V182.263ZM273.301 208.277H278.421C281.399 208.277 283.574 207.441 284.946 205.77C286.318 204.099 287.004 201.892 287.004 199.148C287.004 196.374 286.318 194.166 284.946 192.527C283.574 190.856 281.399 190.02 278.421 190.02H273.301V208.277Z" fill="white"/>
<path d="M312.323 182.263V216.034H302.988V182.263H312.323Z" fill="white"/>
<path d="M347.939 182.263V190.02H337.198V216.034H327.863V190.02H317.172V182.263H347.939Z" fill="white"/>
<path d="M178.788 143.453H163.764V150.123H175.623V154.531H163.764V165.251H157.939V139.045H178.788V143.453Z" fill="#EF7A0E"/>
<path d="M189.605 139.045V165.251H183.781V139.045H189.605Z" fill="#EF7A0E"/>
<path d="M209.127 139.045C212.279 139.045 214.755 139.76 216.555 141.19C218.356 142.619 219.256 144.538 219.256 146.947C219.256 149.515 218.356 151.487 216.555 152.863C214.755 154.213 212.293 154.888 209.17 154.888L208.579 155.206H202.586V165.251H196.846V139.045H209.127ZM208.452 151.037C210.084 151.037 211.294 150.732 212.082 150.123C212.898 149.488 213.306 148.522 213.306 147.225C213.306 145.928 212.898 144.975 212.082 144.366C211.294 143.731 210.084 143.413 208.452 143.413H202.586V151.037H208.452ZM211.871 152.188L220.902 165.251H214.361L206.891 153.776L211.871 152.188Z" fill="#EF7A0E"/>
<path d="M235.703 138.648C238.235 138.648 240.458 139.059 242.371 139.879C244.284 140.7 245.916 141.918 247.267 143.532L244.017 147.066C242.863 145.69 241.597 144.684 240.219 144.048C238.868 143.387 237.292 143.056 235.492 143.056C234.31 143.056 233.325 143.201 232.537 143.493C231.778 143.784 231.215 144.168 230.849 144.644C230.512 145.12 230.343 145.65 230.343 146.232C230.343 146.947 230.638 147.556 231.229 148.059C231.82 148.535 232.833 148.932 234.268 149.25L239.459 150.362C242.216 150.944 244.186 151.818 245.367 152.982C246.577 154.12 247.182 155.603 247.182 157.429C247.182 159.15 246.704 160.632 245.747 161.876C244.791 163.094 243.454 164.034 241.738 164.695C240.022 165.331 238.052 165.648 235.829 165.648C233.888 165.648 232.101 165.437 230.469 165.013C228.866 164.563 227.431 163.954 226.165 163.187C224.899 162.419 223.843 161.532 222.999 160.526L226.291 156.834C226.938 157.681 227.74 158.435 228.697 159.097C229.654 159.759 230.737 160.288 231.947 160.685C233.185 161.056 234.479 161.241 235.829 161.241C236.983 161.241 237.954 161.122 238.741 160.884C239.557 160.619 240.162 160.262 240.556 159.812C240.978 159.335 241.189 158.766 241.189 158.104C241.189 157.416 240.936 156.834 240.43 156.357C239.951 155.854 239.051 155.47 237.729 155.206L232.073 154.015C230.441 153.644 229.035 153.168 227.853 152.585C226.699 151.976 225.813 151.209 225.194 150.282C224.603 149.329 224.308 148.204 224.308 146.907C224.308 145.345 224.758 143.943 225.658 142.698C226.559 141.454 227.853 140.475 229.541 139.76C231.257 139.019 233.311 138.648 235.703 138.648Z" fill="#EF7A0E"/>
<path d="M273.939 139.045V143.453H264.612V165.251H258.788V143.453H249.419V139.045H273.939Z" fill="#EF7A0E"/>
<path d="M38.4528 102.33C38.7381 101.737 54.4266 92.7853 55.0005 92.4987C63.5303 88.1359 72.0631 83.7812 80.601 79.4154C76.8514 91.4267 76.8506 104.62 80.6114 116.555L180.453 86.4652C177.115 77.1044 165.732 58.2366 160.923 49.5964C159.515 47.067 158.031 44.5565 156.097 42.4431C153.895 40.0524 151.172 38.241 148.46 36.5084C139.649 30.8806 130.558 25.7342 121.221 21.0923C118.054 19.5196 114.74 17.9737 111.211 17.9785C108.136 17.9899 105.187 19.1859 102.323 20.36C97.0481 22.521 97.0894 22.5333 91.8148 24.6943C90.3624 25.2888 84.1025 28.3122 82.8596 29.2978C81.7228 30.198 79.3199 32.4419 78.4295 33.6092C66.7274 48.9138 55.9869 62.896 45.2449 78.929C44.7026 79.7464 35.3271 92.4035 35.1475 93.3804" fill="#ED2F2F"/>
<path d="M89.5925 106.027C90.0122 108.519 90.4717 110.573 90.9806 111.993L80.6112 116.552C76.8534 104.625 76.8513 91.424 80.6009 79.4127C72.071 83.7755 63.5382 88.1302 55.0003 92.496C54.4294 92.7907 37.9076 102.42 37.9076 102.42C37.9279 102.376 52.2596 91.8497 52.2808 91.8326C68.528 81.6619 74.9291 79.91 82.9074 72.9479L88.005 58.6248C88.0773 58.4233 88.3686 58.4898 88.3376 58.7036C86.9973 66.8046 87.219 83.2711 88.3863 96.1687" fill="#DD281F"/>
<path d="M28.1081 113.339C29.5642 115.106 31.5188 116.458 33.6873 117.197C33.7028 116.446 33.7213 115.704 33.7368 114.954C36.3804 114.744 39.0953 115.915 40.7521 117.975C42.5824 115.65 44.4491 113.274 45.4234 110.476C46.3977 107.678 46.3368 104.345 44.5235 102.012C46.0246 102.291 47.4006 103.223 48.2024 104.516C48.6534 101.967 47.9722 99.2414 46.3707 97.2067C44.7693 95.172 42.2818 93.8708 39.6939 93.7102C40.6958 92.6946 41.9008 91.8793 43.224 91.3328C41.0791 90.8054 38.7788 90.9241 36.6993 91.6872C35.7987 90.3759 34.706 89.1912 33.4613 88.1916C33.1766 89.5293 32.903 90.8721 32.6183 92.2098C28.7744 90.7963 24.24 91.4597 20.9547 93.9025C21.7943 94.4549 22.6338 95.0074 23.4733 95.5598C18.7626 98.9916 17.0636 106.003 19.7292 111.201C20.3013 110.216 21.0708 109.342 21.9688 108.641C23.4005 111.06 24.9819 113.387 26.6906 115.612C27.1067 114.851 27.5308 114.086 27.9498 113.333" fill="#EDEDED"/>
<path d="M45.4344 110.474C46.4088 107.676 46.3478 104.343 44.5345 102.01C46.0356 102.289 47.4116 103.221 48.2135 104.514C48.6644 101.965 47.9832 99.2395 46.3817 97.2047C45.1621 95.6534 43.4225 94.5342 41.5288 94.0147C42.5684 95.403 43.5069 96.8657 44.2928 98.4126C42.9401 98.0875 41.5588 97.8833 40.17 97.783C40.7976 99.0026 41.4303 100.211 42.0578 101.431C41.6072 101.331 41.1167 101.422 40.7185 101.661C42.0203 103.385 42.4408 105.656 42.2382 107.809C42.0437 109.959 41.2815 112.016 40.4158 113.992C38.2705 111.682 34.7079 111.57 31.5523 111.639C31.5565 112.244 31.5495 112.844 31.5536 113.45C29.9073 112.185 28.1202 111.111 26.2265 110.27C26.089 111.93 26.3368 113.612 26.9159 115.172C27.2548 114.55 27.5967 113.935 27.9437 113.31L28.1051 113.324C29.5611 115.091 31.5158 116.442 33.6843 117.182C33.6998 116.431 33.7183 115.689 33.7338 114.938C36.3774 114.729 39.0922 115.9 40.7491 117.96C42.5793 115.635 44.446 113.259 45.4204 110.461L45.4344 110.474Z" fill="#DDDDDD"/>
<path d="M178.612 74.6242C179.084 76.3153 179.112 78.1251 178.699 79.7862C175.007 75.5861 170.275 72.4247 165.165 70.7459C164.872 72.0866 164.59 73.4324 164.297 74.7731C143.876 64.2722 117.747 70.335 104.567 88.643C104.157 86.9197 103.739 85.1995 103.326 83.4681C102.198 87.6105 98.6252 90.3439 94.9557 92.1479C91.2942 93.9489 87.2936 95.1587 84.0546 97.6763C78.1134 102.301 75.7294 110.587 75.2107 118.548C76.7867 117.494 78.3657 116.448 79.9417 115.394C79.3005 117.48 78.1681 119.555 77.7829 121.712C77.3382 124.203 77.9391 126.812 79.1193 129.049C80.2994 131.286 82.0354 133.188 83.9305 134.875C83.3371 133.697 83.6735 132.276 84.1224 131.034C84.215 130.788 84.3186 130.547 84.4193 130.298C88.0727 132.288 92.4209 133.055 96.4362 132.602C103.312 131.833 109.46 128.235 115.403 124.704C120.218 121.85 125.024 118.998 129.836 116.136C128.125 117.792 127.131 120.239 127.129 122.758C134.447 117.88 141.823 112.962 149.999 109.825C158.175 106.687 167.308 105.41 175.938 107.952C175.56 109.26 174.642 110.355 173.463 110.893C180.902 112.581 190.681 106.752 191.351 98.1093C191.639 94.3799 190.933 91.6358 190.197 89.4818C188.061 83.2328 184.169 80.0811 178.63 74.599L178.612 74.6242Z" fill="#EDEDED"/>
<path d="M178.696 79.7784C175.196 75.8008 170.763 72.7765 165.962 71.0382C177.887 79.8767 181.401 86.2209 182.733 90.13C183.666 92.8637 182.309 98.7918 179.587 99.7566C179.573 97.4909 179.357 96.0174 178.311 94.0157C177.064 97.5403 173.4 99.6823 169.748 100.469C166.096 101.255 162.312 100.968 158.585 101.258C150.747 101.861 143.132 105.075 137.23 110.273C138.118 107.516 139.773 105.017 141.967 103.126C132.171 107.197 124.758 115.31 116.593 122.093C111.206 126.575 104.897 130.628 98.2153 132.319C104.375 131.181 109.965 127.937 115.381 124.721C120.196 121.867 125.003 119.016 129.815 116.153C128.104 117.809 127.109 120.256 127.107 122.776C134.425 117.898 141.802 112.979 149.978 109.842C158.153 106.705 167.287 105.428 175.917 107.969C175.538 109.277 174.621 110.372 173.442 110.911C180.881 112.598 190.659 106.769 191.329 98.1267C191.618 94.3972 190.911 91.6532 190.176 89.4992C188.039 83.2502 184.147 80.0985 178.609 74.6164C179.08 76.3076 179.109 78.1173 178.696 79.7784Z" fill="#DDDDDD"/>
</svg>
