<svg width="147" height="63" viewBox="0 0 147 63" fill="none" xmlns="http://www.w3.org/2000/svg">
<path d="M9.86924 26.5458C8.80913 26.7617 6.94967 27.1469 5.31677 26.0464C4.08996 25.221 3.1239 23.6506 3.29488 22.0379C3.52998 19.8114 5.8169 18.5797 6.83854 18.0294C8.15084 17.3226 9.82222 16.912 11.391 16.5268C11.4551 16.5099 12.0963 16.3532 12.9085 16.0273C13.4343 15.8157 13.695 15.7099 13.9216 15.5278C14.4559 15.0961 14.9389 14.3003 14.7423 13.5808C14.691 13.386 14.5927 13.2167 14.426 13.0263C13.5924 12.0485 12.6093 12.3024 11.391 11.5236C11.0747 11.3204 9.96328 10.6093 9.87351 9.52149C9.81794 8.83578 10.1856 8.30245 10.3779 8.01885C10.9935 7.11726 11.6389 7.12149 13.4129 6.0125C14.4473 5.36911 14.9218 5.00932 15.4391 4.50985C16.1273 3.84107 16.4992 3.24848 16.9565 2.50774C16.9565 2.50774 17.461 1.69504 17.5208 1.00932C17.5208 0.404031 16.9309 0.031545 16.9565 0.00191535C16.9822 -0.0277143 17.726 0.285513 17.9696 1.00509C18.1021 1.39874 18.0337 1.75853 17.9696 2.00827C17.5806 3.54901 16.5376 4.84848 15.9435 5.51726C15.1911 6.35959 14.426 7.01991 14.426 7.01991C13.6907 7.68446 13.3488 7.92149 12.9085 8.52255C12.4639 9.12784 12.4126 9.43261 12.4041 9.52573C12.2887 10.3554 12.8914 11.0241 12.994 11.1342C13.2334 11.4009 13.6352 11.6125 14.4302 12.0315C15.0244 12.3448 15.2296 12.4167 15.4433 12.531C16.2427 12.9585 17.4011 14.0337 17.4695 15.5363C17.5293 16.9628 16.5676 17.9321 16.4564 18.0421C16.0204 18.4696 15.4861 18.6644 14.4302 19.0453C12.8315 19.621 12.4169 19.494 11.3953 20.0485C10.8267 20.3575 9.83076 20.895 9.87779 21.5511C9.90771 21.9871 10.3907 22.4062 10.8909 22.5543C12.0536 22.8972 12.6606 21.5892 14.9389 21.0517C16.2085 20.7511 17.0292 20.9204 17.4695 21.0517C17.7132 21.1278 18.9699 21.5046 18.987 22.0548C19.0084 22.6728 17.4396 22.9268 14.9389 24.0569C11.8612 25.4326 11.8014 26.148 9.86924 26.5458Z" fill="#213860"/>
<path d="M19.6624 55.0748C10.2454 55.0748 2.3887 50.8674 0.448026 43.9679C-2.09537 34.9351 6.44958 24.6537 19.4957 21.0558C32.5418 17.4536 45.2246 21.8769 47.768 30.9097C50.3114 39.9425 41.7664 50.224 28.7203 53.8219C25.6383 54.6727 22.5777 55.0748 19.6624 55.0748ZM1.8672 43.5785C4.19259 51.8367 16.0632 55.8071 28.327 52.4209C40.5909 49.0388 48.6785 39.5616 46.3531 31.3034C44.0277 23.0452 32.1571 19.079 19.8932 22.4611C7.62937 25.8431 -0.45819 35.3161 1.8672 43.5785Z" fill="#213860"/>
<path d="M35.3288 26.5498C34.3884 25.5085 32.7683 25.0556 31.4261 25.5255C30.0283 26.0165 29.0879 27.2524 28.9297 28.7001C28.887 29.0937 29.2974 29.4281 29.665 29.4281C30.0967 29.4281 30.3575 29.0937 30.4002 28.7001C30.3874 28.8186 30.4088 28.662 30.413 28.6366C30.4259 28.5773 30.4387 28.518 30.4515 28.4588C30.4814 28.3403 30.5199 28.2217 30.5669 28.1117C30.5199 28.226 30.6182 28.0186 30.6182 28.0186C30.6481 27.9635 30.6781 27.9128 30.7123 27.8577C30.7422 27.8069 30.7807 27.7561 30.8106 27.7053C30.8234 27.6842 30.8405 27.6672 30.8533 27.6461C30.8191 27.6842 30.8191 27.6884 30.8533 27.6461C30.9303 27.553 31.0158 27.4598 31.1055 27.3752C31.1483 27.3329 31.1996 27.2948 31.2423 27.2524C31.4133 27.1043 31.191 27.2821 31.2979 27.2101C31.409 27.1339 31.5244 27.062 31.6441 26.9985C31.6869 26.9773 31.7339 26.9561 31.7766 26.935C31.6612 26.9858 31.875 26.9053 31.8792 26.9053C32.3067 26.7699 32.717 26.7657 33.136 26.8757C33.2599 26.9096 33.3796 26.9477 33.4993 26.9942C33.3924 26.9477 33.6019 27.0493 33.5976 27.045C33.6532 27.0747 33.7088 27.1043 33.7601 27.1381C33.8156 27.172 33.8669 27.2059 33.9182 27.2397C34.0123 27.3032 33.931 27.244 33.9781 27.2863C34.0849 27.3752 34.1832 27.4725 34.2773 27.5741C34.5423 27.8662 35.0467 27.8408 35.3203 27.5741C35.6238 27.2905 35.5939 26.8461 35.3288 26.5498Z" fill="#213860"/>
<path d="M23.1846 29.0559C22.2442 28.0146 20.6241 27.5617 19.2819 28.0316C17.8841 28.5226 16.9437 29.7585 16.7855 31.2062C16.7428 31.5998 17.1532 31.9342 17.5208 31.9342C17.9525 31.9342 18.2133 31.5998 18.256 31.2062C18.2432 31.3289 18.2646 31.1681 18.2688 31.1469C18.2817 31.0876 18.2945 31.0284 18.3073 30.9691C18.3372 30.8506 18.3757 30.7321 18.4227 30.622C18.3757 30.7363 18.474 30.5289 18.474 30.5289C18.5039 30.4739 18.5339 30.4231 18.5681 30.3681C18.598 30.3173 18.6365 30.2665 18.6664 30.2157C18.6792 30.1945 18.6963 30.1734 18.7091 30.1564C18.6749 30.1945 18.6749 30.1987 18.7091 30.1564C18.7861 30.0633 18.8716 29.9702 18.9613 29.8855C19.0041 29.8432 19.0554 29.8009 19.0981 29.7628C19.2691 29.6146 19.0468 29.7924 19.1537 29.7204C19.2648 29.6443 19.3802 29.5723 19.4999 29.5088C19.5427 29.4876 19.5897 29.4665 19.6324 29.4453C19.517 29.4961 19.7308 29.4157 19.735 29.4157C20.1625 29.2802 20.5729 29.276 20.9918 29.3861C21.1157 29.4199 21.2354 29.458 21.3551 29.5046C21.2482 29.458 21.4577 29.5596 21.4534 29.5554C21.509 29.585 21.5646 29.6146 21.6159 29.6485C21.6714 29.6823 21.7227 29.7162 21.774 29.7501C21.8681 29.8136 21.7868 29.7543 21.8339 29.7966C21.9407 29.8855 22.039 29.9829 22.1331 30.0845C22.3981 30.3765 22.9025 30.3511 23.1761 30.0845C23.4796 29.7966 23.4497 29.348 23.1846 29.0559Z" fill="#213860"/>
<path fill-rule="evenodd" clip-rule="evenodd" d="M47.4003 28.696C46.3488 27.3839 44.8484 26.4992 43.1471 26.368C41.0055 26.2029 38.8554 26.9818 37.3037 28.4675C35.846 29.8643 35.192 31.8495 33.8071 33.2929C30.6182 36.6156 24.1721 36.4844 22.676 35.9214C20.7909 35.2146 19.2948 33.7712 17.3541 33.1786C15.2937 32.5479 13.0196 32.8146 11.1815 33.9193C9.71963 34.7998 8.78776 36.2601 8.44579 37.8982C8.09955 39.5617 8.3603 41.3183 8.92027 42.9013C9.63413 44.9077 11.0319 46.6008 12.4981 48.1162C15.6784 51.4008 19.547 54.3511 21.0602 58.8336C21.4748 60.0611 21.6287 61.3691 21.4492 62.6558C21.4363 62.7574 21.5902 62.7617 21.6073 62.6643C21.9749 60.2177 22.1758 57.7331 21.6244 55.295C21.0901 52.9416 19.7051 50.986 18.3073 49.0601C17.0677 47.35 15.6058 45.4495 15.4134 43.2823C15.3365 42.4188 15.4647 41.4622 16.0931 40.8103C16.8027 40.0781 18.0508 40.2728 18.9528 40.4421C20.2095 40.6791 21.4064 41.1151 22.6802 41.2759C24.1251 41.458 25.5528 41.2463 26.895 40.6876C27.8525 40.2897 28.7117 39.5871 29.2161 38.6855C30.0796 39.2654 31.1653 39.5066 32.1998 39.4347C33.6489 39.3331 35.0211 38.8844 36.2265 38.0759C37.2909 37.3648 38.1586 36.4378 39.1717 35.6632C39.8984 35.1087 40.9243 34.3807 41.8904 34.7151C42.7453 35.0114 43.301 35.8114 43.6258 36.6156C44.4423 38.6347 44.0063 40.9839 43.6771 43.0664C43.3095 45.4114 42.9633 47.7733 43.5617 50.1098C44.1815 52.531 45.4939 54.6601 46.9344 56.6791C46.9942 56.7595 47.131 56.6876 47.0755 56.6029C46.3274 55.5363 45.8657 54.3003 45.6777 53.0177C44.9852 48.3447 47.0968 43.9849 48.4348 39.6294C49.0503 37.623 49.5291 35.4855 49.2512 33.3775C49.0375 31.7098 48.4647 30.0251 47.4003 28.696Z" fill="#213860"/>
<path d="M68.6879 46.512V46.7321C68.6879 47.0538 68.4357 47.2147 67.9356 47.2147C67.4312 47.2147 66.9994 47.0115 66.6404 46.5967C66.277 46.1861 65.9137 45.5385 65.5503 44.658C65.187 43.7776 64.9134 43.257 64.7424 43.0919C64.3534 42.7279 63.5541 42.5501 62.3486 42.5501C60.5063 42.5501 59.3222 42.7152 58.7964 43.0411C58.4801 43.2401 58.1168 43.8284 57.7021 44.8062C57.2875 45.784 57.0481 46.3215 56.9926 46.4231C56.6591 46.948 56.2402 47.2104 55.7358 47.2104H55.5221C55.1331 47.2104 54.9365 47.0157 54.9365 46.6305C54.9365 46.3258 55.2143 45.3099 55.77 43.5829C57.8047 37.2591 58.9931 33.6866 59.3393 32.8612C59.6856 32.0401 60.0404 31.4009 60.4037 30.9438C60.767 30.4866 61.2501 30.2581 61.8442 30.2581C62.4384 30.2581 62.9343 30.4824 63.3318 30.9311C63.7293 31.3798 64.2466 32.3618 64.8749 33.8856C66.0804 36.7723 67.0764 39.8834 67.8672 43.2231C67.9484 43.5702 68.1065 44.1416 68.3417 44.9374C68.5725 45.7416 68.6879 46.2665 68.6879 46.512ZM64.1312 40.2178V40.1332C64.1312 40.0824 64.0799 39.8284 63.9773 39.3628C63.8747 38.8972 63.7977 38.584 63.7507 38.4189C63.7037 38.2538 63.5584 37.6316 63.3147 36.548C63.0668 35.4686 62.7975 34.6051 62.4983 33.9702C62.199 33.3311 62.0238 33.0136 61.9682 33.0136C61.9126 33.0136 61.7417 33.3395 61.451 33.9872C60.0233 37.221 59.3094 39.3036 59.3094 40.2432V40.3152C59.3094 40.5438 59.6898 40.6623 60.455 40.6623H60.9936L61.1047 40.6496L62.1905 40.6623H62.7248L62.8231 40.6496H63.0198L63.4173 40.6242C63.8918 40.6284 64.1312 40.493 64.1312 40.2178Z" fill="#213860"/>
<path d="M92.3607 46.0293C92.3607 46.6134 92.0829 46.9055 91.5272 46.9055C91.3433 46.9055 91.1125 46.7573 90.8347 46.461C90.5568 46.1647 90.3602 45.7118 90.2448 45.1065C90.1294 44.497 89.9968 42.7827 89.8515 39.9679C89.7062 37.1531 89.5224 35.7436 89.3044 35.7436C89.0864 35.7436 88.3939 37.0388 87.2355 39.6293C86.077 42.2198 85.4016 43.6547 85.2136 43.9341C84.8374 44.4759 84.427 44.7468 83.9825 44.7468C83.5336 44.7468 83.1746 44.5267 82.9096 44.0822C82.6445 43.6378 82.2855 42.8335 81.8366 41.6653C80.3234 37.7415 79.4087 35.7817 79.0838 35.7817C78.8914 35.7817 78.5965 37.3267 78.1947 40.4124C77.7929 43.5023 77.5834 45.0811 77.5663 45.1573C77.3098 46.1351 76.9764 46.6261 76.5703 46.6261C76.0403 46.6261 75.7752 46.3341 75.7752 45.7499C75.7752 45.5595 75.818 44.9161 75.9035 43.8071C75.9932 42.7023 76.0488 41.7838 76.0745 41.0558C76.1001 40.3277 76.1429 39.3711 76.207 38.1817C76.2711 36.9923 76.301 35.333 76.301 33.2039C76.301 32.6113 76.4036 32.1372 76.6131 31.7859C76.9037 31.2822 77.3269 31.0325 77.8826 31.0325C78.4383 31.0325 78.9769 31.3965 79.4941 32.1245C80.0114 32.8526 80.8834 34.3933 82.0974 36.751C83.3156 39.1087 83.9739 40.2854 84.0765 40.2854C84.1791 40.2854 84.8118 39.1933 85.9702 37.0092C87.1286 34.8251 87.898 33.4367 88.2827 32.8441C89.0693 31.6251 89.7831 31.0198 90.4243 31.0198C91.2108 31.0198 91.7238 31.3457 91.9546 32.0018C92.1897 32.6536 92.3051 34.4441 92.3051 37.3605L92.2196 42.2579C92.2196 43.1764 92.2453 43.9849 92.2923 44.6833C92.3351 45.3732 92.3607 45.8261 92.3607 46.0293Z" fill="#213860"/>
<path d="M100.397 45.9321C100.397 45.7416 100.495 45.1533 100.696 44.167C100.914 43.0961 101.021 41.9406 101.021 40.7004L101.047 39.7861V39.3289L101.059 38.8718V38.4147L101.072 37.9702C101.072 36.4591 101.042 35.4094 100.987 34.8295C100.927 34.2496 100.82 33.6993 100.658 33.1829C100.495 32.6665 100.414 32.1713 100.414 31.7014C100.414 30.7702 101.047 30.3088 102.308 30.3088H102.521C103.043 30.3088 103.436 30.4697 103.693 30.7914C103.949 31.1131 104.077 31.4686 104.077 31.8665V32.0528C104.077 32.2094 104.018 32.6072 103.898 33.2506C103.778 33.894 103.718 34.5628 103.718 35.2612L103.693 35.7057L103.654 37.5427V38.6898L103.641 39.3797V40.0443L103.629 40.2644V41.1533L103.616 41.5977V43.2274C103.616 43.7522 103.671 44.2856 103.787 44.8189C103.898 45.3522 103.953 45.8178 103.953 46.2073C103.953 46.5967 103.834 46.9311 103.599 47.2062C103.363 47.4813 102.962 47.621 102.397 47.621H101.974C101.525 47.621 101.154 47.5025 100.854 47.2612C100.555 47.0242 100.405 46.6475 100.405 46.1395V45.9321H100.397Z" fill="#213860"/>
<path d="M122.817 42.8293C122.817 42.0844 122.574 41.4537 122.086 40.9373C121.599 40.4167 121.36 40.1119 121.36 40.0103C121.36 39.7225 121.714 39.5786 122.42 39.5786C123.514 39.5786 124.292 39.841 124.749 40.3701C125.023 40.6918 125.16 41.3563 125.16 42.368V43.1934C125.16 45.0346 124.813 46.2664 124.125 46.8801C123.852 47.1256 123.309 47.35 122.505 47.5532C121.697 47.7563 120.83 47.8537 119.902 47.8537C118.953 47.8537 117.974 47.6463 116.961 47.2357C114.918 46.4145 113.546 44.8442 112.836 42.5246C112.49 41.3817 112.315 40.1288 112.315 38.7616C112.315 36.205 112.969 34.169 114.285 32.6537C114.982 31.8452 115.833 31.223 116.833 30.7786C117.833 30.3341 118.927 30.114 120.116 30.114C121.304 30.114 122.236 30.2706 122.92 30.5839C124.168 31.151 124.788 31.786 124.788 32.4844C124.788 32.9627 124.459 33.1997 123.805 33.1997C123.723 33.1997 123.253 33.0939 122.403 32.878C121.552 32.6622 120.761 32.5563 120.03 32.5563C119.299 32.5563 118.585 32.751 117.889 33.1362C117.192 33.5214 116.632 33.9997 116.204 34.5669C115.465 35.5532 115.097 36.9881 115.097 38.8674C115.097 40.7468 115.486 42.2833 116.269 43.4727C117.034 44.6241 118.231 45.1997 119.855 45.1997C120.637 45.1997 121.278 45.0177 121.787 44.6579C122.475 44.1838 122.817 43.5743 122.817 42.8293Z" fill="#213860"/>
<path d="M146.764 38.2962V39.1343C146.764 40.4083 146.605 41.6147 146.289 42.7533C145.973 43.8919 145.515 44.8147 144.917 45.5173C144.319 46.22 143.575 46.7956 142.681 47.2401C141.788 47.6845 140.877 47.9046 139.946 47.9046H139.112C138.232 47.8962 137.368 47.7015 136.522 47.3247C134.795 46.5459 133.619 45.0348 132.995 42.7999C132.73 41.8475 132.598 40.7089 132.598 39.384L132.61 39.1131C132.619 37.9025 132.781 36.7131 133.098 35.5364C133.743 33.1576 134.983 31.5575 136.808 30.7237C137.646 30.3427 138.552 30.1565 139.522 30.1565H140.07C140.933 30.1565 141.809 30.347 142.698 30.7237C144.391 31.456 145.575 32.8528 146.251 34.9184C146.593 35.9512 146.764 37.0771 146.764 38.2962ZM135.09 38.838V39.6507C135.09 40.5904 135.197 41.4538 135.415 42.2411C135.829 43.7396 136.53 44.7639 137.518 45.3226C138.099 45.6612 138.732 45.8263 139.411 45.8263H139.796C140.463 45.8263 141.057 45.6528 141.591 45.3099C143.186 44.2814 143.985 42.2284 143.994 39.1554V38.3427C143.994 36.5184 143.626 35.0242 142.895 33.8644C142.57 33.3438 142.151 32.929 141.63 32.62C141.113 32.3068 140.574 32.1501 140.014 32.1501H139.441C138.796 32.1501 138.189 32.3322 137.625 32.6919C137.06 33.056 136.616 33.4792 136.291 33.9618C135.966 34.4486 135.684 35.1216 135.444 35.9766C135.209 36.8401 135.09 37.7925 135.09 38.838Z" fill="#213860"/>
<path d="M54.244 38.8124C54.244 39.7521 53.4745 40.514 52.5256 40.514C51.5766 40.514 50.8072 39.7521 50.8072 38.8124C50.8072 37.8727 51.5766 37.1108 52.5256 37.1108C53.4745 37.1108 54.244 37.8727 54.244 38.8124Z" fill="#D7302D"/>
<path d="M72.8898 38.8124C72.8898 39.7521 72.1204 40.514 71.1715 40.514C70.2225 40.514 69.4531 39.7521 69.4531 38.8124C69.4531 37.8727 70.2225 37.1108 71.1715 37.1108C72.1204 37.1108 72.8898 37.8727 72.8898 38.8124Z" fill="#FFC700"/>
<path d="M97.9091 38.8124C97.9091 39.7521 97.1397 40.514 96.1907 40.514C95.2418 40.514 94.4724 39.7521 94.4724 38.8124C94.4724 37.8727 95.2418 37.1108 96.1907 37.1108C97.144 37.1108 97.9091 37.8727 97.9091 38.8124Z" fill="#409290"/>
<path d="M109.686 38.8124C109.686 39.7521 108.916 40.514 107.967 40.514C107.018 40.514 106.249 39.7521 106.249 38.8124C106.249 37.8727 107.018 37.1108 107.967 37.1108C108.916 37.1108 109.686 37.8727 109.686 38.8124Z" fill="#D7302D"/>
<path d="M130.294 38.8124C130.294 39.7521 129.524 40.514 128.575 40.514C127.626 40.514 126.857 39.7521 126.857 38.8124C126.857 37.8727 127.626 37.1108 128.575 37.1108C129.524 37.1108 130.294 37.8727 130.294 38.8124Z" fill="#FFC700"/>
</svg>
