<?xml version="1.0" encoding="UTF-8"?>
<!DOCTYPE svg PUBLIC "-//W3C//DTD SVG 1.1//EN" "http://www.w3.org/Graphics/SVG/1.1/DTD/svg11.dtd">
<svg xmlns="http://www.w3.org/2000/svg" version="1.1" width="300px" height="159px" style="shape-rendering:geometricPrecision; text-rendering:geometricPrecision; image-rendering:optimizeQuality; fill-rule:evenodd; clip-rule:evenodd" xmlns:xlink="http://www.w3.org/1999/xlink">
<g><path style="opacity:1" fill="#fdb831" d="M 182.5,13.5 C 177.489,13.3341 172.489,13.5007 167.5,14C 166.464,15.6169 165.297,15.7836 164,14.5C 163.92,16.2482 163.087,17.9149 161.5,19.5C 162.035,21.2705 162.869,21.6039 164,20.5C 164.783,22.4335 164.283,23.9335 162.5,25C 163.905,26.2692 165.571,26.7692 167.5,26.5C 167.884,29.7693 169.218,32.6026 171.5,35C 171.041,36.9427 172.041,38.276 174.5,39C 173.833,39.3333 173.167,39.6667 172.5,40C 173.428,40.3879 174.095,41.0546 174.5,42C 174.594,44.1653 174.26,46.1653 173.5,48C 176.167,48.6667 176.167,49.3333 173.5,50C 176.167,50.6667 176.167,51.3333 173.5,52C 173.833,52.3333 174.167,52.6667 174.5,53C 172.741,54.008 171.574,55.508 171,57.5C 168.967,56.9836 168.967,57.6503 171,59.5C 172.441,58.7402 173.941,58.0736 175.5,57.5C 176.107,57.6236 176.44,57.9569 176.5,58.5C 168.366,64.7611 163.866,73.0944 163,83.5C 161.207,97.0445 167.207,103.711 181,103.5C 188.117,103.519 194.284,101.186 199.5,96.5C 200.043,96.56 200.376,96.8933 200.5,97.5C 199.5,98.8333 198.5,100.167 197.5,101.5C 197.977,102.478 198.643,103.311 199.5,104C 199.167,104.333 198.833,104.667 198.5,105C 199.701,105.903 200.535,107.069 201,108.5C 201.333,107.833 201.667,107.167 202,106.5C 203,108.5 204,110.5 205,112.5C 205.333,111.5 205.667,110.5 206,109.5C 206.214,113.438 208.047,116.272 211.5,118C 211.167,118.333 210.833,118.667 210.5,119C 211.687,120.019 212.687,121.186 213.5,122.5C 213.164,124.801 211.831,126.968 209.5,129C 211.394,130.101 212.061,131.434 211.5,133C 212.669,135.007 213.335,137.173 213.5,139.5C 204.607,140.686 195.94,142.353 187.5,144.5C 187.167,144.5 186.833,144.5 186.5,144.5C 183.167,144.5 179.833,144.5 176.5,144.5C 176.918,143.778 177.584,143.278 178.5,143C 176.043,141.846 176.043,140.512 178.5,139C 175.258,138.717 174.924,137.883 177.5,136.5C 176.689,134.22 176.689,131.72 177.5,129C 175.167,127.757 174.5,126.091 175.5,124C 174.437,122.812 173.103,122.312 171.5,122.5C 171.069,119.551 169.902,116.884 168,114.5C 167.667,115.167 167.333,115.833 167,116.5C 166.75,113.246 165.75,110.246 164,107.5C 163.577,108.956 162.744,109.456 161.5,109C 161.833,108 162.167,107 162.5,106C 161.675,104.312 160.675,104.145 159.5,105.5C 159.46,102.947 157.794,101.947 154.5,102.5C 154.318,97.2063 153.818,97.2063 153,102.5C 152.617,101.944 152.117,101.611 151.5,101.5C 155.165,86.8382 158.832,72.1715 162.5,57.5C 163.043,57.44 163.376,57.1067 163.5,56.5C 159.016,55.1889 154.683,55.1889 150.5,56.5C 145.19,62.814 139.856,69.1473 134.5,75.5C 132.435,70.9712 130.768,66.3045 129.5,61.5C 130.15,61.1961 130.817,60.8627 131.5,60.5C 132.657,62.678 133.99,64.678 135.5,66.5C 136.478,66.0233 137.311,65.3567 138,64.5C 138.606,61.7507 139.106,59.2507 139.5,57C 138.5,55.3333 137.5,53.6667 136.5,52C 137.167,51.3333 137.833,50.6667 138.5,50C 138.888,48.4748 138.888,46.8082 138.5,45C 139.167,44.3333 139.833,43.6667 140.5,43C 137.597,40.4842 134.93,37.8176 132.5,35C 132.5,34 132.5,33 132.5,32C 130.415,30.9586 128.748,29.4586 127.5,27.5C 127.709,26.914 128.043,26.414 128.5,26C 126.008,23.8246 124.008,21.8246 122.5,20C 123.784,19.3162 124.951,19.4829 126,20.5C 126.5,20 127,19.5 127.5,19C 126.289,17.8869 126.289,16.7202 127.5,15.5C 124.374,13.9421 120.707,13.2754 116.5,13.5C 138.5,10.8333 160.5,10.8333 182.5,13.5 Z"/></g>
<g><path style="opacity:1" fill="#fdbe2d" d="M 116.5,13.5 C 120.707,13.2754 124.374,13.9421 127.5,15.5C 126.289,16.7202 126.289,17.8869 127.5,19C 127,19.5 126.5,20 126,20.5C 124.951,19.4829 123.784,19.3162 122.5,20C 124.008,21.8246 126.008,23.8246 128.5,26C 128.043,26.414 127.709,26.914 127.5,27.5C 128.748,29.4586 130.415,30.9586 132.5,32C 132.5,33 132.5,34 132.5,35C 134.93,37.8176 137.597,40.4842 140.5,43C 139.833,43.6667 139.167,44.3333 138.5,45C 138.888,46.8082 138.888,48.4748 138.5,50C 137.833,50.6667 137.167,51.3333 136.5,52C 137.5,53.6667 138.5,55.3333 139.5,57C 139.106,59.2507 138.606,61.7507 138,64.5C 137.311,65.3567 136.478,66.0233 135.5,66.5C 133.99,64.678 132.657,62.678 131.5,60.5C 130.817,60.8627 130.15,61.1961 129.5,61.5C 128.699,59.9582 128.366,58.2915 128.5,56.5C 124.167,56.5 119.833,56.5 115.5,56.5C 117.631,55.6862 119.964,55.1862 122.5,55C 120.167,54.6667 117.833,54.3333 115.5,54C 115.043,53.586 114.709,53.086 114.5,52.5C 115.641,51.5745 115.641,50.7412 114.5,50C 117.167,49.3333 117.167,48.6667 114.5,48C 116.878,47.0255 116.544,46.3589 113.5,46C 116.871,45.8264 117.871,44.3264 116.5,41.5C 117.025,40.8076 117.692,40.3076 118.5,40C 117.069,39.5348 115.903,38.7014 115,37.5C 114.667,37.8333 114.333,38.1667 114,38.5C 113.08,35.0618 111.413,32.0618 109,29.5C 108.667,29.8333 108.333,30.1667 108,30.5C 106.959,28.4148 105.459,26.7481 103.5,25.5C 104.313,24.1861 105.313,23.0195 106.5,22C 105.167,21 105.167,20 106.5,19C 104.825,18.0147 103.158,17.1814 101.5,16.5C 101.5,16.1667 101.5,15.8333 101.5,15.5C 106.29,14.2751 111.29,13.6084 116.5,13.5 Z"/></g>
<g><path style="opacity:0.208" fill="#ffdd8b" d="M 101.5,15.5 C 101.5,15.8333 101.5,16.1667 101.5,16.5C 96.0178,16.8576 90.6845,17.8576 85.5,19.5C 83.8333,19.5 82.1667,19.5 80.5,19.5C 87.1964,17.2144 94.1964,15.8811 101.5,15.5 Z"/></g>
<g><path style="opacity:1" fill="#fcad34" d="M 182.5,13.5 C 185.902,13.3424 189.236,13.6758 192.5,14.5C 192.918,15.2216 193.584,15.7216 194.5,16C 197.482,16.498 200.482,16.6646 203.5,16.5C 206.946,17.6874 210.613,18.3541 214.5,18.5C 217.495,18.2938 220.162,18.9605 222.5,20.5C 219.934,20.6556 217.434,20.3223 215,19.5C 214.055,19.9054 213.388,20.572 213,21.5C 212.667,20.8333 212.333,20.1667 212,19.5C 211.552,21.2244 210.718,21.891 209.5,21.5C 212.619,22.6936 212.952,24.1936 210.5,26C 211.453,27.9552 212.787,29.6218 214.5,31C 214.5,32 214.5,33 214.5,34C 215.253,35.487 216.086,35.6537 217,34.5C 218.427,36.7053 218.927,38.8719 218.5,41C 219.167,41.3333 219.833,41.6667 220.5,42C 218.625,44.1976 218.625,46.031 220.5,47.5C 218.849,49.4021 218.516,51.4021 219.5,53.5C 223.516,54.1064 227.849,54.6064 232.5,55C 227.981,55.1753 223.647,55.6753 219.5,56.5C 216.13,71.9782 212.463,87.3116 208.5,102.5C 212.884,102.826 217.217,102.492 221.5,101.5C 223.488,94.5487 225.321,87.5487 227,80.5C 229.799,86.4024 232.299,92.4024 234.5,98.5C 234.286,100.144 234.62,101.644 235.5,103C 239.833,103.333 244.167,103.667 248.5,104C 245.956,106.222 245.956,108.389 248.5,110.5C 248.291,111.086 247.957,111.586 247.5,112C 249.605,113.335 250.271,115.002 249.5,117C 250.167,117.667 250.833,118.333 251.5,119C 252.327,120.893 252.327,123.059 251.5,125.5C 251.957,126.298 252.624,126.631 253.5,126.5C 253.5,126.833 253.5,127.167 253.5,127.5C 251.574,129.293 249.241,130.293 246.5,130.5C 241.216,131.595 236.216,133.261 231.5,135.5C 226.809,137.591 221.809,138.924 216.5,139.5C 215.5,139.5 214.5,139.5 213.5,139.5C 213.335,137.173 212.669,135.007 211.5,133C 212.061,131.434 211.394,130.101 209.5,129C 211.831,126.968 213.164,124.801 213.5,122.5C 212.687,121.186 211.687,120.019 210.5,119C 210.833,118.667 211.167,118.333 211.5,118C 208.047,116.272 206.214,113.438 206,109.5C 205.667,110.5 205.333,111.5 205,112.5C 204,110.5 203,108.5 202,106.5C 201.667,107.167 201.333,107.833 201,108.5C 200.535,107.069 199.701,105.903 198.5,105C 198.833,104.667 199.167,104.333 199.5,104C 198.643,103.311 197.977,102.478 197.5,101.5C 198.5,100.167 199.5,98.8333 200.5,97.5C 200.376,96.8933 200.043,96.56 199.5,96.5C 204.145,89.9649 206.978,82.6315 208,74.5C 210.239,64.0635 206.072,57.8968 195.5,56C 188.837,54.8296 182.504,55.663 176.5,58.5C 176.44,57.9569 176.107,57.6236 175.5,57.5C 173.941,58.0736 172.441,58.7402 171,59.5C 168.967,57.6503 168.967,56.9836 171,57.5C 171.574,55.508 172.741,54.008 174.5,53C 174.167,52.6667 173.833,52.3333 173.5,52C 176.167,51.3333 176.167,50.6667 173.5,50C 176.167,49.3333 176.167,48.6667 173.5,48C 174.26,46.1653 174.594,44.1653 174.5,42C 174.095,41.0546 173.428,40.3879 172.5,40C 173.167,39.6667 173.833,39.3333 174.5,39C 172.041,38.276 171.041,36.9427 171.5,35C 169.218,32.6026 167.884,29.7693 167.5,26.5C 165.571,26.7692 163.905,26.2692 162.5,25C 164.283,23.9335 164.783,22.4335 164,20.5C 162.869,21.6039 162.035,21.2705 161.5,19.5C 163.087,17.9149 163.92,16.2482 164,14.5C 165.297,15.7836 166.464,15.6169 167.5,14C 172.489,13.5007 177.489,13.3341 182.5,13.5 Z"/></g>
<g><path style="opacity:0.902" fill="#ffcd7d" d="M 192.5,14.5 C 196.425,14.4299 200.091,15.0966 203.5,16.5C 200.482,16.6646 197.482,16.498 194.5,16C 193.584,15.7216 192.918,15.2216 192.5,14.5 Z"/></g>
<g><path style="opacity:1" fill="#fcc228" d="M 101.5,16.5 C 103.158,17.1814 104.825,18.0147 106.5,19C 105.167,20 105.167,21 106.5,22C 105.313,23.0195 104.313,24.1861 103.5,25.5C 105.459,26.7481 106.959,28.4148 108,30.5C 108.333,30.1667 108.667,29.8333 109,29.5C 111.413,32.0618 113.08,35.0618 114,38.5C 114.333,38.1667 114.667,37.8333 115,37.5C 115.903,38.7014 117.069,39.5348 118.5,40C 117.692,40.3076 117.025,40.8076 116.5,41.5C 117.871,44.3264 116.871,45.8264 113.5,46C 116.544,46.3589 116.878,47.0255 114.5,48C 117.167,48.6667 117.167,49.3333 114.5,50C 115.641,50.7412 115.641,51.5745 114.5,52.5C 114.709,53.086 115.043,53.586 115.5,54C 117.833,54.3333 120.167,54.6667 122.5,55C 119.964,55.1862 117.631,55.6862 115.5,56.5C 114.5,59.1667 113.5,61.8333 112.5,64.5C 110.736,66.4951 109.403,68.9951 108.5,72C 108.5,74 108.5,76 108.5,78C 106.578,79.46 105.911,81.1267 106.5,83C 103.833,83.6667 103.833,84.3333 106.5,85C 105.151,85.7724 104.318,86.9391 104,88.5C 103.667,87.5 103.333,86.5 103,85.5C 102.667,87.1667 102.333,88.8333 102,90.5C 101.935,84.9087 102.769,79.4087 104.5,74C 104.472,72.9302 104.139,72.0968 103.5,71.5C 104.657,66.5384 105.657,61.5384 106.5,56.5C 101.833,56.5 97.1667,56.5 92.5,56.5C 97.3165,55.6739 102.316,55.1739 107.5,55C 103.247,54.8002 99.08,54.3002 95,53.5C 93.6361,54.2583 92.4695,53.7583 91.5,52C 92.1667,51.3333 92.8333,50.6667 93.5,50C 93.3842,48.7318 93.0509,47.3985 92.5,46C 93.1667,45.6667 93.8333,45.3333 94.5,45C 92.1645,43.0247 90.9979,40.5247 91,37.5C 90.0862,38.6537 89.2529,38.487 88.5,37C 88.5,35 88.5,33 88.5,31C 87.1667,30.3333 85.8333,29.6667 84.5,29C 85.8333,28 85.8333,27 84.5,26C 85.4695,24.2417 86.6361,23.7417 88,24.5C 88.49,23.2068 88.6567,21.8734 88.5,20.5C 87.209,20.7373 86.209,20.404 85.5,19.5C 90.6845,17.8576 96.0178,16.8576 101.5,16.5 Z"/></g>
<g><path style="opacity:0.273" fill="#ffde9a" d="M 203.5,16.5 C 207.458,16.2511 211.124,16.9177 214.5,18.5C 210.613,18.3541 206.946,17.6874 203.5,16.5 Z"/></g>
<g><path style="opacity:0.749" fill="#ffdb89" d="M 80.5,19.5 C 78.4855,20.9238 76.1522,21.5905 73.5,21.5C 75.5145,20.0762 77.8478,19.4095 80.5,19.5 Z"/></g>
<g><path style="opacity:1" fill="#fdcb24" d="M 80.5,19.5 C 82.1667,19.5 83.8333,19.5 85.5,19.5C 86.209,20.404 87.209,20.7373 88.5,20.5C 88.6567,21.8734 88.49,23.2068 88,24.5C 86.6361,23.7417 85.4695,24.2417 84.5,26C 85.8333,27 85.8333,28 84.5,29C 85.8333,29.6667 87.1667,30.3333 88.5,31C 88.5,33 88.5,35 88.5,37C 89.2529,38.487 90.0862,38.6537 91,37.5C 90.9979,40.5247 92.1645,43.0247 94.5,45C 93.8333,45.3333 93.1667,45.6667 92.5,46C 93.0509,47.3985 93.3842,48.7318 93.5,50C 92.8333,50.6667 92.1667,51.3333 91.5,52C 92.4695,53.7583 93.6361,54.2583 95,53.5C 99.08,54.3002 103.247,54.8002 107.5,55C 102.316,55.1739 97.3165,55.6739 92.5,56.5C 88.9891,70.2102 85.3225,83.8769 81.5,97.5C 81.3068,93.551 80.8068,93.551 80,97.5C 79.8019,95.6183 79.3019,93.9516 78.5,92.5C 78.5,92.1667 78.5,91.8333 78.5,91.5C 72.021,90.5093 65.3543,90.176 58.5,90.5C 58.5,89.5 58.5,88.5 58.5,87.5C 60.7242,77.8323 63.0575,68.1657 65.5,58.5C 66.404,57.791 66.7373,56.791 66.5,55.5C 64.7354,54.5386 62.7354,54.2053 60.5,54.5C 60.2606,52.5328 60.5939,50.6995 61.5,49C 60.552,48.5172 59.552,48.3505 58.5,48.5C 58.7035,46.6096 58.0368,45.1096 56.5,44C 56.8333,43.6667 57.1667,43.3333 57.5,43C 56.572,42.6121 55.9054,41.9454 55.5,41C 56.8836,38.1406 57.5503,35.4739 57.5,33C 56.1667,32.3333 54.8333,31.6667 53.5,31C 53.8333,30.6667 54.1667,30.3333 54.5,30C 52.8659,29.5065 51.1992,29.3398 49.5,29.5C 50.7804,28.0687 52.4471,27.4021 54.5,27.5C 61.0507,25.8704 67.3841,23.8704 73.5,21.5C 76.1522,21.5905 78.4855,20.9238 80.5,19.5 Z"/></g>
<g><path style="opacity:0.749" fill="#ffdb88" d="M 73.5,21.5 C 67.3841,23.8704 61.0507,25.8704 54.5,27.5C 60.3655,24.3241 66.6988,22.3241 73.5,21.5 Z"/></g>
<g><path style="opacity:1" fill="#fda238" d="M 222.5,20.5 C 230.556,21.8545 238.223,24.1879 245.5,27.5C 247.046,29.7577 249.046,31.591 251.5,33C 256.404,34.2698 259.237,36.7698 260,40.5C 260.333,39.1667 260.667,37.8333 261,36.5C 262.482,40.3356 263.482,44.0023 264,47.5C 265.84,46.1669 266.34,46.3335 265.5,48C 268.544,48.3589 268.878,49.0255 266.5,50C 269.538,52.7026 272.205,55.7026 274.5,59C 273.333,59.5 272.5,60.3333 272,61.5C 271.016,59.2053 270.183,59.5386 269.5,62.5C 269.709,63.086 270.043,63.586 270.5,64C 269.167,64.6667 268.167,65.6667 267.5,67C 268.641,68.6166 269.474,70.45 270,72.5C 271.83,68.8564 273.497,69.1898 275,73.5C 275.374,72.5838 275.874,71.7504 276.5,71C 273.095,68.0764 272.761,65.2431 275.5,62.5C 275.911,63.2624 276.077,64.2624 276,65.5C 278.734,66.3617 278.901,67.195 276.5,68C 278.359,68.6839 280.026,69.6839 281.5,71C 280.833,71.3333 280.167,71.6667 279.5,72C 280.833,73 282.167,74 283.5,75C 280.833,75.6667 280.833,76.3333 283.5,77C 282.932,80.2537 283.598,83.4204 285.5,86.5C 285.277,87.9667 284.944,89.4667 284.5,91C 285.167,92 285.833,93 286.5,94C 284.384,97.7798 282.717,101.78 281.5,106C 282.571,106.852 283.571,107.685 284.5,108.5C 279.719,113.727 274.052,117.727 267.5,120.5C 262.829,122.503 258.162,124.503 253.5,126.5C 252.624,126.631 251.957,126.298 251.5,125.5C 252.327,123.059 252.327,120.893 251.5,119C 250.833,118.333 250.167,117.667 249.5,117C 250.271,115.002 249.605,113.335 247.5,112C 247.957,111.586 248.291,111.086 248.5,110.5C 245.956,108.389 245.956,106.222 248.5,104C 244.167,103.667 239.833,103.333 235.5,103C 234.62,101.644 234.286,100.144 234.5,98.5C 235.249,99.531 235.915,100.698 236.5,102C 240.486,102.499 244.486,102.666 248.5,102.5C 251.853,87.7545 255.52,73.0878 259.5,58.5C 260.404,57.791 260.737,56.791 260.5,55.5C 255.637,55.1805 250.97,55.5139 246.5,56.5C 244.877,63.9514 242.877,71.2848 240.5,78.5C 237.835,71.5056 235.168,64.5056 232.5,57.5C 228.217,56.5078 223.884,56.1744 219.5,56.5C 223.647,55.6753 227.981,55.1753 232.5,55C 227.849,54.6064 223.516,54.1064 219.5,53.5C 218.516,51.4021 218.849,49.4021 220.5,47.5C 218.625,46.031 218.625,44.1976 220.5,42C 219.833,41.6667 219.167,41.3333 218.5,41C 218.927,38.8719 218.427,36.7053 217,34.5C 216.086,35.6537 215.253,35.487 214.5,34C 214.5,33 214.5,32 214.5,31C 212.787,29.6218 211.453,27.9552 210.5,26C 212.952,24.1936 212.619,22.6936 209.5,21.5C 210.718,21.891 211.552,21.2244 212,19.5C 212.333,20.1667 212.667,20.8333 213,21.5C 213.388,20.572 214.055,19.9054 215,19.5C 217.434,20.3223 219.934,20.6556 222.5,20.5 Z"/></g>
<g><path style="opacity:1" fill="#fed32b" d="M 49.5,29.5 C 51.1992,29.3398 52.8659,29.5065 54.5,30C 54.1667,30.3333 53.8333,30.6667 53.5,31C 54.8333,31.6667 56.1667,32.3333 57.5,33C 57.5503,35.4739 56.8836,38.1406 55.5,41C 55.9054,41.9454 56.572,42.6121 57.5,43C 57.1667,43.3333 56.8333,43.6667 56.5,44C 58.0368,45.1096 58.7035,46.6096 58.5,48.5C 59.552,48.3505 60.552,48.5172 61.5,49C 60.5939,50.6995 60.2606,52.5328 60.5,54.5C 62.7354,54.2053 64.7354,54.5386 66.5,55.5C 61.3054,55.1795 56.3054,55.5128 51.5,56.5C 50.9448,60.3968 49.9448,64.0635 48.5,67.5C 47.5394,66.7834 46.5394,65.6167 45.5,64C 46.5611,60.1568 45.7278,56.6568 43,53.5C 42.6667,54.1667 42.3333,54.8333 42,55.5C 40.4877,53.0426 39.1544,53.0426 38,55.5C 36.9264,54.3816 35.7598,53.3816 34.5,52.5C 35.8897,50.8306 36.2231,49.1639 35.5,47.5C 36.0253,46.8076 36.6919,46.3076 37.5,46C 36.8742,45.2496 36.3742,44.4162 36,43.5C 35.6667,43.8333 35.3333,44.1667 35,44.5C 34.5078,43.451 34.6744,42.451 35.5,41.5C 34.5,40.5 33.5,39.5 32.5,38.5C 30.8127,43.8087 28.646,48.8087 26,53.5C 25.4309,49.6395 24.5976,49.6395 23.5,53.5C 22.914,53.2907 22.414,52.9574 22,52.5C 22.1484,53.825 21.9817,54.9916 21.5,56C 20.2396,57.113 19.073,57.2797 18,56.5C 17.1667,57.3333 16.3333,58.1667 15.5,59C 16.7766,61.4659 16.7766,63.9659 15.5,66.5C 15.891,65.2815 15.2244,64.4482 13.5,64C 14.1667,63.6667 14.8333,63.3333 15.5,63C 15.6192,61.7188 15.1192,60.5521 14,59.5C 9.20056,64.1337 5.36723,69.4671 2.5,75.5C 3.16667,76.8333 3.83333,78.1667 4.5,79.5C 4.15431,80.6956 3.65431,80.6956 3,79.5C 2.50166,82.8168 2.33499,86.1501 2.5,89.5C -1.8709,77.0968 0.462431,66.0968 9.5,56.5C 12.8333,53.8333 15.8333,50.8333 18.5,47.5C 27.394,39.2131 37.7273,33.2131 49.5,29.5 Z"/></g>
<g><path style="opacity:1" fill="#ffa242" d="M 245.5,27.5 C 252.03,29.1006 258.03,31.7673 263.5,35.5C 266.161,38.5023 269.495,40.5023 273.5,41.5C 277.154,43.3311 280.487,45.6644 283.5,48.5C 284.757,51.4274 286.757,53.7607 289.5,55.5C 294.403,60.6394 297.736,66.6394 299.5,73.5C 299.5,77.5 299.5,81.5 299.5,85.5C 297.966,91.0992 295.3,96.0992 291.5,100.5C 289.413,101.585 288.08,103.251 287.5,105.5C 286.833,106.833 285.833,107.833 284.5,108.5C 283.571,107.685 282.571,106.852 281.5,106C 282.717,101.78 284.384,97.7798 286.5,94C 285.833,93 285.167,92 284.5,91C 284.944,89.4667 285.277,87.9667 285.5,86.5C 283.598,83.4204 282.932,80.2537 283.5,77C 280.833,76.3333 280.833,75.6667 283.5,75C 282.167,74 280.833,73 279.5,72C 280.167,71.6667 280.833,71.3333 281.5,71C 280.026,69.6839 278.359,68.6839 276.5,68C 278.901,67.195 278.734,66.3617 276,65.5C 276.077,64.2624 275.911,63.2624 275.5,62.5C 272.761,65.2431 273.095,68.0764 276.5,71C 275.874,71.7504 275.374,72.5838 275,73.5C 273.497,69.1898 271.83,68.8564 270,72.5C 269.474,70.45 268.641,68.6166 267.5,67C 268.167,65.6667 269.167,64.6667 270.5,64C 270.043,63.586 269.709,63.086 269.5,62.5C 270.183,59.5386 271.016,59.2053 272,61.5C 272.5,60.3333 273.333,59.5 274.5,59C 272.205,55.7026 269.538,52.7026 266.5,50C 268.878,49.0255 268.544,48.3589 265.5,48C 266.34,46.3335 265.84,46.1669 264,47.5C 263.482,44.0023 262.482,40.3356 261,36.5C 260.667,37.8333 260.333,39.1667 260,40.5C 259.237,36.7698 256.404,34.2698 251.5,33C 249.046,31.591 247.046,29.7577 245.5,27.5 Z"/></g>
<g><path style="opacity:0.694" fill="#ffd589" d="M 263.5,35.5 C 267.505,36.4977 270.839,38.4977 273.5,41.5C 269.495,40.5023 266.161,38.5023 263.5,35.5 Z"/></g>
<g><path style="opacity:0.588" fill="#ffe3a4" d="M 283.5,48.5 C 286.243,50.2393 288.243,52.5726 289.5,55.5C 286.757,53.7607 284.757,51.4274 283.5,48.5 Z"/></g>
<g><path style="opacity:0.749" fill="#ffdd8f" d="M 18.5,47.5 C 15.8333,50.8333 12.8333,53.8333 9.5,56.5C 11.5,52.5 14.5,49.5 18.5,47.5 Z"/></g>
<g><path style="opacity:1" fill="#9d7b24" d="M 51.5,56.5 C 56.3054,55.5128 61.3054,55.1795 66.5,55.5C 66.7373,56.791 66.404,57.791 65.5,58.5C 61.2853,56.5636 56.6186,55.8969 51.5,56.5 Z"/></g>
<g><path style="opacity:1" fill="#9e7a25" d="M 150.5,56.5 C 154.683,55.1889 159.016,55.1889 163.5,56.5C 163.376,57.1067 163.043,57.44 162.5,57.5C 158.702,56.5166 154.702,56.1832 150.5,56.5 Z"/></g>
<g><path style="opacity:1" fill="#9d7925" d="M 246.5,56.5 C 250.97,55.5139 255.637,55.1805 260.5,55.5C 260.737,56.791 260.404,57.791 259.5,58.5C 255.627,56.5698 251.294,55.9031 246.5,56.5 Z"/></g>
<g><path style="opacity:1" fill="#181715" d="M 199.5,96.5 C 194.284,101.186 188.117,103.519 181,103.5C 167.207,103.711 161.207,97.0445 163,83.5C 163.866,73.0944 168.366,64.7611 176.5,58.5C 182.504,55.663 188.837,54.8296 195.5,56C 206.072,57.8968 210.239,64.0635 208,74.5C 206.978,82.6315 204.145,89.9649 199.5,96.5 Z"/></g>
<g><path style="opacity:1" fill="#171614" d="M 219.5,56.5 C 223.884,56.1744 228.217,56.5078 232.5,57.5C 235.168,64.5056 237.835,71.5056 240.5,78.5C 242.877,71.2848 244.877,63.9514 246.5,56.5C 251.294,55.9031 255.627,56.5698 259.5,58.5C 255.52,73.0878 251.853,87.7545 248.5,102.5C 244.486,102.666 240.486,102.499 236.5,102C 235.915,100.698 235.249,99.531 234.5,98.5C 232.299,92.4024 229.799,86.4024 227,80.5C 225.321,87.5487 223.488,94.5487 221.5,101.5C 217.217,102.492 212.884,102.826 208.5,102.5C 212.463,87.3116 216.13,71.9782 219.5,56.5 Z"/></g>
<g><path style="opacity:1" fill="#171614" d="M 92.5,56.5 C 97.1667,56.5 101.833,56.5 106.5,56.5C 105.657,61.5384 104.657,66.5384 103.5,71.5C 100.389,81.6072 97.7224,91.9405 95.5,102.5C 90.8333,102.5 86.1667,102.5 81.5,102.5C 81.5,101.5 81.5,100.5 81.5,99.5C 81.5,98.8333 81.5,98.1667 81.5,97.5C 85.3225,83.8769 88.9891,70.2102 92.5,56.5 Z"/></g>
<g><path style="opacity:1" fill="#fed81c" d="M 48.5,67.5 C 45.9897,79.2073 43.3231,90.874 40.5,102.5C 51.9928,103.331 63.6595,103.831 75.5,104C 74.7471,105.487 73.9138,105.654 73,104.5C 72.5439,105.744 73.0439,106.577 74.5,107C 73.3147,108.353 71.9814,109.52 70.5,110.5C 71.2357,112.541 72.0691,114.541 73,116.5C 73.6667,113.833 74.3333,113.833 75,116.5C 75.3333,115.833 75.6667,115.167 76,114.5C 77.1667,116.333 78.3333,118.167 79.5,120C 78.273,121.587 78.6063,122.921 80.5,124C 79.7471,125.487 78.9138,125.654 78,124.5C 77.3333,129.833 76.6667,129.833 76,124.5C 75.3333,129.833 74.6667,129.833 74,124.5C 73.1502,126.01 72.3169,127.51 71.5,129C 73.0008,132.545 72.5008,133.045 70,130.5C 69.0766,131.759 68.2432,133.092 67.5,134.5C 67.8677,132.494 67.3677,130.494 66,128.5C 64.4288,128.25 62.9288,128.917 61.5,130.5C 59.9446,130.278 58.6113,129.611 57.5,128.5C 54.5491,129.357 51.5491,129.357 48.5,128.5C 47.5522,126.54 47.3855,124.54 48,122.5C 42.5027,120.595 38.1694,117.262 35,112.5C 33.7438,111.97 32.2438,111.97 30.5,112.5C 28.6769,111.509 27.1769,110.176 26,108.5C 24.8903,110.397 24.7236,112.23 25.5,114C 24.8333,114.667 24.1667,114.667 23.5,114C 22.789,109.914 20.789,106.581 17.5,104C 18.3402,102.334 17.8402,102.167 16,103.5C 13.9045,102.285 14.0712,101.451 16.5,101C 13.1236,99.6335 10.2903,97.4669 8,94.5C 5.87073,95.8627 5.37073,95.5294 6.5,93.5C 4.4744,91.5572 4.4744,89.3905 6.5,87C 5.1058,87.4993 3.77247,88.3326 2.5,89.5C 2.33499,86.1501 2.50166,82.8168 3,79.5C 3.65431,80.6956 4.15431,80.6956 4.5,79.5C 3.83333,78.1667 3.16667,76.8333 2.5,75.5C 5.36723,69.4671 9.20056,64.1337 14,59.5C 15.1192,60.5521 15.6192,61.7188 15.5,63C 14.8333,63.3333 14.1667,63.6667 13.5,64C 15.2244,64.4482 15.891,65.2815 15.5,66.5C 16.7766,63.9659 16.7766,61.4659 15.5,59C 16.3333,58.1667 17.1667,57.3333 18,56.5C 19.073,57.2797 20.2396,57.113 21.5,56C 21.9817,54.9916 22.1484,53.825 22,52.5C 22.414,52.9574 22.914,53.2907 23.5,53.5C 24.5976,49.6395 25.4309,49.6395 26,53.5C 28.646,48.8087 30.8127,43.8087 32.5,38.5C 33.5,39.5 34.5,40.5 35.5,41.5C 34.6744,42.451 34.5078,43.451 35,44.5C 35.3333,44.1667 35.6667,43.8333 36,43.5C 36.3742,44.4162 36.8742,45.2496 37.5,46C 36.6919,46.3076 36.0253,46.8076 35.5,47.5C 36.2231,49.1639 35.8897,50.8306 34.5,52.5C 35.7598,53.3816 36.9264,54.3816 38,55.5C 39.1544,53.0426 40.4877,53.0426 42,55.5C 42.3333,54.8333 42.6667,54.1667 43,53.5C 45.7278,56.6568 46.5611,60.1568 45.5,64C 46.5394,65.6167 47.5394,66.7834 48.5,67.5 Z"/></g>
<g><path style="opacity:1" fill="#181614" d="M 115.5,56.5 C 119.833,56.5 124.167,56.5 128.5,56.5C 128.366,58.2915 128.699,59.9582 129.5,61.5C 130.768,66.3045 132.435,70.9712 134.5,75.5C 139.856,69.1473 145.19,62.814 150.5,56.5C 154.702,56.1832 158.702,56.5166 162.5,57.5C 158.832,72.1715 155.165,86.8382 151.5,101.5C 147.366,102.485 143.032,102.818 138.5,102.5C 139.93,95.0723 141.43,87.739 143,80.5C 140.354,83.9802 137.521,87.3135 134.5,90.5C 131.914,91.48 129.247,91.8134 126.5,91.5C 126.231,87.5265 125.064,83.8598 123,80.5C 120.869,86.3565 119.369,92.3565 118.5,98.5C 117.766,99.7079 117.433,101.041 117.5,102.5C 112.706,103.097 108.373,102.43 104.5,100.5C 107.167,88.5 109.833,76.5 112.5,64.5C 113.5,61.8333 114.5,59.1667 115.5,56.5 Z"/></g>
<g><path style="opacity:1" fill="#fdc926" d="M 112.5,64.5 C 109.833,76.5 107.167,88.5 104.5,100.5C 103.596,101.209 103.263,102.209 103.5,103.5C 108.363,103.819 113.03,103.486 117.5,102.5C 117.433,101.041 117.766,99.7079 118.5,98.5C 119.807,100.223 119.807,102.057 118.5,104C 119.362,106.734 120.195,106.901 121,104.5C 121.974,106.878 122.641,106.544 123,103.5C 123.273,105.329 124.107,106.829 125.5,108C 122.882,109.974 123.048,111.807 126,113.5C 126.333,113.167 126.667,112.833 127,112.5C 127.492,113.549 127.326,114.549 126.5,115.5C 127.833,117.5 129.167,119.5 130.5,121.5C 128.886,124.157 129.552,125.99 132.5,127C 132.056,128.533 131.723,130.033 131.5,131.5C 132.242,133.35 133.242,134.016 134.5,133.5C 134.512,135.412 134.179,137.412 133.5,139.5C 135.415,141.071 136.415,143.071 136.5,145.5C 132.833,145.5 129.167,145.5 125.5,145.5C 117.764,145.55 110.097,144.883 102.5,143.5C 101.07,142.463 99.403,141.796 97.5,141.5C 98.0577,140.21 99.0577,139.377 100.5,139C 98.1088,138.309 98.1088,137.309 100.5,136C 99.8333,134.667 98.8333,133.667 97.5,133C 101.223,131.032 101.223,129.365 97.5,128C 101.5,127.333 101.5,126.667 97.5,126C 98.3452,124.442 97.6785,123.442 95.5,123C 96.1667,122.667 96.8333,122.333 97.5,122C 95.8333,119 94.1667,116 92.5,113C 92.5773,110.889 92.9106,108.889 93.5,107C 92.8333,106.333 92.1667,105.667 91.5,105C 93.0581,104.79 94.3915,104.29 95.5,103.5C 95.5,103.167 95.5,102.833 95.5,102.5C 97.7224,91.9405 100.389,81.6072 103.5,71.5C 104.139,72.0968 104.472,72.9302 104.5,74C 102.769,79.4087 101.935,84.9087 102,90.5C 102.333,88.8333 102.667,87.1667 103,85.5C 103.333,86.5 103.667,87.5 104,88.5C 104.318,86.9391 105.151,85.7724 106.5,85C 103.833,84.3333 103.833,83.6667 106.5,83C 105.911,81.1267 106.578,79.46 108.5,78C 108.5,76 108.5,74 108.5,72C 109.403,68.9951 110.736,66.4951 112.5,64.5 Z"/></g>
<g><path style="opacity:1" fill="#f4ad30" d="M 185.5,66.5 C 188.365,66.0548 190.865,66.7215 193,68.5C 194.16,77.0375 191.993,84.5375 186.5,91C 183.833,91.6667 181.167,91.6667 178.5,91C 176.738,81.6346 179.071,73.4679 185.5,66.5 Z"/></g>
<g><path style="opacity:1" fill="#161413" d="M 51.5,56.5 C 56.6186,55.8969 61.2853,56.5636 65.5,58.5C 63.0575,68.1657 60.7242,77.8323 58.5,87.5C 57.5655,88.5676 57.2322,89.901 57.5,91.5C 64.5,91.5 71.5,91.5 78.5,91.5C 78.5,91.8333 78.5,92.1667 78.5,92.5C 77.4192,95.6267 76.7526,98.9601 76.5,102.5C 64.5,102.5 52.5,102.5 40.5,102.5C 43.3231,90.874 45.9897,79.2073 48.5,67.5C 49.9448,64.0635 50.9448,60.3968 51.5,56.5 Z"/></g>
<g><path style="opacity:1" fill="#fdc128" d="M 151.5,101.5 C 152.117,101.611 152.617,101.944 153,102.5C 153.818,97.2063 154.318,97.2063 154.5,102.5C 157.794,101.947 159.46,102.947 159.5,105.5C 160.675,104.145 161.675,104.312 162.5,106C 162.167,107 161.833,108 161.5,109C 162.744,109.456 163.577,108.956 164,107.5C 165.75,110.246 166.75,113.246 167,116.5C 167.333,115.833 167.667,115.167 168,114.5C 169.902,116.884 171.069,119.551 171.5,122.5C 173.103,122.312 174.437,122.812 175.5,124C 174.5,126.091 175.167,127.757 177.5,129C 176.689,131.72 176.689,134.22 177.5,136.5C 174.924,137.883 175.258,138.717 178.5,139C 176.043,140.512 176.043,141.846 178.5,143C 177.584,143.278 176.918,143.778 176.5,144.5C 163.203,145.445 149.87,145.778 136.5,145.5C 136.415,143.071 135.415,141.071 133.5,139.5C 134.179,137.412 134.512,135.412 134.5,133.5C 133.242,134.016 132.242,133.35 131.5,131.5C 131.723,130.033 132.056,128.533 132.5,127C 129.552,125.99 128.886,124.157 130.5,121.5C 129.167,119.5 127.833,117.5 126.5,115.5C 127.326,114.549 127.492,113.549 127,112.5C 126.667,112.833 126.333,113.167 126,113.5C 123.048,111.807 122.882,109.974 125.5,108C 124.107,106.829 123.273,105.329 123,103.5C 122.641,106.544 121.974,106.878 121,104.5C 120.195,106.901 119.362,106.734 118.5,104C 119.807,102.057 119.807,100.223 118.5,98.5C 119.369,92.3565 120.869,86.3565 123,80.5C 125.064,83.8598 126.231,87.5265 126.5,91.5C 129.247,91.8134 131.914,91.48 134.5,90.5C 137.521,87.3135 140.354,83.9802 143,80.5C 141.43,87.739 139.93,95.0723 138.5,102.5C 143.032,102.818 147.366,102.485 151.5,101.5 Z"/></g>
<g><path style="opacity:1" fill="#493918" d="M 58.5,87.5 C 58.5,88.5 58.5,89.5 58.5,90.5C 65.3543,90.176 72.021,90.5093 78.5,91.5C 71.5,91.5 64.5,91.5 57.5,91.5C 57.2322,89.901 57.5655,88.5676 58.5,87.5 Z"/></g>
<g><path style="opacity:1" fill="#fccf27" d="M 78.5,92.5 C 79.3019,93.9516 79.8019,95.6183 80,97.5C 80.8068,93.551 81.3068,93.551 81.5,97.5C 81.5,98.1667 81.5,98.8333 81.5,99.5C 80.5655,100.568 80.2322,101.901 80.5,103.5C 85.5,103.5 90.5,103.5 95.5,103.5C 94.3915,104.29 93.0581,104.79 91.5,105C 92.1667,105.667 92.8333,106.333 93.5,107C 92.9106,108.889 92.5773,110.889 92.5,113C 94.1667,116 95.8333,119 97.5,122C 96.8333,122.333 96.1667,122.667 95.5,123C 97.6785,123.442 98.3452,124.442 97.5,126C 101.5,126.667 101.5,127.333 97.5,128C 101.223,129.365 101.223,131.032 97.5,133C 98.8333,133.667 99.8333,134.667 100.5,136C 98.1088,137.309 98.1088,138.309 100.5,139C 99.0577,139.377 98.0577,140.21 97.5,141.5C 96.1667,141.5 94.8333,141.5 93.5,141.5C 93.1667,141.5 92.8333,141.5 92.5,141.5C 89.7814,140.087 86.7814,139.42 83.5,139.5C 71.2106,137.516 59.544,133.85 48.5,128.5C 51.5491,129.357 54.5491,129.357 57.5,128.5C 58.6113,129.611 59.9446,130.278 61.5,130.5C 62.9288,128.917 64.4288,128.25 66,128.5C 67.3677,130.494 67.8677,132.494 67.5,134.5C 68.2432,133.092 69.0766,131.759 70,130.5C 72.5008,133.045 73.0008,132.545 71.5,129C 72.3169,127.51 73.1502,126.01 74,124.5C 74.6667,129.833 75.3333,129.833 76,124.5C 76.6667,129.833 77.3333,129.833 78,124.5C 78.9138,125.654 79.7471,125.487 80.5,124C 78.6063,122.921 78.273,121.587 79.5,120C 78.3333,118.167 77.1667,116.333 76,114.5C 75.6667,115.167 75.3333,115.833 75,116.5C 74.3333,113.833 73.6667,113.833 73,116.5C 72.0691,114.541 71.2357,112.541 70.5,110.5C 71.9814,109.52 73.3147,108.353 74.5,107C 73.0439,106.577 72.5439,105.744 73,104.5C 73.9138,105.654 74.7471,105.487 75.5,104C 63.6595,103.831 51.9928,103.331 40.5,102.5C 52.5,102.5 64.5,102.5 76.5,102.5C 76.7526,98.9601 77.4192,95.6267 78.5,92.5 Z"/></g>
<g><path style="opacity:1" fill="#bc9d26" d="M 81.5,99.5 C 81.5,100.5 81.5,101.5 81.5,102.5C 86.1667,102.5 90.8333,102.5 95.5,102.5C 95.5,102.833 95.5,103.167 95.5,103.5C 90.5,103.5 85.5,103.5 80.5,103.5C 80.2322,101.901 80.5655,100.568 81.5,99.5 Z"/></g>
<g><path style="opacity:1" fill="#be9728" d="M 104.5,100.5 C 108.373,102.43 112.706,103.097 117.5,102.5C 113.03,103.486 108.363,103.819 103.5,103.5C 103.263,102.209 103.596,101.209 104.5,100.5 Z"/></g>
<g><path style="opacity:0.208" fill="#ffdc99" d="M 291.5,100.5 C 290.92,102.749 289.587,104.415 287.5,105.5C 288.08,103.251 289.413,101.585 291.5,100.5 Z"/></g>
<g><path style="opacity:1" fill="#ffdb3d" d="M 48.5,128.5 C 33.295,122.977 20.1283,114.311 9,102.5C 5.76226,98.6912 3.5956,94.3579 2.5,89.5C 3.77247,88.3326 5.1058,87.4993 6.5,87C 4.4744,89.3905 4.4744,91.5572 6.5,93.5C 5.37073,95.5294 5.87073,95.8627 8,94.5C 10.2903,97.4669 13.1236,99.6335 16.5,101C 14.0712,101.451 13.9045,102.285 16,103.5C 17.8402,102.167 18.3402,102.334 17.5,104C 20.789,106.581 22.789,109.914 23.5,114C 24.1667,114.667 24.8333,114.667 25.5,114C 24.7236,112.23 24.8903,110.397 26,108.5C 27.1769,110.176 28.6769,111.509 30.5,112.5C 32.2438,111.97 33.7438,111.97 35,112.5C 38.1694,117.262 42.5027,120.595 48,122.5C 47.3855,124.54 47.5522,126.54 48.5,128.5 Z"/></g>
<g><path style="opacity:0.455" fill="#ffd58f" d="M 267.5,120.5 C 263.419,123.874 258.753,126.207 253.5,127.5C 253.5,127.167 253.5,126.833 253.5,126.5C 258.162,124.503 262.829,122.503 267.5,120.5 Z"/></g>
<g><path style="opacity:0.455" fill="#ffdc96" d="M 246.5,130.5 C 241.915,133.14 236.915,134.806 231.5,135.5C 236.216,133.261 241.216,131.595 246.5,130.5 Z"/></g>
<g><path style="opacity:0.396" fill="#ffe19a" d="M 83.5,139.5 C 86.7814,139.42 89.7814,140.087 92.5,141.5C 89.2186,141.58 86.2186,140.913 83.5,139.5 Z"/></g>
<g><path style="opacity:0.588" fill="#ffd68b" d="M 213.5,139.5 C 214.5,139.5 215.5,139.5 216.5,139.5C 207.126,142.119 197.46,143.785 187.5,144.5C 195.94,142.353 204.607,140.686 213.5,139.5 Z"/></g>
<g><path style="opacity:0.396" fill="#ffe1a0" d="M 93.5,141.5 C 94.8333,141.5 96.1667,141.5 97.5,141.5C 99.403,141.796 101.07,142.463 102.5,143.5C 99.2727,143.324 96.2727,142.657 93.5,141.5 Z"/></g>
<g><path style="opacity:0.58" fill="#ffd266" d="M 176.5,144.5 C 179.833,144.5 183.167,144.5 186.5,144.5C 174.536,146.005 162.37,146.671 150,146.5C 141.66,146.5 133.493,146.166 125.5,145.5C 129.167,145.5 132.833,145.5 136.5,145.5C 149.87,145.778 163.203,145.445 176.5,144.5 Z"/></g>
</svg>
