<?xml version="1.0" encoding="UTF-8"?>
<!DOCTYPE svg PUBLIC "-//W3C//DTD SVG 1.1//EN" "http://www.w3.org/Graphics/SVG/1.1/DTD/svg11.dtd">
<svg xmlns="http://www.w3.org/2000/svg" version="1.1" width="792px" height="397px" style="shape-rendering:geometricPrecision; text-rendering:geometricPrecision; image-rendering:optimizeQuality; fill-rule:evenodd; clip-rule:evenodd" xmlns:xlink="http://www.w3.org/1999/xlink">
<g><path style="opacity:1" fill="#f7d3ca" d="M 86.5,131.5 C 95.4412,129.759 104.108,130.759 112.5,134.5C 103.968,132.412 95.3016,131.412 86.5,131.5 Z"/></g>
<g><path style="opacity:1" fill="#d33a14" d="M 86.5,131.5 C 95.3016,131.412 103.968,132.412 112.5,134.5C 116.216,136.405 120.216,137.739 124.5,138.5C 125.791,138.263 126.791,138.596 127.5,139.5C 128.78,140.931 130.447,141.598 132.5,141.5C 133.492,141.328 134.158,141.662 134.5,142.5C 135.552,144.256 137.219,144.923 139.5,144.5C 149.833,148.603 159.833,153.27 169.5,158.5C 169.973,159.906 170.973,160.573 172.5,160.5C 180.126,163.98 187.46,167.98 194.5,172.5C 194.821,174.048 195.821,174.715 197.5,174.5C 198.492,174.328 199.158,174.662 199.5,175.5C 199.973,176.906 200.973,177.573 202.5,177.5C 202.973,178.906 203.973,179.573 205.5,179.5C 205.973,180.906 206.973,181.573 208.5,181.5C 209.71,181.932 210.71,182.599 211.5,183.5C 212.035,185.446 213.368,186.446 215.5,186.5C 221.774,190.441 227.44,195.108 232.5,200.5C 232.427,202.027 233.094,203.027 234.5,203.5C 239.223,210.765 239.723,218.432 236,226.5C 234.629,228.041 233.129,229.375 231.5,230.5C 230.85,230.196 230.183,229.863 229.5,229.5C 226.613,231.111 223.613,232.444 220.5,233.5C 220.137,234.183 219.804,234.85 219.5,235.5C 211.837,235.978 204.17,236.478 196.5,237C 195.058,237.377 194.058,238.21 193.5,239.5C 193.167,240.5 192.5,241.167 191.5,241.5C 190.778,241.918 190.278,242.584 190,243.5C 189.501,248.823 189.334,254.156 189.5,259.5C 189.672,260.492 189.338,261.158 188.5,261.5C 186.809,262.864 185.142,264.197 183.5,265.5C 142.833,266.833 102.167,266.833 61.5,265.5C 61.0269,264.094 60.0269,263.427 58.5,263.5C 57.701,260.57 57.3677,257.57 57.5,254.5C 58.8333,253.833 59.8333,252.833 60.5,251.5C 60.9175,250.778 61.5842,250.278 62.5,250C 79.1633,249.5 95.83,249.333 112.5,249.5C 114.017,249.489 115.184,248.823 116,247.5C 116.801,244.633 116.634,241.966 115.5,239.5C 114.317,238.496 112.984,237.662 111.5,237C 97.1667,236.667 82.8333,236.333 68.5,236C 66.6763,235.34 65.343,234.173 64.5,232.5C 64.3424,229.098 64.6758,225.764 65.5,222.5C 76.4703,221.876 87.4703,221.21 98.5,220.5C 99.6302,219.378 100.297,218.044 100.5,216.5C 101.296,212.316 99.963,209.15 96.5,207C 81.5,206.667 66.5,206.333 51.5,206C 49.3645,205.124 48.0312,203.624 47.5,201.5C 47.448,199.097 47.7814,196.764 48.5,194.5C 49.343,192.827 50.6763,191.66 52.5,191C 94.1653,190.5 135.832,190.333 177.5,190.5C 180.261,191.085 181.927,190.085 182.5,187.5C 182.253,186.287 181.586,185.62 180.5,185.5C 180.5,185.167 180.5,184.833 180.5,184.5C 180.196,183.85 179.863,183.183 179.5,182.5C 176.572,181.516 173.572,181.183 170.5,181.5C 166.629,181.815 162.962,181.482 159.5,180.5C 158.391,179.71 157.058,179.21 155.5,179C 148.507,178.334 141.507,177.834 134.5,177.5C 131.763,177.599 129.096,177.265 126.5,176.5C 124.562,174.837 122.228,174.171 119.5,174.5C 118.209,174.737 117.209,174.404 116.5,173.5C 115.22,172.069 113.553,171.402 111.5,171.5C 110.209,171.737 109.209,171.404 108.5,170.5C 107.32,168.087 105.32,167.087 102.5,167.5C 102.027,166.094 101.027,165.427 99.5,165.5C 95.9505,164.277 92.9505,162.277 90.5,159.5C 89.7377,157.738 88.4044,156.738 86.5,156.5C 83.027,154.363 80.6936,151.363 79.5,147.5C 78.6239,144.201 78.4572,140.868 79,137.5C 81.1141,134.879 83.6141,132.879 86.5,131.5 Z M 206.5,198.5 C 207.167,199.833 208.167,200.833 209.5,201.5C 210.274,211.768 206.274,214.435 197.5,209.5C 196.167,206.5 196.167,203.5 197.5,200.5C 200.246,198.874 203.246,198.207 206.5,198.5 Z"/></g>
<g><path style="opacity:1" fill="#f5c9bd" d="M 112.5,134.5 C 116.915,134.861 120.915,136.194 124.5,138.5C 120.216,137.739 116.216,136.405 112.5,134.5 Z"/></g>
<g><path style="opacity:1" fill="#f4c5b8" d="M 86.5,131.5 C 83.6141,132.879 81.1141,134.879 79,137.5C 78.4572,140.868 78.6239,144.201 79.5,147.5C 75.0513,139.184 77.3846,133.851 86.5,131.5 Z"/></g>
<g><path style="opacity:1" fill="#f1b8aa" d="M 127.5,139.5 C 129.553,139.402 131.22,140.069 132.5,141.5C 130.447,141.598 128.78,140.931 127.5,139.5 Z"/></g>
<g><path style="opacity:1" fill="#e77a5c" d="M 134.5,142.5 C 136.553,142.402 138.22,143.069 139.5,144.5C 137.219,144.923 135.552,144.256 134.5,142.5 Z"/></g>
<g><path style="opacity:1" fill="#ec937a" d="M 86.5,156.5 C 88.4044,156.738 89.7377,157.738 90.5,159.5C 88.5956,159.262 87.2623,158.262 86.5,156.5 Z"/></g>
<g><path style="opacity:1" fill="#f4c3b7" d="M 169.5,158.5 C 171.027,158.427 172.027,159.094 172.5,160.5C 170.973,160.573 169.973,159.906 169.5,158.5 Z"/></g>
<g><path style="opacity:1" fill="#efab99" d="M 99.5,165.5 C 101.027,165.427 102.027,166.094 102.5,167.5C 100.973,167.573 99.9731,166.906 99.5,165.5 Z"/></g>
<g><path style="opacity:1" fill="#ea896e" d="M 102.5,167.5 C 105.32,167.087 107.32,168.087 108.5,170.5C 106.181,170.008 104.181,169.008 102.5,167.5 Z"/></g>
<g><path style="opacity:1" fill="#f7d9d1" d="M 111.5,171.5 C 113.553,171.402 115.22,172.069 116.5,173.5C 114.447,173.598 112.78,172.931 111.5,171.5 Z"/></g>
<g><path style="opacity:1" fill="#ee9479" d="M 194.5,172.5 C 195.71,172.932 196.71,173.599 197.5,174.5C 195.821,174.715 194.821,174.048 194.5,172.5 Z"/></g>
<g><path style="opacity:1" fill="#f5c0b1" d="M 119.5,174.5 C 122.228,174.171 124.562,174.837 126.5,176.5C 123.933,176.279 121.599,175.612 119.5,174.5 Z"/></g>
<g><path style="opacity:1" fill="#f9dcd5" d="M 199.5,175.5 C 201.027,175.427 202.027,176.094 202.5,177.5C 200.973,177.573 199.973,176.906 199.5,175.5 Z"/></g>
<g><path style="opacity:1" fill="#dd613f" d="M 134.5,177.5 C 141.507,177.834 148.507,178.334 155.5,179C 157.058,179.21 158.391,179.71 159.5,180.5C 150.904,180.55 142.571,179.55 134.5,177.5 Z"/></g>
<g><path style="opacity:1" fill="#f6d2c8" d="M 202.5,177.5 C 204.027,177.427 205.027,178.094 205.5,179.5C 203.973,179.573 202.973,178.906 202.5,177.5 Z"/></g>
<g><path style="opacity:1" fill="#fcfcfc" d="M 419.5,177.5 C 440.594,176.457 456.094,185.124 466,203.5C 474.17,229.657 466.003,248.824 441.5,261C 417.66,268.823 398.826,262.323 385,241.5C 375.213,217.797 380.713,198.631 401.5,184C 407.294,180.905 413.294,178.739 419.5,177.5 Z M 420.5,199.5 C 438.864,199.863 446.698,209.197 444,227.5C 437.909,241.904 427.743,245.738 413.5,239C 401.226,226.316 401.559,213.983 414.5,202C 416.723,201.434 418.723,200.6 420.5,199.5 Z"/></g>
<g><path style="opacity:1" fill="#fcfcfc" d="M 719.5,177.5 C 743.657,176.487 760.157,187.153 769,209.5C 772.69,241.743 758.357,260.076 726,264.5C 702.74,263.547 688.074,251.88 682,229.5C 679.586,201.304 692.086,183.971 719.5,177.5 Z M 721.5,199.5 C 736.619,198.788 744.619,205.955 745.5,221C 744.63,236.206 736.63,243.206 721.5,242C 709.735,237.558 704.569,229.058 706,216.5C 707.615,207.393 712.781,201.726 721.5,199.5 Z"/></g>
<g><path style="opacity:1" fill="#f6cfc5" d="M 205.5,179.5 C 207.027,179.427 208.027,180.094 208.5,181.5C 206.973,181.573 205.973,180.906 205.5,179.5 Z"/></g>
<g><path style="opacity:1" fill="#fefefe" d="M 300.5,180.5 C 307.072,189.967 313.405,199.634 319.5,209.5C 325.608,199.597 331.942,189.931 338.5,180.5C 346.5,180.5 354.5,180.5 362.5,180.5C 362.5,207.5 362.5,234.5 362.5,261.5C 355.167,261.5 347.833,261.5 340.5,261.5C 340.667,246.163 340.5,230.83 340,215.5C 339.283,216.044 338.783,216.711 338.5,217.5C 332.757,227.984 326.257,237.984 319,247.5C 312.734,237.956 306.234,228.622 299.5,219.5C 298.498,232.116 298.165,246.116 298.5,261.5C 291.167,261.5 283.833,261.5 276.5,261.5C 276.5,234.5 276.5,207.5 276.5,180.5C 284.5,180.5 292.5,180.5 300.5,180.5 Z"/></g>
<g><path style="opacity:1" fill="#e5e5e5" d="M 338.5,180.5 C 346.65,179.507 354.983,179.174 363.5,179.5C 363.5,207.167 363.5,234.833 363.5,262.5C 355.5,262.5 347.5,262.5 339.5,262.5C 339.829,247.324 339.496,232.324 338.5,217.5C 338.783,216.711 339.283,216.044 340,215.5C 340.5,230.83 340.667,246.163 340.5,261.5C 347.833,261.5 355.167,261.5 362.5,261.5C 362.5,234.5 362.5,207.5 362.5,180.5C 354.5,180.5 346.5,180.5 338.5,180.5 Z"/></g>
<g><path style="opacity:1" fill="#fefefe" d="M 512.5,180.5 C 523.547,193.545 534.213,206.878 544.5,220.5C 545.496,207.344 545.829,194.01 545.5,180.5C 552.833,180.5 560.167,180.5 567.5,180.5C 567.5,207.5 567.5,234.5 567.5,261.5C 560.833,261.5 554.167,261.5 547.5,261.5C 535.744,248.079 524.744,234.079 514.5,219.5C 514.631,218.624 514.298,217.957 513.5,217.5C 512.501,232.152 512.167,246.818 512.5,261.5C 505.5,261.5 498.5,261.5 491.5,261.5C 491.5,234.5 491.5,207.5 491.5,180.5C 498.5,180.5 505.5,180.5 512.5,180.5 Z"/></g>
<g><path style="opacity:1" fill="#fefefe" d="M 660.5,179.5 C 661.491,186.313 661.825,193.313 661.5,200.5C 653.167,200.5 644.833,200.5 636.5,200.5C 635.503,220.66 635.17,240.993 635.5,261.5C 628.167,261.5 620.833,261.5 613.5,261.5C 613.5,240.833 613.5,220.167 613.5,199.5C 605.5,199.5 597.5,199.5 589.5,199.5C 589.5,193.167 589.5,186.833 589.5,180.5C 613.339,180.831 637.006,180.498 660.5,179.5 Z"/></g>
<g><path style="opacity:1" fill="#e47758" d="M 170.5,181.5 C 173.572,181.183 176.572,181.516 179.5,182.5C 179.863,183.183 180.196,183.85 180.5,184.5C 177.129,183.284 173.795,182.284 170.5,181.5 Z"/></g>
<g><path style="opacity:1" fill="#d6d6d6" d="M 547.5,261.5 C 554.167,261.5 560.833,261.5 567.5,261.5C 567.5,234.5 567.5,207.5 567.5,180.5C 560.167,180.5 552.833,180.5 545.5,180.5C 545.829,194.01 545.496,207.344 544.5,220.5C 544.5,206.833 544.5,193.167 544.5,179.5C 552.5,179.5 560.5,179.5 568.5,179.5C 568.5,207.167 568.5,234.833 568.5,262.5C 561.313,262.825 554.313,262.491 547.5,261.5 Z"/></g>
<g><path style="opacity:1" fill="#ee9c84" d="M 211.5,183.5 C 213.23,184.026 214.564,185.026 215.5,186.5C 213.368,186.446 212.035,185.446 211.5,183.5 Z"/></g>
<g><path style="opacity:1" fill="#e78468" d="M 180.5,185.5 C 181.586,185.62 182.253,186.287 182.5,187.5C 181.927,190.085 180.261,191.085 177.5,190.5C 178.531,189.751 179.698,189.085 181,188.5C 181.47,187.423 181.303,186.423 180.5,185.5 Z"/></g>
<g><path style="opacity:1" fill="#fbe4de" d="M 48.5,194.5 C 47.7814,196.764 47.448,199.097 47.5,201.5C 46.8529,200.726 46.5195,199.726 46.5,198.5C 46.3402,196.645 47.0069,195.312 48.5,194.5 Z"/></g>
<g><path style="opacity:1" fill="#f3bcad" d="M 206.5,198.5 C 208.5,198.5 209.5,199.5 209.5,201.5C 208.167,200.833 207.167,199.833 206.5,198.5 Z"/></g>
<g><path style="opacity:1" fill="#e8e8e8" d="M 660.5,179.5 C 637.006,180.498 613.339,180.831 589.5,180.5C 589.5,186.833 589.5,193.167 589.5,199.5C 597.5,199.5 605.5,199.5 613.5,199.5C 613.5,220.167 613.5,240.833 613.5,261.5C 620.833,261.5 628.167,261.5 635.5,261.5C 635.17,240.993 635.503,220.66 636.5,200.5C 637.654,220.76 637.82,241.094 637,261.5C 628.919,262.482 620.752,262.816 612.5,262.5C 612.5,241.833 612.5,221.167 612.5,200.5C 604.5,200.5 596.5,200.5 588.5,200.5C 588.5,193.5 588.5,186.5 588.5,179.5C 612.5,179.5 636.5,179.5 660.5,179.5 Z"/></g>
<g><path style="opacity:1" fill="#f2bcae" d="M 232.5,200.5 C 233.906,200.973 234.573,201.973 234.5,203.5C 233.094,203.027 232.427,202.027 232.5,200.5 Z"/></g>
<g><path style="opacity:1" fill="#efb0a0" d="M 197.5,200.5 C 196.167,203.5 196.167,206.5 197.5,209.5C 195.974,208.508 195.307,207.008 195.5,205C 195.307,202.992 195.974,201.492 197.5,200.5 Z"/></g>
<g><path style="opacity:1" fill="#d9d9d9" d="M 300.5,180.5 C 292.5,180.5 284.5,180.5 276.5,180.5C 276.5,207.5 276.5,234.5 276.5,261.5C 283.833,261.5 291.167,261.5 298.5,261.5C 298.165,246.116 298.498,232.116 299.5,219.5C 299.5,233.833 299.5,248.167 299.5,262.5C 291.5,262.5 283.5,262.5 275.5,262.5C 275.5,234.833 275.5,207.167 275.5,179.5C 284.017,179.174 292.35,179.507 300.5,180.5 Z"/></g>
<g><path style="opacity:1" fill="#e3e3e3" d="M 512.5,180.5 C 505.5,180.5 498.5,180.5 491.5,180.5C 491.5,207.5 491.5,234.5 491.5,261.5C 498.5,261.5 505.5,261.5 512.5,261.5C 512.167,246.818 512.501,232.152 513.5,217.5C 514.298,217.957 514.631,218.624 514.5,219.5C 513.504,233.657 513.171,247.99 513.5,262.5C 505.833,262.5 498.167,262.5 490.5,262.5C 490.5,234.833 490.5,207.167 490.5,179.5C 498.019,179.175 505.352,179.508 512.5,180.5 Z"/></g>
<g><path style="opacity:1" fill="#e5836a" d="M 48.5,221.5 C 40.445,221.23 32.445,221.563 24.5,222.5C 24.6107,221.883 24.944,221.383 25.5,221C 33.3446,220.178 41.0113,220.344 48.5,221.5 Z"/></g>
<g><path style="opacity:1" fill="#e2785c" d="M 100.5,216.5 C 100.297,218.044 99.6302,219.378 98.5,220.5C 87.4703,221.21 76.4703,221.876 65.5,222.5C 65.6107,221.883 65.944,221.383 66.5,221C 76.1667,220.667 85.8333,220.333 95.5,220C 97.3231,219.003 98.9897,217.836 100.5,216.5 Z"/></g>
<g><path style="opacity:1" fill="#d5411b" d="M 48.5,221.5 C 48.427,223.027 49.0937,224.027 50.5,224.5C 52.5703,229.418 51.237,233.252 46.5,236C 39.9863,236.82 33.6529,236.653 27.5,235.5C 27.0269,234.094 26.0269,233.427 24.5,233.5C 23.8333,233.5 23.5,233.167 23.5,232.5C 22.7814,230.236 22.448,227.903 22.5,225.5C 23.9063,225.027 24.573,224.027 24.5,222.5C 32.445,221.563 40.445,221.23 48.5,221.5 Z"/></g>
<g><path style="opacity:1" fill="#ee9d86" d="M 48.5,221.5 C 49.9063,221.973 50.573,222.973 50.5,224.5C 49.0937,224.027 48.427,223.027 48.5,221.5 Z"/></g>
<g><path style="opacity:1" fill="#f0b0a0" d="M 24.5,222.5 C 24.573,224.027 23.9063,225.027 22.5,225.5C 22.427,223.973 23.0937,222.973 24.5,222.5 Z"/></g>
<g><path style="opacity:1" fill="#fae8e4" d="M 22.5,225.5 C 22.448,227.903 22.7814,230.236 23.5,232.5C 22.0069,231.688 21.3402,230.355 21.5,228.5C 21.5195,227.274 21.8529,226.274 22.5,225.5 Z"/></g>
<g><path style="opacity:1" fill="#ec937a" d="M 65.5,222.5 C 64.6758,225.764 64.3424,229.098 64.5,232.5C 61.6872,228.886 62.0205,225.552 65.5,222.5 Z"/></g>
<g><path style="opacity:1" fill="#e36d4d" d="M 231.5,230.5 C 228.017,233.237 224.017,234.903 219.5,235.5C 219.804,234.85 220.137,234.183 220.5,233.5C 223.613,232.444 226.613,231.111 229.5,229.5C 230.183,229.863 230.85,230.196 231.5,230.5 Z"/></g>
<g><path style="opacity:1" fill="#eda08b" d="M 24.5,233.5 C 26.0269,233.427 27.0269,234.094 27.5,235.5C 25.9731,235.573 24.9731,234.906 24.5,233.5 Z"/></g>
<g><path style="opacity:1" fill="#f1b9ab" d="M 219.5,235.5 C 210.903,236.753 202.236,238.086 193.5,239.5C 194.058,238.21 195.058,237.377 196.5,237C 204.17,236.478 211.837,235.978 219.5,235.5 Z"/></g>
<g><path style="opacity:1" fill="#e4876e" d="M 191.5,241.5 C 190.963,247.65 190.296,253.65 189.5,259.5C 189.334,254.156 189.501,248.823 190,243.5C 190.278,242.584 190.778,241.918 191.5,241.5 Z"/></g>
<g><path style="opacity:1" fill="#f4bbab" d="M 115.5,239.5 C 116.634,241.966 116.801,244.633 116,247.5C 115.184,248.823 114.017,249.489 112.5,249.5C 115.143,246.766 116.143,243.433 115.5,239.5 Z"/></g>
<g><path style="opacity:1" fill="#d6451f" d="M 48.5,251.5 C 49.3004,253.607 49.9671,255.774 50.5,258C 49.3818,260.059 48.7151,262.226 48.5,264.5C 42.9114,264.998 37.5781,264.332 32.5,262.5C 29.2844,254.329 32.2844,249.996 41.5,249.5C 44.2046,249.316 46.5379,249.983 48.5,251.5 Z"/></g>
<g><path style="opacity:1" fill="#f0b1a0" d="M 60.5,251.5 C 59.8333,252.833 58.8333,253.833 57.5,254.5C 57.5,252.5 58.5,251.5 60.5,251.5 Z"/></g>
<g><path style="opacity:1" fill="#eb8567" d="M 48.5,251.5 C 53.8333,255.833 53.8333,260.167 48.5,264.5C 48.7151,262.226 49.3818,260.059 50.5,258C 49.9671,255.774 49.3004,253.607 48.5,251.5 Z"/></g>
<g><path style="opacity:1" fill="#f5c7bb" d="M 57.5,254.5 C 57.3677,257.57 57.701,260.57 58.5,263.5C 57.8826,263.389 57.3826,263.056 57,262.5C 56.1993,259.633 56.3659,256.966 57.5,254.5 Z"/></g>
<g><path style="opacity:1" fill="#f8d4ca" d="M 188.5,261.5 C 188.033,264.297 186.367,265.631 183.5,265.5C 185.142,264.197 186.809,262.864 188.5,261.5 Z"/></g>
<g><path style="opacity:1" fill="#f09d86" d="M 32.5,262.5 C 37.5781,264.332 42.9114,264.998 48.5,264.5C 48.0825,265.222 47.4158,265.722 46.5,266C 43.1667,266.667 39.8333,266.667 36.5,266C 34.6763,265.34 33.343,264.173 32.5,262.5 Z"/></g>
<g><path style="opacity:1" fill="#f7d4cc" d="M 58.5,263.5 C 60.0269,263.427 61.0269,264.094 61.5,265.5C 59.9731,265.573 58.9731,264.906 58.5,263.5 Z"/></g>
</svg>
