<svg width="171" height="30" viewBox="0 0 171 30" fill="none" xmlns="http://www.w3.org/2000/svg">
<path fill-rule="evenodd" clip-rule="evenodd" d="M131.124 20.7551C127.8 20.7551 125.088 18.115 124.975 14.8311H123.953C124.066 18.6769 127.236 21.7724 131.124 21.7724C133.742 21.7724 136.029 20.367 137.285 18.2789V20.1926C137.285 23.5752 134.521 26.3274 131.124 26.3274C129.627 26.3274 128.184 25.7852 127.059 24.8019C126.847 24.6158 126.524 24.6361 126.339 24.8481C126.152 25.0594 126.173 25.3804 126.385 25.5659C127.695 26.7131 129.379 27.3446 131.124 27.3446C135.085 27.3446 138.306 24.1365 138.306 20.1926V14.8311H137.274C137.161 18.115 134.45 20.7551 131.124 20.7551Z" fill="#FFB500"/>
<path fill-rule="evenodd" clip-rule="evenodd" d="M52.1836 21.2973C52.1836 21.5795 52.4122 21.8063 52.6944 21.8063C52.9766 21.8063 53.2057 21.5795 53.2057 21.2973V14.8311H52.1836V21.2973Z" fill="#FFB500"/>
<path fill-rule="evenodd" clip-rule="evenodd" d="M46.0232 21.8145H49.1655C49.447 21.8145 49.6762 21.5872 49.6762 21.3062C49.6762 21.0252 49.447 20.7973 49.1655 20.7973H46.0232C42.6838 20.7973 39.9623 18.1356 39.8718 14.8313H38.8496C38.9408 18.6969 42.12 21.8145 46.0232 21.8145Z" fill="#FFB500"/>
<path fill-rule="evenodd" clip-rule="evenodd" d="M118.716 21.2976C118.716 21.5798 118.944 21.8065 119.227 21.8065C119.509 21.8065 119.738 21.5798 119.738 21.2976V14.8313H118.716V21.2976Z" fill="#FFB500"/>
<path fill-rule="evenodd" clip-rule="evenodd" d="M112.556 21.8143H115.698C115.98 21.8143 116.209 21.5869 116.209 21.306C116.209 21.025 115.98 20.797 115.698 20.797H112.556C109.216 20.797 106.495 18.1354 106.404 14.8311H105.383C105.473 18.6966 108.653 21.8143 112.556 21.8143Z" fill="#FFB500"/>
<path fill-rule="evenodd" clip-rule="evenodd" d="M57.4326 21.3062C57.4326 21.5872 57.6618 21.8145 57.9434 21.8145C58.2256 21.8145 58.4548 21.5872 58.4548 21.3062V14.8313H57.4326V21.3062Z" fill="#FFB500"/>
<path fill-rule="evenodd" clip-rule="evenodd" d="M34.3809 21.2973C34.3809 21.5795 34.6101 21.8063 34.8922 21.8063C35.1744 21.8063 35.4036 21.5795 35.4036 21.2973V14.8311H34.3809V21.2973Z" fill="#FFB500"/>
<path fill-rule="evenodd" clip-rule="evenodd" d="M16.9531 21.2976C16.9531 21.5798 17.1817 21.8065 17.4639 21.8065C17.7467 21.8065 17.9759 21.5798 17.9759 21.2976V14.8313H16.9531V21.2976Z" fill="#FFB500"/>
<path fill-rule="evenodd" clip-rule="evenodd" d="M25.666 21.2973C25.666 21.5795 25.8952 21.8063 26.1774 21.8063C26.4602 21.8063 26.6888 21.5795 26.6888 21.2973V14.8311H25.666V21.2973Z" fill="#FFB500"/>
<path fill-rule="evenodd" clip-rule="evenodd" d="M100.972 16.9588C100.972 19.0703 99.2463 20.7887 97.1255 20.7887C95.0048 20.7887 93.2797 19.0703 93.2797 16.9588V14.8313H92.2575V16.9588C92.2575 19.0703 90.5323 20.7887 88.4122 20.7887C86.2903 20.7887 84.5657 19.0703 84.5657 16.9588V14.8313H83.543V16.9588C83.543 19.6322 85.7271 21.8065 88.4122 21.8065C90.3204 21.8065 91.971 20.7049 92.7683 19.1085C93.5655 20.7049 95.2174 21.8065 97.1255 21.8065C99.81 21.8065 101.994 19.6322 101.994 16.9588V14.8313H100.972V16.9588Z" fill="#FFB500"/>
<path fill-rule="evenodd" clip-rule="evenodd" d="M12.0513 17.5648C10.9835 19.5438 8.90656 20.797 6.62626 20.797C4.40943 20.797 2.35402 19.5993 1.26101 17.6696C1.12176 17.4243 0.810619 17.3387 0.564167 17.4761C0.318948 17.6147 0.232074 17.9246 0.370703 18.1692C1.64424 20.4187 4.0416 21.8143 6.62626 21.8143C9.4851 21.8143 12.0698 20.1261 13.2115 17.5124C13.2663 17.3892 13.2688 17.2487 13.2188 17.1231C13.1689 16.9974 13.0716 16.8963 12.9471 16.8427L8.30213 14.8311H5.73965L12.0513 17.5648Z" fill="#FFB500"/>
<path fill-rule="evenodd" clip-rule="evenodd" d="M74.447 21.8145C74.7292 21.8145 74.9578 21.5872 74.9578 21.3062C74.9578 21.0252 74.7292 20.7973 74.447 20.7973C71.1076 20.7973 68.3862 18.1356 68.295 14.8313H67.2734C67.3646 18.6969 70.5439 21.8145 74.447 21.8145Z" fill="#FFB500"/>
<path fill-rule="evenodd" clip-rule="evenodd" d="M77.9092 21.2976C77.9092 21.5791 78.1384 21.8065 78.4206 21.8065C78.7021 21.8065 78.9313 21.5791 78.9313 21.2976V14.8313H77.9092V21.2976Z" fill="#FFB500"/>
<path fill-rule="evenodd" clip-rule="evenodd" d="M124.963 14.6215V8.01967C124.963 7.73871 124.735 7.51074 124.452 7.51074C124.17 7.51074 123.941 7.73871 123.941 8.01967V14.6215C123.941 14.6923 123.95 14.7614 123.952 14.8316H124.974C124.972 14.7614 124.963 14.6923 124.963 14.6215Z" fill="#31BCFF"/>
<path fill-rule="evenodd" clip-rule="evenodd" d="M138.306 8.02015C138.306 7.7392 138.078 7.51123 137.796 7.51123C137.513 7.51123 137.285 7.7392 137.285 8.02015V14.622C137.285 14.6928 137.276 14.7618 137.274 14.8321H138.306V8.02015Z" fill="#31BCFF"/>
<path fill-rule="evenodd" clip-rule="evenodd" d="M38.8428 14.6639C38.8428 14.7206 38.8502 14.776 38.8514 14.8321H39.8736C39.8717 14.776 39.8649 14.7206 39.8649 14.6639C39.8649 11.2813 42.6283 8.52846 46.025 8.52846C49.4217 8.52846 52.1851 11.2813 52.1851 14.6639V14.8321H53.2072V14.6639C53.2072 10.72 49.9849 7.51123 46.025 7.51123C42.0651 7.51123 38.8428 10.72 38.8428 14.6639Z" fill="#31BCFF"/>
<path fill-rule="evenodd" clip-rule="evenodd" d="M112.555 7.51074C108.595 7.51074 105.373 10.7195 105.373 14.6634C105.373 14.7201 105.381 14.7755 105.382 14.8316H106.404C106.403 14.7755 106.395 14.7201 106.395 14.6634C106.395 11.2808 109.159 8.52797 112.555 8.52797C115.952 8.52797 118.715 11.2808 118.715 14.6634V14.8316H119.737V14.6634C119.737 10.7195 116.516 7.51074 112.555 7.51074Z" fill="#31BCFF"/>
<path fill-rule="evenodd" clip-rule="evenodd" d="M64.6148 8.52846C64.8964 8.52846 65.1256 8.30172 65.1256 8.02015C65.1256 7.7392 64.8964 7.51123 64.6148 7.51123C60.655 7.51123 57.4326 10.72 57.4326 14.6639V14.8321H58.4548V14.6639C58.4548 11.2813 61.2181 8.52846 64.6148 8.52846Z" fill="#31BCFF"/>
<path fill-rule="evenodd" clip-rule="evenodd" d="M26.1784 10.2099C25.3812 8.61349 23.7305 7.51123 21.8218 7.51123C19.1373 7.51123 16.9531 9.68617 16.9531 12.3589V14.8321H17.9759V12.3589C17.9759 10.2468 19.7004 8.52846 21.8218 8.52846C23.9425 8.52846 25.667 10.2468 25.667 12.3589V14.8321H26.6898V12.3589C26.6898 10.2468 28.415 8.52846 30.5357 8.52846C32.6564 8.52846 34.3816 10.2468 34.3816 12.3589V14.8321H35.4043V12.3589C35.4043 9.68617 33.2202 7.51123 30.5357 7.51123C28.6269 7.51123 26.9763 8.61349 26.1784 10.2099Z" fill="#31BCFF"/>
<path fill-rule="evenodd" clip-rule="evenodd" d="M84.055 7.51123C83.7722 7.51123 83.543 7.7392 83.543 8.02015V14.8321H84.5657V8.02015C84.5657 7.7392 84.3372 7.51123 84.055 7.51123Z" fill="#31BCFF"/>
<path fill-rule="evenodd" clip-rule="evenodd" d="M93.28 8.02015C93.28 7.7392 93.0514 7.51123 92.7686 7.51123C92.4864 7.51123 92.2578 7.7392 92.2578 8.02015V14.8321H93.28V8.02015Z" fill="#31BCFF"/>
<path fill-rule="evenodd" clip-rule="evenodd" d="M101.483 7.51123C101.201 7.51123 100.973 7.7392 100.973 8.02015V14.8321H101.995V8.02015C101.995 7.7392 101.766 7.51123 101.483 7.51123Z" fill="#31BCFF"/>
<path fill-rule="evenodd" clip-rule="evenodd" d="M11.7497 11.2579C11.9056 11.4914 12.2235 11.5543 12.4582 11.3984C12.693 11.2419 12.7558 10.9252 12.5987 10.6923C11.2617 8.69974 9.02885 7.51123 6.62656 7.51123C3.76957 7.51123 1.18552 9.19881 0.0426009 11.81C-0.0116184 11.9332 -0.014083 12.0737 0.0352074 12.1987C0.0851139 12.3257 0.183078 12.4255 0.30692 12.4797L5.73995 14.8321H8.30243L1.20339 11.7582C2.27114 9.78105 4.34811 8.52846 6.62656 8.52846C8.68689 8.52846 10.6012 9.54939 11.7497 11.2579Z" fill="#31BCFF"/>
<path fill-rule="evenodd" clip-rule="evenodd" d="M68.2888 8.92435H70.871C71.1525 8.92435 71.3817 8.697 71.3817 8.41604C71.3817 8.13447 71.1525 7.9065 70.871 7.9065H68.2888V3.0514C68.2888 2.77045 68.0596 2.54248 67.7774 2.54248C67.4958 2.54248 67.2666 2.77045 67.2666 3.0514V14.6636C67.2666 14.7203 67.274 14.7757 67.2752 14.8318H68.2968C68.2955 14.7757 68.2888 14.7203 68.2888 14.6636V8.92435Z" fill="#31BCFF"/>
<path fill-rule="evenodd" clip-rule="evenodd" d="M78.4206 7.51123C78.1384 7.51123 77.9092 7.7392 77.9092 8.02015V14.8321H78.9313V8.02015C78.9313 7.7392 78.7021 7.51123 78.4206 7.51123Z" fill="#31BCFF"/>
<path fill-rule="evenodd" clip-rule="evenodd" d="M78.4189 3.72461C77.7806 3.72461 77.2637 4.23908 77.2637 4.87492C77.2637 5.51015 77.7806 6.02524 78.4189 6.02524C79.0566 6.02524 79.5742 5.51015 79.5742 4.87492C79.5742 4.23908 79.0566 3.72461 78.4189 3.72461Z" fill="#31BCFF"/>
<path d="M151.057 3.99295C150.781 4.27005 150.582 4.61423 150.481 4.99136C150.38 5.36849 150.379 5.76544 150.48 6.14284C150.58 6.52024 150.777 6.86495 151.052 7.14278C151.328 7.42062 151.671 7.6219 152.048 7.72667C152.104 7.65627 152.164 7.58908 152.228 7.52543C152.511 7.24199 152.865 7.03894 153.253 6.93723C153.64 6.83552 154.049 6.83885 154.435 6.94687C154.793 6.49598 154.964 5.92491 154.912 5.35183C154.86 4.77876 154.589 4.24753 154.155 3.86806C153.722 3.48859 153.158 3.28992 152.581 3.31317C152.004 3.33642 151.458 3.5798 151.057 3.99295Z" fill="#31BCFF"/>
<path d="M163.982 4.0282C164.034 4.07275 164.095 4.10548 164.161 4.12409C164.227 4.14271 164.296 4.14678 164.364 4.13601C164.48 4.11793 164.584 4.05619 164.656 3.96352C164.736 3.86055 164.773 3.73099 164.761 3.60138C164.748 3.47177 164.686 3.35191 164.587 3.26637C162.305 1.31506 160.164 2.73811 159.353 3.76587C159.273 3.86917 159.237 3.99852 159.249 4.12788C159.262 4.25725 159.323 4.377 159.421 4.46302C159.513 4.54445 159.634 4.58602 159.757 4.57861C159.88 4.5712 159.995 4.51541 160.077 4.4235L160.095 4.40193C160.167 4.31209 161.865 2.21704 163.982 4.04258" fill="#31BCFF"/>
<path d="M166.444 16.6454L166.199 20.2031C166.232 20.7855 166.192 21.3697 166.08 21.9423L165.975 23.4768H162.457L153.826 19.7287C154.205 19.0743 154.745 18.5271 155.396 18.1387C156.046 17.7504 156.785 17.5337 157.543 17.5093C158.301 17.4848 159.052 17.6533 159.727 17.9989C160.401 18.3445 160.976 18.8558 161.397 19.4843C161.434 19.5415 161.483 19.5907 161.54 19.6288C161.596 19.6669 161.66 19.6933 161.728 19.7064C161.795 19.7195 161.864 19.7189 161.931 19.7049C161.998 19.6908 162.062 19.6635 162.118 19.6245C162.229 19.55 162.305 19.4348 162.331 19.3041C162.357 19.1735 162.329 19.038 162.255 18.9273C161.725 18.1341 160.997 17.4929 160.141 17.0676C159.286 16.6423 158.333 16.4478 157.379 16.5034C156.425 16.559 155.502 16.8628 154.702 17.3846C153.902 17.9063 153.253 18.6278 152.82 19.4772H149.024C148.955 18.5428 148.89 17.6085 148.822 16.6742C148.813 16.5311 148.835 16.3879 148.885 16.2536C148.936 16.1193 149.013 15.997 149.114 15.8944C149.317 15.703 149.557 15.5545 149.819 15.4575C150.081 15.3606 150.36 15.3173 150.639 15.3302H161.581V15.3697C161.625 15.3452 161.674 15.3328 161.725 15.3338H162.579L164.634 15.3122C164.908 15.2996 165.182 15.3424 165.44 15.4382C165.697 15.5339 165.932 15.6805 166.13 15.8692C166.232 15.9711 166.311 16.0933 166.362 16.2277C166.413 16.362 166.435 16.5056 166.426 16.649L166.444 16.6454ZM165.701 27.4908C165.644 28.2778 164.807 28.957 163.866 28.9678C159.742 29.0289 155.574 29.0361 151.439 28.9893C150.502 28.9893 149.658 28.303 149.6 27.516L149.211 22.1005L149.168 21.5183C149.135 21.2021 149.117 20.8894 149.107 20.5732V20.4834H153.018L161.563 24.1811C161.168 24.8609 160.601 25.4246 159.917 25.8151C159.234 26.2056 158.459 26.409 157.671 26.4046C156.883 26.4002 156.11 26.1883 155.431 25.7902C154.752 25.3921 154.191 24.8221 153.804 24.138C153.736 24.0237 153.627 23.9401 153.498 23.9046C153.37 23.8691 153.233 23.8845 153.116 23.9476C153.058 23.9794 153.006 24.0224 152.965 24.0741C152.924 24.1257 152.893 24.185 152.875 24.2485C152.857 24.312 152.852 24.3784 152.86 24.4439C152.868 24.5095 152.888 24.5728 152.921 24.6303C153.405 25.4878 154.114 26.1989 154.97 26.6883C155.827 27.1778 156.8 27.4274 157.788 27.4108C158.775 27.3943 159.739 27.1121 160.579 26.5942C161.419 26.0763 162.102 25.3419 162.558 24.4686H165.911L165.701 27.4908ZM156.688 8.26521C157.002 7.08073 157.136 5.85609 157.085 4.63211C157.403 5.78656 157.889 6.88832 158.527 7.90226V13.8029H156.724V8.47364C156.724 8.40582 156.711 8.3387 156.685 8.27599L156.688 8.26521ZM151.399 12.2613C150.398 12.4257 149.37 12.2931 148.443 11.8801C147.516 11.4671 146.732 10.7919 146.187 9.93819C145.642 9.08453 145.361 8.0901 145.378 7.07841C145.395 6.06672 145.71 5.08236 146.284 4.2476L155.207 1.35118C155.686 2.25317 156.851 5.10646 155.29 9.37922C154.745 10.867 153.256 11.9702 151.399 12.2541V12.2613ZM157.838 0.995419H167.212C168.015 1.61246 168.618 2.45063 168.947 3.40612C169.277 4.36161 169.318 5.39244 169.065 6.37093C168.813 7.34942 168.278 8.23257 167.527 8.91101C166.776 9.58945 165.841 10.0334 164.84 10.1878C164.539 10.2351 164.236 10.2591 163.931 10.2596C163.234 10.2865 162.54 10.1545 161.901 9.87366C161.263 9.59282 160.697 9.17054 160.247 8.63894C157.431 5.04537 157.651 1.98006 157.824 0.977451L157.838 0.995419ZM164.652 14.3096H164.62C163.228 14.3312 161.833 14.3419 160.434 14.3527H160.362V14.2988C160.362 14.1673 160.31 14.0412 160.216 13.9482C160.123 13.8552 159.996 13.8029 159.865 13.8029H159.526V9.34328C160.071 9.97667 160.752 10.4801 161.518 10.8166C162.284 11.153 163.116 11.3139 163.953 11.2874C164.315 11.2868 164.677 11.2592 165.034 11.2048C166.25 11.0234 167.384 10.4842 168.29 9.65646C169.197 8.82868 169.835 7.74998 170.122 6.55859C170.409 5.3672 170.333 4.11741 169.903 2.9694C169.474 1.82139 168.71 0.82746 167.71 0.114994C167.624 0.0541947 167.522 0.0215197 167.418 0.0215614L157.463 0C157.356 0.00109377 157.252 0.0366185 157.166 0.101328C157.08 0.166037 157.018 0.2565 156.988 0.359357C156.797 1.07479 156.724 1.8163 156.771 2.55503C156.586 1.8177 156.281 1.11587 155.866 0.477945C155.804 0.392486 155.716 0.329038 155.615 0.296747C155.513 0.264455 155.405 0.264987 155.304 0.298266L145.84 3.37077C145.74 3.40209 145.653 3.46517 145.591 3.55045C144.919 4.47026 144.516 5.55765 144.426 6.692C144.337 7.82635 144.564 8.96331 145.083 9.97678C145.602 10.9902 146.392 11.8406 147.367 12.4335C148.341 13.0264 149.461 13.3387 150.603 13.3357C150.93 13.3346 151.257 13.3081 151.58 13.2567C152.41 13.1465 153.209 12.8662 153.926 12.4333C154.642 12.0003 155.261 11.4242 155.744 10.7412V13.8209H155.351C155.285 13.8204 155.221 13.8328 155.16 13.8572C155.1 13.8817 155.044 13.9179 154.998 13.9636C154.951 14.0093 154.914 14.0637 154.889 14.1237C154.863 14.1837 154.85 14.2481 154.85 14.3132C154.846 14.3334 154.846 14.3541 154.85 14.3743C153.454 14.3743 152.059 14.3743 150.671 14.3491H150.624C150.214 14.3334 149.804 14.4019 149.421 14.5502C149.037 14.6985 148.689 14.9236 148.396 15.2116C148.203 15.4155 148.054 15.6571 147.959 15.9212C147.864 16.1853 147.825 16.4662 147.845 16.746C147.928 17.8672 148.007 18.9884 148.09 20.1132V20.4726H148.115C148.155 21.0332 148.194 21.5938 148.238 22.158L148.627 27.5735C148.721 28.8779 149.986 29.956 151.45 29.9704C153.516 29.9955 155.61 30.0027 157.676 29.9991C159.742 29.9955 161.837 29.9991 163.902 29.9524C165.366 29.9309 166.628 28.8492 166.718 27.5411L167.439 16.7101C167.455 16.4307 167.414 16.1509 167.317 15.8882C167.22 15.6255 167.071 15.3854 166.877 15.1828C166.585 14.8933 166.236 14.6663 165.853 14.5155C165.47 14.3647 165.06 14.2935 164.649 14.306L164.652 14.3096Z" fill="#31BCFF"/>
<path d="M164.132 16.5301C163.908 16.5294 163.689 16.5948 163.503 16.7182C163.316 16.8416 163.17 17.0174 163.084 17.2233C162.998 17.4292 162.975 17.656 163.018 17.8751C163.061 18.0941 163.168 18.2955 163.326 18.4538C163.483 18.6121 163.685 18.7202 163.904 18.7644C164.124 18.8087 164.351 18.787 164.558 18.7023C164.766 18.6176 164.943 18.4735 165.068 18.2883C165.193 18.1032 165.26 17.8852 165.261 17.662C165.261 17.5139 165.232 17.367 165.176 17.23C165.119 17.0929 165.036 16.9682 164.932 16.8631C164.827 16.758 164.702 16.6745 164.565 16.6173C164.428 16.5602 164.281 16.5305 164.132 16.5301Z" fill="#31BCFF"/>
<path d="M151.302 21.5606H150.559C150.463 21.5606 150.372 21.5984 150.304 21.6658C150.236 21.7332 150.198 21.8246 150.198 21.9199V22.6746C150.198 22.7699 150.236 22.8613 150.304 22.9287C150.372 22.9961 150.463 23.034 150.559 23.034H151.316C151.412 23.034 151.503 22.9961 151.571 22.9287C151.639 22.8613 151.677 22.7699 151.677 22.6746V21.9199C151.677 21.8246 151.639 21.7332 151.571 21.6658C151.503 21.5984 151.412 21.5606 151.316 21.5606" fill="#31BCFF"/>
<path d="M151.302 23.6035H150.559C150.463 23.6035 150.372 23.6414 150.304 23.7088C150.236 23.7762 150.198 23.8676 150.198 23.9629V24.7175C150.198 24.8129 150.236 24.9043 150.304 24.9716C150.372 25.039 150.463 25.0769 150.559 25.0769H151.316C151.412 25.0769 151.503 25.039 151.571 24.9716C151.639 24.9043 151.677 24.8129 151.677 24.7175V23.9629C151.677 23.8676 151.639 23.7762 151.571 23.7088C151.503 23.6414 151.412 23.6035 151.316 23.6035" fill="#31BCFF"/>
<path d="M151.302 25.6301H150.559C150.463 25.6301 150.372 25.668 150.304 25.7354C150.236 25.8027 150.198 25.8941 150.198 25.9895V26.7441C150.198 26.8394 150.236 26.9308 150.304 26.9982C150.372 27.0656 150.463 27.1035 150.559 27.1035H151.316C151.412 27.1035 151.503 27.0656 151.571 26.9982C151.639 26.9308 151.677 26.8394 151.677 26.7441V25.9895C151.677 25.8941 151.639 25.8027 151.571 25.7354C151.503 25.668 151.412 25.6301 151.316 25.6301" fill="#31BCFF"/>
</svg>
