<?xml version="1.0" encoding="UTF-8"?>
<svg xmlns="http://www.w3.org/2000/svg" width="153" height="49" viewBox="0 0 153 49" fill="none">
  <g clip-path="url(#clip0_6_112)">
    <path d="M25.3661 0C25.3661 4.17324 22.7743 6.71947 19.8277 6.71947H15.7633V35.63H8.91027V6.71947H1.02704V0H25.3661Z" fill="white"></path>
    <path d="M35.6301 9.16235V12.5276C36.7478 10.1787 38.6267 8.65969 40.8121 8.5579C46.4521 8.20086 47.9762 14.4114 45.0327 16.599C43.8134 13.2401 37.1573 14.5633 36.6493 20.315C36.5477 21.9436 36.5477 23.6239 36.5477 24.9471V35.6362H29.9384V9.17175L35.6301 9.16235Z" fill="white"></path>
    <path d="M59.1547 19.0873C61.2385 20.8694 64.2867 20.7159 66.8269 20.4622C73.2798 19.9016 70.0284 13.6926 64.5915 13.998C60.7304 14.2016 57.2742 17.4587 57.1726 22.0391C57.071 25.8569 59.3079 29.6747 62.9142 30.2854C64.2837 30.5155 65.6885 30.4087 67.0076 29.9741C68.3267 29.5396 69.5206 28.7903 70.4864 27.7908L75.8153 30.3872C73.0703 34.5103 69.2593 36.1906 64.3821 36.1906C50.7713 36.1906 47.2087 20.3573 54.6324 12.573C57.3258 9.67129 61.1869 8.55164 64.9495 8.55164C77.4989 8.55164 80.2423 22.8017 69.5219 25.4498C62.203 27.2819 57.1226 24.1265 59.1547 19.0873Z" fill="white"></path>
    <path d="M80.5456 35.63V5.25063C80.5456 2.50553 82.9857 0.109629 86.9547 0.00784302V20.5139C86.9547 25.146 88.4788 30.3887 93.764 30.3887C103.112 30.3887 102.909 15.221 93.7124 15.221C91.8835 15.221 89.4918 15.6783 88.3772 17.3068C87.2079 15.1693 87.8692 9.51939 94.5769 9.26571C101.08 9.06214 107.126 14.7622 107.126 22.7532C107.126 35.1727 94.4753 40.2636 86.9609 32.8316V35.6315L80.5456 35.63Z" fill="white"></path>
    <path d="M131.309 32.7283C123.637 40.3638 110.675 35.1711 110.675 22.393C110.675 14.1984 116.874 8.34492 123.531 8.59861C130.035 8.85385 131.101 14.6557 129.882 16.8449C128.764 15.1646 126.326 14.7074 124.395 14.7074C114.994 14.7074 114.791 30.2321 124.395 30.2321C129.78 30.2321 131.304 24.8359 131.304 20.102V9.26413H137.91V35.63H131.309V32.7283Z" fill="white"></path>
    <path d="M150.868 30.2353C151.234 30.5688 151.524 30.9783 151.717 31.4353C151.91 31.8922 152.002 32.3858 151.985 32.8817C151.997 33.377 151.903 33.869 151.71 34.3252C151.518 34.7814 151.231 35.1915 150.868 35.5282C150.535 35.8953 150.126 36.1855 149.67 36.3788C149.214 36.5721 148.721 36.6639 148.226 36.6478C147.732 36.654 147.243 36.5578 146.788 36.3651C146.333 36.1724 145.923 35.8874 145.584 35.5282C145.238 35.1816 144.965 34.7686 144.781 34.3139C144.598 33.8592 144.508 33.3721 144.516 32.8817C144.513 32.3906 144.606 31.9036 144.79 31.4485C144.974 30.9934 145.246 30.5791 145.59 30.2292C145.934 29.8794 146.343 29.6008 146.795 29.4095C147.246 29.2181 147.731 29.1177 148.221 29.114C148.717 29.0972 149.211 29.1888 149.668 29.3825C150.125 29.5761 150.534 29.8671 150.868 30.2353Z" fill="#7CC281"></path>
    <path d="M116.715 48.9984C116.246 49.0027 115.781 48.9205 115.342 48.7557C114.937 48.6044 114.566 48.3722 114.252 48.0732C113.939 47.7741 113.689 47.4145 113.518 47.0159C113.173 46.1666 113.173 45.2156 113.518 44.3664C113.687 43.9699 113.936 43.6123 114.248 43.3156C114.566 43.0132 114.941 42.7783 115.352 42.625C116.285 42.288 117.308 42.3041 118.23 42.6704C118.67 42.8558 119.058 43.1461 119.36 43.516L118.402 44.393C118.203 44.1552 117.956 43.962 117.678 43.8261C117.402 43.6973 117.102 43.632 116.798 43.6351C116.517 43.6335 116.238 43.6867 115.977 43.7917C115.734 43.8871 115.513 44.0317 115.329 44.2166C115.144 44.4015 115 44.6225 114.905 44.8659C114.705 45.4016 114.705 45.9917 114.905 46.5274C114.999 46.771 115.144 46.9923 115.328 47.1773C115.513 47.3622 115.734 47.5067 115.977 47.6016C116.238 47.7066 116.517 47.7597 116.798 47.7582C117.102 47.7611 117.403 47.6942 117.678 47.5624C117.956 47.4248 118.203 47.2301 118.402 46.9909L119.36 47.8678C119.057 48.2382 118.669 48.5299 118.23 48.7181C117.749 48.914 117.234 49.0094 116.715 48.9984Z" fill="white"></path>
    <path d="M122.433 48.8888V43.9733H123.792V45.3702L123.601 44.9599C123.737 44.6234 123.985 44.3441 124.303 44.1691C124.666 43.9797 125.071 43.8869 125.48 43.8997V45.2245C125.428 45.2136 125.377 45.2042 125.324 45.1979C125.272 45.1917 125.219 45.1885 125.167 45.1885C124.816 45.1701 124.472 45.2917 124.211 45.5267C123.973 45.7522 123.854 46.0983 123.854 46.5681V48.8888H122.433Z" fill="white"></path>
    <path d="M130.906 48.9609C130.397 48.9718 129.893 48.859 129.438 48.632C129.035 48.4301 128.697 48.1186 128.462 47.7332C128.228 47.3398 128.108 46.8885 128.115 46.4303C128.108 45.973 128.223 45.522 128.448 45.1243C128.668 44.7427 128.99 44.4307 129.378 44.2239C129.792 44.004 130.255 43.8925 130.723 43.8997C131.176 43.8935 131.623 44.0012 132.023 44.2129C132.404 44.4143 132.721 44.7179 132.939 45.0898C133.174 45.5039 133.291 45.9746 133.277 46.4506C133.278 46.5129 133.275 46.5752 133.268 46.637C133.258 46.7059 133.255 46.7732 133.249 46.8343H129.264V46.0028H132.502L131.945 46.2486C131.957 46.0178 131.907 45.788 131.8 45.5831C131.701 45.3982 131.553 45.2447 131.372 45.1399C131.176 45.0315 130.955 44.9774 130.732 44.9834C130.508 44.9776 130.286 45.0317 130.09 45.1399C129.905 45.2445 129.755 45.4 129.657 45.5878C129.549 45.7976 129.495 46.0313 129.5 46.2674V46.4867C129.494 46.7364 129.557 46.983 129.682 47.1992C129.8 47.401 129.974 47.5642 130.183 47.6689C130.423 47.78 130.685 47.8336 130.949 47.8255C131.182 47.8301 131.413 47.7897 131.629 47.7065C131.832 47.6248 132.016 47.504 132.172 47.3511L132.928 48.1732C132.696 48.4333 132.406 48.635 132.081 48.762C131.706 48.9028 131.307 48.9703 130.906 48.9609Z" fill="white"></path>
    <path d="M138.52 48.9608C138.083 48.9671 137.652 48.8592 137.269 48.6477C136.902 48.4406 136.599 48.1354 136.394 47.766C136.185 47.3535 136.076 46.8975 136.076 46.435C136.076 45.9724 136.185 45.5164 136.394 45.1039C136.599 44.7345 136.902 44.4293 137.269 44.2223C137.652 44.0108 138.083 43.9028 138.52 43.9091C138.903 43.8985 139.281 43.9933 139.614 44.1831C139.935 44.3786 140.187 44.6692 140.335 45.0147C140.52 45.4662 140.606 45.952 140.59 46.4397C140.605 46.9266 140.521 47.4115 140.343 47.8647C140.204 48.213 139.956 48.5066 139.636 48.7009C139.294 48.887 138.909 48.9768 138.52 48.9608ZM138.758 47.7911C138.981 47.7954 139.201 47.7415 139.397 47.6345C139.588 47.5236 139.744 47.3607 139.847 47.1647C139.964 46.9392 140.022 46.6876 140.016 46.4334C140.024 46.1791 139.966 45.9271 139.847 45.7021C139.743 45.5098 139.587 45.3504 139.397 45.2417C139.201 45.1347 138.981 45.0808 138.758 45.0851C138.539 45.0817 138.324 45.1357 138.132 45.2417C137.942 45.3498 137.785 45.5093 137.681 45.7021C137.562 45.9271 137.504 46.1791 137.512 46.4334C137.505 46.6876 137.563 46.9392 137.681 47.1647C137.783 47.3615 137.94 47.5245 138.132 47.6345C138.324 47.7405 138.539 47.7945 138.758 47.7911ZM140.054 48.8872V47.8819L140.08 46.4193L139.989 44.9677V42.1098H141.412V48.8888L140.054 48.8872Z" fill="white"></path>
    <path d="M145.625 43.2874C145.388 43.2986 145.155 43.2166 144.978 43.0588C144.83 42.9172 144.743 42.723 144.736 42.5181C144.729 42.3131 144.803 42.1137 144.942 41.9626C144.953 41.9501 144.965 41.9391 144.978 41.9266C145.156 41.7694 145.388 41.6875 145.625 41.698C145.858 41.6888 146.087 41.7651 146.269 41.9125C146.349 41.98 146.413 42.0647 146.457 42.1604C146.5 42.2561 146.521 42.3603 146.519 42.4653C146.521 42.5753 146.501 42.6846 146.458 42.7861C146.416 42.8875 146.352 42.9788 146.272 43.0541C146.096 43.2147 145.863 43.2987 145.625 43.2874ZM144.909 48.8888V43.9733H146.331V48.8888H144.909Z" fill="white"></path>
    <path d="M149.264 45.1791V44.0829H152.665V45.1791H149.264ZM151.854 48.9608C151.276 48.9608 150.827 48.8136 150.504 48.5177C150.18 48.2217 150.021 47.7832 150.021 47.1976V42.8865H151.452V47.171C151.441 47.3464 151.497 47.5196 151.609 47.6548C151.664 47.7131 151.732 47.7587 151.806 47.7887C151.881 47.8186 151.961 47.8323 152.042 47.8287C152.252 47.8349 152.457 47.7703 152.626 47.6454L153 48.6508C152.845 48.7617 152.67 48.8409 152.484 48.8841C152.278 48.9354 152.067 48.9612 151.854 48.9608Z" fill="white"></path>
    <path d="M109.829 45.8133H0V46.2048H109.829V45.8133Z" fill="white"></path>
  </g>
  <defs>
    <clipPath id="clip0_6_112">
      <rect width="153" height="49" fill="white"></rect>
    </clipPath>
  </defs>
</svg>
