<svg width="416" height="416" viewBox="0 0 416 416" fill="none" xmlns="http://www.w3.org/2000/svg">
<g clip-path="url(#clip0_3316_410)">
<path d="M141.312 235.999H86.0987C85.2296 235.999 84.4227 235.843 83.6778 235.532C82.9329 235.22 82.2812 234.8 81.7225 234.27C81.1949 233.71 80.7759 233.056 80.4655 232.308C80.1552 231.56 80 230.751 80 229.878V168.999H92.1042V223.851H141.312V235.999Z" fill="white"/>
<path d="M203.602 218.945C203.602 221.032 203.339 222.917 202.811 224.599C202.283 226.25 201.585 227.714 200.716 228.991C199.847 230.237 198.838 231.311 197.69 232.215C196.542 233.087 195.331 233.803 194.059 234.364C192.817 234.924 191.545 235.345 190.241 235.625C188.969 235.874 187.758 235.999 186.61 235.999H164.776C163.1 235.999 161.269 235.703 159.282 235.111C157.296 234.519 155.449 233.554 153.742 232.215C152.067 230.844 150.654 229.084 149.506 226.935C148.389 224.754 147.83 222.091 147.83 218.945V202.499C147.83 199.384 148.389 196.752 149.506 194.603C150.654 192.423 152.067 190.663 153.742 189.323C155.449 187.953 157.296 186.972 159.282 186.38C161.269 185.788 163.1 185.492 164.776 185.492H186.61C189.714 185.492 192.352 186.053 194.524 187.174C196.697 188.295 198.45 189.713 199.785 191.426C201.12 193.108 202.082 194.946 202.671 196.939C203.292 198.933 203.602 200.786 203.602 202.499V218.945ZM191.498 202.592C191.498 200.91 191.079 199.665 190.241 198.855C189.403 198.045 188.193 197.64 186.61 197.64H164.869C163.255 197.64 162.029 198.06 161.191 198.901C160.353 199.711 159.934 200.91 159.934 202.499V218.945C159.934 220.534 160.353 221.749 161.191 222.59C162.029 223.431 163.255 223.851 164.869 223.851H186.61C188.255 223.851 189.481 223.431 190.288 222.59C191.095 221.749 191.498 220.534 191.498 218.945V202.592Z" fill="white"/>
<path d="M265.892 219.272C265.892 220.954 265.598 222.777 265.008 224.739C264.418 226.67 263.456 228.477 262.122 230.159C260.818 231.81 259.096 233.196 256.954 234.317C254.844 235.438 252.267 235.999 249.226 235.999H227.392C225.716 235.999 223.9 235.703 221.945 235.111C220.021 234.519 218.221 233.569 216.545 232.261C214.9 230.922 213.519 229.193 212.401 227.075C211.284 224.926 210.725 222.325 210.725 219.272C210.725 217.59 211.02 215.768 211.61 213.806C212.2 211.844 213.146 210.037 214.45 208.386C215.784 206.704 217.507 205.302 219.617 204.181C221.759 203.06 224.35 202.499 227.392 202.499H249.226V214.086H227.392C225.747 214.086 224.474 214.6 223.574 215.628C222.674 216.625 222.224 217.871 222.224 219.366C222.224 220.954 222.736 222.2 223.761 223.104C224.816 223.976 226.057 224.412 227.485 224.412H249.226C250.871 224.412 252.143 223.913 253.043 222.917C253.943 221.92 254.393 220.674 254.393 219.179V202.219C254.393 200.63 253.897 199.369 252.904 198.434C251.942 197.5 250.716 197.032 249.226 197.032H222.643V185.492H249.226C250.902 185.492 252.702 185.788 254.626 186.38C256.582 186.972 258.382 187.937 260.027 189.277C261.703 190.585 263.099 192.314 264.217 194.463C265.334 196.581 265.892 199.166 265.892 202.219V219.272Z" fill="white"/>
<path d="M332 235.999H319.896V207.966C319.896 206.377 319.616 204.96 319.058 203.714C318.53 202.437 317.801 201.347 316.87 200.443C315.939 199.54 314.837 198.855 313.564 198.387C312.323 197.889 310.973 197.64 309.514 197.64H288.332V235.999H276.228V191.519C276.228 190.678 276.383 189.9 276.693 189.183C277.004 188.436 277.438 187.797 277.997 187.268C278.555 186.707 279.207 186.271 279.952 185.959C280.697 185.648 281.488 185.492 282.326 185.492H309.607C311.128 185.492 312.726 185.663 314.402 186.006C316.109 186.349 317.785 186.909 319.43 187.688C321.106 188.436 322.689 189.401 324.179 190.585C325.7 191.737 327.034 193.155 328.183 194.837C329.362 196.487 330.293 198.403 330.976 200.583C331.659 202.764 332 205.225 332 207.966V235.999Z" fill="white"/>
<path d="M368.222 197.607L368.222 177.054L388.506 177.054C394.371 177.054 399.126 172.299 399.126 166.434L399.126 159.336C399.126 158.686 398.597 158.158 397.943 158.153L368.148 158.153L368.148 155.703L368.148 135.419C368.148 129.555 363.393 124.799 357.528 124.799L350.43 124.799C349.78 124.799 349.247 125.333 349.247 125.983L349.247 164.806C349.247 165.474 349.321 166.124 349.451 166.755C349.372 167.232 349.321 167.72 349.321 168.221L349.321 207.044C349.321 207.694 349.85 208.222 350.504 208.227L357.603 208.227C363.467 208.227 368.222 203.472 368.222 197.607Z" fill="#7CFF01"/>
<path d="M316.311 171.857V158.754C316.311 158.321 316.665 157.966 317.098 157.966H329.604C333.488 157.966 336.644 161.122 336.644 165.007V176.922C336.644 177.683 336.027 178.3 335.266 178.3H322.76C319.204 178.3 316.311 175.413 316.311 171.85V171.857Z" fill="#7CFF01"/>
<path d="M25.5062 157.723C25.7614 157.28 38.4202 151.262 38.8808 151.074C45.7342 148.192 52.5894 145.317 59.4491 142.434C55.8514 151.511 55.0861 161.72 57.3044 171.173L136.307 153.676C134.266 146.239 126.552 130.98 123.332 124.015C122.389 121.976 121.386 119.948 120.012 118.2C118.446 116.222 116.444 114.663 114.446 113.165C107.954 108.3 101.217 103.79 94.262 99.6571C91.9021 98.2565 89.4275 96.8682 86.6967 96.6674C84.316 96.4979 81.9652 97.2525 79.6805 97.995C75.4737 99.3615 75.505 99.3734 71.2982 100.74C70.1398 101.116 65.1206 103.092 64.1017 103.783C63.1699 104.414 61.1804 106.011 60.4238 106.862C50.4815 118.027 41.36 128.224 32.1184 140.008C31.6514 140.609 23.6629 149.86 23.4673 150.605" fill="#ED2F2F"/>
<path d="M64.8643 163.548C65.0447 165.501 65.2812 167.117 65.5927 168.245L57.3045 171.172C55.088 161.725 55.8515 151.51 59.4492 142.433C52.5958 145.314 45.7407 148.189 38.8809 151.073C38.4221 151.268 25.0792 157.761 25.0792 157.761C25.0975 157.728 36.7976 150.414 36.815 150.402C49.9767 143.473 55.0315 142.489 61.6087 137.564L66.3835 126.776C66.4511 126.624 66.6726 126.693 66.6363 126.856C65.1296 133.047 64.3467 145.802 64.5024 155.85" fill="#DD281F"/>
<path d="M16.8609 165.643C17.8852 167.095 19.3194 168.255 20.9545 168.952C21.01 168.372 21.0674 167.799 21.1229 167.219C23.1807 167.21 25.2136 168.274 26.3762 169.964C27.9273 168.271 29.5095 166.54 30.4256 164.432C31.3417 162.323 31.4878 159.74 30.2198 157.83C31.3652 158.133 32.3759 158.934 32.9215 159.981C33.4182 158.035 33.049 155.886 31.9277 154.219C30.8065 152.552 28.9571 151.4 26.9638 151.126C27.798 150.398 28.7777 149.837 29.8333 149.491C28.2041 148.959 26.4172 148.917 24.7639 149.387C24.1429 148.32 23.366 147.34 22.4609 146.495C22.163 147.513 21.8735 148.536 21.5756 149.555C18.6831 148.238 15.1359 148.489 12.4521 150.189C13.0698 150.665 13.6874 151.141 14.305 151.617C10.4608 154 8.73977 159.327 10.5012 163.503C11.001 162.774 11.647 162.143 12.3826 161.652C13.3502 163.607 14.439 165.5 15.6323 167.32C15.9984 166.755 16.3708 166.188 16.7387 165.63" fill="#EDEDED"/>
<path d="M30.4335 164.435C31.3496 162.326 31.4956 159.744 30.2277 157.833C31.3731 158.136 32.3838 158.938 32.9294 159.985C33.4261 158.038 33.0569 155.89 31.9356 154.222C31.0818 152.951 29.8006 151.984 28.3652 151.473C29.0892 152.607 29.7307 153.793 30.2492 155.036C29.2213 154.706 28.1642 154.468 27.0954 154.31C27.5104 155.29 27.9299 156.262 28.3448 157.242C28.0019 157.139 27.6171 157.18 27.295 157.343C28.2025 158.752 28.3962 160.533 28.1147 162.188C27.8395 163.84 27.1305 165.388 26.346 166.867C24.8199 164.955 22.0697 164.662 19.6239 164.532C19.592 165.001 19.5518 165.465 19.5199 165.933C18.3193 164.86 16.9986 163.925 15.582 163.164C15.3794 164.441 15.4737 165.757 15.8314 166.997C16.1297 166.535 16.4299 166.08 16.7346 165.616L16.8587 165.636C17.883 167.088 19.3171 168.247 20.9523 168.945C21.0078 168.365 21.0651 167.792 21.1206 167.212C23.1784 167.203 25.2113 168.266 26.374 169.957C27.925 168.263 29.5072 166.533 30.4234 164.424L30.4335 164.435Z" fill="#DDDDDD"/>
<path d="M135.568 144.409C135.835 145.745 135.752 147.147 135.336 148.408C132.722 144.944 129.244 142.224 125.387 140.628C125.082 141.649 124.786 142.674 124.482 143.694C109.289 134.385 88.718 137.562 77.4585 150.965C77.2411 149.608 77.0172 148.252 76.7979 146.889C75.685 150.029 72.762 151.937 69.8179 153.12C66.8803 154.301 63.7145 155.006 61.0621 156.766C56.1967 160 53.8717 166.274 53.0089 172.404C54.2895 171.68 55.572 170.962 56.8526 170.238C56.2355 171.815 55.239 173.355 54.8159 175.001C54.3274 176.903 54.6412 178.957 55.4247 180.756C56.2083 182.556 57.4414 184.128 58.8101 185.543C58.4191 184.598 58.7618 183.518 59.1811 182.582C59.267 182.397 59.3612 182.217 59.4535 182.03C62.1652 183.782 65.4855 184.627 68.6188 184.51C73.9842 184.313 78.9499 181.885 83.7531 179.497C87.6443 177.568 91.529 175.64 95.4184 173.704C93.9983 174.886 93.087 176.722 92.9394 178.671C98.8849 175.321 104.878 171.943 111.386 169.989C117.895 168.035 125.036 167.576 131.567 170.043C131.198 171.033 130.425 171.827 129.481 172.176C135.14 173.913 143.044 169.969 144.064 163.32C144.503 160.451 144.116 158.287 143.671 156.577C142.38 151.618 139.551 148.954 135.583 144.39L135.568 144.409Z" fill="#EDEDED"/>
<path d="M135.334 148.402C132.856 145.121 129.601 142.524 125.987 140.9C134.702 148.431 137.054 153.544 137.858 156.646C138.421 158.815 137.028 163.324 134.866 163.913C134.986 162.159 134.904 161.006 134.21 159.396C133.041 162.051 130.082 163.496 127.21 163.893C124.339 164.29 121.427 163.849 118.527 163.857C112.426 163.87 106.348 165.915 101.479 169.596C102.327 167.514 103.752 165.675 105.56 164.34C97.7428 166.921 91.5363 172.77 84.8255 177.545C80.3972 180.702 75.2799 183.472 70.0119 184.393C74.8445 183.869 79.3579 181.684 83.7354 179.509C87.6266 177.579 91.5114 175.651 95.4007 173.715C93.9807 174.898 93.0694 176.733 92.9218 178.683C98.8672 175.333 104.86 171.954 111.369 170.001C117.877 168.047 125.019 167.588 131.549 170.055C131.18 171.045 130.407 171.839 129.464 172.188C135.122 173.924 143.027 169.981 144.046 163.332C144.486 160.463 144.098 158.298 143.654 156.589C142.362 151.63 139.534 148.965 135.566 144.402C135.833 145.738 135.75 147.14 135.334 148.402Z" fill="#DDDDDD"/>
</g>
<defs>
<clipPath id="clip0_3316_410">
<rect width="416" height="416" fill="white"/>
</clipPath>
</defs>
</svg>
