<svg viewBox="0 0 90 90" fill="none" xmlns="http://www.w3.org/2000/svg">
<path d="M62.48 53.12L60.72 61.42C59.23 58.77 57.25 56.39 54.88 54.43C53.26 53.09 51.46 51.94 49.5 51.02C50.96 49.5 52.23 47.78 53.28 45.9C54.47 43.77 55.36 41.43 55.89 38.92C57.53 31.19 55.41 23.52 50.77 17.85C44.22 21.14 39.16 27.28 37.52 35.02C36.99 37.53 36.85 40.03 37.07 42.46C37.26 44.6 37.72 46.69 38.44 48.67C36.28 48.71 34.17 49.03 32.14 49.6C29.18 50.43 26.41 51.8 23.97 53.62L25.73 45.32C27.38 44.55 29.1 43.93 30.87 43.46C30.54 40.29 30.7 37.02 31.39 33.73C33.28 24.86 38.75 17.67 45.97 13.36C47.97 12.16 50.11 11.19 52.34 10.46C54.08 12.03 55.64 13.79 56.98 15.7C61.82 22.57 63.9 31.37 62.01 40.24C61.31 43.53 60.12 46.58 58.53 49.34C59.97 50.47 61.28 51.74 62.48 53.12Z" fill="url(#paint0_linear_13621_101181)"/>
<path d="M47.41 60.57L47.39 60.62L37.6 79.83L36.47 58.3V58.24C38.63 57.79 40.71 57.07 42.65 56.08C44.02 57.77 45.62 59.28 47.41 60.57Z" fill="url(#paint1_linear_13621_101181)"/>
<path d="M45.41 43.09C47.9 38.29 49.29 37.39 54.69 37.06C49.89 34.57 48.99 33.18 48.66 27.78C46.17 32.58 44.78 33.48 39.38 33.81C44.18 36.3 45.08 37.68 45.41 43.09Z" fill="url(#paint2_linear_13621_101181)"/>
<defs>
<linearGradient id="paint0_linear_13621_101181" x1="23.97" y1="35.94" x2="62.7021" y2="35.94" gradientUnits="userSpaceOnUse">
<stop offset="3.30323e-07" stop-color="#3739E5"/>
<stop offset="0.5" stop-color="#5C2BB9"/>
<stop offset="1" stop-color="#811D8D"/>
</linearGradient>
<linearGradient id="paint1_linear_13621_101181" x1="36.47" y1="67.955" x2="47.41" y2="67.955" gradientUnits="userSpaceOnUse">
<stop offset="3.30323e-07" stop-color="#3739E5"/>
<stop offset="0.5" stop-color="#5C2BB9"/>
<stop offset="1" stop-color="#811D8D"/>
</linearGradient>
<linearGradient id="paint2_linear_13621_101181" x1="39.38" y1="35.435" x2="54.69" y2="35.435" gradientUnits="userSpaceOnUse">
<stop offset="3.30323e-07" stop-color="#3739E5"/>
<stop offset="0.5" stop-color="#5C2BB9"/>
<stop offset="1" stop-color="#811D8D"/>
</linearGradient>
</defs>
</svg>
