<?xml version="1.0" encoding="UTF-8"?>
<!DOCTYPE svg PUBLIC "-//W3C//DTD SVG 1.1//EN" "http://www.w3.org/Graphics/SVG/1.1/DTD/svg11.dtd">
<svg xmlns="http://www.w3.org/2000/svg" version="1.1" width="640px" height="240px" style="shape-rendering:geometricPrecision; text-rendering:geometricPrecision; image-rendering:optimizeQuality; fill-rule:evenodd; clip-rule:evenodd" xmlns:xlink="http://www.w3.org/1999/xlink">
<g><path style="opacity:1" fill="#2cdd93" d="M 135.5,3.5 C 137.92,3.29245 140.253,3.62578 142.5,4.5C 143.815,13.0592 143.815,21.5592 142.5,30C 140.167,30.6667 137.833,30.6667 135.5,30C 134.874,29.2496 134.374,28.4162 134,27.5C 133.333,20.1667 133.333,12.8333 134,5.5C 134.717,4.9558 135.217,4.28913 135.5,3.5 Z"/></g>
<g><path style="opacity:1" fill="#13d88c" d="M 184.5,24.5 C 184.663,26.8568 184.497,29.1902 184,31.5C 180.167,35.3333 176.333,39.1667 172.5,43C 170.527,43.4955 168.527,43.6621 166.5,43.5C 164.609,41.1643 164.109,38.4976 165,35.5C 169.167,31.3333 173.333,27.1667 177.5,23C 180.095,22.3996 182.429,22.8996 184.5,24.5 Z"/></g>
<g><path style="opacity:1" fill="#277954" d="M 184.5,24.5 C 182.429,22.8996 180.095,22.3996 177.5,23C 173.333,27.1667 169.167,31.3333 165,35.5C 164.109,38.4976 164.609,41.1643 166.5,43.5C 165.504,43.5858 164.671,43.2524 164,42.5C 163.333,39.8333 163.333,37.1667 164,34.5C 168.167,30.3333 172.333,26.1667 176.5,22C 179.927,20.8343 182.593,21.6676 184.5,24.5 Z"/></g>
<g><path style="opacity:1" fill="#50a779" d="M 135.5,33.5 C 134.003,34.3058 132.336,34.9724 130.5,35.5C 106.393,34.2561 82.3929,34.2561 58.5,35.5C 58.6107,34.8826 58.944,34.3826 59.5,34C 84.8168,32.1772 110.15,32.0106 135.5,33.5 Z"/></g>
<g><path style="opacity:1" fill="#06e594" d="M 135.5,33.5 C 139.07,34.9802 142.737,36.3135 146.5,37.5C 156.567,44.4106 164.4,53.4106 170,64.5C 172.743,75.0532 173.243,85.7199 171.5,96.5C 169.041,100.738 166.541,105.072 164,109.5C 160.558,112.432 157.725,115.765 155.5,119.5C 150.046,124.055 143.713,126.721 136.5,127.5C 136.335,130.518 136.502,133.518 137,136.5C 145.359,142.071 147.525,149.404 143.5,158.5C 134.083,167.416 124.749,176.583 115.5,186C 112.079,187.699 109.079,189.865 106.5,192.5C 106.5,193.167 106.167,193.5 105.5,193.5C 105.083,192.876 104.416,192.543 103.5,192.5C 90.4432,195.886 78.1099,194.22 66.5,187.5C 61.8333,182.167 56.8333,177.167 51.5,172.5C 49.2542,170.351 47.7542,167.684 47,164.5C 46.5007,159.511 46.3341,154.511 46.5,149.5C 50.2615,142.282 53.2615,134.615 55.5,126.5C 53.9739,123.908 51.6405,122.908 48.5,123.5C 46.1475,122.66 44.1475,121.326 42.5,119.5C 35.932,113.26 30.932,105.927 27.5,97.5C 27.0431,96.7025 26.3764,96.3691 25.5,96.5C 24.3871,87.214 24.2204,77.8807 25,68.5C 26.555,62.3849 29.3884,57.0515 33.5,52.5C 39.402,47.1462 45.402,42.1462 51.5,37.5C 53.7014,36.4336 56.0347,35.767 58.5,35.5C 82.3929,34.2561 106.393,34.2561 130.5,35.5C 132.336,34.9724 134.003,34.3058 135.5,33.5 Z M 139.5,46.5 C 141.181,48.0075 143.181,49.0075 145.5,49.5C 145.842,50.3382 146.508,50.6716 147.5,50.5C 150.167,53.5 152.833,56.5 155.5,59.5C 155.5,60.1667 155.833,60.5 156.5,60.5C 166.974,78.9843 164.307,95.4843 148.5,110C 144.694,113.214 140.361,115.38 135.5,116.5C 135.167,116.5 134.833,116.5 134.5,116.5C 132.008,118.092 130.008,117.592 128.5,115C 152.222,108.913 161.722,93.7461 157,69.5C 155.884,66.2444 154.051,63.5777 151.5,61.5C 146.993,54.0181 140.327,49.6847 131.5,48.5C 127.5,48.5 123.5,48.5 119.5,48.5C 107.014,49.9865 98.681,56.6531 94.5,68.5C 93.1818,76.3335 93.1818,84.1668 94.5,92C 93.4335,94.012 92.1002,94.512 90.5,93.5C 89.405,90.2652 87.0717,88.4318 83.5,88C 77.0357,86.3485 71.5357,87.8485 67,92.5C 64.1665,100.16 60.8331,107.493 57,114.5C 54.6101,113.722 52.4434,112.555 50.5,111C 47.2975,107.629 43.9641,104.462 40.5,101.5C 32.954,88.7173 32.6207,75.7173 39.5,62.5C 43.5,57.8333 47.8333,53.5 52.5,49.5C 57.4121,47.4197 62.4121,45.5863 67.5,44C 88.5,43.3333 109.5,43.3333 130.5,44C 133.546,44.7388 136.546,45.5721 139.5,46.5 Z M 122.5,58.5 C 126.687,58.3947 130.687,59.228 134.5,61C 138,63.6686 141.333,66.502 144.5,69.5C 148.5,77.1667 148.5,84.8333 144.5,92.5C 141.5,94.8333 138.833,97.5 136.5,100.5C 133.3,102.07 129.967,102.904 126.5,103C 129.333,100.167 132.167,97.3333 135,94.5C 136.009,92.9751 136.509,91.3084 136.5,89.5C 136.5,86.1667 136.5,82.8333 136.5,79.5C 135.476,75.6381 133.143,72.8048 129.5,71C 125.167,70.3333 120.833,70.3333 116.5,71C 112.033,74.4651 107.867,78.2984 104,82.5C 104.292,70.6982 110.125,63.0315 121.5,59.5C 122.167,59.5 122.5,59.1667 122.5,58.5 Z M 125.5,82.5 C 125.5,83.1667 125.833,83.5 126.5,83.5C 117.534,93.8012 108.2,103.801 98.5,113.5C 95.8621,116.474 93.1954,119.474 90.5,122.5C 87.9553,130.081 90.6219,132.581 98.5,130C 99.3805,129.292 100.047,128.458 100.5,127.5C 102.027,127.573 103.027,126.906 103.5,125.5C 107.464,122.037 111.298,118.37 115,114.5C 116.167,115.667 117.333,116.833 118.5,118C 112.569,123.424 107.236,129.258 102.5,135.5C 102.5,137.5 102.5,139.5 102.5,141.5C 102.611,142.117 102.944,142.617 103.5,143C 106.167,143.667 108.833,143.667 111.5,143C 115.316,139.018 119.316,135.185 123.5,131.5C 123.833,131.5 124.167,131.5 124.5,131.5C 124.953,132.458 125.619,133.292 126.5,134C 122.667,137.833 118.833,141.667 115,145.5C 114.211,149.091 114.378,152.591 115.5,156C 118.039,156.796 120.372,156.629 122.5,155.5C 126.067,153.443 129.234,150.777 132,147.5C 133.022,148.354 133.855,149.354 134.5,150.5C 126.382,160.12 117.715,169.287 108.5,178C 96.0048,186.762 83.6715,186.595 71.5,177.5C 69.5,174.833 67.1667,172.5 64.5,170.5C 64.5,169.833 64.1667,169.5 63.5,169.5C 62.5806,166.911 60.914,164.911 58.5,163.5C 57.519,158.871 57.3523,154.204 58,149.5C 64,133.5 70,117.5 76,101.5C 78.24,97.4115 80.0734,97.5782 81.5,102C 81.2568,102.902 80.9234,103.735 80.5,104.5C 78.9093,108.524 79.2427,112.357 81.5,116C 83.1341,116.494 84.8008,116.66 86.5,116.5C 98.9137,105.59 110.914,94.0896 122.5,82C 123.577,81.5304 124.577,81.6971 125.5,82.5 Z"/></g>
<g><path style="opacity:1" fill="#119562" d="M 51.5,37.5 C 45.402,42.1462 39.402,47.1462 33.5,52.5C 37.6725,45.3292 43.6725,40.3292 51.5,37.5 Z"/></g>
<g><path style="opacity:1" fill="#106f47" d="M 139.5,46.5 C 142.393,46.0311 144.393,47.0311 145.5,49.5C 143.181,49.0075 141.181,48.0075 139.5,46.5 Z"/></g>
<g><path style="opacity:1" fill="#25845a" d="M 131.5,48.5 C 140.327,49.6847 146.993,54.0181 151.5,61.5C 149.37,59.8729 147.37,58.0396 145.5,56C 140.607,53.5657 135.94,51.0657 131.5,48.5 Z"/></g>
<g><path style="opacity:1" fill="#056843" d="M 147.5,50.5 C 150.731,52.2199 153.564,54.5532 156,57.5C 156.692,58.4368 156.525,59.1034 155.5,59.5C 152.833,56.5 150.167,53.5 147.5,50.5 Z"/></g>
<g><path style="opacity:1" fill="#347459" d="M 52.5,49.5 C 47.8333,53.5 43.5,57.8333 39.5,62.5C 41.4591,58.0188 44.4591,54.1854 48.5,51C 49.745,50.2086 51.0783,49.7086 52.5,49.5 Z"/></g>
<g><path style="opacity:1" fill="#268c62" d="M 119.5,48.5 C 114.133,51.0201 108.799,53.8535 103.5,57C 100.759,61.1654 97.7587,64.9987 94.5,68.5C 98.681,56.6531 107.014,49.9865 119.5,48.5 Z"/></g>
<g><path style="opacity:1" fill="#24875f" d="M 146.5,37.5 C 170.165,50.4573 178.498,70.124 171.5,96.5C 173.243,85.7199 172.743,75.0532 170,64.5C 164.4,53.4106 156.567,44.4106 146.5,37.5 Z"/></g>
<g><path style="opacity:1" fill="#469e7d" d="M 202.5,66.5 C 201.711,66.2172 201.044,65.7172 200.5,65C 193.5,64.3333 186.5,64.3333 179.5,65C 177.162,67.5417 176.828,70.3751 178.5,73.5C 176.974,72.5081 176.307,71.0081 176.5,69C 176.354,66.9658 177.02,65.2991 178.5,64C 186.167,63.3333 193.833,63.3333 201.5,64C 202.252,64.6708 202.586,65.5041 202.5,66.5 Z"/></g>
<g><path style="opacity:1" fill="#2c7857" d="M 122.5,58.5 C 126.074,57.2262 129.741,57.3929 133.5,59C 138.594,61.1771 142.261,64.6771 144.5,69.5C 141.333,66.502 138,63.6686 134.5,61C 130.687,59.228 126.687,58.3947 122.5,58.5 Z"/></g>
<g><path style="opacity:1" fill="#08e798" d="M 202.5,66.5 C 203.754,68.3569 203.754,70.3569 202.5,72.5C 194.528,73.4977 186.528,73.831 178.5,73.5C 176.828,70.3751 177.162,67.5417 179.5,65C 186.5,64.3333 193.5,64.3333 200.5,65C 201.044,65.7172 201.711,66.2172 202.5,66.5 Z"/></g>
<g><path style="opacity:1" fill="#2c664d" d="M 121.5,59.5 C 110.125,63.0315 104.292,70.6982 104,82.5C 107.867,78.2984 112.033,74.4651 116.5,71C 120.833,70.3333 125.167,70.3333 129.5,71C 133.143,72.8048 135.476,75.6381 136.5,79.5C 134.359,76.5282 131.692,74.0282 128.5,72C 124.833,71.3333 121.167,71.3333 117.5,72C 112.992,75.342 108.992,79.1754 105.5,83.5C 104.675,84.3857 103.675,84.719 102.5,84.5C 101.331,72.6618 105.998,64.1618 116.5,59C 118.387,58.2204 120.054,58.3871 121.5,59.5 Z"/></g>
<g><path style="opacity:1" fill="#2f9469" d="M 156.5,60.5 C 157.496,60.4142 158.329,60.7476 159,61.5C 169.787,86.1405 163.287,104.641 139.5,117C 137.934,117.765 136.601,117.598 135.5,116.5C 140.361,115.38 144.694,113.214 148.5,110C 164.307,95.4843 166.974,78.9843 156.5,60.5 Z"/></g>
<g><path style="opacity:1" fill="#379065" d="M 151.5,61.5 C 154.051,63.5777 155.884,66.2444 157,69.5C 161.722,93.7461 152.222,108.913 128.5,115C 130.008,117.592 132.008,118.092 134.5,116.5C 133.015,119.083 130.682,120.416 127.5,120.5C 127.5,117.833 127.5,115.167 127.5,112.5C 142.654,111.177 152.154,103.177 156,88.5C 157.809,78.8098 156.309,69.8098 151.5,61.5 Z"/></g>
<g><path style="opacity:1" fill="#02e897" d="M 582.5,83.5 C 582.333,101.17 582.5,118.836 583,136.5C 593.114,127.056 603.281,117.556 613.5,108C 618.155,107.501 622.821,107.334 627.5,107.5C 628.167,107.5 628.5,107.833 628.5,108.5C 619.216,115.283 610.716,122.95 603,131.5C 603.768,133.844 604.935,136.177 606.5,138.5C 607.357,139.425 608.357,140.092 609.5,140.5C 610.08,142.749 611.413,144.415 613.5,145.5C 614.419,148.089 616.086,150.089 618.5,151.5C 619.338,155.832 621.672,159.165 625.5,161.5C 633.14,167.185 632.14,169.518 622.5,168.5C 616.975,169.417 613.308,167.417 611.5,162.5C 605.924,155.045 600.091,147.712 594,140.5C 590.034,143.464 586.367,146.797 583,150.5C 582.501,156.491 582.334,162.491 582.5,168.5C 578.833,168.5 575.167,168.5 571.5,168.5C 571.5,140.167 571.5,111.833 571.5,83.5C 575.167,83.5 578.833,83.5 582.5,83.5 Z"/></g>
<g><path style="opacity:1" fill="#06e393" d="M 276.5,83.5 C 284.995,81.6651 288.662,84.9984 287.5,93.5C 285.866,94.2066 284.532,95.3732 283.5,97C 277.428,99.1446 273.762,97.1446 272.5,91C 272.994,87.9919 274.327,85.4919 276.5,83.5 Z"/></g>
<g><path style="opacity:1" fill="#00e595" d="M 453.5,83.5 C 457.5,83.5 461.5,83.5 465.5,83.5C 465.5,111.833 465.5,140.167 465.5,168.5C 461.5,168.5 457.5,168.5 453.5,168.5C 453.5,140.167 453.5,111.833 453.5,83.5 Z"/></g>
<g><path style="opacity:1" fill="#1cc083" d="M 264.5,89.5 C 264.167,89.5 263.833,89.5 263.5,89.5C 245.5,89.5 227.5,89.5 209.5,89.5C 209.5,115.833 209.5,142.167 209.5,168.5C 208.502,141.672 208.169,114.672 208.5,87.5C 227.53,86.8462 246.197,87.5129 264.5,89.5 Z"/></g>
<g><path style="opacity:1" fill="#337c5d" d="M 276.5,83.5 C 274.327,85.4919 272.994,87.9919 272.5,91C 273.762,97.1446 277.428,99.1446 283.5,97C 284.532,95.3732 285.866,94.2066 287.5,93.5C 287.548,96.2919 286.215,98.1253 283.5,99C 273.833,100.331 270,96.1641 272,86.5C 273.129,84.8588 274.629,83.8588 276.5,83.5 Z"/></g>
<g><path style="opacity:1" fill="#00eb99" d="M 263.5,89.5 C 263.5,92.5 263.5,95.5 263.5,98.5C 249.167,98.5 234.833,98.5 220.5,98.5C 220.5,107.5 220.5,116.5 220.5,125.5C 233.323,126.495 246.323,126.829 259.5,126.5C 259.5,129.5 259.5,132.5 259.5,135.5C 259.5,136.167 259.167,136.5 258.5,136.5C 245.677,135.505 232.677,135.171 219.5,135.5C 219.5,146.5 219.5,157.5 219.5,168.5C 216.167,168.5 212.833,168.5 209.5,168.5C 209.5,142.167 209.5,115.833 209.5,89.5C 227.5,89.5 245.5,89.5 263.5,89.5 Z"/></g>
<g><path style="opacity:1" fill="#07e595" d="M 428.5,89.5 C 428.414,90.4959 428.748,91.3292 429.5,92C 434.953,93.1261 438.953,96.1261 441.5,101C 439.674,103.465 437.507,105.632 435,107.5C 432.872,105.192 430.372,103.526 427.5,102.5C 420.737,100.018 413.737,99.0183 406.5,99.5C 402.489,99.5016 398.822,100.668 395.5,103C 394.748,103.671 394.414,104.504 394.5,105.5C 392.097,105.393 390.264,106.393 389,108.5C 383.064,116.582 381.064,125.582 383,135.5C 383.236,137.119 384.069,138.119 385.5,138.5C 385.833,139.167 386.167,139.833 386.5,140.5C 385.957,140.56 385.624,140.893 385.5,141.5C 389.802,151.543 397.135,156.543 407.5,156.5C 408.609,156.557 409.609,156.89 410.5,157.5C 414.091,158.267 417.757,158.601 421.5,158.5C 422.425,157.643 423.092,156.643 423.5,155.5C 423.5,154.833 423.833,154.5 424.5,154.5C 424.56,155.043 424.893,155.376 425.5,155.5C 429.089,153.746 432.255,151.412 435,148.5C 438.688,150.989 440.855,154.322 441.5,158.5C 441.5,159.167 441.167,159.5 440.5,159.5C 437.312,160.028 434.979,161.695 433.5,164.5C 420.42,170.758 407.087,171.091 393.5,165.5C 388.571,161.588 383.571,157.588 378.5,153.5C 377.026,152.564 376.026,151.23 375.5,149.5C 376.097,149.265 376.43,148.765 376.5,148C 369.052,129.144 371.719,111.978 384.5,96.5C 386.966,95.7023 388.966,94.369 390.5,92.5C 394.048,90.1006 398.048,88.6006 402.5,88C 411.319,86.9986 419.985,87.4986 428.5,89.5 Z"/></g>
<g><path style="opacity:1" fill="#2e654a" d="M 125.5,82.5 C 124.577,81.6971 123.577,81.5304 122.5,82C 110.914,94.0896 98.9137,105.59 86.5,116.5C 97.9727,104.859 109.306,93.026 120.5,81C 122.579,80.1923 124.579,80.359 126.5,81.5C 126.376,82.1067 126.043,82.44 125.5,82.5 Z"/></g>
<g><path style="opacity:1" fill="#256247" d="M 390.5,92.5 C 388.966,94.369 386.966,95.7023 384.5,96.5C 385.802,94.1782 387.802,92.8449 390.5,92.5 Z"/></g>
<g><path style="opacity:1" fill="#348d62" d="M 126.5,83.5 C 127.043,83.56 127.376,83.8933 127.5,84.5C 126.667,86.1667 125.833,87.8333 125,89.5C 116.848,98.4969 108.015,106.497 98.5,113.5C 108.2,103.801 117.534,93.8012 126.5,83.5 Z"/></g>
<g><path style="opacity:1" fill="#166040" d="M 144.5,92.5 C 143.167,96.5 140.5,99.1667 136.5,100.5C 138.833,97.5 141.5,94.8333 144.5,92.5 Z"/></g>
<g><path style="opacity:1" fill="#539482" d="M 263.5,89.5 C 263.833,89.5 264.167,89.5 264.5,89.5C 264.5,92.8333 264.5,96.1667 264.5,99.5C 250.496,99.3334 236.496,99.5001 222.5,100C 221.181,108.167 221.181,116.333 222.5,124.5C 221.833,124.833 221.167,125.167 220.5,125.5C 220.5,116.5 220.5,107.5 220.5,98.5C 234.833,98.5 249.167,98.5 263.5,98.5C 263.5,95.5 263.5,92.5 263.5,89.5 Z"/></g>
<g><path style="opacity:1" fill="#348161" d="M 485.5,83.5 C 483.82,85.5425 482.487,87.8758 481.5,90.5C 482.378,97.1016 486.045,99.2682 492.5,97C 496.673,92.1831 496.339,87.6831 491.5,83.5C 493.371,83.8588 494.871,84.8588 496,86.5C 498.429,97.7422 494.262,101.576 483.5,98C 480.682,94.6621 479.849,90.8288 481,86.5C 482.129,84.8588 483.629,83.8588 485.5,83.5 Z"/></g>
<g><path style="opacity:1" fill="#00e997" d="M 485.5,83.5 C 487.5,83.5 489.5,83.5 491.5,83.5C 496.339,87.6831 496.673,92.1831 492.5,97C 486.045,99.2682 482.378,97.1016 481.5,90.5C 482.487,87.8758 483.82,85.5425 485.5,83.5 Z"/></g>
<g><path style="opacity:1" fill="#30835f" d="M 90.5,93.5 C 82.9813,86.9247 75.4813,86.9247 68,93.5C 65.335,100.822 62.6683,108.155 60,115.5C 50.9533,114.699 44.4533,110.032 40.5,101.5C 43.9641,104.462 47.2975,107.629 50.5,111C 52.4434,112.555 54.6101,113.722 57,114.5C 60.8331,107.493 64.1665,100.16 67,92.5C 71.5357,87.8485 77.0357,86.3485 83.5,88C 87.0717,88.4318 89.405,90.2652 90.5,93.5 Z"/></g>
<g><path style="opacity:1" fill="#347a5b" d="M 136.5,89.5 C 136.509,91.3084 136.009,92.9751 135,94.5C 132.167,97.3333 129.333,100.167 126.5,103C 129.967,102.904 133.3,102.07 136.5,100.5C 132.616,104.226 127.949,105.393 122.5,104C 127.446,99.2241 132.113,94.3908 136.5,89.5 Z"/></g>
<g><path style="opacity:1" fill="#318166" d="M 406.5,99.5 C 402.539,101.481 398.539,103.481 394.5,105.5C 394.414,104.504 394.748,103.671 395.5,103C 398.822,100.668 402.489,99.5016 406.5,99.5 Z"/></g>
<g><path style="opacity:1" fill="#388963" d="M 428.5,89.5 C 433.687,91.0101 438.187,93.6768 442,97.5C 443.037,102.981 440.87,106.647 435.5,108.5C 432.09,107.465 429.423,105.465 427.5,102.5C 430.372,103.526 432.872,105.192 435,107.5C 437.507,105.632 439.674,103.465 441.5,101C 438.953,96.1261 434.953,93.1261 429.5,92C 428.748,91.3292 428.414,90.4959 428.5,89.5 Z"/></g>
<g><path style="opacity:1" fill="#32bc87" d="M 493.5,168.5 C 493.5,148.167 493.5,127.833 493.5,107.5C 490.167,107.5 486.833,107.5 483.5,107.5C 483.5,127.833 483.5,148.167 483.5,168.5C 482.503,148.007 482.169,127.34 482.5,106.5C 486.5,106.5 490.5,106.5 494.5,106.5C 494.831,127.34 494.497,148.007 493.5,168.5 Z"/></g>
<g><path style="opacity:1" fill="#00ed9b" d="M 493.5,168.5 C 490.167,168.5 486.833,168.5 483.5,168.5C 483.5,148.167 483.5,127.833 483.5,107.5C 486.833,107.5 490.167,107.5 493.5,107.5C 493.5,127.833 493.5,148.167 493.5,168.5 Z"/></g>
<g><path style="opacity:1" fill="#3c8b68" d="M 559.5,116.5 C 550.795,108.238 540.462,105.404 528.5,108C 523.468,109.598 518.968,112.098 515,115.5C 514.601,115.272 514.435,114.938 514.5,114.5C 520.353,108.101 527.686,105.435 536.5,106.5C 543.447,105.654 549.78,107.154 555.5,111C 557.464,112.451 558.797,114.284 559.5,116.5 Z"/></g>
<g><path style="opacity:1" fill="#32c28f" d="M 284.5,168.5 C 284.5,148.167 284.5,127.833 284.5,107.5C 281.167,107.5 277.833,107.5 274.5,107.5C 274.5,127.833 274.5,148.167 274.5,168.5C 273.503,148.007 273.169,127.34 273.5,106.5C 277.5,106.5 281.5,106.5 285.5,106.5C 285.831,127.34 285.497,148.007 284.5,168.5 Z"/></g>
<g><path style="opacity:1" fill="#00ec9a" d="M 284.5,168.5 C 281.167,168.5 277.833,168.5 274.5,168.5C 274.5,148.167 274.5,127.833 274.5,107.5C 277.833,107.5 281.167,107.5 284.5,107.5C 284.5,127.833 284.5,148.167 284.5,168.5 Z"/></g>
<g><path style="opacity:1" fill="#01e897" d="M 342.5,106.5 C 343.167,106.5 343.5,106.833 343.5,107.5C 346.32,109.745 349.32,111.745 352.5,113.5C 355.324,115.8 357.157,118.8 358,122.5C 358.5,137.83 358.667,153.163 358.5,168.5C 354.833,168.5 351.167,168.5 347.5,168.5C 347.947,154.427 347.447,140.427 346,126.5C 340.734,118.346 333.567,116.013 324.5,119.5C 319.519,120.983 316.353,124.316 315,129.5C 314.5,142.496 314.333,155.496 314.5,168.5C 310.833,168.5 307.167,168.5 303.5,168.5C 303.5,148.167 303.5,127.833 303.5,107.5C 306.833,107.5 310.167,107.5 313.5,107.5C 313.192,109.924 313.526,112.257 314.5,114.5C 317.539,111.312 321.206,109.145 325.5,108C 331.084,107.194 336.584,107.361 342,108.5C 342.464,107.906 342.631,107.239 342.5,106.5 Z"/></g>
<g><path style="opacity:1" fill="#05e494" d="M 559.5,116.5 C 561.441,118.011 561.941,120.011 561,122.5C 558.853,124.476 556.353,125.809 553.5,126.5C 548.393,121.115 542.06,118.115 534.5,117.5C 527.39,117.365 523.057,120.365 521.5,126.5C 519.941,130.227 518.608,134.06 517.5,138C 518.727,140.734 519.727,143.567 520.5,146.5C 519.535,147.721 519.702,149.054 521,150.5C 528.966,159.201 538.133,160.701 548.5,155C 550.464,153.549 551.797,151.716 552.5,149.5C 555.339,151.42 558.339,153.087 561.5,154.5C 561.5,155.167 561.5,155.833 561.5,156.5C 559.517,157.902 557.851,159.736 556.5,162C 552.18,163.986 548.18,166.153 544.5,168.5C 539.833,168.5 535.167,168.5 530.5,168.5C 526.269,166.384 521.936,164.218 517.5,162C 514.551,159.224 511.884,156.391 509.5,153.5C 508.207,152.158 507.374,150.491 507,148.5C 506.333,141.5 506.333,134.5 507,127.5C 508.503,122.481 511.003,118.148 514.5,114.5C 514.435,114.938 514.601,115.272 515,115.5C 518.968,112.098 523.468,109.598 528.5,108C 540.462,105.404 550.795,108.238 559.5,116.5 Z"/></g>
<g><path style="opacity:1" fill="#1d714f" d="M 343.5,107.5 C 347.59,107.932 350.59,109.932 352.5,113.5C 349.32,111.745 346.32,109.745 343.5,107.5 Z"/></g>
<g><path style="opacity:1" fill="#2f956d" d="M 394.5,105.5 C 384.547,114.597 381.547,125.597 385.5,138.5C 384.069,138.119 383.236,137.119 383,135.5C 381.064,125.582 383.064,116.582 389,108.5C 390.264,106.393 392.097,105.393 394.5,105.5 Z"/></g>
<g><path style="opacity:1" fill="#235d44" d="M 171.5,96.5 C 169.358,106.47 164.025,114.137 155.5,119.5C 157.725,115.765 160.558,112.432 164,109.5C 166.541,105.072 169.041,100.738 171.5,96.5 Z"/></g>
<g><path style="opacity:1" fill="#246348" d="M 25.5,96.5 C 26.3764,96.3691 27.0431,96.7025 27.5,97.5C 30.932,105.927 35.932,113.26 42.5,119.5C 34.2254,113.874 28.5587,106.207 25.5,96.5 Z"/></g>
<g><path style="opacity:1" fill="#10714c" d="M 98.5,113.5 C 97.2316,117.767 94.5649,120.767 90.5,122.5C 93.1954,119.474 95.8621,116.474 98.5,113.5 Z"/></g>
<g><path style="opacity:1" fill="#2a7d58" d="M 534.5,117.5 C 532.259,118.621 529.925,119.787 527.5,121C 525.63,123.04 523.63,124.873 521.5,126.5C 523.057,120.365 527.39,117.365 534.5,117.5 Z"/></g>
<g><path style="opacity:1" fill="#2ab072" d="M 222.5,124.5 C 235.167,124.5 247.833,124.5 260.5,124.5C 260.815,128.371 260.482,132.038 259.5,135.5C 259.5,132.5 259.5,129.5 259.5,126.5C 246.323,126.829 233.323,126.495 220.5,125.5C 221.167,125.167 221.833,124.833 222.5,124.5 Z"/></g>
<g><path style="opacity:1" fill="#0f2418" d="M 103.5,125.5 C 103.027,126.906 102.027,127.573 100.5,127.5C 100.973,126.094 101.973,125.427 103.5,125.5 Z"/></g>
<g><path style="opacity:1" fill="#26986a" d="M 384.5,96.5 C 371.719,111.978 369.052,129.144 376.5,148C 376.43,148.765 376.097,149.265 375.5,149.5C 368.413,133.941 368.913,118.607 377,103.5C 378.736,100.261 381.236,97.9274 384.5,96.5 Z"/></g>
<g><path style="opacity:1" fill="#3c8065" d="M 582.5,83.5 C 583.332,99.995 583.832,116.662 584,133.5C 593.5,124.667 603,115.833 612.5,107C 617.684,106.184 622.684,106.35 627.5,107.5C 622.821,107.334 618.155,107.501 613.5,108C 603.281,117.556 593.114,127.056 583,136.5C 582.5,118.836 582.333,101.17 582.5,83.5 Z"/></g>
<g><path style="opacity:1" fill="#2a7052" d="M 102.5,135.5 C 107.236,129.258 112.569,123.424 118.5,118C 117.333,116.833 116.167,115.667 115,114.5C 111.298,118.37 107.464,122.037 103.5,125.5C 105.497,120.988 108.497,117.155 112.5,114C 117.498,112.67 119.664,114.504 119,119.5C 113.631,125.036 108.131,130.37 102.5,135.5 Z"/></g>
<g><path style="opacity:1" fill="#259f6e" d="M 342.5,106.5 C 342.631,107.239 342.464,107.906 342,108.5C 336.584,107.361 331.084,107.194 325.5,108C 321.206,109.145 317.539,111.312 314.5,114.5C 313.526,112.257 313.192,109.924 313.5,107.5C 310.167,107.5 306.833,107.5 303.5,107.5C 303.5,127.833 303.5,148.167 303.5,168.5C 302.503,148.007 302.169,127.34 302.5,106.5C 306.514,106.334 310.514,106.501 314.5,107C 315.191,108.067 315.691,109.234 316,110.5C 318.304,108.932 320.804,107.765 323.5,107C 329.825,106.5 336.158,106.334 342.5,106.5 Z"/></g>
<g><path style="opacity:1" fill="#209e6c" d="M 48.5,123.5 C 51.6405,122.908 53.9739,123.908 55.5,126.5C 53.2615,134.615 50.2615,142.282 46.5,149.5C 48.2441,142.004 50.5774,134.67 53.5,127.5C 52.3384,125.462 50.6717,124.128 48.5,123.5 Z"/></g>
<g><path style="opacity:1" fill="#5a877c" d="M 324.5,119.5 C 320.691,122.809 317.858,126.809 316,131.5C 315.831,144.007 315.331,156.34 314.5,168.5C 314.333,155.496 314.5,142.496 315,129.5C 316.353,124.316 319.519,120.983 324.5,119.5 Z"/></g>
<g><path style="opacity:1" fill="#20714e" d="M 628.5,108.5 C 620.702,116.798 612.702,124.965 604.5,133C 606.808,135.128 608.474,137.628 609.5,140.5C 608.357,140.092 607.357,139.425 606.5,138.5C 604.935,136.177 603.768,133.844 603,131.5C 610.716,122.95 619.216,115.283 628.5,108.5 Z"/></g>
<g><path style="opacity:1" fill="#216848" d="M 123.5,131.5 C 119.316,135.185 115.316,139.018 111.5,143C 108.833,143.667 106.167,143.667 103.5,143C 102.944,142.617 102.611,142.117 102.5,141.5C 104.782,142.39 107.115,142.556 109.5,142C 113.388,137.609 117.721,133.776 122.5,130.5C 123.107,130.624 123.44,130.957 123.5,131.5 Z"/></g>
<g><path style="opacity:1" fill="#265e47" d="M 124.5,131.5 C 127.244,132.072 128.077,133.738 127,136.5C 121.971,140.513 118.138,145.346 115.5,151C 115.645,152.226 115.978,153.393 116.5,154.5C 118.396,155.466 120.396,155.799 122.5,155.5C 120.372,156.629 118.039,156.796 115.5,156C 114.378,152.591 114.211,149.091 115,145.5C 118.833,141.667 122.667,137.833 126.5,134C 125.619,133.292 124.953,132.458 124.5,131.5 Z"/></g>
<g><path style="opacity:1" fill="#4a966c" d="M 258.5,136.5 C 246.5,136.5 234.5,136.5 222.5,136.5C 220.524,146.781 219.857,157.448 220.5,168.5C 220.167,168.5 219.833,168.5 219.5,168.5C 219.5,157.5 219.5,146.5 219.5,135.5C 232.677,135.171 245.677,135.505 258.5,136.5 Z"/></g>
<g><path style="opacity:1" fill="#47846b" d="M 222.5,136.5 C 221.855,147.265 221.188,157.932 220.5,168.5C 219.857,157.448 220.524,146.781 222.5,136.5 Z"/></g>
<g><path style="opacity:1" fill="#2b6b50" d="M 611.5,162.5 C 605.485,156.485 599.818,150.151 594.5,143.5C 584.389,148.886 580.389,157.219 582.5,168.5C 582.334,162.491 582.501,156.491 583,150.5C 586.367,146.797 590.034,143.464 594,140.5C 600.091,147.712 605.924,155.045 611.5,162.5 Z"/></g>
<g><path style="opacity:1" fill="#337b64" d="M 609.5,140.5 C 611.587,141.585 612.92,143.251 613.5,145.5C 611.413,144.415 610.08,142.749 609.5,140.5 Z"/></g>
<g><path style="opacity:1" fill="#3b6a54" d="M 613.5,145.5 C 615.914,146.911 617.581,148.911 618.5,151.5C 616.086,150.089 614.419,148.089 613.5,145.5 Z"/></g>
<g><path style="opacity:1" fill="#287853" d="M 386.5,140.5 C 389.255,144.434 392.255,148.267 395.5,152C 399.229,154.231 403.229,155.731 407.5,156.5C 397.135,156.543 389.802,151.543 385.5,141.5C 385.624,140.893 385.957,140.56 386.5,140.5 Z"/></g>
<g><path style="opacity:1" fill="#225c45" d="M 552.5,149.5 C 553.251,148.427 554.251,148.26 555.5,149C 558.043,150.382 560.043,152.215 561.5,154.5C 558.339,153.087 555.339,151.42 552.5,149.5 Z"/></g>
<g><path style="opacity:1" fill="#348060" d="M 80.5,104.5 C 80.9234,103.735 81.2568,102.902 81.5,102C 80.0734,97.5782 78.24,97.4115 76,101.5C 70,117.5 64,133.5 58,149.5C 57.3523,154.204 57.519,158.871 58.5,163.5C 55.6771,159.68 54.8438,155.347 56,150.5C 60.5303,138.576 64.8636,126.576 69,114.5C 70.84,108.656 73.34,103.156 76.5,98C 80.2017,96.6073 82.2017,97.774 82.5,101.5C 82.3601,103.03 81.6935,104.03 80.5,104.5 Z"/></g>
<g><path style="opacity:1" fill="#25634a" d="M 441.5,158.5 C 440.855,154.322 438.688,150.989 435,148.5C 432.255,151.412 429.089,153.746 425.5,155.5C 424.893,155.376 424.56,155.043 424.5,154.5C 427.817,152.19 431.15,149.857 434.5,147.5C 437.406,148.897 439.906,150.897 442,153.5C 442.78,155.387 442.613,157.054 441.5,158.5 Z"/></g>
<g><path style="opacity:1" fill="#427b5f" d="M 520.5,146.5 C 525.63,155.73 533.297,158.897 543.5,156C 546.938,154.389 549.938,152.223 552.5,149.5C 551.797,151.716 550.464,153.549 548.5,155C 538.133,160.701 528.966,159.201 521,150.5C 519.702,149.054 519.535,147.721 520.5,146.5 Z"/></g>
<g><path style="opacity:1" fill="#1e6345" d="M 378.5,153.5 C 383.571,157.588 388.571,161.588 393.5,165.5C 386.738,163.629 381.738,159.629 378.5,153.5 Z"/></g>
<g><path style="opacity:1" fill="#4c986d" d="M 423.5,155.5 C 423.092,156.643 422.425,157.643 421.5,158.5C 417.757,158.601 414.091,158.267 410.5,157.5C 414.814,156.725 419.147,156.059 423.5,155.5 Z"/></g>
<g><path style="opacity:1" fill="#10854f" d="M 618.5,151.5 C 621.323,154.475 623.656,157.808 625.5,161.5C 621.672,159.165 619.338,155.832 618.5,151.5 Z"/></g>
<g><path style="opacity:1" fill="#2c7952" d="M 440.5,159.5 C 439.008,162.323 436.674,163.99 433.5,164.5C 434.979,161.695 437.312,160.028 440.5,159.5 Z"/></g>
<g><path style="opacity:1" fill="#19a56e" d="M 509.5,153.5 C 511.884,156.391 514.551,159.224 517.5,162C 521.936,164.218 526.269,166.384 530.5,168.5C 520.446,167.651 513.446,162.651 509.5,153.5 Z"/></g>
<g><path style="opacity:1" fill="#149766" d="M 561.5,156.5 C 560.866,159.643 559.2,162.143 556.5,164C 552.797,166.354 548.797,167.854 544.5,168.5C 548.18,166.153 552.18,163.986 556.5,162C 557.851,159.736 559.517,157.902 561.5,156.5 Z"/></g>
<g><path style="opacity:1" fill="#3a644e" d="M 58.5,163.5 C 60.914,164.911 62.5806,166.911 63.5,169.5C 60.4283,168.699 58.7616,166.699 58.5,163.5 Z"/></g>
<g><path style="opacity:1" fill="#216a4b" d="M 51.5,172.5 C 56.8333,177.167 61.8333,182.167 66.5,187.5C 60.5,183.5 55.5,178.5 51.5,172.5 Z"/></g>
<g><path style="opacity:1" fill="#3c886b" d="M 64.5,170.5 C 67.1667,172.5 69.5,174.833 71.5,177.5C 67.8333,176.5 65.5,174.167 64.5,170.5 Z"/></g>
<g><path style="opacity:1" fill="#2b8a60" d="M 71.5,177.5 C 83.6715,186.595 96.0048,186.762 108.5,178C 117.715,169.287 126.382,160.12 134.5,150.5C 133.855,149.354 133.022,148.354 132,147.5C 129.234,150.777 126.067,153.443 122.5,155.5C 124.486,151.514 127.486,148.514 131.5,146.5C 135.707,147.976 136.54,150.642 134,154.5C 124.833,163.667 115.667,172.833 106.5,182C 95.8596,186.63 85.1929,186.63 74.5,182C 72.8588,180.871 71.8588,179.371 71.5,177.5 Z"/></g>
<g><path style="opacity:1" fill="#215e44" d="M 143.5,158.5 C 134.7,168.469 125.7,178.302 116.5,188C 113.52,190.324 110.187,191.824 106.5,192.5C 109.079,189.865 112.079,187.699 115.5,186C 124.749,176.583 134.083,167.416 143.5,158.5 Z"/></g>
<g><path style="opacity:1" fill="#28a272" d="M 66.5,187.5 C 78.1099,194.22 90.4432,195.886 103.5,192.5C 104.416,192.543 105.083,192.876 105.5,193.5C 95.1288,196.295 84.7954,196.128 74.5,193C 71.2444,191.884 68.5777,190.051 66.5,187.5 Z"/></g>
</svg>
