<?xml version="1.0" encoding="UTF-8"?>
<!DOCTYPE svg PUBLIC "-//W3C//DTD SVG 1.1//EN" "http://www.w3.org/Graphics/SVG/1.1/DTD/svg11.dtd">
<svg xmlns="http://www.w3.org/2000/svg" version="1.1" width="299px" height="146px" style="shape-rendering:geometricPrecision; text-rendering:geometricPrecision; image-rendering:optimizeQuality; fill-rule:evenodd; clip-rule:evenodd" xmlns:xlink="http://www.w3.org/1999/xlink">
<g><path style="opacity:1" fill="#857e7f" d="M 42.5,1.5 C 42.5,5.5 42.5,9.5 42.5,13.5C 41.8018,10.1027 41.1352,6.60267 40.5,3C 41.0442,2.28281 41.7109,1.78281 42.5,1.5 Z"/></g>
<g><path style="opacity:1" fill="#7c7c79" d="M 46.5,3.5 C 47.9063,3.97306 48.573,4.97306 48.5,6.5C 47.0937,6.02694 46.427,5.02694 46.5,3.5 Z"/></g>
<g><path style="opacity:1" fill="#5b5958" d="M 34.5,19.5 C 32.9328,18.3192 32.0995,16.6526 32,14.5C 31.5017,16.5444 30.335,17.8777 28.5,18.5C 28.6317,15.2033 30.2984,13.5367 33.5,13.5C 33.5172,15.5648 33.8505,17.5648 34.5,19.5 Z"/></g>
<g><path style="opacity:1" fill="#918c90" d="M 78.5,19.5 C 76.9557,19.2969 75.6223,18.6302 74.5,17.5C 73.8182,18.2427 73.1515,18.9094 72.5,19.5C 72.5,18.5 72.5,17.5 72.5,16.5C 75.3126,16.0246 77.3126,17.0246 78.5,19.5 Z"/></g>
<g><path style="opacity:1" fill="#343232" d="M 78.5,19.5 C 81.8038,23.9066 83.6371,28.9066 84,34.5C 86.8806,36.599 89.0473,39.2657 90.5,42.5C 88.5212,41.1879 86.8545,39.5212 85.5,37.5C 84.7025,37.9569 84.3691,38.6236 84.5,39.5C 82.8049,38.1736 81.4716,38.5069 80.5,40.5C 80.8693,38.0065 80.2027,37.3398 78.5,38.5C 80.3944,32.7025 79.561,27.3692 76,22.5C 75.1482,23.5707 74.3149,24.5707 73.5,25.5C 73.3781,21.1617 73.0447,20.8284 72.5,24.5C 69.4582,24.2671 66.7916,23.2671 64.5,21.5C 66.1986,21.6204 67.8653,21.9537 69.5,22.5C 71.1753,22.1316 72.1753,21.1316 72.5,19.5C 73.1515,18.9094 73.8182,18.2427 74.5,17.5C 75.6223,18.6302 76.9557,19.2969 78.5,19.5 Z"/></g>
<g><path style="opacity:1" fill="#888085" d="M 55.5,19.5 C 58.6104,20.0885 61.6104,20.7552 64.5,21.5C 60.9878,22.0545 57.9878,21.3878 55.5,19.5 Z"/></g>
<g><path style="opacity:1" fill="#b591cc" d="M 134.5,23.5 C 144.987,22.5056 155.654,22.1722 166.5,22.5C 166.795,24.7354 166.461,26.7354 165.5,28.5C 165.5,26.8333 165.5,25.1667 165.5,23.5C 155.167,23.5 144.833,23.5 134.5,23.5 Z"/></g>
<g><path style="opacity:1" fill="#e7e6e7" d="M 78.5,38.5 C 76.0216,41.3291 75.0216,44.6625 75.5,48.5C 72.2107,49.3739 68.8774,50.0405 65.5,50.5C 58.1667,49.1667 50.8333,49.1667 43.5,50.5C 43.0831,51.1239 42.4164,51.4573 41.5,51.5C 38.3582,49.8813 35.0248,49.2146 31.5,49.5C 31.5,48.5 31.5,47.5 31.5,46.5C 35.1501,46.6416 38.6501,45.9749 42,44.5C 43.7126,45.1374 43.8793,46.1374 42.5,47.5C 50.965,47.7382 58.7983,45.4049 66,40.5C 66.1962,42.2861 67.0295,43.6195 68.5,44.5C 68.5846,37.6798 70.2513,31.3464 73.5,25.5C 74.3149,24.5707 75.1482,23.5707 76,22.5C 79.561,27.3692 80.3944,32.7025 78.5,38.5 Z"/></g>
<g><path style="opacity:1" fill="#a678c1" d="M 298.5,23.5 C 298.5,23.8333 298.5,24.1667 298.5,24.5C 296.833,27.1667 295.167,29.8333 293.5,32.5C 293.798,29.7354 294.798,27.2354 296.5,25C 293.829,24.1668 291.496,24.6668 289.5,26.5C 289.511,24.9826 290.177,23.8159 291.5,23C 293.929,22.2967 296.262,22.4634 298.5,23.5 Z"/></g>
<g><path style="opacity:1" fill="#8a4cbb" d="M 159.5,42.5 C 159.5,44.1667 159.5,45.8333 159.5,47.5C 153.167,47.5 146.833,47.5 140.5,47.5C 140.5,54.1667 140.5,60.8333 140.5,67.5C 138.833,67.5 137.167,67.5 135.5,67.5C 135.5,53.1667 135.5,38.8333 135.5,24.5C 145.167,24.5 154.833,24.5 164.5,24.5C 164.5,25.5 164.5,26.5 164.5,27.5C 156.5,27.5 148.5,27.5 140.5,27.5C 140.5,32.5 140.5,37.5 140.5,42.5C 146.833,42.5 153.167,42.5 159.5,42.5 Z"/></g>
<g><path style="opacity:1" fill="#af8bc5" d="M 169.5,23.5 C 169.5,34.8333 169.5,46.1667 169.5,57.5C 168.766,56.1225 168.099,54.6225 167.5,53C 168.497,45.483 168.497,38.1497 167.5,31C 168.123,28.3927 168.79,25.8927 169.5,23.5 Z"/></g>
<g><path style="opacity:1" fill="#8c4fbb" d="M 169.5,23.5 C 171.167,23.5 172.833,23.5 174.5,23.5C 174.334,32.8393 174.5,42.1726 175,51.5C 175.278,52.4158 175.778,53.0825 176.5,53.5C 176.345,56.716 177.345,59.3826 179.5,61.5C 180.694,62.7773 182.36,63.4439 184.5,63.5C 188.218,64.2738 190.551,62.9404 191.5,59.5C 191.833,56.8333 192.167,54.1667 192.5,51.5C 193.494,42.3483 193.827,33.015 193.5,23.5C 195.167,23.5 196.833,23.5 198.5,23.5C 198.5,35.1667 198.5,46.8333 198.5,58.5C 198.206,61.7541 196.873,64.4208 194.5,66.5C 187.363,68.1083 180.363,67.7749 173.5,65.5C 172.528,62.8684 171.195,60.5351 169.5,58.5C 169.5,58.1667 169.5,57.8333 169.5,57.5C 169.5,46.1667 169.5,34.8333 169.5,23.5 Z"/></g>
<g><path style="opacity:1" fill="#b991cc" d="M 169.5,23.5 C 171.863,21.9983 174.03,22.3316 176,24.5C 176.5,34.1609 176.666,43.8276 176.5,53.5C 175.778,53.0825 175.278,52.4158 175,51.5C 174.5,42.1726 174.334,32.8393 174.5,23.5C 172.833,23.5 171.167,23.5 169.5,23.5 Z"/></g>
<g><path style="opacity:1" fill="#ba91c8" d="M 193.5,23.5 C 195.863,21.9983 198.03,22.3316 200,24.5C 200.667,33.1667 200.667,41.8333 200,50.5C 199.817,53.3647 199.317,56.0314 198.5,58.5C 198.5,46.8333 198.5,35.1667 198.5,23.5C 196.833,23.5 195.167,23.5 193.5,23.5 Z"/></g>
<g><path style="opacity:1" fill="#8d51bb" d="M 217.5,54.5 C 217.11,49.8191 215.11,46.1524 211.5,43.5C 211.34,41.847 210.674,40.5137 209.5,39.5C 208.506,48.6517 208.173,57.985 208.5,67.5C 206.833,67.5 205.167,67.5 203.5,67.5C 203.5,52.8333 203.5,38.1667 203.5,23.5C 205.5,23.5 207.5,23.5 209.5,23.5C 214.615,32.0648 218.948,41.0648 222.5,50.5C 222.783,51.2891 223.283,51.9558 224,52.5C 224.5,42.8391 224.666,33.1724 224.5,23.5C 226.607,22.5318 228.941,22.1984 231.5,22.5C 231.667,37.837 231.5,53.1703 231,68.5C 228.534,69.7766 226.034,69.7766 223.5,68.5C 221.03,64.0314 219.03,59.3648 217.5,54.5 Z"/></g>
<g><path style="opacity:1" fill="#ddc4c6" d="M 224.5,23.5 C 224.666,33.1724 224.5,42.8391 224,52.5C 223.283,51.9558 222.783,51.2891 222.5,50.5C 223.167,41.5 223.833,32.5 224.5,23.5 Z"/></g>
<g><path style="opacity:1" fill="#a06ec2" d="M 242.5,26.5 C 240.18,24.7739 237.513,24.1072 234.5,24.5C 234.5,38.8333 234.5,53.1667 234.5,67.5C 236.167,67.5 237.833,67.5 239.5,67.5C 239.5,57.8333 239.5,48.1667 239.5,38.5C 242.835,39.4608 244.501,41.7941 244.5,45.5C 243.108,43.7274 241.941,41.7274 241,39.5C 240.5,49.4944 240.334,59.4944 240.5,69.5C 238.208,69.7564 236.041,69.4231 234,68.5C 233.333,53.5 233.333,38.5 234,23.5C 236.466,22.2234 238.966,22.2234 241.5,23.5C 242.127,24.4168 242.461,25.4168 242.5,26.5 Z"/></g>
<g><path style="opacity:1" fill="#8b4ebb" d="M 261.5,23.5 C 261.5,38.1667 261.5,52.8333 261.5,67.5C 258.014,68.1715 255.347,67.1715 253.5,64.5C 253.646,61.2288 252.312,58.8955 249.5,57.5C 248.596,56.791 248.263,55.791 248.5,54.5C 248.34,52.847 247.674,51.5137 246.5,50.5C 245.559,48.9505 244.893,47.2838 244.5,45.5C 244.501,41.7941 242.835,39.4608 239.5,38.5C 239.5,48.1667 239.5,57.8333 239.5,67.5C 237.833,67.5 236.167,67.5 234.5,67.5C 234.5,53.1667 234.5,38.8333 234.5,24.5C 237.513,24.1072 240.18,24.7739 242.5,26.5C 247.255,34.4105 251.255,42.7438 254.5,51.5C 254.56,52.0431 254.893,52.3764 255.5,52.5C 256.498,42.8563 256.832,33.1896 256.5,23.5C 258.167,23.5 259.833,23.5 261.5,23.5 Z"/></g>
<g><path style="opacity:1" fill="#b48ecc" d="M 262.5,23.5 C 262.167,23.5 261.833,23.5 261.5,23.5C 259.833,23.5 258.167,23.5 256.5,23.5C 256.832,33.1896 256.498,42.8563 255.5,52.5C 254.893,52.3764 254.56,52.0431 254.5,51.5C 255.494,42.0144 255.827,32.3478 255.5,22.5C 258.059,22.1984 260.393,22.5318 262.5,23.5 Z"/></g>
<g><path style="opacity:1" fill="#a777c7" d="M 261.5,23.5 C 261.833,23.5 262.167,23.5 262.5,23.5C 262.667,38.5037 262.5,53.5037 262,68.5C 257.299,70.7166 254.466,69.3833 253.5,64.5C 255.347,67.1715 258.014,68.1715 261.5,67.5C 261.5,52.8333 261.5,38.1667 261.5,23.5 Z"/></g>
<g><path style="opacity:1" fill="#9056bc" d="M 271.5,24.5 C 274.892,30.2804 278.059,36.2804 281,42.5C 284.101,37.2983 286.934,31.9649 289.5,26.5C 291.496,24.6668 293.829,24.1668 296.5,25C 294.798,27.2354 293.798,29.7354 293.5,32.5C 290.679,38.8118 287.845,45.1451 285,51.5C 284.501,57.1569 284.334,62.8236 284.5,68.5C 282.5,68.5 280.5,68.5 278.5,68.5C 278.666,62.4908 278.499,56.4908 278,50.5C 277.388,47.8854 275.888,46.2187 273.5,45.5C 273.737,44.209 273.404,43.209 272.5,42.5C 271.89,41.609 271.557,40.609 271.5,39.5C 269.901,34.3765 267.901,29.3765 265.5,24.5C 267.516,23.3058 269.516,23.3058 271.5,24.5 Z"/></g>
<g><path style="opacity:1" fill="#b28dcb" d="M 193.5,23.5 C 193.827,33.015 193.494,42.3483 192.5,51.5C 191.509,43.1789 191.176,35.0122 191.5,27C 192.085,25.6976 192.751,24.531 193.5,23.5 Z"/></g>
<g><path style="opacity:1" fill="#5a5a59" d="M 26.5,22.5 C 26.1224,28.3097 26.789,33.9763 28.5,39.5C 28.3764,40.1067 28.0431,40.44 27.5,40.5C 26.2161,36.0606 25.2161,31.5606 24.5,27C 25.0989,25.3775 25.7656,23.8775 26.5,22.5 Z"/></g>
<g><path style="opacity:1" fill="#a271bf" d="M 134.5,23.5 C 144.833,23.5 155.167,23.5 165.5,23.5C 165.5,25.1667 165.5,26.8333 165.5,28.5C 157.684,29.4924 149.684,29.8257 141.5,29.5C 141.5,33.5 141.5,37.5 141.5,41.5C 147.69,41.1771 153.69,41.5104 159.5,42.5C 153.167,42.5 146.833,42.5 140.5,42.5C 140.5,37.5 140.5,32.5 140.5,27.5C 148.5,27.5 156.5,27.5 164.5,27.5C 164.5,26.5 164.5,25.5 164.5,24.5C 154.833,24.5 145.167,24.5 135.5,24.5C 135.5,38.8333 135.5,53.1667 135.5,67.5C 137.167,67.5 138.833,67.5 140.5,67.5C 140.5,67.8333 140.5,68.1667 140.5,68.5C 138.777,69.807 136.943,69.807 135,68.5C 134.5,53.5037 134.333,38.5037 134.5,23.5 Z"/></g>
<g><path style="opacity:1" fill="#a87ec2" d="M 271.5,24.5 C 269.516,23.3058 267.516,23.3058 265.5,24.5C 267.901,29.3765 269.901,34.3765 271.5,39.5C 268.608,34.7204 265.941,29.7204 263.5,24.5C 264.527,22.976 266.027,22.3094 268,22.5C 269.681,22.6083 270.848,23.2749 271.5,24.5 Z"/></g>
<g><path style="opacity:1" fill="#252525" d="M 74.5,28.5 C 75.6408,31.6399 75.8075,34.9733 75,38.5C 72.7892,42.3535 71.6225,41.8535 71.5,37C 71.8007,33.903 72.8007,31.0696 74.5,28.5 Z"/></g>
<g><path style="opacity:1" fill="#242222" d="M 46.5,3.5 C 46.427,5.02694 47.0937,6.02694 48.5,6.5C 51.2272,10.5765 53.5606,14.9098 55.5,19.5C 57.9878,21.3878 60.9878,22.0545 64.5,21.5C 66.7916,23.2671 69.4582,24.2671 72.5,24.5C 73.0447,20.8284 73.3781,21.1617 73.5,25.5C 70.2513,31.3464 68.5846,37.6798 68.5,44.5C 67.0295,43.6195 66.1962,42.2861 66,40.5C 58.7983,45.4049 50.965,47.7382 42.5,47.5C 43.8793,46.1374 43.7126,45.1374 42,44.5C 38.6501,45.9749 35.1501,46.6416 31.5,46.5C 31.5,47.5 31.5,48.5 31.5,49.5C 35.0248,49.2146 38.3582,49.8813 41.5,51.5C 42.4164,51.4573 43.0831,51.1239 43.5,50.5C 44.8333,52.1667 44.8333,53.8333 43.5,55.5C 42.4479,53.744 40.7812,53.0773 38.5,53.5C 39.0626,59.768 36.2293,63.1014 30,63.5C 27.813,63.2115 25.6463,62.8782 23.5,62.5C 21.4619,81.6231 30.1286,89.7898 49.5,87C 56.2494,85.7462 61.9161,82.5795 66.5,77.5C 66.8333,78 67.1667,78.5 67.5,79C 64.1286,83.5262 59.7953,86.8596 54.5,89C 48.8702,89.9664 43.2036,90.6331 37.5,91C 35.8333,91.8333 34.1667,92.6667 32.5,93.5C 31.1667,94.1667 31.1667,94.8333 32.5,95.5C 33.2935,95.9312 34.1268,96.2645 35,96.5C 38.676,93.1634 43.0093,91.4968 48,91.5C 53.9656,92.4085 59.7989,93.7418 65.5,95.5C 65.415,97.9288 64.415,99.9288 62.5,101.5C 64.6355,104.739 67.6355,106.739 71.5,107.5C 73.6214,105.979 75.1214,103.979 76,101.5C 76.1786,98.4465 76.6786,95.4465 77.5,92.5C 78.086,92.7093 78.586,93.0426 79,93.5C 79.6099,97.2364 79.2765,100.903 78,104.5C 75.2744,107.717 72.7744,111.05 70.5,114.5C 70.8333,115.167 71.1667,115.833 71.5,116.5C 74.0205,115.215 76.6872,114.548 79.5,114.5C 77.7226,115.6 75.7226,116.434 73.5,117C 74.3366,118.011 74.67,119.178 74.5,120.5C 68.1667,119.5 65.5,122.167 66.5,128.5C 65.6981,127.048 65.1981,125.382 65,123.5C 64.8019,125.382 64.3019,127.048 63.5,128.5C 63.631,127.761 63.4643,127.094 63,126.5C 53.3631,136.072 44.0298,135.738 35,125.5C 32.7361,121.113 31.4027,116.446 31,111.5C 30.5065,113.134 30.3398,114.801 30.5,116.5C 29.5655,117.568 29.2322,118.901 29.5,120.5C 28.5489,119.081 28.2155,117.415 28.5,115.5C 26.1417,115.253 24.1417,115.919 22.5,117.5C 22.44,116.957 22.1067,116.624 21.5,116.5C 19.8669,118.503 17.8669,119.836 15.5,120.5C 17.003,116.166 20.003,113.332 24.5,112C 22.8588,110.871 21.8588,109.371 21.5,107.5C 21.5,105.167 21.5,102.833 21.5,100.5C 23.3479,95.9764 26.3479,92.3097 30.5,89.5C 29.1482,88.4756 27.8149,87.4756 26.5,86.5C 25.5,84.1667 23.8333,82.5 21.5,81.5C 19.9132,76.3036 19.2465,70.9703 19.5,65.5C 19.472,63.4176 20.1387,61.5843 21.5,60C 19.8166,56.3797 19.1499,52.5463 19.5,48.5C 22.1667,48.5 24.8333,48.5 27.5,48.5C 27.7148,46.8212 27.0481,45.8212 25.5,45.5C 23.5165,45.6168 21.8498,44.9501 20.5,43.5C 22.7301,42.2172 25.0634,41.2172 27.5,40.5C 28.0431,40.44 28.3764,40.1067 28.5,39.5C 26.789,33.9763 26.1224,28.3097 26.5,22.5C 27.1712,21.1529 27.1712,19.9862 26.5,19C 27.0944,18.5357 27.7611,18.369 28.5,18.5C 30.335,17.8777 31.5017,16.5444 32,14.5C 32.0995,16.6526 32.9328,18.3192 34.5,19.5C 36.7723,21.6104 38.939,23.9437 41,26.5C 41.3826,25.944 41.8826,25.6107 42.5,25.5C 43.8333,21.8333 43.8333,18.1667 42.5,14.5C 42.5,14.1667 42.5,13.8333 42.5,13.5C 42.5,9.5 42.5,5.5 42.5,1.5C 44.7089,0.0242064 46.0423,0.690873 46.5,3.5 Z"/></g>
<g><path style="opacity:1" fill="#8046ae" d="M 58.5,24.5 C 62.5762,24.1207 66.2429,25.1207 69.5,27.5C 68.1072,31.9902 65.7739,35.8235 62.5,39C 57.6931,41.4054 52.6931,43.2387 47.5,44.5C 46.8333,42.1667 46.1667,39.8333 45.5,37.5C 41.5337,41.4911 36.867,42.8244 31.5,41.5C 35.0699,36.9841 39.0699,32.9841 43.5,29.5C 44.4519,31.0453 44.7852,32.712 44.5,34.5C 51.2667,35.9822 56.6,33.9822 60.5,28.5C 59.3698,27.3777 58.7031,26.0443 58.5,24.5 Z"/></g>
<g><path style="opacity:1" fill="#e8841e" d="M 52.5,24.5 C 55.4734,24.9651 56.6401,26.6318 56,29.5C 53.4355,31.1793 50.6021,31.846 47.5,31.5C 47.5,29.5 47.5,27.5 47.5,25.5C 49.4147,25.7845 51.0813,25.4511 52.5,24.5 Z"/></g>
<g><path style="opacity:1" fill="#ececec" d="M 30.5,21.5 C 33.558,23.5564 35.8914,26.2231 37.5,29.5C 32.8045,40.2234 30.1379,39.8901 29.5,28.5C 29.56,26.0788 29.8934,23.7455 30.5,21.5 Z"/></g>
<g><path style="opacity:1" fill="#d67b1e" d="M 48.5,17.5 C 50.8489,17.4583 52.1822,18.6249 52.5,21C 50.0017,24.4751 48.0017,24.3085 46.5,20.5C 46.9424,19.2613 47.6091,18.2613 48.5,17.5 Z"/></g>
<g><path style="opacity:1" fill="#85807f" d="M 42.5,14.5 C 43.8333,18.1667 43.8333,21.8333 42.5,25.5C 42.0902,21.7811 42.0902,18.1144 42.5,14.5 Z"/></g>
<g><path style="opacity:1" fill="#e7831f" d="M 47.5,11.5 C 48.1098,12.391 48.4431,13.391 48.5,14.5C 46.4482,13.9473 46.1148,12.9473 47.5,11.5 Z"/></g>
<g><path style="opacity:1" fill="#673f19" d="M 47.5,11.5 C 46.1148,12.9473 46.4482,13.9473 48.5,14.5C 47.791,15.404 46.791,15.7373 45.5,15.5C 45.3379,13.4727 45.5045,11.4727 46,9.5C 46.7172,10.0442 47.2172,10.7109 47.5,11.5 Z"/></g>
<g><path style="opacity:1" fill="#a77ec7" d="M 209.5,23.5 C 207.5,23.5 205.5,23.5 203.5,23.5C 203.5,38.1667 203.5,52.8333 203.5,67.5C 205.167,67.5 206.833,67.5 208.5,67.5C 208.173,57.985 208.506,48.6517 209.5,39.5C 209.666,49.1724 209.5,58.8391 209,68.5C 207,69.8333 205,69.8333 203,68.5C 202.5,53.1703 202.333,37.837 202.5,22.5C 205.059,22.1984 207.393,22.5318 209.5,23.5 Z"/></g>
<g><path style="opacity:1" fill="#d6ced9" d="M 272.5,42.5 C 273.404,43.209 273.737,44.209 273.5,45.5C 272.733,44.828 272.066,43.9947 271.5,43C 271.728,42.6012 272.062,42.4346 272.5,42.5 Z"/></g>
<g><path style="opacity:1" fill="#ccbeb9" d="M 25.5,45.5 C 27.0481,45.8212 27.7148,46.8212 27.5,48.5C 24.8333,48.5 22.1667,48.5 19.5,48.5C 21.631,47.6862 23.9644,47.1862 26.5,47C 25.944,46.6174 25.6107,46.1174 25.5,45.5 Z"/></g>
<g><path style="opacity:1" fill="#494345" d="M 90.5,42.5 C 93.0498,48.8087 93.0498,55.142 90.5,61.5C 90.5,55.1667 90.5,48.8333 90.5,42.5 Z"/></g>
<g><path style="opacity:1" fill="#ab80c5" d="M 159.5,42.5 C 160.461,44.2646 160.795,46.2646 160.5,48.5C 154.167,48.5 147.833,48.5 141.5,48.5C 141.824,55.3543 141.491,62.021 140.5,68.5C 140.5,68.1667 140.5,67.8333 140.5,67.5C 140.5,60.8333 140.5,54.1667 140.5,47.5C 146.833,47.5 153.167,47.5 159.5,47.5C 159.5,45.8333 159.5,44.1667 159.5,42.5 Z"/></g>
<g><path style="opacity:1" fill="#1f1e1f" d="M 80.5,40.5 C 80.5386,41.7562 80.0386,42.7562 79,43.5C 78.2853,54.5036 77.952,65.5036 78,76.5C 79.369,80.6666 81.0356,84.6666 83,88.5C 83.9474,83.9697 83.4474,79.6364 81.5,75.5C 82.9554,74.2555 84.2887,74.4222 85.5,76C 92.7853,77.2265 93.2853,76.0599 87,72.5C 86.5964,65.6087 87.0964,58.7754 88.5,52C 89.008,47.1967 87.6747,43.03 84.5,39.5C 84.3691,38.6236 84.7025,37.9569 85.5,37.5C 86.8545,39.5212 88.5212,41.1879 90.5,42.5C 90.5,48.8333 90.5,55.1667 90.5,61.5C 90.6199,63.7345 90.2865,65.9011 89.5,68C 89.8082,69.4595 90.4749,70.6261 91.5,71.5C 92.9179,73.3079 94.9179,73.9746 97.5,73.5C 97.5,74.5 97.5,75.5 97.5,76.5C 97.5,77.1667 97.1667,77.5 96.5,77.5C 95.1667,77.8333 93.8333,78.1667 92.5,78.5C 90.1667,78.5 87.8333,78.5 85.5,78.5C 85.6476,85.0137 85.6476,91.347 85.5,97.5C 78.4073,89.0676 74.7406,79.2343 74.5,68C 75.3607,62.1777 75.5273,56.3444 75,50.5C 71.5838,52.792 68.0838,54.9586 64.5,57C 62.3333,63.0877 57.9999,65.5877 51.5,64.5C 53.348,60.1464 54.0147,55.4797 53.5,50.5C 57.5,50.5 61.5,50.5 65.5,50.5C 68.8774,50.0405 72.2107,49.3739 75.5,48.5C 75.0216,44.6625 76.0216,41.3291 78.5,38.5C 80.2027,37.3398 80.8693,38.0065 80.5,40.5 Z"/></g>
<g><path style="opacity:1" fill="#8046ad" d="M 84.5,39.5 C 87.6747,43.03 89.008,47.1967 88.5,52C 87.0964,58.7754 86.5964,65.6087 87,72.5C 93.2853,76.0599 92.7853,77.2265 85.5,76C 84.2887,74.4222 82.9554,74.2555 81.5,75.5C 83.4474,79.6364 83.9474,83.9697 83,88.5C 81.0356,84.6666 79.369,80.6666 78,76.5C 77.952,65.5036 78.2853,54.5036 79,43.5C 80.0386,42.7562 80.5386,41.7562 80.5,40.5C 81.4716,38.5069 82.8049,38.1736 84.5,39.5 Z"/></g>
<g><path style="opacity:1" fill="#af88c5" d="M 211.5,43.5 C 215.11,46.1524 217.11,49.8191 217.5,54.5C 215.133,51.0957 213.133,47.4291 211.5,43.5 Z"/></g>
<g><path style="opacity:1" fill="#e4e4e4" d="M 25.5,50.5 C 25.8064,53.3854 25.4731,56.0521 24.5,58.5C 23.2264,56.0075 22.5597,53.3408 22.5,50.5C 23.5,50.5 24.5,50.5 25.5,50.5 Z"/></g>
<g><path style="opacity:1" fill="#f1f1f1" d="M 85.5,97.5 C 88.0969,101.034 90.4302,104.7 92.5,108.5C 95.5158,118.13 92.6824,125.463 84,130.5C 83.2672,125.362 80.7672,121.362 76.5,118.5C 78.3413,117.77 80.1746,117.103 82,116.5C 82.1881,114.939 81.3547,114.272 79.5,114.5C 76.6872,114.548 74.0205,115.215 71.5,116.5C 71.1667,115.833 70.8333,115.167 70.5,114.5C 72.7744,111.05 75.2744,107.717 78,104.5C 79.2765,100.903 79.6099,97.2364 79,93.5C 78.586,93.0426 78.086,92.7093 77.5,92.5C 76.6786,95.4465 76.1786,98.4465 76,101.5C 75.1214,103.979 73.6214,105.979 71.5,107.5C 67.6355,106.739 64.6355,104.739 62.5,101.5C 64.415,99.9288 65.415,97.9288 65.5,95.5C 59.7989,93.7418 53.9656,92.4085 48,91.5C 43.0093,91.4968 38.676,93.1634 35,96.5C 34.1268,96.2645 33.2935,95.9312 32.5,95.5C 31.1667,94.8333 31.1667,94.1667 32.5,93.5C 34.1667,92.6667 35.8333,91.8333 37.5,91C 43.2036,90.6331 48.8702,89.9664 54.5,89C 59.7953,86.8596 64.1286,83.5262 67.5,79C 67.1667,78.5 66.8333,78 66.5,77.5C 61.9161,82.5795 56.2494,85.7462 49.5,87C 30.1286,89.7898 21.4619,81.6231 23.5,62.5C 25.6463,62.8782 27.813,63.2115 30,63.5C 36.2293,63.1014 39.0626,59.768 38.5,53.5C 40.7812,53.0773 42.4479,53.744 43.5,55.5C 44.0961,60.4254 46.7628,63.4254 51.5,64.5C 57.9999,65.5877 62.3333,63.0877 64.5,57C 68.0838,54.9586 71.5838,52.792 75,50.5C 75.5273,56.3444 75.3607,62.1777 74.5,68C 74.7406,79.2343 78.4073,89.0676 85.5,97.5 Z"/></g>
<g><path style="opacity:1" fill="#d1c8d6" d="M 246.5,50.5 C 247.674,51.5137 248.34,52.847 248.5,54.5C 247.163,53.6851 246.163,52.5185 245.5,51C 245.728,50.6012 246.062,50.4346 246.5,50.5 Z"/></g>
<g><path style="opacity:1" fill="#9d9b9d" d="M 25.5,50.5 C 26.5,50.5 27.5,50.5 28.5,50.5C 28.665,53.8499 28.4983,57.1832 28,60.5C 26.6976,59.9152 25.531,59.2485 24.5,58.5C 25.4731,56.0521 25.8064,53.3854 25.5,50.5 Z"/></g>
<g><path style="opacity:1" fill="#b591c6" d="M 249.5,57.5 C 252.312,58.8955 253.646,61.2288 253.5,64.5C 251.412,62.6644 250.079,60.3311 249.5,57.5 Z"/></g>
<g><path style="opacity:1" fill="#ad84ca" d="M 273.5,45.5 C 275.888,46.2187 277.388,47.8854 278,50.5C 278.499,56.4908 278.666,62.4908 278.5,68.5C 277.711,68.2172 277.044,67.7172 276.5,67C 276.833,62 277.167,57 277.5,52C 276.27,49.6938 274.937,47.5271 273.5,45.5 Z"/></g>
<g><path style="opacity:1" fill="#b08bc2" d="M 169.5,58.5 C 171.195,60.5351 172.528,62.8684 173.5,65.5C 170.917,64.015 169.584,61.6817 169.5,58.5 Z"/></g>
<g><path style="opacity:1" fill="#333333" d="M 43.5,50.5 C 50.8333,49.1667 58.1667,49.1667 65.5,50.5C 61.5,50.5 57.5,50.5 53.5,50.5C 54.0147,55.4797 53.348,60.1464 51.5,64.5C 46.7628,63.4254 44.0961,60.4254 43.5,55.5C 44.8333,53.8333 44.8333,52.1667 43.5,50.5 Z"/></g>
<g><path style="opacity:1" fill="#d3d2d3" d="M 45.5,50.5 C 47.5841,51.2483 49.5841,51.2483 51.5,50.5C 52.8333,54.5 52.8333,58.5 51.5,62.5C 50.6786,59.5535 50.1786,56.5535 50,53.5C 49.8184,56.2263 49.3184,58.8929 48.5,61.5C 46.1207,58.2429 45.1207,54.5762 45.5,50.5 Z"/></g>
<g><path style="opacity:1" fill="#aa83c3" d="M 191.5,59.5 C 190.551,62.9404 188.218,64.2738 184.5,63.5C 182.36,63.4439 180.694,62.7773 179.5,61.5C 183.979,63.2761 187.979,62.6094 191.5,59.5 Z"/></g>
<g><path style="opacity:1" fill="#a06cc1" d="M 173.5,65.5 C 180.363,67.7749 187.363,68.1083 194.5,66.5C 188.527,69.8448 182.194,70.3448 175.5,68C 174.619,67.2917 173.953,66.4584 173.5,65.5 Z"/></g>
<g><path style="opacity:1" fill="#242323" d="M 26.5,67.5 C 29.9103,67.3838 31.2436,69.0504 30.5,72.5C 27.0897,72.6162 25.7564,70.9496 26.5,67.5 Z"/></g>
<g><path style="opacity:1" fill="#363536" d="M 38.5,67.5 C 42.0289,68.6092 42.3622,70.4425 39.5,73C 38.552,73.4828 37.552,73.6495 36.5,73.5C 36.2525,71.1417 36.9192,69.1417 38.5,67.5 Z"/></g>
<g><path style="opacity:1" fill="#807a7e" d="M 91.5,71.5 C 94.2851,72.0171 96.9518,72.8505 99.5,74C 98.9341,74.9947 98.2674,75.828 97.5,76.5C 97.5,75.5 97.5,74.5 97.5,73.5C 94.9179,73.9746 92.9179,73.3079 91.5,71.5 Z"/></g>
<g><path style="opacity:1" fill="#f1c095" d="M 141.5,76.5 C 139.379,76.3253 137.379,76.6586 135.5,77.5C 134.262,77.19 134.262,76.69 135.5,76C 137.712,75.2109 139.712,75.3775 141.5,76.5 Z"/></g>
<g><path style="opacity:1" fill="#efb177" d="M 271.5,77.5 C 269.621,76.6586 267.621,76.3253 265.5,76.5C 265.5,77.8333 265.5,79.1667 265.5,80.5C 262.481,77.2009 263.314,75.5342 268,75.5C 269.681,75.6083 270.848,76.2749 271.5,77.5 Z"/></g>
<g><path style="opacity:1" fill="#716e6f" d="M 19.5,65.5 C 19.2465,70.9703 19.9132,76.3036 21.5,81.5C 19.6214,81.6068 19.2881,81.1068 20.5,80C 19.1332,76.4266 18.1332,72.7599 17.5,69C 18.0848,67.6976 18.7515,66.531 19.5,65.5 Z"/></g>
<g><path style="opacity:1" fill="#f8983d" d="M 169.5,108.5 C 169.5,102.5 169.5,96.5 169.5,90.5C 170.291,77.6166 177.291,72.7833 190.5,76C 193.913,77.0774 196.413,79.2441 198,82.5C 201.533,94.2935 201.2,105.96 197,117.5C 189.628,124.249 181.795,124.915 173.5,119.5C 170.98,116.273 169.646,112.607 169.5,108.5 Z M 183.5,81.5 C 189.517,81.6484 192.517,84.8151 192.5,91C 192.292,96.0629 192.292,101.396 192.5,107C 191.5,115.155 187.166,117.655 179.5,114.5C 178.416,113.335 177.583,112.002 177,110.5C 176.09,101.756 176.424,93.0895 178,84.5C 179.719,83.1312 181.552,82.1312 183.5,81.5 Z"/></g>
<g><path style="opacity:1" fill="#f99531" d="M 159.5,121.5 C 159.824,114.646 159.491,107.979 158.5,101.5C 158.66,99.8008 158.494,98.1341 158,96.5C 156.47,100.09 155.136,103.757 154,107.5C 151.534,108.777 149.034,108.777 146.5,107.5C 145.235,104.204 144.068,100.871 143,97.5C 141.594,105.749 141.094,114.083 141.5,122.5C 139.167,122.5 136.833,122.5 134.5,122.5C 134.5,119.5 134.5,116.5 134.5,113.5C 135.493,105.016 135.826,96.3494 135.5,87.5C 135.5,84.1667 135.5,80.8333 135.5,77.5C 137.379,76.6586 139.379,76.3253 141.5,76.5C 144.832,82.5067 147.666,88.84 150,95.5C 152.816,89.1972 155.65,82.8638 158.5,76.5C 160.743,75.5258 163.076,75.1924 165.5,75.5C 165.689,90.8434 165.856,106.177 166,121.5C 163.726,122.811 161.56,122.811 159.5,121.5 Z"/></g>
<g><path style="opacity:1" fill="#f99432" d="M 221.5,116.5 C 222.491,114.877 221.824,113.877 219.5,113.5C 219.376,111.418 218.376,109.918 216.5,109C 217.634,107.984 217.301,107.317 215.5,107C 216.634,105.984 216.301,105.317 214.5,105C 215.299,103.251 214.632,101.918 212.5,101C 212.833,100.667 213.167,100.333 213.5,100C 212.536,98.2745 211.869,96.4412 211.5,94.5C 211.5,93.5 211.5,92.5 211.5,91.5C 210.5,91.5 209.5,91.5 208.5,91.5C 208.5,101.167 208.5,110.833 208.5,120.5C 206.833,120.5 205.167,120.5 203.5,120.5C 203.5,105.833 203.5,91.1667 203.5,76.5C 205.5,76.5 207.5,76.5 209.5,76.5C 212.674,81.5156 215.341,86.8489 217.5,92.5C 217.229,94.3797 217.896,95.713 219.5,96.5C 220.653,98.8068 221.82,101.14 223,103.5C 223.333,94.5 223.667,85.5 224,76.5C 226.333,75.1667 228.667,75.1667 231,76.5C 231.667,91.5 231.667,106.5 231,121.5C 225.708,123.868 222.541,122.202 221.5,116.5 Z"/></g>
<g><path style="opacity:1" fill="#fa942e" d="M 234.5,76.5 C 243.5,76.5 252.5,76.5 261.5,76.5C 261.5,78.1667 261.5,79.8333 261.5,81.5C 254.313,81.1755 247.313,81.5088 240.5,82.5C 241.729,86.3667 241.729,90.2001 240.5,94C 245.684,94.1739 250.684,94.6739 255.5,95.5C 255.5,97.1667 255.5,98.8333 255.5,100.5C 250.489,100.334 245.489,100.501 240.5,101C 239.365,105.748 239.198,110.581 240,115.5C 247.079,116.48 254.245,116.813 261.5,116.5C 261.5,117.833 261.5,119.167 261.5,120.5C 252.5,120.5 243.5,120.5 234.5,120.5C 234.5,105.833 234.5,91.1667 234.5,76.5 Z"/></g>
<g><path style="opacity:1" fill="#f9993b" d="M 298.5,76.5 C 298.5,77.1667 298.5,77.8333 298.5,78.5C 293.52,86.4525 289.02,94.7859 285,103.5C 284.83,109.528 284.33,115.528 283.5,121.5C 281.629,122.767 279.796,122.767 278,121.5C 277.667,116.167 277.333,110.833 277,105.5C 273.155,97.145 269.322,88.8117 265.5,80.5C 265.5,79.1667 265.5,77.8333 265.5,76.5C 267.621,76.3253 269.621,76.6586 271.5,77.5C 274.892,83.2804 278.059,89.2804 281,95.5C 282.04,92.1766 283.54,89.1766 285.5,86.5C 288.083,85.015 289.416,82.6817 289.5,79.5C 289.511,77.9826 290.177,76.8159 291.5,76C 293.929,75.2967 296.262,75.4634 298.5,76.5 Z"/></g>
<g><path style="opacity:1" fill="#716f70" d="M 96.5,77.5 C 94.238,80.3917 91.4047,81.3917 88,80.5C 87.8171,83.3647 87.3171,86.0314 86.5,88.5C 86.5,85.5 86.5,82.5 86.5,79.5C 88.7354,79.7947 90.7354,79.4614 92.5,78.5C 93.8333,78.1667 95.1667,77.8333 96.5,77.5 Z"/></g>
<g><path style="opacity:1" fill="#827e7f" d="M 105.5,81.5 C 108.959,80.1353 112.292,80.4686 115.5,82.5C 112.193,81.9492 108.86,81.6159 105.5,81.5 Z"/></g>
<g><path style="opacity:1" fill="#f2b374" d="M 234.5,76.5 C 243.652,75.5064 252.985,75.1731 262.5,75.5C 262.5,77.8333 262.5,80.1667 262.5,82.5C 255.079,83.0795 247.746,83.0795 240.5,82.5C 247.313,81.5088 254.313,81.1755 261.5,81.5C 261.5,79.8333 261.5,78.1667 261.5,76.5C 252.5,76.5 243.5,76.5 234.5,76.5 Z"/></g>
<g><path style="opacity:1" fill="#9c9898" d="M 21.5,81.5 C 23.8333,82.5 25.5,84.1667 26.5,86.5C 23.8333,85.8333 22.1667,84.1667 21.5,81.5 Z"/></g>
<g><path style="opacity:1" fill="#282728" d="M 92.5,78.5 C 90.7354,79.4614 88.7354,79.7947 86.5,79.5C 86.5,82.5 86.5,85.5 86.5,88.5C 86.3398,90.1992 86.5065,91.8659 87,93.5C 90.3671,97.5902 93.2005,101.924 95.5,106.5C 95.8333,109.167 96.1667,109.167 96.5,106.5C 95.8058,101.195 95.4724,95.8617 95.5,90.5C 96.9467,85.3859 100.28,82.3859 105.5,81.5C 108.86,81.6159 112.193,81.9492 115.5,82.5C 118.643,83.1335 121.143,84.8002 123,87.5C 123.528,88.816 123.028,89.4827 121.5,89.5C 118.027,89.5758 114.694,90.2424 111.5,91.5C 112.625,89.8712 113.959,88.3712 115.5,87C 114.906,86.5357 114.239,86.369 113.5,86.5C 113.389,85.8826 113.056,85.3826 112.5,85C 104.041,83.1231 99.0413,86.4564 97.5,95C 98.41,99.1369 99.0767,103.304 99.5,107.5C 99.7678,109.099 99.4345,110.432 98.5,111.5C 98.6495,110.448 98.4828,109.448 98,108.5C 97.2904,109.973 96.1238,110.64 94.5,110.5C 94.6882,108.897 94.1882,107.563 93,106.5C 92.5357,107.094 92.369,107.761 92.5,108.5C 90.4302,104.7 88.0969,101.034 85.5,97.5C 85.6476,91.347 85.6476,85.0137 85.5,78.5C 87.8333,78.5 90.1667,78.5 92.5,78.5 Z"/></g>
<g><path style="opacity:1" fill="#f0c499" d="M 289.5,79.5 C 289.416,82.6817 288.083,85.015 285.5,86.5C 286.468,83.8997 287.801,81.5664 289.5,79.5 Z"/></g>
<g><path style="opacity:1" fill="#d5d4d5" d="M 113.5,86.5 C 109.495,86.5565 105.995,87.8899 103,90.5C 101.311,96.1819 100.144,101.849 99.5,107.5C 99.0767,103.304 98.41,99.1369 97.5,95C 99.0413,86.4564 104.041,83.1231 112.5,85C 113.056,85.3826 113.389,85.8826 113.5,86.5 Z"/></g>
<g><path style="opacity:1" fill="#864ab5" d="M 113.5,86.5 C 114.239,86.369 114.906,86.5357 115.5,87C 113.959,88.3712 112.625,89.8712 111.5,91.5C 110.833,91.5 110.5,91.8333 110.5,92.5C 109.778,92.9175 109.278,93.5842 109,94.5C 108.776,101.315 107.776,107.982 106,114.5C 104.055,118.39 100.888,120.057 96.5,119.5C 96.2872,116.549 96.9539,113.882 98.5,111.5C 99.4345,110.432 99.7678,109.099 99.5,107.5C 100.144,101.849 101.311,96.1819 103,90.5C 105.995,87.8899 109.495,86.5565 113.5,86.5 Z"/></g>
<g><path style="opacity:1" fill="#504e4f" d="M 121.5,89.5 C 117.776,90.122 114.943,92.122 113,95.5C 112.793,102.479 111.627,109.146 109.5,115.5C 110.166,109.508 110.832,103.508 111.5,97.5C 111.493,95.6307 111.16,93.964 110.5,92.5C 110.5,91.8333 110.833,91.5 111.5,91.5C 114.694,90.2424 118.027,89.5758 121.5,89.5 Z"/></g>
<g><path style="opacity:1" fill="#f7ab5d" d="M 209.5,76.5 C 207.5,76.5 205.5,76.5 203.5,76.5C 203.5,91.1667 203.5,105.833 203.5,120.5C 205.167,120.5 206.833,120.5 208.5,120.5C 208.5,110.833 208.5,101.167 208.5,91.5C 209.5,91.5 210.5,91.5 211.5,91.5C 211.5,92.5 211.5,93.5 211.5,94.5C 210.778,94.0825 210.278,93.4158 210,92.5C 209.667,102.167 209.333,111.833 209,121.5C 207,122.833 205,122.833 203,121.5C 202.5,106.17 202.333,90.837 202.5,75.5C 205.059,75.1984 207.393,75.5318 209.5,76.5 Z"/></g>
<g><path style="opacity:1" fill="#edb278" d="M 135.5,87.5 C 135.826,96.3494 135.493,105.016 134.5,113.5C 133.702,111.751 133.368,109.584 133.5,107C 134.15,100.401 134.816,93.9009 135.5,87.5 Z"/></g>
<g><path style="opacity:1" fill="#8b521b" d="M 44.5,93.5 C 50.6278,92.7655 55.9611,94.4322 60.5,98.5C 58.8767,99.4756 57.5433,98.9756 56.5,97C 49.1901,94.1419 42.6901,95.3086 37,100.5C 36.4926,99.0039 36.9926,97.8373 38.5,97C 40.7274,96.059 42.7274,94.8923 44.5,93.5 Z"/></g>
<g><path style="opacity:1" fill="#e3c3ae" d="M 169.5,90.5 C 169.5,96.5 169.5,102.5 169.5,108.5C 167.299,102.396 167.299,96.3963 169.5,90.5 Z"/></g>
<g><path style="opacity:1" fill="#f0cca8" d="M 217.5,92.5 C 218.674,93.5137 219.34,94.847 219.5,96.5C 217.896,95.713 217.229,94.3797 217.5,92.5 Z"/></g>
<g><path style="opacity:1" fill="#6d6a6a" d="M 95.5,90.5 C 95.4724,95.8617 95.8058,101.195 96.5,106.5C 96.1667,106.5 95.8333,106.5 95.5,106.5C 95.1561,102.947 94.4894,99.4468 93.5,96C 93.9537,93.9701 94.6204,92.1368 95.5,90.5 Z"/></g>
<g><path style="opacity:1" fill="#ea861f" d="M 55.5,109.5 C 57.6373,111.962 60.304,113.629 63.5,114.5C 64.5966,121.145 62.2632,126.312 56.5,130C 40.7416,133.25 33.2416,126.75 34,110.5C 36.3956,99.0523 43.2289,94.8856 54.5,98C 55.91,98.3678 56.91,99.2011 57.5,100.5C 54.4633,102.98 53.7966,105.98 55.5,109.5 Z"/></g>
<g><path style="opacity:1" fill="#e6e6e6" d="M 28.5,97.5 C 32.4905,96.8238 34.1571,98.4905 33.5,102.5C 32.8632,109.37 30.0299,110.703 25,106.5C 23.9804,102.553 25.1471,99.5532 28.5,97.5 Z"/></g>
<g><path style="opacity:1" fill="#8f878a" d="M 21.5,100.5 C 21.5,102.833 21.5,105.167 21.5,107.5C 19.5743,104.96 19.5743,102.627 21.5,100.5 Z"/></g>
<g><path style="opacity:1" fill="#e4e4e4" d="M 58.5,103.5 C 61.7814,106.148 65.4481,108.314 69.5,110C 62.4175,113.4 58.7508,111.233 58.5,103.5 Z"/></g>
<g><path style="opacity:1" fill="#261e18" d="M 55.5,109.5 C 55.5,110.5 55.5,111.5 55.5,112.5C 50.1667,113.167 50.1667,113.833 55.5,114.5C 55.5,115.5 55.5,116.5 55.5,117.5C 52.1667,117.5 48.8333,117.5 45.5,117.5C 45.33,118.822 45.6634,119.989 46.5,121C 49.0351,121.617 51.3684,121.117 53.5,119.5C 56.1751,122.01 55.5084,123.51 51.5,124C 45.5085,125.851 41.8418,123.685 40.5,117.5C 46.0284,114.344 45.6951,113.01 39.5,113.5C 39.5,112.5 39.5,111.5 39.5,110.5C 42.8333,110.5 46.1667,110.5 49.5,110.5C 49.5,109.5 49.5,108.5 49.5,107.5C 46.7276,107.22 44.2276,107.887 42,109.5C 40.7705,108.725 40.4372,107.725 41,106.5C 43.6534,103.806 46.8201,102.973 50.5,104C 52.2545,105.936 53.9211,107.77 55.5,109.5 Z"/></g>
<g><path style="opacity:1" fill="#f4be8f" d="M 219.5,113.5 C 221.824,113.877 222.491,114.877 221.5,116.5C 220.094,116.027 219.427,115.027 219.5,113.5 Z"/></g>
<g><path style="opacity:1" fill="#e9e8e9" d="M 29.5,120.5 C 29.9239,123.354 30.9239,126.021 32.5,128.5C 27.5719,131.637 24.0719,130.304 22,124.5C 21.2967,122.071 21.4634,119.738 22.5,117.5C 24.1417,115.919 26.1417,115.253 28.5,115.5C 28.2155,117.415 28.5489,119.081 29.5,120.5 Z"/></g>
<g><path style="opacity:1" fill="#f0c090" d="M 158.5,101.5 C 159.491,107.979 159.824,114.646 159.5,121.5C 158.784,119.444 158.117,117.277 157.5,115C 158.467,110.599 158.8,106.099 158.5,101.5 Z"/></g>
<g><path style="opacity:1" fill="#1f1e1e" d="M 110.5,92.5 C 111.16,93.964 111.493,95.6307 111.5,97.5C 110.832,103.508 110.166,109.508 109.5,115.5C 108.457,118.056 106.79,120.223 104.5,122C 116.392,127.417 116.392,132.751 104.5,138C 101.28,139.352 97.9466,140.186 94.5,140.5C 91.1226,140.068 88.1226,140.735 85.5,142.5C 84.8333,142.5 84.1667,142.5 83.5,142.5C 80.6146,142.194 77.9479,142.527 75.5,143.5C 75.1667,143.5 74.8333,143.5 74.5,143.5C 71.6146,143.194 68.9479,143.527 66.5,144.5C 47.8546,145.569 29.5212,143.735 11.5,139C 7.79956,138.157 4.79956,136.324 2.5,133.5C 2.32246,132.305 1.98913,131.138 1.5,130C 2.65019,128.019 3.98352,126.186 5.5,124.5C 8.36955,122.206 11.7029,120.872 15.5,120.5C 17.8669,119.836 19.8669,118.503 21.5,116.5C 22.1067,116.624 22.44,116.957 22.5,117.5C 21.4634,119.738 21.2967,122.071 22,124.5C 24.0719,130.304 27.5719,131.637 32.5,128.5C 30.9239,126.021 29.9239,123.354 29.5,120.5C 29.2322,118.901 29.5655,117.568 30.5,116.5C 33.3226,130.52 41.6559,136.353 55.5,134C 58.5973,132.727 61.2639,130.893 63.5,128.5C 64.3019,127.048 64.8019,125.382 65,123.5C 65.1981,125.382 65.6981,127.048 66.5,128.5C 69.7314,135.176 74.2314,136.176 80,131.5C 80.8243,126.482 78.9909,122.815 74.5,120.5C 74.67,119.178 74.3366,118.011 73.5,117C 75.7226,116.434 77.7226,115.6 79.5,114.5C 81.3547,114.272 82.1881,114.939 82,116.5C 80.1746,117.103 78.3413,117.77 76.5,118.5C 80.7672,121.362 83.2672,125.362 84,130.5C 92.6824,125.463 95.5158,118.13 92.5,108.5C 92.369,107.761 92.5357,107.094 93,106.5C 94.1882,107.563 94.6882,108.897 94.5,110.5C 96.1238,110.64 97.2904,109.973 98,108.5C 98.4828,109.448 98.6495,110.448 98.5,111.5C 96.9539,113.882 96.2872,116.549 96.5,119.5C 100.888,120.057 104.055,118.39 106,114.5C 107.776,107.982 108.776,101.315 109,94.5C 109.278,93.5842 109.778,92.9175 110.5,92.5 Z"/></g>
<g><path style="opacity:1" fill="#f7b271" d="M 234.5,76.5 C 234.5,91.1667 234.5,105.833 234.5,120.5C 243.5,120.5 252.5,120.5 261.5,120.5C 261.5,119.167 261.5,117.833 261.5,116.5C 254.245,116.813 247.079,116.48 240,115.5C 239.198,110.581 239.365,105.748 240.5,101C 245.489,100.501 250.489,100.334 255.5,100.5C 255.5,98.8333 255.5,97.1667 255.5,95.5C 256.461,97.2646 256.795,99.2646 256.5,101.5C 251.489,101.334 246.489,101.501 241.5,102C 241.727,105.886 241.393,109.886 240.5,114C 247.658,115.462 254.992,115.962 262.5,115.5C 262.756,117.792 262.423,119.959 261.5,122C 252.255,122.817 243.089,122.65 234,121.5C 233.172,106.328 233.339,91.3277 234.5,76.5 Z"/></g>
<g><path style="opacity:1" fill="#eeeeee" d="M 74.5,120.5 C 78.9909,122.815 80.8243,126.482 80,131.5C 74.2314,136.176 69.7314,135.176 66.5,128.5C 65.5,122.167 68.1667,119.5 74.5,120.5 Z"/></g>
<g><path style="opacity:1" fill="#645e62" d="M 5.5,124.5 C 3.98352,126.186 2.65019,128.019 1.5,130C 1.98913,131.138 2.32246,132.305 2.5,133.5C -0.649827,129.302 0.350173,126.302 5.5,124.5 Z"/></g>
<g><path style="opacity:1" fill="#8b521b" d="M 63.5,128.5 C 61.2639,130.893 58.5973,132.727 55.5,134C 41.6559,136.353 33.3226,130.52 30.5,116.5C 30.3398,114.801 30.5065,113.134 31,111.5C 31.4027,116.446 32.7361,121.113 35,125.5C 44.0298,135.738 53.3631,136.072 63,126.5C 63.4643,127.094 63.631,127.761 63.5,128.5 Z"/></g>
<g><path style="opacity:1" fill="#746f73" d="M 94.5,140.5 C 91.7273,141.657 88.7273,142.324 85.5,142.5C 88.1226,140.735 91.1226,140.068 94.5,140.5 Z"/></g>
<g><path style="opacity:1" fill="#9b8797" d="M 75.5,143.5 C 77.9479,142.527 80.6146,142.194 83.5,142.5C 80.9356,143.882 78.2689,144.215 75.5,143.5 Z"/></g>
<g><path style="opacity:1" fill="#bca7b6" d="M 74.5,143.5 C 72.1667,144.167 69.8333,144.833 67.5,145.5C 67.1667,145.5 66.8333,145.5 66.5,145.5C 66.5,145.167 66.5,144.833 66.5,144.5C 68.9479,143.527 71.6146,143.194 74.5,143.5 Z"/></g>
</svg>
