<?xml version="1.0" encoding="UTF-8"?>
<!DOCTYPE svg PUBLIC "-//W3C//DTD SVG 1.1//EN" "http://www.w3.org/Graphics/SVG/1.1/DTD/svg11.dtd">
<svg xmlns="http://www.w3.org/2000/svg" version="1.1" width="487px" height="128px" style="shape-rendering:geometricPrecision; text-rendering:geometricPrecision; image-rendering:optimizeQuality; fill-rule:evenodd; clip-rule:evenodd" xmlns:xlink="http://www.w3.org/1999/xlink">
<g><path style="opacity:0.904" fill="#551d86" d="M 218.5,18.5 C 242.828,15.4098 260.328,24.7432 271,46.5C 274.404,55.8191 274.738,65.1524 272,74.5C 270.211,76.229 268.044,76.8957 265.5,76.5C 265.5,73.5 265.5,70.5 265.5,67.5C 269.5,66.8333 269.5,66.1667 265.5,65.5C 265.778,63.6536 265.111,62.3202 263.5,61.5C 262.17,63.0932 260.836,64.7598 259.5,66.5C 261.13,69.5778 261.963,72.9111 262,76.5C 262.374,77.4162 262.874,78.2496 263.5,79C 265.577,79.1922 267.577,79.6922 269.5,80.5C 263.213,90.9883 254.213,98.155 242.5,102C 245.895,102.23 249.061,101.397 252,99.5C 252.667,100.167 252.667,100.833 252,101.5C 241.176,107.156 229.676,108.99 217.5,107C 189.517,97.6736 178.35,78.5069 184,49.5C 190.048,32.9446 201.548,22.6112 218.5,18.5 Z M 236.5,41.5 C 237.5,41.5 238.5,41.5 239.5,41.5C 239.336,44.1873 239.503,46.854 240,49.5C 243.075,46.9406 246.075,46.9406 249,49.5C 249.499,53.4862 249.666,57.4862 249.5,61.5C 248.5,61.5 247.5,61.5 246.5,61.5C 246.789,57.8936 246.456,54.3936 245.5,51C 240.507,49.4914 238.507,51.3248 239.5,56.5C 238.5,56.5 237.5,56.5 236.5,56.5C 236.365,51.289 236.365,46.289 236.5,41.5 Z M 194.5,42.5 C 197.518,42.3354 200.518,42.502 203.5,43C 205.657,44.0847 205.824,45.2513 204,46.5C 200.948,44.1491 197.781,43.9824 194.5,46C 191.833,50 191.833,54 194.5,58C 197.002,59.4316 199.502,59.5982 202,58.5C 202.374,59.4162 202.874,60.2496 203.5,61C 192.347,63.8373 187.514,59.6707 189,48.5C 190.36,45.9774 192.193,43.9774 194.5,42.5 Z M 208.5,47.5 C 211.685,47.0196 214.519,47.6863 217,49.5C 217.238,53.2222 217.738,56.8889 218.5,60.5C 215.68,60.6913 212.846,61.0246 210,61.5C 205.287,60.5282 204.454,58.1948 207.5,54.5C 210.206,54.1128 212.539,53.1128 214.5,51.5C 212.685,49.3055 210.518,48.9722 208,50.5C 207.53,49.4232 207.697,48.4232 208.5,47.5 Z M 225.5,47.5 C 228.073,47.1485 230.406,47.6485 232.5,49C 232,49.5 231.5,50 231,50.5C 228.8,49.0099 226.966,49.3432 225.5,51.5C 227.22,52.9197 229.054,54.253 231,55.5C 231.923,59.5814 230.256,61.5814 226,61.5C 224.833,61.1667 223.667,60.8333 222.5,60.5C 224.396,59.5344 226.396,59.2011 228.5,59.5C 228.719,58.325 228.386,57.325 227.5,56.5C 221.856,54.2806 221.189,51.2806 225.5,47.5 Z M 200.5,65.5 C 202.39,65.2965 203.89,65.9632 205,67.5C 207.153,65.5561 209.653,65.0561 212.5,66C 214.523,69.1831 215.023,72.6831 214,76.5C 211.374,80.0719 208.374,80.4052 205,77.5C 204.667,80.8333 204.333,84.1667 204,87.5C 202.989,88.3366 201.822,88.67 200.5,88.5C 200.5,80.8333 200.5,73.1667 200.5,65.5 Z M 221.5,65.5 C 231.604,64.8179 234.27,68.9846 229.5,78C 220.017,80.5167 216.517,77.0167 219,67.5C 219.995,66.9341 220.828,66.2674 221.5,65.5 Z M 243.5,65.5 C 245.124,65.3601 246.29,66.0267 247,67.5C 250,64.8333 253,64.8333 256,67.5C 256.499,71.4862 256.666,75.4862 256.5,79.5C 255.178,79.67 254.011,79.3366 253,78.5C 252.667,75.1667 252.333,71.8333 252,68.5C 250.667,67.1667 249.333,67.1667 248,68.5C 247.667,71.8333 247.333,75.1667 247,78.5C 245.989,79.3366 244.822,79.67 243.5,79.5C 243.5,74.8333 243.5,70.1667 243.5,65.5 Z M 235.5,69.5 C 236.833,69.5 238.167,69.5 239.5,69.5C 239.665,72.5184 239.498,75.5184 239,78.5C 237.989,79.3366 236.822,79.67 235.5,79.5C 235.5,76.1667 235.5,72.8333 235.5,69.5 Z"/></g>
<g><path style="opacity:0.891" fill="#541d86" d="M 133.5,21.5 C 136.044,21.1043 138.211,21.771 140,23.5C 140.333,30.1667 140.667,36.8333 141,43.5C 149.002,37.87 156.668,38.2034 164,44.5C 165.562,46.9573 166.562,49.624 167,52.5C 167.807,62.2143 167.641,71.8809 166.5,81.5C 162.285,82.7977 158.118,82.7977 154,81.5C 153.667,72.5 153.333,63.5 153,54.5C 149.376,49.8864 145.376,49.5531 141,53.5C 140.807,62.8807 140.307,72.214 139.5,81.5C 135.285,82.7977 131.118,82.7977 127,81.5C 126.333,62.5 126.333,43.5 127,24.5C 129.045,23.0735 131.212,22.0735 133.5,21.5 Z"/></g>
<g><path style="opacity:0.913" fill="#541d86" d="M -0.5,62.5 C -0.5,57.1667 -0.5,51.8333 -0.5,46.5C 4.21928,31.9824 14.386,24.3157 30,23.5C 38.9711,23.5859 46.1378,27.0859 51.5,34C 49.315,36.588 46.6483,38.4213 43.5,39.5C 23.0906,30.6194 13.2573,37.2861 14,59.5C 15.4296,65.2614 18.9296,69.0947 24.5,71C 29.7074,71.7586 34.8741,71.5919 40,70.5C 42.0598,72.6838 43.2265,75.3504 43.5,78.5C 43.3918,79.4419 43.0585,80.2753 42.5,81C 27.7116,86.5382 14.8783,83.7049 4,72.5C 2.1702,69.1847 0.670196,65.8514 -0.5,62.5 Z"/></g>
<g><path style="opacity:0.876" fill="#541d86" d="M 389.5,24.5 C 395.238,23.8981 398.572,26.3981 399.5,32C 397.644,38.0854 393.644,40.0854 387.5,38C 382.137,32.5726 382.803,28.0726 389.5,24.5 Z"/></g>
<g><path style="opacity:0.915" fill="#541d86" d="M 486.5,73.5 C 486.5,74.5 486.5,75.5 486.5,76.5C 478.792,83.0053 470.459,84.0053 461.5,79.5C 459.703,77.8689 458.536,75.8689 458,73.5C 457.5,65.5069 457.334,57.5069 457.5,49.5C 453.179,50.1756 451.179,48.3423 451.5,44C 450.761,39.2404 452.761,37.4071 457.5,38.5C 457.336,35.8127 457.503,33.146 458,30.5C 467.792,24.4837 471.959,27.1504 470.5,38.5C 480.512,36.4988 483.179,39.9988 478.5,49C 475.854,49.4974 473.187,49.6641 470.5,49.5C 470.08,56.2837 470.58,62.9504 472,69.5C 475.1,70.7528 478.1,70.4195 481,68.5C 483.343,69.6793 485.176,71.3459 486.5,73.5 Z"/></g>
<g><path style="opacity:0.901" fill="#541d86" d="M 297.5,37.5 C 300.168,38.4567 301.668,40.4567 302,43.5C 310.96,35.2845 319.626,35.6179 328,44.5C 334.874,56.8922 333.707,68.3922 324.5,79C 316.869,84.0484 309.702,83.5484 303,77.5C 302.667,86.1667 302.333,94.8333 302,103.5C 299.01,104.974 295.843,105.974 292.5,106.5C 291.252,105.96 290.085,105.293 289,104.5C 288.81,84.1424 288.31,63.8091 287.5,43.5C 287.529,41.9707 288.196,40.804 289.5,40C 292.379,39.454 295.046,38.6206 297.5,37.5 Z M 306.5,49.5 C 312.302,48.0056 316.136,50.0056 318,55.5C 318.767,59.5935 318.434,63.5935 317,67.5C 312.489,72.7566 308.156,72.7566 304,67.5C 303.333,62.5 303.333,57.5 304,52.5C 305.045,51.6266 305.878,50.6266 306.5,49.5 Z"/></g>
<g><path style="opacity:0.909" fill="#541d86" d="M 353.5,37.5 C 373.897,37.2635 382.397,47.2635 379,67.5C 373.121,80.5212 363.288,85.0212 349.5,81C 338.496,75.148 334.33,65.9813 337,53.5C 339.786,45.2114 345.286,39.8781 353.5,37.5 Z M 354.5,48.5 C 360.054,47.1021 363.554,49.1021 365,54.5C 365.81,59.2574 365.476,63.9241 364,68.5C 357.744,74.2254 353.411,72.8921 351,64.5C 349.745,58.574 350.912,53.2407 354.5,48.5 Z"/></g>
<g><path style="opacity:0.913" fill="#541d86" d="M 414.5,37.5 C 417.635,37.5482 419.302,39.2148 419.5,42.5C 427.983,35.5824 436.149,35.9157 444,43.5C 444.862,45.087 445.529,46.7536 446,48.5C 446.82,59.41 446.653,70.2433 445.5,81C 441.577,81.7927 437.744,81.626 434,80.5C 433.892,70.7741 433.225,61.1074 432,51.5C 429.503,49.5218 426.669,49.0218 423.5,50C 422.107,51.1711 421.273,52.6711 421,54.5C 420.667,63.1667 420.333,71.8333 420,80.5C 416,81.8333 412,81.8333 408,80.5C 406.834,68.2362 406,55.9028 405.5,43.5C 405.529,41.9707 406.196,40.804 407.5,40C 410.004,39.3024 412.337,38.4691 414.5,37.5 Z"/></g>
<g><path style="opacity:0.902" fill="#541d86" d="M 58.5,39.5 C 63.1785,39.3342 67.8452,39.5008 72.5,40C 79,41.1667 82.8333,45 84,51.5C 84.237,60.3566 84.737,69.1899 85.5,78C 85.4148,79.1074 85.0814,80.1074 84.5,81C 80.7349,82.8267 76.9015,83.3267 73,82.5C 72.4325,79.2002 70.9325,79.0335 68.5,82C 56.8146,86.176 49.4813,82.3427 46.5,70.5C 46.9729,63.863 50.3062,59.363 56.5,57C 60.4159,55.8976 64.4159,55.231 68.5,55C 71.1496,52.9179 70.8163,51.2512 67.5,50C 63.0346,49.2664 58.7013,49.7664 54.5,51.5C 53.5581,51.3918 52.7247,51.0585 52,50.5C 50.8495,48.2462 50.5162,45.9129 51,43.5C 53.4172,41.8724 55.9172,40.539 58.5,39.5 Z M 65.5,63.5 C 67.5,63.5 69.5,63.5 71.5,63.5C 72.6286,70.7988 69.6286,73.9654 62.5,73C 59.6091,68.6135 60.6091,65.4468 65.5,63.5 Z"/></g>
<g><path style="opacity:0.888" fill="#541d86" d="M 101.5,39.5 C 108.361,38.9651 115.028,39.7984 121.5,42C 122.492,45.0698 122.159,48.0698 120.5,51C 116.663,50.9218 112.83,50.4218 109,49.5C 106.652,49.2582 104.818,50.0916 103.5,52C 106.883,55.2534 110.883,57.5868 115.5,59C 121.886,64.1439 123.052,70.3106 119,77.5C 112.515,83.1142 105.015,84.9476 96.5,83C 88.7257,81.5803 87.3923,77.9137 92.5,72C 95.7845,72.3601 99.1178,72.8601 102.5,73.5C 107.16,73.97 108.494,72.1367 106.5,68C 101.468,66.4018 96.9676,63.9018 93,60.5C 88.6819,50.623 91.5153,43.623 101.5,39.5 Z"/></g>
<g><path style="opacity:0.894" fill="#541d86" d="M 388.5,42.5 C 391.777,42.2161 394.943,42.5495 398,43.5C 398.667,55.5 398.667,67.5 398,79.5C 396.302,80.733 394.302,81.3996 392,81.5C 389.329,81.7258 386.996,81.0591 385,79.5C 384.333,68.1667 384.333,56.8333 385,45.5C 386.145,44.3636 387.312,43.3636 388.5,42.5 Z"/></g>
<g><path style="opacity:0.632" fill="#541d86" d="M 211.5,54.5 C 212.5,54.5 213.5,54.5 214.5,54.5C 215.167,58.5 213.5,60.1667 209.5,59.5C 209.365,57.4458 210.032,55.7791 211.5,54.5 Z"/></g>
<g><path style="opacity:1" fill="#f7780b" d="M 236.5,59.5 C 241.571,61.5342 241.738,63.8675 237,66.5C 232.678,64.3765 232.512,62.0432 236.5,59.5 Z"/></g>
<g><path style="opacity:0.745" fill="#541d86" d="M 206.5,67.5 C 211.337,68.2375 212.671,70.9042 210.5,75.5C 208.758,77.9734 206.925,77.9734 205,75.5C 204.109,72.5024 204.609,69.8357 206.5,67.5 Z"/></g>
<g><path style="opacity:0.723" fill="#541d86" d="M 222.5,67.5 C 227.989,67.504 229.822,70.1707 228,75.5C 225.888,77.9223 223.888,77.9223 222,75.5C 221.398,72.7795 221.565,70.1128 222.5,67.5 Z"/></g>
</svg>
