<?xml version="1.0" encoding="UTF-8"?>
<svg version="1.1" xmlns="http://www.w3.org/2000/svg" width="770" height="564">
<path d="M0 0 C254.1 0 508.2 0 770 0 C770 69.63 770 139.26 770 211 C515.9 211 261.8 211 0 211 C0 141.37 0 71.74 0 0 Z " fill="#FDFDFD" transform="translate(0,159)"/>
<path d="M0 0 C20.13 0 40.26 0 61 0 C63.64 4.62 66.28 9.24 69 14 C72.46672228 19.6253471 72.46672228 19.6253471 76.01171875 25.20117188 C79.13970379 30.30447469 79.13970379 30.30447469 78.453125 33.72265625 C77.97359375 34.47417969 77.4940625 35.22570312 77 36 C76.54882812 36.72960937 76.09765625 37.45921875 75.6328125 38.2109375 C75.13523437 38.92507812 74.63765625 39.63921875 74.125 40.375 C68.35885632 47.99732782 68.35885632 47.99732782 67 57 C68.34693 59.88431957 70.00521246 62.55092244 71.6875 65.25 C72.60608398 66.76655461 73.52405862 68.28347847 74.44140625 69.80078125 C74.88371582 70.52475098 75.32602539 71.2487207 75.78173828 71.99462891 C77.27408706 74.45117257 78.71527415 76.93268277 80.125 79.4375 C80.68574219 80.42556641 80.68574219 80.42556641 81.2578125 81.43359375 C82 83 82 83 82 85 C77.44746089 85.32359485 72.90169597 85.55809751 68.34033203 85.71411133 C66.79324796 85.77915148 65.24695322 85.86763807 63.70263672 85.98071289 C58.54111987 86.34891664 54.01298721 86.40783736 49 85 C45.11931536 81.08702839 43.22030571 77.05000669 41 72 C39.89942833 70.08988193 38.77820891 68.19130767 37.625 66.3125 C34.76911151 61.38899993 32.00418124 56.41822722 29.25 51.4375 C21.39963835 37.24910819 13.23542531 23.25449061 4.79541016 9.40869141 C4.31378418 8.61382324 3.8321582 7.81895508 3.3359375 7 C2.90845215 6.29875 2.4809668 5.5975 2.04052734 4.875 C1 3 1 3 0 0 Z " fill="#0F5CC5" transform="translate(32,217)"/>
<path d="M0 0 C5.94440689 3.66848887 11.20476148 8.09455243 13.25 14.9375 C14.2773427 26.83556194 13.67977687 35.8367517 5.8125 45.25 C-0.97846194 52.51575377 -8.43588001 57.49824419 -18.546875 58.10546875 C-29.9549095 58.18091871 -37.2564143 57.02175627 -45.75 48.9375 C-50.98952764 42.99602608 -51.24932693 36.21583995 -51.12890625 28.61328125 C-50.20003993 19.60232036 -46.16375314 12.20872529 -39.75 5.9375 C-39.09 5.9375 -38.43 5.9375 -37.75 5.9375 C-37.75 5.2775 -37.75 4.6175 -37.75 3.9375 C-36.1470947 3.12251438 -34.54262722 2.31060073 -32.9375 1.5 C-32.04417969 1.04753906 -31.15085937 0.59507812 -30.23046875 0.12890625 C-21.83623316 -3.90297069 -8.42710484 -3.98491004 0 0 Z " fill="#0B1444" transform="translate(535.75,217.0625)"/>
<path d="M0 0 C4.31236921 -0.08789715 8.6245045 -0.1406923 12.9375 -0.1875 C14.14986328 -0.21263672 15.36222656 -0.23777344 16.61132812 -0.26367188 C26.19190939 -0.34156278 34.43301148 0.66484682 42 7 C45.72720574 11.49176076 46.30864534 14.54596096 46.125 20.375 C45.30954608 27.53287332 42.78377164 32.65281739 37.375 37.4375 C34.76860768 39.31410247 33.2457219 40 30 40 C30.40992188 40.81984375 30.81984375 41.6396875 31.2421875 42.484375 C32.828125 45.65625 34.4140625 48.828125 36 52 C36.39445312 52.72703125 36.78890625 53.4540625 37.1953125 54.203125 C38 56 38 56 38 59 C33.90362397 59.47039725 30.07922106 59.68786865 26 59 C22.90887743 56.31829764 21.6100068 52.7438238 20.28125 48.9453125 C19.46232359 46.71710724 19.46232359 46.71710724 17 44 C12.65942832 43.09301487 8.42498479 42.95523859 4 43 C3.93941406 43.65226562 3.87882813 44.30453125 3.81640625 44.9765625 C3.73261719 45.85054688 3.64882812 46.72453125 3.5625 47.625 C3.48128906 48.48351562 3.40007812 49.34203125 3.31640625 50.2265625 C2.98120803 53.16471971 2.48616329 56.08302024 2 59 C-2.62 59 -7.24 59 -12 59 C-11.0625 47.88392857 -11.0625 47.88392857 -10 43 C-9.34 43 -8.68 43 -8 43 C-7.67 37.72 -7.34 32.44 -7 27 C-6.34 27 -5.68 27 -5 27 C-4.90912109 26.07380859 -4.90912109 26.07380859 -4.81640625 25.12890625 C-4.64040031 23.34989234 -4.46044073 21.57126684 -4.27734375 19.79296875 C-4.10605978 18.06806675 -3.94935085 16.34156099 -3.81640625 14.61328125 C-3.75324219 13.87464844 -3.69007813 13.13601562 -3.625 12.375 C-3.57601562 11.72273437 -3.52703125 11.07046875 -3.4765625 10.3984375 C-2.75676854 6.7758679 -1.36101509 3.42506414 0 0 Z " fill="#0E1747" transform="translate(165,215)"/>
<path d="M0 0 C3.63 0 7.26 0 11 0 C12.12672175 2.39503687 13.25142558 4.7909871 14.375 7.1875 C14.69210937 7.86103516 15.00921875 8.53457031 15.3359375 9.22851562 C20.29598392 19.82028142 20.29598392 19.82028142 20 25 C20.66 25 21.32 25 22 25 C22.50559908 26.43554025 23.0042749 27.8735202 23.5 29.3125 C23.7784375 30.11300781 24.056875 30.91351563 24.34375 31.73828125 C25 34 25 34 25 37 C27.30099489 34.85769441 29.01742088 32.97051851 30.625 30.25 C31.07875 29.5075 31.5325 28.765 32 28 C32.66 28 33.32 28 34 28 C34.66 26.35 35.32 24.7 36 23 C36.66 23 37.32 23 38 23 C38.2475 22.21625 38.495 21.4325 38.75 20.625 C40.20780864 17.56360186 41.07993473 17.41293481 44 16 C44.11472656 15.44957031 44.22945313 14.89914063 44.34765625 14.33203125 C45.93288361 8.66508076 50.6418089 3.77554523 55 0 C58.88086387 -0.97509142 62.10008278 -0.80074346 66 0 C66.04241723 2.33294775 66.04092937 4.66702567 66 7 C65.67 7.33 65.34 7.66 65 8 C64.51280866 10.30010709 64.07606079 12.59180097 63.66796875 14.90625 C63.40118959 16.37387306 63.13340919 17.84131439 62.86474609 19.30859375 C62.65371246 20.46367432 62.65371246 20.46367432 62.43841553 21.64208984 C61.71960182 25.50805268 60.94918254 29.3633947 60.17578125 33.21875 C60.02293671 33.981875 59.87009216 34.745 59.71261597 35.53125 C59.24670887 37.85432773 58.7796358 40.17716907 58.3125 42.5 C57.98884056 44.11326285 57.66527244 45.72654402 57.34179688 47.33984375 C56.56224475 51.22677339 55.78147734 55.11345699 55 59 C51.04 59 47.08 59 43 59 C43.59584308 52.08573764 44.5824011 45.41509329 46 38.625 C46.17789063 37.74972656 46.35578125 36.87445313 46.5390625 35.97265625 C47.29150577 32.29466862 48.06876203 28.6373908 49 25 C45.1923235 28.6501647 41.92972976 32.48435423 38.75 36.6875 C38.30398438 37.26822266 37.85796875 37.84894531 37.3984375 38.44726562 C34.98745765 41.58741914 34.98745765 41.58741914 33 45 C32.34 45 31.68 45 31 45 C30.71125 45.763125 30.4225 46.52625 30.125 47.3125 C29 50 29 50 27 53 C23.375 53.1875 23.375 53.1875 20 53 C19.32942113 51.2097939 18.6636531 49.41778511 18 47.625 C17.62875 46.62726563 17.2575 45.62953125 16.875 44.6015625 C16 42 16 42 16 40 C15.34 40 14.68 40 14 40 C13.73445313 39.15695313 13.46890625 38.31390625 13.1953125 37.4453125 C12.84210938 36.34960938 12.48890625 35.25390625 12.125 34.125 C11.77695312 33.03445312 11.42890625 31.94390625 11.0703125 30.8203125 C10.18824769 27.91477277 10.18824769 27.91477277 8 26 C7.823479 26.89307861 7.64695801 27.78615723 7.46508789 28.70629883 C6.80875988 32.02203945 6.15069657 35.33742582 5.49145508 38.65258789 C5.20657914 40.08702011 4.92239402 41.52158969 4.63891602 42.95629883 C4.23115003 45.01940907 3.82089592 47.08201125 3.41015625 49.14453125 C3.04096069 51.00621948 3.04096069 51.00621948 2.66430664 52.90551758 C2 56 2 56 1 59 C-2.96 59 -6.92 59 -11 59 C-9.2465492 46.63913531 -6.7976292 34.43137018 -4.375 22.1875 C-3.95027588 20.03064718 -3.52579473 17.8737465 -3.1015625 15.71679688 C-2.07050896 10.47730855 -1.03616867 5.23847904 0 0 Z " fill="#0D1646" transform="translate(414,215)"/>
<path d="M0 0 C0.99773438 0.02320313 1.99546875 0.04640625 3.0234375 0.0703125 C4.52777344 0.09738281 4.52777344 0.09738281 6.0625 0.125 C6.83335937 0.14820313 7.60421875 0.17140625 8.3984375 0.1953125 C9.00429688 1.3090625 9.61015625 2.4228125 10.234375 3.5703125 C15.01795653 12.30203314 19.93532819 20.8832115 25.34912109 29.2421875 C28.3984375 33.99347648 28.3984375 33.99347648 28.3984375 36.1953125 C29.3884375 36.1953125 30.3784375 36.1953125 31.3984375 36.1953125 C31.5015625 34.9371875 31.6046875 33.6790625 31.7109375 32.3828125 C32.24446291 27.06280194 33.01799607 21.79003239 33.8359375 16.5078125 C33.95815674 15.70045654 34.08037598 14.89310059 34.20629883 14.0612793 C34.95750465 9.3075473 35.97636857 4.79395098 37.3984375 0.1953125 C41.6884375 0.1953125 45.9784375 0.1953125 50.3984375 0.1953125 C50.3984375 2.5053125 50.3984375 4.8153125 50.3984375 7.1953125 C49.7384375 7.1953125 49.0784375 7.1953125 48.3984375 7.1953125 C48.3476857 7.79926849 48.2969339 8.40322449 48.24464417 9.02548218 C47.68065776 15.22094048 46.74600463 21.25699188 45.55078125 27.359375 C45.37462784 28.27745941 45.19847443 29.19554382 45.01698303 30.14144897 C44.46077806 33.03522041 43.89847106 35.9277654 43.3359375 38.8203125 C42.95467164 40.79809877 42.57380859 42.77596273 42.19335938 44.75390625 C41.26636754 49.56861803 40.33390638 54.38224089 39.3984375 59.1953125 C35.60173025 59.74252476 32.17912617 59.92943635 28.3984375 59.1953125 C25.51651284 56.70981407 24.10597101 53.55503469 22.3984375 50.1953125 C21.15474834 48.09677576 19.90022451 46.00463412 18.63671875 43.91796875 C16.65047751 40.55587272 14.67127672 37.18993823 12.70117188 33.81835938 C12.06115234 32.73748047 11.42113281 31.65660156 10.76171875 30.54296875 C10.18719971 29.56336182 9.61268066 28.58375488 9.02075195 27.57446289 C7.45922312 24.96504958 7.45922312 24.96504958 4.3984375 23.1953125 C4.37716797 24.32839844 4.37716797 24.32839844 4.35546875 25.484375 C3.85392291 37.06059518 1.14724761 47.97692143 -1.6015625 59.1953125 C-5.5615625 59.1953125 -9.5215625 59.1953125 -13.6015625 59.1953125 C-13.91032605 50.99764023 -12.75489245 43.58672853 -11.1015625 35.5703125 C-10.86308594 34.37535156 -10.62460937 33.18039063 -10.37890625 31.94921875 C-9.7949477 29.029426 -9.20234841 26.1116807 -8.6015625 23.1953125 C-7.9415625 23.1953125 -7.2815625 23.1953125 -6.6015625 23.1953125 C-6.62476563 22.60105469 -6.64796875 22.00679687 -6.671875 21.39453125 C-6.81394999 14.86922995 -6.37655145 8.50638432 -4.6015625 2.1953125 C-2.6015625 0.1953125 -2.6015625 0.1953125 0 0 Z " fill="#0B1344" transform="translate(568.6015625,214.8046875)"/>
<path d="M0 0 C4.62 0 9.24 0 14 0 C11.99107143 12.1875 11.99107143 12.1875 11 17 C10.34 17 9.68 17 9 17 C9 19.31 9 21.62 9 24 C17.91 24 26.82 24 36 24 C37.27574523 16.47644653 37.27574523 16.47644653 38.54272461 8.95141602 C38.70264893 8.01998779 38.86257324 7.08855957 39.02734375 6.12890625 C39.18968506 5.17056885 39.35202637 4.21223145 39.51928711 3.22485352 C40 1 40 1 41 0 C43.01964199 -0.07244053 45.04167124 -0.08377188 47.0625 -0.0625 C48.71958984 -0.04896484 48.71958984 -0.04896484 50.41015625 -0.03515625 C51.26480469 -0.02355469 52.11945313 -0.01195312 53 0 C52.4458488 7.5532369 51.41606349 14.88934248 49.96875 22.3203125 C49.67478333 23.85822952 49.67478333 23.85822952 49.37487793 25.42721558 C48.96392108 27.57046231 48.55035972 29.71321117 48.13427734 31.85546875 C47.49520388 35.14972271 46.86618991 38.44578918 46.23828125 41.7421875 C45.83652682 43.83084261 45.434204 45.91938849 45.03125 48.0078125 C44.84268433 48.99621124 44.65411865 49.98460999 44.45983887 51.00296021 C44.28295532 51.90835541 44.10607178 52.81375061 43.92382812 53.74658203 C43.76918091 54.54613312 43.61453369 55.3456842 43.4552002 56.16946411 C43 58 43 58 42 59 C39.98035801 59.07244053 37.95832876 59.08377188 35.9375 59.0625 C34.28041016 59.04896484 34.28041016 59.04896484 32.58984375 59.03515625 C31.73519531 59.02355469 30.88054687 59.01195312 30 59 C30.48584093 50.64018541 32.08534623 43.29683299 34 35 C24.76 35 15.52 35 6 35 C5.01 42.92 4.02 50.84 3 59 C-1.62 59 -6.24 59 -11 59 C-11 53.18513151 -10.7915541 51.04411725 -9 46 C-8.6407368 43.77789059 -8.33008868 41.54750259 -8.0625 39.3125 C-7.4940858 35.07362818 -6.83691618 31.03836232 -5.625 26.9375 C-3.0332592 18.13887226 -1.64844823 9.01207484 0 0 Z " fill="#0C1445" transform="translate(346,215)"/>
<path d="M0 0 C4.29 0 8.58 0 13 0 C13 3.969839 12.69874616 6.28388266 11.57910156 9.93408203 C10.38274444 14.20203058 9.66932984 18.58045372 8.875 22.9375 C8.69324219 23.88818359 8.51148438 24.83886719 8.32421875 25.81835938 C6.52704145 35.11852893 6.52704145 35.11852893 7.75 44.375 C9.72461142 46.94199484 12.00417225 47.86282874 15.18359375 48.30078125 C19.93987874 48.32551063 23.23707634 48.22536313 27 45 C31.06938709 39.91728727 32.26042748 34.93483473 33.5625 28.625 C33.87719238 27.17637573 33.87719238 27.17637573 34.19824219 25.69848633 C35.75752489 18.43484774 37.14902086 11.14313007 38.421875 3.82421875 C39 1 39 1 40 0 C42.18639453 -0.07258946 44.37500389 -0.08373783 46.5625 -0.0625 C48.35880859 -0.04896484 48.35880859 -0.04896484 50.19140625 -0.03515625 C51.11824219 -0.02355469 52.04507813 -0.01195312 53 0 C51.87677128 7.67046979 50.29699847 15.15526552 48.47070312 22.68115234 C47.01699359 28.74421826 45.90354061 34.82976875 45 41 C44.34 41 43.68 41 43 41 C42.773125 41.845625 42.54625 42.69125 42.3125 43.5625 C39.40219561 51.18472577 35.81050871 54.60743663 28.40234375 58.0546875 C20.74445252 61.06803657 12.29196977 61.18642579 4.5625 58.3125 C-0.44562131 56.02146537 -3.76368039 53.41376686 -6.3125 48.4375 C-8.30249678 38.4875161 -6.50541204 28.74832453 -4.49145508 18.95996094 C-4.0563776 16.84524173 -3.63724247 14.72781676 -3.22070312 12.609375 C-1.17807692 2.35615384 -1.17807692 2.35615384 0 0 Z " fill="#0B1444" transform="translate(226,215)"/>
<path d="M0 0 C14.19 0 28.38 0 43 0 C43 2.31 43 4.62 43 7 C42.34 7 41.68 7 41 7 C41 7.99 41 8.98 41 10 C30.77 10 20.54 10 10 10 C9.34 14.29 8.68 18.58 8 23 C16.91 23 25.82 23 35 23 C34.34 26.3 33.68 29.6 33 33 C19.635 33.495 19.635 33.495 6 34 C5.01 38.62 4.02 43.24 3 48 C13.23 48 23.46 48 34 48 C34 55 34 55 33 58 C18.15 58 3.3 58 -12 58 C-10.79052196 50.13839277 -9.5628288 42.34253393 -8.0546875 34.54296875 C-7.87994904 33.62912918 -7.70521057 32.71528961 -7.525177 31.77375793 C-6.97731299 28.91124595 -6.42622449 26.04936655 -5.875 23.1875 C-5.49848225 21.22334862 -5.12217854 19.2591562 -4.74609375 17.29492188 C-3.83319425 12.5294715 -2.91740648 7.76458468 -2 3 C-1.34 3 -0.68 3 0 3 C0 2.01 0 1.02 0 0 Z " fill="#081142" transform="translate(634,216)"/>
<path d="M0 0 C19.47 0 38.94 0 59 0 C56.75278015 6.74165954 56.75278015 6.74165954 55.01171875 9.515625 C54.63716553 10.12269287 54.2626123 10.72976074 53.87670898 11.35522461 C53.28805054 12.29313843 53.28805054 12.29313843 52.6875 13.25 C49.13479252 19.02645243 45.87870985 24.85200157 43 31 C42.34 31 41.68 31 41 31 C40.75507812 31.66386719 40.51015625 32.32773438 40.2578125 33.01171875 C38.68690669 36.7438397 36.80210864 40.25449907 34.875 43.8125 C34.50246094 44.50537109 34.12992188 45.19824219 33.74609375 45.91210938 C32.83309623 47.60934836 31.91687284 49.30485138 31 51 C30.67 50.34 30.34 49.68 30 49 C28.515 48.505 28.515 48.505 27 48 C25.50908624 45.64687105 24.1764462 43.32997498 22.875 40.875 C22.07215476 39.40394099 21.26742126 37.93391116 20.4609375 36.46484375 C20.05198242 35.71702637 19.64302734 34.96920898 19.22167969 34.19873047 C17.3886113 30.89964696 15.45409363 27.66594643 13.5 24.4375 C13.13575928 23.83317139 12.77151855 23.22884277 12.39624023 22.60620117 C10.41869836 19.33028639 8.42777717 16.06267896 6.43359375 12.796875 C6.0159375 12.10924072 5.59828125 11.42160645 5.16796875 10.71313477 C4.36323328 9.38835497 3.55478453 8.06582187 2.7421875 6.74584961 C0 2.22529454 0 2.22529454 0 0 Z " fill="#04448E" transform="translate(33,218)"/>
<path d="M0 0 C0.82862549 0.00322266 1.65725098 0.00644531 2.51098633 0.00976562 C8.6787082 0.15078381 13.15407331 1.20977068 18.5 4.4375 C18.0205537 8.65662747 17.33374881 11.23413178 14.5 14.4375 C12.19566485 13.90573035 10.12996281 13.28406995 7.9375 12.375 C1.26040051 10.55397287 -5.16121292 10.61088613 -11.5 13.4375 C-12.49 13.7675 -13.48 14.0975 -14.5 14.4375 C-14.03045985 17.87857712 -14.03045985 17.87857712 -12.5 21.4375 C-9.25598724 23.34159444 -6.25416684 24.22128482 -2.65234375 25.25390625 C4.05286332 27.27987906 10.53583994 29.2823227 14.5 35.4375 C15.56517638 40.3542413 15.20284518 44.6413401 13.375 49.3125 C7.62016035 55.8346516 1.10933177 59.88000813 -7.68359375 60.75390625 C-17.26692817 60.92322311 -25.84762297 59.57559336 -34.5 55.4375 C-34.06179109 50.88012737 -33.64958831 47.86096555 -30.5 44.4375 C-29.0410574 44.91480838 -27.58286504 45.39441042 -26.125 45.875 C-25.31289063 46.14183594 -24.50078125 46.40867187 -23.6640625 46.68359375 C-21.5 47.4375 -21.5 47.4375 -19.5 48.4375 C-16.84164263 48.56188451 -14.22094771 48.62266188 -11.5625 48.625 C-10.83353516 48.63724609 -10.10457031 48.64949219 -9.35351562 48.66210938 C-5.5286609 48.67262685 -3.75643436 48.60845624 -0.5 46.4375 C0.16680368 43.48029372 0.16680368 43.48029372 -0.5 40.4375 C-4.9840179 37.10035591 -10.36499368 35.59786187 -15.6171875 33.86328125 C-20.85351506 32.01574681 -24.90842544 29.62064913 -27.5 24.4375 C-28.21596013 19.6047691 -28.56839248 15.23027377 -26.0078125 10.93359375 C-24.26460384 8.91190569 -22.59534215 7.09196699 -20.5 5.4375 C-19.84 5.4375 -19.18 5.4375 -18.5 5.4375 C-18.5 4.7775 -18.5 4.1175 -18.5 3.4375 C-12.23322361 0.98076643 -6.72226328 -0.08180424 0 0 Z " fill="#0F1747" transform="translate(313.5,214.5625)"/>
<path d="M0 0 C3.96 0 7.92 0 12 0 C16.10321554 6.74099695 20.40327746 13.90564533 20 22 C20.66 22 21.32 22 22 22 C22.66 22.99 23.32 23.98 24 25 C29.69297755 18.33931921 35.36156948 11.6897654 40.66015625 4.70703125 C42 3 42 3 44 1 C47.0390625 0.8046875 47.0390625 0.8046875 50.625 0.875 C52.40777344 0.90207031 52.40777344 0.90207031 54.2265625 0.9296875 C55.14179687 0.95289063 56.05703125 0.97609375 57 1 C53.87533526 5.88846576 50.37767697 10.34012258 46.6875 14.8125 C45.52533598 16.23119304 44.36387206 17.6504599 43.203125 19.0703125 C42.64947266 19.74739258 42.09582031 20.42447266 41.52539062 21.12207031 C39.12328724 24.07933331 36.78498895 27.08374119 34.46484375 30.10546875 C33 32 33 32 30.98828125 34.03125 C28.02699611 38.45281523 27.30070593 43.14818123 26.25 48.3125 C26.02957031 49.33923828 25.80914063 50.36597656 25.58203125 51.42382812 C25.04227642 53.94659525 24.51945584 56.47297509 24 59 C19.71 59 15.42 59 11 59 C11.14241648 56.64558284 11.28884808 54.29152516 11.4375 51.9375 C11.51871094 50.62652344 11.59992187 49.31554687 11.68359375 47.96484375 C12 44 12 44 12.60546875 40.3046875 C13.49809042 32.82787627 9.71354426 26.19318822 6.33984375 19.72265625 C0 6.83965015 0 6.83965015 0 0 Z " fill="#0E1646" transform="translate(682,215)"/>
<path d="M0 0 C1.83498047 -0.03867188 1.83498047 -0.03867188 3.70703125 -0.078125 C8.75663581 0.397932 11.24279142 2.43125256 15 5.6875 C17.95617475 9.49098599 17.94381733 13.40057963 17.734375 18.078125 C16.54186244 24.99469785 13.20765818 31.11979437 7.5625 35.375 C2.15751463 38.37776965 -2.70108952 38.81778307 -8.8125 38.25 C-14.00021506 36.63415433 -16.88946876 34.85939542 -19.8125 30.25 C-21.92531093 23.3585496 -21.3763066 16.85654592 -18.2265625 10.3984375 C-13.58696431 3.34932423 -8.26228791 0.10381932 0 0 Z " fill="#FAFAFB" transform="translate(518.8125,225.75)"/>
<path d="M0 0 C3.67757684 1.87076735 6.35381112 4.46135222 8.19921875 8.16015625 C10.00351029 14.14955006 9.87933387 20.23609225 7.171875 25.8515625 C0.47955521 33.08650281 0.47955521 33.08650281 -4.49609375 33.58984375 C-11.00594056 33.76044663 -14.97989984 33.45907844 -20.140625 29.3515625 C-24.33678034 24.18706362 -24.7658432 19.74767546 -24.52734375 13.16015625 C-23.81273258 7.97020236 -21.32145715 5.3918194 -17.515625 2.0390625 C-12.3472889 -1.63317631 -6.06612343 -1.83754834 0 0 Z " fill="#8991A0" transform="translate(541.140625,294.6484375)"/>
<path d="M0 0 C3.67757684 1.87076735 6.35381112 4.46135222 8.19921875 8.16015625 C10.00351029 14.14955006 9.87933387 20.23609225 7.171875 25.8515625 C0.47955521 33.08650281 0.47955521 33.08650281 -4.49609375 33.58984375 C-11.00594056 33.76044663 -14.97989984 33.45907844 -20.140625 29.3515625 C-24.33678034 24.18706362 -24.7658432 19.74767546 -24.52734375 13.16015625 C-23.81273258 7.97020236 -21.32145715 5.3918194 -17.515625 2.0390625 C-12.3472889 -1.63317631 -6.06612343 -1.83754834 0 0 Z " fill="#8991A0" transform="translate(343.140625,294.6484375)"/>
<path d="M0 0 C3.63032363 3.27614572 7.24270394 6.59880197 7.8359375 11.6328125 C8.08766312 18.58431218 7.21709583 23.03729139 2.5625 28.3125 C-1.19706547 31.98036875 -4.27718068 32.62710106 -9.375 32.875 C-14.22110658 32.7066489 -17.25815738 31.92189675 -21.03515625 28.89453125 C-25.69090404 23.64222525 -25.966274 19.30322866 -25.78125 12.48046875 C-25.28460503 7.90343387 -24.38844121 5.86876248 -21.4375 2.3125 C-15.04839677 -2.77270461 -7.40694259 -3.63613546 0 0 Z " fill="#8992A0" transform="translate(460.4375,295.6875)"/>
<path d="M0 0 C3.96 0 7.92 0 12 0 C14.31 7.26 16.62 14.52 19 22 C21.64 14.74 24.28 7.48 27 0 C30.96 0 34.92 0 39 0 C39 11.22 39 22.44 39 34 C36.36 34 33.72 34 31 34 C30.67 26.74 30.34 19.48 30 12 C27.69 19.26 25.38 26.52 23 34 C20.69 34 18.38 34 16 34 C12.61982914 27.55685906 10.39532129 20.86227181 8 14 C7.67 20.6 7.34 27.2 7 34 C4.69 34 2.38 34 0 34 C0 22.78 0 11.56 0 0 Z " fill="#88919F" transform="translate(473,294)"/>
<path d="M0 0 C2.990625 -0.0825 5.98125 -0.165 9.0625 -0.25 C9.99070557 -0.28641602 10.91891113 -0.32283203 11.87524414 -0.36035156 C17.77734157 -0.4385501 21.18243562 0.54517295 26 4 C27.85551998 7.71103996 27.59265367 11.95975883 27 16 C24.5625 18.9375 24.5625 18.9375 22 21 C21.67 21.99 21.34 22.98 21 24 C21.66 24 22.32 24 23 24 C27 29.41176471 27 29.41176471 27 32 C24.66796875 32.24609375 24.66796875 32.24609375 22 32 C20.55078125 30.28515625 20.55078125 30.28515625 19.3125 28.0625 C17.45868479 25.30367264 16.62810353 24.1817451 13.39453125 23.24609375 C10.90670311 23.02503145 8.49542726 22.92109321 6 23 C6 25.97 6 28.94 6 32 C4.02 32 2.04 32 0 32 C0 21.44 0 10.88 0 0 Z " fill="#19214F" transform="translate(576,294)"/>
<path d="M0 0 C9.9 0 19.8 0 30 0 C30 11.22 30 22.44 30 34 C27.36 34 24.72 34 22 34 C22 25.09 22 16.18 22 7 C17.71 7 13.42 7 9 7 C9 15.91 9 24.82 9 34 C6.03 34 3.06 34 0 34 C0 22.78 0 11.56 0 0 Z " fill="#8B93A1" transform="translate(370,294)"/>
<path d="M0 0 C9.9 0 19.8 0 30 0 C30 11.22 30 22.44 30 34 C27.03 34 24.06 34 21 34 C21 25.09 21 16.18 21 7 C16.71 7 12.42 7 8 7 C8 15.91 8 24.82 8 34 C5.36 34 2.72 34 0 34 C0 22.78 0 11.56 0 0 Z " fill="#8B93A1" transform="translate(284,294)"/>
<path d="M0 0 C2.84625 -0.0825 5.6925 -0.165 8.625 -0.25 C9.51010254 -0.28641602 10.39520508 -0.32283203 11.30712891 -0.36035156 C16.68827905 -0.43544301 19.75397618 0.38351283 24 4 C25.73873643 7.47747287 25.59073264 11.2061837 25 15 C22.52159753 18.23569211 19.92383532 20.76679461 16 22 C13.30914296 22.15035617 10.69985393 22.08999513 8 22 C8 25.96 8 29.92 8 34 C5.36 34 2.72 34 0 34 C0 22.78 0 11.56 0 0 Z " fill="#88909F" transform="translate(407,294)"/>
<path d="M0 0 C3.91942062 2.1301199 5.93553244 4.74755616 7.48828125 8.95703125 C9.34675737 16.37674889 8.14528293 22.32120435 4.40234375 28.92578125 C2.4601323 31.79852298 1.36374507 32.9762515 -2 34 C-5.68693622 34.26410718 -9.31555689 34.32146148 -13 34 C-14 33 -14 33 -14.0625 29.9375 C-14.041875 28.968125 -14.02125 27.99875 -14 27 C-13.38511719 27.02320313 -12.77023438 27.04640625 -12.13671875 27.0703125 C-10.92435547 27.09738281 -10.92435547 27.09738281 -9.6875 27.125 C-8.88699219 27.14820313 -8.08648437 27.17140625 -7.26171875 27.1953125 C-4.71611424 27.15817322 -4.71611424 27.15817322 -2 25 C-2 23.68 -2 22.36 -2 21 C-2.66 21.33 -3.32 21.66 -4 22 C-7.87214182 22.43023798 -9.52496371 22.31669086 -12.8125 20.125 C-15.70747851 17.31273516 -16.20121054 15.68031551 -16.375 11.75 C-16.35207487 8.19660432 -15.89656284 6.25259968 -13.625 3.5 C-9.34131812 -0.57969703 -5.74019903 -0.69638463 0 0 Z " fill="#8A92A1" transform="translate(216,294)"/>
<path d="M0 0 C3.72489326 3.19276565 4.98459724 5.97464241 5.5078125 10.875 C5.74503351 17.70696504 5.38975832 23.29589254 1.1875 28.875 C-2.34536891 32.19375565 -5.6046786 33.0157177 -10.375 33 C-11.55255859 33.00386719 -11.55255859 33.00386719 -12.75390625 33.0078125 C-14.8125 32.875 -14.8125 32.875 -16.8125 31.875 C-16.8125 29.895 -16.8125 27.915 -16.8125 25.875 C-15.78189453 25.92720703 -15.78189453 25.92720703 -14.73046875 25.98046875 C-13.37888672 26.02107422 -13.37888672 26.02107422 -12 26.0625 C-11.10667969 26.09730469 -10.21335938 26.13210938 -9.29296875 26.16796875 C-6.76957986 26.08538203 -6.76957986 26.08538203 -5.03125 24.5 C-3.64159355 22.64712473 -3.20333561 21.14184656 -2.8125 18.875 C-3.8025 19.535 -4.7925 20.195 -5.8125 20.875 C-8.81824088 21.34255969 -10.86293034 21.46628296 -13.5 19.82421875 C-15.69875037 18.03244862 -17.53299113 16.43401775 -18.8125 13.875 C-19.21960593 9.64109838 -19.06825965 7.35911648 -17.0625 3.5625 C-12.462423 -1.93203642 -6.58285807 -2.63314323 0 0 Z " fill="#8A92A1" transform="translate(190.8125,295.125)"/>
<path d="M0 0 C4.11601117 1.50041787 5.37840182 3.83678689 7.453125 7.59375 C8.071875 8.70621094 8.690625 9.81867188 9.328125 10.96484375 C9.64330078 11.54476074 9.95847656 12.12467773 10.28320312 12.72216797 C11.24995927 14.4999251 12.23279027 16.26799039 13.21875 18.03515625 C18 26.70368304 18 26.70368304 18 29 C7.11 29 -3.78 29 -15 29 C-13.61494408 24.84483224 -12.60442017 22.00532964 -10.46875 18.3984375 C-9.98792969 17.57859375 -9.50710937 16.75875 -9.01171875 15.9140625 C-8.51285156 15.07617188 -8.01398438 14.23828125 -7.5 13.375 C-6.50942996 11.6958942 -5.51981131 10.0162267 -4.53125 8.3359375 C-4.09361328 7.59907715 -3.65597656 6.8622168 -3.20507812 6.10302734 C-2.05784935 4.10095509 -1.00985981 2.07419581 0 0 Z " fill="#0D4B93" transform="translate(96,273)"/>
<path d="M0 0 C16.11732039 -0.94437424 16.11732039 -0.94437424 21.7265625 3.37890625 C23.70090852 5.89226085 23.92760742 7.86922233 23.58984375 11.00390625 C22.53850583 14.56174518 20.70211136 16.53285485 18 19 C13.35744632 20.99737775 9.10581212 21.25048558 4.125 21.125 C3.43664062 21.11597656 2.74828125 21.10695312 2.0390625 21.09765625 C0.35922162 21.07432513 -1.32043746 21.03846326 -3 21 C-2.29411026 13.94110263 -1.21786614 6.98795036 0 0 Z " fill="#F4F5F7" transform="translate(175,226)"/>
<path d="M0 0 C1.65 0 3.3 0 5 0 C5 4.29 5 8.58 5 13 C10.94 13 16.88 13 23 13 C23 8.71 23 4.42 23 0 C24.65 0 26.3 0 28 0 C28 10.56 28 21.12 28 32 C26.35 32 24.7 32 23 32 C23 27.38 23 22.76 23 18 C17.39 18 11.78 18 6 18 C6 22.62 6 27.24 6 32 C4.02 32 2.04 32 0 32 C0 21.44 0 10.88 0 0 Z " fill="#121A49" transform="translate(677,294)"/>
<path d="M0 0 C1.98 0 3.96 0 6 0 C6.01458252 0.68102783 6.02916504 1.36205566 6.04418945 2.0637207 C6.11862696 5.14722215 6.21530083 8.22963567 6.3125 11.3125 C6.33505859 12.38435547 6.35761719 13.45621094 6.38085938 14.56054688 C6.41630859 15.58857422 6.45175781 16.61660156 6.48828125 17.67578125 C6.51446533 18.62364502 6.54064941 19.57150879 6.56762695 20.5480957 C7.06740097 23.38221794 7.71279344 24.30425239 10 26 C12.21122319 26.43585262 12.21122319 26.43585262 14.5625 26.3125 C15.34753906 26.30863281 16.13257813 26.30476563 16.94140625 26.30078125 C19.22126834 26.17703023 19.22126834 26.17703023 21 24 C21.96397996 21.08978379 22.1795156 18.28508084 22.31640625 15.234375 C22.35830078 14.34492188 22.40019531 13.45546875 22.44335938 12.5390625 C22.48267578 11.61867188 22.52199219 10.69828125 22.5625 9.75 C22.60568359 8.81414062 22.64886719 7.87828125 22.69335938 6.9140625 C22.7991805 4.60951359 22.90126557 2.30486161 23 0 C24.65 0 26.3 0 28 0 C28.11701204 3.68722927 28.18752045 7.37397542 28.25 11.0625 C28.30027344 12.62000977 28.30027344 12.62000977 28.3515625 14.20898438 C28.43408306 20.70747814 28.03707142 24.79838874 24 30 C19.53945999 33.35699685 13.29367848 32.58738076 8 32 C3.95469416 29.77095392 2.09790097 27.05467108 0 23 C-0.34057617 20.32104492 -0.34057617 20.32104492 -0.29296875 17.48046875 C-0.28330078 16.45888672 -0.27363281 15.43730469 -0.26367188 14.38476562 C-0.23853516 13.32966797 -0.21339844 12.27457031 -0.1875 11.1875 C-0.17396484 10.11306641 -0.16042969 9.03863281 -0.14648438 7.93164062 C-0.11122577 5.28724545 -0.06194366 2.64388252 0 0 Z " fill="#1E2653" transform="translate(610,294)"/>
<path d="M0 0 C-0.33 1.65 -0.66 3.3 -1 5 C-1.66 4.835 -2.32 4.67 -3 4.5 C-7.20258033 3.79956995 -12.10416059 3.0520803 -16 5 C-15.67 6.65 -15.34 8.3 -15 10 C-14.41992188 10.18175781 -13.83984375 10.36351562 -13.2421875 10.55078125 C-1.75182482 14.24817518 -1.75182482 14.24817518 2 18 C2.4375 21.3125 2.4375 21.3125 2 25 C-0.1727422 27.63016161 -1.94673788 29.47336894 -5 31 C-11.64161218 31.51701173 -17.34479007 31.77013995 -23 28 C-23 26.68 -23 25.36 -23 24 C-22.31550781 24.16371094 -21.63101563 24.32742188 -20.92578125 24.49609375 C-17.6256722 25.06447034 -14.53445931 25.09630767 -11.1875 25.0625 C-9.44533203 25.04896484 -9.44533203 25.04896484 -7.66796875 25.03515625 C-6.78753906 25.02355469 -5.90710938 25.01195312 -5 25 C-4.67 23.35 -4.34 21.7 -4 20 C-7.16803962 18.56927243 -10.16453293 17.75300712 -13.5625 17.125 C-16.45965074 16.49245542 -18.04316826 15.97157212 -20.5625 14.3125 C-22.61175314 11.01587539 -22.46848046 8.81476942 -22 5 C-20.59293409 1.48233524 -19.68170865 0.32536095 -16.25 -1.3125 C-10.28569696 -2.57417949 -5.67564706 -2.21488666 0 0 Z " fill="#171F4D" transform="translate(668,295)"/>
<path d="M0 0 C2.375 1.375 2.375 1.375 4 4 C5.1486831 8.69771778 5.61459898 12.56593571 3.6875 17.0625 C1.2900247 19.81515683 0.32787472 19.96964123 -3.375 20.3125 C-7 20 -7 20 -9.375 18.5 C-11.57536341 15.11482553 -12.20675893 11.97272519 -12 8 C-11.28809259 5.34560235 -10.34679583 3.44418503 -9 1 C-5.90826248 -0.54586876 -3.40570448 -0.29359521 0 0 Z " fill="#FDFDFD" transform="translate(537,301)"/>
<path d="M0 0 C2.375 1.375 2.375 1.375 4 4 C5.1486831 8.69771778 5.61459898 12.56593571 3.6875 17.0625 C1.2900247 19.81515683 0.32787472 19.96964123 -3.375 20.3125 C-7 20 -7 20 -9.375 18.5 C-11.57536341 15.11482553 -12.20675893 11.97272519 -12 8 C-11.28809259 5.34560235 -10.34679583 3.44418503 -9 1 C-5.90826248 -0.54586876 -3.40570448 -0.29359521 0 0 Z " fill="#FDFDFD" transform="translate(339,301)"/>
<path d="M0 0 C2.8365125 2.15656138 3.87743366 3.33669978 4.53125 6.875 C4.5209375 7.90625 4.510625 8.9375 4.5 10 C4.5103125 11.03125 4.520625 12.0625 4.53125 13.125 C3.87734367 16.66378719 2.84470908 17.85122868 0 20 C-3.75349462 20.46918683 -6.03848453 20.53136381 -9.375 18.6875 C-12.50189256 15.44034234 -12.40264416 11.50787425 -12.33984375 7.23046875 C-12 5 -12 5 -9.9375 1.9375 C-6.25345351 -0.492403 -4.33463758 -0.70930433 0 0 Z " fill="#FDFDFD" transform="translate(455,301)"/>
<path d="M0 0 C2.4375 1.375 2.4375 1.375 4 4 C4.74135651 8.6009961 4.84195873 12.52657222 2.5 16.625 C-1.06010937 18.58306015 -4.02999529 18.77284928 -8 18 C-10.5 16.5625 -10.5 16.5625 -12 14 C-12.61386359 10.86637253 -12.63525328 8.13168723 -12 5 C-8.67935135 0.06933988 -5.83352544 -0.95457689 0 0 Z " fill="#8B93A1" transform="translate(240,294)"/>
<path d="M0 0 C2.4375 1.375 2.4375 1.375 4 4 C4.60780034 7.45184719 4.65283768 10.55255893 4 14 C1.31281187 17.42005762 -0.27813079 17.89868502 -4.5625 18.5 C-8 18 -8 18 -10.4375 16.5625 C-12.76496058 12.74546464 -12.88232972 9.34973071 -12 5 C-8.67935135 0.06933988 -5.83352544 -0.95457689 0 0 Z " fill="#8C94A2" transform="translate(261,310)"/>
<path d="M0 0 C1.38445312 0.14115234 1.38445312 0.14115234 2.796875 0.28515625 C1.33399252 4.36825304 -0.66085145 7.74016318 -3.046875 11.35546875 C-3.41663452 11.91837616 -3.78639404 12.48128357 -4.1673584 13.06124878 C-5.3417752 14.84700796 -6.52233568 16.62860601 -7.703125 18.41015625 C-8.49650221 19.61431431 -9.28947501 20.81873893 -10.08203125 22.0234375 C-12.77797765 26.11806433 -15.48372794 30.20606065 -18.203125 34.28515625 C-21.328125 34.47265625 -21.328125 34.47265625 -24.203125 34.28515625 C-21.6087419 28.87571838 -18.78816369 23.9104037 -15.390625 18.97265625 C-11.64868456 13.50361342 -8.17943515 7.96864329 -4.96875 2.1640625 C-3.203125 0.28515625 -3.203125 0.28515625 0 0 Z " fill="#8A93A1" transform="translate(257.203125,293.71484375)"/>
<path d="M0 0 C9.01803607 -0.36072144 9.01803607 -0.36072144 13.0625 1.125 C15.6779536 3.65608413 15.92512071 5.40579431 16 9 C15.01 10.485 15.01 10.485 14 12 C13.34 12 12.68 12 12 12 C12 12.66 12 13.32 12 14 C8.04 14 4.08 14 0 14 C0 9.38 0 4.76 0 0 Z " fill="#EAEBEF" transform="translate(582,298)"/>
<path d="M0 0 C1.32 0 2.64 0 4 0 C4 6.27 4 12.54 4 19 C2.02 19.99 2.02 19.99 0 21 C0 14.07 0 7.14 0 0 Z " fill="#040D3E" transform="translate(634,294)"/>
<path d="M0 0 C5.625 -0.25 5.625 -0.25 9 2 C8.6875 4.875 8.6875 4.875 8 8 C5 10 5 10 0 10 C0 6.7 0 3.4 0 0 Z " fill="#FCFCFC" transform="translate(415,300)"/>
<path d="M0 0 C1.2375 0.1546875 1.2375 0.1546875 2.5 0.3125 C4.5 3.3125 4.5 3.3125 4.125 6.5 C3.91875 7.428125 3.7125 8.35625 3.5 9.3125 C-1.25 10.4375 -1.25 10.4375 -3.5 9.3125 C-4.25 5.875 -4.25 5.875 -4.5 2.3125 C-2.5 0.3125 -2.5 0.3125 0 0 Z " fill="#F8F9F9" transform="translate(211.5,299.6875)"/>
<path d="M0 0 C4.55555556 0.55555556 4.55555556 0.55555556 6 2 C6.1875 4.9375 6.1875 4.9375 6 8 C5.34 8.66 4.68 9.32 4 10 C-0.55555556 9.44444444 -0.55555556 9.44444444 -2 8 C-2.1875 5.0625 -2.1875 5.0625 -2 2 C-1.34 1.34 -0.68 0.68 0 0 Z " fill="#FCFCFD" transform="translate(182,300)"/>
<path d="M0 0 C4.29 0 8.58 0 13 0 C13 1.65 13 3.3 13 5 C8.71 5 4.42 5 0 5 C0 3.35 0 1.7 0 0 Z " fill="#858E9D" transform="translate(154,313)"/>
<path d="M0 0 C19.47 0 38.94 0 59 0 C59 0.33 59 0.66 59 1 C51.7503245 1.13069956 44.50064387 1.26111014 37.25095654 1.39115143 C33.88466831 1.45154333 30.51838195 1.5120349 27.15209961 1.57275391 C23.28239379 1.64250398 19.41268196 1.71191118 15.54296875 1.78125 C13.72879707 1.81406067 13.72879707 1.81406067 11.87797546 1.84753418 C10.75703995 1.86755493 9.63610443 1.88757568 8.48120117 1.90820312 C7.49302902 1.92596802 6.50485687 1.94373291 5.48674011 1.96203613 C3.65799606 1.98995469 1.82895715 2 0 2 C0 1.34 0 0.68 0 0 Z " fill="#185497" transform="translate(33,218)"/>
<path d="M0 0 C1.28132812 0.00902344 2.56265625 0.01804688 3.8828125 0.02734375 C4.87023437 0.03894531 5.85765625 0.05054688 6.875 0.0625 C6.875 0.3925 6.875 0.7225 6.875 1.0625 C6.1015625 1.05347656 5.328125 1.04445312 4.53125 1.03515625 C-2.55759809 1.23694277 -6.4733911 2.18883079 -11.50390625 7.2734375 C-12.03886719 7.86382812 -12.57382812 8.45421875 -13.125 9.0625 C-14.71484375 10.7890625 -14.71484375 10.7890625 -16.125 12.0625 C-16.785 12.0625 -17.445 12.0625 -18.125 12.0625 C-17.58050236 8.26777027 -16.08707612 6.79218732 -13.1875 4.375 C-12.47722656 3.77300781 -11.76695312 3.17101562 -11.03515625 2.55078125 C-7.32853288 -0.33720138 -4.65595146 -0.04232683 0 0 Z " fill="#C2C4D0" transform="translate(519.125,225.9375)"/>
<path d="M0 0 C0.33 0 0.66 0 1 0 C1.28074997 7.19031874 0.74090848 13.99824401 -1 21 C-1.33 21.33 -1.66 21.66 -2 22 C-2.23192865 23.51469448 -2.41215238 25.03754562 -2.5625 26.5625 C-2.64628906 27.38878906 -2.73007812 28.21507812 -2.81640625 29.06640625 C-2.87699219 29.70449219 -2.93757812 30.34257812 -3 31 C-3.66 31 -4.32 31 -5 31 C-4.51739376 20.47918394 -2.17218433 10.27221291 0 0 Z " fill="#303760" transform="translate(630,230)"/>
<path d="M0 0 C1.2684375 0.495 1.2684375 0.495 2.5625 1 C2.2325 2.65 1.9025 4.3 1.5625 6 C-2.7275 5.34 -7.0175 4.68 -11.4375 4 C-11.4375 3.67 -11.4375 3.34 -11.4375 3 C-8.7975 2.67 -6.1575 2.34 -3.4375 2 C-7.0675 1.67 -10.6975 1.34 -14.4375 1 C-9.20278286 -1.61735857 -5.59775381 -1.62843747 0 0 Z " fill="#3B4269" transform="translate(665.4375,294)"/>
<path d="M0 0 C4.29 0 8.58 0 13 0 C13 2.31 13 4.62 13 7 C12.34 7 11.68 7 11 7 C11 5.35 11 3.7 11 2 C7.7 2 4.4 2 1 2 C0.87625 3.299375 0.7525 4.59875 0.625 5.9375 C0.4140625 8.15234375 0.4140625 8.15234375 0 10 C-0.99 10.495 -0.99 10.495 -2 11 C-1.85892253 9.54119891 -1.71197585 8.08296449 -1.5625 6.625 C-1.48128906 5.81289062 -1.40007813 5.00078125 -1.31640625 4.1640625 C-1 2 -1 2 0 0 Z " fill="#585F7F" transform="translate(606,215)"/>
<path d="M0 0 C5.94 0.66 11.88 1.32 18 2 C16 4 16 4 13.3984375 4.1953125 C12.40070312 4.17210937 11.40296875 4.14890625 10.375 4.125 C8.87066406 4.09792969 8.87066406 4.09792969 7.3359375 4.0703125 C6.56507813 4.04710937 5.79421875 4.02390625 5 4 C5 4.66 5 5.32 5 6 C2.525 5.01 2.525 5.01 0 4 C0 2.68 0 1.36 0 0 Z " fill="#363D65" transform="translate(645,319)"/>
<path d="M0 0 C2.125 0.375 2.125 0.375 4 1 C4 3.64 4 6.28 4 9 C2.33388095 9.042721 0.66617115 9.04063832 -1 9 C-2 8 -2 8 -2.1875 5.0625 C-2 2 -2 2 0 0 Z " fill="#F7F8F9" transform="translate(235,298)"/>
<path d="M0 0 C0.66 0 1.32 0 2 0 C1.39174965 4.34464536 0.73832608 8.67551867 0 13 C-0.33 13 -0.66 13 -1 13 C-1.33 11.35 -1.66 9.7 -2 8 C-2.78375 8.825 -3.5675 9.65 -4.375 10.5 C-7 13 -7 13 -9 13 C-7.51516897 9.76306836 -5.67292565 7.0674375 -3.5 4.25 C-2.8915625 3.45078125 -2.283125 2.6515625 -1.65625 1.828125 C-1.1096875 1.22484375 -0.563125 0.6215625 0 0 Z " fill="#CACCD6" transform="translate(461,240)"/>
<path d="M0 0 C1.67542976 0.28604898 3.34385343 0.61781233 5 1 C5 2.98 5 4.96 5 7 C3.34385343 7.38218767 1.67542976 7.71395102 0 8 C-1 7 -1 7 -1.125 4 C-1 1 -1 1 0 0 Z " fill="#FEFEFE" transform="translate(255,315)"/>
<path d="M0 0 C0 2.31 0 4.62 0 7 C-0.33 7 -0.66 7 -1 7 C-1 5.35 -1 3.7 -1 2 C-6.71241466 2.38728235 -9.73688282 2.87010523 -14 7 C-14.66 6.67 -15.32 6.34 -16 6 C-11.78857098 -0.97064114 -7.76957617 -0.73477603 0 0 Z " fill="#505779" transform="translate(480,215)"/>
<path d="M0 0 C4.29 0 8.58 0 13 0 C12.67 2.31 12.34 4.62 12 7 C11.67 7 11.34 7 11 7 C11 5.35 11 3.7 11 2 C7.37 2 3.74 2 0 2 C-0.33 3.98 -0.66 5.96 -1 8 C-1.625 6.25 -1.625 6.25 -2 4 C-1.34 2.68 -0.68 1.36 0 0 Z " fill="#606685" transform="translate(266,215)"/>
<path d="M0 0 C4.62 0 9.24 0 14 0 C13.67 1.98 13.34 3.96 13 6 C12.67 4.68 12.34 3.36 12 2 C8.37 2 4.74 2 1 2 C0.67 2.99 0.34 3.98 0 5 C0 3.35 0 1.7 0 0 Z " fill="#5C6283" transform="translate(346,215)"/>
<path d="M0 0 C3.96 0 7.92 0 12 0 C12 0.99 12 1.98 12 3 C8.7 2.67 5.4 2.34 2 2 C1.67 3.32 1.34 4.64 1 6 C0.67 4.02 0.34 2.04 0 0 Z " fill="#51587A" transform="translate(682,215)"/>
<path d="M0 0 C4 2 4 2 5.25 4.625 C5.4975 5.40875 5.745 6.1925 6 7 C4.68 6.67 3.36 6.34 2 6 C1.01 7.32 0.02 8.64 -1 10 C-0.67 6.7 -0.34 3.4 0 0 Z " fill="#B6B9C7" transform="translate(573,238)"/>
<path d="M0 0 C1.17046875 0.03609375 2.3409375 0.0721875 3.546875 0.109375 C4.43890625 0.15578125 5.3309375 0.2021875 6.25 0.25 C4.25 2.25 4.25 2.25 2.296875 2.26953125 C1.53890625 2.20121094 0.7809375 2.13289062 0 2.0625 C-3.67994114 1.94954543 -5.49432011 2.34883002 -8.3125 4.75 C-9.5190625 5.9875 -9.5190625 5.9875 -10.75 7.25 C-10.75 4.25 -10.75 4.25 -9.171875 2.078125 C-5.95781989 -0.34796821 -3.97884692 -0.15915388 0 0 Z " fill="#2E355F" transform="translate(732.75,215.75)"/>
<path d="M0 0 C-0.33 1.32 -0.66 2.64 -1 4 C-5.29 3.34 -9.58 2.68 -14 2 C-14 1.67 -14 1.34 -14 1 C-12.22932584 0.83165067 -10.45845388 0.66538091 -8.6875 0.5 C-7.70136719 0.4071875 -6.71523438 0.314375 -5.69921875 0.21875 C-3 0 -3 0 0 0 Z " fill="#2B325D" transform="translate(668,296)"/>
<path d="M0 0 C0 0.33 0 0.66 0 1 C-1.093125 1.309375 -2.18625 1.61875 -3.3125 1.9375 C-5.55407994 2.58337897 -7.7869351 3.2623117 -10 4 C-10.33 4.66 -10.66 5.32 -11 6 C-10.625 3.5625 -10.625 3.5625 -10 1 C-6.78548731 -0.60725635 -3.56387464 -0.05748185 0 0 Z " fill="#CED0D9" transform="translate(662,298)"/>
<path d="M0 0 C0.86625 0.3403125 0.86625 0.3403125 1.75 0.6875 C0.76 0.6875 -0.23 0.6875 -1.25 0.6875 C-1.6521875 1.55375 -1.6521875 1.55375 -2.0625 2.4375 C-3.26719859 4.7200868 -4.65798115 6.6612942 -6.25 8.6875 C-6.5 5.875 -6.5 5.875 -6.25 2.6875 C-4.12558468 0.33546876 -3.18427034 -0.44225977 0 0 Z " fill="#C0C3CF" transform="translate(305.25,226.3125)"/>
<path d="M0 0 C0.66 0 1.32 0 2 0 C1.67 2.31 1.34 4.62 1 7 C-0.32 6.01 -1.64 5.02 -3 4 C-1.625 2 -1.625 2 0 0 Z " fill="#B5B7C6" transform="translate(461,240)"/>
</svg>
