<?xml version="1.0" encoding="UTF-8"?>
<svg version="1.1" xmlns="http://www.w3.org/2000/svg" width="770" height="564">
<path d="M0,0 L63,0 L77,24 L81,30 L81,36 L70,54 L71,60 L80,75 L85,83 L85,87 L48,87 L42,77 L39,71 L33,62 L24,45 L11,23 L0,5 Z " fill="#0A59C5" transform="translate(31,229)"/>
<path d="M0,0 L13,0 L22,22 L26,30 L28,34 L34,26 L47,10 L54,0 L68,0 L67,11 L58,58 L57,61 L43,61 L43,53 L46,38 L46,33 L38,44 L30,55 L20,55 L13,38 L10,32 L7,45 L4,60 L3,61 L-11,61 L-10,50 L-1,3 Z M47,30 Z " fill="#0F1847" transform="translate(413,227)"/>
<path d="M0,0 L13,0 L30,28 L32,32 L34,26 L39,1 L40,0 L55,0 L54,10 L44,61 L30,61 L20,45 L11,30 L9,36 L5,56 L3,61 L-12,61 L-12,53 L-6,23 L-4,17 L-1,1 Z " fill="#071041" transform="translate(565,227)"/>
<path d="M0,0 L8,0 L18,2 L24,5 L32,12 L34,17 L34,38 L30,48 L20,58 L11,62 L6,63 L-9,63 L-19,61 L-28,54 L-32,44 L-32,27 L-27,15 L-23,10 L-15,4 L-7,1 Z M-2,14 L-2,16 L-7,18 L-14,25 L-17,34 L-15,43 L-10,48 L-4,50 L5,49 L13,42 L18,36 L19,32 L19,24 L12,16 L8,14 Z " fill="#070F41" transform="translate(516,226)"/>
<path d="M0,0 L30,0 L39,2 L46,7 L49,14 L49,25 L46,34 L42,39 L36,43 L34,43 L42,57 L42,61 L26,61 L17,46 L8,46 L5,61 L-11,61 L-11,53 L-6,27 L-4,21 Z M15,13 L13,15 L10,32 L23,32 L29,29 L33,24 L33,18 L30,15 L26,13 Z " fill="#0A1243" transform="translate(163,227)"/>
<path d="M0,0 L15,0 L16,5 L12,24 L35,23 L38,11 L40,0 L55,0 L55,8 L45,61 L30,61 L30,52 L33,37 L9,38 L6,51 L4,61 L-11,61 L-11,51 L-2,5 Z " fill="#091242" transform="translate(345,227)"/>
<path d="M0,0 L15,0 L14,9 L9,37 L10,43 L14,47 L21,48 L26,45 L30,40 L32,34 L38,2 L40,0 L54,0 L55,1 L54,11 L50,31 L48,37 L45,47 L39,56 L33,60 L26,62 L10,62 L0,59 L-5,54 L-7,48 L-7,32 L-1,1 Z " fill="#060F40" transform="translate(225,227)"/>
<path d="M0,0 L46,0 L47,1 L46,10 L45,13 L14,13 L12,23 L38,24 L37,35 L36,36 L10,37 L8,43 L8,47 L38,48 L37,59 L36,61 L-11,61 L-10,50 L-1,3 Z " fill="#0D1544" transform="translate(632,227)"/>
<path d="M0,0 L9,0 L21,2 L26,5 L26,11 L22,18 L17,17 L10,14 L2,14 L-5,18 L-5,21 L3,25 L15,29 L22,36 L22,50 L16,58 L8,62 L4,63 L-12,63 L-26,60 L-30,58 L-30,52 L-26,45 L-20,45 L-11,49 L1,49 L5,46 L4,42 L-14,35 L-20,31 L-22,28 L-22,13 L-16,6 L-10,2 Z " fill="#091142" transform="translate(307,226)"/>
<path d="M0,0 L14,0 L18,8 L22,18 L25,23 L37,8 L40,5 L44,0 L59,0 L60,4 L49,18 L35,35 L31,40 L27,59 L26,61 L10,61 L10,54 L12,44 L13,43 L13,37 L8,27 L0,7 Z " fill="#0F1847" transform="translate(681,227)"/>
<path d="M0,0 L59,0 L57,6 L48,21 L43,31 L41,31 L39,36 L31,51 L27,49 L18,33 L18,31 L16,31 L14,26 L4,9 L0,2 Z " fill="#04448E" transform="translate(33,231)"/>
<path d="M0,0 L8,0 L14,11 L18,18 L22,13 L29,0 L37,0 L37,34 L30,34 L29,18 L22,30 L16,30 L11,23 L8,18 L7,34 L0,34 Z " fill="#BDBEC9" transform="translate(472,307)"/>
<path d="M0,0 L8,0 L13,5 L14,12 L22,1 L28,1 L28,6 L21,16 L30,16 L35,21 L35,30 L30,35 L21,35 L17,30 L16,24 L11,32 L8,35 L2,35 L3,28 L8,21 L-1,19 L-5,13 L-5,7 L-2,1 Z M3,6 L1,9 L2,13 L5,15 L7,13 L7,8 Z M20,16 Z M25,22 L23,24 L24,28 L28,28 L29,24 L28,22 Z " fill="#CCCDD5" transform="translate(218,306)"/>
<path d="M0,0 L13,0 L19,3 L20,6 L22,6 L25,12 L25,24 L20,32 L15,35 L-2,35 L-9,30 L-12,24 L-12,13 L-8,4 Z M3,8 L-2,12 L-4,17 L-3,22 L2,27 L3,28 L10,28 L15,24 L17,21 L16,13 L11,8 Z " fill="#C4C6CF" transform="translate(442,306)"/>
<path d="M0,0 L13,0 L19,3 L24,8 L25,11 L25,25 L21,31 L15,35 L-1,35 L-7,32 L-11,26 L-11,11 L-8,5 Z M4,8 L-3,14 L-3,22 L1,27 L3,28 L9,28 L15,24 L17,21 L17,14 L11,8 Z " fill="#C1C3CD" transform="translate(526,306)"/>
<path d="M0,0 L12,0 L18,3 L24,10 L24,26 L20,32 L14,35 L-1,35 L-8,32 L-8,29 L-10,29 L-12,24 L-12,11 L-10,6 L-8,6 L-6,2 Z M5,7 L0,10 L-4,15 L-4,21 L1,27 L8,28 L14,24 L16,21 L16,14 L12,9 Z " fill="#C1C2CC" transform="translate(318,306)"/>
<path d="M0,0 L17,0 L26,3 L29,7 L29,20 L25,25 L30,32 L30,35 L21,35 L15,27 L9,27 L8,35 L0,35 Z M9,8 L8,9 L8,18 L9,19 L17,19 L21,15 L20,10 L17,8 Z " fill="#070F40" transform="translate(575,305)"/>
<path d="M0,0 L11,0 L16,3 L20,8 L21,14 L21,23 L18,31 L15,34 L11,35 L-3,35 L-5,33 L-4,27 L7,27 L10,23 L1,23 L-5,19 L-7,16 L-7,6 L-2,1 Z M4,7 L1,10 L2,14 L4,16 L9,15 L11,13 L10,9 L8,7 Z " fill="#C0C1CB" transform="translate(191,306)"/>
<path d="M0,0 L11,0 L16,3 L19,6 L20,9 L20,26 L16,33 L11,35 L-4,35 L-6,33 L-5,28 L0,27 L7,27 L10,23 L1,23 L-7,18 L-7,6 L-2,1 Z M4,7 L0,12 L4,16 L9,15 L11,13 L10,9 L8,7 Z " fill="#C0C2CC" transform="translate(162,306)"/>
<path d="M0,0 L7,0 L8,1 L9,13 L22,13 L23,0 L30,0 L31,1 L31,35 L23,35 L23,22 L8,22 L8,35 L0,35 Z " fill="#121A47" transform="translate(676,305)"/>
<path d="M0,0 L30,0 L30,35 L23,35 L22,34 L22,8 L9,9 L8,34 L7,35 L0,35 Z " fill="#BEBFC9" transform="translate(270,306)"/>
<path d="M0,0 L23,0 L28,4 L30,9 L30,16 L28,21 L25,24 L22,25 L9,26 L8,34 L1,34 L0,33 Z M9,7 L8,8 L8,17 L9,18 L17,18 L21,14 L20,9 L18,7 Z " fill="#BEBFC9" transform="translate(398,307)"/>
<path d="M0,0 L8,0 L9,23 L13,27 L18,27 L21,24 L22,20 L23,0 L31,0 L31,23 L29,31 L24,35 L8,35 L1,29 L0,26 Z " fill="#18204C" transform="translate(609,305)"/>
<path d="M0,0 L11,0 L17,2 L16,9 L3,8 L1,9 L2,12 L11,15 L17,18 L18,20 L18,30 L13,35 L-4,35 L-9,33 L-8,25 L-2,26 L-1,27 L8,27 L10,24 L-1,21 L-7,17 L-8,16 L-8,5 L-4,1 Z " fill="#121A49" transform="translate(653,305)"/>
<path d="M0,0 L29,0 L30,1 L30,35 L23,35 L22,16 L21,9 L8,9 L7,35 L0,35 Z " fill="#B9BAC5" transform="translate(361,306)"/>
<path d="M0,0 L2,1 L7,10 L7,12 L9,12 L16,25 L16,28 L-16,28 L-10,16 L-1,1 Z " fill="#04448E" transform="translate(97,286)"/>
<path d="M0,0 L63,0 L77,24 L81,30 L81,36 L70,54 L71,60 L80,75 L85,83 L85,87 L48,87 L45,82 L45,80 L47,80 L49,84 L82,85 L75,71 L75,69 L73,69 L67,58 L68,52 L72,45 L74,45 L74,41 L77,38 L79,32 L75,25 L75,23 L73,23 L68,15 L65,8 L62,3 L2,2 L16,27 L18,29 L17,33 L5,13 L0,5 Z " fill="#A3B8CE" transform="translate(31,229)"/>
<path d="M0,0 L13,0 L30,28 L32,32 L34,26 L39,1 L40,0 L55,0 L55,5 L53,4 L53,2 L41,2 L39,15 L35,37 L32,37 L17,12 L12,3 L1,2 L1,5 L-1,5 Z " fill="#84879A" transform="translate(565,227)"/>
<path d="M0,0 L17,0 L26,3 L29,7 L29,20 L25,25 L30,32 L29,35 L22,25 L22,23 L27,18 L27,8 L23,4 L19,3 L2,2 L2,34 L7,34 L7,25 L16,25 L21,30 L22,35 L17,30 L15,27 L9,27 L8,35 L0,35 Z " fill="#666A80" transform="translate(575,305)"/>
<path d="M0,0 L6,0 L10,1 L11,3 L11,12 L6,17 L-3,17 L-7,12 L-7,4 L-6,6 L-4,6 L-4,1 L-2,1 L-2,4 L1,5 L0,9 L4,9 L5,4 L4,1 Z " fill="#C2C3CC" transform="translate(242,324)"/>
<path d="M0,0 L14,0 L15,1 L14,11 L10,29 L9,29 L10,19 L13,2 L0,2 L-1,11 L-7,40 L-11,46 L-14,49 L-17,50 L-26,50 L-31,47 L-32,41 L-28,46 L-23,48 L-16,47 L-10,40 L-8,34 L-2,2 Z " fill="#9A9CA7" transform="translate(265,227)"/>
<path d="M0,0 L30,0 L39,2 L46,7 L49,14 L49,25 L46,34 L42,39 L36,43 L34,43 L42,57 L41,61 L34,47 L32,44 L32,41 L40,37 L44,32 L46,27 L47,18 L44,9 L40,5 L34,3 L2,2 L2,4 L0,4 Z " fill="#666A83" transform="translate(163,227)"/>
<path d="M0,0 L63,0 L63,2 L2,2 L16,27 L18,29 L17,33 L5,13 L0,5 Z " fill="#5877A3" transform="translate(31,229)"/>
<path d="M0,0 L7,0 L8,1 L9,13 L23,13 L23,15 L5,15 L5,3 L1,3 L1,34 L6,34 L6,20 L23,20 L23,22 L8,22 L8,35 L0,35 Z " fill="#4B506F" transform="translate(676,305)"/>
<path d="M0,0 L8,0 L13,5 L12,7 L9,7 L9,13 L6,16 L6,13 L6,8 L3,7 L1,15 L-1,15 L-1,17 L2,17 L1,20 L-3,17 L-5,13 L-5,7 L-2,1 Z " fill="#C9CAD2" transform="translate(218,306)"/>
<path d="M0,0 L15,0 L16,4 L8,14 L6,13 L13,3 L1,3 L-2,8 L-7,12 L-16,24 L-20,27 L-21,23 L-23,23 L-25,17 L-24,13 L-19,23 L-7,8 L-4,5 Z " fill="#86899A" transform="translate(725,227)"/>
<path d="M0,0 L15,0 L16,5 L12,24 L35,23 L38,11 L40,11 L38,24 L37,25 L10,25 L14,2 L2,2 L2,4 L0,4 L-1,15 L-3,19 L-4,15 L-1,2 Z " fill="#6F7687" transform="translate(345,227)"/>
<path d="M0,0 L15,0 L15,8 L5,61 L3,61 L5,48 L13,6 L14,3 L4,4 L-1,9 Z " fill="#414667" transform="translate(385,227)"/>
<path d="M0,0 L3,1 L-4,8 L-7,17 L-5,26 L-1,30 L5,32 L14,31 L22,24 L24,21 L26,21 L24,26 L19,31 L13,34 L2,34 L-4,31 L-8,26 L-9,23 L-9,13 L-4,3 Z " fill="#656C82" transform="translate(507,243)"/>
<path d="M0,0 L7,0 L9,1 L9,8 L-5,8 L-5,1 Z " fill="#B9BAC4" transform="translate(144,323)"/>
<path d="M0,0 L13,0 L30,28 L32,34 L30,34 L13,5 L12,3 L1,2 L1,5 L-1,5 Z " fill="#9498A8" transform="translate(565,227)"/>
<path d="M0,0 L8,0 L18,2 L24,5 L32,12 L34,19 L32,19 L27,11 L23,9 L23,6 L13,3 L-4,3 L-15,7 L-19,10 L-21,9 L-15,4 L-7,1 Z " fill="#7B8192" transform="translate(516,226)"/>
<path d="M0,0 L4,4 L15,23 L16,27 L13,24 L3,8 L2,6 L0,12 L-4,32 L-6,33 L-4,19 Z " fill="#86899A" transform="translate(574,251)"/>
<path d="M0,0 L2,0 L-1,10 L-8,18 L-14,23 L-21,26 L-26,27 L-41,27 L-41,26 L-21,23 L-13,19 L-5,12 Z " fill="#7C8093" transform="translate(548,262)"/>
<path d="M0,0 L4,2 L5,8 L0,14 L-6,14 L-5,7 Z " fill="#D2D3DA" transform="translate(226,327)"/>
<path d="M0,0 L2,0 L4,4 L37,5 L38,3 L40,4 L40,7 L3,7 L0,2 Z " fill="#5D82AB" transform="translate(76,309)"/>
<path d="M0,0 L4,3 L4,17 L-2,25 L-10,29 L-14,30 L-23,30 L-21,28 L-10,26 L-2,21 L1,15 L3,15 L2,6 L0,4 Z " fill="#7F8398" transform="translate(325,259)"/>
<path d="M0,0 L1,0 L2,9 L-2,11 L-3,14 L-10,14 L-10,11 L-13,11 L-13,9 L-11,9 L-10,6 L-5,9 L-3,1 Z " fill="#BFC0CA" transform="translate(230,312)"/>
<path d="M0,0 L2,3 L-2,9 L-1,15 L8,30 L13,39 L9,37 L3,26 L3,24 L1,24 L-5,13 L-4,7 Z " fill="#A0AEBE" transform="translate(103,274)"/>
<path d="M0,0 L2,0 L14,21 L20,32 L23,37 L22,39 L16,31 L6,12 L0,2 Z " fill="#9EB2C8" transform="translate(49,262)"/>
<path d="M0,0 L14,0 L14,6 L12,6 L12,2 L3,3 L-3,10 L-5,10 L-5,12 L-10,15 L-8,11 Z " fill="#4B5070" transform="translate(467,227)"/>
<path d="M0,0 L3,1 L33,2 L33,8 L32,4 L0,4 Z " fill="#75788D" transform="translate(637,273)"/>
<path d="M0,0 L2,2 L6,11 L11,22 L17,14 L23,7 L23,10 L12,24 L9,25 L5,15 L5,12 L3,12 L0,4 Z " fill="#878DA1" transform="translate(430,239)"/>
<path d="M0,0 L9,0 L21,2 L26,5 L26,11 L25,13 L23,12 L25,6 L14,3 L-3,3 L-13,6 L-13,4 L-10,2 Z " fill="#6D7586" transform="translate(307,226)"/>
<path d="M0,0 L14,0 L15,1 L14,11 L10,29 L9,29 L10,19 L13,2 L-1,2 Z " fill="#696B7E" transform="translate(265,227)"/>
<path d="M0,0 L11,0 L17,2 L16,9 L7,8 L8,6 L14,7 L15,3 L4,2 L-4,4 L-6,7 L-8,7 L-6,2 Z " fill="#73788D" transform="translate(653,305)"/>
<path d="M0,0 L2,0 L0,4 L-9,15 L-13,34 L-15,34 L-13,20 L-11,14 L-1,1 Z " fill="#7B808F" transform="translate(721,252)"/>
<path d="M0,0 L4,1 L6,3 L5,8 L1,11 L-2,12 L-15,11 L-24,7 L-24,5 L-18,7 L-13,9 L-1,9 L3,6 L2,2 Z " fill="#6F7487" transform="translate(309,266)"/>
<path d="M0,0 L2,0 L16,25 L18,27 L17,31 L5,11 L0,3 Z " fill="#A8B4C5" transform="translate(31,231)"/>
<path d="M0,0 L9,0 L15,3 L16,9 L14,13 L10,12 L13,9 L12,4 L10,3 L2,3 L2,14 L0,14 Z " fill="#6C7088" transform="translate(582,311)"/>
<path d="M0,0 L2,1 L-2,6 L-8,10 L-10,10 L-2,24 L-3,28 L-10,14 L-12,11 L-12,8 L-4,4 Z " fill="#898BA2" transform="translate(207,260)"/>
<path d="M0,0 L2,1 L2,12 L5,21 L10,25 L15,27 L15,29 L10,28 L5,25 L2,22 L0,16 Z " fill="#3B426B" transform="translate(218,259)"/>
<path d="M0,0 L15,0 L16,4 L8,14 L6,13 L13,3 L1,3 L-2,3 Z " fill="#5E627D" transform="translate(725,227)"/>
<path d="M0,0 L6,0 L6,5 L0,9 L-5,8 L-1,1 Z " fill="#C2C3CD" transform="translate(240,307)"/>
<path d="M0,0 L7,1 L15,5 L13,10 L11,11 L4,11 L-5,8 L-5,6 L1,7 L2,8 L11,8 L13,5 L2,2 Z " fill="#7C809A" transform="translate(650,324)"/>
<path d="M0,0 L2,1 L-2,19 L-6,39 L-7,39 L-7,31 L-1,1 Z " fill="#7D808C" transform="translate(560,249)"/>
<path d="M0,0 L12,0 L15,2 L14,4 L10,3 L12,7 L10,8 L10,6 L4,6 L4,3 L1,4 L-1,3 Z " fill="#D4D5DC" transform="translate(236,322)"/>
<path d="M0,0 L2,1 L-5,9 L-8,12 L-10,12 L-11,17 L-13,17 L-12,12 L-8,6 L-6,3 L-1,1 Z " fill="#474E6F" transform="translate(499,233)"/>
<path d="M0,0 L8,0 L8,23 L6,22 L6,2 L0,2 Z " fill="#73788F" transform="translate(632,305)"/>
<path d="M0,0 L3,1 L1,4 L-2,4 L-4,10 L-4,20 L-1,25 L4,28 L2,29 L-4,25 L-6,22 L-6,7 Z " fill="#707385" transform="translate(291,232)"/>
<path d="M0,0 L2,0 L0,4 L-6,8 L-13,10 L-29,10 L-29,9 L-13,7 L-4,3 Z " fill="#485171" transform="translate(264,279)"/>
<path d="M0,0 L17,0 L18,1 L18,10 L16,10 L15,3 L0,2 Z " fill="#CCCDD4" transform="translate(367,312)"/>
<path d="M0,0 L2,1 L-2,19 L-5,35 L-6,35 L-6,27 L-1,1 Z " fill="#7B7E8B" transform="translate(158,253)"/>
<path d="M0,0 L2,0 L2,3 L5,4 L2,9 L3,12 L-2,13 L-3,11 L-3,3 L-2,5 L0,5 Z " fill="#B6B7C3" transform="translate(238,325)"/>
<path d="M0,0 L4,1 L8,5 L9,12 L6,17 L2,20 L-1,20 L-1,18 L4,15 L6,12 L6,6 L0,2 Z " fill="#767A91" transform="translate(189,239)"/>
<path d="M0,0 L2,0 L0,13 L-1,14 L-26,14 L-26,13 L-3,12 Z " fill="#51546F" transform="translate(383,238)"/>
<path d="M0,0 L10,5 L22,9 L25,13 L20,11 L3,5 L0,3 Z " fill="#898B9B" transform="translate(300,246)"/>
<path d="M0,0 L15,0 L15,6 L13,6 L13,2 L1,2 L1,4 L-1,4 Z " fill="#575B77" transform="translate(225,227)"/>
<path d="M0,0 L15,0 L15,5 L13,4 L13,2 L1,2 L0,6 L-1,6 L-1,1 Z " fill="#5D617C" transform="translate(605,227)"/>
<path d="M0,0 L5,0 L5,1 L12,2 L12,5 L0,5 Z " fill="#BDBFCC" transform="translate(139,324)"/>
<path d="M0,0 L2,0 L1,4 L-25,5 L-28,9 L-28,4 L-27,3 L0,3 Z " fill="#202953" transform="translate(667,259)"/>
<path d="M0,0 L4,2 L11,7 L17,9 L17,11 L10,10 L1,3 Z " fill="#888D9F" transform="translate(487,277)"/>
<path d="M0,0 L3,1 L12,17 L11,21 L6,13 L3,6 Z " fill="#9EB9DD" transform="translate(93,231)"/>
<path d="M0,0 L2,0 L1,6 L-2,9 L-11,9 L-14,6 L-13,3 L-9,7 L-4,7 L-1,4 Z " fill="#838898" transform="translate(631,325)"/>
<path d="M0,0 L2,3 L-2,9 L-1,19 L-4,16 L-5,9 Z " fill="#81A0CD" transform="translate(103,274)"/>
<path d="M0,0 L4,3 L4,17 L2,20 L0,20 L1,15 L3,15 L2,6 L0,4 Z " fill="#6C6F83" transform="translate(325,259)"/>
<path d="M0,0 L13,0 L13,2 L0,3 L-4,5 L-6,3 Z " fill="#B6B7BD" transform="translate(526,306)"/>
<path d="M0,0 L3,1 L2,5 L-1,19 L-3,19 L-1,6 Z " fill="#4D5371" transform="translate(626,256)"/>
<path d="M0,0 L4,2 L5,7 L1,6 L-2,7 L-3,9 L-5,7 Z " fill="#C2C3CD" transform="translate(226,327)"/>
<path d="M0,0 L4,5 L9,7 L18,7 L15,9 L6,9 L1,6 Z " fill="#6C7487" transform="translate(233,268)"/>
<path d="M0,0 L2,1 L-1,11 L-6,17 L-9,16 L-3,9 Z " fill="#878B99" transform="translate(258,258)"/>
<path d="M0,0 L17,0 L15,2 L0,3 Z " fill="#CECFD5" transform="translate(277,312)"/>
<path d="M0,0 L4,5 L10,15 L9,17 L3,9 L-1,1 Z " fill="#C4CFDE" transform="translate(62,284)"/>
<path d="M0,0 L9,0 L14,5 L15,10 L10,5 L8,2 L1,2 Z " fill="#848798" transform="translate(582,330)"/>
<path d="M0,0 L4,2 L10,6 L13,7 L13,9 L8,8 L3,5 L0,2 Z " fill="#87899B" transform="translate(220,279)"/>
<path d="M0,0 L12,0 L12,2 L1,2 L1,5 L-1,5 Z " fill="#545875" transform="translate(565,227)"/>
<path d="M0,0 L2,0 L1,7 L-3,14 L-4,10 Z " fill="#5F647F" transform="translate(270,265)"/>
<path d="M0,0 L2,0 L1,10 L-1,10 L-2,7 L-4,8 L-2,3 Z M-1,4 Z " fill="#5B607F" transform="translate(461,253)"/>
<path d="M0,0 L3,2 L-2,7 L-4,13 L-5,13 L-5,6 L-4,4 L-2,4 Z " fill="#D6D7DD" transform="translate(312,308)"/>
<path d="M0,0 L2,0 L0,4 L-5,11 L-7,11 L-5,6 Z " fill="#A2A4BA" transform="translate(448,271)"/>
<path d="M0,0 L2,0 L0,5 L-5,10 L-8,9 L-1,2 Z " fill="#B3B8C0" transform="translate(531,264)"/>
<path d="M0,0 L2,0 L0,5 L-6,12 L-8,11 Z " fill="#9298A6" transform="translate(739,229)"/>
<path d="M0,0 L2,0 L1,6 L-4,10 L-6,10 L-5,7 L-1,3 Z " fill="#9193A1" transform="translate(637,330)"/>
<path d="M0,0 L3,0 L4,8 L-1,7 L-1,5 L-3,4 L0,4 Z " fill="#C1C2CD" transform="translate(248,330)"/>
<path d="M0,0 L2,0 L0,4 L-6,8 L-9,8 L-9,6 Z " fill="#9598A6" transform="translate(264,279)"/>
<path d="M0,0 L0,3 L-9,14 L-11,13 Z " fill="#A1A5AF" transform="translate(453,246)"/>
<path d="M0,0 L3,3 L8,13 L6,14 L0,3 Z " fill="#898D9C" transform="translate(577,227)"/>
<path d="M0,0 L2,0 L1,5 L-4,9 L-6,11 L-6,8 L-1,2 Z " fill="#9598AA" transform="translate(722,230)"/>
<path d="M0,0 L8,3 L9,4 L9,10 L8,12 L6,11 L8,5 L2,3 L0,2 Z " fill="#8D8F9C" transform="translate(324,227)"/>
<path d="M0,0 L4,2 L5,10 L4,15 L3,15 L2,4 Z " fill="#484F79" transform="translate(692,260)"/>
<path d="M0,0 L3,1 L-5,10 L-6,7 L-3,3 L-1,3 Z " fill="#9497A8" transform="translate(729,242)"/>
<path d="M0,0 L3,1 L1,4 L-2,4 L-4,9 L-6,9 L-4,4 Z " fill="#8386A3" transform="translate(291,232)"/>
<path d="M0,0 L2,0 L7,10 L5,11 L0,3 Z " fill="#92A2B4" transform="translate(31,231)"/>
<path d="M0,0 L6,1 L8,2 L7,5 L4,6 L0,2 Z " fill="#CFD0D9" transform="translate(243,335)"/>
<path d="M0,0 L3,1 L-4,8 L-5,5 Z " fill="#BBBCC5" transform="translate(507,243)"/>
<path d="M0,0 L15,0 L15,1 L2,1 L2,4 L-1,5 Z " fill="#676987" transform="translate(345,227)"/>
<path d="M0,0 L6,1 L10,5 L9,7 L0,1 Z " fill="#898DA1" transform="translate(661,320)"/>
<path d="M0,0 L2,1 L2,5 L6,8 L1,8 L-2,5 L-1,1 Z " fill="#99A0B0" transform="translate(653,312)"/>
<path d="M0,0 L4,2 L3,8 L0,10 L0,7 L1,3 Z " fill="#D2D2D7" transform="translate(171,313)"/>
<path d="M0,0 L2,3 L2,9 L-1,9 L-1,1 Z " fill="#C0C1CE" transform="translate(217,312)"/>
<path d="M0,0 L2,1 L-2,6 L-7,9 L-6,5 Z " fill="#A9ACB7" transform="translate(207,260)"/>
<path d="M0,0 L1,3 L-1,3 L0,6 L-5,6 L-5,1 L-3,2 Z " fill="#BBBCC6" transform="translate(225,335)"/>
<path d="M0,0 L2,2 L1,8 L0,10 L-4,9 L-1,6 Z " fill="#7C8199" transform="translate(596,314)"/>
<path d="M0,0 L3,1 L-2,9 L-4,9 L-2,2 Z " fill="#D9DADF" transform="translate(519,310)"/>
<path d="M0,0 L2,0 L1,6 L2,9 L-2,7 L-2,2 Z " fill="#D8DAE0" transform="translate(192,313)"/>
<path d="M0,0 L6,0 L5,4 L0,3 Z " fill="#000091" transform="translate(555,400)"/>
<path d="M0,0 L5,0 L5,2 L9,3 L3,3 L-1,3 Z " fill="#CBCCD2" transform="translate(187,333)"/>
<path d="M0,0 L7,2 L7,4 L10,5 L3,5 L3,2 L0,2 Z " fill="#A9ABB3" transform="translate(217,321)"/>
<path d="M0,0 L2,0 L0,6 L-2,9 L-4,9 L-2,4 Z " fill="#CFD0D5" transform="translate(496,316)"/>
<path d="M0,0 L1,3 L-2,10 L-4,10 L-3,5 Z " fill="#9799A6" transform="translate(281,271)"/>
<path d="M0,0 L4,1 L6,3 L5,8 L1,9 L3,6 L2,2 Z " fill="#9395A4" transform="translate(309,266)"/>
<path d="M0,0 L1,4 L-4,8 L-7,8 L-7,6 L-2,3 Z " fill="#B3B5BD" transform="translate(195,251)"/>
<path d="M0,0 L2,0 L0,5 L-4,9 L-6,8 Z " fill="#989AB6" transform="translate(467,227)"/>
<path d="M0,0 L2,0 L1,5 L-3,8 L-5,8 L-5,6 L-1,3 Z " fill="#808496" transform="translate(669,332)"/>
<path d="M0,0 L3,1 L7,8 L6,10 L2,5 Z " fill="#DADBE0" transform="translate(482,315)"/>
<path d="M0,0 L3,0 L3,9 L1,9 Z " fill="#D6D8DD" transform="translate(382,313)"/>
<path d="M0,0 L3,1 L6,6 L5,10 L0,2 Z " fill="#6A97D4" transform="translate(99,242)"/>
<path d="M0,0 L4,2 L6,9 L4,9 L0,2 Z " fill="#B0B1BE" transform="translate(544,236)"/>
<path d="M0,0 L6,0 L2,3 L-3,6 L-2,2 Z " fill="#979AA7" transform="translate(303,239)"/>
<path d="M0,0 L6,5 L5,9 L1,4 Z " fill="#B6B7BC" transform="translate(544,309)"/>
<path d="M0,0 L3,3 L6,8 L5,10 L4,7 L2,7 L0,4 Z " fill="#A3B9D2" transform="translate(102,291)"/>
<path d="M0,0 L5,1 L10,6 L9,8 L2,2 Z " fill="#9496AD" transform="translate(524,240)"/>
<path d="M0,0 L1,0 L1,8 L-3,9 L-2,5 L0,5 Z " fill="#D6D7DD" transform="translate(420,316)"/>
<path d="M0,0 L4,1 L7,4 L6,8 L4,3 L0,1 Z " fill="#D1D1D6" transform="translate(203,308)"/>
<path d="M0,0 L2,1 L-1,11 L-2,11 L-1,1 Z " fill="#727487" transform="translate(560,249)"/>
<path d="M0,0 L2,0 L0,4 L-4,8 L-3,3 Z " fill="#8D909F" transform="translate(721,252)"/>
<path d="M0,0 L3,3 L3,4 L-5,4 L-2,3 L-2,1 Z " fill="#B9BAC3" transform="translate(244,337)"/>
</svg>
