<svg width="271" height="42" viewBox="0 0 271 42" fill="none" xmlns="http://www.w3.org/2000/svg">
<path d="M4.14669 12.4277H24.8743V16.5723H4.14669V29H0V0H29.0151V4.14454H4.14669V12.4336V12.4277Z" fill="white"/>
<path d="M32.0166 0H36.0187V29H32.0166V0Z" fill="white"/>
<path d="M69.0356 29H64.8897L44.1664 6.71133V29H40.0205V0H44.1664L64.8897 21.959V0H69.0356V29Z" fill="white"/>
<path d="M81.1677 16.4119V38H77.0391V9H81.1677L93.5476 26.9381L105.928 9H110.056V38H105.928V16.4119L93.5476 34.35L81.1677 16.4119Z" fill="#6E139C"/>
<path d="M143.075 38H138.929V29.7126H118.205V38H114.06V17.2874C114.06 12.8965 117.705 9 122.351 9H134.783C139.217 9 142.945 12.6846 143.075 17.2874V38ZM122.351 13.1437C120.072 13.1437 118.205 15.0095 118.205 17.2874V25.5748H138.929V17.2874C138.929 15.0095 137.062 13.1437 134.783 13.1437H122.351Z" fill="#6E139C"/>
<path d="M173.147 37.9941L164.855 29.7067H151.222V37.9941H147.076V9H167.8C172.152 9 176.091 12.6846 176.091 17.2874V21.4311C176.091 24.9509 173.771 28.1411 170.332 29.3006L176.091 35.057V38H173.147V37.9941ZM171.945 17.2815C171.945 15.0037 170.079 13.1378 167.8 13.1378H151.222V25.563H167.8C170.079 25.563 171.945 23.6972 171.945 21.4193V17.2756V17.2815Z" fill="#6E139C"/>
<path d="M194.601 23.5L209.109 38H203.266L190.832 25.5723H184.24V38H180.094V9H184.24V21.4277H190.832L203.266 9H209.109L194.601 23.5Z" fill="#6E139C"/>
<path d="M215.25 21.4277H235.978V25.5723H215.25V33.8555H240.124V38H211.109V9H240.124V13.1445H215.25V21.4336V21.4277Z" fill="#6E139C"/>
<path d="M257.706 13.1437V38H253.559V13.1437H241.125V9H270.14V13.1437H257.706Z" fill="#6E139C"/>
<path d="M0 38L0 42L110.057 42V38L0 38Z" fill="#6E139C"/>
<path d="M77.0391 0V4L110.056 4V0L77.0391 0Z" fill="white"/>
</svg>
