<?xml version="1.0" encoding="UTF-8"?>
<!DOCTYPE svg PUBLIC "-//W3C//DTD SVG 1.1//EN" "http://www.w3.org/Graphics/SVG/1.1/DTD/svg11.dtd">
<svg xmlns="http://www.w3.org/2000/svg" version="1.1" width="512px" height="229px" style="shape-rendering:geometricPrecision; text-rendering:geometricPrecision; image-rendering:optimizeQuality; fill-rule:evenodd; clip-rule:evenodd" xmlns:xlink="http://www.w3.org/1999/xlink">
<g><path style="opacity:1" fill="#011836" d="M 137.5,8.5 C 152.917,9.58521 160.917,17.9185 161.5,33.5C 264.501,33.3333 367.501,33.5 470.5,34C 475.351,35.8691 478.184,39.3691 479,44.5C 479.667,90.8333 479.667,137.167 479,183.5C 478.169,188.681 475.336,192.181 470.5,194C 322.167,194.667 173.833,194.667 25.5,194C 18.1673,190.174 15.6673,184.34 18,176.5C 44.5856,131.664 70.9189,86.6642 97,41.5C 98.8333,38.3333 101.333,35.8333 104.5,34C 111.167,33.6667 117.833,33.3333 124.5,33C 125.303,28.5855 125.803,24.0855 126,19.5C 127.754,13.5773 131.588,9.91064 137.5,8.5 Z"/></g>
<g><path style="opacity:1" fill="#f4f4f4" d="M 136.5,12.5 C 147.103,12.261 153.936,17.261 157,27.5C 158.819,38.8887 156.819,49.5553 151,59.5C 146.914,66.0069 142.58,72.3402 138,78.5C 135.26,79.2822 132.426,79.7822 129.5,80C 140.165,81.9997 150.832,83.9997 161.5,86C 171.601,88.6316 180.434,93.4649 188,100.5C 194.554,112.249 192.054,121.416 180.5,128C 162.209,133.883 146.042,130.383 132,117.5C 128.641,112.282 128.974,107.282 133,102.5C 135.513,100.077 138.513,98.7439 142,98.5C 147.577,99.526 153.077,100.859 158.5,102.5C 163.333,100.54 168.333,99.0403 173.5,98C 167.833,97.6667 162.167,97.3333 156.5,97C 149.372,93.5404 142.039,92.8737 134.5,95C 133.069,95.4652 131.903,96.2986 131,97.5C 129.913,93.2339 128.246,89.2339 126,85.5C 127.347,90.6752 127.68,96.0086 127,101.5C 125.333,107.833 123.667,114.167 122,120.5C 116.407,129.551 108.24,134.384 97.5,135C 104.12,137.274 110.287,136.441 116,132.5C 116.296,135.706 116.796,138.872 117.5,142C 108.362,155.235 110.029,166.901 122.5,177C 99.6086,174.776 86.4419,162.276 83,139.5C 82.042,146.134 82.542,152.634 84.5,159C 84.1667,159.5 83.8333,160 83.5,160.5C 73.2987,151.067 69.1321,139.401 71,125.5C 72.0275,120.079 74.0275,115.079 77,110.5C 78.2158,116.15 80.2158,121.483 83,126.5C 81.317,111.235 84.6503,97.235 93,84.5C 104.108,74.3975 114.108,63.3975 123,51.5C 127.64,41.3651 129.974,30.6984 130,19.5C 131.694,16.6424 133.861,14.309 136.5,12.5 Z"/></g>
<g><path style="opacity:1" fill="#8dd547" d="M 105.5,39.5 C 113.98,40.1534 118.147,44.8201 118,53.5C 109.364,63.137 100.364,72.4703 91,81.5C 89.5787,84.0094 87.9121,86.3428 86,88.5C 84.9148,87.7069 83.7481,87.0402 82.5,86.5C 80.9017,87.4847 79.235,87.6514 77.5,87C 86.4668,70.8921 95.8001,55.0587 105.5,39.5 Z"/></g>
<g><path style="opacity:1" fill="#aab2ba" d="M 250.5,66.5 C 257.982,65.508 265.648,65.1746 273.5,65.5C 273.5,60.5 273.5,55.5 273.5,50.5C 252.5,50.5 231.5,50.5 210.5,50.5C 210.5,55.5 210.5,60.5 210.5,65.5C 218.352,65.1746 226.018,65.508 233.5,66.5C 225.5,66.5 217.5,66.5 209.5,66.5C 209.5,60.8333 209.5,55.1667 209.5,49.5C 231.167,49.5 252.833,49.5 274.5,49.5C 274.5,55.1667 274.5,60.8333 274.5,66.5C 266.5,66.5 258.5,66.5 250.5,66.5 Z"/></g>
<g><path style="opacity:1" fill="#f9f9f9" d="M 250.5,66.5 C 250.5,82.8333 250.5,99.1667 250.5,115.5C 244.833,115.5 239.167,115.5 233.5,115.5C 233.5,99.1667 233.5,82.8333 233.5,66.5C 226.018,65.508 218.352,65.1746 210.5,65.5C 210.5,60.5 210.5,55.5 210.5,50.5C 231.5,50.5 252.5,50.5 273.5,50.5C 273.5,55.5 273.5,60.5 273.5,65.5C 265.648,65.1746 257.982,65.508 250.5,66.5 Z"/></g>
<g><path style="opacity:1" fill="#6b6f78" d="M 142.5,55.5 C 144.772,54.2355 147.105,54.4022 149.5,56C 147.115,56.5564 144.782,56.3897 142.5,55.5 Z"/></g>
<g><path style="opacity:1" fill="#f6f7f7" d="M 355.5,94.5 C 361.477,87.5195 367.477,80.5195 373.5,73.5C 379.472,72.3364 385.472,72.1697 391.5,73C 386.487,78.6782 381.487,84.3449 376.5,90C 381.713,98.2638 387.047,106.431 392.5,114.5C 387.695,115.487 382.695,115.821 377.5,115.5C 373.888,110.876 370.221,106.21 366.5,101.5C 361.452,105.881 356.785,110.548 352.5,115.5C 347.833,115.5 343.167,115.5 338.5,115.5C 338.5,96.5 338.5,77.5 338.5,58.5C 343.5,58.5 348.5,58.5 353.5,58.5C 353.168,70.8513 353.501,83.1847 354.5,95.5C 355.107,95.3764 355.44,95.0431 355.5,94.5 Z"/></g>
<g><path style="opacity:1" fill="#353b45" d="M 138.5,59.5 C 140.435,58.291 142.435,58.4577 144.5,60C 142.455,60.4901 140.455,60.3235 138.5,59.5 Z"/></g>
<g><path style="opacity:1" fill="#f3f3f4" d="M 283.5,71.5 C 293.059,70.0754 301.225,72.7421 308,79.5C 308.977,77.26 309.477,74.9267 309.5,72.5C 315.167,72.5 320.833,72.5 326.5,72.5C 325.694,79.3133 325.027,86.1466 324.5,93C 325.121,100.888 326.121,108.722 327.5,116.5C 321.794,116.829 316.128,116.495 310.5,115.5C 309.982,112.684 309.149,110.018 308,107.5C 300.668,114.878 291.834,117.378 281.5,115C 269.388,109.271 264.888,99.7713 268,86.5C 270.503,78.679 275.67,73.679 283.5,71.5 Z"/></g>
<g><path style="opacity:1" fill="#abb0b6" d="M 355.5,94.5 C 355.44,95.0431 355.107,95.3764 354.5,95.5C 353.501,83.1847 353.168,70.8513 353.5,58.5C 348.5,58.5 343.5,58.5 338.5,58.5C 338.5,77.5 338.5,96.5 338.5,115.5C 343.167,115.5 347.833,115.5 352.5,115.5C 347.695,116.487 342.695,116.821 337.5,116.5C 337.5,96.8333 337.5,77.1667 337.5,57.5C 343.167,57.5 348.833,57.5 354.5,57.5C 354.171,70.0113 354.505,82.3446 355.5,94.5 Z"/></g>
<g><path style="opacity:1" fill="#041836" d="M 289.5,83.5 C 296.555,82.1111 302.388,84.1111 307,89.5C 308.301,91.3646 308.635,93.3646 308,95.5C 302.225,104.749 294.891,106.416 286,100.5C 282.31,93.7563 283.477,88.0896 289.5,83.5 Z"/></g>
<g><path style="opacity:1" fill="#f2f2f3" d="M 77.5,89.5 C 79.5273,89.3379 81.5273,89.5045 83.5,90C 81.898,96.7032 78.398,102.203 73,106.5C 62.8296,124.305 63.1629,141.972 74,159.5C 77.3493,162.682 80.516,166.015 83.5,169.5C 75.7235,171.63 68.7235,170.13 62.5,165C 54.876,158.74 49.2094,151.073 45.5,142C 54.7862,125.931 63.9529,109.764 73,93.5C 74.1964,91.714 75.6964,90.3807 77.5,89.5 Z"/></g>
<g><path style="opacity:1" fill="#48c030" d="M 403.5,102.5 C 412.708,100.887 416.875,104.554 416,113.5C 410.942,118.383 405.609,118.716 400,114.5C 398.627,112.305 398.294,109.971 399,107.5C 400.366,105.638 401.866,103.972 403.5,102.5 Z"/></g>
<g><path style="opacity:1" fill="#71787f" d="M 392.5,114.5 C 393.043,114.56 393.376,114.893 393.5,115.5C 388.014,116.815 382.68,116.815 377.5,115.5C 382.695,115.821 387.695,115.487 392.5,114.5 Z"/></g>
<g><path style="opacity:1" fill="#f1f2f2" d="M 231.5,121.5 C 246.147,119.737 256.647,125.403 263,138.5C 263.494,140.134 263.66,141.801 263.5,143.5C 259.116,143.826 254.783,143.492 250.5,142.5C 246.962,134.806 240.962,131.973 232.5,134C 225.716,136.236 222.716,140.903 223.5,148C 223.241,161.058 229.574,166.058 242.5,163C 246.276,161.725 248.943,159.225 250.5,155.5C 254.783,154.508 259.116,154.174 263.5,154.5C 261.878,165.625 255.544,172.458 244.5,175C 217.181,177.012 206.015,164.512 211,137.5C 215.371,128.957 222.204,123.624 231.5,121.5 Z"/></g>
<g><path style="opacity:1" fill="#f2f2f3" d="M 127.5,122.5 C 143.621,134.958 161.621,138.791 181.5,134C 184.823,150.189 178.156,158.689 161.5,159.5C 146.757,159.207 134.257,153.873 124,143.5C 121.246,138.987 120.913,134.32 123,129.5C 124.723,127.283 126.223,124.95 127.5,122.5 Z"/></g>
<g><path style="opacity:1" fill="#f4f4f5" d="M 429.5,126.5 C 432.167,126.5 434.833,126.5 437.5,126.5C 437.5,130.167 437.5,133.833 437.5,137.5C 442.5,137.5 447.5,137.5 452.5,137.5C 452.5,140.833 452.5,144.167 452.5,147.5C 447.5,147.5 442.5,147.5 437.5,147.5C 437.161,152.93 437.661,158.264 439,163.5C 443.437,166.041 447.937,166.041 452.5,163.5C 453.489,167.107 453.823,170.774 453.5,174.5C 430.669,179.67 421.003,170.67 424.5,147.5C 422.167,147.5 419.833,147.5 417.5,147.5C 417.201,145.396 417.534,143.396 418.5,141.5C 420.642,140.399 422.808,139.399 425,138.5C 426.791,134.589 428.291,130.589 429.5,126.5 Z"/></g>
<g><path style="opacity:1" fill="#f3f4f4" d="M 379.5,126.5 C 384.167,126.5 388.833,126.5 393.5,126.5C 393.044,135.011 392.378,143.511 391.5,152C 392.548,159.834 393.548,167.667 394.5,175.5C 389.833,175.5 385.167,175.5 380.5,175.5C 380.664,172.813 380.497,170.146 380,167.5C 373.915,175.467 366.082,177.633 356.5,174C 346.555,165.946 344.388,156.112 350,144.5C 358.24,135.074 367.407,134.074 377.5,141.5C 377.783,142.289 378.283,142.956 379,143.5C 379.499,137.843 379.666,132.176 379.5,126.5 Z"/></g>
<g><path style="opacity:1" fill="#efeff0" d="M 400.5,126.5 C 405.167,127.833 409.833,127.833 414.5,126.5C 414.5,142.833 414.5,159.167 414.5,175.5C 409.833,175.5 405.167,175.5 400.5,175.5C 400.5,159.167 400.5,142.833 400.5,126.5 Z"/></g>
<g><path style="opacity:1" fill="#f4f5f5" d="M 290.5,136.5 C 293.5,136.5 296.5,136.5 299.5,136.5C 299.5,140.5 299.5,144.5 299.5,148.5C 294.302,146.695 289.469,147.362 285,150.5C 284.138,152.087 283.471,153.754 283,155.5C 282.5,162.158 282.334,168.825 282.5,175.5C 278.167,175.5 273.833,175.5 269.5,175.5C 269.926,162.754 269.259,150.088 267.5,137.5C 271.884,137.174 276.217,137.508 280.5,138.5C 281.213,140.776 281.713,143.109 282,145.5C 284.025,141.644 286.858,138.644 290.5,136.5 Z"/></g>
<g><path style="opacity:1" fill="#f2f3f3" d="M 343.5,159.5 C 334.143,159.168 324.81,159.502 315.5,160.5C 315.624,161.107 315.957,161.44 316.5,161.5C 319.554,164.866 323.388,166.199 328,165.5C 333.142,165.786 337.808,164.452 342,161.5C 342.667,164.5 342.667,167.5 342,170.5C 330.886,176.936 319.719,177.103 308.5,171C 300.628,163.09 299.462,154.257 305,144.5C 312.355,136.587 321.188,134.42 331.5,138C 339.766,142.691 343.766,149.857 343.5,159.5 Z"/></g>
<g><path style="opacity:1" fill="#555f6d" d="M 379.5,126.5 C 379.666,132.176 379.499,137.843 379,143.5C 378.283,142.956 377.783,142.289 377.5,141.5C 378.167,136.5 378.833,131.5 379.5,126.5 Z"/></g>
<g><path style="opacity:1" fill="#232931" d="M 152.5,144.5 C 153.667,147.88 153.167,151.213 151,154.5C 151.161,151.168 151.661,147.835 152.5,144.5 Z"/></g>
<g><path style="opacity:1" fill="#08132c" d="M 319.5,146.5 C 322.187,146.336 324.854,146.503 327.5,147C 329.5,147.667 330.833,149 331.5,151C 326.167,151.667 320.833,151.667 315.5,151C 316.357,148.981 317.691,147.481 319.5,146.5 Z"/></g>
<g><path style="opacity:1" fill="#051835" d="M 364.5,147.5 C 372.253,146.373 377.586,149.373 380.5,156.5C 376.211,165.089 370.044,167.089 362,162.5C 359.492,156.88 360.325,151.88 364.5,147.5 Z"/></g>
<g><path style="opacity:1" fill="#f1f2f2" d="M 119.5,148.5 C 133.179,160.393 149.179,165.726 167.5,164.5C 167.171,172.001 163.504,177.168 156.5,180C 142.038,182.402 129.871,178.235 120,167.5C 116.887,161.181 116.72,154.848 119.5,148.5 Z"/></g>
<g><path style="opacity:1" fill="#101215" d="M 162.5,146.5 C 163.472,149.52 162.972,152.52 161,155.5C 161.158,152.498 161.658,149.498 162.5,146.5 Z"/></g>
<g><path style="opacity:1" fill="#96979d" d="M 343.5,159.5 C 334.5,160.167 325.5,160.833 316.5,161.5C 315.957,161.44 315.624,161.107 315.5,160.5C 324.81,159.502 334.143,159.168 343.5,159.5 Z"/></g>
<g><path style="opacity:1" fill="#7cd23f" d="M 151.5,188.5 C 154.305,187.681 157.305,187.181 160.5,187C 159.897,184.929 158.564,183.762 156.5,183.5C 166.399,179.752 171.399,172.419 171.5,161.5C 174.392,160.606 177.059,159.272 179.5,157.5C 184.56,164.415 189.06,171.748 193,179.5C 194.123,182.956 193.29,185.79 190.5,188C 177.504,188.5 164.504,188.667 151.5,188.5 Z"/></g>
<g><path style="opacity:1" fill="#25bc27" d="M 156.5,183.5 C 158.564,183.762 159.897,184.929 160.5,187C 157.305,187.181 154.305,187.681 151.5,188.5C 109.832,188.667 68.1653,188.5 26.5,188C 23.7104,185.79 22.877,182.956 24,179.5C 30.6667,168.167 37.3333,156.833 44,145.5C 49.4442,157.277 57.9442,166.111 69.5,172C 77.9893,174.989 85.4893,173.489 92,167.5C 100.62,173.268 110.12,177.102 120.5,179C 132.265,182.442 144.265,183.942 156.5,183.5 Z"/></g>
<g><path style="opacity:1" fill="#161a24" d="M 140.5,170.5 C 141.797,171.849 141.63,173.182 140,174.5C 139.805,173.181 139.972,171.847 140.5,170.5 Z"/></g>
<g><path style="opacity:1" fill="#242935" d="M 147.5,170.5 C 148.152,172.621 147.485,174.621 145.5,176.5C 145.167,176.333 144.833,176.167 144.5,176C 145.639,174.22 146.639,172.386 147.5,170.5 Z"/></g>
</svg>
