<svg width="439" height="132" viewBox="0 0 439 132" fill="none" xmlns="http://www.w3.org/2000/svg">
<path d="M141.807 94.3881C159.705 94.3881 174.215 79.984 174.215 62.2156C174.215 44.4471 159.705 30.043 141.807 30.043C123.908 30.043 109.398 44.4471 109.398 62.2156C109.398 79.984 123.908 94.3881 141.807 94.3881Z" fill="#3C69D7"/>
<path d="M346.943 99.4389C364.842 99.4389 379.352 85.0348 379.352 67.2663C379.352 49.4979 364.842 35.0938 346.943 35.0938C329.045 35.0938 314.535 49.4979 314.535 67.2663C314.535 85.0348 329.045 99.4389 346.943 99.4389Z" fill="#3C69D7"/>
<path d="M114.341 0.244857C96.1981 0.244857 79.8998 4.62046 65.8909 13.2699C51.8821 21.9194 40.7946 34.0625 32.953 49.3941C25.1627 64.607 21.1992 82.3977 21.1992 102.291C21.1992 133.158 30.0658 157.885 47.5427 175.778C65.0709 193.721 89.2278 202.812 119.364 202.812C133.253 202.812 147.074 200.454 160.434 195.824C173.947 191.143 185.223 184.495 193.97 176.083L196.72 173.438L194.944 170.079L185.684 152.441L182.677 146.726L177.774 150.949C168.515 158.92 158.999 164.669 149.5 168.01C139.933 171.385 129.529 173.081 118.595 173.081C98.5044 173.081 83.3508 167.519 72.2975 156.054C62.2008 145.59 56.3581 130.648 54.8888 111.568H198.617V95.745C198.617 66.5234 191.185 43.1021 176.527 26.1254C161.681 8.92823 140.753 0.210938 114.341 0.210938V0.244857ZM152.9 44.6454C161.032 54.2107 165.73 67.4901 166.892 84.1785H55.6405C57.964 68.6943 63.7213 55.771 72.793 45.7139C82.8042 34.6052 96.5226 29.1951 114.717 29.1951C131.562 29.1951 144.05 34.2491 152.883 44.6454H152.9Z" fill="#BFD1FF"/>
<path d="M380.004 26.1918C365.158 8.99464 344.23 0.277344 317.818 0.277344C299.675 0.277344 283.377 4.65295 269.368 13.3024C255.359 21.9519 244.271 34.095 236.43 49.4266C228.639 64.6395 224.676 82.4302 224.676 102.324C224.676 133.191 233.542 157.918 251.019 175.81C268.547 193.754 292.704 202.844 322.841 202.844C336.73 202.844 350.551 200.487 363.91 195.857C377.424 191.176 388.699 184.528 397.446 176.116L400.197 173.47L398.42 170.112L389.161 152.474L386.154 146.758L381.251 150.981C371.991 158.952 362.475 164.702 352.977 168.043C343.41 171.418 333.006 173.114 322.072 173.114C301.981 173.114 286.827 167.551 275.774 156.086C265.677 145.622 259.835 130.681 258.366 111.601H402.093V95.7775C402.093 66.5559 394.662 43.1346 380.004 26.1579V26.1918ZM356.376 44.6609C364.508 54.2262 369.207 67.5057 370.368 84.194H259.117C261.441 68.7098 267.198 55.7865 276.27 45.7294C286.281 34.6208 299.999 29.2106 318.194 29.2106C335.038 29.2106 347.527 34.2646 356.359 44.6609H356.376Z" fill="#BFD1FF"/>
</svg>
