<?xml version="1.0" encoding="UTF-8"?>
<!DOCTYPE svg PUBLIC "-//W3C//DTD SVG 1.1//EN" "http://www.w3.org/Graphics/SVG/1.1/DTD/svg11.dtd">
<svg xmlns="http://www.w3.org/2000/svg" version="1.1" width="145px" height="32px" style="shape-rendering:geometricPrecision; text-rendering:geometricPrecision; image-rendering:optimizeQuality; fill-rule:evenodd; clip-rule:evenodd" xmlns:xlink="http://www.w3.org/1999/xlink">
<g><path style="opacity:0.774" fill="#3c69d6" d="M 6.5,1.5 C 10.8691,0.923196 14.8691,1.75653 18.5,4C 17.9535,4.92458 17.2868,5.75792 16.5,6.5C 10.2648,2.76323 6.26479,4.42989 4.5,11.5C 5.64231,19.4046 9.64231,21.4046 16.5,17.5C 18.003,18.5901 18.3363,19.7567 17.5,21C 5.61221,24.453 0.445544,19.953 2,7.5C 2.97928,5.03244 4.47928,3.03244 6.5,1.5 Z"/></g>
<g><path style="opacity:0.827" fill="#3b68d6" d="M 21.5,1.5 C 23.1238,1.36007 24.2904,2.02674 25,3.5C 27.1354,1.7215 29.6354,1.05484 32.5,1.5C 32.5,2.5 32.5,3.5 32.5,4.5C 29.0388,4.14587 26.5388,5.4792 25,8.5C 24.5008,13.1548 24.3342,17.8215 24.5,22.5C 23.5,22.5 22.5,22.5 21.5,22.5C 21.5,15.5 21.5,8.5 21.5,1.5 Z"/></g>
<g><path style="opacity:0.802" fill="#3b69d6" d="M 33.5,2.5 C 34.8845,1.19914 36.3845,1.19914 38,2.5C 39.8043,7.57968 41.8043,12.5797 44,17.5C 46.1667,12.5 48.3333,7.5 50.5,2.5C 51.723,1.38615 53.0563,1.21948 54.5,2C 51.2043,9.42722 48.0376,16.9272 45,24.5C 44.3591,26.8132 43.0257,28.4798 41,29.5C 39.8901,27.0325 40.3901,24.5325 42.5,22C 39.3848,15.4574 36.3848,8.95744 33.5,2.5 Z"/></g>
<g><path style="opacity:0.807" fill="#3b69d6" d="M 57.5,1.5 C 59.1238,1.36007 60.2904,2.02674 61,3.5C 70.1537,-1.02099 75.3203,1.81234 76.5,12C 75.3203,22.1877 70.1537,25.021 61,20.5C 60.502,23.4816 60.3354,26.4816 60.5,29.5C 59.5,29.5 58.5,29.5 57.5,29.5C 57.5,20.1667 57.5,10.8333 57.5,1.5 Z M 63.5,4.5 C 71.819,4.34422 74.6524,8.34422 72,16.5C 67.8372,20.7475 64.1705,20.4141 61,15.5C 59.9464,11.3445 60.7798,7.67787 63.5,4.5 Z"/></g>
<g><path style="opacity:1" fill="#a4a5a7" d="M 84.5,0.5 C 88.6937,0.385922 92.0271,1.88592 94.5,5C 94.3865,6.27976 93.7199,7.11309 92.5,7.5C 88.9825,4.99974 85.6491,4.99974 82.5,7.5C 86.2406,9.56323 90.0739,11.5632 94,13.5C 95.8455,17.6225 94.6788,20.7892 90.5,23C 87.5,23.6667 84.5,23.6667 81.5,23C 77.6586,21.8351 76.8253,19.6685 79,16.5C 82.8476,20.0217 86.6809,20.1884 90.5,17C 87.4479,15.0651 84.1145,13.7318 80.5,13C 76.6419,7.39944 77.9753,3.23277 84.5,0.5 Z"/></g>
<g><path style="opacity:1" fill="#a3a4a7" d="M 105.5,0.5 C 113.736,0.891218 117.403,5.05788 116.5,13C 111.5,13.3333 106.5,13.6667 101.5,14C 104.558,20.3422 108.891,21.1755 114.5,16.5C 117.264,19.5097 116.597,21.6764 112.5,23C 99.8813,24.38 95.0479,18.88 98,6.5C 100.134,3.84741 102.634,1.84741 105.5,0.5 Z M 106.5,5.5 C 106.5,6.83333 106.5,8.16667 106.5,9.5C 101.497,8.75892 101.497,7.42559 106.5,5.5 Z"/></g>
<g><path style="opacity:1" fill="#a2a3a6" d="M 127.5,0.5 C 135.593,0.993739 139.259,5.32707 138.5,13.5C 133.5,13.5 128.5,13.5 123.5,13.5C 124.226,18.0367 126.893,19.87 131.5,19C 133.329,18.7265 134.829,17.8932 136,16.5C 136.956,17.5786 137.789,18.7453 138.5,20C 131.838,25.0618 125.672,24.5618 120,18.5C 116.781,9.95364 119.281,3.95364 127.5,0.5 Z M 129.5,5.5 C 128.766,6.70792 128.433,8.04125 128.5,9.5C 123.855,10.3307 122.855,9.16407 125.5,6C 126.793,5.50999 128.127,5.34332 129.5,5.5 Z"/></g>
<g><path style="opacity:0.941" fill="#3c69d6" d="M 106.5,5.5 C 109.95,4.75635 111.616,6.08968 111.5,9.5C 109.833,9.5 108.167,9.5 106.5,9.5C 106.5,8.16667 106.5,6.83333 106.5,5.5 Z"/></g>
<g><path style="opacity:0.937" fill="#3b69d6" d="M 129.5,5.5 C 135.113,8.08866 134.779,9.422 128.5,9.5C 128.433,8.04125 128.766,6.70792 129.5,5.5 Z"/></g>
<g><path style="opacity:0.976" fill="#a8a9aa" d="M 95.5,20.5 C 97.7093,22.3144 100.043,24.1478 102.5,26C 106.578,27.6604 110.578,27.327 114.5,25C 115.725,23.437 117.225,22.2703 119,21.5C 126.486,29.5257 133.653,29.1924 140.5,20.5C 141.308,20.8076 141.975,21.3076 142.5,22C 135.773,31.5113 127.773,32.678 118.5,25.5C 109.281,32.6952 101.281,31.5285 94.5,22C 95.056,21.6174 95.3893,21.1174 95.5,20.5 Z"/></g>
</svg>
