<svg width="210" height="42" viewBox="0 0 210 42" fill="none" xmlns="http://www.w3.org/2000/svg">
<g clip-path="url(#clip0_2168_16551)">
<path d="M52.084 29.3089V8.86133H56.1744V25.8272H65.46V29.3089H52.084Z" fill="white"/>
<path d="M68.2604 29.3088V13.8478H72.1418V29.3088H68.2604ZM70.2011 11.0743C69.5642 11.0743 69.0068 10.8678 68.5291 10.4547C68.0514 10.0219 67.8125 9.44159 67.8125 8.71378C67.8125 7.98597 68.0514 7.41552 68.5291 7.00244C69.0068 6.58935 69.5642 6.38281 70.2011 6.38281C70.8579 6.38281 71.4153 6.58935 71.8731 7.00244C72.3508 7.41552 72.5897 7.98597 72.5897 8.71378C72.5897 9.44159 72.3508 10.0219 71.8731 10.4547C71.4153 10.8678 70.8579 11.0743 70.2011 11.0743Z" fill="white"/>
<path d="M81.9441 34.8555C80.9887 34.8555 80.0433 34.767 79.1077 34.5899C78.1921 34.4325 77.3462 34.226 76.5698 33.9703L77.2864 30.7247C77.9234 30.9804 78.63 31.1869 79.4063 31.3443C80.1825 31.5016 81.0485 31.5803 82.0039 31.5803C82.9394 31.5803 83.6858 31.4525 84.2432 31.1968C84.8203 30.9411 85.2384 30.5574 85.4971 30.046C85.7559 29.5543 85.8852 28.9641 85.8852 28.2756V27.597C85.4474 27.8134 84.9497 28.0003 84.3924 28.1576C83.855 28.2954 83.2279 28.3641 82.5114 28.3641C81.1379 28.3641 79.9437 28.0888 78.9286 27.538C77.9135 26.9872 77.1272 26.1709 76.5698 25.0891C76.0324 24.0072 75.7637 22.6794 75.7637 21.1058C75.7637 19.5911 76.0722 18.2634 76.6893 17.1225C77.3263 15.9816 78.2319 15.0964 79.4063 14.4669C80.5807 13.8177 81.984 13.4932 83.6162 13.4932C84.7508 13.4932 85.8753 13.5916 86.99 13.7883C88.1046 13.9654 89.0302 14.162 89.7667 14.3784V27.6266C89.7667 30.105 89.1198 31.9246 87.826 33.0851C86.5521 34.2654 84.5915 34.8555 81.9441 34.8555ZM83.1683 25.2366C83.7257 25.2366 84.2332 25.1677 84.691 25.03C85.1687 24.8727 85.5668 24.6956 85.8852 24.4989V16.8569C85.6265 16.7979 85.3179 16.7487 84.9597 16.7094C84.6213 16.67 84.1835 16.6504 83.646 16.6504C82.7901 16.6504 82.0736 16.8471 81.4963 17.2404C80.9191 17.6142 80.4812 18.1355 80.1825 18.8043C79.9039 19.4731 79.7646 20.2402 79.7646 21.1058C79.7646 21.8139 79.8442 22.4335 80.0035 22.9646C80.1626 23.4761 80.3916 23.899 80.6901 24.2333C80.9887 24.5678 81.347 24.8235 81.765 25.0005C82.1829 25.1578 82.6508 25.2366 83.1683 25.2366Z" fill="white"/>
<path d="M94.1523 29.3086V7.03173L98.0338 6.41211V13.9951C98.412 13.8575 98.85 13.7394 99.3476 13.6411C99.8651 13.5427 100.363 13.4935 100.84 13.4935C102.532 13.4935 103.846 13.7984 104.782 14.4082C105.737 14.9984 106.404 15.8245 106.782 16.8867C107.16 17.9489 107.35 19.1882 107.35 20.6044V29.3086H103.468V21.1355C103.468 20.093 103.368 19.257 103.169 18.6276C102.99 17.9784 102.682 17.5162 102.244 17.2407C101.826 16.9457 101.219 16.7982 100.422 16.7982C100.144 16.7982 99.8452 16.8277 99.5267 16.8867C99.2281 16.926 98.9494 16.9753 98.6907 17.0342C98.4319 17.0932 98.213 17.1522 98.0338 17.2113V29.3086H94.1523Z" fill="white"/>
<path d="M117.408 29.6624C115.876 29.6624 114.672 29.3968 113.796 28.8658C112.94 28.315 112.332 27.5577 111.974 26.5939C111.637 25.6103 111.467 24.4497 111.467 23.1121V9.83447L115.348 9.21484V13.8473H120.872V17.0635H115.348V23.1121C115.348 23.84 115.428 24.4497 115.588 24.9414C115.767 25.4135 116.045 25.7677 116.423 26.0037C116.821 26.2397 117.349 26.3578 118.005 26.3578C118.543 26.3578 119.061 26.3086 119.558 26.2102C120.076 26.0922 120.533 25.9545 120.931 25.7972L121.499 28.8362C121.021 29.0329 120.454 29.2199 119.797 29.3968C119.14 29.5739 118.344 29.6624 117.408 29.6624Z" fill="white"/>
<path d="M138.975 31.0301C136.845 31.0301 135.024 30.617 133.511 29.7908C131.998 28.9647 130.844 27.7549 130.048 26.1616C129.251 24.5682 128.854 22.6406 128.854 20.3784C128.854 18.6867 129.112 17.1819 129.63 15.8639C130.167 14.5264 130.904 13.4052 131.839 12.5003C132.774 11.5758 133.869 10.8775 135.123 10.4054C136.377 9.93331 137.731 9.69727 139.184 9.69727C140.339 9.69727 141.344 9.79562 142.199 9.99233C143.056 10.189 143.752 10.4054 144.29 10.6414C144.847 10.8775 145.235 11.0742 145.455 11.2316L144.26 14.5068C143.663 14.1723 142.946 13.8871 142.11 13.651C141.274 13.3953 140.319 13.2675 139.244 13.2675C138.109 13.2675 137.074 13.5232 136.139 14.0347C135.223 14.5264 134.487 15.2935 133.93 16.3361C133.372 17.3786 133.093 18.7064 133.093 20.3193C133.093 21.6963 133.302 22.9257 133.72 24.0076C134.158 25.0699 134.835 25.9156 135.75 26.5451C136.686 27.1549 137.881 27.4599 139.334 27.4599C140.707 27.4599 141.801 27.3319 142.618 27.0762C143.434 26.8205 144.091 26.5648 144.588 26.3091L145.723 29.5843C145.145 29.9186 144.27 30.2432 143.095 30.558C141.941 30.8727 140.567 31.0301 138.975 31.0301Z" fill="#03D9FF"/>
<path d="M148.551 30.6168V15.9523C149.267 15.6966 150.143 15.4508 151.178 15.2147C152.233 14.959 153.417 14.8311 154.731 14.8311C155.07 14.8311 155.467 14.8606 155.926 14.9196C156.383 14.959 156.822 15.018 157.239 15.0966C157.677 15.1753 158.035 15.2737 158.314 15.3917L157.657 18.5783C157.299 18.48 156.851 18.3816 156.313 18.2833C155.797 18.185 155.209 18.1358 154.552 18.1358C154.154 18.1358 153.746 18.1653 153.328 18.2243C152.93 18.2833 152.631 18.3522 152.432 18.4308V30.6168H148.551Z" fill="#03D9FF"/>
<path d="M167.937 31.0009C166.066 31.0009 164.534 30.6566 163.339 29.9682C162.145 29.26 161.25 28.2962 160.653 27.0765C160.076 25.857 159.787 24.4899 159.787 22.9753C159.787 21.1459 160.144 19.6312 160.861 18.4313C161.578 17.2118 162.493 16.2971 163.608 15.6873C164.723 15.0579 165.907 14.7432 167.161 14.7432C168.594 14.7432 169.829 15.0382 170.863 15.6283C171.918 16.2184 172.725 17.0937 173.282 18.2543C173.859 19.4148 174.148 20.8705 174.148 22.6211C174.148 22.8375 174.138 23.0835 174.118 23.3588C174.099 23.6342 174.078 23.8801 174.058 24.0965H163.817C163.896 25.2177 164.325 26.093 165.101 26.7225C165.898 27.352 167.002 27.6667 168.415 27.6667C169.291 27.6667 170.098 27.5881 170.834 27.4307C171.59 27.2733 172.187 27.0962 172.626 26.8996L173.192 30.0567C172.755 30.2731 172.038 30.4796 171.042 30.6763C170.067 30.8927 169.032 31.0009 167.937 31.0009ZM163.817 21.3819H170.356C170.336 20.7721 170.207 20.2115 169.968 19.7001C169.749 19.169 169.41 18.7461 168.953 18.4313C168.515 18.1166 167.928 17.9593 167.191 17.9593C166.475 17.9593 165.878 18.1264 165.4 18.4609C164.942 18.7756 164.584 19.1986 164.325 19.7296C164.066 20.241 163.896 20.7918 163.817 21.3819Z" fill="#03D9FF"/>
<path d="M185.05 31.0008C183.378 31.0008 181.935 30.6763 180.721 30.0271C179.527 29.378 178.601 28.4535 177.943 27.2536C177.307 26.034 176.988 24.5981 176.988 22.9457C176.988 21.2934 177.267 19.8575 177.825 18.6379C178.382 17.4183 179.178 16.484 180.213 15.8348C181.268 15.166 182.532 14.8316 184.005 14.8316C184.702 14.8316 185.318 14.9103 185.856 15.0677C186.413 15.225 186.931 15.412 187.409 15.6282V8.34033L191.29 7.7207V30.1157C190.812 30.2731 190.225 30.4206 189.529 30.5583C188.832 30.6763 188.096 30.7746 187.32 30.8533C186.562 30.9516 185.806 31.0008 185.05 31.0008ZM185.08 27.6962C185.598 27.6962 186.055 27.6765 186.453 27.6371C186.852 27.5782 187.17 27.5289 187.409 27.4896V18.9034C187.11 18.687 186.702 18.5002 186.184 18.3428C185.687 18.1855 185.15 18.1067 184.573 18.1067C183.955 18.1067 183.417 18.2149 182.96 18.4313C182.522 18.628 182.154 18.933 181.855 19.3461C181.557 19.7394 181.337 20.2312 181.199 20.8213C181.059 21.3918 180.989 22.0507 180.989 22.7982C180.989 23.8015 181.149 24.6669 181.467 25.3948C181.785 26.1226 182.253 26.693 182.871 27.1061C183.487 27.4995 184.224 27.6962 185.08 27.6962Z" fill="#03D9FF"/>
<path d="M202.447 31.0009C200.954 31.0009 199.63 30.6665 198.476 29.9977C197.341 29.3092 196.455 28.3552 195.818 27.1356C195.181 25.916 194.863 24.4899 194.863 22.8572C194.863 21.2245 195.191 19.8083 195.849 18.6084C196.505 17.4085 197.401 16.4643 198.535 15.7759C199.69 15.0874 200.993 14.7432 202.447 14.7432C203.92 14.7432 205.224 15.0874 206.358 15.7759C207.512 16.4447 208.408 17.3889 209.046 18.6084C209.682 19.8083 210.001 21.2245 210.001 22.8572C210.001 24.4899 209.682 25.916 209.046 27.1356C208.428 28.3552 207.552 29.3092 206.417 29.9977C205.303 30.6665 203.979 31.0009 202.447 31.0009ZM202.447 27.6963C203.203 27.6963 203.84 27.4995 204.358 27.1061C204.895 26.7126 205.303 26.152 205.582 25.4242C205.88 24.6964 206.03 23.8408 206.03 22.8572C206.03 21.8737 205.88 21.0279 205.582 20.3197C205.303 19.6116 204.895 19.0608 204.358 18.6674C203.84 18.2739 203.203 18.0773 202.447 18.0773C201.69 18.0773 201.043 18.2739 200.506 18.6674C199.968 19.0608 199.56 19.6116 199.282 20.3197C199.003 21.0279 198.864 21.8737 198.864 22.8572C198.864 23.8408 199.003 24.6964 199.282 25.4242C199.56 26.1324 199.968 26.693 200.506 27.1061C201.043 27.4995 201.69 27.6963 202.447 27.6963Z" fill="#03D9FF"/>
<path d="M5.98958 27.3825V7.7207L0 11.6325V30.7795L16.7708 41.9486L25.5208 35.8751V28.3089L16.7708 34.3825L5.98958 27.3825Z" fill="#03D9FF"/>
<path d="M16.9277 34.228L25.5215 28.3604V35.9265L16.9277 42.0001V34.228Z" fill="#0DB3D1"/>
<path d="M16.5098 9.88281L8.54102 15.2872V25.8902L17.1868 31.1916L25.5202 25.8902V16.0078L16.5098 9.88281Z" fill="#03D9FF"/>
<path d="M17.291 31.1265V10.5L25.4681 15.9044L25.5202 25.8897L17.291 31.1265Z" fill="url(#paint0_linear_2168_16551)"/>
<path d="M16.1979 0L8.4375 5.25V12.9191L16.7187 7.25735L28.0729 14.6176V34.5368L34.0625 30.4706V11.8897L16.1979 0Z" fill="#A5DE07"/>
<path d="M34.0104 18.6838L11.25 3.44853L16.1458 0L34.0104 11.8382V18.6838Z" fill="#97C614"/>
</g>
<defs>
<linearGradient id="paint0_linear_2168_16551" x1="25.4681" y1="31.3971" x2="10.2326" y2="22.2265" gradientUnits="userSpaceOnUse">
<stop stop-color="#A5DE07"/>
<stop offset="1" stop-color="#03D9FF"/>
</linearGradient>
<clipPath id="clip0_2168_16551">
<rect width="210" height="42" fill="white"/>
</clipPath>
</defs>
</svg>
