<?xml version="1.0" encoding="UTF-8"?>
<svg version="1.1" xmlns="http://www.w3.org/2000/svg" width="300" height="130">
<path d="M0 0 C99 0 198 0 300 0 C300 42.9 300 85.8 300 130 C201 130 102 130 0 130 C0 87.1 0 44.2 0 0 Z " fill="#FEFEFE" transform="translate(0,0)"/>
<path d="M0 0 C0.73766602 0.00016113 1.47533203 0.00032227 2.23535156 0.00048828 C4.47018864 -0.00386341 6.70301545 -0.04011013 8.9375 -0.078125 C10.36718077 -0.08399765 11.7968709 -0.08796404 13.2265625 -0.08984375 C15.17127441 -0.10217041 15.17127441 -0.10217041 17.15527344 -0.11474609 C21.331592 0.45092733 23.48964326 1.74149442 26.7421875 4.37109375 C28.48693809 7.86059493 28.45689155 11.57463828 27.7421875 15.37109375 C25.60923295 18.17346788 22.88365396 19.80036052 19.7421875 21.37109375 C17.5348952 21.44202217 15.32551298 21.455244 13.1171875 21.43359375 C11.92867187 21.42457031 10.74015625 21.41554688 9.515625 21.40625 C8.60039063 21.39464844 7.68515625 21.38304688 6.7421875 21.37109375 C8.0511447 24.49306853 8.0511447 24.49306853 10.7421875 26.37109375 C14.18316533 26.63550186 17.61767251 26.81569288 21.06445312 26.9765625 C26.64144895 27.2703552 26.64144895 27.2703552 27.7421875 28.37109375 C27.8671875 30.87109375 27.8671875 30.87109375 27.7421875 33.37109375 C25.3621622 35.75111905 19.74302791 34.79452253 16.5546875 34.87109375 C15.60787109 34.92523438 14.66105469 34.979375 13.68554688 35.03515625 C6.79862912 35.16972268 6.79862912 35.16972268 3.77636719 32.88500977 C-0.1610527 28.39059767 -2.04576383 24.12772651 -2.5078125 18.12109375 C-2.2578125 15.37109375 -2.2578125 15.37109375 -0.2578125 13.37109375 C1.71337891 13.05224609 1.71337891 13.05224609 4.09375 12.95703125 C4.94453125 12.91835938 5.7953125 12.8796875 6.671875 12.83984375 C8.00605469 12.7934375 8.00605469 12.7934375 9.3671875 12.74609375 C10.264375 12.70742188 11.1615625 12.66875 12.0859375 12.62890625 C14.3044802 12.53450018 16.52301153 12.44892627 18.7421875 12.37109375 C19.0721875 11.05109375 19.4021875 9.73109375 19.7421875 8.37109375 C11.4921875 8.37109375 3.2421875 8.37109375 -5.2578125 8.37109375 C-5.17870021 16.50867799 -5.17870021 16.50867799 -5.07763672 24.64599609 C-5.07014404 26.1612085 -5.07014404 26.1612085 -5.0625 27.70703125 C-5.05202637 28.7439209 -5.04155273 29.78081055 -5.03076172 30.84912109 C-5.2578125 33.37109375 -5.2578125 33.37109375 -7.2578125 35.37109375 C-11.81336806 34.81553819 -11.81336806 34.81553819 -13.2578125 33.37109375 C-13.47614239 28.9711043 -13.44360396 24.56574563 -13.44311523 20.16088867 C-13.44530001 17.94625593 -13.46344781 15.73212252 -13.48242188 13.51757812 C-13.48535606 12.11588713 -13.48734069 10.71419375 -13.48828125 9.3125 C-13.49239014 8.03060791 -13.49649902 6.74871582 -13.50073242 5.42797852 C-12.91540772 -1.93770047 -5.74340269 0.039608 0 0 Z " fill="#31323A" transform="translate(85.2578125,47.62890625)"/>
<path d="M0 0 C1.20591797 0.00257812 2.41183594 0.00515625 3.65429688 0.0078125 C14.74746821 0.22832833 14.74746821 0.22832833 19.4375 4.75 C22.19528028 8.77143176 21.96010645 13.04654192 21.4375 17.75 C19.73470731 22.58951606 17.98883491 24.50217987 13.4375 26.75 C8.97831279 27.43250983 4.50621595 27.3511702 0 27.375 C-1.21494141 27.42011719 -2.42988281 27.46523437 -3.68164062 27.51171875 C-12.40039707 27.57860236 -12.40039707 27.57860236 -15.71142578 25.21777344 C-19.4877643 20.87458972 -21.17112297 17.0877685 -20.98999023 11.31347656 C-20.33919898 7.41095905 -18.60397945 5.27457583 -15.95166016 2.41259766 C-11.14810446 -0.93015876 -5.63417205 -0.22959629 0 0 Z " fill="#34353D" transform="translate(223.5625,55.25)"/>
<path d="M0 0 C1.39120471 0.00015906 2.78241534 0.00585033 4.17358398 0.01586914 C4.90463852 0.01728409 5.63569305 0.01869904 6.38890076 0.02015686 C8.73253406 0.02577131 11.07607313 0.03832617 13.41967773 0.05102539 C15.00496282 0.05603853 16.59024939 0.06060176 18.17553711 0.06469727 C22.06945383 0.07574542 25.96329979 0.09301967 29.85717773 0.11352539 C30.35217773 2.58852539 30.35217773 2.58852539 30.85717773 5.11352539 C29.20717773 6.43352539 27.55717773 7.75352539 25.85717773 9.11352539 C26.84717773 9.44352539 27.83717773 9.77352539 28.85717773 10.11352539 C28.44371715 15.08404065 26.2545183 17.16785087 22.73217773 20.55102539 C22.23516357 21.02967041 21.73814941 21.50831543 21.22607422 22.00146484 C19.78088008 23.38385502 18.31934576 24.7491012 16.85717773 26.11352539 C16.14948242 26.78899414 15.44178711 27.46446289 14.71264648 28.16040039 C10.39244559 32.11352539 10.39244559 32.11352539 5.85717773 32.11352539 C5.85717773 30.79352539 5.85717773 29.47352539 5.85717773 28.11352539 C5.13530273 28.79415039 4.41342773 29.47477539 3.66967773 30.17602539 C0.85717773 32.11352539 0.85717773 32.11352539 -1.81860352 31.73461914 C-2.5855957 31.5296582 -3.35258789 31.32469727 -4.14282227 31.11352539 C-4.16747849 26.85937916 -4.18566125 22.60527041 -4.19775391 18.35107422 C-4.20279327 16.90282467 -4.2096248 15.45458022 -4.21826172 14.00634766 C-4.23034474 11.92877951 -4.23605438 9.85127842 -4.24047852 7.77368164 C-4.24571533 6.52208252 -4.25095215 5.2704834 -4.25634766 3.98095703 C-4.09758556 -0.02906634 -4.05324108 0.14641164 0 0 Z " fill="#2D2E36" transform="translate(26.142822265625,49.886474609375)"/>
<path d="M0 0 C0.70224197 0.00187317 1.40448395 0.00374634 2.12800598 0.00567627 C3.60646338 0.01237957 5.08490356 0.02625989 6.56323242 0.046875 C8.83463888 0.07816092 11.1053521 0.08786057 13.37695312 0.09375 C24.48098451 0.16457826 24.48098451 0.16457826 25.64453125 1.328125 C25.7319077 3.18182111 25.75151278 5.03880041 25.7421875 6.89453125 C25.73896484 8.01923828 25.73574219 9.14394531 25.73242188 10.30273438 C25.71985352 12.07874023 25.71985352 12.07874023 25.70703125 13.890625 C25.70251953 15.07849609 25.69800781 16.26636719 25.69335938 17.49023438 C25.681528 20.43624726 25.66504412 23.38216181 25.64453125 26.328125 C22.67453125 26.823125 22.67453125 26.823125 19.64453125 27.328125 C17.11677774 23.53649473 17.4201009 20.51938469 17.51953125 16.140625 C17.52855469 15.39103516 17.53757813 14.64144531 17.546875 13.86914062 C17.57040547 12.02199846 17.60627564 10.17502088 17.64453125 8.328125 C13.8317118 8.46628029 10.01937408 8.61493062 6.20703125 8.765625 C4.57411133 8.82459961 4.57411133 8.82459961 2.90820312 8.88476562 C1.35649414 8.94760742 1.35649414 8.94760742 -0.2265625 9.01171875 C-1.1848999 9.04837646 -2.1432373 9.08503418 -3.13061523 9.12280273 C-5.326858 9.08646924 -5.326858 9.08646924 -6.35546875 10.328125 C-6.52213542 13.328125 -6.52213542 13.328125 -6.35546875 16.328125 C-4.00584981 18.67774394 2.75369179 17.73948034 6.11914062 17.84570312 C7.32086914 17.89694336 7.32086914 17.89694336 8.546875 17.94921875 C9.28413818 17.9742749 10.02140137 17.99933105 10.78100586 18.02514648 C12.64453125 18.328125 12.64453125 18.328125 14.64453125 20.328125 C14.83203125 22.890625 14.83203125 22.890625 14.64453125 25.328125 C12.20326442 27.76939183 6.2272139 26.75328293 2.95703125 26.828125 C1.46526367 26.90933594 1.46526367 26.90933594 -0.05664062 26.9921875 C-7.30111718 27.12714781 -7.30111718 27.12714781 -10.36572266 24.8046875 C-14.10488767 20.49688341 -15.71471693 17.25787454 -15.640625 11.42578125 C-15.0749524 7.26460061 -12.58214941 4.53039676 -9.67456055 1.68066406 C-6.38601778 -0.2372775 -3.78794893 -0.02695553 0 0 Z " fill="#35363E" transform="translate(131.35546875,55.671875)"/>
<path d="M0 0 C2.51500251 1.64286454 4.14292998 2.80698502 5.9375 5.265625 C6.47339337 8.320972 6.40533066 11.29789839 6.3125 14.390625 C6.31121094 15.21433594 6.30992187 16.03804687 6.30859375 16.88671875 C6.21877596 22.98434904 6.21877596 22.98434904 3.9375 25.265625 C-0.61805556 24.71006944 -0.61805556 24.71006944 -2.0625 23.265625 C-2.19792542 20.11322223 -2.31047513 16.96785646 -2.31640625 13.8125 C-2.350346 11.53370609 -2.350346 11.53370609 -3.0625 8.265625 C-6.52411039 5.32707628 -9.38209164 4.92287849 -13.90234375 4.8671875 C-17.17757256 5.47129842 -19.31731462 6.34975436 -22.0625 8.265625 C-22.6452699 11.0461814 -22.85973745 13.05423716 -22.8125 15.828125 C-22.85329943 23.05642443 -22.85329943 23.05642443 -25.0625 25.265625 C-29.61805556 24.71006944 -29.61805556 24.71006944 -31.0625 23.265625 C-31.24350353 20.5001284 -31.34068821 17.78344299 -31.375 15.015625 C-31.40400391 14.25121094 -31.43300781 13.48679687 -31.46289062 12.69921875 C-31.50683961 8.78437864 -31.37211141 6.76462994 -29.26171875 3.36328125 C-20.9750762 -4.54067443 -10.11166378 -4.82602135 0 0 Z " fill="#32333B" transform="translate(193.0625,57.734375)"/>
<path d="M0 0 C2 2 2 2 2.125 4.4375 C1 7 1 7 -2.375 8.6875 C-7.46707691 10.31696461 -12.72715413 11.17611783 -18 12 C-18 13.32 -18 14.64 -18 16 C-16.72382813 16.26554687 -15.44765625 16.53109375 -14.1328125 16.8046875 C-12.46345798 17.16106655 -10.79419164 17.51785884 -9.125 17.875 C-7.86236328 18.13603516 -7.86236328 18.13603516 -6.57421875 18.40234375 C-5.36572266 18.66337891 -5.36572266 18.66337891 -4.1328125 18.9296875 C-3.38918457 19.08679199 -2.64555664 19.24389648 -1.87939453 19.40576172 C0 20 0 20 2 22 C1.44444444 26.55555556 1.44444444 26.55555556 0 28 C-8.52160728 27.45021889 -18.87338986 26.53505082 -25 20 C-26.20190901 16.39427296 -26.32670315 13.7897565 -26 10 C-23.36492343 5.49553664 -20.6550943 4.15922304 -15.84960938 2.78320312 C-15.09486328 2.58662109 -14.34011719 2.39003906 -13.5625 2.1875 C-12.81162109 1.97158203 -12.06074219 1.75566406 -11.28710938 1.53320312 C-7.50729638 0.48602538 -3.94943568 -0.49460223 0 0 Z " fill="#34353C" transform="translate(285,55)"/>
<path d="M0 0 C0.91644287 0.00523682 1.83288574 0.01047363 2.77709961 0.01586914 C3.76645508 0.0190918 4.75581055 0.02231445 5.77514648 0.02563477 C6.81606445 0.03401367 7.85698242 0.04239258 8.92944336 0.05102539 C10.49662109 0.05779297 10.49662109 0.05779297 12.09545898 0.06469727 C14.68600996 0.07652627 17.27644895 0.0930085 19.86694336 0.11352539 C19.09862381 5.1065571 17.4078652 7.02994242 13.74194336 10.55102539 C13.2449292 11.02967041 12.74791504 11.50831543 12.23583984 12.00146484 C10.7906457 13.38385502 9.32911139 14.7491012 7.86694336 16.11352539 C7.15924805 16.78899414 6.45155273 17.46446289 5.72241211 18.16040039 C1.40221122 22.11352539 1.40221122 22.11352539 -3.13305664 22.11352539 C-4.31105326 17.64768745 -4.08585288 13.41989315 -3.75805664 8.86352539 C-3.71422852 8.13133789 -3.67040039 7.39915039 -3.62524414 6.64477539 C-3.19359038 0.16996904 -3.19359038 0.16996904 0 0 Z " fill="#93F71C" transform="translate(35.133056640625,59.886474609375)"/>
<path d="M0 0 C4.55555556 0.55555556 4.55555556 0.55555556 6 2 C6.11317284 4.35228319 6.16416537 6.67411948 6.16796875 9.02734375 C6.17129715 9.73145889 6.17462555 10.43557404 6.17805481 11.161026 C6.18312655 12.65316106 6.18546306 14.1453075 6.18530273 15.63745117 C6.18748759 17.92450607 6.20563549 20.21107753 6.22460938 22.49804688 C6.22754354 23.94531084 6.22952818 25.39257711 6.23046875 26.83984375 C6.23765427 27.52634506 6.24483978 28.21284637 6.25224304 28.92015076 C6.22882369 33.77117631 6.22882369 33.77117631 4 36 C-0.55555556 35.44444444 -0.55555556 35.44444444 -2 34 C-2.11317284 31.64771681 -2.16416537 29.32588052 -2.16796875 26.97265625 C-2.17129715 26.26854111 -2.17462555 25.56442596 -2.17805481 24.838974 C-2.18312655 23.34683894 -2.18546306 21.8546925 -2.18530273 20.36254883 C-2.18748759 18.07549393 -2.20563549 15.78892247 -2.22460938 13.50195312 C-2.22754354 12.05468916 -2.22952818 10.60742289 -2.23046875 9.16015625 C-2.23765427 8.47365494 -2.24483978 7.78715363 -2.25224304 7.07984924 C-2.22882369 2.22882369 -2.22882369 2.22882369 0 0 Z " fill="#303139" transform="translate(251,47)"/>
<path d="M0 0 C0.94673584 0.00410889 1.89347168 0.00821777 2.86889648 0.01245117 C3.89563477 0.01438477 4.92237305 0.01631836 5.98022461 0.01831055 C7.05594727 0.03055664 8.13166992 0.04280273 9.23999023 0.05541992 C10.31958008 0.05606445 11.39916992 0.05670898 12.51147461 0.05737305 C20.53734426 0.10277394 20.53734426 0.10277394 21.67749023 1.24291992 C21.81030273 3.05541992 21.81030273 3.05541992 21.80249023 5.24291992 C21.80635742 6.32573242 21.80635742 6.32573242 21.81030273 7.43041992 C21.67749023 9.24291992 21.67749023 9.24291992 20.67749023 10.24291992 C18.89677777 10.33018215 17.11265883 10.34991033 15.32983398 10.34057617 C14.25024414 10.33735352 13.1706543 10.33413086 12.05834961 10.33081055 C10.92204102 10.32243164 9.78573242 10.31405273 8.61499023 10.30541992 C7.47481445 10.3009082 6.33463867 10.29639648 5.15991211 10.29174805 C2.33238672 10.2799174 -0.49503617 10.26343402 -3.32250977 10.24291992 C-4.70375994 7.48041957 -4.51330283 5.29560893 -4.32250977 2.24291992 C-2.32250977 0.24291992 -2.32250977 0.24291992 0 0 Z " fill="#FCFCFC" transform="translate(215.322509765625,63.757080078125)"/>
<path d="M0 0 C8.25 0 16.5 0 25 0 C24.67 1.65 24.34 3.3 24 5 C23.44014404 5.0093457 22.88028809 5.01869141 22.3034668 5.02832031 C19.76391854 5.08204507 17.22620889 5.16568187 14.6875 5.25 C13.80642578 5.26417969 12.92535156 5.27835938 12.01757812 5.29296875 C7.12603757 5.38552114 7.12603757 5.38552114 2.9375 7.59375 C1.66954809 10.84815989 1.47380976 13.76570908 1.3125 17.25 C1.24675781 18.51328125 1.18101563 19.7765625 1.11328125 21.078125 C1.07589844 22.04234375 1.03851563 23.0065625 1 24 C0.67 24 0.34 24 0 24 C0 16.08 0 8.16 0 0 Z " fill="#F4F4F4" transform="translate(80,56)"/>
</svg>
